<svg width="25" height="25" viewBox="0 0 25 25" fill="none" xmlns="http://www.w3.org/2000/svg">
<path d="M0.777975 9.37791L5.76708 8.32254C6.83029 8.09763 7.75586 7.40559 8.31739 6.41562L11.675 0.496845C12.0504 -0.164961 12.9496 -0.164966 13.325 0.496845L16.6826 6.41562C17.2442 7.40559 18.1697 8.09763 19.2329 8.32254L24.2221 9.37791C24.9806 9.53839 25.2628 10.539 24.7134 11.1201L20.7309 15.3324C19.8079 16.3086 19.4069 17.7154 19.6641 19.0752L20.5507 23.7643C20.7094 24.6035 19.8957 25.2712 19.1771 24.8912L14.2123 22.2656C13.1333 21.6949 11.8667 21.6949 10.7877 22.2656L5.82288 24.8912C5.10436 25.2712 4.29059 24.6035 4.44932 23.7643L5.33596 19.0752C5.59307 17.7154 5.19214 16.3086 4.26913 15.3324L0.286621 11.1201C-0.262795 10.539 0.0194127 9.53839 0.777975 9.37791Z" fill="#7DDAB9"/>
</svg>
