<svg width="265" height="184" viewBox="0 0 265 184" fill="none" xmlns="http://www.w3.org/2000/svg">
<path d="M61.1082 1C73.03 1 84.4635 4.47873 92.8935 10.6709C101.323 16.8631 106.059 25.2615 106.059 34.0186V152.78H16.1348V34.0186C16.1348 25.2615 20.8707 16.8631 29.3006 10.6709C37.7306 4.47873 49.1641 1 61.0859 1H61.1082Z" stroke="#263238" stroke-linecap="round" stroke-linejoin="round"/>
<path d="M26.3114 152.423V35.0855C26.3114 28.3062 29.9773 21.8045 36.5028 17.0104C43.0284 12.2164 51.8791 9.52257 61.1083 9.52148V9.52148C70.3385 9.52148 79.1907 12.2148 85.7174 17.009C92.2441 21.8032 95.9108 28.3055 95.9108 35.0855V152.423" stroke="#263238" stroke-linecap="round" stroke-linejoin="round"/>
<path d="M61.1083 1V152.603" stroke="#263238" stroke-linecap="round" stroke-linejoin="round"/>
<path d="M16.6431 30.2031H105.456" stroke="#263238" stroke-linecap="round" stroke-linejoin="round"/>
<path d="M16.6431 50.7949H105.456" stroke="#263238" stroke-linecap="round" stroke-linejoin="round"/>
<path d="M16.6431 71.3862H105.456" stroke="#263238" stroke-linecap="round" stroke-linejoin="round"/>
<path d="M16.6431 91.9814H105.456" stroke="#263238" stroke-linecap="round" stroke-linejoin="round"/>
<path d="M16.6431 112.573H105.456" stroke="#263238" stroke-linecap="round" stroke-linejoin="round"/>
<path d="M16.6431 133.165H105.456" stroke="#263238" stroke-linecap="round" stroke-linejoin="round"/>
<path d="M28.5177 11.3057L36.5718 16.6925" stroke="#263238" stroke-linecap="round" stroke-linejoin="round"/>
<path d="M93.3638 11.3057L85.3097 16.6925" stroke="#263238" stroke-linecap="round" stroke-linejoin="round"/>
<path d="M248.922 6.21045H160.104V95.0751H248.922V6.21045Z" stroke="#263238" stroke-linecap="round" stroke-linejoin="round"/>
<path d="M242.907 9.95215H166.119V91.3294H242.907V9.95215Z" stroke="#263238" stroke-linecap="round" stroke-linejoin="round"/>
<path d="M242.907 14.9291C241.65 14.6993 228.184 12.3977 225.14 17.7599C221.951 23.3848 243.013 37.9165 231.524 49.638C220.035 61.3594 187.483 43.5455 182.373 52.9201C177.262 62.2948 177.904 74.9517 168.968 77.2984C168.035 77.5384 167.079 77.725 166.108 77.8564V91.3543H242.907V14.9291Z" stroke="#263238" stroke-miterlimit="10"/>
<path d="M185.132 9.95215C190.913 12.2907 195.185 15.6672 190.678 20.0817C181.105 29.4605 167.063 35.0853 176 40.2424C184.936 45.3995 208.546 41.1861 205.345 26.6461C203.58 18.6089 203.575 13.4436 205.217 9.95215H185.132Z" stroke="#263238" stroke-miterlimit="10"/>
<path d="M205.785 78.0038C211.796 76.1468 214.62 71.062 212.092 66.6466C209.564 62.2311 202.641 60.1571 196.63 62.0141C190.619 63.8711 187.796 68.9559 190.324 73.3713C192.852 77.7867 199.774 79.8608 205.785 78.0038Z" stroke="#263238" stroke-miterlimit="10"/>
<path d="M238.545 62.0399C238.545 62.7354 238.264 63.4151 237.738 63.9933C237.212 64.5715 236.465 65.0222 235.59 65.2883C234.715 65.5544 233.753 65.6241 232.824 65.4884C231.896 65.3527 231.043 65.0179 230.373 64.5262C229.704 64.0344 229.248 63.4079 229.063 62.7259C228.879 62.0438 228.974 61.3369 229.336 60.6944C229.698 60.052 230.312 59.5028 231.099 59.1165C231.886 58.7301 232.811 58.5239 233.758 58.5239C235.028 58.5239 236.245 58.8944 237.143 59.5537C238.04 60.2131 238.545 61.1074 238.545 62.0399V62.0399Z" stroke="#263238" stroke-miterlimit="10"/>
<path d="M191.94 33.2109C191.94 33.7678 191.715 34.3121 191.294 34.775C190.873 35.2379 190.274 35.5987 189.574 35.8116C188.873 36.0245 188.103 36.0799 187.359 35.971C186.616 35.8621 185.933 35.5936 185.397 35.1996C184.862 34.8056 184.497 34.3037 184.35 33.7575C184.203 33.2113 184.28 32.6453 184.57 32.1311C184.861 31.6169 185.353 31.1776 185.984 30.8688C186.615 30.5601 187.356 30.3957 188.114 30.3965C188.617 30.3965 189.115 30.4693 189.58 30.6108C190.044 30.7523 190.466 30.9597 190.822 31.2211C191.177 31.4825 191.459 31.7928 191.651 32.1342C191.843 32.4757 191.941 32.8415 191.94 33.2109Z" stroke="#263238" stroke-miterlimit="10"/>
<path d="M233.333 159.147C234.532 158.529 235.702 157.883 236.841 157.21C235.516 157.687 234.325 158.344 233.333 159.147Z" fill="#263238"/>
<path d="M244.365 148.553C242.186 147.733 238.293 149.251 236.746 150.379C236.646 150.453 235.663 151.355 235.132 151.86C235.26 151.253 235.394 150.629 235.501 150.03C235.802 148.25 236.031 146.44 236.271 144.635C236.344 144.081 236.422 143.532 236.506 142.994C236.819 143.08 240.539 144.098 242.371 144.003C243.996 143.917 246.04 143.478 246.979 142.416C247.212 142.171 247.372 141.894 247.45 141.601C247.527 141.308 247.52 141.007 247.428 140.716C247.337 140.425 247.163 140.152 246.918 139.914C246.673 139.676 246.362 139.479 246.007 139.335C243.834 138.514 239.935 140.028 238.388 141.16C238.271 141.246 236.858 142.547 236.517 142.892C236.69 141.661 236.88 140.471 237.132 139.285C237.462 137.684 237.934 136.099 238.545 134.543C238.69 134.584 242.566 135.659 244.443 135.56C246.068 135.478 248.112 135.039 249.051 133.976C249.285 133.732 249.446 133.454 249.524 133.161C249.602 132.867 249.595 132.565 249.503 132.274C249.412 131.983 249.237 131.709 248.992 131.471C248.746 131.233 248.435 131.035 248.079 130.891C245.906 130.071 242.013 131.589 240.46 132.717C240.36 132.791 239.282 133.784 238.785 134.264L238.662 134.214C239.335 132.658 240.193 131.148 241.226 129.701C241.784 128.901 242.376 128.159 242.974 127.449C243.672 127.703 246.884 128.84 248.559 128.889C250.235 128.938 252.285 128.667 253.379 127.687C253.647 127.463 253.848 127.2 253.969 126.915C254.09 126.63 254.128 126.33 254.08 126.033C254.033 125.737 253.901 125.451 253.694 125.195C253.487 124.938 253.208 124.717 252.877 124.544C250.838 123.551 246.733 124.745 245.057 125.742C244.962 125.8 244.102 126.427 243.488 126.895C243.761 126.575 244.046 126.243 244.314 125.943C245.336 124.811 246.37 123.822 247.291 122.948C247.822 122.456 248.313 122.021 248.783 121.615C249.643 121.615 253.1 121.525 254.614 121.004C256.127 120.483 257.781 119.543 258.138 118.304C258.235 118.014 258.248 117.713 258.176 117.419C258.104 117.125 257.948 116.846 257.72 116.599C257.491 116.352 257.194 116.143 256.849 115.986C256.503 115.829 256.117 115.727 255.714 115.687C253.284 115.494 250.397 117.943 249.509 119.408C249.431 119.535 248.537 121.615 248.582 121.615H248.637C248.174 122.001 247.688 122.415 247.168 122.874C246.219 123.736 245.152 124.708 244.091 125.828C242.933 127.028 241.869 128.274 240.902 129.562C239.814 131.004 238.904 132.514 238.182 134.075C238.178 134.094 238.178 134.113 238.182 134.132C238.182 133.603 238.182 132.134 238.142 132.019C237.863 130.428 236.048 127.478 233.641 127.149C233.239 127.102 232.827 127.118 232.434 127.196C232.041 127.273 231.674 127.411 231.358 127.599C231.042 127.788 230.783 128.023 230.599 128.29C230.415 128.556 230.309 128.849 230.289 129.148C230.15 130.415 231.407 131.679 232.613 132.475C233.987 133.377 237.796 134.247 238.098 134.317C237.417 135.915 236.88 137.545 236.489 139.195C236.255 140.159 236.059 141.132 235.886 142.108C235.886 141.653 235.886 141.246 235.852 141.189C235.568 139.597 233.752 136.647 231.351 136.319C230.948 136.272 230.536 136.288 230.143 136.366C229.749 136.443 229.382 136.581 229.066 136.77C228.75 136.959 228.491 137.195 228.307 137.462C228.124 137.729 228.019 138.022 227.999 138.321C227.86 139.585 229.117 140.848 230.323 141.648C231.529 142.448 234.791 143.249 235.64 143.45C235.579 143.823 235.512 144.2 235.45 144.574C235.154 146.379 234.892 148.176 234.523 149.936C234.4 150.555 234.249 151.167 234.099 151.77C234.099 151.36 234.099 151.027 234.071 150.974C233.791 149.382 231.976 146.432 229.569 146.104C229.166 146.057 228.755 146.073 228.361 146.15C227.967 146.228 227.6 146.366 227.284 146.555C226.968 146.744 226.709 146.98 226.526 147.247C226.342 147.514 226.237 147.807 226.218 148.106C226.078 149.37 227.335 150.633 228.541 151.433C229.748 152.233 232.691 152.956 233.708 153.198C233.529 153.817 233.35 154.428 233.149 155.031C232.993 155.442 232.875 155.832 232.691 156.229C232.507 156.627 232.345 157.021 232.172 157.411C231.803 158.15 231.429 158.917 231.055 159.635C230.887 159.955 230.72 160.258 230.552 160.566L232.462 159.614C232.764 158.986 233.06 158.355 233.367 157.682C233.529 157.272 233.691 156.894 233.853 156.492C234.015 156.09 234.138 155.672 234.289 155.261C234.601 154.289 234.847 153.292 235.087 152.283C235.97 152.521 239.126 153.325 240.756 153.243C241.661 153.198 242.549 153.045 243.387 152.791C244.225 152.139 245.063 151.474 245.828 150.789C245.95 150.35 245.873 149.894 245.609 149.49C245.344 149.087 244.907 148.758 244.365 148.553Z" fill="#263238"/>
<path d="M230.596 159.147C230.57 157.737 230.051 156.355 229.088 155.134C229.095 154.977 229.082 154.819 229.049 154.663C228.998 154.367 228.863 154.082 228.652 153.826C228.442 153.571 228.16 153.352 227.826 153.182C227.492 153.012 227.113 152.895 226.714 152.84C226.314 152.785 225.903 152.792 225.508 152.862C223.146 153.321 221.649 156.369 221.537 157.969C221.537 158.064 221.615 159.098 221.682 159.746C221.559 159.368 221.453 159.003 221.325 158.614C221.073 157.846 220.8 157.083 220.504 156.267L220.012 155.077C219.861 154.667 219.632 154.256 219.454 153.846C218.984 152.907 218.448 151.975 217.884 151.04C218.795 150.88 222.034 150.273 223.335 149.542C224.637 148.812 226 147.618 225.989 146.351C225.999 146.052 225.924 145.756 225.769 145.48C225.613 145.204 225.38 144.956 225.085 144.751C224.79 144.546 224.439 144.388 224.056 144.289C223.673 144.19 223.266 144.152 222.861 144.176C220.431 144.369 218.32 147.212 217.879 148.783C217.851 148.882 217.705 150.035 217.644 150.671C217.298 150.113 216.957 149.551 216.577 148.997C215.494 147.389 214.343 145.784 213.17 144.184C212.813 143.692 212.472 143.2 212.12 142.711C212.45 142.654 216.315 141.993 217.772 141.173C219.057 140.471 220.426 139.269 220.426 138.01C220.437 137.711 220.363 137.415 220.208 137.139C220.053 136.863 219.821 136.614 219.526 136.409C219.232 136.203 218.881 136.046 218.498 135.946C218.115 135.847 217.708 135.807 217.303 135.831C214.868 136.028 212.757 138.871 212.316 140.443C212.316 140.562 212.081 142.219 212.059 142.646C211.293 141.563 210.539 140.475 209.864 139.388C208.934 137.924 208.135 136.416 207.473 134.875C207.629 134.851 211.668 134.174 213.159 133.333C214.455 132.606 215.829 131.413 215.818 130.145C215.828 129.846 215.753 129.55 215.598 129.274C215.442 128.998 215.209 128.749 214.914 128.544C214.619 128.338 214.269 128.181 213.886 128.081C213.502 127.982 213.095 127.943 212.69 127.966C210.26 128.163 208.149 131.006 207.708 132.578C207.708 132.68 207.523 133.944 207.467 134.547H207.328C206.717 132.979 206.3 131.374 206.082 129.751C205.948 128.857 205.881 127.999 205.848 127.162C206.618 127.092 210.137 126.752 211.589 126.104C213.042 125.455 214.527 124.405 214.706 123.146C214.761 122.849 214.731 122.548 214.617 122.261C214.502 121.974 214.307 121.708 214.044 121.48C213.78 121.252 213.455 121.067 213.087 120.938C212.72 120.808 212.32 120.737 211.913 120.729C209.467 120.729 206.948 123.384 206.272 124.91C206.233 124.992 205.993 125.866 205.825 126.506C205.825 126.128 205.797 125.739 205.797 125.378C205.797 124.02 205.92 122.772 206.038 121.685C206.11 121.061 206.194 120.495 206.278 119.966C206.982 119.609 209.813 118.144 210.685 117.094C211.556 116.044 212.226 114.596 211.589 113.402C211.453 113.121 211.238 112.864 210.958 112.648C210.678 112.432 210.339 112.261 209.964 112.148C209.588 112.034 209.184 111.979 208.778 111.988C208.372 111.996 207.973 112.067 207.607 112.196C205.434 113.016 204.865 116.237 205.222 117.816C205.256 117.956 206.077 120.052 206.11 120.032L206.155 120.011C206.06 120.52 205.965 121.061 205.876 121.652C205.73 122.756 205.574 123.999 205.529 125.365C205.464 126.833 205.512 128.303 205.675 129.767C205.85 131.409 206.223 133.036 206.792 134.629C206.792 134.65 206.792 134.666 206.792 134.687C206.406 134.243 205.278 133.025 205.177 132.939C203.748 131.729 200.017 130.001 197.766 130.703C197.396 130.827 197.066 131.007 196.797 131.23C196.529 131.454 196.327 131.717 196.206 132.002C196.085 132.287 196.047 132.587 196.094 132.884C196.141 133.18 196.273 133.466 196.481 133.722C197.313 134.834 199.274 135.363 200.916 135.556C202.737 135.753 206.568 134.937 206.875 134.871C207.504 136.482 208.28 138.06 209.199 139.593C209.724 140.488 210.316 141.378 210.875 142.264C210.523 141.891 210.204 141.554 210.154 141.513C208.724 140.283 204.993 138.572 202.742 139.273C202.373 139.398 202.044 139.578 201.776 139.802C201.508 140.026 201.307 140.289 201.186 140.574C201.065 140.858 201.028 141.159 201.075 141.455C201.123 141.751 201.255 142.037 201.463 142.293C202.295 143.405 204.284 143.955 205.898 144.127C207.512 144.299 210.819 143.655 211.684 143.475C211.919 143.815 212.142 144.156 212.371 144.492C213.488 146.133 214.606 147.733 215.628 149.341C215.991 149.908 216.32 150.474 216.65 151.044C216.343 150.712 216.091 150.429 216.03 150.392C214.6 149.161 210.869 147.45 208.618 148.152C208.248 148.276 207.918 148.456 207.65 148.68C207.381 148.905 207.179 149.168 207.058 149.453C206.937 149.738 206.899 150.039 206.946 150.336C206.994 150.632 207.126 150.919 207.333 151.175C208.166 152.283 210.126 152.816 211.768 153.005C213.41 153.194 216.371 152.595 217.404 152.386C217.722 152.976 218.041 153.563 218.309 154.146C218.482 154.556 218.683 154.921 218.828 155.331C218.973 155.742 219.13 156.152 219.281 156.525C219.532 157.292 219.794 158.084 220.018 158.835C220.174 159.36 220.308 159.861 220.453 160.365C220.096 159.795 219.375 158.696 219.303 158.609C218.141 157.251 214.835 155.13 212.438 155.573C212.047 155.655 211.684 155.796 211.372 155.987C211.06 156.179 210.806 156.416 210.627 156.684C210.449 156.953 210.349 157.246 210.335 157.544C210.321 157.843 210.392 158.14 210.545 158.417C211.143 159.606 212.997 160.369 214.555 160.722C216.27 161.108 220.074 160.755 220.548 160.722C220.777 161.543 220.99 162.363 221.168 163.139C221.302 163.689 221.42 164.214 221.531 164.727L222.905 164.128C222.805 163.742 222.704 163.348 222.593 162.942C222.369 162.097 222.101 161.19 221.816 160.267C222.964 159.931 224.083 159.544 225.168 159.11C226.117 159.869 228.195 160.722 229.323 161.161L230.306 160.677C230.446 160.025 230.591 159.233 230.596 159.147Z" fill="#263238"/>
<path d="M199.453 126.42C201.206 126.982 205.501 126.912 205.501 126.912C205.501 126.912 204.58 124.861 204.502 124.721C203.558 123.273 200.592 120.885 198.157 121.127C197.755 121.175 197.372 121.284 197.032 121.448C196.692 121.611 196.403 121.826 196.184 122.077C195.965 122.328 195.82 122.611 195.76 122.906C195.699 123.201 195.724 123.502 195.833 123.79C196.235 125.025 197.956 125.94 199.453 126.42Z" fill="#263238"/>
<path d="M237.148 120.589C236.556 121.783 237.304 123.244 238.193 124.249C239.231 125.43 242.868 127.121 242.873 127.121C242.879 127.121 243.649 125.024 243.677 124.889C243.979 123.301 243.286 120.101 241.086 119.317C240.716 119.196 240.315 119.132 239.91 119.131C239.505 119.13 239.104 119.191 238.732 119.311C238.361 119.431 238.029 119.607 237.756 119.827C237.483 120.047 237.276 120.307 237.148 120.589Z" fill="#263238"/>
<path d="M172.989 28.6851L145.738 29.2143L145.179 36.234L171.353 39.5449C171.353 39.5449 171.42 32.9806 173.827 28.841" fill="white"/>
<path d="M172.989 28.6851L145.738 29.2143L145.179 36.234L171.353 39.5449C171.353 39.5449 171.42 32.9806 173.827 28.841" stroke="#263238" stroke-miterlimit="10"/>
<path d="M183.004 28.3773C183.119 28.2267 183.181 28.057 183.183 27.8841C183.186 27.7113 183.128 27.5408 183.017 27.3885C182.905 27.2362 182.743 27.1071 182.546 27.0131C182.348 26.9192 182.121 26.8635 181.887 26.8511C180.004 26.5434 173.146 26.8511 172.101 26.8511C171.057 26.8511 167.784 29.3127 167.259 33.8832C166.734 38.4536 167.203 40.9152 168.459 41.3747C169.716 41.8342 178.239 41.2229 178.239 41.2229C178.239 41.2229 179.993 35.5653 181.591 32.9641C182.555 31.5404 183.04 29.9673 183.004 28.3773Z" fill="white" stroke="#263238" stroke-miterlimit="10"/>
<path d="M158.679 173.432C160.433 164.287 162.455 152.762 162.366 148.668C162.209 141.501 161.93 140.368 161.93 140.368H87.7059L86.963 141.702C85.8768 148.974 85.8637 156.311 86.9239 163.585C87.8622 169.625 88.6442 175.508 89.158 179.738C98.6253 177.588 108.919 175.184 120.967 173.957L121.358 153.776L124.407 152.077L125.826 173.534C129.345 173.284 133.009 173.124 136.846 173.124C145.096 173.112 152.284 173.292 158.679 173.432Z" fill="#263238" stroke="#263238" stroke-miterlimit="10"/>
<path d="M105.702 69.437H146.537L151.206 143.388C151.206 143.388 145.33 144.898 136.595 144.709C127.859 144.521 126.273 142.445 118.096 144.143C109.919 145.842 109.427 147.163 103.501 146.219L97.5474 145.276L105.702 69.437Z" fill="white" stroke="#263238" stroke-miterlimit="10"/>
<path d="M126.457 123.814C126.061 124.688 125.742 125.41 125.552 125.923" stroke="#263238" stroke-miterlimit="10" stroke-linecap="round"/>
<path d="M135.293 106.243C135.293 106.243 130.54 115.318 127.602 121.398" stroke="#263238" stroke-miterlimit="10" stroke-linecap="round"/>
<path d="M124.257 115.12L123.201 116.872" stroke="#263238" stroke-miterlimit="10" stroke-linecap="round"/>
<path d="M131.529 103.075L126.189 111.921" stroke="#263238" stroke-miterlimit="10" stroke-linecap="round"/>
<path d="M135.282 75.6237L135.79 108.954L135.762 155.893C135.762 155.893 146.375 155.893 152.803 154.662C159.232 153.432 167.208 147.035 167.208 147.035C167.208 147.035 158.512 110.493 158.199 105.446C157.886 100.4 160.433 73.6421 160.433 73.6421C160.433 73.6421 196.922 42.0759 199.251 39.5486C202.91 35.5731 203.882 32.3607 203.016 30.6786C202.15 28.9965 182.97 27.7739 180.898 28.217C178.826 28.66 175.743 39.3886 175.743 39.3886C175.743 39.3886 162.583 46.8802 157.836 48.8659C153.088 50.8516 150.195 51.7706 144.202 53.6045C140.295 54.8694 136.68 56.5717 133.484 58.6508L135.282 75.6237Z" fill="#92E3A9" stroke="#263238" stroke-miterlimit="10"/>
<path d="M153.155 68.1035C153.155 69.0635 153.216 69.9538 153.288 70.7292" stroke="#263238" stroke-miterlimit="10"/>
<path d="M153.921 51.6191C153.921 51.6191 153.183 59.7097 153.144 66.1304" stroke="#263238" stroke-miterlimit="10"/>
<path d="M156.395 50.5483C156.395 50.5483 154.881 57.7363 154.546 61.4041" stroke="#263238" stroke-miterlimit="10"/>
<path d="M175.743 39.3888C175.743 39.3888 182.769 35.3435 184.461 35.1343" stroke="#263238" stroke-miterlimit="10"/>
<path d="M115.907 74.7047L113.885 116.142L110.813 157.292C105.184 156.314 99.6608 155.036 94.2856 153.469C86.1142 151.007 81.6906 148.422 81.6906 148.422C81.6906 148.422 84.9412 135.121 87.0749 127.781C89.2085 120.442 92.0012 105.307 91.9509 102.862C91.9006 100.416 91.4594 89.8642 90.091 84.2066C88.7225 78.549 82.5284 71.361 82.5116 70.5979C82.4948 69.8348 104.01 63.5659 107.931 62.0356C110.126 61.1482 112.503 60.5289 114.968 60.2017L116.018 60.5053L115.907 74.7047Z" fill="#92E3A9" stroke="#263238" stroke-miterlimit="10"/>
<path d="M115.554 58.3474C115.554 58.3474 111.645 59.7218 110.857 62.4747C110.07 65.2277 107.394 75.7757 107.221 77.306C107.048 78.8363 107.863 78.225 109.5 76.8465C111.136 75.468 112.957 73.1787 113.806 73.79L117.822 76.6947H133.227C134.027 76.4747 134.735 76.1057 135.282 75.6239C136.098 74.8608 137.516 73.0228 138.365 73.6341C139.214 74.2454 141.376 78.225 141.979 77.306C142.582 76.387 139.639 65.0759 138.728 61.5557C137.818 58.0356 129.658 55.8981 115.554 58.3474Z" fill="white" stroke="#263238" stroke-miterlimit="10"/>
<path d="M116.046 61.8628C116.046 61.8628 115.303 75.7751 117.029 78.528C118.755 81.281 123.391 83.8616 127.736 82.8113C132.082 81.761 135.171 79.9024 135.305 76.5423C135.439 73.1822 134.154 61.6987 134.154 61.6987L116.046 61.8628Z" fill="white" stroke="#263238" stroke-miterlimit="10"/>
<path d="M135.304 76.5427C135.439 73.1785 134.154 61.7114 134.154 61.7114L116.046 61.8632C116.046 61.8632 115.778 66.8808 115.94 71.4841C118.922 71.2727 121.794 70.5443 124.318 69.3589C126.885 68.1153 129.122 66.5388 130.92 64.7064L135.031 77.9951C135.194 77.5198 135.286 77.0327 135.304 76.5427Z" fill="#263238" stroke="#263238" stroke-miterlimit="10"/>
<path d="M103.781 39.4708C103.781 39.4708 102.206 37.7764 100.72 40.3201C99.2341 42.8638 102.194 46.4003 103.563 47.2496C104.931 48.0988 108.59 49.2271 108.59 47.9552C108.59 46.6834 107.093 41.1694 105.897 39.1919C104.702 37.2143 103.781 39.4708 103.781 39.4708Z" fill="white" stroke="#263238" stroke-miterlimit="10"/>
<path d="M147.481 39.8974C147.481 39.8974 148.983 38.1988 150.58 40.7466C152.178 43.2944 149.363 46.8227 148.034 47.672C146.704 48.5213 143.074 49.6536 143.046 48.3777C143.018 47.1017 144.247 41.5918 145.358 39.6143C146.47 37.6368 147.481 39.8974 147.481 39.8974Z" fill="white" stroke="#263238" stroke-miterlimit="10"/>
<path d="M106.411 45.4114C106.411 45.4114 108.087 52.9029 109.338 56.2959C110.589 59.6888 121.129 67.4675 124.977 67.607C128.825 67.7465 138.941 63.2253 141.337 58.5606C143.733 53.8958 144.347 46.4001 144.342 45.9776C144.336 45.555 145.649 35.3721 141.918 31.696C138.187 28.02 122.603 28.5862 114.968 31.5566C107.333 34.5269 103.194 39.0481 106.411 45.4114Z" fill="white" stroke="#263238" stroke-miterlimit="10"/>
<path d="M119.638 51.853C119.638 52.7515 119.112 53.4941 118.42 53.4941C117.727 53.4941 117.152 52.7679 117.135 51.853C117.119 50.9381 117.66 50.2119 118.353 50.2119C119.045 50.2119 119.615 50.9463 119.638 51.853Z" fill="#263238"/>
<path d="M134.455 51.853C134.455 52.7515 133.93 53.4941 133.243 53.4941C132.556 53.4941 131.976 52.7679 131.953 51.853C131.931 50.9381 132.478 50.2119 133.171 50.2119C133.863 50.2119 134.439 50.9463 134.455 51.853Z" fill="#263238"/>
<path d="M120.676 46.54L113.421 49.2273" stroke="#263238" stroke-width="3" stroke-miterlimit="10" stroke-linecap="round"/>
<path d="M131.842 46.6831L139.03 49.793" stroke="#263238" stroke-width="3" stroke-miterlimit="10" stroke-linecap="round"/>
<path d="M128.775 57.3584C128.763 57.5988 128.686 57.835 128.548 58.0532C128.411 58.2715 128.215 58.4674 127.974 58.6297C127.732 58.792 127.449 58.9173 127.14 58.9984C126.832 59.0795 126.505 59.1147 126.178 59.102C125.512 59.1236 124.86 58.9536 124.362 58.6281C123.863 58.3025 123.557 57.847 123.508 57.3584" stroke="#263238" stroke-miterlimit="10" stroke-linecap="round"/>
<path d="M124.301 62.5196C124.851 62.3409 125.446 62.2485 126.047 62.2485C126.648 62.2485 127.243 62.3409 127.792 62.5196" stroke="#263238" stroke-miterlimit="10" stroke-linecap="round"/>
<path d="M114.471 53.3916L117.415 53.8019" stroke="#263238" stroke-miterlimit="10" stroke-linecap="round"/>
<path d="M137.79 53.3916L134.595 54.1096" stroke="#263238" stroke-miterlimit="10" stroke-linecap="round"/>
<path d="M116.599 17.9804C116.599 17.9804 106.663 21.3774 103.535 28.1633C100.407 34.9492 104.607 42.0181 105.21 43.8561C105.814 45.6941 106.233 46.6829 106.233 46.6829C106.233 46.6829 109.07 44.2787 111.164 43.1464C113.259 42.014 117.476 41.4519 119.973 41.0253C122.469 40.5986 131.093 39.0478 133.377 37.3328C135.662 35.6179 136.405 34.9286 136.405 34.9286C136.405 34.9286 138.293 42.1371 140.84 44.2582C142.357 45.5122 143.445 47.0145 144.012 48.6399C144.012 48.6399 145.688 45.8131 146.978 43.2694C148.268 40.7258 149.173 28.9879 145.598 24.0401C142.024 19.0922 126.915 14.3084 116.599 17.9804Z" fill="#263238" stroke="#263238" stroke-miterlimit="10"/>
<path d="M136.405 34.9497C136.405 34.9497 128.641 41.0258 119.649 43.8567C110.656 46.6875 101.217 54.175 102.049 57.9946C102.881 61.8142 109.282 63.2256 108.511 63.2256C107.741 63.2256 98.2846 61.9537 98.3572 56.2961C98.4298 50.6385 106.439 47.2496 110.645 45.8342C114.851 44.4188 132.596 36.7877 136.405 34.9497Z" fill="#263238" stroke="#263238" stroke-miterlimit="10"/>
<path d="M138.226 39.1914C138.226 39.1914 140.873 45.9773 142.465 48.2174C144.057 50.4574 146.861 55.8525 144.828 59.668C142.795 63.4835 141.264 64.0497 141.264 64.0497C141.264 64.0497 148.117 60.5173 147.995 54.7202C147.872 48.923 139.466 43.1464 138.226 39.1914Z" fill="#263238" stroke="#263238" stroke-miterlimit="10"/>
<path d="M136.85 20.1464C137.036 16.2856 132.062 13.0223 125.739 12.8576C119.416 12.693 114.14 15.6894 113.953 19.5503C113.767 23.4112 118.742 26.6745 125.064 26.8391C131.387 27.0037 136.664 24.0073 136.85 20.1464Z" fill="#263238" stroke="#263238" stroke-miterlimit="10"/>
<path d="M132.291 14.1372C132.388 11.8747 129.408 9.9696 125.634 9.882C121.86 9.7944 118.722 11.5575 118.624 13.8199C118.527 16.0824 121.508 17.9875 125.281 18.0751C129.055 18.1627 132.193 16.3996 132.291 14.1372Z" fill="#263238" stroke="#263238" stroke-miterlimit="10"/>
<path d="M68.6523 123.174L69.1494 146.264C69.1494 146.264 66.6639 156.353 67.9262 157.12C69.1885 157.887 73.4166 160.636 74.2656 161.399C75.1145 162.162 76.7846 162.47 78.0357 162.63C79.2868 162.79 82.8112 162.019 82.1577 160.644C81.5042 159.27 80.7055 160.948 80.0744 160.488C79.4482 159.962 78.8786 159.401 78.3708 158.81L79.5493 155.446C79.5493 155.446 79.823 158.655 80.8675 158.81C81.9119 158.966 82.1074 158.351 82.0795 157.128C82.0516 155.906 81.6327 155.598 81.7891 153.305C81.9455 151.011 80.672 149.329 80.0129 148.106C79.3538 146.884 78.0636 144.59 77.8402 143.823C77.6168 143.056 84.5092 124.865 84.5092 124.865C84.5092 124.865 79.9794 126.998 68.6523 123.174Z" fill="white" stroke="#263238" stroke-miterlimit="10"/>
<path d="M82.5114 70.5776C82.5114 70.5776 76.5518 74.0937 75.6247 79.4477C74.6975 84.8017 74.4461 92.441 73.6698 94.8903C72.8934 97.3396 69.76 116.602 69.76 116.602C69.76 116.602 72.7203 118.739 75.2337 119.658C77.7471 120.577 83.3548 119.81 84.1703 119.658C85.0221 119.45 85.8511 119.195 86.6502 118.895C86.6502 118.895 90.074 103.908 90.2304 101.311C90.3868 98.714 91.7273 93.5159 91.7273 93.5159C91.7273 93.5159 91.5933 76.6948 82.5114 70.5776Z" fill="#92E3A9" stroke="#263238" stroke-miterlimit="10"/>
<path d="M86.4214 99.9321C85.9634 100.523 85.5668 101.044 85.3043 101.442" stroke="#263238" stroke-miterlimit="10"/>
<path d="M91.7497 93.5117C91.7497 93.5117 89.5546 96.0595 87.65 98.3981" stroke="#263238" stroke-miterlimit="10"/>
<path d="M86.7508 96.8755L82.3998 102.201" stroke="#263238" stroke-miterlimit="10"/>
<path d="M69.0619 113.541C69.0619 113.541 73.2845 116.293 77.2613 117.212C81.238 118.131 84.5613 117.976 86.0135 117.672C87.4657 117.368 88.0746 116.905 88.3091 118.127C88.5437 119.35 87.1921 123.633 87.1921 124.856C87.1921 126.078 86.6335 126.69 83.2823 127.149C79.9311 127.609 72.8656 126.69 70.7599 125.619C68.6542 124.548 67.1685 123.022 67.3472 121.643C67.5259 120.265 68.2911 117.212 68.4643 116.142C68.6374 115.071 68.2465 113.848 69.0619 113.541Z" fill="white" stroke="#263238" stroke-miterlimit="10"/>
<path d="M113.41 91.1281C113.36 91.0944 113.305 91.0642 113.248 91.0378C111.773 90.3609 104.216 91.7968 102.3 91.7968C96.0838 91.7968 93.5146 90.566 93.2688 92.2071C93.023 93.8482 92.4924 95.5303 93.0789 96.359C93.6654 97.1878 95.6202 96.359 97.3182 96.5683C99.0162 96.7775 102.44 98.2094 103.853 98.2094C105.266 98.2094 108.88 96.5683 109.751 96.5683C110.623 96.5683 112.589 97.1878 113.147 96.5683C114.024 95.5549 114.638 91.9938 113.41 91.1281Z" fill="white" stroke="#263238" stroke-miterlimit="10"/>
<path d="M104.579 96.0593C104.583 96.1778 104.555 96.2956 104.495 96.4057C104.436 96.5159 104.347 96.6162 104.234 96.7007C104.121 96.7853 103.986 96.8523 103.837 96.8979C103.689 96.9434 103.529 96.9666 103.367 96.966C103.039 96.965 102.724 96.8695 102.49 96.7001C102.256 96.5306 102.122 96.3006 102.116 96.0593C102.113 95.9413 102.143 95.8239 102.202 95.7142C102.262 95.6045 102.351 95.5047 102.464 95.4206C102.577 95.3365 102.711 95.2699 102.86 95.2245C103.008 95.1792 103.168 95.1562 103.328 95.1567C103.656 95.1578 103.97 95.2527 104.204 95.4213C104.437 95.5899 104.572 95.8188 104.579 96.0593Z" stroke="#263238" stroke-miterlimit="10" stroke-linecap="round"/>
<path d="M156.925 91.1281C156.875 91.0944 156.821 91.0642 156.763 91.0378C155.283 90.3609 147.732 91.7968 145.816 91.7968C139.6 91.7968 137.03 90.566 136.785 92.2071C136.539 93.8482 136.008 95.5303 136.589 96.359C137.17 97.1878 139.136 96.359 140.834 96.5683C142.532 96.7775 145.956 98.2094 147.369 98.2094C148.782 98.2094 152.396 96.5683 153.267 96.5683C154.138 96.5683 156.104 97.1878 156.663 96.5683C157.534 95.5549 158.154 91.9938 156.925 91.1281Z" fill="white" stroke="#263238" stroke-miterlimit="10"/>
<path d="M148.318 96.289C148.321 96.4071 148.292 96.5245 148.232 96.6342C148.173 96.7438 148.084 96.8437 147.971 96.9278C147.858 97.0119 147.723 97.0785 147.575 97.1238C147.426 97.1691 147.267 97.1922 147.106 97.1916C146.779 97.1906 146.465 97.0957 146.231 96.9271C145.997 96.7585 145.862 96.5296 145.855 96.289C145.851 96.1706 145.88 96.0528 145.939 95.9426C145.999 95.8325 146.087 95.7322 146.2 95.6476C146.313 95.5631 146.448 95.4961 146.597 95.4505C146.746 95.4049 146.906 95.3818 147.067 95.3823C147.396 95.3834 147.711 95.4788 147.944 95.6483C148.178 95.8178 148.312 96.0478 148.318 96.289V96.289Z" stroke="#263238" stroke-miterlimit="10" stroke-linecap="round"/>
<path d="M84.3601 25.0049H40.9394C40.5088 25.0049 40.0825 25.0672 39.6847 25.1882C39.2869 25.3092 38.9255 25.4866 38.6211 25.7103C38.3166 25.9339 38.0751 26.1994 37.9103 26.4916C37.7456 26.7837 37.6608 27.0969 37.6608 27.4132V37.6453C37.6608 37.9614 37.7456 38.2744 37.9104 38.5663C38.0753 38.8583 38.3169 39.1235 38.6214 39.3468C38.9259 39.5701 39.2874 39.7471 39.6851 39.8677C40.0829 39.9883 40.5091 40.0501 40.9394 40.0495H76.7864L85.9855 45.0548L82.8241 40.0495H84.3601C84.7904 40.0501 85.2166 39.9883 85.6144 39.8677C86.0121 39.7471 86.3736 39.5701 86.6781 39.3468C86.9826 39.1235 87.2242 38.8583 87.3891 38.5663C87.5539 38.2744 87.6387 37.9614 87.6387 37.6453V27.4132C87.6387 27.0969 87.5539 26.7837 87.3892 26.4916C87.2244 26.1994 86.9829 25.9339 86.6785 25.7103C86.374 25.4866 86.0126 25.3092 85.6148 25.1882C85.217 25.0672 84.7907 25.0049 84.3601 25.0049Z" fill="#263238" stroke="#263238" stroke-miterlimit="10"/>
<path d="M84.8964 24.398H41.4756C41.0454 24.3974 40.6191 24.4592 40.2214 24.5798C39.8236 24.7004 39.4622 24.8774 39.1576 25.1007C38.8531 25.324 38.6115 25.5892 38.4467 25.8811C38.2819 26.1731 38.197 26.4861 38.197 26.8021V37.0343C38.197 37.3504 38.2819 37.6633 38.4467 37.9553C38.6115 38.2472 38.8531 38.5125 39.1576 38.7358C39.4622 38.9591 39.8236 39.1361 40.2214 39.2566C40.6191 39.3772 41.0454 39.439 41.4756 39.4385H77.3226L85.9855 45.0551L83.3604 39.4385H84.8964C85.7644 39.4385 86.597 39.1852 87.2108 38.7343C87.8246 38.2834 88.1694 37.6719 88.1694 37.0343V26.8021C88.1694 26.4864 88.0848 26.1738 87.9203 25.8821C87.7558 25.5904 87.5147 25.3254 87.2108 25.1021C86.9068 24.8789 86.546 24.7018 86.1489 24.581C85.7518 24.4601 85.3262 24.398 84.8964 24.398Z" fill="white" stroke="#263238" stroke-miterlimit="10"/>
<path d="M45.4972 28.312V35.143H44.4862V28.312H45.4972Z" fill="#263238"/>
<path d="M47.1058 30.109H46.6813L47.0109 29.2515H46.6255V28.312H47.6253V29.1818L47.1058 30.109Z" fill="#263238"/>
<path d="M52.1102 35.1307H51.116L49.5744 29.6987V35.143H48.6696V28.312H50.1218L51.6466 33.7645L53.1211 28.312H54.5677V35.143H53.5847V29.6495L52.1102 35.1307Z" fill="#263238"/>
<path d="M61.7115 29.9528V30.1374H60.7284V29.9118C60.7284 29.2964 60.4101 28.9395 59.6672 28.9395C58.9244 28.9395 58.606 29.2964 58.606 29.9036C58.606 31.4339 61.7226 31.5816 61.7226 33.5017C61.7226 34.5355 61.0468 35.2084 59.6281 35.2084C58.2094 35.2084 57.5392 34.5355 57.5392 33.5017V33.0914H58.511V33.5222C58.511 34.1335 58.8573 34.4945 59.6281 34.4945C60.3989 34.4945 60.7452 34.1335 60.7452 33.5222C60.7452 32.0001 57.6397 31.8524 57.6397 29.9323C57.6397 28.8779 58.2988 28.2256 59.6951 28.2256C61.0915 28.2256 61.7115 28.9189 61.7115 29.9528Z" fill="#263238"/>
<path d="M62.5492 29.9615C62.5492 28.9194 63.253 28.2466 64.6716 28.2466C66.0903 28.2466 66.8276 28.9194 66.8276 29.9615V33.4939C66.8276 34.5278 66.1238 35.2089 64.6884 35.2089C63.253 35.2089 62.566 34.5278 62.566 33.4939L62.5492 29.9615ZM63.5713 33.5309C63.5713 34.1545 63.9288 34.5155 64.6884 34.5155C65.448 34.5155 65.8055 34.1545 65.8055 33.5309V29.9246C65.8055 29.3092 65.4648 28.9399 64.6884 28.9399C63.912 28.9399 63.5713 29.3092 63.5713 29.9246V33.5309Z" fill="#263238"/>
<path d="M69.8662 28.312C71.324 28.312 71.9328 28.8577 71.9328 29.8751V30.429C71.9328 31.1798 71.5754 31.6598 70.7822 31.8362C71.6312 32.0209 71.9496 32.5255 71.9496 33.2599V34.3225C71.9184 34.603 71.9817 34.8848 72.1339 35.143H71.0839C70.9413 34.8829 70.8821 34.6021 70.9107 34.3225V33.2517C70.9107 32.4804 70.4192 32.2383 69.559 32.2383H68.8274V35.1553H67.7941V28.312H69.8662ZM69.5982 31.5326C70.4192 31.5326 70.9107 31.3357 70.9107 30.5972V29.9408C70.9107 29.3295 70.6091 29.0054 69.8383 29.0054H68.8274V31.5326H69.5982Z" fill="#263238"/>
<path d="M75.0942 28.312C76.5575 28.312 77.1663 28.8577 77.1663 29.8751V30.429C77.1663 31.1798 76.8089 31.6598 76.0102 31.8362C76.8592 32.0209 77.1775 32.5255 77.1775 33.2599V34.3225C77.1481 34.6033 77.2134 34.8851 77.3674 35.143H76.323C76.1778 34.8834 76.1185 34.6022 76.1498 34.3225V33.2517C76.1498 32.4804 75.6583 32.2383 74.7926 32.2383H74.0888V35.1553H73.0499V28.312H75.0942ZM74.8317 31.5326C75.6527 31.5326 76.1442 31.3357 76.1442 30.5972V29.9408C76.1442 29.3295 75.837 29.0054 75.0662 29.0054H74.0888V31.5326H74.8317Z" fill="#263238"/>
<path d="M79.769 32.6937L77.803 28.312H78.881L80.3276 31.668L81.7854 28.312H82.7684L80.7912 32.6937V35.1553H79.769V32.6937Z" fill="#263238"/>
</svg>
