<svg width="250" height="196" viewBox="0 0 250 196" fill="none" xmlns="http://www.w3.org/2000/svg">
<g opacity="0.2">
<path opacity="0.2" d="M52.8834 1.12354H76.4056V26.828H46.9514" stroke="black" stroke-linecap="round" stroke-linejoin="round"/>
<path opacity="0.2" d="M43.8742 26.8289H36.7103V1.12451H49.8063" stroke="black" stroke-linecap="round" stroke-linejoin="round"/>
<path opacity="0.2" d="M44.0647 8.58398H39.7081V12.183H44.0647V8.58398Z" stroke="black" stroke-linecap="round" stroke-linejoin="round"/>
<path opacity="0.2" d="M49.9333 8.58398H45.5768V12.183H49.9333V8.58398Z" stroke="black" stroke-linecap="round" stroke-linejoin="round"/>
<path opacity="0.2" d="M55.8019 8.58398H51.4454V12.183H55.8019V8.58398Z" stroke="black" stroke-linecap="round" stroke-linejoin="round"/>
<path opacity="0.2" d="M61.6705 8.58398H57.314V12.183H61.6705V8.58398Z" stroke="black" stroke-linecap="round" stroke-linejoin="round"/>
<path opacity="0.2" d="M67.5445 8.58398H63.188V12.183H67.5445V8.58398Z" stroke="black" stroke-linecap="round" stroke-linejoin="round"/>
<path opacity="0.2" d="M73.4132 8.58398H69.0566V12.183H73.4132V8.58398Z" stroke="black" stroke-linecap="round" stroke-linejoin="round"/>
<path opacity="0.2" d="M44.0647 13.5894H39.7081V17.1884H44.0647V13.5894Z" stroke="black" stroke-linecap="round" stroke-linejoin="round"/>
<path opacity="0.2" d="M49.9333 13.5894H45.5768V17.1884H49.9333V13.5894Z" stroke="black" stroke-linecap="round" stroke-linejoin="round"/>
<path opacity="0.2" d="M55.8019 13.5894H51.4454V17.1884H55.8019V13.5894Z" stroke="black" stroke-linecap="round" stroke-linejoin="round"/>
<path opacity="0.2" d="M61.6705 13.5894H57.314V17.1884H61.6705V13.5894Z" stroke="black" stroke-linecap="round" stroke-linejoin="round"/>
<path opacity="0.2" d="M67.5445 13.5894H63.188V17.1884H67.5445V13.5894Z" stroke="black" stroke-linecap="round" stroke-linejoin="round"/>
<path opacity="0.2" d="M73.4132 13.5894H69.0566V17.1884H73.4132V13.5894Z" stroke="black" stroke-linecap="round" stroke-linejoin="round"/>
<path opacity="0.2" d="M44.0647 18.5942H39.7081V22.1933H44.0647V18.5942Z" stroke="black" stroke-linecap="round" stroke-linejoin="round"/>
<path opacity="0.2" d="M49.9333 18.5942H45.5768V22.1933H49.9333V18.5942Z" stroke="black" stroke-linecap="round" stroke-linejoin="round"/>
<path opacity="0.2" d="M55.8019 18.5942H51.4454V22.1933H55.8019V18.5942Z" stroke="black" stroke-linecap="round" stroke-linejoin="round"/>
<path opacity="0.2" d="M61.6705 18.5942H57.314V22.1933H61.6705V18.5942Z" stroke="black" stroke-linecap="round" stroke-linejoin="round"/>
<path opacity="0.2" d="M67.5445 18.5942H63.188V22.1933H67.5445V18.5942Z" stroke="black" stroke-linecap="round" stroke-linejoin="round"/>
<path opacity="0.2" d="M73.4132 18.5942H69.0566V22.1933H73.4132V18.5942Z" stroke="black" stroke-linecap="round" stroke-linejoin="round"/>
<path opacity="0.2" d="M73.5771 4.67041H39.8721V5.9196H73.5771V4.67041Z" stroke="black" stroke-linecap="round" stroke-linejoin="round"/>
</g>
<g opacity="0.2">
<path opacity="0.2" d="M225.823 30.501H240.664V56.2098H236.81" stroke="black" stroke-linecap="round" stroke-linejoin="round"/>
<path opacity="0.2" d="M234.172 56.2098H200.964V30.501H222.307" stroke="black" stroke-linecap="round" stroke-linejoin="round"/>
<path opacity="0.2" d="M208.318 37.9614H203.961V41.5605H208.318V37.9614Z" stroke="black" stroke-linecap="round" stroke-linejoin="round"/>
<path opacity="0.2" d="M214.192 37.9614H209.835V41.5605H214.192V37.9614Z" stroke="black" stroke-linecap="round" stroke-linejoin="round"/>
<path opacity="0.2" d="M220.06 37.9614H215.704V41.5605H220.06V37.9614Z" stroke="black" stroke-linecap="round" stroke-linejoin="round"/>
<path opacity="0.2" d="M225.929 37.9614H221.573V41.5605H225.929V37.9614Z" stroke="black" stroke-linecap="round" stroke-linejoin="round"/>
<path opacity="0.2" d="M231.798 37.9614H227.441V41.5605H231.798V37.9614Z" stroke="black" stroke-linecap="round" stroke-linejoin="round"/>
<path opacity="0.2" d="M237.666 37.9614H233.31V41.5605H237.666V37.9614Z" stroke="black" stroke-linecap="round" stroke-linejoin="round"/>
<path opacity="0.2" d="M208.318 42.9673H203.961V46.5663H208.318V42.9673Z" stroke="black" stroke-linecap="round" stroke-linejoin="round"/>
<path opacity="0.2" d="M214.192 42.9673H209.835V46.5663H214.192V42.9673Z" stroke="black" stroke-linecap="round" stroke-linejoin="round"/>
<path opacity="0.2" d="M220.06 42.9673H215.704V46.5663H220.06V42.9673Z" stroke="black" stroke-linecap="round" stroke-linejoin="round"/>
<path opacity="0.2" d="M225.929 42.9673H221.573V46.5663H225.929V42.9673Z" stroke="black" stroke-linecap="round" stroke-linejoin="round"/>
<path opacity="0.2" d="M231.798 42.9673H227.441V46.5663H231.798V42.9673Z" stroke="black" stroke-linecap="round" stroke-linejoin="round"/>
<path opacity="0.2" d="M237.666 42.9673H233.31V46.5663H237.666V42.9673Z" stroke="black" stroke-linecap="round" stroke-linejoin="round"/>
<path opacity="0.2" d="M208.318 47.9727H203.961V51.5717H208.318V47.9727Z" stroke="black" stroke-linecap="round" stroke-linejoin="round"/>
<path opacity="0.2" d="M214.192 47.9727H209.835V51.5717H214.192V47.9727Z" stroke="black" stroke-linecap="round" stroke-linejoin="round"/>
<path opacity="0.2" d="M220.06 47.9727H215.704V51.5717H220.06V47.9727Z" stroke="black" stroke-linecap="round" stroke-linejoin="round"/>
<path opacity="0.2" d="M225.929 47.9727H221.573V51.5717H225.929V47.9727Z" stroke="black" stroke-linecap="round" stroke-linejoin="round"/>
<path opacity="0.2" d="M231.798 47.9727H227.441V51.5717H231.798V47.9727Z" stroke="black" stroke-linecap="round" stroke-linejoin="round"/>
<path opacity="0.2" d="M237.666 47.9727H233.31V51.5717H237.666V47.9727Z" stroke="black" stroke-linecap="round" stroke-linejoin="round"/>
<path opacity="0.2" d="M237.836 34.0527H204.131V35.3063H237.836V34.0527Z" stroke="black" stroke-linecap="round" stroke-linejoin="round"/>
</g>
<g opacity="0.2">
<path opacity="0.2" d="M17.0847 71.6107V58.1972C17.0819 57.9766 17.1321 57.7578 17.2323 57.5533C17.3326 57.3489 17.4809 57.1629 17.6687 57.0061C17.8565 56.8493 18.0801 56.7248 18.3266 56.6399C18.573 56.5549 18.8374 56.5112 19.1044 56.5112H44.4823C45.0194 56.5112 45.5344 56.6875 45.9142 57.0012C46.2939 57.3149 46.5073 57.7404 46.5073 58.1841V77.4766H17.0847V74.5152" stroke="black" stroke-linecap="round" stroke-linejoin="round"/>
<path opacity="0.2" d="M17.4495 61.0796H46.1213" stroke="black" stroke-linecap="round" stroke-linejoin="round"/>
<path opacity="0.2" d="M24.3174 65.0278H20.0243V67.7577H43.5465V65.0278H28.7109" stroke="black" stroke-linecap="round" stroke-linejoin="round"/>
<path opacity="0.2" d="M43.5465 70.7979H20.0243V73.5321H43.5465V70.7979Z" stroke="black" stroke-linecap="round" stroke-linejoin="round"/>
</g>
<g opacity="0.2">
<path opacity="0.2" d="M138.592 169.201H163.97C164.506 169.201 165.019 169.376 165.398 169.689C165.777 170.002 165.99 170.427 165.99 170.869V190.166H136.572V170.887C136.57 170.666 136.62 170.447 136.72 170.243C136.82 170.038 136.969 169.852 137.156 169.696C137.344 169.539 137.568 169.414 137.814 169.329C138.061 169.244 138.325 169.201 138.592 169.201V169.201Z" stroke="black" stroke-linecap="round" stroke-linejoin="round"/>
<path opacity="0.2" d="M136.937 173.769H165.609" stroke="black" stroke-linecap="round" stroke-linejoin="round"/>
<path opacity="0.2" d="M163.034 177.718H139.512V180.453H163.034V177.718Z" stroke="black" stroke-linecap="round" stroke-linejoin="round"/>
<path opacity="0.2" d="M163.034 183.488H139.512V186.223H163.034V183.488Z" stroke="black" stroke-linecap="round" stroke-linejoin="round"/>
</g>
<g opacity="0.2">
<path opacity="0.2" d="M144.292 5.71829C141.137 3.23698 136.918 1.89269 132.563 1.98116C128.208 2.06962 124.074 3.58359 121.071 6.19001C118.067 8.79643 116.44 12.2818 116.547 15.8794C116.654 19.4769 118.487 22.892 121.642 25.3733" stroke="black" stroke-linecap="round" stroke-linejoin="round"/>
<path opacity="0.2" d="M123.492 26.6918C126.751 28.6844 130.788 29.6104 134.824 29.2915C138.86 28.9726 142.611 27.4314 145.354 24.9647C148.097 22.498 149.639 19.2801 149.681 15.9306C149.724 12.5812 148.266 9.337 145.587 6.82275" stroke="black" stroke-linecap="round" stroke-linejoin="round"/>
<path opacity="0.2" d="M140.781 15.7896H133.268V26.329" stroke="black" stroke-linecap="round" stroke-linejoin="round"/>
</g>
<g opacity="0.2">
<path opacity="0.2" d="M17.0371 25.1768C15.8975 25.3255 14.8083 25.6699 13.8397 26.1878C12.8711 26.7056 12.0445 27.3853 11.4134 28.1831C10.7822 28.981 10.3603 29.8792 10.1751 30.8199C9.98978 31.7607 10.0452 32.7231 10.3376 33.6451C10.6301 34.567 11.1531 35.4282 11.8731 36.173C12.593 36.9177 13.4939 37.5296 14.5176 37.9692C15.5413 38.4088 16.6651 38.6663 17.8166 38.7251C18.9682 38.7839 20.1218 38.6427 21.2033 38.3107" stroke="black" stroke-linecap="round" stroke-linejoin="round"/>
<path opacity="0.2" d="M23.8891 36.9478C25.0472 36.0657 25.876 34.9285 26.2779 33.6703C26.6798 32.412 26.6379 31.085 26.1573 29.8458C25.6767 28.6065 24.7774 27.5065 23.5653 26.6754C22.3531 25.8443 20.8787 25.3167 19.3157 25.1548" stroke="black" stroke-linecap="round" stroke-linejoin="round"/>
<path opacity="0.2" d="M18.3059 28.4438V35.393" stroke="black" stroke-miterlimit="10"/>
<path opacity="0.2" d="M22.5145 31.9209H14.0975" stroke="black" stroke-miterlimit="10"/>
</g>
<g opacity="0.2">
<path opacity="0.2" d="M240.532 91.9033C245.093 91.9033 248.79 88.8487 248.79 85.0808C248.79 81.3128 245.093 78.2583 240.532 78.2583C235.971 78.2583 232.274 81.3128 232.274 85.0808C232.274 88.8487 235.971 91.9033 240.532 91.9033Z" stroke="black" stroke-linecap="round" stroke-linejoin="round"/>
<path opacity="0.2" d="M240.532 81.6045V88.558" stroke="black" stroke-miterlimit="10"/>
<path opacity="0.2" d="M244.735 85.0811H236.323" stroke="black" stroke-miterlimit="10"/>
</g>
<path d="M230.806 176.769H41L41.2221 47.6876C41.2221 46.4446 41.8197 45.2526 42.8836 44.3737C43.9475 43.4947 45.3905 43.001 46.8951 43.001H225.355C226.1 43.0004 226.838 43.1212 227.527 43.3566C228.215 43.5919 228.841 43.9371 229.368 44.3724C229.895 44.8077 230.313 45.3246 230.597 45.8934C230.882 46.4623 231.029 47.072 231.028 47.6876L230.806 176.769Z" fill="white" stroke="#263238" stroke-linecap="round" stroke-linejoin="round"/>
<path d="M93.1939 54.4712H66.2457V59.053H93.1939V54.4712Z" stroke="#263238" stroke-linecap="round" stroke-linejoin="round"/>
<path d="M174.89 60.7124H224.033" stroke="#263238" stroke-linecap="round" stroke-linejoin="round"/>
<path d="M51.7593 60.7124H172.024" stroke="#263238" stroke-linecap="round" stroke-linejoin="round"/>
<path d="M225.356 43.0005H46.8962C45.3916 43.0005 43.9486 43.4943 42.8847 44.3732C41.8208 45.2521 41.2231 46.4442 41.2231 47.6871V51.2556H231.029V47.6871C231.03 47.0715 230.883 46.4618 230.599 45.8929C230.314 45.3241 229.896 44.8072 229.369 44.3719C228.842 43.9366 228.216 43.5914 227.528 43.3561C226.839 43.1207 226.101 42.9999 225.356 43.0005Z" fill="#263238" stroke="#263238" stroke-linecap="round" stroke-linejoin="round"/>
<path d="M51.5742 47.5826C51.5742 47.3027 51.4738 47.0291 51.2855 46.7964C51.0973 46.5637 50.8298 46.3823 50.5167 46.2752C50.2037 46.1681 49.8593 46.1401 49.527 46.1947C49.1947 46.2493 48.8895 46.3841 48.6499 46.582C48.4104 46.7799 48.2472 47.032 48.1811 47.3066C48.115 47.5811 48.1489 47.8656 48.2786 48.1242C48.4082 48.3828 48.6278 48.6038 48.9095 48.7593C49.1912 48.9148 49.5224 48.9978 49.8612 48.9978C50.3155 48.9978 50.7512 48.8487 51.0725 48.5833C51.3937 48.3179 51.5742 47.958 51.5742 47.5826Z" fill="white" stroke="#263238" stroke-linecap="round" stroke-linejoin="round"/>
<path d="M58.4103 47.5826C58.4103 47.3027 58.3099 47.0291 58.1216 46.7964C57.9334 46.5637 57.6659 46.3823 57.3529 46.2752C57.0399 46.1681 56.6954 46.1401 56.3631 46.1947C56.0308 46.2493 55.7256 46.3841 55.486 46.582C55.2465 46.7799 55.0833 47.032 55.0172 47.3066C54.9511 47.5811 54.9851 47.8656 55.1147 48.1242C55.2444 48.3828 55.4639 48.6038 55.7456 48.7593C56.0273 48.9148 56.3585 48.9978 56.6973 48.9978C57.1516 48.9978 57.5874 48.8487 57.9086 48.5833C58.2299 48.3179 58.4103 47.958 58.4103 47.5826Z" fill="white" stroke="#263238" stroke-linecap="round" stroke-linejoin="round"/>
<path d="M63.5442 48.9978C64.4903 48.9978 65.2572 48.3642 65.2572 47.5826C65.2572 46.8011 64.4903 46.1675 63.5442 46.1675C62.5981 46.1675 61.8312 46.8011 61.8312 47.5826C61.8312 48.3642 62.5981 48.9978 63.5442 48.9978Z" fill="white" stroke="#263238" stroke-linecap="round" stroke-linejoin="round"/>
<path d="M52.1769 54.7412H60.2978" stroke="#263238" stroke-linecap="round" stroke-linejoin="round"/>
<path d="M52.1769 56.5454H60.2978" stroke="#263238" stroke-linecap="round" stroke-linejoin="round"/>
<path d="M52.1769 58.3452H60.2978" stroke="#263238" stroke-linecap="round" stroke-linejoin="round"/>
<path d="M171.332 106.775H51.8914V133.139H171.332V106.775Z" fill="white" stroke="#263238" stroke-linecap="round" stroke-linejoin="round"/>
<path d="M143.929 113.654C144.458 113.654 144.674 113.908 144.674 114.323V114.655C144.674 115.091 144.426 115.318 143.902 115.318H143.569V116.406H143.199V113.654H143.929ZM143.902 115.043C144.177 115.043 144.31 114.938 144.31 114.676V114.309C144.31 114.056 144.199 113.929 143.929 113.929H143.569V115.043H143.902Z" fill="#263238"/>
<path d="M145.684 113.654C146.213 113.654 146.43 113.873 146.43 114.283V114.506C146.452 114.626 146.422 114.748 146.347 114.851C146.272 114.955 146.155 115.034 146.017 115.074C146.319 115.148 146.435 115.349 146.435 115.646V116.083C146.425 116.196 146.447 116.31 146.498 116.415H146.123C146.073 116.308 146.053 116.193 146.065 116.078V115.642C146.065 115.332 145.885 115.235 145.578 115.235H145.314V116.41H144.944V113.659L145.684 113.654ZM145.594 114.965C145.885 114.965 146.065 114.886 146.065 114.585V114.309C146.065 114.061 145.954 113.929 145.679 113.929H145.314V114.952L145.594 114.965Z" fill="#263238"/>
<path d="M146.81 114.309C146.81 113.872 147.064 113.615 147.572 113.615C148.079 113.615 148.338 113.886 148.338 114.309V115.733C148.347 115.82 148.334 115.908 148.299 115.991C148.265 116.074 148.21 116.15 148.138 116.215C148.067 116.279 147.979 116.33 147.882 116.366C147.785 116.401 147.68 116.419 147.574 116.419C147.468 116.419 147.363 116.401 147.266 116.366C147.169 116.33 147.082 116.279 147.01 116.215C146.938 116.15 146.883 116.074 146.849 115.991C146.815 115.908 146.801 115.82 146.81 115.733V114.309ZM147.18 115.746C147.18 116 147.307 116.144 147.572 116.144C147.836 116.144 147.968 116 147.968 115.746V114.309C147.968 114.06 147.846 113.912 147.572 113.912C147.297 113.912 147.18 114.06 147.18 114.309V115.746Z" fill="#263238"/>
<path d="M150.162 114.309V114.545H149.808V114.309C149.808 114.06 149.692 113.912 149.417 113.912C149.142 113.912 149.031 114.06 149.031 114.309V115.764C149.031 116.013 149.152 116.161 149.417 116.161C149.681 116.161 149.808 116.013 149.808 115.764V115.213H149.464V114.938H150.162V115.751C150.162 116.187 149.924 116.441 149.411 116.441C148.899 116.441 148.661 116.166 148.661 115.751V114.309C148.661 113.872 148.899 113.615 149.411 113.615C149.924 113.615 150.162 113.899 150.162 114.309Z" fill="#263238"/>
<path d="M151.257 113.654C151.785 113.654 151.997 113.873 151.997 114.283V114.506C152.019 114.626 151.989 114.748 151.914 114.851C151.839 114.955 151.722 115.034 151.584 115.074C151.891 115.148 152.002 115.349 152.002 115.646V116.083C151.991 116.196 152.015 116.311 152.071 116.415H151.695C151.643 116.308 151.621 116.193 151.632 116.078V115.642C151.632 115.332 151.457 115.235 151.146 115.235H150.886V116.41H150.511V113.659L151.257 113.654ZM151.161 114.965C151.457 114.965 151.632 114.886 151.632 114.585V114.309C151.632 114.061 151.521 113.929 151.246 113.929H150.886V114.952L151.161 114.965Z" fill="#263238"/>
<path d="M153.572 114.873V115.148H152.758V116.126H153.757V116.406H152.388V113.654H153.757V113.929H152.758V114.873H153.572Z" fill="#263238"/>
<path d="M155.544 114.31V114.384H155.201V114.31C155.201 114.061 155.09 113.917 154.82 113.917C154.55 113.917 154.439 114.061 154.439 114.305C154.439 114.926 155.56 114.982 155.56 115.756C155.56 116.192 155.317 116.446 154.804 116.446C154.291 116.446 154.059 116.175 154.059 115.756V115.598H154.408V115.773C154.408 116.022 154.529 116.166 154.799 116.166C155.069 116.166 155.185 116.022 155.185 115.773C155.185 115.162 154.075 115.1 154.075 114.327C154.075 113.891 154.313 113.637 154.809 113.637C155.306 113.637 155.544 113.895 155.544 114.31Z" fill="#263238"/>
<path d="M157.316 114.31V114.384H156.961V114.31C156.961 114.061 156.845 113.917 156.581 113.917C156.316 113.917 156.2 114.061 156.2 114.305C156.2 114.926 157.316 114.982 157.316 115.756C157.316 116.192 157.078 116.446 156.565 116.446C156.052 116.446 155.819 116.175 155.819 115.756V115.598H156.168V115.773C156.168 116.022 156.29 116.166 156.554 116.166C156.819 116.166 156.946 116.022 156.946 115.773C156.946 115.162 155.835 115.1 155.835 114.327C155.835 113.891 156.073 113.637 156.57 113.637C157.067 113.637 157.316 113.895 157.316 114.31Z" fill="#263238"/>
<path d="M120.058 113.654C120.586 113.654 120.814 113.912 120.814 114.336V115.725C120.814 116.161 120.576 116.406 120.058 116.406H119.275V113.654H120.058ZM120.058 116.126C120.322 116.126 120.454 115.987 120.454 115.738V114.309C120.454 114.056 120.322 113.916 120.052 113.916H119.65V116.1L120.058 116.126Z" fill="#263238"/>
<path d="M122.347 114.873V115.148H121.533V116.126H122.532V116.406H121.162V113.654H122.532V113.929H121.533V114.873H122.347Z" fill="#263238"/>
<path d="M123.251 115.851L123.119 116.406H122.781L123.415 113.654H123.944L124.583 116.406H124.208L124.081 115.851H123.251ZM123.299 115.585H124.039L123.663 113.999L123.299 115.585Z" fill="#263238"/>
<path d="M125.662 113.654C126.191 113.654 126.418 113.912 126.418 114.336V115.725C126.418 116.161 126.18 116.406 125.662 116.406H124.879V113.654H125.662ZM125.662 116.126C125.932 116.126 126.058 115.987 126.058 115.738V114.309C126.058 114.056 125.932 113.916 125.657 113.916H125.26V116.1L125.662 116.126Z" fill="#263238"/>
<path d="M126.767 116.406V113.654H127.137V116.126H128.089V116.406H126.767Z" fill="#263238"/>
<path d="M128.765 113.654V116.406H128.395V113.654H128.765Z" fill="#263238"/>
<path d="M129.447 116.406H129.114V113.654H129.585L130.357 115.642V113.654H130.685V116.406H130.304L129.447 114.178V116.406Z" fill="#263238"/>
<path d="M132.255 114.873V115.148H131.441V116.126H132.466V116.406H131.092V113.654H132.466V113.929H131.467V114.873H132.255Z" fill="#263238"/>
<path d="M98.1586 116.799H105.116" stroke="#263238" stroke-linecap="round" stroke-linejoin="round"/>
<path d="M77.2958 116.799H95.6578" stroke="#263238" stroke-linecap="round" stroke-linejoin="round"/>
<path d="M57.8076 116.799H74.5148" stroke="#263238" stroke-linecap="round" stroke-linejoin="round"/>
<path d="M87.8699 123.333H93.1834" stroke="#263238" stroke-linecap="round" stroke-linejoin="round"/>
<path d="M74.2346 123.333H83.4183" stroke="#263238" stroke-linecap="round" stroke-linejoin="round"/>
<path d="M67.5623 123.333H71.4535" stroke="#263238" stroke-linecap="round" stroke-linejoin="round"/>
<path d="M57.8076 123.333H65.3364" stroke="#263238" stroke-linecap="round" stroke-linejoin="round"/>
<path d="M166.906 122.114C166.905 122.661 166.642 123.184 166.174 123.571C165.706 123.957 165.072 124.175 164.411 124.176H138.213C137.551 124.176 136.916 123.959 136.447 123.572C135.978 123.186 135.714 122.661 135.713 122.114C135.715 121.567 135.98 121.043 136.448 120.656C136.916 120.269 137.551 120.051 138.213 120.048H164.411C164.739 120.048 165.064 120.102 165.367 120.206C165.67 120.31 165.945 120.462 166.177 120.654C166.409 120.846 166.593 121.073 166.718 121.324C166.843 121.575 166.907 121.843 166.906 122.114Z" fill="white" stroke="#263238" stroke-linecap="round" stroke-linejoin="round"/>
<path d="M159.097 120.048V124.176H138.213C137.551 124.176 136.916 123.959 136.447 123.572C135.978 123.186 135.714 122.661 135.713 122.114C135.715 121.567 135.98 121.043 136.448 120.656C136.916 120.269 137.551 120.051 138.213 120.048H159.097Z" fill="#92E3A9" stroke="#263238" stroke-linecap="round" stroke-linejoin="round"/>
<path d="M130.753 120.048H120.412C119.034 120.048 117.916 120.971 117.916 122.11V122.114C117.916 123.253 119.034 124.176 120.412 124.176H130.753C132.132 124.176 133.249 123.253 133.249 122.114V122.11C133.249 120.971 132.132 120.048 130.753 120.048Z" fill="white" stroke="#263238" stroke-linecap="round" stroke-linejoin="round"/>
<path d="M171.332 140.412H51.8914V166.776H171.332V140.412Z" fill="white" stroke="#263238" stroke-linecap="round" stroke-linejoin="round"/>
<path d="M143.929 147.845C144.458 147.845 144.674 148.099 144.674 148.518V148.845C144.674 149.282 144.426 149.514 143.902 149.514H143.569V150.597H143.199V147.845H143.929ZM143.902 149.239C144.177 149.239 144.31 149.129 144.31 148.867V148.5C144.31 148.251 144.199 148.125 143.929 148.125H143.569V149.252L143.902 149.239Z" fill="#263238"/>
<path d="M145.684 147.845C146.213 147.845 146.43 148.064 146.43 148.474V148.697C146.43 149.003 146.303 149.19 146.017 149.265C146.319 149.339 146.435 149.544 146.435 149.837V150.274C146.425 150.387 146.446 150.501 146.498 150.606H146.123C146.073 150.5 146.053 150.387 146.065 150.274V149.837C146.065 149.522 145.885 149.426 145.578 149.426H145.314V150.601H144.944V147.85L145.684 147.845ZM145.594 149.156C145.885 149.156 146.065 149.077 146.065 148.78V148.513C146.065 148.269 145.954 148.138 145.679 148.138H145.314V149.156H145.594Z" fill="#263238"/>
<path d="M146.81 148.509C146.81 148.072 147.064 147.819 147.572 147.819C148.079 147.819 148.338 148.09 148.338 148.509V149.933C148.347 150.02 148.334 150.108 148.299 150.191C148.265 150.274 148.21 150.35 148.138 150.414C148.067 150.479 147.979 150.53 147.882 150.565C147.785 150.601 147.68 150.619 147.574 150.619C147.468 150.619 147.363 150.601 147.266 150.565C147.169 150.53 147.082 150.479 147.01 150.414C146.938 150.35 146.883 150.274 146.849 150.191C146.815 150.108 146.801 150.02 146.81 149.933V148.509ZM147.18 149.95C147.18 150.199 147.307 150.343 147.572 150.343C147.836 150.343 147.968 150.199 147.968 149.95V148.491C147.968 148.247 147.846 148.098 147.572 148.098C147.297 148.098 147.18 148.247 147.18 148.491V149.95Z" fill="#263238"/>
<path d="M150.162 148.509V148.745H149.808V148.491C149.808 148.247 149.692 148.098 149.417 148.098C149.142 148.098 149.031 148.247 149.031 148.491V149.95C149.031 150.195 149.152 150.343 149.417 150.343C149.681 150.343 149.808 150.195 149.808 149.95V149.4H149.464V149.125H150.162V149.933C150.162 150.348 149.924 150.623 149.411 150.623C148.899 150.623 148.661 150.348 148.661 149.933V148.509C148.661 148.094 148.899 147.819 149.411 147.819C149.924 147.819 150.162 148.094 150.162 148.509Z" fill="#263238"/>
<path d="M151.257 147.845C151.785 147.845 151.997 148.064 151.997 148.474V148.697C151.997 149.003 151.87 149.19 151.584 149.265C151.891 149.339 152.002 149.544 152.002 149.837V150.274C151.991 150.387 152.014 150.502 152.071 150.606H151.695C151.643 150.501 151.621 150.387 151.632 150.274V149.837C151.632 149.522 151.457 149.426 151.146 149.426H150.886V150.601H150.511V147.85L151.257 147.845ZM151.161 149.156C151.457 149.156 151.632 149.077 151.632 148.78V148.513C151.632 148.269 151.521 148.138 151.246 148.138H150.886V149.156H151.161Z" fill="#263238"/>
<path d="M153.572 149.064V149.339H152.758V150.317H153.757V150.597H152.388V147.845H153.757V148.125H152.758V149.064H153.572Z" fill="#263238"/>
<path d="M155.544 148.505V148.579H155.201V148.491C155.201 148.243 155.09 148.098 154.82 148.098C154.55 148.098 154.439 148.243 154.439 148.487C154.439 149.103 155.56 149.16 155.56 149.937C155.56 150.352 155.317 150.623 154.804 150.623C154.291 150.623 154.059 150.352 154.059 149.937V149.78H154.408V149.95C154.408 150.199 154.529 150.343 154.799 150.343C155.069 150.343 155.185 150.199 155.185 149.95C155.185 149.339 154.075 149.278 154.075 148.505C154.075 148.068 154.313 147.819 154.809 147.819C155.306 147.819 155.544 148.09 155.544 148.505Z" fill="#263238"/>
<path d="M157.316 148.505V148.579H156.961V148.491C156.961 148.243 156.845 148.098 156.581 148.098C156.316 148.098 156.2 148.243 156.2 148.487C156.2 149.103 157.316 149.16 157.316 149.937C157.316 150.352 157.078 150.623 156.565 150.623C156.052 150.623 155.819 150.352 155.819 149.937V149.78H156.168V149.95C156.168 150.199 156.29 150.343 156.554 150.343C156.819 150.343 156.946 150.199 156.946 149.95C156.946 149.339 155.835 149.278 155.835 148.505C155.835 148.068 156.073 147.819 156.57 147.819C157.067 147.819 157.316 148.09 157.316 148.505Z" fill="#263238"/>
<path d="M120.058 147.845C120.586 147.845 120.814 148.103 120.814 148.531V149.916C120.814 150.352 120.576 150.597 120.058 150.597H119.275V147.845H120.058ZM120.058 150.317C120.322 150.317 120.454 150.182 120.454 149.929V148.513C120.454 148.26 120.322 148.125 120.052 148.125H119.65V150.309L120.058 150.317Z" fill="#263238"/>
<path d="M122.347 149.064V149.339H121.533V150.317H122.532V150.597H121.162V147.845H122.532V148.125H121.533V149.064H122.347Z" fill="#263238"/>
<path d="M123.251 150.042L123.119 150.597H122.781L123.415 147.845H123.944L124.583 150.597H124.208L124.081 150.042H123.251ZM123.299 149.78H124.039L123.663 148.19L123.299 149.78Z" fill="#263238"/>
<path d="M125.662 147.845C126.191 147.845 126.418 148.103 126.418 148.531V149.916C126.418 150.352 126.18 150.597 125.662 150.597H124.879V147.845H125.662ZM125.662 150.317C125.932 150.317 126.058 150.182 126.058 149.929V148.513C126.058 148.26 125.932 148.125 125.657 148.125H125.26V150.309L125.662 150.317Z" fill="#263238"/>
<path d="M126.767 150.597V147.845H127.137V150.317H128.089V150.597H126.767Z" fill="#263238"/>
<path d="M128.765 147.845V150.597H128.395V147.845H128.765Z" fill="#263238"/>
<path d="M129.447 150.597H129.114V147.845H129.585L130.357 149.833V147.845H130.685V150.597H130.304L129.447 148.378V150.597Z" fill="#263238"/>
<path d="M132.255 149.064V149.339H131.441V150.317H132.466V150.597H131.092V147.845H132.466V148.125H131.467V149.064H132.255Z" fill="#263238"/>
<path d="M98.1586 150.99H105.116" stroke="#263238" stroke-linecap="round" stroke-linejoin="round"/>
<path d="M77.2958 150.99H95.6578" stroke="#263238" stroke-linecap="round" stroke-linejoin="round"/>
<path d="M57.8076 150.99H74.5148" stroke="#263238" stroke-linecap="round" stroke-linejoin="round"/>
<path d="M87.8699 157.529H93.1834" stroke="#263238" stroke-linecap="round" stroke-linejoin="round"/>
<path d="M74.2346 157.529H83.4183" stroke="#263238" stroke-linecap="round" stroke-linejoin="round"/>
<path d="M67.5623 157.529H71.4535" stroke="#263238" stroke-linecap="round" stroke-linejoin="round"/>
<path d="M57.8076 157.529H65.3364" stroke="#263238" stroke-linecap="round" stroke-linejoin="round"/>
<path d="M166.906 156.305C166.907 156.576 166.843 156.844 166.718 157.095C166.593 157.345 166.409 157.573 166.177 157.764C165.945 157.956 165.67 158.108 165.367 158.211C165.064 158.314 164.739 158.367 164.411 158.367H138.213C137.885 158.367 137.56 158.315 137.257 158.211C136.953 158.108 136.678 157.956 136.445 157.765C136.213 157.573 136.029 157.346 135.903 157.095C135.777 156.845 135.713 156.576 135.713 156.305C135.714 155.758 135.978 155.234 136.447 154.847C136.916 154.461 137.551 154.244 138.213 154.244H164.411C164.739 154.244 165.063 154.297 165.366 154.401C165.669 154.504 165.944 154.656 166.175 154.847C166.407 155.039 166.591 155.266 166.716 155.516C166.842 155.766 166.906 156.035 166.906 156.305Z" fill="white" stroke="#263238" stroke-linecap="round" stroke-linejoin="round"/>
<path d="M140.704 154.244V158.367H138.213C137.885 158.367 137.56 158.315 137.257 158.211C136.953 158.108 136.678 157.956 136.445 157.765C136.213 157.573 136.029 157.346 135.903 157.095C135.777 156.845 135.713 156.576 135.713 156.305C135.714 155.758 135.978 155.234 136.447 154.847C136.916 154.461 137.551 154.244 138.213 154.244H140.704Z" fill="#92E3A9" stroke="#263238" stroke-linecap="round" stroke-linejoin="round"/>
<path d="M130.748 158.367H120.412C119.75 158.367 119.115 158.15 118.647 157.763C118.179 157.376 117.916 156.852 117.916 156.305C117.916 156.035 117.981 155.766 118.106 155.516C118.232 155.266 118.416 155.039 118.647 154.847C118.879 154.656 119.154 154.504 119.457 154.401C119.76 154.297 120.084 154.244 120.412 154.244H130.748C131.076 154.243 131.401 154.296 131.705 154.399C132.008 154.503 132.284 154.654 132.516 154.846C132.748 155.037 132.933 155.265 133.058 155.515C133.184 155.766 133.249 156.034 133.249 156.305C133.249 156.576 133.184 156.845 133.058 157.095C132.933 157.346 132.748 157.573 132.516 157.765C132.284 157.956 132.008 158.108 131.705 158.211C131.401 158.315 131.076 158.367 130.748 158.367Z" fill="white" stroke="#263238" stroke-linecap="round" stroke-linejoin="round"/>
<path d="M223.097 73.1475H181.314C179.935 73.1475 178.818 74.0705 178.818 75.2091V84.9667C178.818 86.1053 179.935 87.0283 181.314 87.0283H223.097C224.475 87.0283 225.593 86.1053 225.593 84.9667V75.2091C225.593 74.0705 224.475 73.1475 223.097 73.1475Z" fill="#92E3A9" stroke="#263238" stroke-linecap="round" stroke-linejoin="round"/>
<path d="M185.501 17.8337C185.501 17.8337 179.357 20.07 176.159 20.7776C172.96 21.4851 169.523 22.6077 168.662 24.8396C167.8 27.0715 163.961 35.6586 163.713 37.5062C163.464 39.3538 167.414 42.6296 167.414 42.6296H218.55C218.55 42.6296 219.502 31.9416 217.408 28.2858C215.315 24.6299 208.949 21.507 207.12 20.8999C205.291 20.2927 200.5 18.3403 198.555 18.039C196.609 17.7376 187.716 17.1217 185.501 17.8337Z" fill="white" stroke="#263238" stroke-linecap="round" stroke-linejoin="round"/>
<path d="M168.551 32.632C169.536 32.3946 170.574 32.35 171.583 32.5016C172.593 32.6533 173.546 32.997 174.366 33.5055" fill="white"/>
<path d="M168.551 32.632C169.536 32.3946 170.574 32.35 171.583 32.5016C172.593 32.6533 173.546 32.997 174.366 33.5055" stroke="#263238" stroke-linecap="round" stroke-linejoin="round"/>
<path d="M172.648 33.5054C173.825 33.5589 174.945 33.9443 175.82 34.5973L172.648 33.5054Z" fill="white"/>
<path d="M172.648 33.5054C173.825 33.5589 174.945 33.9443 175.82 34.5973" stroke="#263238" stroke-linecap="round" stroke-linejoin="round"/>
<path d="M177.872 28.6309C178.353 29.3114 178.56 30.1005 178.464 30.8846C178.309 32.3873 177.872 33.8609 177.169 35.2524" stroke="#263238" stroke-linecap="round" stroke-linejoin="round"/>
<path d="M176.085 27.1499C176.57 27.3912 177.004 27.6967 177.369 28.054" stroke="#263238" stroke-linecap="round" stroke-linejoin="round"/>
<path d="M179.22 28.5044C179.22 28.5044 180.209 30.9635 179.653 32.9508" stroke="#263238" stroke-linecap="round" stroke-linejoin="round"/>
<path d="M205.782 30.0107C205.782 30.0107 204.556 33.5661 204.677 34.6843" stroke="#263238" stroke-linecap="round" stroke-linejoin="round"/>
<path d="M186.231 26.5474L188.488 29.9018L190.407 35.0296L193.114 30.3692L195.71 26.6434L190.629 25.9883L186.231 26.5474Z" fill="#92E3A9" stroke="#263238" stroke-linecap="round" stroke-linejoin="round"/>
<path d="M188.488 29.9067L193.114 30.3697" stroke="#263238" stroke-linecap="round" stroke-linejoin="round"/>
<path d="M185.993 20.5768C185.413 21.2264 184.957 21.9451 184.639 22.7083C184.147 23.9269 183.291 28.0894 183.291 28.0894C183.291 28.0894 188.081 27.8885 189.313 27.8885C190.545 27.8885 192.485 27.9889 192.876 27.9889C193.268 27.9889 198.777 30.7319 198.777 30.7319C198.777 30.7319 199.76 26.0584 198.655 23.4202C197.55 20.7821 190.048 17.6329 185.993 20.5768Z" fill="white" stroke="#263238" stroke-linecap="round" stroke-linejoin="round"/>
<path d="M188.573 26.3375L190.518 29.7182L194.473 26.0317C194.473 26.0317 190.788 26.9533 188.573 26.3375Z" fill="white" stroke="#263238" stroke-linecap="round" stroke-linejoin="round"/>
<path d="M205.058 64.46L203.16 67.3558C203.16 67.3558 200.812 67.762 200.569 68.1682C199.967 69.0954 199.259 69.973 198.454 70.7889C197.841 71.2955 196.614 72.0075 197.719 72.4137C198.824 72.8199 200.791 70.9942 200.791 70.9942L201.896 70.4831C201.975 71.294 201.855 72.1097 201.542 72.8811C200.818 74.5976 199.982 76.6854 200.088 76.9038C200.617 77.9957 201.489 77.227 201.489 77.227L203.139 74.0429L203.429 73.89C203.429 73.89 203.096 77.5284 203.096 77.5415C203.033 78.2098 203.747 78.9916 204.371 78.3058L205.846 74.4491V77.9171C205.841 78.0434 205.872 78.1688 205.935 78.284C205.998 78.3991 206.092 78.5009 206.21 78.5816C206.327 78.6624 206.465 78.72 206.614 78.7502C206.763 78.7803 206.917 78.7822 207.067 78.7557L207.199 78.712C207.691 78.5111 207.86 74.2744 207.86 74.2744L208.886 77.3318C208.91 77.4117 208.953 77.4866 209.014 77.5517C209.075 77.6167 209.152 77.6705 209.24 77.7096C209.327 77.7487 209.424 77.7722 209.523 77.7786C209.622 77.785 209.722 77.7741 209.816 77.7468C209.863 77.7349 209.907 77.7142 209.942 77.6861C209.978 77.6581 210.006 77.6235 210.022 77.5852C210.149 77.2838 209.779 72.4093 209.779 72.4093L209.531 67.3296L209.901 65.6043L205.058 64.46Z" fill="white" stroke="#263238" stroke-linecap="round" stroke-linejoin="round"/>
<path d="M207.384 30.4481C207.384 30.4481 205.418 33.9031 205.661 35.1217C205.904 36.3403 211.635 47.9892 211.635 47.9892L204.513 64.9406L210.171 66.0587C210.171 66.0587 219.83 54.1958 220.856 51.645C221.418 50.2032 221.667 48.6904 221.591 47.1768C221.591 46.5653 219.307 32.6845 217.953 30.2472C217.166 28.8111 216.131 27.4768 214.881 26.2856" fill="white"/>
<path d="M207.384 30.4481C207.384 30.4481 205.418 33.9031 205.661 35.1217C205.904 36.3403 211.635 47.9892 211.635 47.9892L204.513 64.9406L210.171 66.0587C210.171 66.0587 219.83 54.1958 220.856 51.645C221.418 50.2032 221.667 48.6904 221.591 47.1768C221.591 46.5653 219.307 32.6845 217.953 30.2472C217.166 28.8111 216.131 27.4768 214.881 26.2856" stroke="#263238" stroke-linecap="round" stroke-linejoin="round"/>
<path d="M212.497 47.5604C212.497 47.5604 214.707 45.0184 216.06 43.3936" stroke="#263238" stroke-linecap="round" stroke-linejoin="round"/>
<path d="M215.69 42.481L212.989 45.3244" stroke="#263238" stroke-linecap="round" stroke-linejoin="round"/>
<path d="M205.005 63.2939L211.027 64.5126" stroke="#263238" stroke-linecap="round" stroke-linejoin="round"/>
<path d="M165.632 34.6015C165.055 35.016 164.545 35.4902 164.115 36.0123C163.004 37.3226 163.623 40.1748 164.358 41.0876C165.093 42.0005 168.059 42.612 168.059 42.612H191.925L192.406 39.2794H191.534C191.534 39.2794 187.235 38.1612 184.158 37.4493C181.081 36.7373 175.038 34.6277 173.219 34.3045C171.829 34.0583 170.398 34.0125 168.989 34.1691" fill="white"/>
<path d="M165.632 34.6015C165.055 35.016 164.545 35.4902 164.115 36.0123C163.004 37.3226 163.623 40.1748 164.358 41.0876C165.093 42.0005 168.059 42.612 168.059 42.612H191.925L192.406 39.2794H191.534C191.534 39.2794 187.235 38.1612 184.158 37.4493C181.081 36.7373 175.038 34.6277 173.219 34.3045C171.829 34.0583 170.398 34.0125 168.989 34.1691" stroke="#263238" stroke-linecap="round" stroke-linejoin="round"/>
<path d="M195.943 42.6116L195.821 42.4849C195.821 42.4849 198.301 42.2971 198.639 42.2054C199.086 42.1202 199.538 42.0575 199.993 42.0176L203.578 42.6116H207.136L206.766 42.1049L203.593 40.4801L200.849 39.3488C198 38.1695 194.579 39.624 191.544 39.2615L192.12 39.3226L191.639 42.6116H195.943Z" fill="white" stroke="#263238" stroke-linecap="round" stroke-linejoin="round"/>
<path d="M200.897 40.3408L206.538 42.3937" stroke="#263238" stroke-linecap="round" stroke-linejoin="round"/>
<path d="M189.953 39.1309L189.805 42.5115" stroke="#263238" stroke-linecap="round" stroke-linejoin="round"/>
<path d="M185.258 14.7891C184.271 13.6544 183.676 12.32 183.534 10.9279C183.413 8.79647 184.639 8.39027 184.639 8.39027C184.639 8.39027 182.799 5.95304 186.855 4.52914C190.91 3.10525 197.059 2.29721 200.5 3.82156C203.942 5.34592 205.169 8.89693 205.047 11.3342C204.926 13.7714 203.202 16.6148 203.202 16.6148L200.5 19.3578C200.5 19.3578 198.777 19.8644 198.386 19.2573C197.994 18.6502 195.948 16.8201 194.854 16.8201C193.759 16.8201 190.92 16.8201 189.445 16.3091C187.97 15.798 185.258 14.7891 185.258 14.7891Z" fill="#263238" stroke="#263238" stroke-linecap="round" stroke-linejoin="round"/>
<path d="M185.009 11.7412C185.009 11.7412 184.888 17.9347 184.888 19.2582C184.888 20.5816 184.888 21.8788 185.622 23.2154C186.357 24.5519 186.976 28.0898 190.296 28.2951C193.617 28.5004 198.407 25.6744 199.284 24.1326C200.162 22.5908 200.622 19.9658 200.622 19.9658C200.622 19.9658 203.572 18.3409 204.064 16.4147C204.555 14.4886 203.572 13.5713 202.959 14.4842C202.345 15.397 201.484 17.7338 201.114 17.9347C200.743 18.1356 200.252 16.7161 200.252 16.7161C200.252 16.7161 198.407 17.3276 198.163 16.7161C197.92 16.1046 199.147 13.1651 199.147 13.1651C199.147 13.1651 195.092 14.078 194.23 14.078C193.308 13.9904 192.4 13.8206 191.523 13.5713L195.092 15.397C193.534 15.9307 191.811 16.0379 190.175 15.7028C187.716 15.0913 185.871 11.7412 185.871 11.7412H185.009Z" fill="white" stroke="#263238" stroke-linecap="round" stroke-linejoin="round"/>
<path d="M188.7 18.2402V19.4588C188.7 19.4588 187.114 22.9138 187.346 23.5209C187.579 24.128 189.805 23.8266 190.296 23.6213" fill="white"/>
<path d="M188.7 18.2402V19.4588C188.7 19.4588 187.114 22.9138 187.346 23.5209C187.579 24.128 189.805 23.8266 190.296 23.6213" stroke="#263238" stroke-linecap="round" stroke-linejoin="round"/>
<path d="M188.451 24.5381C189.176 24.8862 189.995 25.0779 190.833 25.0955C191.671 25.113 192.501 24.9559 193.247 24.6385" fill="white"/>
<path d="M188.451 24.5381C189.176 24.8862 189.995 25.0779 190.833 25.0955C191.671 25.113 192.501 24.9559 193.247 24.6385" stroke="#263238" stroke-linecap="round" stroke-linejoin="round"/>
<path d="M192.015 19.9653C192.631 20.3269 193.343 20.5618 194.092 20.6507C194.84 20.7395 195.603 20.6798 196.318 20.4764" fill="white"/>
<path d="M192.015 19.9653C192.631 20.3269 193.343 20.5618 194.092 20.6507C194.84 20.7395 195.603 20.6798 196.318 20.4764" stroke="#263238" stroke-linecap="round" stroke-linejoin="round"/>
<path d="M192.141 18.1392C192.141 18.1392 194.854 17.3443 196.567 18.8512L192.141 18.1392Z" fill="white"/>
<path d="M192.141 18.1392C192.141 18.1392 194.854 17.3443 196.567 18.8512" stroke="#263238" stroke-linecap="round" stroke-linejoin="round"/>
<path d="M185.866 18.3403C185.866 18.3403 186.358 19.2576 188.694 19.4585L185.866 18.3403Z" fill="white"/>
<path d="M185.866 18.3403C185.866 18.3403 186.358 19.2576 188.694 19.4585" stroke="#263238" stroke-linecap="round" stroke-linejoin="round"/>
<path d="M188.208 17.3445C188.208 17.3445 187.346 16.1259 186.093 16.5321L188.208 17.3445Z" fill="white"/>
<path d="M188.208 17.3445C188.208 17.3445 187.346 16.1259 186.093 16.5321" stroke="#263238" stroke-linecap="round" stroke-linejoin="round"/>
<path d="M190.407 35.0298L186.907 60.8478L191.423 66.0673L195.594 60.8478L190.407 35.0298Z" fill="#92E3A9" stroke="#263238" stroke-linecap="round" stroke-linejoin="round"/>
<path d="M49.1721 97.3408V101.591C49.1721 101.591 101.821 99.813 165.71 98.9307L49.1721 97.3408Z" fill="#263238" stroke="#263238" stroke-linecap="round" stroke-linejoin="round"/>
<path d="M165.71 72.5664H46.2695V98.9304H165.71V72.5664Z" fill="white" stroke="#263238" stroke-linecap="round" stroke-linejoin="round"/>
<path d="M138.307 79.3628C138.835 79.3628 139.052 79.6161 139.052 80.0354V80.363C139.052 80.7998 138.804 81.0269 138.28 81.0269H137.947V82.1145H137.577V79.3628H138.307ZM138.28 80.7517C138.555 80.7517 138.687 80.6469 138.687 80.3849V80.018C138.687 79.769 138.576 79.6423 138.307 79.6423H137.947V80.7517H138.28Z" fill="#263238"/>
<path d="M140.062 79.3628C140.591 79.3628 140.808 79.5812 140.808 79.9917V80.2145C140.808 80.5159 140.681 80.7081 140.395 80.7823C140.697 80.8566 140.813 81.0619 140.813 81.3545V81.7913C140.803 81.9045 140.825 82.0181 140.876 82.1232H140.501C140.45 82.0164 140.43 81.9012 140.443 81.7869V81.3501C140.443 81.04 140.263 80.9439 139.956 80.9439H139.692V82.1189H139.322V79.3672L140.062 79.3628ZM139.972 80.6731C140.263 80.6731 140.443 80.5945 140.443 80.2931V80.0311C140.443 79.7821 140.332 79.6554 140.057 79.6554H139.692V80.6731H139.972Z" fill="#263238"/>
<path d="M141.188 80.027C141.188 79.5902 141.442 79.3325 141.95 79.3325C142.457 79.3325 142.716 79.6077 142.716 80.027V81.4509C142.725 81.5382 142.712 81.626 142.677 81.7089C142.643 81.7918 142.588 81.8678 142.516 81.9323C142.444 81.9968 142.357 82.0482 142.26 82.0834C142.163 82.1186 142.058 82.1368 141.952 82.1368C141.846 82.1368 141.741 82.1186 141.644 82.0834C141.547 82.0482 141.46 81.9968 141.388 81.9323C141.316 81.8678 141.261 81.7918 141.227 81.7089C141.193 81.626 141.179 81.5382 141.188 81.4509V80.027ZM141.558 81.464C141.558 81.7173 141.685 81.8615 141.95 81.8615C142.214 81.8615 142.346 81.7173 142.346 81.464V80.0095C142.346 79.7649 142.224 79.6121 141.95 79.6121C141.675 79.6121 141.558 79.7649 141.558 80.0095V81.464Z" fill="#263238"/>
<path d="M144.54 80.027V80.2629H144.186V80.0095C144.186 79.7649 144.07 79.6121 143.795 79.6121C143.52 79.6121 143.409 79.7649 143.409 80.0095V81.464C143.409 81.713 143.53 81.8615 143.795 81.8615C144.059 81.8615 144.186 81.713 144.186 81.464V80.9137H143.842V80.6385H144.54V81.4509C144.54 81.8877 144.302 82.141 143.789 82.141C143.277 82.141 143.039 81.8658 143.039 81.4509V80.027C143.039 79.5902 143.277 79.3325 143.789 79.3325C144.302 79.3325 144.54 79.6077 144.54 80.027Z" fill="#263238"/>
<path d="M145.635 79.3628C146.163 79.3628 146.375 79.5812 146.375 79.9917V80.2145C146.375 80.5159 146.248 80.7081 145.963 80.7823C146.269 80.8566 146.38 81.0619 146.38 81.3545V81.7913C146.369 81.9049 146.393 82.019 146.449 82.1232H146.074C146.02 82.0169 145.999 81.9016 146.01 81.7869V81.3501C146.01 81.04 145.836 80.9439 145.524 80.9439H145.265V82.1189H144.889V79.3672L145.635 79.3628ZM145.54 80.6731C145.836 80.6731 146.01 80.5945 146.01 80.2931V80.0311C146.01 79.7821 145.899 79.6554 145.624 79.6554H145.265V80.6731H145.54Z" fill="#263238"/>
<path d="M147.95 80.5819V80.8571H147.136V81.8442H148.135V82.1238H146.766V79.3721H148.135V79.6603H147.136V80.5994L147.95 80.5819Z" fill="#263238"/>
<path d="M149.922 80.0226V80.0969H149.579V80.0052C149.579 79.7606 149.468 79.6121 149.198 79.6121C148.928 79.6121 148.817 79.7606 148.817 80.0052C148.817 80.621 149.938 80.6778 149.938 81.4553C149.938 81.8702 149.695 82.141 149.182 82.141C148.669 82.141 148.437 81.8702 148.437 81.4553V81.298H148.786V81.4684C148.786 81.7173 148.907 81.8615 149.177 81.8615C149.447 81.8615 149.563 81.7173 149.563 81.4684C149.563 80.8569 148.453 80.7957 148.453 80.0226C148.453 79.5859 148.691 79.3325 149.188 79.3325C149.685 79.3325 149.922 79.6077 149.922 80.0226Z" fill="#263238"/>
<path d="M151.694 80.0226V80.0969H151.339V80.0052C151.339 79.7606 151.223 79.6121 150.959 79.6121C150.694 79.6121 150.578 79.7606 150.578 80.0052C150.578 80.621 151.694 80.6778 151.694 81.4553C151.694 81.8702 151.456 82.141 150.943 82.141C150.43 82.141 150.197 81.8702 150.197 81.4553V81.298H150.546V81.4684C150.546 81.7173 150.668 81.8615 150.932 81.8615C151.197 81.8615 151.324 81.7173 151.324 81.4684C151.324 80.8569 150.213 80.7957 150.213 80.0226C150.213 79.5859 150.451 79.3325 150.948 79.3325C151.445 79.3325 151.694 79.6077 151.694 80.0226Z" fill="#263238"/>
<path d="M114.436 79.3628C114.964 79.3628 115.192 79.6205 115.192 80.0442V81.4331C115.192 81.8699 114.954 82.1145 114.436 82.1145H113.653V79.3628H114.436ZM114.436 81.835C114.7 81.835 114.832 81.6996 114.832 81.4462V80.0311C114.832 79.7777 114.7 79.6423 114.43 79.6423H114.029V81.8262L114.436 81.835Z" fill="#263238"/>
<path d="M116.725 80.5819V80.8571H115.911V81.8442H116.91V82.1238H115.541V79.3721H116.91V79.6603H115.911V80.5994L116.725 80.5819Z" fill="#263238"/>
<path d="M117.629 81.5598L117.497 82.1145H117.159L117.793 79.3628H118.322L118.961 82.1145H118.586L118.459 81.5598H117.629ZM117.677 81.2977H118.417L118.042 79.7078L117.677 81.2977Z" fill="#263238"/>
<path d="M120.04 79.3628C120.569 79.3628 120.796 79.6205 120.796 80.0442V81.4331C120.796 81.8699 120.558 82.1145 120.04 82.1145H119.258V79.3628H120.04ZM120.04 81.835C120.31 81.835 120.437 81.6996 120.437 81.4462V80.0311C120.437 79.7777 120.31 79.6423 120.035 79.6423H119.638V81.8262L120.04 81.835Z" fill="#263238"/>
<path d="M121.145 82.1145V79.3628H121.515V81.8437H122.467V82.1232L121.145 82.1145Z" fill="#263238"/>
<path d="M123.143 79.3628V82.1145H122.773V79.3628H123.143Z" fill="#263238"/>
<path d="M123.826 82.1145H123.492V79.3628H123.963L124.735 81.3501V79.3628H125.063V82.1145H124.682L123.826 79.8869V82.1145Z" fill="#263238"/>
<path d="M126.633 80.5819V80.8571H125.819V81.8442H126.844V82.1238H125.47V79.3721H126.844V79.6603H125.845V80.5994L126.633 80.5819Z" fill="#263238"/>
<path d="M92.5366 82.5073H99.4944" stroke="#263238" stroke-linecap="round" stroke-linejoin="round"/>
<path d="M71.6738 82.5073H90.0358" stroke="#263238" stroke-linecap="round" stroke-linejoin="round"/>
<path d="M52.1857 82.5073H68.8928" stroke="#263238" stroke-linecap="round" stroke-linejoin="round"/>
<path d="M82.2479 89.0464H87.5614" stroke="#263238" stroke-linecap="round" stroke-linejoin="round"/>
<path d="M68.6127 89.0464H77.7963" stroke="#263238" stroke-linecap="round" stroke-linejoin="round"/>
<path d="M61.9404 89.0464H65.8317" stroke="#263238" stroke-linecap="round" stroke-linejoin="round"/>
<path d="M52.1857 89.0464H59.7145" stroke="#263238" stroke-linecap="round" stroke-linejoin="round"/>
<path d="M161.284 87.8228C161.285 88.0937 161.221 88.362 161.096 88.6124C160.971 88.8628 160.787 89.0903 160.555 89.2818C160.323 89.4734 160.048 89.6252 159.745 89.7286C159.442 89.832 159.117 89.885 158.789 89.8844H132.591C132.263 89.885 131.938 89.8321 131.635 89.7287C131.331 89.6254 131.056 89.4736 130.823 89.2821C130.591 89.0906 130.407 88.8632 130.281 88.6127C130.155 88.3623 130.091 88.0939 130.091 87.8228C130.093 87.2756 130.358 86.7514 130.826 86.3645C131.294 85.9775 131.929 85.7591 132.591 85.7568H158.789C159.117 85.7568 159.442 85.8103 159.745 85.9142C160.048 86.0181 160.323 86.1703 160.555 86.3622C160.787 86.5541 160.971 86.7819 161.096 87.0325C161.221 87.2831 161.285 87.5517 161.284 87.8228Z" fill="white" stroke="#263238" stroke-linecap="round" stroke-linejoin="round"/>
<path d="M125.126 89.8855H114.79C114.128 89.8855 113.493 89.6683 113.025 89.2816C112.557 88.895 112.294 88.3707 112.294 87.8239C112.299 87.2794 112.563 86.7584 113.031 86.3746C113.498 85.9908 114.131 85.7754 114.79 85.7754H125.126C125.455 85.7754 125.78 85.8288 126.083 85.9327C126.387 86.0365 126.662 86.1887 126.894 86.3805C127.127 86.5723 127.311 86.8001 127.437 87.0507C127.562 87.3014 127.627 87.57 127.627 87.8414C127.621 88.3858 127.355 88.9064 126.887 89.2894C126.418 89.6724 125.785 89.8867 125.126 89.8855Z" fill="white" stroke="#263238" stroke-linecap="round" stroke-linejoin="round"/>
<path d="M56.8013 103.246C56.8013 103.246 58.5672 99.4503 58.9161 99.0616C59.265 98.6729 59.8572 97.6988 60.9199 97.6988C61.9826 97.6988 63.8648 97.7949 64.6896 97.5023C65.5144 97.2096 66.5718 97.2096 66.3391 97.7949C66.1065 98.3802 64.6896 98.5724 64.6896 98.5724L70.812 98.9655C70.812 98.9655 69.0461 100.324 68.2213 100.617C67.3764 100.864 66.5105 101.06 65.6307 101.202C64.8987 101.609 64.1061 101.936 63.2726 102.176C62.4965 102.314 61.7108 102.411 60.9199 102.468L59.6246 104.412L56.8013 103.246Z" fill="white" stroke="#263238" stroke-linecap="round" stroke-linejoin="round"/>
<path d="M64.6949 98.5679L61.9826 99.1532" stroke="#263238" stroke-linecap="round" stroke-linejoin="round"/>
<path d="M42.1931 86.403L40.1893 89.229L41.3683 91.4653L44.6674 89.4212L46.317 88.4472V82.6074L42.1931 86.403Z" fill="white" stroke="#263238" stroke-linecap="round" stroke-linejoin="round"/>
<path d="M41.7227 87.9583C41.7227 87.9583 42.6638 83.9662 43.1343 83.4813C43.6049 82.9965 45.4923 81.8259 46.0792 81.7342C46.6661 81.6425 47.4961 81.9264 47.0256 82.5117C46.4374 83.068 45.7638 83.5584 45.0218 83.9705C45.0218 83.9705 45.8466 85.9186 45.2544 86.9887C44.8469 87.6624 44.1867 88.2094 43.3722 88.548" fill="white"/>
<path d="M41.7227 87.9583C41.7227 87.9583 42.6638 83.9662 43.1343 83.4813C43.6049 82.9965 45.4923 81.8259 46.0792 81.7342C46.6661 81.6425 47.4961 81.9264 47.0256 82.5117C46.4374 83.068 45.7638 83.5584 45.0218 83.9705C45.0218 83.9705 45.8466 85.9186 45.2544 86.9887C44.8469 87.6624 44.1867 88.2094 43.3722 88.548" stroke="#263238" stroke-linecap="round" stroke-linejoin="round"/>
<path d="M40.3109 88.4478L42.3094 92.6321L32.063 99.0571L29.8266 92.4399L40.3109 88.4478Z" fill="#92E3A9" stroke="#263238" stroke-linecap="round" stroke-linejoin="round"/>
<path d="M35.6425 158.643L36.039 162.792C36.039 162.792 33.3955 167.378 33.6598 171.418C33.9242 175.459 34.4529 187.142 34.4529 187.798C34.4529 188.453 33.1311 189.217 34.0563 191.947C34.3154 192.707 36.5677 192.165 38.8147 193.366C41.0617 194.568 43.8374 195.332 45.5557 195.332C47.274 195.332 48.1993 195.332 48.1993 194.677C48.1993 194.022 45.6879 193.148 44.6305 192.275C42.9699 190.715 41.425 189.074 40.0043 187.361C39.74 186.924 40.9295 180.481 41.7226 177.97C42.5157 175.459 44.7627 169.453 45.6879 165.194C46.6131 160.936 47.0097 157.441 47.0097 157.441L35.6425 158.643Z" fill="white" stroke="#263238" stroke-linecap="round" stroke-linejoin="round"/>
<path d="M34.0564 191.947L34.3208 194.896H36.1712L36.9643 192.493C36.9643 192.493 34.7173 191.838 34.0564 191.947Z" fill="#263238" stroke="#263238" stroke-linecap="round" stroke-linejoin="round"/>
<path d="M45.5556 195.332C47.2634 195.192 48.1992 195.332 48.1992 194.677C48.1992 194.021 45.6878 193.148 44.6304 192.274C43.1929 190.927 41.8394 189.52 40.5752 188.059C40.03 188.411 39.3721 188.624 38.6824 188.671C36.6998 188.78 34.4528 187.797 34.4528 187.797C34.4528 188.453 33.131 189.217 34.0563 191.947C34.3153 192.707 36.6416 192.571 38.4551 194.371C40.1681 196.07 45.2966 195.354 45.5556 195.332Z" fill="#263238" stroke="#263238" stroke-linecap="round" stroke-linejoin="round"/>
<path d="M20.1778 155.476L20.4421 161.59C20.4421 161.59 17.0055 165.412 16.3446 169.125C15.6838 172.838 13.4368 187.36 13.4368 188.78C13.4368 190.199 12.3793 194.786 12.908 195.113C13.4368 195.441 19.5169 195.113 19.5169 195.113C19.7315 194.624 19.8215 194.104 19.7812 193.585C19.7812 192.493 18.7238 188.889 18.9882 188.016C19.2525 187.142 20.1778 184.412 20.1778 184.412C20.1778 184.412 24.2752 175.567 25.9935 172.838C27.7118 170.108 29.1658 166.177 30.091 163.774C31.0163 161.372 31.8093 157.987 31.8093 157.987L20.1778 155.476Z" fill="white" stroke="#263238" stroke-linecap="round" stroke-linejoin="round"/>
<path d="M18.9565 188.182C17.1218 186.051 14.1294 187.352 13.5425 187.636C13.4738 188.2 13.4368 188.601 13.4368 188.78C13.4368 190.2 12.3793 194.786 12.908 195.114C13.4368 195.441 19.5169 195.114 19.5169 195.114C19.7315 194.625 19.8215 194.104 19.7812 193.585C19.7812 192.554 18.8349 189.291 18.9565 188.182Z" fill="#263238" stroke="#263238" stroke-linecap="round" stroke-linejoin="round"/>
<path d="M19.5176 195.113C19.2532 194.458 17.4027 191.837 17.4027 191.837L13.9661 191.947C12.7766 193.039 12.9087 195.113 12.9087 195.113C13.4374 195.441 19.5176 195.113 19.5176 195.113Z" fill="#8C8C8C" stroke="#263238" stroke-linecap="round" stroke-linejoin="round"/>
<path d="M17.4021 191.838C17.4021 191.838 16.2125 190.964 15.2872 191.292C14.8042 191.446 14.3571 191.667 13.9655 191.947L14.0976 195.223H16.4768L17.4021 191.838Z" fill="#263238" stroke="#263238" stroke-linecap="round" stroke-linejoin="round"/>
<path d="M17.2699 133.746C16.5629 135.36 16.1617 137.054 16.0803 138.769C15.9481 141.608 16.8734 155.585 16.8734 155.585C16.8734 155.585 23.4822 159.298 34.5851 159.625C45.6879 159.953 50.8428 157.441 50.8428 157.441C50.8428 157.441 50.5784 140.625 49.2567 136.585C47.9349 132.545 45.5557 130.907 45.5557 130.907C45.5557 130.907 40.2687 132.217 32.2059 132.108C27.6238 132.08 23.0589 131.641 18.5917 130.798L17.2699 133.746Z" fill="#263238" stroke="#263238" stroke-linecap="round" stroke-linejoin="round"/>
<path d="M20.7541 100.127C20.7541 100.127 17.455 105.185 16.9844 108.885C16.5139 112.584 20.8704 123.87 20.8704 124.259C20.8704 124.648 16.2812 134.379 16.2812 134.379C19.8877 135.657 23.6245 136.667 27.4475 137.398C33.3373 138.468 39.3435 137.786 40.5225 137.494L42.0557 133.702L42.6426 136.913C42.6426 136.913 42.6426 137.009 44.5301 136.62C46.4176 136.231 48.7597 134.576 48.7597 134.576C48.7597 134.576 45.6985 128.64 44.1653 126.985C42.632 125.329 40.7498 121.538 40.7498 121.538L41.453 116.672C41.453 116.672 46.7401 120.271 47.2265 120.368C47.7129 120.464 55.0038 113.379 56.5317 111.317C58.0597 109.256 60.5393 104.019 60.5393 104.019L57.0551 102.56L55.6435 103.726L47.2793 111.221C47.2793 111.221 42.2143 106.452 39.74 105.674C37.2656 104.897 32.5549 103.726 32.5549 103.726L23.0117 101.879L23.7202 100.223C23.7202 100.223 23.2179 99.0571 20.7541 100.127Z" fill="#92E3A9" stroke="#263238" stroke-linecap="round" stroke-linejoin="round"/>
<path d="M41.4899 116.672L36.1711 114.091L41.014 118.926L41.4899 116.672Z" fill="#263238" stroke="#263238" stroke-linecap="round" stroke-linejoin="round"/>
<path d="M30.3184 122.696C30.8135 123.176 31.3565 123.622 31.9415 124.028" stroke="#263238" stroke-linecap="round" stroke-linejoin="round"/>
<path d="M23.8364 113.187C23.8364 113.187 26.1099 118.027 29.2398 121.564" stroke="#263238" stroke-linecap="round" stroke-linejoin="round"/>
<path d="M26.3477 120.521C27.6183 122.239 29.1051 123.843 30.7836 125.303" stroke="#263238" stroke-linecap="round" stroke-linejoin="round"/>
<path d="M36.0707 84.8487C36.5385 85.6222 36.8934 86.4389 37.1281 87.2816C37.5986 88.8365 39.2429 89.6184 39.8403 89.5179C40.4378 89.4174 40.4272 90.588 40.073 91.1733C39.8214 91.5646 39.5046 91.9248 39.1319 92.2434C39.0596 93.6119 38.9025 94.9764 38.6613 96.3316C38.3071 98.0787 38.1908 99.4459 37.366 99.4459H33.1363C33.1363 99.4459 32.7821 101.001 32.6605 102.267C32.5389 103.534 32.5442 103.726 32.5442 103.726L23.001 101.879L24.0584 99.1532C24.0584 99.1532 18.0523 96.9169 20.9972 92.8287C23.9421 88.7404 30.884 83.5908 36.0707 84.8487Z" fill="white" stroke="#263238" stroke-linecap="round" stroke-linejoin="round"/>
<path d="M33.1259 99.4455L31.1697 99.3145L32.7135 101.546L33.1259 99.4455Z" fill="#263238" stroke="#263238" stroke-linecap="round" stroke-linejoin="round"/>
<path d="M38.894 94.3833C38.5439 94.5626 38.1446 94.6658 37.7333 94.6833C37.3219 94.7009 36.9119 94.6323 36.5413 94.4838" stroke="#263238" stroke-linecap="round" stroke-linejoin="round"/>
<path d="M35.246 88.3517C35.246 88.3517 35.4786 86.5041 36.6576 86.6045" stroke="#263238" stroke-linecap="round" stroke-linejoin="round"/>
<path d="M37.1069 89.1246C37.3078 89.6356 37.2919 90.0942 37.0751 90.1554C36.8584 90.2165 36.5464 89.8409 36.3244 89.3299C36.1023 88.8188 36.1393 88.3602 36.3561 88.2991C36.5729 88.2379 36.9112 88.6092 37.1069 89.1246Z" fill="#263238"/>
<path d="M36.0706 81.927L36.1129 81.9707C37.3607 83.3116 37.1704 84.8054 36.187 86.2118C34.2255 89.0727 28.2564 91.7327 28.2564 94.0957C28.2564 96.4587 31.27 96.3364 31.27 96.3364C31.27 96.3364 32.4754 98.4547 29.4618 100.32C26.4482 102.185 20.2623 102.683 16.3446 99.3152C15.2673 98.3578 14.4825 97.2018 14.0553 95.9433C12.8657 92.6674 12.6965 89.0247 14.4465 86.0546C15.9163 83.5649 17.6188 81.547 20.68 80.2935C23.0909 79.3151 26.8976 79.0705 29.5887 79.2015C30.9028 79.2427 32.1936 79.5012 33.3848 79.9615C34.4309 80.4609 35.3444 81.1294 36.0706 81.927Z" fill="#263238" stroke="#263238" stroke-linecap="round" stroke-linejoin="round"/>
<path d="M27.8334 98.3448C28.4151 98.2662 28.9843 98.1344 29.5306 97.9517" stroke="#757575" stroke-linecap="round" stroke-linejoin="round"/>
<path d="M32.9778 87.4253C32.1576 88.4089 31.1317 89.2638 29.9483 89.9499C25.7926 92.3522 21.2246 94.868 23.3024 97.1524C23.6601 97.5435 24.1204 97.8627 24.6487 98.0858C25.1771 98.309 25.7598 98.4304 26.3531 98.4408" stroke="#757575" stroke-linecap="round" stroke-linejoin="round"/>
<path d="M34.7913 84.0015C34.6243 84.6785 34.3561 85.3358 33.9929 85.9582" stroke="#757575" stroke-linecap="round" stroke-linejoin="round"/>
<path d="M24.8833 90.7319C24.2066 91.505 23.3554 92.4135 22.335 93.3788C19.4271 96.1261 19.8395 101.726 26.3479 101.271" stroke="#757575" stroke-linecap="round" stroke-linejoin="round"/>
<path d="M26.7603 88.3477C26.7603 88.3477 26.4536 88.8325 25.8615 89.5663" stroke="#757575" stroke-linecap="round" stroke-linejoin="round"/>
<path d="M196.914 142.757C198.299 143.255 201.672 143.194 201.672 143.194C201.672 143.194 200.943 141.36 200.879 141.25C200.134 139.966 197.786 137.848 195.878 138.062C195.561 138.104 195.258 138.201 194.99 138.346C194.722 138.491 194.493 138.681 194.32 138.904C194.147 139.127 194.033 139.378 193.985 139.64C193.937 139.902 193.957 140.17 194.043 140.425C194.376 141.517 195.735 142.329 196.914 142.757Z" fill="#263238"/>
<path d="M241.267 133.236C239.348 133.065 237.069 135.236 236.371 136.538C236.308 136.647 235.605 138.494 235.642 138.494H235.684C235.319 138.835 234.933 139.202 234.526 139.613C233.775 140.373 232.94 141.242 232.099 142.233C231.183 143.295 230.342 144.401 229.583 145.544C228.723 146.82 228.005 148.158 227.436 149.54C227.436 149.54 227.436 149.575 227.436 149.589C227.436 149.121 227.436 147.815 227.41 147.719C227.188 146.308 225.755 143.688 223.857 143.395C223.539 143.354 223.214 143.368 222.904 143.437C222.593 143.506 222.304 143.629 222.055 143.796C221.805 143.964 221.601 144.173 221.456 144.411C221.311 144.648 221.229 144.907 221.213 145.173C221.102 146.291 222.085 147.413 223.048 148.121C224.105 148.92 227.135 149.693 227.373 149.755C226.831 151.172 226.407 152.618 226.104 154.083C225.919 154.935 225.765 155.8 225.623 156.669C225.623 156.263 225.623 155.904 225.623 155.852C225.4 154.441 223.968 151.82 222.07 151.532C221.752 151.49 221.428 151.504 221.117 151.572C220.807 151.641 220.517 151.763 220.268 151.93C220.018 152.098 219.814 152.307 219.669 152.544C219.524 152.781 219.441 153.04 219.426 153.306C219.315 154.428 220.298 155.551 221.261 156.258C222.223 156.966 224.777 157.678 225.453 157.857C225.406 158.189 225.348 158.521 225.3 158.853C225.073 160.456 224.851 162.05 224.57 163.609C224.475 164.159 224.354 164.701 224.237 165.238C224.237 164.88 224.237 164.579 224.237 164.531C224.015 163.12 222.582 160.504 220.684 160.211C220.367 160.17 220.043 160.184 219.733 160.253C219.423 160.322 219.134 160.444 218.884 160.611C218.635 160.778 218.431 160.987 218.286 161.223C218.14 161.46 218.057 161.719 218.041 161.984C217.93 163.107 218.913 164.229 219.876 164.937C220.838 165.645 223.143 166.287 223.947 166.505C223.809 167.051 223.666 167.601 223.502 168.13C223.376 168.488 223.286 168.837 223.138 169.191C222.99 169.545 222.868 169.894 222.731 170.239C222.44 170.899 222.149 171.58 221.848 172.214C221.641 172.65 221.43 173.087 221.224 173.524C221.329 172.978 221.509 171.904 221.509 171.812C221.488 170.561 221.078 169.335 220.32 168.252C220.326 168.106 220.316 167.96 220.288 167.815C220.248 167.552 220.142 167.3 219.976 167.073C219.81 166.846 219.588 166.651 219.325 166.5C219.061 166.35 218.762 166.246 218.447 166.197C218.132 166.148 217.808 166.155 217.496 166.217C215.635 166.627 214.451 169.331 214.366 170.75C214.366 170.833 214.425 171.746 214.477 172.323C214.382 171.991 214.298 171.663 214.197 171.318C214.002 170.637 213.78 169.964 213.547 169.239L213.161 168.182C213.045 167.828 212.865 167.47 212.712 167.108C212.341 166.273 211.924 165.444 211.474 164.618C212.193 164.474 214.747 163.937 215.773 163.286C216.798 162.635 217.888 161.582 217.888 160.456C217.896 160.191 217.837 159.928 217.714 159.684C217.592 159.439 217.408 159.219 217.176 159.037C216.944 158.855 216.668 158.715 216.366 158.627C216.064 158.539 215.743 158.504 215.424 158.525C213.505 158.695 211.839 161.22 211.49 162.613C211.49 162.701 211.358 163.723 211.31 164.286C211.036 163.793 210.782 163.295 210.465 162.801C209.608 161.377 208.688 159.953 207.779 158.534L206.949 157.223C207.208 157.171 210.258 156.59 211.406 155.861C212.426 155.214 213.52 154.153 213.52 153.03C213.53 152.766 213.471 152.502 213.349 152.258C213.227 152.013 213.043 151.792 212.811 151.61C212.578 151.428 212.302 151.288 212 151.2C211.697 151.112 211.376 151.078 211.057 151.1C209.137 151.27 207.477 153.795 207.128 155.188C207.128 155.293 206.938 156.765 206.922 157.14C206.319 156.18 205.727 155.219 205.188 154.253C204.457 152.949 203.828 151.606 203.306 150.235C203.427 150.213 206.616 149.615 207.789 148.868C208.815 148.221 209.904 147.164 209.904 146.038C209.913 145.773 209.854 145.51 209.731 145.266C209.608 145.021 209.425 144.801 209.193 144.619C208.96 144.437 208.684 144.297 208.382 144.209C208.08 144.121 207.76 144.086 207.44 144.107C205.521 144.277 203.861 146.802 203.512 148.195C203.486 148.304 203.311 149.89 203.306 150.178C203.274 150.1 203.232 150.021 203.205 149.942C202.73 148.553 202.403 147.133 202.227 145.697C202.122 144.906 202.074 144.146 202.048 143.404C202.65 143.343 205.426 143.037 206.573 142.465C207.721 141.893 208.894 140.958 209.032 139.844C209.076 139.582 209.052 139.315 208.963 139.061C208.874 138.807 208.72 138.571 208.513 138.369C208.306 138.167 208.05 138.003 207.761 137.889C207.473 137.774 207.158 137.711 206.838 137.704C204.908 137.704 202.92 140.058 202.386 141.412C202.359 141.482 202.164 142.259 202.037 142.827C202.037 142.491 202.037 142.146 202.037 141.823C202.037 140.617 202.132 139.516 202.222 138.538C202.28 137.983 202.344 137.481 202.412 137.014C202.973 136.699 205.204 135.398 205.886 134.467C206.568 133.537 207.107 132.248 206.605 131.205C206.498 130.955 206.328 130.727 206.108 130.535C205.887 130.343 205.62 130.192 205.323 130.091C205.027 129.99 204.709 129.942 204.388 129.949C204.068 129.957 203.753 130.02 203.464 130.134C201.751 130.868 201.297 133.716 201.582 135.122C201.609 135.245 202.254 137.105 202.285 137.088H202.317C202.243 137.525 202.169 138.018 202.1 138.547C201.979 139.525 201.857 140.626 201.825 141.836C201.772 143.139 201.809 144.445 201.936 145.745C202.074 147.2 202.368 148.643 202.814 150.056C202.814 150.056 202.814 150.091 202.814 150.108C202.507 149.715 201.614 148.636 201.535 148.558C200.409 147.483 197.464 145.937 195.719 146.575C195.428 146.685 195.168 146.844 194.956 147.043C194.744 147.241 194.585 147.474 194.489 147.727C194.394 147.979 194.363 148.245 194.4 148.508C194.437 148.771 194.541 149.025 194.704 149.252C195.359 150.239 196.93 150.729 198.204 150.881C199.642 151.052 202.661 150.327 202.904 150.27C203.399 151.699 204.01 153.098 204.733 154.459C205.151 155.254 205.6 156.044 206.06 156.83C205.785 156.498 205.532 156.201 205.495 156.162C204.369 155.088 201.424 153.541 199.647 154.179C199.356 154.29 199.097 154.449 198.886 154.648C198.674 154.847 198.516 155.08 198.421 155.332C198.326 155.585 198.296 155.851 198.333 156.113C198.37 156.376 198.474 156.629 198.637 156.857C199.293 157.844 200.863 158.333 202.137 158.486C203.412 158.639 206.018 158.049 206.705 157.905C206.885 158.206 207.06 158.508 207.234 158.809C208.106 160.246 208.989 161.679 209.798 163.107C210.089 163.609 210.327 164.116 210.607 164.618C210.364 164.321 210.153 164.076 210.116 164.042C208.989 162.963 206.045 161.421 204.273 162.054C203.982 162.164 203.722 162.324 203.51 162.522C203.298 162.721 203.14 162.954 203.044 163.206C202.948 163.459 202.918 163.725 202.955 163.988C202.992 164.251 203.095 164.504 203.258 164.732C203.914 165.719 205.484 166.208 206.758 166.361C208.032 166.514 210.39 165.994 211.199 165.81C211.453 166.33 211.728 166.854 211.913 167.37C212.051 167.724 212.215 168.06 212.326 168.422C212.437 168.785 212.563 169.13 212.685 169.479C212.881 170.161 213.092 170.864 213.261 171.532C213.388 171.995 213.494 172.441 213.605 172.886C213.325 172.384 212.759 171.406 212.701 171.331C211.781 170.126 209.153 168.243 207.287 168.636C206.979 168.708 206.692 168.833 206.446 169.003C206.2 169.173 206 169.383 205.86 169.621C205.719 169.859 205.641 170.119 205.63 170.383C205.619 170.648 205.675 170.911 205.796 171.157C206.261 172.214 207.726 172.904 208.968 173.205C210.327 173.546 213.325 173.231 213.727 173.205C213.906 173.948 214.07 174.668 214.213 175.35C214.435 176.376 214.615 177.328 214.768 178.193H212.865V195.407H221.166V178.154H220.066C220.394 177.534 220.732 176.874 221.086 176.167C221.44 175.459 221.8 174.695 222.144 173.908C222.503 173.97 225.475 174.467 226.86 174.21C228.113 173.974 229.635 173.389 230.196 172.362C230.341 172.124 230.424 171.863 230.438 171.597C230.453 171.33 230.398 171.064 230.279 170.817C230.159 170.569 229.978 170.345 229.745 170.159C229.513 169.974 229.236 169.832 228.932 169.742C227.108 169.235 224.317 170.947 223.291 172.091C223.233 172.161 222.678 172.965 222.334 173.458C222.482 173.14 222.625 172.825 222.773 172.493C223.064 171.834 223.333 171.183 223.624 170.462L224.005 169.405C224.142 169.056 224.232 168.671 224.348 168.3C224.597 167.427 224.798 166.553 224.978 165.679C225.675 165.889 228.15 166.605 229.45 166.527C230.751 166.448 232.348 166.064 233.088 165.12C233.273 164.904 233.4 164.657 233.461 164.397C233.523 164.137 233.517 163.87 233.445 163.612C233.372 163.354 233.235 163.111 233.041 162.9C232.848 162.689 232.602 162.514 232.321 162.386C230.608 161.657 227.531 163.002 226.315 164.007C226.236 164.072 225.459 164.88 225.041 165.317C225.141 164.78 225.247 164.242 225.332 163.696C225.57 162.115 225.749 160.512 225.94 158.892C225.998 158.403 226.061 157.914 226.125 157.424C226.368 157.503 229.297 158.407 230.751 158.32C232.03 158.245 233.643 157.857 234.383 156.913C234.568 156.697 234.695 156.45 234.757 156.19C234.818 155.93 234.812 155.663 234.74 155.405C234.668 155.146 234.53 154.904 234.337 154.693C234.143 154.482 233.898 154.307 233.617 154.179C231.904 153.45 228.832 154.795 227.61 155.8C227.521 155.878 226.4 157.031 226.135 157.337C226.273 156.258 226.421 155.188 226.622 154.135C226.88 152.715 227.251 151.31 227.732 149.929C227.848 149.964 230.904 150.916 232.385 150.833C233.669 150.759 235.277 150.366 236.022 149.427C236.205 149.21 236.331 148.964 236.392 148.704C236.452 148.444 236.446 148.177 236.374 147.919C236.302 147.661 236.165 147.419 235.972 147.208C235.78 146.997 235.535 146.821 235.256 146.693C233.537 145.959 230.466 147.309 229.244 148.313C229.149 148.392 227.949 149.623 227.748 149.872C227.78 149.789 227.796 149.706 227.827 149.628C228.354 148.253 229.03 146.919 229.847 145.644C230.286 144.937 230.751 144.277 231.222 143.644C231.75 143.871 234.288 144.88 235.631 144.928C236.974 144.976 238.581 144.74 239.459 143.867C239.671 143.668 239.83 143.435 239.926 143.182C240.022 142.93 240.052 142.663 240.015 142.4C239.977 142.137 239.873 141.884 239.709 141.656C239.545 141.429 239.324 141.232 239.062 141.08C237.476 140.207 234.219 141.259 232.876 142.146C232.802 142.194 232.12 142.753 231.634 143.164C231.856 142.88 232.073 142.587 232.29 142.321C233.093 141.316 233.907 140.438 234.637 139.665C235.055 139.228 235.446 138.839 235.811 138.481C236.493 138.481 239.221 138.403 240.416 137.94C241.611 137.477 242.911 136.629 243.191 135.542C243.265 135.285 243.273 135.018 243.214 134.759C243.155 134.499 243.031 134.253 242.85 134.035C242.668 133.818 242.434 133.634 242.161 133.497C241.888 133.359 241.584 133.27 241.267 133.236ZM220.029 175.804C219.585 176.656 219.151 177.438 218.744 178.158H215.847C215.667 177.245 215.45 176.236 215.186 175.14C215.006 174.389 214.795 173.59 214.573 172.768C215.477 172.469 216.36 172.126 217.216 171.742C218.205 172.616 220.732 173.659 221.06 173.79C220.711 174.489 220.367 175.166 220.029 175.804Z" fill="#263238"/>
<path d="M231.158 143.373C231.19 143.373 231.777 141.512 231.798 141.39C232.036 139.979 231.491 137.14 229.752 136.45C229.46 136.341 229.143 136.285 228.823 136.284C228.503 136.283 228.186 136.338 227.893 136.445C227.6 136.552 227.338 136.709 227.123 136.906C226.909 137.102 226.747 137.334 226.648 137.585C226.183 138.642 226.77 139.94 227.473 140.831C228.292 141.879 231.158 143.368 231.158 143.373Z" fill="#263238"/>
<path d="M242.462 195.284H249.166" stroke="#263238" stroke-linecap="round" stroke-linejoin="round"/>
<path d="M236.736 195.284H239.38" stroke="#263238" stroke-linecap="round" stroke-linejoin="round"/>
<path d="M3.31726 195.284H234.828" stroke="#263238" stroke-linecap="round" stroke-linejoin="round"/>
</svg>
