<svg width="81" height="75" viewBox="0 0 81 75" fill="none" xmlns="http://www.w3.org/2000/svg">
<path d="M40.5 45.8496C40.4209 45.8496 40.3576 45.835 40.2944 45.8203C39.9621 45.7324 32.0836 43.6523 28.6348 39.3457C25.2651 35.1416 24.7114 25.3418 24.6797 24.9316C24.6639 24.668 24.8063 24.4189 25.0436 24.2871C25.2176 24.1846 29.2676 21.5918 29.2676 14.7949C29.2676 14.4141 29.584 14.0918 29.9953 14.0625C30.4067 14.0332 30.7705 14.2969 30.8496 14.6631L31.7039 19.1162C33.0012 17.8418 35.0895 15.2344 35.2952 11.6748C35.311 11.2939 35.659 10.9863 36.0703 10.9863C36.4817 10.9863 36.8297 11.2646 36.8772 11.6455C37.067 13.3594 38.127 17.9883 40.769 18.8232C44.3602 19.9512 50.9731 20.5811 51.0364 20.5811C51.2737 20.6104 51.4793 20.7275 51.6217 20.9033C52.5709 22.2656 54.4219 24.1699 55.5293 24.1699C55.7508 24.1699 55.9565 24.2578 56.0989 24.4043C56.2412 24.5508 56.3203 24.7412 56.3203 24.9463C56.3045 25.3564 55.735 35.1563 52.3653 39.3604C48.9164 43.667 41.0379 45.7471 40.7057 45.835C40.6424 45.835 40.5791 45.8496 40.5 45.8496ZM26.2934 25.2539C26.4358 27.0996 27.1793 35.0684 29.9162 38.4814C32.7481 42.0117 39.2502 43.9893 40.5159 44.3555C41.7815 44.0039 48.2836 42.0117 51.1155 38.4814C53.7416 35.2148 54.5326 27.7441 54.7067 25.5029C52.9032 24.9609 51.1787 22.8809 50.5143 22.002C49.043 21.8555 43.5692 21.2549 40.2627 20.2148C38.0637 19.5264 36.8139 17.2705 36.1178 15.2783C34.694 18.9551 31.8305 21.0498 31.6723 21.167C31.4508 21.3281 31.166 21.3574 30.8971 21.2695C30.644 21.1816 30.4541 20.9619 30.4067 20.7129L30.1694 19.5117C29.1094 22.8369 27.116 24.624 26.2934 25.2539Z" fill="#0D986A"/>
<path d="M27.385 52.0313L26.7205 50.6982L34.9629 47.1387V43.4033H36.5449V47.6074C36.5449 47.8857 36.3709 48.1494 36.0861 48.2666L27.385 52.0313ZM53.5043 51.9873L44.9139 48.2812C44.6291 48.1641 44.4551 47.9004 44.4551 47.6221V43.418H46.0371V47.1533L54.1846 50.6689L53.5043 51.9873ZM66.2871 75H14.7129C14.2699 75 13.9219 74.6777 13.9219 74.2676V62.2852C13.9219 58.5938 16.2475 55.21 19.8545 53.6572L22.9236 52.3389L23.5881 53.6719L20.5189 54.9902C17.4656 56.3086 15.4881 59.1797 15.4881 62.2998V73.5352H65.4803V62.2852C65.4803 59.165 63.5027 56.2939 60.4494 54.9902L57.3961 53.6719L58.0606 52.3389L61.1139 53.6572C64.7209 55.21 67.0465 58.6084 67.0465 62.2852V74.2676C67.0781 74.6777 66.7301 75 66.2871 75ZM40.5 38.3936C37.5574 38.3936 35.8014 36.7236 35.485 36.3867L36.6715 35.4053C36.8297 35.5664 38.2219 36.9434 40.5633 36.9141C42.7939 36.8994 44.107 35.6543 44.3443 35.4053L45.5309 36.3867C45.2145 36.7236 43.4742 38.3643 40.5791 38.3936C40.5475 38.3936 40.5158 38.3936 40.5 38.3936ZM30.4541 23.6279L29.6473 22.3682C30.4699 21.9141 31.7988 21.3867 33.5232 21.3867C33.5391 21.3867 33.5549 21.3867 33.5707 21.3867C35.2793 21.4014 36.5924 21.9287 37.415 22.3682L36.6082 23.6279C35.9596 23.2764 34.9154 22.8516 33.5707 22.8516C33.5549 22.8516 33.5391 22.8516 33.5391 22.8516C32.1785 22.8516 31.1186 23.2764 30.4541 23.6279Z" fill="#0D986A"/>
<path d="M33.8555 26.5137H32.2734V29.1504H33.8555V26.5137Z" fill="#0D986A"/>
<path d="M34.8047 26.5137H33.2227V29.1504H34.8047V26.5137Z" fill="#0D986A"/>
<path d="M30.6914 28.125H30.0586V26.6602H30.4541C31.4033 26.0889 32.4633 25.7812 33.5391 25.7812C33.5549 25.7812 33.5549 25.7812 33.5707 25.7812C34.8521 25.7812 35.8014 26.25 36.3709 26.5283C36.4816 26.5869 36.624 26.6455 36.6715 26.6602L36.1336 28.0371C35.9754 27.9785 35.8172 27.9053 35.6273 27.8174C35.1369 27.5684 34.4566 27.2314 33.5549 27.2314C32.7322 27.2314 31.8937 27.4951 31.1502 27.9785C31.0078 28.0811 30.8496 28.125 30.6914 28.125ZM50.5459 23.6279C49.8973 23.2764 48.8373 22.8516 47.4609 22.8516C47.4451 22.8516 47.4293 22.8516 47.4293 22.8516C46.0846 22.8516 45.0246 23.2764 44.3918 23.6279L43.585 22.3682C44.3918 21.9287 45.7207 21.3867 47.4293 21.3867C47.4451 21.3867 47.4609 21.3867 47.4768 21.3867C49.2012 21.3867 50.5301 21.9141 51.3527 22.3682L50.5459 23.6279Z" fill="#0D986A"/>
<path d="M48.7266 26.5137H47.1445V29.1504H48.7266V26.5137Z" fill="#0D986A"/>
<path d="M47.7773 26.5137H46.1953V29.1504H47.7773V26.5137Z" fill="#0D986A"/>
<path d="M50.9414 28.125H50.3086C50.1504 28.125 49.9922 28.0811 49.8498 27.9932C49.1063 27.5098 48.2836 27.2461 47.4451 27.2461H47.4293C46.5434 27.2461 45.8789 27.583 45.3885 27.832C45.1986 27.9199 45.0404 28.0078 44.8822 28.0518L44.3443 26.6748C44.3918 26.6602 44.5342 26.5869 44.6449 26.543C45.2145 26.2646 46.1637 25.7959 47.4451 25.7959C47.4609 25.7959 47.4609 25.7959 47.4768 25.7959C48.5525 25.7959 49.6125 26.1035 50.5617 26.6748H50.9572V28.125H50.9414ZM43.2686 20.6689C43.1895 20.5225 41.3068 17.0215 40.7373 13.6523L42.3035 13.4326C42.8256 16.5674 44.6607 19.9805 44.6766 20.0098L43.2686 20.6689ZM50.4035 21.8408C50.2453 21.6943 46.401 18.3252 45.7365 14.2383L47.3027 14.0186C47.8881 17.6074 51.4477 20.7422 51.4951 20.7715L50.4035 21.8408ZM26.2617 24.9023H24.6797C24.6797 20.3613 25.708 14.2822 25.7396 14.0186L27.3059 14.2383C27.29 14.3115 26.2617 20.4785 26.2617 24.9023ZM56.3203 24.9023H54.7383C54.7383 19.4678 53.3145 14.8535 53.2986 14.8096L54.8174 14.3994C54.8807 14.5898 56.3203 19.248 56.3203 24.9023Z" fill="#0D986A"/>
<path d="M26.2617 37.5H24.6797V46.2891H26.2617V37.5Z" fill="#0D986A"/>
<path d="M56.3203 37.5H54.7383V46.2891H56.3203V37.5Z" fill="#0D986A"/>
<path d="M40.5 71.8799C40.326 71.8799 40.1519 71.8213 40.0096 71.7188L24.9486 60.5273L25.9453 59.3848L40.5158 70.21L51.8906 61.8018L52.8715 62.9443L41.0062 71.7188C40.848 71.8213 40.674 71.8799 40.5 71.8799Z" fill="#0D986A"/>
<path d="M40.5 66.0205C40.1836 66.0205 39.8988 65.8447 39.7723 65.5664L32.3367 49.0576L33.7922 48.501L40.5 63.3838L47.2078 48.4863L48.6633 49.043L41.2277 65.5518C41.1012 65.8447 40.8164 66.0205 40.5 66.0205Z" fill="#0D986A"/>
<path d="M40.5316 57.3193C37.9529 57.3193 35.5482 55.7373 35.4533 55.6641L36.3709 54.4775C36.3867 54.4922 38.475 55.8545 40.5316 55.8545C42.5883 55.8545 44.6133 54.4922 44.6291 54.4922L45.5625 55.6787C45.4676 55.7373 43.1103 57.3193 40.5316 57.3193Z" fill="#0D986A"/>
<path d="M26.2617 54.3457H24.6797V74.2676H26.2617V54.3457Z" fill="#0D986A"/>
<path d="M22.4247 71.22L19.6101 54.9331L18.0479 55.1646L20.8626 71.4515L22.4247 71.22Z" fill="#0D986A"/>
<path d="M58.8516 75H55.5293C55.0863 75 54.7383 74.6777 54.7383 74.2676V54.3457H56.3203V73.5352H58.1713L61.3828 54.9023L62.949 55.1367L59.6268 74.3848C59.5635 74.7363 59.2471 75 58.8516 75Z" fill="#0D986A"/>
<path d="M51.3369 55.957C51.0363 55.957 50.7516 55.7959 50.625 55.5469C50.4984 55.2979 50.5301 54.9902 50.7199 54.7705C50.7516 54.7266 54.3428 50.4639 54.7066 46.8604C53.267 46.5527 49.5018 45.8496 45.2461 45.8496V44.3848C50.8781 44.3848 55.5451 45.542 55.735 45.5859C56.083 45.6738 56.3203 45.9668 56.3203 46.2891C56.3203 49.248 54.2637 52.5732 52.9664 54.3604C55.4186 53.9795 57.5068 52.7051 59.1996 50.5664C60.5602 48.8525 61.2088 47.1094 61.367 46.6406C61.193 44.9561 59.4844 29.1357 59.4844 18.75C59.4844 8.4082 51.859 1.46484 40.5 1.46484C29.141 1.46484 21.5156 8.4082 21.5156 18.75C21.5156 29.1357 19.807 44.9561 19.633 46.6553C19.7912 47.124 20.4398 48.8672 21.8004 50.5811C23.4932 52.7197 25.5814 53.9795 28.0336 54.375C26.7363 52.5732 24.6797 49.248 24.6797 46.2891C24.6797 45.9521 24.917 45.6738 25.265 45.5859C25.4549 45.542 30.1219 44.3848 35.7539 44.3848V45.8496C31.4982 45.8496 27.7172 46.5527 26.2934 46.8604C26.6572 50.4639 30.2484 54.7266 30.2801 54.7705C30.4699 54.9902 30.5016 55.2979 30.375 55.5469C30.2484 55.7959 29.9637 55.957 29.6631 55.957C26.0086 55.957 22.8287 54.3896 20.4873 51.4014C18.7471 49.1895 18.0826 47.0068 18.0668 46.9189C18.0352 46.8311 18.0352 46.7432 18.0352 46.6553C18.051 46.4795 19.9336 29.6045 19.9336 18.75C19.9336 13.2129 21.9744 8.49609 25.8187 5.08301C29.5049 1.80176 34.7256 0 40.5 0C46.2744 0 51.4951 1.80176 55.1812 5.08301C59.0256 8.49609 61.0664 13.2129 61.0664 18.75C61.0664 29.6045 62.949 46.4795 62.9648 46.6553C62.9807 46.7432 62.9648 46.8311 62.9332 46.9189C62.9016 47.0068 62.2371 49.2041 60.5127 51.4014C58.1713 54.3896 54.9914 55.957 51.3369 55.957Z" fill="#0D986A"/>
<path d="M41.291 65.332H39.709V71.1914H41.291V65.332Z" fill="#0D986A"/>
</svg>
