<svg width="54" height="39" viewBox="0 0 54 39" fill="none" xmlns="http://www.w3.org/2000/svg">
<path d="M27 0L0 13.9286L27 27.8571L42.6316 20.1094C42.6316 20.1094 42.6316 27.1317 42.6316 30.6428C42.6316 36.2143 48.3158 36.2143 48.3158 36.2143V33.4286C48.3158 33.4286 45.4737 33.2693 45.4737 30.6428C45.4737 26.4643 45.4737 18.5424 45.4737 18.5424L54 13.9286L27 0ZM14.2105 25.0714V30.6428C14.2105 32.0266 15.1345 33.8812 17.0526 34.8214L27 39L35.5263 34.8214C37.4445 33.8812 39.9234 32.0203 39.7895 30.6428V25.0714L27 31.1651L14.2105 25.0714Z" fill="#0D986A"/>
</svg>
