<svg width="27" height="26" viewBox="0 0 27 26" fill="none" xmlns="http://www.w3.org/2000/svg">
<path d="M26 15.1928C26.0002 14.4197 25.8751 13.654 25.6317 12.9396C25.3883 12.2253 25.0314 11.5761 24.5815 11.0293C24.1315 10.4825 23.5973 10.0487 23.0094 9.75278C22.4214 9.45684 21.7912 9.30452 21.1547 9.30452C20.8773 9.30465 20.6004 9.33416 20.3272 9.3927C20.3306 7.17091 19.6073 5.0385 18.3165 3.46457C17.0256 1.89063 15.273 1.00411 13.4441 1.00001C11.6152 0.995921 9.85983 1.8746 8.56422 3.44274C7.26861 5.01089 6.53885 7.14005 6.53548 9.36184C6.31355 9.32489 6.08986 9.30574 5.86585 9.30452C4.60193 9.29799 3.38595 9.89171 2.4773 10.959C1.56865 12.0263 1.03927 13.4827 1.0021 15.0175C0.964926 16.5523 1.4229 18.0439 2.27833 19.1743C3.13375 20.3046 4.3189 20.9842 5.58094 21.0679H21.4523C22.6836 20.9759 23.8395 20.3169 24.6845 19.2252C25.5296 18.1335 26 16.6914 26 15.1928Z" fill="white" stroke="#263238" stroke-linecap="round" stroke-linejoin="round"/>
<path d="M9.70566 23.3058V22.925L9.70566 13.537L17.2911 13.537V22.925V23.3076L13.5 25.4272L9.70566 23.3058Z" fill="#7DDAB9" stroke="black"/>
</svg>
