<svg width="63" height="180" viewBox="0 0 63 113" fill="none" xmlns="http://www.w3.org/2000/svg">
<path d="M-4.93819 19.0649C-6.52828 24.9802 -8.16381 20.2258 -7.90258 -4.55402C-7.78333 -16.1714 -7.23815 -39.9013 1.30863 -34.6773C9.51467 -29.6582 -1.30368 5.44154 -1.30368 5.44154L-4.93819 19.0649ZM6.80016 22.5816C6.80016 22.5816 24.6149 -5.32226 17.9365 -14.0801C10.9798 -23.1879 5.34066 -1.01163 2.71132 9.91434C-2.88809 33.2259 -2.36563 38.5182 0.439754 33.7125L6.80016 22.5816ZM10.5596 47.626C10.5596 47.626 26.8695 30.1701 22.6046 22.0183C18.1637 13.5421 11.7124 29.2653 8.65149 37.05C2.12641 53.6524 2.01283 57.818 4.60241 54.745L10.5596 47.626ZM14.9721 72.5936C14.9721 72.5936 31.282 55.1376 27.0171 46.9858C22.5819 38.5011 16.1306 54.2328 13.0697 62.0091C6.53893 78.6114 6.42535 82.777 9.02061 79.704L14.9721 72.5936ZM-13.5134 22.4024C-13.5134 22.4024 -36.3369 4.54526 -40.0453 16.6407C-43.9126 29.2397 -28.165 31.1517 -20.453 31.8602C-3.98411 33.3796 -0.758495 31.1432 -4.61448 28.4458L-13.5134 22.4024ZM-10.2991 42.035C-10.2991 42.035 -35.0251 31.3481 -37.0638 44.3141C-39.1878 57.8265 -23.5139 54.9925 -15.8474 53.3878C0.485191 49.9734 3.35872 46.8066 -0.769859 45.347L-10.2991 42.035ZM-4.62017 63.4602C-4.62017 63.4602 -25.7003 55.2913 -27.2223 66.3282C-28.8067 77.8091 -15.5862 74.8642 -9.14058 73.2423C4.61944 69.7853 6.99892 67.0111 3.48367 65.9185L-4.62017 63.4602ZM-1.32071 81.1551C-1.32071 81.1551 -21.7024 69.6658 -23.9966 80.3955C-26.3875 91.569 -13.0306 90.7495 -6.50555 90.1606C7.41916 88.9143 9.96332 86.5413 6.55597 84.8939L-1.32071 81.1551ZM-14.9501 -8.47203C-14.9501 -8.47203 -24.2522 -51.9369 -34.8264 -44.0412C-45.8207 -35.8211 -33.1227 -16.2226 -26.768 -6.84167C-13.2124 13.1836 -9.01564 14.5835 -10.7988 7.59258L-14.9501 -8.47203Z" fill="#92E3A9"/>
<path opacity="0.65" d="M-4.93819 19.0649C-6.52828 24.9802 -8.16381 20.2258 -7.90258 -4.55402C-7.78333 -16.1714 -7.23815 -39.9013 1.30863 -34.6773C9.51467 -29.6582 -1.30368 5.44154 -1.30368 5.44154L-4.93819 19.0649ZM6.80016 22.5816C6.80016 22.5816 24.6149 -5.32226 17.9365 -14.0801C10.9798 -23.1879 5.34066 -1.01163 2.71132 9.91434C-2.88809 33.2259 -2.36563 38.5182 0.439754 33.7125L6.80016 22.5816ZM10.5596 47.626C10.5596 47.626 26.8695 30.1701 22.6046 22.0183C18.1637 13.5421 11.7124 29.2653 8.65149 37.05C2.12641 53.6524 2.01283 57.818 4.60241 54.745L10.5596 47.626ZM14.9721 72.5936C14.9721 72.5936 31.282 55.1376 27.0171 46.9858C22.5819 38.5011 16.1306 54.2328 13.0697 62.0091C6.53893 78.6114 6.42535 82.777 9.02061 79.704L14.9721 72.5936ZM-13.5134 22.4024C-13.5134 22.4024 -36.3369 4.54526 -40.0453 16.6407C-43.9126 29.2397 -28.165 31.1517 -20.453 31.8602C-3.98411 33.3796 -0.758495 31.1432 -4.61448 28.4458L-13.5134 22.4024ZM-10.2991 42.035C-10.2991 42.035 -35.0251 31.3481 -37.0638 44.3141C-39.1878 57.8265 -23.5139 54.9925 -15.8474 53.3878C0.485191 49.9734 3.35872 46.8066 -0.769859 45.347L-10.2991 42.035ZM-4.62017 63.4602C-4.62017 63.4602 -25.7003 55.2913 -27.2223 66.3282C-28.8067 77.8091 -15.5862 74.8642 -9.14058 73.2423C4.61944 69.7853 6.99892 67.0111 3.48367 65.9185L-4.62017 63.4602ZM-1.32071 81.1551C-1.32071 81.1551 -21.7024 69.6658 -23.9966 80.3955C-26.3875 91.569 -13.0306 90.7495 -6.50555 90.1606C7.41916 88.9143 9.96332 86.5413 6.55597 84.8939L-1.32071 81.1551ZM-14.9501 -8.47203C-14.9501 -8.47203 -24.2522 -51.9369 -34.8264 -44.0412C-45.8207 -35.8211 -33.1227 -16.2226 -26.768 -6.84167C-13.2124 13.1836 -9.01564 14.5835 -10.7988 7.59258L-14.9501 -8.47203Z" fill="white"/>
<path d="M10.1905 111.714C10.1004 111.712 10.0141 111.659 9.94879 111.566C9.88352 111.472 9.84409 111.345 9.83838 111.21C8.98086 88.496 4.72734 61.0701 -1.80342 35.9659C-7.31197 14.831 -30.4706 -27.7718 -30.7091 -28.1986C-30.768 -28.3088 -30.7956 -28.4494 -30.786 -28.59C-30.7765 -28.7305 -30.7305 -28.8598 -30.658 -28.9498C-30.622 -28.9947 -30.5804 -29.0283 -30.5357 -29.0487C-30.491 -29.0692 -30.444 -29.0761 -30.3974 -29.0689C-30.3509 -29.0618 -30.3058 -29.0407 -30.2647 -29.0071C-30.2237 -28.9735 -30.1875 -28.9279 -30.1583 -28.873C-29.9255 -28.4462 -6.6873 14.2932 -1.13899 35.5733C5.44856 60.814 9.69072 88.3253 10.5596 111.176C10.5643 111.317 10.5317 111.456 10.469 111.561C10.4063 111.666 10.3185 111.731 10.2245 111.739L10.1905 111.714Z" fill="#CCCCCC"/>
<path d="M-1.47409 36.3074C-1.52923 36.3038 -1.58332 36.2835 -1.6331 36.2477C-1.6749 36.2152 -1.71202 36.1707 -1.74235 36.1166C-1.77269 36.0626 -1.79563 36.0001 -1.80987 35.9327C-1.82411 35.8653 -1.82937 35.7943 -1.82535 35.7239C-1.82133 35.6534 -1.8081 35.5849 -1.78642 35.5221L9.99165 1.17355C10.0099 1.10311 10.0379 1.03926 10.0736 0.986149C10.1094 0.933036 10.1523 0.891854 10.1994 0.865305C10.2465 0.838756 10.2967 0.827433 10.3469 0.832066C10.3971 0.836699 10.4461 0.857179 10.4907 0.892188C10.5353 0.927198 10.5744 0.975931 10.6056 1.03523C10.6368 1.09452 10.6594 1.16304 10.6717 1.2363C10.6841 1.30957 10.6861 1.38594 10.6776 1.46043C10.669 1.53492 10.65 1.60586 10.622 1.66862L-1.15607 36.0599C-1.19035 36.1389 -1.23765 36.2032 -1.29338 36.2466C-1.34911 36.29 -1.41137 36.3109 -1.47409 36.3074Z" fill="#CCCCCC"/>
<path d="M26.0664 62.7114C26.0023 62.7054 25.9406 62.6736 25.8875 62.6194C25.8344 62.5653 25.792 62.4906 25.7648 62.4034C25.7375 62.3161 25.7263 62.2194 25.7324 62.1234C25.7385 62.0274 25.7617 61.9357 25.7995 61.8578L40.2637 37.0011C40.2943 36.9484 40.3314 36.9053 40.3731 36.8742C40.4148 36.8432 40.4601 36.8247 40.5065 36.82C40.5529 36.8152 40.5995 36.8242 40.6436 36.8465C40.6876 36.8688 40.7284 36.904 40.7634 36.9499C40.7985 36.9959 40.8272 37.0518 40.8479 37.1144C40.8685 37.177 40.8808 37.2451 40.884 37.3149C40.8871 37.3847 40.8811 37.4546 40.8663 37.5209C40.8515 37.5872 40.8281 37.6484 40.7975 37.7011L26.3219 62.498C26.2915 62.5582 26.2531 62.6082 26.2091 62.645C26.1651 62.6817 26.1165 62.7043 26.0664 62.7114Z" fill="#CCCCCC"/>
<path d="M1.13251 47.6261L-17.4546 47.3871C-17.5485 47.3848 -17.638 47.3272 -17.7039 47.2266C-17.7698 47.126 -17.8067 46.9905 -17.8067 46.8493C-17.8038 46.7089 -17.765 46.5755 -17.6984 46.4769C-17.6317 46.3784 -17.5424 46.3222 -17.4489 46.3201L1.13819 46.5591C1.23209 46.5613 1.32164 46.619 1.38751 46.7196C1.45338 46.8202 1.4903 46.9557 1.49028 47.0968C1.49029 47.1671 1.481 47.2366 1.46295 47.3014C1.4449 47.3661 1.41845 47.4249 1.38515 47.4741C1.35186 47.5234 1.31238 47.5622 1.269 47.5883C1.22563 47.6144 1.17922 47.6272 1.13251 47.6261Z" fill="#CCCCCC"/>
<path d="M-9.54384 68.761C-9.63679 68.761 -9.72612 68.7067 -9.7929 68.6095C-9.85968 68.5123 -9.89867 68.3799 -9.90162 68.2403C-9.90326 68.0996 -9.86876 67.9635 -9.80529 67.8601C-9.74182 67.7568 -9.65427 67.6942 -9.56088 67.6854L4.69322 66.8318C4.78718 66.8272 4.87856 66.8783 4.94764 66.9742C5.01671 67.07 5.05792 67.2029 5.06235 67.344C5.06463 67.4142 5.05758 67.4844 5.04162 67.5505C5.02566 67.6165 5.00111 67.6772 4.96939 67.7288C4.93767 67.7805 4.89942 67.8221 4.85688 67.8513C4.81433 67.8805 4.76835 67.8966 4.72161 67.8988L-9.53249 68.7524L-9.54384 68.761Z" fill="#CCCCCC"/>
<path d="M7.63503 80.8563C7.55854 80.8571 7.48426 80.8179 7.42491 80.7454C7.34898 80.6603 7.29856 80.5335 7.28473 80.3927C7.27089 80.2519 7.29475 80.1086 7.35109 79.9942L14.9836 64.7064C15.0401 64.5922 15.1245 64.5164 15.2182 64.4956C15.3118 64.4748 15.4072 64.5107 15.4833 64.5954C15.5211 64.6374 15.5529 64.6904 15.5769 64.7512C15.6008 64.812 15.6164 64.8794 15.6228 64.9494C15.6291 65.0194 15.6261 65.0906 15.6138 65.1588C15.6016 65.227 15.5804 65.2909 15.5515 65.3466L7.91898 80.6429C7.88577 80.709 7.84286 80.7625 7.79361 80.7996C7.74436 80.8366 7.69009 80.856 7.63503 80.8563Z" fill="#CCCCCC"/>
<path d="M8.19714 86.5413L-8.4705 85.2951C-8.5175 85.2918 -8.56361 85.2746 -8.60618 85.2445C-8.64876 85.2144 -8.68695 85.172 -8.71861 85.1196C-8.75026 85.0673 -8.77474 85.0061 -8.79063 84.9395C-8.80652 84.873 -8.81351 84.8023 -8.81122 84.7317C-8.80536 84.5905 -8.76275 84.4585 -8.69259 84.3643C-8.62244 84.27 -8.53041 84.2211 -8.43643 84.2281L8.2369 85.4743C8.28316 85.4776 8.32853 85.4946 8.37042 85.5243C8.4123 85.5539 8.44988 85.5957 8.481 85.6473C8.51213 85.6988 8.53617 85.7591 8.55178 85.8246C8.56739 85.8901 8.57425 85.9597 8.57195 86.0292C8.56977 86.0998 8.55833 86.1691 8.5383 86.2331C8.51827 86.2971 8.49005 86.3545 8.45523 86.4021C8.42042 86.4497 8.37969 86.4865 8.33541 86.5104C8.29112 86.5343 8.24414 86.5448 8.19714 86.5413Z" fill="#CCCCCC"/>
<path d="M40.0104 52.9183C37.1312 54.5487 38.0114 50.9038 46.9103 38.9279C51.0786 33.3198 59.7447 22.0866 62.0957 31.4846C64.3673 40.5156 46.6207 49.1113 46.6207 49.1113L40.0104 52.9183ZM44.5535 64.015C44.5535 64.015 63.1804 64.5443 62.9987 54.8987C62.8056 44.8604 52.1803 51.2538 47.0239 54.5231C36.0238 61.5055 34.4053 64.5186 37.4776 64.382L44.5535 64.015ZM37.5174 79.337C37.5174 79.337 51.7147 83.8013 52.4984 76.3836C53.3218 68.7012 44.5819 71.262 40.3228 72.6192C31.2365 75.5641 29.7088 77.5189 32.0713 78.0822L37.5174 79.337ZM30.8503 95.1455C30.8503 95.1455 45.0476 99.6013 45.8313 92.1921C46.6547 84.5098 37.9149 87.0705 33.6557 88.4192C24.5694 91.3641 23.0418 93.3188 25.4042 93.8822L30.8503 95.1455ZM34.6154 47.6943C34.6154 47.6943 29.7145 20.6952 23.621 23.6486C17.2663 26.7472 24.3309 40.2766 27.8689 46.7895C35.4218 60.7031 37.8013 62.1542 36.8473 57.7923L34.6154 47.6943ZM29.2375 59.9604C29.2375 59.9604 20.8611 34.9331 15.273 39.6791C9.4578 44.5958 18.1693 55.6925 22.4853 61.0616C31.7249 72.44 34.2577 73.1826 32.7414 69.1622L29.2375 59.9604ZM24.4388 75.0178C24.4388 75.0178 16.971 54.1475 12.3143 58.3557C7.47018 62.7346 15.0118 71.8595 18.7542 76.2129C26.7444 85.5085 28.8911 86.0548 27.5509 82.7087L24.4388 75.0178ZM19.7991 86.3535C19.7991 86.3535 13.8476 64.4077 8.9183 67.8476C3.80727 71.4327 10.6504 81.7014 14.0634 86.6267C21.3495 97.1429 23.4507 98.0307 22.349 94.4883L19.7991 86.3535ZM44.7864 31.3907C44.7864 31.3907 55.5763 2.58197 47.6258 -1.97622C39.3119 -6.73073 38.6191 13.0555 38.426 22.778C38.0001 43.452 39.5618 47.5322 41.1632 42.6325L44.7864 31.3907Z" fill="#92E3A9"/>
<path opacity="0.65" d="M40.0104 52.9183C37.1312 54.5487 38.0114 50.9038 46.9103 38.9279C51.0786 33.3198 59.7447 22.0866 62.0957 31.4846C64.3673 40.5156 46.6207 49.1113 46.6207 49.1113L40.0104 52.9183ZM44.5535 64.015C44.5535 64.015 63.1804 64.5443 62.9987 54.8987C62.8056 44.8604 52.1803 51.2538 47.0239 54.5231C36.0238 61.5055 34.4053 64.5186 37.4776 64.382L44.5535 64.015ZM37.5174 79.337C37.5174 79.337 51.7147 83.8013 52.4984 76.3836C53.3218 68.7012 44.5819 71.262 40.3228 72.6192C31.2365 75.5641 29.7088 77.5189 32.0713 78.0822L37.5174 79.337ZM30.8503 95.1455C30.8503 95.1455 45.0476 99.6013 45.8313 92.1921C46.6547 84.5098 37.9149 87.0705 33.6557 88.4192C24.5694 91.3641 23.0418 93.3188 25.4042 93.8822L30.8503 95.1455ZM34.6154 47.6943C34.6154 47.6943 29.7145 20.6952 23.621 23.6486C17.2663 26.7472 24.3309 40.2766 27.8689 46.7895C35.4218 60.7031 37.8013 62.1542 36.8473 57.7923L34.6154 47.6943ZM29.2375 59.9604C29.2375 59.9604 20.8611 34.9331 15.273 39.6791C9.4578 44.5958 18.1693 55.6925 22.4853 61.0616C31.7249 72.44 34.2577 73.1826 32.7414 69.1622L29.2375 59.9604ZM24.4388 75.0178C24.4388 75.0178 16.971 54.1475 12.3143 58.3557C7.47018 62.7346 15.0118 71.8595 18.7542 76.2129C26.7444 85.5085 28.8911 86.0548 27.5509 82.7087L24.4388 75.0178ZM19.7991 86.3535C19.7991 86.3535 13.8476 64.4077 8.9183 67.8476C3.80727 71.4327 10.6504 81.7014 14.0634 86.6267C21.3495 97.1429 23.4507 98.0307 22.349 94.4883L19.7991 86.3535ZM44.7864 31.3907C44.7864 31.3907 55.5763 2.58197 47.6258 -1.97622C39.3119 -6.73073 38.6191 13.0555 38.426 22.778C38.0001 43.452 39.5618 47.5322 41.1632 42.6325L44.7864 31.3907Z" fill="#E5E5E5"/>
<path d="M14.1259 112.03C14.0809 112.031 14.0361 112.019 13.9942 111.994C13.9523 111.969 13.914 111.932 13.8817 111.884C13.8148 111.784 13.7772 111.647 13.7772 111.505C13.7772 111.362 13.8148 111.226 13.8817 111.125C21.6789 99.0037 29.9588 80.8137 35.49 63.6565C40.2547 48.8893 43.946 9.45335 43.98 9.02655C43.9941 8.88596 44.0441 8.75918 44.1194 8.67311C44.1947 8.58704 44.2893 8.54849 44.3832 8.56563C44.4764 8.58675 44.5602 8.66223 44.6166 8.77569C44.6729 8.88916 44.6972 9.03144 44.6842 9.17167C44.6501 9.57286 40.9418 49.171 36.1318 64.0918C30.5664 81.3344 22.2354 99.6354 14.3928 111.833C14.3611 111.894 14.3206 111.943 14.2744 111.977C14.2281 112.011 14.1774 112.029 14.1259 112.03Z" fill="#CCCCCC"/>
<path d="M38.4657 53.8317C38.4092 53.8318 38.3535 53.8117 38.3031 53.7731C38.2528 53.7345 38.2093 53.6785 38.1761 53.6098C38.1218 53.4936 38.0997 53.3502 38.1146 53.21C38.1294 53.0698 38.18 52.9438 38.2556 52.8586L54.3156 35.3771C54.3518 35.3214 54.3956 35.2783 54.444 35.2506C54.4924 35.2229 54.5442 35.2113 54.5959 35.2166C54.6475 35.2219 54.6978 35.2441 54.7432 35.2815C54.7886 35.3189 54.8281 35.3707 54.8589 35.4332C54.8897 35.4958 54.9111 35.5677 54.9216 35.6439C54.9322 35.7201 54.9316 35.7988 54.9198 35.8747C54.9081 35.9505 54.8856 36.0216 54.8538 36.0831C54.8221 36.1445 54.7818 36.1949 54.7358 36.2307L38.6758 53.7293C38.6147 53.7959 38.5412 53.8318 38.4657 53.8317Z" fill="#CCCCCC"/>
<path d="M35.8023 64.4247C35.718 64.4205 35.6374 64.3716 35.5747 64.2867C35.512 64.2019 35.4713 64.0865 35.4598 63.9609C35.4482 63.8353 35.4666 63.7076 35.5116 63.6003C35.5566 63.4931 35.6253 63.4132 35.7057 63.3748L53.6398 55.8973C53.6845 55.8788 53.7312 55.8737 53.7773 55.8824C53.8233 55.891 53.8678 55.9133 53.9081 55.9477C53.9485 55.9822 53.9839 56.0283 54.0124 56.0833C54.0409 56.1384 54.0619 56.2014 54.0742 56.2686C54.0865 56.3359 54.0899 56.4061 54.0841 56.4753C54.0784 56.5446 54.0636 56.6114 54.0407 56.672C54.0177 56.7326 53.9871 56.7859 53.9504 56.8287C53.9138 56.8716 53.8719 56.9031 53.8272 56.9216L35.8931 64.4076C35.8638 64.4217 35.833 64.4275 35.8023 64.4247Z" fill="#CCCCCC"/>
<path d="M36.7564 60.5494C36.6956 60.5509 36.6356 60.528 36.5827 60.483C36.5298 60.438 36.4858 60.3725 36.4554 60.2933L27.0284 36.9134C27.0037 36.8536 26.9872 36.787 26.9799 36.7175C26.9725 36.6481 26.9744 36.5771 26.9855 36.5087C26.9966 36.4404 27.0167 36.376 27.0445 36.3195C27.0724 36.2629 27.1074 36.2153 27.1477 36.1793C27.2284 36.1066 27.3249 36.0847 27.4164 36.1183C27.5078 36.1518 27.5867 36.2381 27.6361 36.3586L37.0688 59.747C37.1171 59.8683 37.1317 60.0134 37.1094 60.1508C37.0871 60.2882 37.0296 60.4069 36.9495 60.4811C36.8915 60.5336 36.824 60.5575 36.7564 60.5494Z" fill="#CCCCCC"/>
<path d="M31.174 77.7066C31.0876 77.6902 31.0081 77.6269 30.9506 77.5287C30.893 77.4305 30.8612 77.304 30.8612 77.1731C30.8612 77.0422 30.893 76.9158 30.9506 76.8176C31.0081 76.7193 31.0876 76.6561 31.174 76.6396L47.075 76.025C47.1691 76.0248 47.2597 76.0785 47.3283 76.1753C47.3969 76.2721 47.4383 76.4046 47.4441 76.5457C47.4457 76.6869 47.4102 76.8233 47.3454 76.9255C47.2806 77.0278 47.1916 77.0876 47.0977 77.092L31.1967 77.7066H31.174Z" fill="#CCCCCC"/>
<path d="M42.8196 63.5161C42.7706 63.516 42.7221 63.5008 42.6771 63.4715C42.6322 63.4421 42.5918 63.3992 42.5583 63.3453L33.5061 48.3648C33.4405 48.2629 33.4039 48.1267 33.4039 47.9849C33.4039 47.8432 33.4405 47.707 33.5061 47.6051C33.5411 47.558 33.582 47.5217 33.6264 47.4984C33.6708 47.475 33.7178 47.465 33.7647 47.469C33.8117 47.4729 33.8576 47.4908 33.9 47.5215C33.9423 47.5522 33.9802 47.5951 34.0115 47.6478L43.0637 62.6283C43.1015 62.7062 43.1247 62.798 43.1308 62.894C43.1369 62.99 43.1257 63.0867 43.0985 63.1739C43.0712 63.2612 43.0288 63.3358 42.9757 63.39C42.9226 63.4442 42.8609 63.4759 42.7968 63.4819L42.8196 63.5161Z" fill="#CCCCCC"/>
<path d="M27.6531 84.9024C27.6068 84.9028 27.5608 84.8894 27.518 84.8631C27.4751 84.8367 27.4361 84.7979 27.4032 84.7488L20.0945 73.7716C20.0325 73.6694 19.9991 73.5352 20.0012 73.3969C20.0033 73.2586 20.0408 73.1269 20.1059 73.0291C20.171 72.9313 20.2586 72.8749 20.3506 72.8717C20.4426 72.8685 20.5319 72.9187 20.5999 73.0119L27.903 83.9891C27.9518 84.0642 27.9849 84.1592 27.9982 84.2623C28.0115 84.3654 28.0044 84.4721 27.9779 84.5693C27.9513 84.6664 27.9064 84.7497 27.8487 84.8089C27.7909 84.8681 27.723 84.9006 27.6531 84.9024Z" fill="#CCCCCC"/>
<path d="M24.5127 93.6091C24.425 93.6016 24.3421 93.5457 24.28 93.4522C24.2179 93.3588 24.1808 93.2342 24.1759 93.1023C24.171 92.9704 24.1986 92.8403 24.2533 92.737C24.3081 92.6337 24.3863 92.5643 24.473 92.5421L33.6388 91.1251C33.7291 91.1208 33.8173 91.1681 33.8854 91.2575C33.9535 91.3469 33.9966 91.4718 34.0059 91.607C34.0153 91.7422 33.9902 91.8777 33.9358 91.9863C33.8814 92.0948 33.8016 92.1684 33.7126 92.1921L24.5468 93.6091H24.5127Z" fill="#CCCCCC"/>
<path d="M22.7749 96.8528C22.7203 96.8575 22.6656 96.843 22.6153 96.8104C22.5651 96.7778 22.5206 96.728 22.4853 96.665L14.7279 82.7259C14.6684 82.6167 14.6398 82.4768 14.6483 82.3363C14.6568 82.1958 14.7017 82.0659 14.7733 81.9747C14.809 81.9293 14.8503 81.8951 14.8948 81.8739C14.9393 81.8528 14.9862 81.8452 15.0327 81.8515C15.0792 81.8579 15.1244 81.8781 15.1657 81.911C15.207 81.9438 15.2435 81.9887 15.2731 82.043L23.0532 95.9736C23.1127 96.0827 23.1413 96.2226 23.1328 96.3631C23.1243 96.5037 23.0794 96.6336 23.0078 96.7248C22.9431 96.8085 22.8603 96.854 22.7749 96.8528Z" fill="#CCCCCC"/>
</svg>
