<svg width="260" height="181" viewBox="0 0 260 181" fill="none" xmlns="http://www.w3.org/2000/svg">
<path d="M1 178.106H259" stroke="#263238" stroke-width="2" stroke-linecap="round" stroke-linejoin="round"/>
<path d="M105.779 178.106L95.9943 82.409C95.9943 82.409 81.2092 69.6992 76.9551 69.4291C74.1214 69.1584 71.2739 69.1584 68.4402 69.4291C68.4402 69.4291 40.4359 81.3446 40.4359 83.7277C40.4359 85.9916 39.2262 169.718 39.0918 178.106H105.779Z" fill="#92E3A9"/>
<path opacity="0.3" d="M97.2712 178.106L83.4874 87.5168L87.466 178.106H97.2712Z" fill="black"/>
<path d="M105.779 178.106L95.9943 82.409C95.9943 82.409 81.2092 69.6992 76.9551 69.4291C74.1214 69.1584 71.2739 69.1584 68.4402 69.4291C68.4402 69.4291 40.4359 81.3446 40.4359 83.7277C40.4359 85.9916 39.2262 169.718 39.0918 178.106H105.779Z" stroke="#263238" stroke-linecap="round" stroke-linejoin="round"/>
<path d="M99.2507 87.5109C98.3569 85.3979 83.5718 78.2486 83.5718 78.2486C82.7086 76.5046 81.5675 74.975 80.2116 73.7446C77.7451 71.3615 69.0085 69.5106 65.8767 69.5106C62.745 69.5106 60.2718 71.0993 57.3619 71.6236C54.4519 72.1479 52.6575 75.5954 52.6575 75.5954C52.6575 75.5954 28.2419 85.1278 26.4476 85.66C24.6532 86.1922 23.5241 90.9584 24.1962 100.221C24.8682 109.078 29.3643 174.47 29.7675 180.3H60.7154C60.796 174.891 61.6025 118.586 61.6025 110.023C61.6025 101.015 60.7087 76.1277 60.7087 76.1277C62.9466 73.7446 65.1912 73.2123 71.0112 74.5389C76.8311 75.8655 76.3876 81.9503 76.3876 81.9503L87.9737 180.3H100.964L98.3435 157.947C98.3435 157.947 101.032 163.508 103.048 164.834C105.064 166.161 115.481 168.449 118.169 163.15C120.857 157.852 100.138 89.6318 99.2507 87.5109Z" fill="#263238" stroke="#263238" stroke-linecap="round" stroke-linejoin="round"/>
<path d="M58.6753 74.958L54.307 97.5656C54.307 97.5656 60.8595 99.1543 62.4993 100.465C64.1391 101.776 65.7789 107.892 65.7789 107.892" fill="#263238"/>
<path d="M58.6753 74.958L54.307 97.5656C54.307 97.5656 60.8595 99.1543 62.4993 100.465C64.1391 101.776 65.7789 107.892 65.7789 107.892" stroke="white" stroke-linecap="round" stroke-linejoin="round"/>
<path d="M89.8182 78.5088L95.0064 96.5964C95.0064 96.5964 91.1824 95.9451 89.2738 98.1852C87.3652 100.425 88.1783 112.071 88.1783 112.071" fill="#263238"/>
<path d="M89.8182 78.5088L95.0064 96.5964C95.0064 96.5964 91.1824 95.9451 89.2738 98.1852C87.3652 100.425 88.1783 112.071 88.1783 112.071" stroke="white" stroke-linecap="round" stroke-linejoin="round"/>
<path d="M65.752 43.946C65.752 43.946 67.2641 60.8024 66.7601 67.9517C66.2561 75.101 67.4321 84.6333 71.1284 90.3925C74.8247 96.1516 79.529 97.1446 81.2092 89.0023C82.8893 80.8601 83.2253 64.5757 83.2253 64.5757C83.2253 64.5757 76.6728 61.3982 71.8005 50.6743C66.9281 39.9504 65.752 43.946 65.752 43.946Z" fill="white"/>
<path d="M82.8086 74.3939C83.1312 69.0161 83.2253 64.5995 83.2253 64.5995C83.2253 64.5995 76.6728 61.422 71.8005 50.6981C66.9281 39.9742 65.752 43.946 65.752 43.946C65.752 43.946 67.2641 60.8024 66.7601 67.9517C66.3986 73.2029 66.889 78.4874 68.205 83.5212L69.8986 80.9474C69.8986 80.9474 70.8999 80.7727 75.49 79.5891C78.5075 78.8106 81.2629 76.1495 82.8086 74.3939Z" fill="#92E3A9"/>
<path opacity="0.5" d="M82.8086 74.3939C83.1312 69.0161 83.2253 64.5995 83.2253 64.5995C83.2253 64.5995 76.6728 61.422 71.8005 50.6981C66.9281 39.9742 65.752 43.946 65.752 43.946C65.752 43.946 67.2641 60.8024 66.7601 67.9517C66.3986 73.2029 66.889 78.4874 68.205 83.5212L69.8986 80.9474C69.8986 80.9474 70.8999 80.7727 75.49 79.5891C78.5075 78.8106 81.2629 76.1495 82.8086 74.3939Z" fill="white"/>
<path d="M65.752 43.946C65.752 43.946 67.2641 60.8024 66.7601 67.9517C66.2561 75.101 67.4321 84.6333 71.1284 90.3925C74.8247 96.1516 79.529 97.1445 81.2092 89.0023C82.8893 80.8601 83.2253 64.5757 83.2253 64.5757C83.2253 64.5757 76.6728 61.3982 71.8005 50.6743C66.9281 39.9504 65.752 43.946 65.752 43.946Z" stroke="#263238" stroke-linecap="round" stroke-linejoin="round"/>
<path d="M99.3882 39.2592C99.3882 39.2592 100.06 45.8127 98.5481 48.593C97.036 51.3733 95.6919 54.1535 95.5239 52.1676C95.3559 50.1817 96.532 39.6564 96.532 39.6564C96.532 39.6564 97.204 36.0818 99.3882 39.2592Z" fill="white" stroke="#263238" stroke-linecap="round" stroke-linejoin="round"/>
<path d="M62.0893 39.0606C62.0893 39.0606 58.897 37.8691 58.393 41.6423C57.889 45.4155 60.4092 51.5719 61.9213 53.3592C63.4334 55.1465 65.2815 53.1606 65.2815 53.1606C65.2815 53.1606 66.7936 61.3028 69.6499 65.6718C72.5061 70.0408 78.2185 74.4098 82.9228 72.6225C87.6272 70.8352 93.3396 60.1113 95.5238 54.1535C97.7079 48.1958 96.6999 42.8339 97.5399 39.855C98.38 36.8761 94.5157 25.5564 91.3235 23.1734C88.1312 20.7903 69.4818 29.3297 65.9536 32.5071C62.4253 35.6846 62.0893 39.0606 62.0893 39.0606Z" fill="white"/>
<path d="M86.3974 70.0011C80.4632 73.2819 76.7602 71.3913 72.9564 63.9958C69.1526 56.6002 68.0773 43.6521 68.0773 43.6521C68.0773 43.6521 68.205 36.7253 66.1015 32.4119L65.9872 32.5072C62.4589 35.6847 62.1229 39.0607 62.1229 39.0607C62.1229 39.0607 58.9307 37.8692 58.4266 41.6424C57.9226 45.4156 60.4428 51.5719 61.9549 53.3592C63.467 55.1466 65.3152 53.1607 65.3152 53.1607C65.3152 53.1607 66.8273 61.3029 69.6835 65.6719C72.5397 70.0409 78.2521 74.4099 82.9565 72.6226C84.2421 72.0339 85.4129 71.142 86.3974 70.0011Z" fill="#92E3A9"/>
<path opacity="0.5" d="M86.3974 70.0011C80.4632 73.2819 76.7602 71.3913 72.9564 63.9958C69.1526 56.6002 68.0773 43.6521 68.0773 43.6521C68.0773 43.6521 68.205 36.7253 66.1015 32.4119L65.9872 32.5072C62.4589 35.6847 62.1229 39.0607 62.1229 39.0607C62.1229 39.0607 58.9307 37.8692 58.4266 41.6424C57.9226 45.4156 60.4428 51.5719 61.9549 53.3592C63.467 55.1466 65.3152 53.1607 65.3152 53.1607C65.3152 53.1607 66.8273 61.3029 69.6835 65.6719C72.5397 70.0409 78.2521 74.4099 82.9565 72.6226C84.2421 72.0339 85.4129 71.142 86.3974 70.0011Z" fill="white"/>
<path d="M62.0893 39.0606C62.0893 39.0606 58.897 37.8691 58.393 41.6423C57.889 45.4155 60.4092 51.5719 61.9213 53.3592C63.4334 55.1465 65.2815 53.1606 65.2815 53.1606C65.2815 53.1606 66.7936 61.3028 69.6499 65.6718C72.5061 70.0408 78.2185 74.4098 82.9228 72.6225C87.6272 70.8352 93.3396 60.1113 95.5238 54.1535C97.7079 48.1958 96.6999 42.8339 97.5399 39.855C98.38 36.8761 94.5157 25.5564 91.3235 23.1734C88.1312 20.7903 69.4818 29.3297 65.9536 32.5071C62.4253 35.6846 62.0893 39.0606 62.0893 39.0606Z" stroke="#263238" stroke-linecap="round" stroke-linejoin="round"/>
<path d="M73.0101 43.4296C73.0101 43.4296 81.0747 44.0254 81.7468 42.8338C82.4188 41.6423 79.2266 41.4437 76.2024 41.6423C73.1781 41.8409 70.994 42.4367 73.0101 43.4296Z" fill="#263238" stroke="#263238" stroke-linecap="round" stroke-linejoin="round"/>
<path d="M94.8518 40.8479C94.8518 40.8479 88.8033 41.0465 87.9633 42.238C87.1232 43.4296 94.0117 42.8338 95.1878 42.4366C96.3639 42.0394 96.1959 40.4507 94.8518 40.8479Z" fill="#263238" stroke="#263238" stroke-linecap="round" stroke-linejoin="round"/>
<path d="M73.0102 47.2029C74.2279 48.4193 75.7851 49.0564 77.3785 48.9902C78.1579 49.0319 78.9359 48.8763 79.6602 48.5338C80.3846 48.1913 81.0388 47.6698 81.5788 47.0043" stroke="#263238" stroke-linecap="round" stroke-linejoin="round"/>
<path d="M87.9633 47.6001C88.9349 48.6228 90.1905 49.1881 91.4915 49.1888C92.1206 49.1924 92.7407 49.0132 93.2974 48.6669C93.854 48.3206 94.3301 47.8178 94.6838 47.2029" stroke="#263238" stroke-linecap="round" stroke-linejoin="round"/>
<path d="M87.2912 43.4297C86.7699 43.8711 86.3663 44.4796 86.1282 45.1834C85.89 45.8872 85.8272 46.6569 85.9471 47.4015C86.2832 50.1818 86.6192 56.1395 85.7791 56.7353C84.9391 57.3311 83.763 58.1254 82.7549 56.5367L81.7468 54.948" stroke="#263238" stroke-linecap="round" stroke-linejoin="round"/>
<path d="M84.603 62.2958C84.603 62.2958 84.435 63.0901 80.9067 62.693" stroke="#263238" stroke-linecap="round" stroke-linejoin="round"/>
<path d="M73.6822 1.3284C73.6822 1.3284 62.0894 2.32136 57.049 11.8537C52.0086 21.3861 58.0571 35.0888 59.4012 37.0748C60.8319 39.5181 61.8056 42.2938 62.2574 45.217C62.5934 47.6001 64.4415 51.9691 65.1136 51.9691C65.7856 51.9691 64.4415 49.1888 65.4496 47.6001C66.5652 46.1321 67.8036 44.8014 69.1459 43.6283C69.1459 43.6283 67.2977 47.9973 68.9779 47.0043C70.658 46.0113 77.3785 39.855 77.8825 39.855C78.3866 39.855 77.5465 43.6283 80.9068 40.0536C84.267 36.479 91.3235 30.3227 91.3235 30.3227C91.3235 30.3227 94.3478 38.2663 95.5238 40.0536C96.3062 41.426 96.8225 42.9857 97.036 44.6212C97.036 44.6212 99.2201 42.2381 100.06 36.8762C100.9 31.5142 98.8841 22.1804 98.8841 22.1804C98.8841 22.1804 100.396 18.6058 98.044 12.2509C95.6919 5.89599 86.9552 -1.45187 73.6822 1.3284Z" fill="#263238"/>
<path opacity="0.2" d="M98.8841 22.1797C98.8841 22.1797 100.396 18.6051 98.0441 12.2502C96.1153 7.03123 89.8787 1.1291 80.3691 0.747803C82.8288 1.6216 86.8074 3.44069 86.0883 5.14063C85.0937 7.484 73.4134 14.7366 76.189 14.5062C78.9646 14.2758 88.4606 6.56255 89.0587 11.4638C89.6569 16.365 72.029 27.6132 75.6177 28.3122C79.2065 29.0113 95.618 11.9325 92.6475 17.9855C90.1542 23.0853 81.4041 36.7484 80.6245 40.3309C80.732 40.2277 80.8261 40.1403 80.9337 40.0211C84.2939 36.4465 91.3504 30.2902 91.3504 30.2902C91.3504 30.2902 91.458 30.5841 91.6461 31.0845C94.4217 27.9071 96.6059 25.2619 96.6059 25.2619C97.0934 27.8792 97.4258 30.5335 97.6005 33.2055C97.7685 35.4535 96.9621 38.631 96.2967 41.5304C96.6577 42.5114 96.915 43.5413 97.0629 44.5967C97.0629 44.5967 99.247 42.2136 100.087 36.8516C100.927 31.4897 98.8841 22.1797 98.8841 22.1797Z" fill="white"/>
<path d="M73.6822 1.3284C73.6822 1.3284 62.0894 2.32136 57.049 11.8537C52.0086 21.3861 58.0571 35.0888 59.4012 37.0748C60.8319 39.5181 61.8056 42.2938 62.2574 45.217C62.5934 47.6001 64.4415 51.9691 65.1136 51.9691C65.7856 51.9691 64.4415 49.1888 65.4496 47.6001C66.5652 46.1321 67.8036 44.8014 69.1459 43.6283C69.1459 43.6283 67.2977 47.9973 68.9779 47.0043C70.658 46.0113 77.3785 39.855 77.8825 39.855C78.3866 39.855 77.5465 43.6283 80.9068 40.0536C84.267 36.479 91.3235 30.3227 91.3235 30.3227C91.3235 30.3227 94.3478 38.2663 95.5238 40.0536C96.3062 41.426 96.8225 42.9857 97.036 44.6212C97.036 44.6212 99.2201 42.2381 100.06 36.8762C100.9 31.5142 98.8841 22.1804 98.8841 22.1804C98.8841 22.1804 100.396 18.6058 98.044 12.2509C95.6919 5.89599 86.9552 -1.45187 73.6822 1.3284Z" stroke="#263238" stroke-linecap="round" stroke-linejoin="round"/>
<path d="M93.2522 22.8794C92.4391 24.1901 91.4646 25.6676 90.3624 27.1769C88.3007 30.0024 86.1135 32.6965 83.8099 35.2476" stroke="white" stroke-linecap="round" stroke-linejoin="round"/>
<path d="M96.1018 17.8114C96.1018 17.8114 95.6314 18.7805 94.7577 20.3136" stroke="white" stroke-linecap="round" stroke-linejoin="round"/>
<path d="M85.443 25.2388C85.443 25.2388 81.0747 32.3404 76.9752 36.2169" stroke="white" stroke-linecap="round" stroke-linejoin="round"/>
<path d="M66.0477 42.127C65.584 42.4526 65.127 42.7466 64.7036 42.9928" stroke="white" stroke-linecap="round" stroke-linejoin="round"/>
<path d="M76.7065 31.0457C74.3232 34.1475 71.7465 37.0339 68.998 39.6804" stroke="white" stroke-linecap="round" stroke-linejoin="round"/>
<path d="M98.0104 23.6183L93.0977 29.7587" stroke="white" stroke-linecap="round" stroke-linejoin="round"/>
<path d="M66.2359 124.351L73.2118 119.728C73.2118 119.728 81.2024 104.635 82.9027 102.443C84.603 100.25 102.459 98.2248 103.306 99.0271C104.153 99.8294 101.606 101.41 99.5696 102.443C97.5333 103.476 90.8934 103.65 90.2146 104.651C89.5359 105.652 88.5144 110.085 88.5144 110.085C88.5144 110.085 94.1999 107.9 95.7322 107.702C97.2645 107.503 97.6811 108.297 96.6663 109.91C95.6515 111.522 93.9781 112.094 92.4257 112.492C90.8732 112.889 87.6609 113.5 87.6609 113.5C87.6609 113.5 85.1138 118.926 83.4135 119.53C82.548 119.904 81.6013 119.923 80.7253 119.585C80.7253 119.585 78.3395 123.946 76.6392 124.55C75.8681 124.865 75.0666 125.066 74.2535 125.146L67.627 133.995L66.2359 124.351Z" fill="white" stroke="#263238" stroke-linecap="round" stroke-linejoin="round"/>
<path d="M81.0882 107.741C81.0882 107.741 81.4108 100.251 82.5533 99.194C83.6958 98.1375 89.0654 98.8763 90.0802 99.345C91.095 99.8136 94.3545 105.342 94.7846 106.24C95.2147 107.138 95.2953 108.154 94.2201 108.131C93.1448 108.107 90.3558 103.666 90.3558 103.666L85.1003 102.673L83.4941 106.01" fill="white"/>
<path d="M81.0882 107.741C81.0882 107.741 81.4108 100.251 82.5533 99.194C83.6958 98.1375 89.0654 98.8763 90.0802 99.345C91.095 99.8136 94.3545 105.342 94.7846 106.24C95.2147 107.138 95.2953 108.154 94.2201 108.131C93.1448 108.107 90.3558 103.666 90.3558 103.666L85.1003 102.673L83.4941 106.01" stroke="#263238" stroke-linecap="round" stroke-linejoin="round"/>
<path d="M78.6487 110.704C78.6487 110.704 80.8597 103.674 82.224 103.07C83.5883 102.467 88.5144 105.08 89.3612 105.883C90.208 106.685 91.915 113.119 92.083 114.128C92.251 115.137 92.083 116.138 91.0615 115.717C90.0399 115.296 88.5144 110.093 88.5144 110.093L83.7496 107.273L81.3705 109.886" fill="white"/>
<path d="M78.6487 110.704C78.6487 110.704 80.8597 103.674 82.224 103.07C83.5883 102.467 88.5144 105.08 89.3612 105.883C90.208 106.685 91.915 113.119 92.083 114.128C92.251 115.137 92.083 116.138 91.0615 115.717C90.0399 115.296 88.5144 110.093 88.5144 110.093L83.7496 107.273L81.3705 109.886" stroke="#263238" stroke-linecap="round" stroke-linejoin="round"/>
<path d="M76.9417 113.119C76.9417 113.119 80.853 106.288 81.7065 105.883C82.56 105.477 87.9969 109.505 88.5076 110.109C89.0184 110.712 87.9969 116.742 87.3181 117.337C86.6393 117.933 86.2966 117.941 86.2966 116.138C86.2933 114.996 86.2372 113.856 86.1286 112.722L81.1957 111.515C81.1957 111.515 81.3637 115.534 80.685 117.337" fill="white"/>
<path d="M76.9417 113.119C76.9417 113.119 80.853 106.288 81.7065 105.883C82.56 105.477 87.9969 109.505 88.5076 110.109C89.0184 110.712 87.9969 116.742 87.3181 117.337C86.6393 117.933 86.2966 117.941 86.2966 116.138C86.2933 114.996 86.2372 113.856 86.1286 112.722L81.1957 111.515C81.1957 111.515 81.3637 115.534 80.685 117.337" stroke="#263238" stroke-linecap="round" stroke-linejoin="round"/>
<path d="M36.0877 83.0842C36.0877 83.0842 23.6346 84.7921 23.4129 87.6995C23.1911 90.6069 25.2072 120.801 25.2072 136.156C25.2072 151.511 26.1011 168.2 29.2395 169.257C32.378 170.313 70.6781 137.744 70.6781 137.744L67.0894 123.557L45.3553 132.184L45.1268 103.325" fill="#263238"/>
<path d="M36.0877 83.0842C36.0877 83.0842 23.6346 84.7921 23.4129 87.6995C23.1911 90.6069 25.2072 120.801 25.2072 136.156C25.2072 151.511 26.1011 168.2 29.2395 169.257C32.378 170.313 70.6781 137.744 70.6781 137.744L67.0894 123.557L45.3553 132.184L45.1268 103.325" stroke="#263238" stroke-linecap="round" stroke-linejoin="round"/>
<path d="M45.5636 108.218L45.3553 132.184C45.3553 132.184 33.4802 138.277 30.792 141.716" fill="#263238"/>
<path d="M45.5636 108.218L45.3553 132.184C45.3553 132.184 33.4802 138.277 30.792 141.716" stroke="white" stroke-linecap="round" stroke-linejoin="round"/>
<path d="M45.3688 132.184L66.2359 124.375" stroke="white" stroke-linecap="round" stroke-linejoin="round"/>
<path d="M117.644 93.3065L106.061 88.4664C105.102 88.0658 104.05 88.6597 103.711 89.7931L94.0412 122.125C93.7022 123.258 94.2047 124.502 95.1636 124.902L106.746 129.742C107.705 130.143 108.757 129.549 109.096 128.416L118.766 96.084C119.105 94.9507 118.603 93.7071 117.644 93.3065Z" fill="white" stroke="#263238" stroke-linecap="round" stroke-linejoin="round"/>
<path d="M107.796 92.3386C107.796 92.5287 107.748 92.7146 107.658 92.8727C107.569 93.0307 107.442 93.1539 107.294 93.2267C107.145 93.2994 106.981 93.3184 106.824 93.2813C106.666 93.2443 106.521 93.1527 106.407 93.0183C106.294 92.8839 106.216 92.7126 106.185 92.5262C106.153 92.3397 106.169 92.1464 106.231 91.9708C106.293 91.7952 106.397 91.645 106.531 91.5394C106.664 91.4338 106.821 91.3774 106.982 91.3774C107.198 91.3774 107.405 91.4787 107.557 91.659C107.71 91.8392 107.796 92.0837 107.796 92.3386Z" fill="white" stroke="#263238" stroke-linecap="round" stroke-linejoin="round"/>
<path d="M94.9996 147.865L100.275 138.618L104.355 144.846L94.9996 147.865Z" fill="white" stroke="#263238" stroke-linecap="round" stroke-linejoin="round"/>
<path d="M103.4 133.089C103.4 133.089 115.551 120.38 115.894 118.338C116.236 116.297 113.394 111.229 110.618 101.855C109.738 98.8841 108.602 101.251 108.75 102.864C108.898 104.476 109.644 107.169 110.094 109.695C110.349 111.086 111.438 115.256 111.438 115.256C111.438 115.256 106.734 109.266 105.188 107.257C103.642 105.247 101.969 103.436 101.794 105.04C101.619 106.645 103.138 109.259 104.005 110.267C104.872 111.276 107.997 116.733 107.997 116.733L109.281 120.92C109.281 120.92 105.82 117.067 104.455 115.256C103.091 113.445 100.269 110.069 99.415 110.49C98.5615 110.911 98.743 112.5 99.415 113.508C100.087 114.517 102.217 117.035 102.896 118.235C103.575 119.434 106.929 123.756 106.929 123.756C106.929 123.756 104.912 122.961 102.674 122.167C100.437 121.373 96.5521 119.784 96.0413 119.148C95.5306 118.513 94.6972 119.148 95.1945 120.554C95.6919 121.96 96.7201 121.762 98.4204 122.771C99.5955 123.479 100.731 124.275 101.821 125.154C101.821 125.154 97.7887 129.126 96.9486 132.375C96.1085 135.623 98.9983 139.365 99.5091 142.384C100.02 145.402 104.039 153.084 104.039 153.084L108.743 141.915L103.4 133.089Z" fill="white" stroke="#263238" stroke-linecap="round" stroke-linejoin="round"/>
<path d="M101.774 125.178L105.517 127.998" stroke="#263238" stroke-linecap="round" stroke-linejoin="round"/>
<path d="M111.418 115.296C111.418 115.296 112.668 117.393 112.668 118.005C112.623 118.49 112.48 118.956 112.251 119.363" stroke="#263238" stroke-linecap="round" stroke-linejoin="round"/>
<path d="M109.261 120.959C109.401 121.35 109.47 121.771 109.465 122.195C109.459 122.619 109.378 123.037 109.227 123.422" stroke="#263238" stroke-linecap="round" stroke-linejoin="round"/>
<path d="M107.412 139.222L94.9996 147.865C94.9996 147.865 103.676 160.924 108.098 164.348C112.52 167.771 118.636 167.962 122.211 163.744C125.786 159.526 125.087 147.531 119.832 145.053C116.431 143.416 107.412 139.222 107.412 139.222Z" fill="#263238" stroke="#263238" stroke-linecap="round" stroke-linejoin="round"/>
<path d="M107.412 139.222L119.832 145.053" stroke="white" stroke-linecap="round" stroke-linejoin="round"/>
</svg>
