<svg width="62" height="129" viewBox="0 0 62 129" fill="none" xmlns="http://www.w3.org/2000/svg">
<path d="M61.9787 35.8733C63.4294 41.7887 64.9214 37.0342 64.6883 12.2545C64.5743 0.637062 64.077 -23.0928 56.2799 -17.8688C48.7937 -12.8497 58.663 22.25 58.663 22.25L61.9787 35.8733ZM51.2701 39.3901C51.2701 39.3901 35.018 11.4862 41.1106 2.72836C47.457 -6.37947 52.6067 15.7968 55.0002 26.7228C60.1085 50.0344 59.6319 55.3267 57.0726 50.521L51.2701 39.3901ZM47.8404 64.4345C47.8404 64.4345 32.9612 46.9786 36.852 38.8268C40.9034 30.3506 46.7887 46.0738 49.5812 53.8585C55.5339 70.4609 55.6375 74.6264 53.275 71.5535L47.8404 64.4345ZM43.815 89.4021C43.815 89.4021 28.9358 71.9461 32.8265 63.7943C36.8727 55.3096 42.7581 71.0413 45.5505 78.8176C51.5084 95.4199 51.612 99.5855 49.2444 96.5125L43.815 89.4021ZM69.8017 39.2109C69.8017 39.2109 90.6232 21.3537 94.0063 33.4491C97.5344 46.0482 83.1681 47.9602 76.1326 48.6687C61.1084 50.1881 58.1657 47.9517 61.6834 45.2543L69.8017 39.2109ZM66.8694 58.8435C66.8694 58.8435 89.4317 48.1565 91.2864 61.1226C93.224 74.6179 78.9147 71.784 71.931 70.1792C57.0311 66.7648 54.4096 63.598 58.1812 62.1384L66.8694 58.8435ZM61.6886 80.2687C61.6886 80.2687 80.9196 72.0998 82.3081 83.1367C83.7535 94.6175 71.6927 91.6727 65.8125 90.0508C53.2595 86.5938 51.0888 83.8196 54.2957 82.727L61.6886 80.2687ZM58.6786 97.9636C58.6786 97.9636 77.2672 86.4914 79.381 97.2551C81.5621 108.429 69.3769 107.609 63.4242 107.02C50.7209 105.774 48.3999 103.401 51.5084 101.754L58.6786 97.9636ZM71.1124 8.33644C71.1124 8.33644 79.6037 -35.1285 89.2451 -27.2327C99.2751 -19.0126 87.6909 0.585827 81.8936 9.9668C69.5271 29.9921 65.6985 31.392 67.3305 24.4011L71.1124 8.33644Z" fill="#92E3A9"/>
<path opacity="0.65" d="M61.9787 35.8733C63.4294 41.7887 64.9214 37.0342 64.6883 12.2545C64.5743 0.637062 64.077 -23.0928 56.2799 -17.8688C48.7937 -12.8497 58.663 22.25 58.663 22.25L61.9787 35.8733ZM51.2701 39.3901C51.2701 39.3901 35.018 11.4862 41.1106 2.72836C47.457 -6.37947 52.6067 15.7968 55.0002 26.7228C60.1085 50.0344 59.6319 55.3267 57.0726 50.521L51.2701 39.3901ZM47.8404 64.4345C47.8404 64.4345 32.9612 46.9786 36.852 38.8268C40.9034 30.3506 46.7887 46.0738 49.5812 53.8585C55.5339 70.4609 55.6375 74.6264 53.275 71.5535L47.8404 64.4345ZM43.815 89.4021C43.815 89.4021 28.9358 71.9461 32.8265 63.7943C36.8727 55.3096 42.7581 71.0413 45.5505 78.8176C51.5084 95.4199 51.612 99.5855 49.2444 96.5125L43.815 89.4021ZM69.8017 39.2109C69.8017 39.2109 90.6232 21.3537 94.0063 33.4491C97.5344 46.0482 83.1681 47.9602 76.1326 48.6687C61.1084 50.1881 58.1657 47.9517 61.6834 45.2543L69.8017 39.2109ZM66.8694 58.8435C66.8694 58.8435 89.4317 48.1565 91.2864 61.1226C93.224 74.6179 78.9147 71.784 71.931 70.1792C57.0311 66.7648 54.4096 63.598 58.1812 62.1384L66.8694 58.8435ZM61.6886 80.2687C61.6886 80.2687 80.9196 72.0998 82.3081 83.1367C83.7535 94.6175 71.6927 91.6727 65.8125 90.0508C53.2595 86.5938 51.0888 83.8196 54.2957 82.727L61.6886 80.2687ZM58.6786 97.9636C58.6786 97.9636 77.2672 86.4914 79.381 97.2551C81.5621 108.429 69.3769 107.609 63.4242 107.02C50.7209 105.774 48.3999 103.401 51.5084 101.754L58.6786 97.9636ZM71.1124 8.33644C71.1124 8.33644 79.6037 -35.1285 89.2451 -27.2327C99.2751 -19.0126 87.6909 0.585827 81.8936 9.9668C69.5271 29.9921 65.6985 31.392 67.3305 24.4011L71.1124 8.33644Z" fill="white"/>
<path d="M48.1772 128.522C48.0915 128.513 48.0114 128.449 47.9542 128.344C47.8969 128.238 47.8672 128.1 47.8715 127.959C48.6538 105.134 52.5342 77.5968 58.5387 52.3817C63.5951 31.1017 84.7949 -11.6377 85.0073 -12.0645C85.0339 -12.1194 85.0669 -12.165 85.1044 -12.1986C85.1419 -12.2323 85.183 -12.2533 85.2255 -12.2604C85.2679 -12.2676 85.3108 -12.2607 85.3516 -12.2403C85.3924 -12.2198 85.4304 -12.1862 85.4632 -12.1413C85.5293 -12.0513 85.5712 -11.9221 85.58 -11.7815C85.5887 -11.6409 85.5635 -11.5003 85.5098 -11.3901C85.2974 -10.9634 64.165 31.648 59.1397 52.7744C53.1714 77.8785 49.2962 105.304 48.5191 128.019C48.5137 128.16 48.4749 128.292 48.4109 128.386C48.3469 128.48 48.2629 128.529 48.1772 128.522Z" fill="#CCCCCC"/>
<path d="M63.0616 39.117C62.9826 39.116 62.9066 39.0678 62.8475 38.9815C62.7884 38.8952 62.7504 38.7765 62.7404 38.6475L59.7769 -2.22249C59.7666 -2.36285 59.7906 -2.50419 59.8435 -2.61545C59.8965 -2.72671 59.9741 -2.79874 60.0593 -2.81572C60.1445 -2.8327 60.2303 -2.79324 60.2978 -2.706C60.3653 -2.61875 60.409 -2.49089 60.4194 -2.35053L63.3828 38.5195C63.393 38.6609 63.3688 38.8033 63.3153 38.9153C63.2619 39.0274 63.1837 39.0999 63.0978 39.117H63.0616Z" fill="#CCCCCC"/>
<path d="M58.8185 53.1159C58.7587 53.115 58.7002 53.0876 58.6492 53.0365C58.5981 52.9854 58.5564 52.9126 58.5284 52.8256L47.8042 18.4771C47.7844 18.4143 47.7723 18.3457 47.7687 18.2753C47.765 18.2048 47.7698 18.1339 47.7828 18.0665C47.7958 17.9991 47.8167 17.9366 47.8444 17.8825C47.872 17.8285 47.9059 17.784 47.944 17.7515C48.0214 17.6902 48.1101 17.6799 48.192 17.7227C48.2739 17.7655 48.3427 17.8583 48.3844 17.982L59.1034 52.3305C59.1232 52.3933 59.1353 52.4619 59.1389 52.5323C59.1426 52.6028 59.1378 52.6737 59.1248 52.7411C59.1118 52.8085 59.0909 52.871 59.0632 52.9251C59.0356 52.9791 59.0017 53.0236 58.9635 53.0561C58.9181 53.0919 58.8688 53.1123 58.8185 53.1159Z" fill="#CCCCCC"/>
<path d="M60.3831 48.0198C60.3086 48.0202 60.2363 47.9778 60.1786 47.8999C60.1209 47.822 60.0815 47.7136 60.0671 47.5931C60.0503 47.4539 60.0675 47.3094 60.115 47.1911C60.1626 47.0727 60.2366 46.9902 60.3209 46.9614L82.7796 39.4242C82.823 39.403 82.8686 39.3969 82.9135 39.4063C82.9584 39.4157 83.0016 39.4403 83.0405 39.4788C83.0793 39.5172 83.1128 39.5685 83.1389 39.6294C83.1651 39.6903 83.1832 39.7595 83.1922 39.8326C83.2012 39.9057 83.2009 39.9811 83.1913 40.054C83.1817 40.1269 83.163 40.1957 83.1363 40.256C83.1097 40.3163 83.0758 40.3669 83.0366 40.4044C82.9975 40.442 82.9541 40.4657 82.9091 40.4741L60.4505 48.0113L60.3831 48.0198Z" fill="#CCCCCC"/>
<path d="M54.5962 72.6033C54.5503 72.6029 54.5049 72.5867 54.463 72.5558C54.4211 72.525 54.3835 72.4801 54.3527 72.4241L41.1469 47.6272C41.119 47.5745 41.0977 47.5133 41.0841 47.447C41.0706 47.3808 41.0651 47.3108 41.068 47.241C41.0709 47.1713 41.0821 47.1031 41.101 47.0405C41.1198 46.9779 41.146 46.922 41.178 46.8761C41.2099 46.8301 41.2471 46.795 41.2873 46.7727C41.3275 46.7504 41.37 46.7414 41.4124 46.7461C41.4547 46.7509 41.4961 46.7693 41.5341 46.8004C41.5721 46.8315 41.606 46.8746 41.6339 46.9273L54.8397 71.6815C54.8742 71.7594 54.8953 71.8511 54.9009 71.9471C54.9064 72.0431 54.8962 72.1398 54.8714 72.2271C54.8465 72.3143 54.8078 72.389 54.7594 72.4432C54.711 72.4973 54.6546 72.5291 54.5962 72.5351V72.6033Z" fill="#CCCCCC"/>
<path d="M56.4457 64.4345C56.4031 64.4356 56.3608 64.4228 56.3212 64.3967C56.2816 64.3706 56.2456 64.3318 56.2152 64.2825C56.1849 64.2333 56.1607 64.1745 56.1443 64.1098C56.1278 64.045 56.1193 63.9755 56.1193 63.9053C56.1193 63.7641 56.153 63.6286 56.2131 63.528C56.2732 63.4274 56.3549 63.3697 56.4405 63.3675L73.3972 63.1285C73.4398 63.1274 73.4822 63.1402 73.5217 63.1663C73.5613 63.1924 73.5973 63.2312 73.6277 63.2805C73.6581 63.3297 73.6822 63.3884 73.6987 63.4532C73.7151 63.518 73.7236 63.5875 73.7236 63.6577C73.7236 63.7989 73.6899 63.9344 73.6298 64.035C73.5697 64.1356 73.4881 64.1932 73.4024 64.1955L56.4457 64.4345Z" fill="#CCCCCC"/>
<path d="M66.1804 85.5694L53.1766 84.7158C53.0978 84.6949 53.0264 84.6271 52.9759 84.5253C52.9253 84.4236 52.8992 84.2948 52.9024 84.1634C52.9056 84.032 52.9379 83.907 52.9932 83.8122C53.0485 83.7174 53.123 83.6593 53.2025 83.6488L66.2063 84.5024C66.2915 84.5112 66.3713 84.5737 66.4292 84.6771C66.4871 84.7804 66.5186 84.9166 66.5171 85.0572C66.5131 85.1984 66.4755 85.3312 66.4125 85.4271C66.3494 85.5229 66.2661 85.574 66.1804 85.5694Z" fill="#CCCCCC"/>
<path d="M50.5085 97.6648C50.4583 97.6645 50.4088 97.645 50.3639 97.608C50.3189 97.571 50.2798 97.5174 50.2495 97.4514L43.2865 82.155C43.2601 82.0993 43.2408 82.0355 43.2296 81.9673C43.2184 81.8991 43.2157 81.8279 43.2215 81.7578C43.2272 81.6878 43.2415 81.6204 43.2633 81.5596C43.2852 81.4988 43.3142 81.4459 43.3487 81.4039C43.4181 81.3192 43.5051 81.2833 43.5906 81.3041C43.676 81.3249 43.753 81.4007 43.8046 81.5148L50.7676 96.8027C50.819 96.9171 50.8407 97.0604 50.8281 97.2012C50.8155 97.342 50.7695 97.4688 50.7002 97.5538C50.6461 97.6264 50.5783 97.6656 50.5085 97.6648Z" fill="#CCCCCC"/>
<path d="M50.0008 103.35C49.9169 103.35 49.8362 103.297 49.7754 103.201C49.7146 103.106 49.6785 102.976 49.6745 102.838C49.6724 102.768 49.6786 102.699 49.6929 102.633C49.7071 102.568 49.729 102.507 49.7574 102.456C49.7858 102.404 49.8201 102.362 49.8583 102.333C49.8965 102.303 49.9379 102.286 49.9801 102.283L65.1909 101.037C65.2337 101.031 65.2767 101.039 65.3174 101.062C65.3581 101.084 65.3955 101.12 65.4275 101.167C65.4595 101.214 65.4854 101.272 65.5035 101.336C65.5216 101.4 65.5316 101.469 65.5328 101.54C65.5349 101.611 65.5285 101.681 65.514 101.748C65.4995 101.815 65.4772 101.876 65.4483 101.928C65.4194 101.98 65.3846 102.023 65.3457 102.053C65.3069 102.083 65.2648 102.1 65.222 102.104L50.0164 103.35H50.0008Z" fill="#CCCCCC"/>
<path d="M20.9781 69.7268C23.5996 71.3571 22.7966 67.7123 14.6783 55.7364C10.8756 50.1283 2.96979 38.895 0.824947 48.2931C-1.24736 57.3241 14.9425 65.9198 14.9425 65.9198L20.9781 69.7268ZM16.8335 80.8235C16.8335 80.8235 -0.16458 81.3527 0.00120485 71.7071C0.182532 61.6689 9.84467 68.0623 14.5747 71.3315C24.6099 78.3139 26.0864 81.3271 23.2888 81.1905L16.8335 80.8235ZM23.2473 96.1455C23.2473 96.1455 10.2954 100.61 9.58045 93.192C8.83442 85.5097 16.8024 88.0705 20.688 89.4277C28.9773 92.3726 30.3709 94.3273 28.2157 94.8907L23.2473 96.1455ZM29.3295 111.954C29.3295 111.954 16.3776 116.41 15.6627 109.001C14.9115 101.318 22.8847 103.879 26.7702 105.228C35.0595 108.173 36.4531 110.127 34.2979 110.691L29.3295 111.954ZM25.8947 64.5028C25.8947 64.5028 30.3657 37.4781 35.935 40.4571C41.7323 43.5556 35.2874 57.0851 32.0598 63.598C25.1694 77.5115 22.9986 78.9626 23.869 74.6008L25.8947 64.5028ZM30.8009 76.7689C30.8009 76.7689 38.4425 51.7416 43.5404 56.4876C48.8507 61.4299 40.8982 72.5692 36.9505 77.9042C28.5213 89.2826 26.2107 90.0252 27.594 86.0048L30.8009 76.7689ZM35.1786 91.8263C35.1786 91.8263 41.9913 70.9559 46.2396 75.1642C50.6588 79.5431 43.7787 88.668 40.3646 93.0213C33.0752 102.317 31.1169 102.863 32.3396 99.5172L35.1786 91.8263ZM39.4113 103.162C39.4113 103.162 44.8408 81.2161 49.3377 84.6561C54.0004 88.2412 47.7575 98.5099 44.6439 103.435C37.997 113.951 36.0801 114.839 37.0852 111.297L39.4113 103.162ZM16.6159 48.1992C16.6159 48.1992 6.77247 19.3904 14.0255 14.8323C21.6102 10.0777 22.2423 29.864 22.4236 39.5864C22.807 60.2604 21.3874 64.3406 19.9213 59.441L16.6159 48.1992Z" fill="#92E3A9"/>
<path opacity="0.65" d="M20.9781 69.7268C23.5996 71.3571 22.7966 67.7123 14.6783 55.7364C10.8756 50.1283 2.96979 38.895 0.824947 48.2931C-1.24736 57.3241 14.9425 65.9198 14.9425 65.9198L20.9781 69.7268ZM16.8335 80.8235C16.8335 80.8235 -0.16458 81.3527 0.00120485 71.7071C0.182532 61.6689 9.84467 68.0623 14.5747 71.3315C24.6099 78.3139 26.0864 81.3271 23.2888 81.1905L16.8335 80.8235ZM23.2473 96.1455C23.2473 96.1455 10.2954 100.61 9.58045 93.192C8.83442 85.5097 16.8024 88.0705 20.688 89.4277C28.9773 92.3726 30.3709 94.3273 28.2157 94.8907L23.2473 96.1455ZM29.3295 111.954C29.3295 111.954 16.3776 116.41 15.6627 109.001C14.9115 101.318 22.8847 103.879 26.7702 105.228C35.0595 108.173 36.4531 110.127 34.2979 110.691L29.3295 111.954ZM25.8947 64.5028C25.8947 64.5028 30.3657 37.4781 35.935 40.4571C41.7323 43.5556 35.2874 57.0851 32.0598 63.598C25.1694 77.5115 22.9986 78.9626 23.869 74.6008L25.8947 64.5028ZM30.8009 76.7689C30.8009 76.7689 38.4425 51.7416 43.5404 56.4876C48.8507 61.4299 40.8982 72.5692 36.9505 77.9042C28.5213 89.2826 26.2107 90.0252 27.594 86.0048L30.8009 76.7689ZM35.1786 91.8263C35.1786 91.8263 41.9913 70.9559 46.2396 75.1642C50.6588 79.5431 43.7787 88.668 40.3646 93.0213C33.0752 102.317 31.1169 102.863 32.3396 99.5172L35.1786 91.8263ZM39.4113 103.162C39.4113 103.162 44.8408 81.2161 49.3377 84.6561C54.0004 88.2412 47.7575 98.5099 44.6439 103.435C37.997 113.951 36.0801 114.839 37.0852 111.297L39.4113 103.162ZM16.6159 48.1992C16.6159 48.1992 6.77247 19.3904 14.0255 14.8323C21.6102 10.0777 22.2423 29.864 22.4236 39.5864C22.807 60.2604 21.3874 64.3406 19.9213 59.441L16.6159 48.1992Z" fill="#E5E5E5"/>
<path d="M44.5869 128.838C44.5434 128.839 44.5002 128.825 44.4601 128.797C44.42 128.769 44.3838 128.728 44.3538 128.676C37.1991 116.478 29.599 98.1855 24.5218 80.9344C20.1337 66.0136 16.7506 26.4154 16.7196 26.0142C16.7077 25.874 16.7299 25.7317 16.7813 25.6182C16.8327 25.5048 16.9092 25.4293 16.9941 25.4082C17.0798 25.391 17.1661 25.4296 17.2348 25.5157C17.3035 25.6017 17.3491 25.7285 17.362 25.8691C17.3931 26.2618 20.7606 65.7063 25.1072 80.499C30.1533 97.6562 37.7069 115.846 44.8201 127.967C44.8811 128.068 44.9154 128.205 44.9154 128.347C44.9154 128.49 44.8811 128.626 44.8201 128.727C44.7878 128.771 44.7505 128.803 44.7105 128.822C44.6704 128.841 44.6283 128.847 44.5869 128.838Z" fill="#CCCCCC"/>
<path d="M22.3822 70.6401C22.3133 70.6401 22.2462 70.6043 22.1905 70.5377L7.53926 53.0476C7.49731 53.0118 7.46056 52.9614 7.43158 52.9C7.40259 52.8385 7.38204 52.7674 7.37136 52.6916C7.36068 52.6157 7.36012 52.537 7.36972 52.4608C7.37931 52.3845 7.39884 52.3127 7.42694 52.2501C7.45504 52.1875 7.49105 52.1358 7.53249 52.0984C7.57392 52.061 7.61979 52.0388 7.66692 52.0335C7.71406 52.0282 7.76133 52.0397 7.80548 52.0674C7.84963 52.0951 7.8896 52.1383 7.92264 52.194L22.5738 69.6755C22.6428 69.7607 22.6889 69.8867 22.7025 70.0269C22.716 70.1671 22.6959 70.3105 22.6464 70.4267C22.6153 70.4934 22.5753 70.5473 22.5294 70.5843C22.4836 70.6214 22.4332 70.6404 22.3822 70.6401Z" fill="#CCCCCC"/>
<path d="M24.8171 81.2332C24.788 81.242 24.7581 81.242 24.729 81.2332L8.363 73.7301C8.32218 73.7116 8.28397 73.68 8.25055 73.6372C8.21714 73.5944 8.18916 73.5411 8.16824 73.4805C8.14731 73.4198 8.13384 73.353 8.12859 73.2838C8.12334 73.2146 8.12641 73.1443 8.13764 73.0771C8.14886 73.0098 8.16802 72.9469 8.19401 72.8918C8.22 72.8368 8.25232 72.7907 8.28913 72.7562C8.32593 72.7217 8.36649 72.6995 8.4085 72.6909C8.45051 72.6822 8.49315 72.6873 8.53397 72.7058L24.9 80.1832C24.973 80.2213 25.0356 80.3005 25.0768 80.4069C25.118 80.5133 25.1352 80.6402 25.1253 80.7654C25.1154 80.8905 25.0791 81.006 25.0228 81.0915C24.9664 81.177 24.8936 81.2272 24.8171 81.2332Z" fill="#CCCCCC"/>
<path d="M23.9415 77.3578C23.8812 77.3606 23.8217 77.3339 23.7706 77.281C23.6975 77.2068 23.6451 77.0882 23.6247 76.9508C23.6044 76.8134 23.6177 76.6683 23.6618 76.5469L32.2722 53.1585C32.2915 53.0897 32.3194 53.0285 32.354 52.9787C32.3887 52.9289 32.4293 52.8918 32.4733 52.8697C32.5173 52.8476 32.5636 52.8411 32.6092 52.8505C32.6548 52.8599 32.6987 52.8851 32.738 52.9245C32.7773 52.9638 32.8111 53.0163 32.8372 53.0787C32.8633 53.141 32.8811 53.2117 32.8894 53.2862C32.8978 53.3607 32.8965 53.4372 32.8857 53.5108C32.8749 53.5844 32.8547 53.6534 32.8266 53.7133L24.2161 77.1018C24.1884 77.1809 24.1483 77.2464 24.1 77.2915C24.0517 77.3365 23.997 77.3594 23.9415 77.3578Z" fill="#CCCCCC"/>
<path d="M29.0343 94.5151L14.5281 93.9005C14.4424 93.896 14.3613 93.8362 14.3022 93.734C14.243 93.6318 14.2107 93.4954 14.2121 93.3542C14.2185 93.2137 14.2567 93.0824 14.319 92.986C14.3814 92.8896 14.4634 92.8352 14.5488 92.8335L29.055 93.4481C29.0976 93.4492 29.1397 93.4642 29.1787 93.4924C29.2178 93.5206 29.2531 93.5613 29.2825 93.6121C29.3119 93.663 29.3349 93.7229 29.3501 93.7886C29.3653 93.8542 29.3724 93.9242 29.371 93.9944C29.3697 94.065 29.3599 94.1345 29.3422 94.1989C29.3246 94.2633 29.2994 94.3214 29.2681 94.3697C29.2369 94.4181 29.2001 94.4558 29.16 94.4807C29.1199 94.5057 29.0771 94.5173 29.0343 94.5151Z" fill="#CCCCCC"/>
<path d="M27.3039 88.8813C27.2451 88.8767 27.1882 88.8456 27.1394 88.7914C27.0907 88.7372 27.0518 88.6619 27.0273 88.5738C27.0027 88.4858 26.9932 88.3882 27 88.2919C27.0067 88.1956 27.0294 88.1042 27.0655 88.0277L35.303 73.013C35.3315 72.9603 35.3661 72.9174 35.4048 72.8867C35.4434 72.856 35.4853 72.8382 35.5281 72.8342C35.571 72.8303 35.6138 72.8402 35.6543 72.8636C35.6948 72.887 35.7321 72.9232 35.7641 72.9703C35.8239 73.0722 35.8573 73.2084 35.8573 73.3502C35.8573 73.4919 35.8239 73.6282 35.7641 73.73L27.5318 88.7191C27.4718 88.8205 27.3898 88.8788 27.3039 88.8813Z" fill="#CCCCCC"/>
<path d="M32.2463 101.711C32.1826 101.709 32.1206 101.677 32.0679 101.617C32.0153 101.558 31.9743 101.475 31.9501 101.378C31.9258 101.281 31.9194 101.174 31.9315 101.071C31.9437 100.968 31.9739 100.873 32.0184 100.798L38.6809 89.8204C38.7429 89.7272 38.8244 89.677 38.9083 89.6802C38.9922 89.6834 39.0722 89.7398 39.1315 89.8376C39.1909 89.9354 39.2251 90.0671 39.227 90.2054C39.229 90.3436 39.1985 90.4778 39.1419 90.5801L32.4743 101.523C32.4461 101.578 32.4113 101.624 32.3721 101.656C32.3329 101.688 32.2901 101.707 32.2463 101.711Z" fill="#CCCCCC"/>
<path d="M35.1113 110.418H35.0802L26.7184 109.001C26.6372 108.977 26.5644 108.903 26.5148 108.795C26.4651 108.686 26.4423 108.551 26.4508 108.415C26.4593 108.28 26.4986 108.155 26.5608 108.066C26.6229 107.977 26.7033 107.929 26.7858 107.934L35.1476 109.351C35.2266 109.373 35.2979 109.442 35.3479 109.545C35.3979 109.649 35.423 109.779 35.4186 109.911C35.4141 110.043 35.3803 110.167 35.3236 110.261C35.2669 110.354 35.1914 110.41 35.1113 110.418Z" fill="#CCCCCC"/>
<path d="M36.6966 113.661C36.6205 113.66 36.547 113.615 36.4894 113.533C36.424 113.442 36.3831 113.312 36.3753 113.171C36.3676 113.031 36.3936 112.891 36.4479 112.782L43.5249 98.8428C43.5519 98.7885 43.5852 98.7436 43.6228 98.7108C43.6605 98.6779 43.7017 98.6577 43.7441 98.6513C43.7866 98.645 43.8293 98.6526 43.87 98.6737C43.9106 98.6949 43.9482 98.7291 43.9808 98.7745C44.0461 98.8657 44.0871 98.9956 44.0948 99.1361C44.1026 99.2766 44.0765 99.4165 44.0222 99.5256L36.9453 113.473C36.9148 113.533 36.8767 113.581 36.8337 113.613C36.7907 113.646 36.7439 113.662 36.6966 113.661Z" fill="#CCCCCC"/>
</svg>
