<svg width="93" height="146" viewBox="0 0 93 146" fill="none" xmlns="http://www.w3.org/2000/svg">
<path d="M92.8211 109.822C92.8811 109.822 92.8911 104.556 92.8211 104.184C92.4811 100.372 90.0511 93.5273 86.7211 93.1664C84.3211 92.9071 82.2511 95.5909 82.0211 98.613C81.7911 101.635 83.4811 104.556 85.1411 106.27C87.1211 108.345 92.8211 109.822 92.8211 109.822Z" fill="#92E3A9"/>
<path d="M72.3753 0.848549C69.0153 1.97621 66.2753 9.40751 65.7653 13.3092C65.7653 13.6475 65.4953 18.9475 65.5553 18.9475H65.6253C65.1953 20.0752 64.7253 21.3719 64.2453 22.759C63.3653 25.33 62.3953 28.2281 61.4953 31.4645C60.5953 34.7009 59.6653 38.2305 58.9453 41.9969C58.1604 45.9464 57.6423 49.9573 57.3953 53.9952C57.3953 53.9952 57.3953 54.0967 57.3953 54.1418C57.1653 52.9352 56.3953 49.6311 56.3953 49.3605C55.2753 45.9211 51.3953 40.3392 48.0653 41.1737C45.6153 41.7488 44.0653 44.9626 44.5053 47.872C44.9453 50.7813 47.1753 52.9126 49.1953 53.95C51.4553 55.0777 56.9853 54.6492 57.4353 54.6154C57.251 58.6243 57.2777 62.6421 57.5153 66.6475C57.6453 68.9818 57.8453 71.3273 58.0553 73.6616C57.8353 72.6354 57.6253 71.7107 57.5853 71.5979C56.4653 68.1586 52.5853 62.5766 49.2453 63.3998C46.8053 63.9862 45.3053 67.1888 45.6953 70.0981C46.0853 73.0075 48.3653 75.1388 50.3753 76.1762C52.3853 77.2137 57.1353 76.9543 58.3753 76.8528L58.6453 79.5479C59.0953 83.833 59.5553 88.1069 59.9153 92.3356C60.0353 93.8241 60.1153 95.3126 60.2053 96.7899C59.9953 95.8765 59.8253 95.1097 59.7853 94.9969C58.6653 91.5575 54.7853 85.9756 51.4553 86.8101C49.0053 87.3852 47.4553 90.599 47.8953 93.4971C48.3353 96.3952 50.5653 98.5377 52.5853 99.5752C54.6053 100.613 58.8753 100.376 60.3553 100.274C60.3553 101.797 60.4553 103.319 60.4553 104.785C60.4553 105.811 60.4553 106.781 60.3953 107.807C60.3353 108.833 60.3053 109.837 60.2553 110.829C60.1053 112.758 59.9653 114.742 59.7853 116.614C59.6653 117.922 59.5353 119.163 59.4053 120.426C59.2953 118.937 59.0353 116.039 58.9853 115.802C58.3515 112.735 57.0054 109.913 55.0853 107.627C55.0192 107.272 54.9255 106.925 54.8053 106.589C54.6299 105.97 54.3222 105.41 53.9092 104.957C53.4962 104.504 52.9907 104.172 52.4373 103.992C51.8839 103.811 51.2995 103.787 50.7359 103.922C50.1722 104.056 49.6466 104.345 49.2053 104.762C46.2053 107.322 45.6453 115.227 46.2053 118.937C46.2053 119.163 46.8353 121.452 47.2053 122.884C46.8653 122.106 46.5453 121.339 46.2053 120.538C45.5053 118.948 44.7753 117.403 43.9953 115.723L42.7853 113.333C42.3953 112.521 41.8953 111.743 41.4453 110.942C40.3753 109.104 39.2153 107.322 38.0153 105.563C39.1753 104.605 43.2453 101.154 44.6553 98.6505C46.0653 96.1471 47.3353 92.5611 46.7253 89.6856C46.1153 86.8101 43.7953 85.299 41.5053 86.7424C38.3253 88.7384 36.8153 96.5756 36.9553 100.432C36.9553 100.669 37.3153 103.387 37.5253 104.875C36.7953 103.826 36.0753 102.778 35.3053 101.752C33.0953 98.7858 30.7653 95.8877 28.4653 92.9896C27.7553 92.0988 27.0653 91.208 26.3653 90.3058C26.7753 89.9788 31.6753 85.9869 33.2453 83.1903C34.6453 80.6982 35.9353 77.1009 35.3253 74.169C34.7153 71.2371 32.3953 69.7824 30.1053 71.2258C26.9253 73.233 25.4153 81.059 25.5553 84.9156C25.5553 85.2088 26.0753 89.1218 26.2353 90.1028C24.6953 88.1294 23.1853 86.1448 21.7553 84.0924C19.8342 81.3488 18.0834 78.4588 16.5153 75.4432C16.7053 75.2854 21.8353 71.1469 23.4453 68.2826C24.8453 65.7905 26.1353 62.1932 25.5253 59.3177C24.9153 56.4422 22.5853 54.9311 20.2953 56.3745C17.1153 58.3705 15.6053 66.2077 15.7553 70.0643C15.7553 70.3124 16.1453 73.3007 16.3453 74.699L16.1653 74.8118C14.5888 71.5696 13.2768 68.1727 12.2453 64.6628C11.6453 62.7232 11.1553 60.8062 10.7253 58.9343C11.7253 58.2803 16.2953 55.2356 17.9553 52.8337C19.6153 50.4318 21.1053 47.0826 20.7553 44.0943C20.4053 41.106 18.2553 39.2679 15.8853 40.3843C12.5953 41.9517 10.4453 49.6198 10.2553 53.5215C10.2553 53.7358 10.3153 55.8783 10.3953 57.4458C10.2053 56.5888 10.0053 55.7092 9.8353 54.886C9.2053 51.7962 8.7753 48.8869 8.4153 46.3158C8.2253 44.8386 8.06529 43.5079 7.93529 42.2449C8.72529 40.982 11.8353 35.8286 12.5153 32.8854C13.1953 29.9422 13.4253 26.1983 12.0153 23.9205C11.6919 23.3777 11.258 22.9301 10.7497 22.6153C10.2415 22.3005 9.67374 22.1276 9.09405 22.111C8.51437 22.0945 7.9396 22.2348 7.41787 22.5201C6.89613 22.8055 6.44262 23.2277 6.0953 23.7513C3.5553 27.0215 4.2953 34.7009 5.5153 38.0726C5.6253 38.3545 7.7153 42.5832 7.7553 42.5832V42.5043C7.8553 43.7222 7.9853 45.019 8.1453 46.4286C8.4653 49.0335 8.8453 51.9654 9.4253 55.1003C10.0098 58.453 10.761 61.766 11.6753 65.0237C12.6597 68.5926 13.9212 72.0566 15.4453 75.3756L15.5053 75.4884C14.7853 74.7215 12.6853 72.6917 12.5053 72.5564C10.0153 70.7183 4.1853 69.1735 1.5053 72.2294C0.5989 73.2283 0.0627101 74.5781 0.00516163 76.0058C-0.0523868 77.4335 0.372999 78.8325 1.1953 79.9201C2.8253 81.916 5.7653 81.8935 8.0153 81.2394C10.5553 80.5177 15.3353 76.1988 15.7053 75.8492C17.2934 79.0707 19.0777 82.1642 21.0453 85.1073C22.1753 86.8101 23.3553 88.4903 24.5653 90.1141C23.9153 89.4826 23.3353 88.9188 23.2453 88.8624C20.7553 87.0131 14.9253 85.4794 12.2453 88.5241C11.3467 89.5303 10.8161 90.8804 10.7587 92.3069C10.7013 93.7334 11.1212 95.1322 11.9353 96.226C13.5153 98.222 16.5153 98.222 18.7453 97.5341C20.9753 96.8463 25.1453 93.2941 26.2253 92.3356L27.6253 94.2075C29.8753 97.1845 32.1353 100.139 34.2753 103.139C35.0253 104.199 35.7353 105.281 36.4453 106.364C35.8753 105.8 35.3853 105.338 35.3053 105.236C32.8153 103.387 26.9853 101.853 24.3053 104.898C23.4067 105.904 22.8761 107.254 22.8187 108.681C22.7613 110.107 23.1812 111.506 23.9953 112.6C25.6353 114.596 28.5653 114.562 30.8253 113.919C33.0853 113.276 36.8253 110.029 38.1153 108.89C38.8153 110.017 39.5153 111.145 40.1153 112.273C40.5353 113.073 40.9853 113.795 41.3653 114.641L42.5153 117.144C43.2153 118.734 43.9353 120.358 44.5853 121.937C45.0453 123.064 45.4653 124.068 45.8853 125.128C45.1453 124.068 43.6653 122.027 43.5153 121.869C41.3153 119.535 35.8453 116.84 32.8653 119.377C31.8675 120.27 31.193 121.543 30.9684 122.957C30.7438 124.37 30.9844 125.828 31.6453 127.056C33.0053 129.391 35.8553 129.932 38.1253 129.729C40.6153 129.503 45.5653 126.256 46.1253 125.85C46.8253 127.598 47.4953 129.312 48.1253 130.947C50.2353 136.585 51.8153 141.445 52.8853 144.862L52.9953 145.212L55.2353 144.14L55.0053 143.464C53.8653 140.081 52.1853 135.232 50.0053 129.593C49.2953 127.801 48.5253 125.917 47.7053 123.955C49.1101 122.439 50.4451 120.844 51.7053 119.174C53.8553 120.64 58.7053 121.226 59.3453 121.294C59.1253 123.369 58.8953 125.387 58.6553 127.293C57.8453 133.89 56.9753 139.37 56.3253 143.204C56.3253 143.362 56.3253 143.498 56.2553 143.644L58.7153 142.516C59.2853 138.705 59.9953 133.552 60.6453 127.428C60.8753 125.32 61.0853 123.064 61.2853 120.753C61.9453 120.617 67.2853 119.478 69.4953 117.685C71.4953 116.062 73.7953 113.321 74.2153 110.243C74.6353 107.164 73.1253 104.447 70.6853 104.605C67.2953 104.785 63.4453 111.461 62.3053 115.227C62.2353 115.453 61.7053 117.945 61.3953 119.512C61.4753 118.576 61.5553 117.652 61.6253 116.682C61.7753 114.753 61.8853 112.836 62.0053 110.773L62.0953 107.762C62.0953 106.747 62.0953 105.687 62.0953 104.65C62.0953 102.236 61.9353 99.8007 61.7753 97.365C63.0753 97.365 67.6953 97.1394 69.8553 95.899C72.0153 94.6586 74.5453 92.3469 75.3153 89.3247C76.0853 86.3026 74.9453 83.2805 72.5653 82.9422C69.2553 82.4573 64.7153 88.4226 63.1653 91.9635C63.0653 92.189 62.1653 94.8728 61.6853 96.3614C61.5853 94.8954 61.4753 93.4407 61.3253 91.9635C60.8953 87.7235 60.3253 83.4609 59.8353 79.1984C59.6753 77.8903 59.5253 76.5822 59.3753 75.2854C59.8353 75.2854 65.3753 75.2065 67.7453 73.8082C69.8953 72.579 72.4353 70.2673 73.2053 67.2452C73.9753 64.223 72.8353 61.2009 70.4553 60.8513C67.1453 60.3777 62.6053 66.3317 61.0553 69.8726C60.9353 70.132 59.6453 74.0111 59.3453 75.0148C59.0153 72.1392 58.7053 69.2637 58.4853 66.4107C58.1803 62.5191 58.0734 58.611 58.1653 54.7056C58.3753 54.7056 64.0953 54.7056 66.5753 53.2396C68.7253 51.9992 71.2653 49.6875 72.0353 46.6654C72.8053 43.6432 71.6753 40.6211 69.2853 40.2828C65.9753 39.7979 61.4453 45.752 59.8953 49.3041C59.7853 49.5409 58.7953 52.4841 58.3553 53.905H58.1653C58.3446 49.9137 58.7959 45.9439 59.5153 42.0307C59.8853 39.8543 60.3353 37.7907 60.8153 35.7835C61.8153 35.9188 66.6953 36.46 69.0053 35.479C71.3153 34.4979 73.9053 32.5696 74.9253 29.6377C75.9453 26.7058 75.0853 23.5032 72.7753 22.8154C69.5653 21.8681 64.6053 27.2132 62.7753 30.5849C62.6753 30.7766 61.7753 32.7613 61.2053 34.216C61.4253 33.3139 61.6453 32.3779 61.8753 31.5209C62.7153 28.2845 63.6453 25.3639 64.4753 22.7928C64.9553 21.3268 65.4153 20.0188 65.8553 18.8009C67.0053 18.2145 71.6253 15.8239 73.4153 13.6588C75.2053 11.4937 76.9953 8.30238 76.8953 5.2577C76.7953 2.21302 74.8053 0.047911 72.3753 0.848549Z" fill="#92E3A9"/>
<path d="M37.6135 61.4039C40.2435 61.5618 45.9835 58.6412 45.9835 58.6299C45.9835 58.6186 43.7835 54.5364 43.6135 54.2996C41.6635 51.6158 36.5435 48.0862 33.3935 50.195C32.3228 50.985 31.5424 52.1858 31.1967 53.575C30.851 54.9641 30.9636 56.4475 31.5135 57.7503C32.6335 60.2988 35.3835 61.2686 37.6135 61.4039Z" fill="#92E3A9"/>
</svg>
