<svg width="258" height="204" viewBox="0 0 258 204" fill="none" xmlns="http://www.w3.org/2000/svg">
<g filter="url(#filter0_d)">
<path d="M54.6872 16.2192H12.0089V109.831H54.6872V16.2192Z" fill="#EBEBEB"/>
<path d="M52.5422 18.9346H13.7149V107.043H52.5422V18.9346Z" fill="#FAFAFA"/>
<path d="M52.5422 19.9717L13.7149 80.2778V18.9346H52.5422V19.9717Z" fill="#F5F5F5"/>
<path d="M53.3845 44.2783H13.7149V45.2152H53.3845V44.2783Z" fill="#EBEBEB"/>
<path d="M53.3845 65.2607H13.7149V66.1976H53.3845V65.2607Z" fill="#EBEBEB"/>
<path d="M53.3845 86.2427H13.7149V87.1796H53.3845V86.2427Z" fill="#EBEBEB"/>
<path d="M32.1489 44.7445V109.535H34.1118V44.7445H32.1489Z" fill="#EBEBEB"/>
<path d="M22.0807 18.9346H21.192V44.7495H22.0807V18.9346Z" fill="#EBEBEB"/>
<path d="M29.747 18.9346H28.8583V44.7495H29.747V18.9346Z" fill="#EBEBEB"/>
<path d="M37.4096 18.9346H36.5209V44.7495H37.4096V18.9346Z" fill="#EBEBEB"/>
<path d="M45.0758 18.9346H44.1871V44.7495H45.0758V18.9346Z" fill="#EBEBEB"/>
<path d="M12.0125 14.6284H10.2066V110.406H12.0125V14.6284Z" fill="#F5F5F5"/>
<path d="M56.4931 110.672L54.6872 109.831V14.6284H56.4931V110.672Z" fill="#E0E0E0"/>
<path d="M56.4967 13.666H10.2065V16.2196H56.4967V13.666Z" fill="#E0E0E0"/>
<path d="M57.7173 110.986H8.92529V113.365H57.7173V110.986Z" fill="#E0E0E0"/>
<path d="M54.6872 109.832L57.7137 110.986H8.92529L12.0089 109.832H54.6872Z" fill="#EBEBEB"/>
<path d="M238.274 74.5734C238.274 74.5734 235.254 74.3076 235.533 82.5698C235.811 90.832 236.504 95.2332 236.504 95.2332C236.504 95.2332 236.414 97.0678 235.251 96.7061C234.087 96.3444 231.903 94.5621 230.822 95.8956C229.74 97.2291 230.108 99.3817 231.585 101.896C233.063 104.411 236.161 110.01 236.439 110.52C236.718 111.03 236.821 111.958 235.997 111.867C235.172 111.775 229.615 109.474 228.877 112.76C228.138 116.046 233.216 122.177 233.759 122.857C234.301 123.536 234.334 123.972 234.116 124.386C233.898 124.8 232.085 123.811 230.483 123.236C228.88 122.661 226.939 122.334 226.642 124.273C226.346 126.212 228.584 131.89 236.953 137.856L240.979 140.309L244.791 137.342C252.643 130.369 254.384 124.465 253.935 122.569C253.485 120.673 251.576 121.236 250.027 122.003C248.478 122.769 246.761 123.977 246.507 123.593C246.254 123.21 246.247 122.774 246.732 122.029C247.218 121.283 251.765 114.568 250.762 111.387C249.759 108.206 244.42 111.178 243.624 111.365C242.828 111.553 242.842 110.612 243.074 110.08C243.306 109.548 245.929 103.574 247.196 100.907C248.463 98.24 248.692 96.083 247.464 94.8454C246.236 93.6078 244.252 95.6908 243.124 96.1919C241.996 96.6931 241.761 94.8846 241.761 94.8846C241.761 94.8846 242.085 90.4223 241.686 82.1645C241.286 73.9067 238.217 74.5734 238.217 74.5734" fill="#EBEBEB"/>
<path d="M238.509 81.9727C238.512 82.0307 238.512 82.0889 238.509 82.147L238.541 82.6525C238.566 83.0882 238.602 83.7637 238.648 84.6047C238.741 86.2998 238.863 88.7532 239.005 91.7818C239.28 97.8477 239.605 106.228 239.933 115.483C240.262 124.739 240.572 133.128 240.818 139.189C240.947 142.218 241.047 144.667 241.118 146.371C241.154 147.216 241.179 147.87 241.197 148.327C241.197 148.541 241.197 148.711 241.197 148.833C241.199 148.891 241.199 148.949 241.197 149.007C241.197 149.007 241.197 148.95 241.197 148.833C241.197 148.715 241.197 148.545 241.165 148.327C241.14 147.891 241.1 147.216 241.054 146.375C240.961 144.684 240.843 142.231 240.697 139.198C240.419 133.132 240.097 124.752 239.766 115.492C239.434 106.232 239.13 97.8564 238.88 91.7905C238.755 88.7663 238.652 86.3129 238.584 84.6091C238.548 83.768 238.52 83.11 238.502 82.6568C238.502 82.4389 238.502 82.269 238.502 82.147C238.502 82.0249 238.509 81.9727 238.509 81.9727Z" fill="#E0E0E0"/>
<path d="M233.798 98.5405C233.889 98.6129 233.973 98.6977 234.048 98.7933C234.205 98.9676 234.405 99.229 234.687 99.5428C235.219 100.188 235.936 101.098 236.707 102.123C237.478 103.147 238.135 104.044 238.677 104.737L239.277 105.53C239.356 105.62 239.427 105.721 239.487 105.831C239.487 105.831 239.387 105.753 239.234 105.583C239.08 105.413 238.877 105.147 238.599 104.829C238.07 104.179 237.367 103.256 236.593 102.214L234.612 99.5994C234.373 99.29 234.173 99.0242 234.009 98.8063C233.931 98.7276 233.86 98.6385 233.798 98.5405Z" fill="#E0E0E0"/>
<path d="M239.883 105.687C239.855 105.652 241.329 103.77 243.174 101.482C245.019 99.194 246.543 97.3725 246.572 97.4118C246.6 97.451 245.144 99.3291 243.285 101.617C241.425 103.905 239.915 105.726 239.883 105.687Z" fill="#E0E0E0"/>
<path d="M239.869 119.932C239.955 119.847 240.049 119.774 240.148 119.714L240.936 119.173C241.6 118.738 242.517 118.084 243.506 117.343C244.495 116.602 245.376 115.896 246.004 115.378L246.754 114.763C246.841 114.678 246.939 114.609 247.043 114.559C246.966 114.657 246.881 114.746 246.789 114.824C246.622 114.986 246.375 115.212 246.076 115.487C245.458 116.031 244.587 116.759 243.577 117.504C242.567 118.25 241.657 118.864 240.979 119.291C240.622 119.505 240.362 119.67 240.165 119.779C240.072 119.844 239.973 119.896 239.869 119.932Z" fill="#E0E0E0"/>
<path d="M233.199 114.934C233.296 114.975 233.389 115.029 233.477 115.095C233.652 115.208 233.902 115.378 234.191 115.587C234.805 116.023 235.647 116.611 236.571 117.282C237.496 117.953 238.327 118.59 238.927 119.025C239.227 119.256 239.466 119.439 239.641 119.575C239.731 119.634 239.814 119.709 239.887 119.797C239.789 119.756 239.696 119.702 239.609 119.636C239.434 119.522 239.184 119.352 238.895 119.143C238.284 118.707 237.442 118.119 236.518 117.448C235.593 116.777 234.762 116.141 234.162 115.705C233.862 115.478 233.623 115.291 233.448 115.156C233.274 115.021 233.191 114.96 233.199 114.934Z" fill="#E0E0E0"/>
<path d="M231.875 127.523C232 127.574 232.12 127.644 232.231 127.732L233.17 128.364C233.959 128.9 235.04 129.671 236.232 130.504C237.424 131.336 238.499 132.129 239.273 132.682L240.183 133.367C240.3 133.443 240.409 133.535 240.508 133.641C240.384 133.584 240.265 133.514 240.151 133.432L239.212 132.8C238.427 132.26 237.342 131.493 236.15 130.656C234.958 129.819 233.884 129.035 233.113 128.477L232.199 127.793C232.085 127.714 231.977 127.624 231.875 127.523Z" fill="#E0E0E0"/>
<path d="M240.333 133.437C240.443 133.325 240.562 133.228 240.69 133.149L241.668 132.422C242.496 131.807 243.634 130.953 244.88 129.968C246.126 128.983 247.218 128.064 248.01 127.388L248.952 126.591C249.062 126.483 249.182 126.391 249.309 126.316C249.209 126.436 249.101 126.547 248.988 126.648C248.774 126.852 248.463 127.144 248.074 127.497C247.296 128.199 246.204 129.145 244.962 130.112C243.72 131.079 242.574 131.933 241.75 132.517C241.329 132.809 240.986 133.04 240.743 133.197C240.612 133.291 240.475 133.371 240.333 133.437Z" fill="#E0E0E0"/>
<path d="M246.383 141.921H235.244L238.88 175.519H242.749L246.383 141.921Z" fill="#E0E0E0"/>
<path d="M235.822 146.048C235.822 146.048 235.822 146.096 235.882 146.17C235.955 146.273 236.047 146.354 236.15 146.405C236.345 146.487 236.552 146.514 236.756 146.483C236.96 146.452 237.156 146.364 237.328 146.227C237.778 145.926 238.17 145.329 238.756 145.068C239.423 144.805 240.142 144.822 240.801 145.115C241.473 145.394 242.114 145.773 242.71 146.244C243.207 146.625 243.724 146.965 244.259 147.259C244.623 147.459 245.009 147.596 245.405 147.665C245.512 147.684 245.621 147.693 245.729 147.691C245.801 147.691 245.84 147.691 245.84 147.691C245.312 147.592 244.798 147.402 244.312 147.129C243.79 146.817 243.284 146.468 242.796 146.083C242.193 145.595 241.542 145.204 240.858 144.919C240.16 144.611 239.398 144.601 238.695 144.889C238.397 145.036 238.122 145.244 237.881 145.503C237.679 145.721 237.466 145.921 237.242 146.105C237.088 146.235 236.912 146.323 236.728 146.363C236.543 146.402 236.353 146.393 236.172 146.336C236.041 146.269 235.922 146.171 235.822 146.048Z" fill="#F5F5F5"/>
<path d="M236.229 152.24C236.229 152.24 236.318 152.1 236.493 151.878C236.744 151.571 237.047 151.336 237.381 151.19C237.877 150.97 238.404 150.872 238.93 150.902C239.581 150.964 240.228 151.071 240.868 151.225C241.522 151.38 242.191 151.414 242.853 151.325C243.393 151.24 243.92 151.056 244.416 150.78C244.749 150.598 245.064 150.37 245.355 150.1C245.466 150.01 245.566 149.899 245.651 149.773C245.24 150.103 244.809 150.394 244.362 150.645C243.875 150.895 243.36 151.059 242.835 151.133C242.188 151.204 241.535 151.165 240.897 151.015C240.249 150.86 239.593 150.756 238.934 150.706C238.387 150.685 237.843 150.803 237.335 151.05C236.991 151.219 236.684 151.485 236.439 151.826C236.375 151.921 236.319 152.023 236.272 152.131C236.252 152.164 236.237 152.201 236.229 152.24Z" fill="#F5F5F5"/>
<path d="M245.123 155.552C245.032 155.463 244.927 155.396 244.816 155.356C244.519 155.222 244.207 155.141 243.891 155.116C243.425 155.08 242.956 155.112 242.496 155.212C241.978 155.316 241.425 155.491 240.836 155.648C240.292 155.802 239.735 155.878 239.177 155.874C238.724 155.86 238.277 155.742 237.86 155.526C237.479 155.31 237.139 155.002 236.86 154.619C236.903 154.751 236.967 154.872 237.049 154.972C237.26 155.266 237.517 155.503 237.806 155.669C238.234 155.916 238.697 156.055 239.169 156.079C239.742 156.096 240.314 156.023 240.872 155.861C241.464 155.709 242.018 155.53 242.524 155.425C242.972 155.32 243.428 155.273 243.884 155.286C244.304 155.311 244.721 155.4 245.123 155.552Z" fill="#F5F5F5"/>
<path d="M237.214 160.21C237.551 160.033 237.925 159.987 238.284 160.079C238.677 160.196 239.056 160.369 239.416 160.594C239.877 160.865 240.376 161.032 240.886 161.086C241.817 161.189 242.75 160.924 243.549 160.332C243.788 160.155 244.011 159.946 244.213 159.709C244.348 159.535 244.416 159.434 244.409 159.421C244.114 159.702 243.805 159.961 243.484 160.197C242.696 160.728 241.797 160.96 240.9 160.864C239.848 160.794 239.037 160.023 238.306 159.923C238.025 159.863 237.736 159.893 237.467 160.01C237.289 160.101 237.207 160.201 237.214 160.21Z" fill="#F5F5F5"/>
<path d="M237.835 166.659C238.154 166.669 238.471 166.592 238.763 166.433C239.323 166.206 240.015 165.683 240.826 165.291C241.201 165.103 241.601 165 242.007 164.986C242.337 164.987 242.662 165.078 242.96 165.252C243.23 165.429 243.465 165.676 243.649 165.975C243.634 165.871 243.597 165.774 243.542 165.692C243.408 165.451 243.23 165.252 243.021 165.112C242.71 164.907 242.364 164.793 242.01 164.781C241.582 164.782 241.158 164.884 240.761 165.082C239.923 165.492 239.252 166.032 238.716 166.289C238.181 166.546 237.831 166.625 237.835 166.659Z" fill="#F5F5F5"/>
<path d="M238.381 169.663C238.607 169.796 238.847 169.89 239.095 169.942C239.675 170.113 240.264 170.234 240.858 170.303C241.451 170.376 242.047 170.397 242.642 170.369C242.89 170.378 243.138 170.341 243.377 170.26C243.377 170.194 242.25 170.26 240.879 170.081C239.509 169.903 238.395 169.597 238.381 169.663Z" fill="#F5F5F5"/>
<path d="M240.062 20.0674H205.671V47.6777H240.062V20.0674Z" fill="#E0E0E0"/>
<path d="M238.848 21.1953H206.866V46.4394H238.848V21.1953Z" fill="#FAFAFA"/>
<path d="M228.073 30.3989H217.641V37.3451H228.073V30.3989Z" fill="#E0E0E0"/>
<path d="M249.727 175.963C249.727 176.029 194.714 176.077 126.87 176.077C59.0271 176.077 4 176.029 4 175.963C4 175.898 59.0021 175.85 126.87 175.85C194.739 175.85 249.727 175.902 249.727 175.963Z" fill="#263238"/>
<path d="M96.5624 0H170.209V85.6417C170.209 87.5163 169.599 89.3141 168.513 90.6396C167.428 91.9651 165.955 92.7098 164.42 92.7098H96.5624V0Z" fill="#EBEBEB"/>
<path d="M164.127 27.5928C164.127 27.7802 150.819 27.9327 134.401 27.9327C117.984 27.9327 104.668 27.7802 104.668 27.5928C104.668 27.4054 117.977 27.2529 134.401 27.2529C150.826 27.2529 164.127 27.4054 164.127 27.5928Z" fill="#455A64"/>
<path d="M134.751 33.8809C134.751 34.0683 128.177 34.2208 120.064 34.2208C111.952 34.2208 105.374 34.0683 105.374 33.8809C105.374 33.6935 111.952 33.541 120.064 33.541C128.177 33.541 134.751 33.6848 134.751 33.8809Z" fill="#455A64"/>
<path d="M146.493 33.293C146.493 33.4804 144.751 33.6329 142.603 33.6329C140.454 33.6329 138.712 33.4804 138.712 33.293C138.712 33.1056 140.454 32.9531 142.603 32.9531C144.751 32.9531 146.493 33.1056 146.493 33.293Z" fill="#455A64"/>
<path d="M165.716 32.9048C165.716 33.0922 162.268 33.2447 158.014 33.2447C153.759 33.2447 150.312 33.0922 150.312 32.9048C150.312 32.7175 153.759 32.5649 158.014 32.5649C162.268 32.5649 165.716 32.7175 165.716 32.9048Z" fill="#455A64"/>
<path d="M132.299 39.8814C132.299 40.0731 126.114 40.2257 118.483 40.2257C110.853 40.2257 104.668 40.0731 104.668 39.8814C104.668 39.6897 110.853 39.5415 118.483 39.5415C126.114 39.5415 132.299 39.694 132.299 39.8814Z" fill="#455A64"/>
<path d="M165.716 39.7115C165.716 39.8989 158.963 40.0514 150.633 40.0514C142.303 40.0514 135.547 39.8989 135.547 39.7115C135.547 39.5241 142.299 39.3716 150.633 39.3716C158.967 39.3716 165.716 39.5197 165.716 39.7115Z" fill="#455A64"/>
<path d="M165.716 45.7598C165.716 45.9472 162.711 46.0997 158.999 46.0997C155.287 46.0997 152.282 45.9472 152.282 45.7598C152.282 45.5724 155.291 45.4155 158.999 45.4155C162.707 45.4155 165.716 45.568 165.716 45.7598Z" fill="#455A64"/>
<path d="M137.927 20.8604C137.927 21.0478 130.639 21.2003 121.653 21.2003C112.666 21.2003 105.374 21.0478 105.374 20.8604C105.374 20.673 112.662 20.5205 121.653 20.5205C130.643 20.5205 137.927 20.673 137.927 20.8604Z" fill="#6DD2AE"/>
<path d="M183.207 51.9307H40.6145C37.7426 51.9307 35.4144 54.7733 35.4144 58.2798V169.109C35.4144 172.615 37.7426 175.458 40.6145 175.458H183.207C186.079 175.458 188.407 172.615 188.407 169.109V58.2798C188.407 54.7733 186.079 51.9307 183.207 51.9307Z" fill="#263238"/>
<path d="M29.2294 166.32H194.982V169.37C194.982 171.427 194.312 173.4 193.121 174.855C191.929 176.31 190.314 177.127 188.629 177.127H35.5822C33.8973 177.127 32.2815 176.31 31.0901 174.855C29.8987 173.4 29.2294 171.427 29.2294 169.37V166.32Z" fill="#263238"/>
<path d="M184.082 56.8369H39.733V161.156H184.082V56.8369Z" fill="#455A64"/>
<path d="M97.0406 166.32H97.6866H99.5711L106.563 166.285L129.951 166.224H130.122L130.036 166.407L129.108 168.351L128.127 170.403L128.098 170.464H128.041L99.0964 170.399H99.0714V170.373L97.5546 167.361L97.1727 166.599L97.0514 166.346C97.0514 166.346 97.1049 166.438 97.1941 166.612L97.601 167.375C97.9579 168.05 98.4718 169.035 99.1464 170.312L99.1071 170.285L128.052 170.22L127.966 170.281L128.948 168.229L129.876 166.285L129.961 166.468L106.67 166.407L99.6318 166.355H97.7188H97.2155L97.0406 166.32Z" fill="#455A64"/>
<path d="M188.404 166.32C188.404 166.385 154.141 166.433 111.913 166.433C69.6841 166.433 35.4144 166.385 35.4144 166.32C35.4144 166.254 69.6556 166.207 111.913 166.207C154.17 166.207 188.404 166.259 188.404 166.32Z" fill="#455A64"/>
<path d="M149.348 36.0034C150.484 36.0034 151.573 36.5544 152.377 37.535C153.18 38.5157 153.631 39.8458 153.631 41.2326V51.9395H140.854V42.0519C140.853 41.2574 140.981 40.4707 141.23 39.7366C141.479 39.0025 141.844 38.3355 142.304 37.7737C142.764 37.2119 143.31 36.7664 143.911 36.4627C144.513 36.1589 145.157 36.0028 145.808 36.0034H149.348Z" fill="#263238"/>
<path d="M149.348 36.0028C149.348 36.0681 137.292 36.103 122.42 36.0899C107.548 36.0768 95.4917 36.0071 95.4917 35.9461C95.4917 35.8851 107.544 35.8459 122.42 35.859C137.296 35.872 149.348 35.9418 149.348 36.0028Z" fill="#263238"/>
<path d="M149.248 35.9899L143.916 35.9463L136.175 36.0029H79.3062C76.9871 36.0029 74.7631 37.1278 73.1232 39.13C71.4834 41.1322 70.5621 43.8477 70.5621 46.6793V161.404H144.212V41.8553C144.43 36.0029 149.248 35.9899 149.248 35.9899Z" fill="#FAFAFA"/>
<path d="M149.248 35.9904L104.839 36.1081H82.6361H79.8594C79.3954 36.1081 78.9386 36.1081 78.4818 36.156C78.0277 36.2149 77.5779 36.3154 77.1362 36.4567C75.8031 36.8765 74.5722 37.6816 73.5473 38.8041C72.5224 39.9265 71.7336 41.3334 71.2474 42.906C71.176 43.1719 71.0761 43.4246 71.0261 43.6948L70.8583 44.5053C70.7712 45.0531 70.7176 45.6081 70.6977 46.1656C70.6585 48.4098 70.6977 50.6802 70.6977 52.9374L70.7584 161.379L70.58 161.161L144.23 161.222L144.102 161.379L144.137 96.8847L144.18 64.6378L144.205 48.5144V44.4835V42.4659C144.194 42.1299 144.205 41.7933 144.237 41.4593C144.256 41.1239 144.3 40.7913 144.369 40.4657C144.599 39.1339 145.238 37.9598 146.154 37.1844C146.606 36.7993 147.106 36.5051 147.635 36.3129C148.159 36.1199 148.701 36.0115 149.248 35.9904ZM149.248 35.9904C148.698 36.0201 148.153 36.1388 147.628 36.3434C147.1 36.5359 146.602 36.8301 146.15 37.2149C145.24 37.9909 144.609 39.164 144.387 40.4919C144.319 40.816 144.276 41.1472 144.259 41.4811C144.23 41.8154 144.22 42.1518 144.23 42.4877V48.5318L144.259 64.6553L144.302 96.9022L144.334 161.396V161.562H144.202L70.5514 161.618H70.3765V161.4L70.4336 52.9592C70.4336 50.6976 70.4336 48.4447 70.4586 46.1743C70.4794 45.6023 70.5343 45.0328 70.6228 44.4705L70.8012 43.6425C70.8512 43.3636 70.9547 43.1021 71.0261 42.832C71.5264 41.2197 72.3368 39.778 73.389 38.6283C74.4412 37.4786 75.7044 36.6546 77.072 36.2257C77.5256 36.0826 77.9873 35.9806 78.4532 35.9207C78.9207 35.8902 79.3883 35.8597 79.8487 35.8727H82.6254H104.828L149.248 35.9904Z" fill="#263238"/>
<path d="M81.6582 56.646H94.5066L94.5281 61.9014H93.9106C93.7108 60.0218 93.1349 58.7493 92.1832 58.084C91.4322 57.6616 90.6113 57.4572 89.7848 57.487V71.2137C89.7848 72.1768 89.9205 72.813 90.1953 73.1268C90.4701 73.4405 91.0411 73.5974 91.912 73.5974V74.2598H84.3064V73.5974C85.138 73.5974 85.6948 73.4362 85.966 73.1181C86.2372 72.7999 86.38 72.1681 86.38 71.2137V57.487C85.5539 57.4629 84.7341 57.667 83.9816 58.084C82.9609 58.7682 82.3827 60.0363 82.2507 61.9014H81.6368L81.6582 56.646Z" fill="#6DD2AE"/>
<path d="M134.105 57.8487C134.105 58.0361 127.017 58.1886 118.273 58.1886C109.529 58.1886 102.441 58.0361 102.441 57.8487C102.441 57.6613 109.529 57.5088 118.273 57.5088C127.017 57.5088 134.105 57.6439 134.105 57.8487Z" fill="#6DD2AE"/>
<path d="M115.318 64.0103C115.318 64.1977 112.577 64.3502 109.197 64.3502C105.817 64.3502 103.076 64.1977 103.076 64.0103C103.076 63.8229 105.817 63.666 109.197 63.666C112.577 63.666 115.318 63.8185 115.318 64.0103Z" fill="#455A64"/>
<path d="M99.8851 82.8531C99.8851 83.0405 94.6815 83.193 88.2608 83.193C81.8402 83.193 76.633 83.0405 76.633 82.8531C76.633 82.6657 81.8366 82.5132 88.2608 82.5132C94.6851 82.5132 99.8851 82.6875 99.8851 82.8531Z" fill="#455A64"/>
<path d="M126.217 82.8531C126.217 83.0405 121.01 83.193 114.593 83.193C108.176 83.193 102.965 83.0405 102.965 82.8531C102.965 82.6657 108.169 82.5132 114.593 82.5132C121.017 82.5132 126.217 82.6875 126.217 82.8531Z" fill="#6DD2AE"/>
<path d="M99.8851 87.8858C99.8851 88.0732 94.6815 88.2257 88.2608 88.2257C81.8402 88.2257 76.633 88.0732 76.633 87.8858C76.633 87.6984 81.8366 87.5459 88.2608 87.5459C94.6851 87.5459 99.8851 87.6984 99.8851 87.8858Z" fill="#455A64"/>
<path d="M99.8851 92.9185C99.8851 93.1059 94.6815 93.2584 88.2608 93.2584C81.8402 93.2584 76.633 93.1059 76.633 92.9185C76.633 92.7311 81.8366 92.5742 88.2608 92.5742C94.6851 92.5742 99.8851 92.7093 99.8851 92.9185Z" fill="#6DD2AE"/>
<path d="M115.318 74.2598C115.318 74.4472 112.577 74.5997 109.197 74.5997C105.817 74.5997 103.076 74.4472 103.076 74.2598C103.076 74.0724 105.817 73.9199 109.197 73.9199C112.577 73.9199 115.318 74.0724 115.318 74.2598Z" fill="#455A64"/>
<path d="M136.553 82.8531C136.553 83.0405 134.726 83.193 132.474 83.193C130.222 83.193 128.391 83.0405 128.391 82.8531C128.391 82.6657 130.218 82.5132 132.474 82.5132C134.729 82.5132 136.553 82.6875 136.553 82.8531Z" fill="#455A64"/>
<path d="M138.737 64.0103C138.737 64.1977 134.033 64.3502 128.234 64.3502C122.434 64.3502 117.73 64.1977 117.73 64.0103C117.73 63.8229 122.431 63.666 128.234 63.666C134.037 63.666 138.737 63.8185 138.737 64.0103Z" fill="#455A64"/>
<path d="M137.788 68.9166C137.788 69.1039 130.018 69.2565 120.432 69.2565C110.846 69.2565 103.076 69.1039 103.076 68.9166C103.076 68.7292 110.846 68.5767 120.432 68.5767C130.018 68.5767 137.788 68.7423 137.788 68.9166Z" fill="#455A64"/>
<path d="M136.553 87.8858C136.553 88.0732 129.033 88.2257 119.779 88.2257C110.524 88.2257 102.983 88.0732 102.983 87.8858C102.983 87.6984 110.499 87.5459 119.779 87.5459C129.058 87.5459 136.553 87.6984 136.553 87.8858Z" fill="#455A64"/>
<path d="M136.553 102.454C136.553 102.641 129.497 102.794 120.796 102.794C112.095 102.794 105.035 102.641 105.035 102.454C105.035 102.266 112.091 102.114 120.796 102.114C129.501 102.114 136.553 102.266 136.553 102.454Z" fill="#6DD2AE"/>
<path d="M136.553 107.352C136.553 107.539 129.497 107.692 120.796 107.692C112.095 107.692 105.035 107.539 105.035 107.352C105.035 107.164 112.091 107.012 120.796 107.012C129.501 107.012 136.553 107.164 136.553 107.352Z" fill="#455A64"/>
<path d="M136.553 112.25C136.553 112.437 129.497 112.59 120.796 112.59C112.095 112.59 105.035 112.437 105.035 112.25C105.035 112.063 112.091 111.91 120.796 111.91C129.501 111.91 136.553 112.063 136.553 112.25Z" fill="#455A64"/>
<path d="M136.553 117.148C136.553 117.335 129.497 117.487 120.796 117.487C112.095 117.487 105.035 117.335 105.035 117.148C105.035 116.96 112.091 116.808 120.796 116.808C129.501 116.808 136.553 116.96 136.553 117.148Z" fill="#455A64"/>
<path d="M123.18 122.046C123.18 122.137 122.163 122.225 120.521 122.286C118.879 122.347 116.595 122.386 114.097 122.386C111.599 122.386 109.322 122.347 107.673 122.286C106.024 122.225 105.017 122.137 105.017 122.046C105.017 121.954 106.031 121.867 107.673 121.806C109.314 121.745 111.599 121.706 114.097 121.706C116.595 121.706 118.869 121.745 120.521 121.806C122.174 121.867 123.18 121.95 123.18 122.046Z" fill="#455A64"/>
<path d="M130.843 93.1802C130.843 93.3676 124.775 93.5201 117.281 93.5201C109.786 93.5201 103.718 93.3676 103.718 93.1802C103.718 92.9929 109.786 92.8403 117.281 92.8403C124.775 92.8403 130.843 92.9929 130.843 93.1802Z" fill="#455A64"/>
<path d="M99.3356 103.007L101.009 140.814L70.7335 145.442L70.7085 102.685L99.3356 103.007Z" fill="#E0E0E0"/>
<path d="M60.1356 100.387L59.9235 140.495L101.009 140.819L101.221 100.711L60.1356 100.387Z" fill="#F5F5F5"/>
<path d="M61.5389 102.926L61.3535 137.983L99.5518 138.284L99.7372 103.227L61.5389 102.926Z" fill="#6DD2AE"/>
<g opacity="0.2">
<path opacity="0.2" d="M61.3505 137.978L74.8093 116.294L83.0002 129.99L88.6464 122.748L99.5533 138.278L61.3505 137.978Z" fill="black"/>
</g>
<g opacity="0.2">
<path opacity="0.2" d="M86.5942 113.714C86.5906 114.441 86.4106 115.15 86.0769 115.752C85.7432 116.353 85.2708 116.821 84.7195 117.095C84.1682 117.369 83.5627 117.437 82.9797 117.29C82.3967 117.144 81.8623 116.79 81.4442 116.273C81.0261 115.755 80.743 115.098 80.6308 114.385C80.5186 113.671 80.5823 112.933 80.8138 112.263C81.0453 111.594 81.4343 111.023 81.9314 110.624C82.4286 110.224 83.0117 110.013 83.6069 110.019C84.0018 110.021 84.3924 110.119 84.7564 110.307C85.1203 110.494 85.4504 110.767 85.7279 111.11C86.0053 111.453 86.2246 111.86 86.3733 112.307C86.5219 112.754 86.597 113.232 86.5942 113.714Z" fill="black"/>
</g>
<path d="M104.964 150.275C104.964 150.428 104.927 150.578 104.857 150.706C104.787 150.833 104.688 150.933 104.572 150.991C104.456 151.05 104.328 151.065 104.205 151.035C104.081 151.006 103.968 150.932 103.879 150.823C103.791 150.715 103.73 150.576 103.706 150.426C103.681 150.276 103.694 150.12 103.742 149.978C103.79 149.836 103.871 149.715 103.976 149.63C104.08 149.545 104.203 149.499 104.329 149.499C104.412 149.498 104.495 149.518 104.572 149.557C104.65 149.596 104.72 149.653 104.779 149.725C104.838 149.797 104.885 149.883 104.916 149.977C104.948 150.072 104.964 150.173 104.964 150.275Z" fill="#263238"/>
<path d="M108.736 150.275C108.736 150.428 108.699 150.578 108.629 150.706C108.559 150.833 108.46 150.933 108.344 150.991C108.228 151.05 108.1 151.065 107.977 151.035C107.854 151.006 107.741 150.932 107.652 150.823C107.563 150.715 107.502 150.576 107.478 150.426C107.453 150.276 107.466 150.12 107.514 149.978C107.562 149.836 107.644 149.715 107.748 149.63C107.853 149.545 107.975 149.499 108.101 149.499C108.269 149.499 108.431 149.581 108.55 149.726C108.669 149.872 108.736 150.069 108.736 150.275Z" fill="#263238"/>
<path d="M112.505 150.275C112.505 150.428 112.468 150.578 112.398 150.706C112.328 150.833 112.229 150.933 112.113 150.991C111.997 151.05 111.869 151.065 111.746 151.035C111.623 151.006 111.51 150.932 111.421 150.823C111.332 150.715 111.271 150.576 111.247 150.426C111.222 150.276 111.235 150.12 111.283 149.978C111.331 149.836 111.412 149.715 111.517 149.63C111.621 149.545 111.744 149.499 111.87 149.499C112.038 149.499 112.2 149.581 112.319 149.726C112.438 149.872 112.505 150.069 112.505 150.275Z" fill="#263238"/>
<path d="M126.396 132.252C126.396 132.439 121.189 132.591 114.768 132.591C108.347 132.591 103.14 132.439 103.14 132.252C103.14 132.064 108.347 131.912 114.768 131.912C121.189 131.912 126.396 132.064 126.396 132.252Z" fill="#6DD2AE"/>
<path d="M136.732 137.285C136.732 137.472 129.212 137.625 119.936 137.625C110.66 137.625 103.14 137.472 103.14 137.285C103.14 137.097 110.66 136.945 119.936 136.945C129.212 136.945 136.732 137.097 136.732 137.285Z" fill="#455A64"/>
<path d="M211.488 146.235L211.29 170.394L236.038 170.696L236.235 146.537L211.488 146.235Z" fill="#F5F5F5"/>
<path d="M211.477 147.203L211.365 168.32L234.374 168.502L234.486 147.385L211.477 147.203Z" fill="#6DD2AE"/>
<path opacity="0.2" d="M211.36 168.311L219.465 155.251L224.401 163.501L227.802 159.139L234.369 168.494L211.36 168.311Z" fill="black"/>
<g opacity="0.2">
<path opacity="0.2" d="M226.567 153.717C226.566 154.155 226.458 154.583 226.257 154.946C226.057 155.309 225.773 155.591 225.441 155.757C225.109 155.923 224.744 155.965 224.392 155.877C224.041 155.79 223.718 155.577 223.466 155.266C223.213 154.955 223.042 154.559 222.974 154.129C222.906 153.699 222.944 153.254 223.083 152.85C223.222 152.446 223.456 152.102 223.755 151.861C224.055 151.619 224.406 151.492 224.765 151.495C225.245 151.498 225.705 151.734 226.043 152.151C226.38 152.567 226.569 153.131 226.567 153.717Z" fill="black"/>
</g>
<path d="M207.004 143.15L206.876 167.308L231.623 167.503L231.751 143.345L207.004 143.15Z" fill="#F5F5F5"/>
<path d="M207.852 144.677L207.741 165.794L230.75 165.975L230.861 144.858L207.852 144.677Z" fill="#6DD2AE"/>
<path opacity="0.2" d="M207.73 165.788L215.835 152.728L220.771 160.977L224.172 156.615L230.739 165.971L207.73 165.788Z" fill="black"/>
<g opacity="0.2">
<path opacity="0.2" d="M222.938 151.176C222.935 151.615 222.827 152.043 222.625 152.406C222.423 152.769 222.137 153.051 221.804 153.215C221.471 153.38 221.105 153.42 220.754 153.33C220.402 153.24 220.08 153.025 219.829 152.711C219.577 152.398 219.408 152 219.342 151.569C219.276 151.137 219.317 150.692 219.459 150.289C219.601 149.886 219.838 149.543 220.139 149.305C220.441 149.066 220.794 148.943 221.153 148.949C221.631 148.959 222.086 149.198 222.42 149.615C222.755 150.032 222.94 150.593 222.938 151.176Z" fill="black"/>
</g>
<path d="M203.775 141.07L203.647 165.229L228.394 165.424L228.522 141.266L203.775 141.07Z" fill="#F5F5F5"/>
<path d="M204.62 142.594L204.508 163.71L227.517 163.892L227.628 142.775L204.62 142.594Z" fill="#6DD2AE"/>
<path opacity="0.2" d="M204.5 163.705L212.605 150.641L217.541 158.894L220.939 154.528L227.51 163.884L204.5 163.705Z" fill="black"/>
<g opacity="0.2">
<path opacity="0.2" d="M219.704 149.09C219.702 149.529 219.593 149.957 219.391 150.32C219.189 150.683 218.904 150.964 218.571 151.129C218.238 151.293 217.872 151.333 217.52 151.243C217.168 151.154 216.846 150.938 216.595 150.625C216.344 150.311 216.175 149.913 216.109 149.482C216.043 149.051 216.083 148.605 216.225 148.202C216.367 147.799 216.604 147.457 216.906 147.218C217.207 146.98 217.56 146.856 217.92 146.863C218.397 146.872 218.853 147.111 219.187 147.528C219.521 147.945 219.707 148.506 219.704 149.09Z" fill="black"/>
</g>
<path d="M200.958 144.209L200.76 168.368L225.508 168.67L225.705 144.511L200.958 144.209Z" fill="#F5F5F5"/>
<path d="M200.991 145.19L200.88 166.307L223.889 166.489L224 145.372L200.991 145.19Z" fill="#455A64"/>
<path opacity="0.2" d="M200.87 166.303L208.976 153.238L213.912 161.487L217.309 157.125L223.88 166.481L200.87 166.303Z" fill="black"/>
<g opacity="0.2">
<path opacity="0.2" d="M216.089 151.687C216.086 152.125 215.978 152.553 215.776 152.916C215.574 153.279 215.288 153.561 214.955 153.725C214.622 153.89 214.256 153.93 213.905 153.84C213.553 153.75 213.231 153.535 212.98 153.221C212.728 152.908 212.559 152.51 212.493 152.079C212.427 151.647 212.468 151.202 212.61 150.799C212.752 150.396 212.989 150.053 213.29 149.815C213.592 149.576 213.945 149.453 214.304 149.46C214.782 149.467 215.239 149.705 215.574 150.122C215.908 150.54 216.093 151.102 216.089 151.687Z" fill="black"/>
</g>
<path d="M239.17 152.641H224.883V175.967H239.17V152.641Z" fill="#263238"/>
<path d="M197.53 152.641V175.963H226.082V152.641H197.53ZM214.857 158.157H208.79C208.442 158.157 208.108 157.989 207.861 157.688C207.615 157.387 207.477 156.979 207.477 156.554C207.477 156.129 207.615 155.721 207.861 155.42C208.108 155.119 208.442 154.95 208.79 154.95H214.857C215.206 154.95 215.54 155.119 215.786 155.42C216.032 155.721 216.171 156.129 216.171 156.554C216.171 156.979 216.032 157.387 215.786 157.688C215.54 157.989 215.206 158.157 214.857 158.157Z" fill="#6DD2AE"/>
<path d="M194.557 179.832L167.986 177.845C167.818 177.379 167.708 177.109 167.708 177.109L160.505 177.288L158.161 177.109L158.068 177.344L133.891 177.932C129.07 177.932 124.002 181.523 124.002 186.112C123.941 190.47 125.675 195.219 129.994 195.11L162.932 194.975L195.874 195.11C200.193 195.219 201.335 192.06 201.342 188.265C201.845 181.24 198.241 179.889 194.557 179.832Z" fill="#455A64"/>
<path d="M133.017 195.116H133.174H133.641L135.426 195.094L142.057 195.059L164.185 195.024L164.092 195.142C164.046 194.27 163.999 193.316 163.949 192.366C163.85 190.422 163.753 188.505 163.66 186.701L163.742 186.806L143.363 183.991L137.325 183.15L135.697 182.91L135.276 182.844C135.229 182.84 135.182 182.829 135.137 182.814H135.28L135.701 182.862L137.332 183.058L143.378 183.834L163.76 186.527H163.835V186.618C163.932 188.44 164.028 190.353 164.128 192.283C164.178 193.233 164.224 194.179 164.271 195.059V195.181H164.174L142.046 195.142L135.415 195.107H133.631H133.163L133.017 195.116Z" fill="#263238"/>
<path d="M139.809 183.577C139.787 183.607 139.452 183.28 138.877 182.849C138.121 182.287 137.307 181.847 136.457 181.542C135.606 181.245 134.727 181.087 133.841 181.071C133.163 181.071 132.742 181.123 132.739 181.071C132.832 181.025 132.931 180.997 133.031 180.988C133.299 180.938 133.57 180.908 133.841 180.901C135.655 180.836 137.44 181.462 138.949 182.692C139.176 182.875 139.393 183.076 139.598 183.293C139.741 183.472 139.816 183.555 139.809 183.577Z" fill="#263238"/>
<path d="M192.494 181.851C192.494 181.912 187.266 183.459 180.792 185.307C174.318 187.154 169.053 188.601 169.042 188.54C169.032 188.479 174.271 186.932 180.749 185.084C187.227 183.237 192.484 181.812 192.494 181.851Z" fill="#263238"/>
<path d="M188.065 181.224C187.347 181.535 186.658 181.938 186.01 182.426C185.398 182.979 184.839 183.613 184.343 184.318C184.422 184.054 184.544 183.813 184.7 183.607C185.393 182.545 186.336 181.767 187.402 181.376C187.614 181.277 187.838 181.226 188.065 181.224Z" fill="#263238"/>
<path d="M178.172 144.387L186.591 162.28C187.103 163.368 187.386 164.593 187.416 165.847C187.445 167.101 187.219 168.344 186.759 169.466C186.228 170.76 185.406 171.842 184.389 172.586C183.372 173.329 182.202 173.703 181.017 173.662L168.09 173.226L167.751 167.487L179.132 164.816L171.459 148.597L178.172 144.387Z" fill="#FFBE9D"/>
<path d="M146.8 175.004L158.685 178.848L158.946 174.49L147.992 166.725L155.994 148.597L149.281 144.387L140.862 162.28C140.383 163.364 140.107 164.563 140.052 165.793C139.997 167.022 140.164 168.251 140.542 169.393C140.921 170.534 141.5 171.56 142.24 172.396C142.98 173.233 143.862 173.86 144.823 174.233L146.8 175.004Z" fill="#FFBE9D"/>
<path d="M173.591 154.037L181.714 148.807C180.714 146.334 179.55 143.964 178.234 141.722C175.718 137.473 171.81 134.506 167.384 133.373L158.041 133.508C156.899 133.631 155.777 133.946 154.707 134.445V134.401C149.635 135.765 144 149.269 144 149.269L151.416 154.024L151.581 155.444C151.798 157.327 152.469 159.088 153.508 160.504L151.366 177.79L175.329 178.396L172.284 166.029L173.591 154.037Z" fill="#6DD2AE"/>
<path d="M154.727 162.437C154.597 162.347 154.477 162.235 154.37 162.106C154.062 161.775 153.788 161.401 153.553 160.99C152.783 159.609 152.428 157.944 152.55 156.28C152.671 155.39 152.855 154.516 153.1 153.665C153.314 152.876 153.535 152.179 153.724 151.595C153.913 151.011 154.081 150.545 154.195 150.227C154.248 150.056 154.317 149.893 154.402 149.743C154.37 149.921 154.323 150.095 154.263 150.262C154.153 150.632 154.013 151.098 153.846 151.652C153.678 152.205 153.467 152.959 153.264 153.73C153.029 154.574 152.852 155.44 152.736 156.319C152.676 157.198 152.745 158.084 152.939 158.934C153.093 159.632 153.333 160.298 153.653 160.908C153.976 161.453 154.335 161.965 154.727 162.437Z" fill="#263238"/>
<path d="M151.13 183.803L149.773 164.52H179L177.062 184.042L151.13 183.803Z" fill="#263238"/>
<path d="M166.248 174.805C166.249 175.255 166.14 175.695 165.936 176.07C165.731 176.445 165.44 176.737 165.1 176.91C164.759 177.082 164.384 177.128 164.022 177.04C163.661 176.952 163.328 176.736 163.068 176.417C162.807 176.099 162.629 175.693 162.558 175.252C162.486 174.81 162.523 174.352 162.664 173.936C162.806 173.521 163.045 173.165 163.352 172.916C163.659 172.666 164.02 172.533 164.389 172.534C164.882 172.534 165.355 172.773 165.703 173.199C166.052 173.625 166.248 174.202 166.248 174.805Z" fill="#FAFAFA"/>
<path d="M163.875 187.568L168.839 188.414V195.003L164.274 194.859L163.875 187.568Z" fill="#FFBE9D"/>
<path d="M168.843 188.414H171.073C171.507 188.414 171.933 188.553 172.308 188.819L173.482 189.656C174.147 190.105 174.833 190.504 175.538 190.85C176.894 191.381 179.175 192.1 179.657 192.553C181.027 193.861 180.61 195.373 179.857 195.53C179.196 195.673 168.839 195.007 168.839 195.007L168.843 188.414Z" fill="#6DD2AE"/>
<path d="M172.501 194.449C172.328 193.903 172.247 193.321 172.262 192.736C172.214 192.148 172.268 191.554 172.419 190.993C172.455 191.564 172.464 192.138 172.447 192.71C172.493 193.288 172.511 193.868 172.501 194.449Z" fill="#263238"/>
<path d="M173.561 194.418C173.444 193.375 173.452 192.316 173.582 191.276C173.669 191.793 173.696 192.323 173.664 192.849C173.69 193.375 173.655 193.903 173.561 194.418Z" fill="#263238"/>
<path d="M174.81 194.68C174.618 193.617 174.548 192.528 174.603 191.442C174.729 191.964 174.795 192.505 174.799 193.05C174.864 193.59 174.867 194.138 174.81 194.68Z" fill="#263238"/>
<path d="M171.537 192.706C171.378 192.68 171.223 192.621 171.08 192.531C170.675 192.324 170.298 192.04 169.963 191.69C169.86 191.582 169.753 191.459 169.646 191.324C169.525 191.186 169.428 191.02 169.36 190.836C169.321 190.726 169.307 190.605 169.318 190.486C169.329 190.367 169.366 190.253 169.424 190.157C169.493 190.054 169.592 189.989 169.699 189.974C169.801 189.96 169.905 189.973 170.003 190.013C170.391 190.183 170.733 190.483 170.99 190.878C171.247 191.273 171.409 191.747 171.458 192.248C171.506 192.749 171.44 193.257 171.265 193.714C171.091 194.171 170.815 194.56 170.47 194.837C170.316 194.972 170.141 195.068 169.956 195.12C169.861 195.148 169.762 195.148 169.667 195.12C169.618 195.1 169.573 195.068 169.534 195.026C169.495 194.984 169.464 194.933 169.442 194.876C169.41 194.773 169.4 194.662 169.411 194.552C169.422 194.443 169.455 194.339 169.506 194.248C169.584 194.087 169.68 193.941 169.792 193.813C170.109 193.439 170.483 193.143 170.891 192.941C171.036 192.856 171.192 192.803 171.352 192.784C171.352 192.784 171.195 192.863 170.92 193.024C170.534 193.252 170.184 193.56 169.885 193.935C169.785 194.05 169.7 194.182 169.631 194.327C169.595 194.393 169.571 194.469 169.562 194.548C169.552 194.627 169.558 194.708 169.578 194.784C169.614 194.856 169.669 194.91 169.734 194.937C169.8 194.964 169.87 194.962 169.935 194.933C170.096 194.882 170.247 194.795 170.381 194.675C170.697 194.418 170.948 194.059 171.107 193.638C171.266 193.217 171.327 192.751 171.283 192.29C171.24 191.83 171.092 191.393 170.858 191.028C170.624 190.663 170.312 190.384 169.956 190.222C169.892 190.183 169.819 190.169 169.747 190.181C169.676 190.194 169.609 190.232 169.556 190.292C169.516 190.361 169.49 190.442 169.483 190.527C169.475 190.611 169.486 190.697 169.514 190.775C169.65 191.085 169.835 191.357 170.06 191.577C170.503 192.042 171.001 192.422 171.537 192.706Z" fill="#263238"/>
<path d="M179.857 195.525C179.97 195.403 180.062 195.255 180.128 195.089C180.193 194.863 180.214 194.62 180.188 194.382C180.163 194.144 180.092 193.916 179.982 193.717C179.66 193.108 179.172 192.658 178.604 192.449C177.972 192.17 177.223 192.039 176.463 191.747C175.163 191.271 173.923 190.582 172.776 189.699C172.34 189.359 172.001 189.054 171.773 188.827C171.648 188.722 171.534 188.599 171.434 188.461C171.568 188.544 171.696 188.641 171.816 188.753C172.055 188.949 172.401 189.233 172.847 189.555C174.001 190.39 175.232 191.051 176.516 191.525C177.262 191.808 178.008 191.961 178.657 192.244C179.256 192.481 179.763 192.975 180.085 193.634C180.198 193.855 180.265 194.106 180.281 194.365C180.298 194.625 180.262 194.885 180.178 195.124C180.122 195.247 180.043 195.353 179.949 195.434C179.907 195.512 179.86 195.534 179.857 195.525Z" fill="#263238"/>
<path d="M176.477 139.947C176.481 139.979 176.481 140.011 176.477 140.043V140.313C176.459 140.566 176.43 140.919 176.398 141.368C176.32 142.305 176.209 143.643 176.073 145.325V145.425L175.999 145.377L171.666 142.592L171.769 142.557L169.428 147.386L169.378 147.486L169.299 147.416L165.374 143.725H165.488L163.771 145.368L161.43 147.604L161.344 147.686L161.294 147.569L159.064 142.536L159.174 142.579L154.449 145.15L154.36 145.198V145.085L153.646 139.952L153.717 140.004L150.998 141.285L150.284 141.608L150.098 141.69L150.034 141.712C150.034 141.712 150.052 141.712 150.091 141.673L150.273 141.577L150.987 141.22L153.674 139.912L153.735 139.886V139.965C153.946 141.394 154.195 143.115 154.484 145.089L154.385 145.024L159.099 142.409L159.174 142.37L159.213 142.453C159.927 144.048 160.67 145.73 161.451 147.486L161.312 147.451L163.653 145.211L165.37 143.568L165.427 143.516L165.484 143.568L169.41 147.268L169.282 147.299L171.641 142.505L171.676 142.431L171.741 142.47L176.024 145.285L175.941 145.338L176.32 141.39C176.366 140.954 176.402 140.592 176.427 140.339C176.427 140.23 176.452 140.143 176.459 140.069C176.462 140.028 176.468 139.987 176.477 139.947Z" fill="#F5F5F5"/>
<path d="M179.946 144.802C179.944 144.845 179.938 144.887 179.928 144.928C179.907 145.024 179.882 145.146 179.853 145.299C179.778 145.634 179.678 146.113 179.546 146.724C179.271 147.979 178.872 149.774 178.379 152.027L178.358 152.114L178.293 152.075L173.258 149.129L173.357 149.094C172.069 151.334 170.641 153.822 169.117 156.48L169.053 156.589L168.978 156.493L164.917 151.447L164.06 150.388H164.174L158.685 154.594L158.607 154.655L158.56 154.559L155.598 148.17L155.691 148.214L150.045 150.589L149.991 150.611L149.973 150.545C149.438 148.654 149.013 147.151 148.721 146.109C148.581 145.604 148.471 145.207 148.396 144.928C148.36 144.802 148.335 144.702 148.314 144.623C148.302 144.59 148.295 144.555 148.292 144.519C148.308 144.55 148.32 144.583 148.328 144.619L148.424 144.915C148.506 145.194 148.624 145.582 148.781 146.083C149.085 147.12 149.527 148.615 150.084 150.502L150.013 150.458L155.637 148.048L155.698 148.022L155.73 148.092L158.71 154.463L158.585 154.424L164.074 150.21L164.135 150.162L164.189 150.227C164.472 150.582 164.757 150.935 165.045 151.286L169.117 156.337H168.978L173.24 148.968L173.275 148.902L173.336 148.937L178.354 151.927L178.272 151.975L179.493 146.689L179.828 145.272C179.867 145.124 179.896 145.002 179.921 144.911C179.926 144.873 179.934 144.837 179.946 144.802Z" fill="#F5F5F5"/>
<path d="M176.338 114.403C175.622 114.494 174.898 114.405 174.211 114.14C173.525 113.876 172.89 113.441 172.347 112.864C173.647 113.666 175.377 112.564 175.838 110.877C176.298 109.191 175.92 106.049 174.785 104.933C174.24 104.404 173.602 104.035 172.921 103.857C172.24 103.679 171.534 103.695 170.859 103.905C169.521 104.341 168.104 106.829 167.665 108.433L167.69 108.481C167.486 108.38 167.276 108.289 167.069 108.202C165.588 107.562 164.01 107.329 162.447 107.518C160.88 107.716 159.403 108.51 158.225 109.788L167.301 127.598C168.95 127.423 170.409 126.064 171.273 124.343C172.137 122.621 172.469 120.569 172.551 118.551C172.572 118.041 172.569 117.532 172.551 117.022L175.467 117.593C174.944 116.735 174.285 116.015 173.529 115.475C174.029 115.693 174.573 115.707 175.08 115.514C175.587 115.32 176.029 114.93 176.338 114.403Z" fill="#263238"/>
<path d="M164.874 142.043C166.059 142.013 167.187 141.421 168.021 140.393C168.855 139.365 169.329 137.982 169.342 136.535L169.553 114.376C169.564 113.934 169.436 113.503 169.196 113.171C168.956 112.839 168.622 112.631 168.261 112.59L160.595 110.223C158.136 109.91 156.508 113.596 156.351 116.603C156.18 119.945 156.076 124.033 156.401 126.53C157.054 131.541 160.202 132.195 160.202 132.195C160.202 132.195 160.202 134.134 160.202 136.509C160.205 137.249 160.328 137.98 160.565 138.661C160.801 139.342 161.147 139.959 161.581 140.475C162.014 140.991 162.528 141.397 163.092 141.669C163.655 141.94 164.257 142.072 164.863 142.056L164.874 142.043Z" fill="#FFBE9D"/>
<path d="M157.943 119.85C157.942 120.018 157.995 120.18 158.09 120.301C158.185 120.423 158.316 120.494 158.453 120.499C158.52 120.506 158.588 120.496 158.651 120.47C158.715 120.444 158.774 120.403 158.825 120.349C158.875 120.295 158.916 120.229 158.946 120.156C158.975 120.082 158.992 120.002 158.996 119.92C158.998 119.752 158.946 119.59 158.851 119.469C158.756 119.347 158.626 119.276 158.489 119.271C158.422 119.264 158.354 119.274 158.29 119.3C158.226 119.325 158.167 119.366 158.116 119.42C158.065 119.474 158.024 119.54 157.994 119.614C157.964 119.688 157.947 119.768 157.943 119.85Z" fill="#263238"/>
<path d="M157.065 118.73C157.129 118.817 157.529 118.455 158.096 118.455C158.664 118.455 159.078 118.804 159.139 118.721C159.199 118.638 159.103 118.529 158.921 118.368C158.675 118.163 158.384 118.054 158.086 118.054C157.79 118.053 157.503 118.168 157.265 118.381C157.104 118.542 157.065 118.695 157.065 118.73Z" fill="#263238"/>
<path d="M163.336 119.85C163.334 120.018 163.386 120.181 163.482 120.302C163.577 120.424 163.708 120.495 163.846 120.499C163.913 120.506 163.981 120.496 164.045 120.47C164.109 120.444 164.168 120.403 164.219 120.349C164.27 120.295 164.311 120.23 164.341 120.156C164.371 120.082 164.388 120.002 164.392 119.92C164.393 119.752 164.34 119.59 164.245 119.468C164.15 119.347 164.019 119.276 163.882 119.27C163.814 119.263 163.747 119.273 163.682 119.298C163.618 119.324 163.559 119.365 163.508 119.419C163.457 119.473 163.416 119.539 163.386 119.613C163.356 119.687 163.339 119.768 163.336 119.85Z" fill="#263238"/>
<path d="M162.65 118.86C162.715 118.943 163.114 118.586 163.682 118.586C164.249 118.586 164.663 118.934 164.724 118.847C164.785 118.76 164.688 118.66 164.506 118.498C164.261 118.291 163.969 118.182 163.671 118.185C163.376 118.182 163.089 118.295 162.85 118.507C162.675 118.673 162.618 118.821 162.65 118.86Z" fill="#263238"/>
<path d="M160.591 123.994C160.292 123.88 159.983 123.811 159.67 123.789C159.527 123.789 159.392 123.737 159.367 123.615C159.353 123.433 159.387 123.25 159.463 123.092L159.892 121.746C160.484 119.833 160.916 118.259 160.852 118.229C160.787 118.198 160.256 119.728 159.66 121.645L159.249 122.996C159.16 123.21 159.134 123.455 159.174 123.689C159.195 123.753 159.227 123.809 159.268 123.855C159.31 123.9 159.359 123.933 159.413 123.951C159.494 123.977 159.576 123.99 159.66 123.99C159.969 124.039 160.282 124.041 160.591 123.994Z" fill="#263238"/>
<path d="M160.202 132.182C162.136 132.218 164.04 131.598 165.702 130.391C165.702 130.391 164.367 133.834 160.256 133.363L160.202 132.182Z" fill="#EB996E"/>
<path d="M160.834 125.658C160.942 125.493 161.082 125.364 161.242 125.283C161.402 125.202 161.576 125.173 161.747 125.196C161.873 125.212 161.995 125.259 162.105 125.334C162.216 125.409 162.313 125.51 162.39 125.632C162.466 125.747 162.511 125.888 162.52 126.035C162.528 126.182 162.499 126.329 162.436 126.456C162.345 126.58 162.226 126.668 162.094 126.709C161.962 126.75 161.822 126.742 161.694 126.687C161.431 126.568 161.188 126.389 160.98 126.159C160.916 126.105 160.862 126.035 160.819 125.955C160.799 125.917 160.787 125.872 160.787 125.826C160.787 125.78 160.799 125.736 160.819 125.698" fill="#EB996E"/>
<path d="M162.261 124.469C162.169 124.469 162.169 125.214 161.64 125.75C161.112 126.286 160.459 126.186 160.456 126.304C160.452 126.421 160.602 126.452 160.877 126.461C161.239 126.461 161.59 126.307 161.869 126.025C162.136 125.757 162.308 125.373 162.347 124.953C162.372 124.652 162.301 124.469 162.261 124.469Z" fill="#263238"/>
<path d="M162.393 117.649C162.451 117.836 163.014 117.749 163.682 117.845C164.349 117.941 164.885 118.163 164.97 117.998C165.009 117.915 164.917 117.74 164.703 117.562C164.413 117.339 164.085 117.199 163.744 117.153C163.404 117.106 163.059 117.156 162.736 117.296C162.493 117.414 162.368 117.562 162.393 117.649Z" fill="#263238"/>
<path d="M157.158 117.453C157.258 117.61 157.647 117.453 158.118 117.453C158.589 117.453 158.985 117.562 159.074 117.397C159.117 117.314 159.053 117.157 158.878 117.009C158.647 116.826 158.375 116.736 158.1 116.752C157.823 116.758 157.555 116.869 157.333 117.07C157.168 117.218 157.115 117.379 157.158 117.453Z" fill="#263238"/>
<path d="M169.096 120.608C169.262 120.498 169.45 120.447 169.639 120.458C169.828 120.47 170.01 120.544 170.167 120.673C170.546 120.944 170.837 121.366 170.991 121.868C171.145 122.37 171.152 122.922 171.011 123.43C170.87 123.938 170.59 124.371 170.217 124.656C169.845 124.94 169.403 125.059 168.968 124.992" fill="#FFBE9D"/>
<path d="M169.385 123.497C169.385 123.462 169.542 123.536 169.742 123.427C169.866 123.342 169.966 123.213 170.03 123.058C170.093 122.903 170.117 122.728 170.099 122.556C170.099 122.384 170.057 122.217 169.979 122.074C169.9 121.931 169.79 121.82 169.66 121.754C169.453 121.649 169.303 121.702 169.303 121.662C169.303 121.623 169.442 121.506 169.713 121.58C169.87 121.625 170.011 121.732 170.113 121.885C170.237 122.071 170.309 122.302 170.317 122.543C170.338 122.762 170.3 122.984 170.207 123.173C170.113 123.363 169.971 123.509 169.803 123.589C169.514 123.689 169.364 123.514 169.385 123.497Z" fill="#EB996E"/>
<path d="M170.506 124.513C170.506 124.513 170.577 124.561 170.695 124.674L171.198 125.162L172.983 127.001L173.043 127.062L172.993 127.136C172.333 128.103 171.598 129.315 170.774 130.579C170.584 130.866 170.399 131.145 170.217 131.407L170.063 131.624V131.337C169.992 129.297 169.931 127.489 169.899 126.19C169.899 125.576 169.878 125.062 169.871 124.665C169.857 124.48 169.857 124.293 169.871 124.107C169.906 124.289 169.925 124.474 169.928 124.661C169.949 125.057 169.978 125.567 170.013 126.186C170.078 127.493 170.156 129.284 170.238 131.328L170.078 131.258L170.627 130.439C171.452 129.175 172.194 127.973 172.872 127.01V127.145L171.141 125.245L170.663 124.726C170.604 124.662 170.552 124.591 170.506 124.513Z" fill="#455A64"/>
<path d="M162.201 108.032C161.194 108.043 160.191 108.178 159.206 108.433C158.216 108.692 157.314 109.312 156.619 110.211C156.277 110.664 156.032 111.214 155.908 111.811C155.783 112.408 155.782 113.034 155.905 113.632C156.045 114.224 156.347 114.738 156.761 115.091C157.175 115.443 157.675 115.611 158.178 115.567C158.935 115.445 159.66 114.76 160.391 115.031C161.123 115.301 161.462 116.316 162.176 116.477C162.89 116.639 163.5 115.867 164.207 115.789C164.992 115.706 165.67 116.49 166.02 117.353C166.369 118.216 166.501 119.184 166.851 120.042C166.948 120.328 167.093 120.585 167.278 120.797C167.463 121.009 167.682 121.171 167.922 121.271C168.148 121.328 168.383 121.318 168.606 121.242C168.828 121.166 169.033 121.027 169.203 120.835C169.538 120.444 169.795 119.964 169.953 119.432C170.323 118.319 170.478 117.116 170.405 115.918C170.332 114.719 170.033 113.558 169.531 112.524C169.029 111.49 168.339 110.612 167.513 109.958C166.687 109.304 165.748 108.893 164.77 108.756" fill="#263238"/>
<path d="M172.208 113.357C172.176 113.357 172.08 112.951 171.83 112.337C171.159 110.735 170.026 109.493 168.65 108.851C168.125 108.607 167.779 108.533 167.783 108.494C167.786 108.454 167.875 108.494 168.032 108.494C168.258 108.531 168.48 108.594 168.696 108.681C169.413 108.97 170.072 109.439 170.631 110.058C171.193 110.674 171.641 111.429 171.948 112.272C172.042 112.524 172.116 112.786 172.169 113.056C172.196 113.153 172.209 113.254 172.208 113.357Z" fill="#6DD2AE"/>
<path d="M175.349 106.014C175.029 105.855 174.698 105.73 174.36 105.639C173.54 105.469 172.696 105.621 171.951 106.075C171.212 106.546 170.575 107.224 170.092 108.053C169.71 108.685 169.531 109.125 169.503 109.108C169.52 108.992 169.554 108.882 169.603 108.781C169.712 108.497 169.839 108.223 169.981 107.962C170.452 107.078 171.102 106.358 171.869 105.874C172.641 105.398 173.522 105.258 174.367 105.478C174.623 105.544 174.87 105.656 175.099 105.809C175.267 105.922 175.356 105.988 175.349 106.014Z" fill="#455A64"/>
<path d="M171.402 111.901C171.447 112.243 171.447 112.592 171.402 112.934C171.33 113.764 171.157 114.576 170.888 115.343C170.62 116.11 170.259 116.823 169.817 117.457C169.645 117.731 169.436 117.969 169.2 118.159C169.812 117.278 170.327 116.302 170.731 115.256C171.072 114.178 171.297 113.05 171.402 111.901Z" fill="#455A64"/>
<path d="M171.519 112.01C171.567 112.098 171.601 112.195 171.619 112.298C171.694 112.566 171.747 112.841 171.78 113.121C171.896 114.053 171.858 115.003 171.67 115.917C171.481 116.831 171.145 117.689 170.681 118.442C170.542 118.669 170.387 118.881 170.217 119.074C170.095 119.214 170.028 119.283 170.017 119.27C170.006 119.257 170.249 118.93 170.574 118.346C170.994 117.589 171.304 116.748 171.491 115.862C171.67 114.974 171.724 114.054 171.651 113.143C171.591 112.446 171.487 112.019 171.519 112.01Z" fill="#455A64"/>
<path d="M169.176 85.4491C168.783 85.6004 168.449 85.9228 168.237 86.3551C168.026 86.7875 167.952 87.2995 168.03 87.7938C168.108 88.2882 168.332 88.7304 168.659 89.0365C168.987 89.3425 169.395 89.4909 169.806 89.4536C170.217 89.4162 170.603 89.1956 170.889 88.8338C171.176 88.472 171.344 87.9942 171.361 87.4912C171.378 86.9882 171.243 86.4952 170.981 86.1058C170.72 85.7165 170.35 85.4579 169.943 85.3794" fill="#EBEBEB"/>
<path d="M174.001 76.8861C173.549 77.059 173.165 77.4286 172.922 77.9247C172.679 78.4208 172.593 79.0088 172.682 79.5768C172.77 80.1448 173.027 80.6532 173.403 81.0054C173.778 81.3576 174.247 81.529 174.719 81.487C175.191 81.4449 175.634 81.1924 175.964 80.7775C176.294 80.3625 176.487 79.8141 176.508 79.2364C176.528 78.6587 176.374 78.0921 176.074 77.6443C175.774 77.1965 175.35 76.8987 174.883 76.8076" fill="#EBEBEB"/>
<path d="M184.305 39.1505C181.093 38.8193 177.813 39.6996 175.597 42.5844C174.496 44.0437 173.675 45.7839 173.193 47.6788C172.712 49.5737 172.582 51.5758 172.813 53.5396C169.379 55.2827 167.509 60.6165 168.84 64.8696C170.172 69.1227 174.49 71.5369 177.995 70.0247C178.788 72.4762 180.09 74.6332 181.773 76.2829C183.457 77.9327 185.463 79.0182 187.595 79.4326C189.727 79.847 191.91 79.5759 193.93 78.6459C195.949 77.716 197.736 76.1595 199.113 74.1297C202.478 75.0579 206.251 75.0012 209.106 72.5783C211.961 70.1555 213.218 64.8478 211.062 61.5534C214.941 60.3986 216.911 54.4852 215.762 49.8138C214.613 45.1423 211.165 41.7956 207.489 39.9C205.059 38.645 202.025 37.9914 199.951 39.9828C199.117 38.4161 197.988 37.1154 196.659 36.1893C195.33 35.2632 193.838 34.7384 192.309 34.6586C190.78 34.5789 189.257 34.9465 187.868 35.7309C186.479 36.5153 185.263 37.6937 184.323 39.1679" fill="#F5F5F5"/>
<path d="M184.305 39.1486C184.305 39.1486 184.369 39.044 184.501 38.8436C184.697 38.5498 184.905 38.269 185.126 38.0025C185.987 36.9679 186.999 36.1388 188.11 35.5579C188.914 35.1323 189.761 34.8392 190.629 34.6863C191.668 34.5097 192.724 34.5495 193.752 34.804C194.942 35.0963 196.077 35.6548 197.1 36.4512C198.255 37.3511 199.242 38.5391 199.994 39.9373H199.902C200.783 39.1262 201.853 38.6776 202.957 38.6562C204.127 38.6301 205.292 38.8574 206.397 39.3273C207.571 39.8132 208.702 40.4454 209.77 41.2141C210.904 42.0132 211.953 42.9807 212.893 44.0946C213.887 45.2613 214.705 46.6332 215.309 48.1472C215.609 48.9372 215.839 49.764 215.994 50.6137C216.136 51.4855 216.185 52.376 216.141 53.2631C216.051 55.0953 215.57 56.8668 214.745 58.4009C214.315 59.179 213.779 59.8614 213.16 60.4185C212.53 60.9869 211.816 61.4039 211.058 61.6473L211.105 61.4774C211.573 62.2072 211.901 63.056 212.065 63.9613C212.227 64.8813 212.246 65.8302 212.122 66.7589C211.858 68.6667 211.109 70.4246 209.98 71.7833C208.795 73.1328 207.324 74.0505 205.733 74.4328C204.123 74.8345 202.468 74.8949 200.84 74.6115C200.244 74.52 199.655 74.3761 199.077 74.228L199.17 74.1888C198.117 75.7517 196.819 77.0418 195.353 77.983C193.886 78.9243 192.279 79.4977 190.628 79.6694C188.977 79.8412 187.314 79.6079 185.738 78.9832C184.162 78.3585 182.704 77.3551 181.45 76.0321C179.887 74.4201 178.67 72.3681 177.902 70.0533L178.009 70.11C177.022 70.4977 175.98 70.6302 174.949 70.4989C173.918 70.3676 172.92 69.9754 172.02 69.3474C171.164 68.7832 170.414 68.0081 169.816 67.0712C169.218 66.1343 168.786 65.056 168.548 63.9046C168.145 61.7384 168.399 59.4675 169.262 57.5119C170.025 55.7072 171.272 54.2768 172.795 53.4592L172.759 53.542C172.555 51.8153 172.63 50.0565 172.98 48.3651C173.427 46.1769 174.324 44.1641 175.586 42.5171C175.952 42.0508 176.352 41.6263 176.781 41.249C177.531 40.5904 178.361 40.0801 179.241 39.7369C180.881 39.121 182.606 38.9179 184.312 39.1399C184.312 39.1399 184.198 39.1399 183.977 39.1399C183.755 39.1399 183.427 39.1094 182.992 39.1094C181.723 39.1101 180.462 39.3527 179.255 39.8284C178.383 40.1749 177.562 40.6867 176.821 41.3449C176.397 41.7193 176.003 42.1409 175.643 42.6042C175.259 43.1116 174.908 43.6551 174.594 44.2297C173.9 45.5083 173.388 46.9213 173.08 48.4087C172.741 50.083 172.67 51.8219 172.873 53.529V53.5856L172.827 53.6118C171.336 54.4214 170.116 55.828 169.369 57.599C168.519 59.5157 168.265 61.7428 168.655 63.8698C168.898 64.9978 169.332 66.0513 169.928 66.963C170.524 67.8747 171.27 68.6245 172.117 69.1644C172.998 69.7769 173.973 70.1591 174.981 70.2867C175.99 70.4142 177.009 70.2843 177.974 69.9052L178.048 69.8746L178.081 69.9662C178.862 72.2935 180.098 74.3516 181.682 75.9606C183.265 77.5695 185.147 78.6803 187.164 79.1957C189.341 79.6893 191.586 79.4721 193.672 78.5661C195.759 77.6601 197.612 76.0975 199.045 74.0362L199.081 73.984H199.134C199.709 74.1321 200.291 74.2759 200.883 74.3631C202.488 74.6417 204.12 74.5828 205.708 74.1888C207.266 73.8181 208.708 72.9213 209.87 71.6003C210.968 70.2755 211.696 68.5615 211.951 66.7023C212.086 65.8143 212.07 64.9016 211.902 64.0218C211.734 63.1421 211.419 62.3143 210.976 61.5907L210.891 61.46L211.026 61.4164C211.761 61.1779 212.453 60.7745 213.068 60.2267C213.663 59.6738 214.177 59.002 214.588 58.2396C215.398 56.7377 215.871 55.0019 215.959 53.2065C216.007 52.3313 215.96 51.4521 215.819 50.5919C215.668 49.7584 215.443 48.9475 215.148 48.1734C214.555 46.678 213.751 45.3223 212.771 44.1687C211.842 43.0642 210.804 42.1054 209.681 41.3144C208.624 40.5483 207.506 39.9174 206.344 39.4318C205.254 38.9673 204.107 38.7402 202.953 38.7608C201.876 38.7769 200.831 39.2103 199.969 39.9983L199.916 40.0506L199.877 39.9809C198.458 37.3592 196.247 35.5306 193.727 34.8955C192.71 34.6383 191.666 34.5926 190.636 34.7604C188.574 35.1177 186.655 36.2527 185.147 38.0069C184.858 38.3555 184.644 38.6344 184.512 38.8305C184.38 39.0266 184.305 39.1486 184.305 39.1486Z" fill="#263238"/>
<path d="M206.379 52.7315C206.379 52.9189 200.048 53.0714 192.242 53.0714C184.437 53.0714 178.109 52.9189 178.109 52.7315C178.109 52.5441 184.437 52.3916 192.242 52.3916C200.048 52.3916 206.379 52.5441 206.379 52.7315Z" fill="#455A64"/>
<path d="M206.379 56.4966C206.379 56.684 200.048 56.8365 192.242 56.8365C184.437 56.8365 178.109 56.684 178.109 56.4966C178.109 56.3092 184.437 56.1523 192.242 56.1523C200.048 56.1523 206.379 56.2874 206.379 56.4966Z" fill="#455A64"/>
<path d="M206.379 60.2227C206.379 60.4101 200.048 60.5626 192.242 60.5626C184.437 60.5626 178.109 60.4101 178.109 60.2227C178.109 60.0353 184.437 59.8828 192.242 59.8828C200.048 59.8828 206.379 60.0353 206.379 60.2227Z" fill="#455A64"/>
<path d="M206.379 63.9654C206.379 64.1528 200.048 64.3053 192.242 64.3053C184.437 64.3053 178.109 64.1528 178.109 63.9654C178.109 63.778 184.437 63.6255 192.242 63.6255C200.048 63.6255 206.379 63.778 206.379 63.9654Z" fill="#455A64"/>
</g>
<defs>
<filter id="filter0_d" x="0" y="0" width="258" height="203.55" filterUnits="userSpaceOnUse" color-interpolation-filters="sRGB">
<feFlood flood-opacity="0" result="BackgroundImageFix"/>
<feColorMatrix in="SourceAlpha" type="matrix" values="0 0 0 0 0 0 0 0 0 0 0 0 0 0 0 0 0 0 127 0"/>
<feOffset dy="4"/>
<feGaussianBlur stdDeviation="2"/>
<feColorMatrix type="matrix" values="0 0 0 0 0 0 0 0 0 0 0 0 0 0 0 0 0 0 0.25 0"/>
<feBlend mode="normal" in2="BackgroundImageFix" result="effect1_dropShadow"/>
<feBlend mode="normal" in="SourceGraphic" in2="effect1_dropShadow" result="shape"/>
</filter>
</defs>
</svg>
