<svg width="317" height="293" viewBox="0 0 317 293" fill="none" xmlns="http://www.w3.org/2000/svg">
<g filter="url(#filter0_d)">
<path d="M66.6495 23.6377H13.8992V160.066H66.6495V23.6377Z" fill="#EBEBEB"/>
<path d="M63.9981 27.5957H16.0076V156.003H63.9981V27.5957Z" fill="#FAFAFA"/>
<path d="M63.9981 29.1072L16.0076 116.996V27.5957H63.9981V29.1072Z" fill="#F5F5F5"/>
<path d="M65.0392 64.5298H16.0076V65.8952H65.0392V64.5298Z" fill="#EBEBEB"/>
<path d="M65.0392 95.1104H16.0076V96.4758H65.0392V95.1104Z" fill="#EBEBEB"/>
<path d="M65.0392 125.689H16.0076V127.055H65.0392V125.689Z" fill="#EBEBEB"/>
<path d="M38.7922 65.2097L38.7922 159.634H41.2185L41.2185 65.2097H38.7922Z" fill="#EBEBEB"/>
<path d="M26.3477 27.5957H25.2493V65.218H26.3477V27.5957Z" fill="#EBEBEB"/>
<path d="M35.8233 27.5957H34.7249V65.218H35.8233V27.5957Z" fill="#EBEBEB"/>
<path d="M45.2945 27.5957H44.196V65.218H45.2945V27.5957Z" fill="#EBEBEB"/>
<path d="M54.7698 27.5957H53.6714V65.218H54.7698V27.5957Z" fill="#EBEBEB"/>
<path d="M13.9035 21.3198H11.6714V160.905H13.9035V21.3198Z" fill="#F5F5F5"/>
<path d="M68.8818 161.292L66.6497 160.066V21.3198H68.8818V161.292Z" fill="#E0E0E0"/>
<path d="M68.8859 19.9175H11.6714V23.639H68.8859V19.9175Z" fill="#E0E0E0"/>
<path d="M70.3945 161.749H10.0876V165.217H70.3945V161.749Z" fill="#E0E0E0"/>
<path d="M66.6493 160.068L70.3901 161.751H10.0876L13.899 160.068H66.6493Z" fill="#EBEBEB"/>
<path d="M293.562 108.682C293.562 108.682 289.83 108.294 290.175 120.336C290.519 132.377 291.374 138.791 291.374 138.791C291.374 138.791 291.264 141.465 289.826 140.938C288.388 140.411 285.688 137.813 284.352 139.756C283.015 141.7 283.469 144.837 285.296 148.502C287.122 152.166 290.951 160.327 291.295 161.07C291.639 161.813 291.767 163.166 290.748 163.032C289.729 162.899 282.861 159.546 281.948 164.334C281.034 169.123 287.312 178.058 287.982 179.049C288.653 180.04 288.692 180.675 288.423 181.278C288.154 181.881 285.913 180.44 283.933 179.602C281.952 178.763 279.552 178.287 279.186 181.113C278.82 183.939 281.586 192.214 291.93 200.909L296.906 204.484L301.617 200.159C311.322 189.998 313.475 181.392 312.919 178.63C312.363 175.867 310.003 176.686 308.089 177.804C306.174 178.922 304.053 180.681 303.739 180.122C303.426 179.563 303.417 178.928 304.017 177.842C304.617 176.756 310.237 166.97 308.998 162.334C307.758 157.698 301.159 162.029 300.175 162.302C299.191 162.575 299.209 161.203 299.496 160.428C299.782 159.654 303.025 150.947 304.591 147.06C306.157 143.173 306.439 140.03 304.922 138.226C303.404 136.422 300.951 139.458 299.557 140.188C298.163 140.919 297.872 138.283 297.872 138.283C297.872 138.283 298.274 131.78 297.78 119.745C297.286 107.71 293.492 108.682 293.492 108.682" fill="#EBEBEB"/>
<path d="M293.853 119.465C293.857 119.55 293.857 119.635 293.853 119.719L293.893 120.456C293.924 121.091 293.968 122.076 294.025 123.301C294.14 125.772 294.29 129.347 294.466 133.761C294.806 142.601 295.208 154.814 295.613 168.303C296.019 181.792 296.403 194.018 296.707 202.852C296.866 207.265 296.99 210.835 297.078 213.318C297.122 214.55 297.153 215.502 297.175 216.169C297.175 216.48 297.175 216.728 297.175 216.906C297.178 216.991 297.178 217.075 297.175 217.16C297.175 217.16 297.175 217.077 297.175 216.906C297.175 216.734 297.175 216.487 297.135 216.169C297.104 215.534 297.056 214.55 296.999 213.324C296.884 210.86 296.738 207.284 296.557 202.864C296.213 194.024 295.816 181.811 295.406 168.316C294.996 154.82 294.621 142.614 294.312 133.774C294.158 129.366 294.03 125.791 293.946 123.308C293.902 122.082 293.867 121.123 293.844 120.462C293.844 120.145 293.844 119.897 293.844 119.719C293.844 119.542 293.853 119.465 293.853 119.465Z" fill="#E0E0E0"/>
<path d="M288.031 143.611C288.143 143.716 288.246 143.84 288.339 143.979C288.533 144.233 288.78 144.614 289.129 145.072C289.786 146.011 290.673 147.339 291.626 148.831C292.579 150.324 293.39 151.632 294.061 152.642L294.802 153.798C294.9 153.929 294.987 154.076 295.062 154.236C295.062 154.236 294.939 154.121 294.749 153.874C294.559 153.626 294.308 153.239 293.964 152.775C293.311 151.829 292.442 150.482 291.485 148.965L289.036 145.154C288.741 144.703 288.494 144.316 288.291 143.998C288.194 143.883 288.107 143.754 288.031 143.611Z" fill="#E0E0E0"/>
<path d="M295.552 154.026C295.516 153.975 297.338 151.232 299.619 147.897C301.9 144.563 303.783 141.909 303.819 141.966C303.854 142.023 302.054 144.76 299.756 148.094C297.457 151.428 295.591 154.083 295.552 154.026Z" fill="#E0E0E0"/>
<path d="M295.534 174.786C295.641 174.663 295.756 174.557 295.878 174.469L296.853 173.681C297.674 173.046 298.807 172.093 300.029 171.014C301.251 169.934 302.341 168.905 303.117 168.15L304.044 167.254C304.152 167.13 304.272 167.029 304.401 166.956C304.305 167.099 304.201 167.229 304.088 167.343C303.88 167.578 303.576 167.908 303.205 168.308C302.442 169.102 301.366 170.163 300.118 171.249C298.869 172.335 297.744 173.23 296.906 173.853C296.465 174.164 296.143 174.405 295.9 174.564C295.785 174.659 295.662 174.734 295.534 174.786Z" fill="#E0E0E0"/>
<path d="M287.29 167.503C287.41 167.564 287.525 167.643 287.634 167.738C287.85 167.904 288.159 168.151 288.516 168.456C289.275 169.091 290.316 169.948 291.458 170.927C292.601 171.905 293.629 172.832 294.37 173.467C294.74 173.803 295.036 174.07 295.252 174.267C295.363 174.354 295.466 174.463 295.556 174.591C295.436 174.532 295.32 174.453 295.212 174.356C294.996 174.191 294.687 173.943 294.33 173.638C293.576 173.003 292.535 172.146 291.392 171.168C290.25 170.19 289.222 169.263 288.481 168.628C288.11 168.297 287.815 168.024 287.598 167.827C287.382 167.63 287.281 167.542 287.29 167.503Z" fill="#E0E0E0"/>
<path d="M285.653 185.851C285.808 185.925 285.956 186.028 286.094 186.156L287.254 187.077C288.229 187.858 289.566 188.982 291.039 190.195C292.512 191.408 293.84 192.564 294.797 193.371L295.922 194.368C296.066 194.478 296.201 194.613 296.324 194.768C296.171 194.685 296.023 194.583 295.883 194.463L294.722 193.542C293.752 192.754 292.411 191.637 290.938 190.417C289.464 189.198 288.136 188.055 287.184 187.242L286.054 186.245C285.913 186.129 285.779 185.998 285.653 185.851Z" fill="#E0E0E0"/>
<path d="M296.108 194.469C296.243 194.305 296.391 194.165 296.549 194.049L297.757 192.989C298.781 192.093 300.188 190.849 301.728 189.413C303.267 187.978 304.617 186.638 305.596 185.654L306.761 184.491C306.897 184.334 307.045 184.2 307.202 184.091C307.078 184.266 306.945 184.427 306.805 184.574C306.54 184.872 306.157 185.298 305.676 185.812C304.714 186.835 303.364 188.213 301.829 189.623C300.294 191.033 298.878 192.278 297.859 193.129C297.338 193.554 296.915 193.891 296.615 194.119C296.453 194.256 296.283 194.373 296.108 194.469Z" fill="#E0E0E0"/>
<path d="M303.585 206.833H289.817L294.312 255.797H299.094L303.585 206.833Z" fill="#E0E0E0"/>
<path d="M290.532 212.847C290.532 212.847 290.532 212.917 290.607 213.025C290.697 213.175 290.81 213.293 290.938 213.368C291.178 213.488 291.434 213.526 291.686 213.481C291.939 213.436 292.181 213.308 292.393 213.108C292.949 212.67 293.434 211.8 294.158 211.419C294.982 211.036 295.872 211.061 296.686 211.488C297.516 211.895 298.309 212.447 299.046 213.133C299.66 213.689 300.299 214.183 300.96 214.613C301.411 214.904 301.887 215.103 302.376 215.204C302.509 215.232 302.643 215.245 302.778 215.242C302.866 215.242 302.914 215.242 302.914 215.242C302.261 215.097 301.626 214.821 301.026 214.422C300.381 213.968 299.755 213.459 299.151 212.898C298.407 212.188 297.602 211.618 296.756 211.203C295.894 210.754 294.952 210.738 294.083 211.158C293.715 211.372 293.375 211.675 293.077 212.054C292.827 212.37 292.564 212.663 292.287 212.93C292.097 213.12 291.88 213.248 291.651 213.306C291.423 213.364 291.189 213.351 290.964 213.267C290.802 213.17 290.655 213.027 290.532 212.847Z" fill="#F5F5F5"/>
<path d="M291.035 221.873C291.035 221.873 291.145 221.67 291.361 221.346C291.671 220.899 292.046 220.556 292.46 220.343C293.072 220.022 293.723 219.88 294.374 219.924C295.178 220.014 295.978 220.171 296.769 220.394C297.577 220.62 298.404 220.669 299.222 220.54C299.89 220.416 300.541 220.148 301.154 219.746C301.566 219.48 301.955 219.148 302.314 218.755C302.452 218.623 302.575 218.462 302.681 218.279C302.173 218.759 301.64 219.184 301.088 219.549C300.485 219.913 299.849 220.152 299.2 220.26C298.4 220.364 297.594 220.307 296.805 220.089C296.004 219.862 295.193 219.711 294.378 219.638C293.703 219.608 293.03 219.779 292.402 220.14C291.976 220.386 291.597 220.773 291.295 221.27C291.216 221.408 291.146 221.557 291.088 221.715C291.063 221.762 291.045 221.816 291.035 221.873Z" fill="#F5F5F5"/>
<path d="M302.028 226.699C301.915 226.57 301.786 226.473 301.648 226.414C301.281 226.219 300.896 226.101 300.506 226.064C299.929 226.012 299.35 226.059 298.781 226.204C298.141 226.356 297.457 226.611 296.73 226.839C296.057 227.064 295.369 227.175 294.678 227.169C294.118 227.149 293.566 226.977 293.051 226.661C292.58 226.348 292.16 225.898 291.815 225.34C291.868 225.533 291.947 225.708 292.049 225.855C292.309 226.282 292.627 226.628 292.984 226.871C293.513 227.23 294.086 227.433 294.67 227.468C295.377 227.492 296.085 227.386 296.774 227.15C297.506 226.928 298.19 226.668 298.816 226.515C299.37 226.361 299.933 226.293 300.497 226.312C301.016 226.348 301.531 226.478 302.028 226.699Z" fill="#F5F5F5"/>
<path d="M292.252 233.488C292.669 233.23 293.131 233.164 293.576 233.298C294.061 233.468 294.53 233.719 294.974 234.047C295.545 234.443 296.16 234.686 296.791 234.765C297.942 234.914 299.095 234.529 300.082 233.666C300.378 233.408 300.654 233.104 300.903 232.758C301.07 232.504 301.154 232.358 301.145 232.339C300.781 232.748 300.399 233.126 300.003 233.469C299.029 234.243 297.917 234.581 296.809 234.441C295.508 234.339 294.506 233.215 293.602 233.069C293.255 232.982 292.898 233.026 292.565 233.196C292.345 233.33 292.243 233.476 292.252 233.488Z" fill="#F5F5F5"/>
<path d="M293.02 242.887C293.414 242.902 293.806 242.789 294.167 242.557C294.859 242.227 295.715 241.465 296.716 240.893C297.181 240.619 297.675 240.468 298.177 240.448C298.584 240.449 298.987 240.582 299.354 240.836C299.688 241.094 299.979 241.453 300.206 241.89C300.187 241.738 300.142 241.596 300.073 241.477C299.909 241.126 299.688 240.836 299.429 240.633C299.045 240.333 298.618 240.167 298.181 240.15C297.652 240.151 297.127 240.3 296.637 240.588C295.6 241.185 294.771 241.973 294.109 242.347C293.448 242.722 293.015 242.836 293.02 242.887Z" fill="#F5F5F5"/>
<path d="M293.695 247.263C293.974 247.457 294.271 247.594 294.577 247.669C295.294 247.919 296.022 248.095 296.756 248.196C297.489 248.301 298.226 248.333 298.962 248.292C299.269 248.305 299.575 248.252 299.871 248.133C299.871 248.037 298.477 248.133 296.783 247.872C295.089 247.612 293.712 247.167 293.695 247.263Z" fill="#F5F5F5"/>
<path d="M295.772 29.2461H253.265V69.4849H295.772V29.2461Z" fill="#E0E0E0"/>
<path d="M294.273 30.8892H254.743V67.6795H294.273V30.8892Z" fill="#FAFAFA"/>
<path d="M280.955 44.3047H268.061V54.4279H280.955V44.3047Z" fill="#E0E0E0"/>
<path d="M307.718 256.446C307.718 256.541 239.722 256.611 155.868 256.611C72.0134 256.611 4 256.541 4 256.446C4 256.351 71.9825 256.281 155.868 256.281C239.753 256.281 307.718 256.357 307.718 256.446Z" fill="#263238"/>
<path d="M118.407 0H209.434V124.813C209.434 127.545 208.681 130.165 207.339 132.097C205.997 134.029 204.177 135.114 202.279 135.114H118.407V0Z" fill="#EBEBEB"/>
<path d="M201.918 40.2136C201.918 40.4867 185.468 40.709 165.176 40.709C144.884 40.709 128.425 40.4867 128.425 40.2136C128.425 39.9405 144.875 39.7183 165.176 39.7183C185.477 39.7183 201.918 39.9405 201.918 40.2136Z" fill="#455A64"/>
<path d="M165.608 49.3772C165.608 49.6503 157.483 49.8725 147.456 49.8725C137.429 49.8725 129.299 49.6503 129.299 49.3772C129.299 49.1041 137.429 48.8818 147.456 48.8818C157.483 48.8818 165.608 49.0914 165.608 49.3772Z" fill="#455A64"/>
<path d="M180.122 48.5207C180.122 48.7938 177.969 49.0161 175.313 49.0161C172.658 49.0161 170.505 48.7938 170.505 48.5207C170.505 48.2477 172.658 48.0254 175.313 48.0254C177.969 48.0254 180.122 48.2477 180.122 48.5207Z" fill="#455A64"/>
<path d="M203.88 47.9544C203.88 48.2275 199.619 48.4497 194.361 48.4497C189.103 48.4497 184.841 48.2275 184.841 47.9544C184.841 47.6813 189.103 47.459 194.361 47.459C199.619 47.459 203.88 47.6813 203.88 47.9544Z" fill="#455A64"/>
<path d="M162.578 58.1228C162.578 58.4022 154.933 58.6245 145.501 58.6245C136.07 58.6245 128.425 58.4022 128.425 58.1228C128.425 57.8434 136.07 57.6274 145.501 57.6274C154.933 57.6274 162.578 57.8497 162.578 58.1228Z" fill="#455A64"/>
<path d="M203.881 57.8753C203.881 58.1483 195.535 58.3706 185.239 58.3706C174.943 58.3706 166.592 58.1483 166.592 57.8753C166.592 57.6022 174.938 57.3799 185.239 57.3799C195.539 57.3799 203.881 57.5958 203.881 57.8753Z" fill="#455A64"/>
<path d="M203.88 66.6892C203.88 66.9623 200.166 67.1846 195.578 67.1846C190.991 67.1846 187.276 66.9623 187.276 66.6892C187.276 66.4161 190.995 66.1875 195.578 66.1875C200.162 66.1875 203.88 66.4098 203.88 66.6892Z" fill="#455A64"/>
<path d="M169.534 30.4011C169.534 30.6742 160.526 30.8964 149.419 30.8964C138.311 30.8964 129.299 30.6742 129.299 30.4011C129.299 30.128 138.307 29.9058 149.419 29.9058C160.531 29.9058 169.534 30.128 169.534 30.4011Z" fill="#6DD2AE"/>
<path d="M225.5 75.6826H49.2556C45.706 75.6826 42.8284 79.8254 42.8284 84.9358V246.456C42.8284 251.567 45.706 255.709 49.2556 255.709H225.5C229.05 255.709 231.928 251.567 231.928 246.456V84.9358C231.928 79.8254 229.05 75.6826 225.5 75.6826Z" fill="#263238"/>
<path d="M35.1836 242.391H240.053V246.837C240.053 249.835 239.226 252.71 237.753 254.83C236.281 256.95 234.284 258.141 232.201 258.141H43.0357C40.9532 258.141 38.956 256.95 37.4834 254.83C36.0109 252.71 35.1836 249.835 35.1836 246.837V242.391Z" fill="#263238"/>
<path d="M226.581 82.834H48.166V234.866H226.581V82.834Z" fill="#455A64"/>
<path d="M118.998 242.392H119.797H122.126L130.768 242.341L159.675 242.252H159.887L159.781 242.519L158.634 245.351L157.421 248.342L157.385 248.431H157.315L121.539 248.336H121.508V248.298L119.634 243.91L119.162 242.798L119.012 242.43C119.012 242.43 119.078 242.563 119.188 242.817L119.691 243.929C120.132 244.913 120.767 246.348 121.601 248.209L121.552 248.171L157.328 248.076L157.222 248.165L158.435 245.173L159.582 242.341L159.688 242.608L130.9 242.519L122.201 242.442H119.836H119.214L118.998 242.392Z" fill="#455A64"/>
<path d="M231.923 242.391C231.923 242.486 189.575 242.556 137.38 242.556C85.1857 242.556 42.8284 242.486 42.8284 242.391C42.8284 242.296 85.1504 242.227 137.38 242.227C189.61 242.227 231.923 242.303 231.923 242.391Z" fill="#455A64"/>
<path d="M183.65 52.4702C185.054 52.4702 186.401 53.2731 187.393 54.7024C188.386 56.1316 188.944 58.07 188.944 60.0912V75.6952H173.151V61.2852C173.151 60.1273 173.309 58.9807 173.616 57.9108C173.924 56.841 174.375 55.8689 174.943 55.0502C175.512 54.2315 176.187 53.5822 176.93 53.1395C177.674 52.6968 178.47 52.4694 179.274 52.4702H183.65Z" fill="#263238"/>
<path d="M183.65 52.4691C183.65 52.5642 168.749 52.6149 150.367 52.5959C131.985 52.5769 117.084 52.4755 117.084 52.3868C117.084 52.298 131.981 52.241 150.367 52.26C168.753 52.279 183.65 52.3804 183.65 52.4691Z" fill="#263238"/>
<path d="M183.527 52.4507L176.936 52.3872L167.368 52.4698H97.0787C94.2123 52.4698 91.4633 54.1091 89.4365 57.027C87.4097 59.945 86.271 63.9026 86.271 68.0293V235.227H177.303V60.9989C177.572 52.4698 183.527 52.4507 183.527 52.4507Z" fill="#FAFAFA"/>
<path d="M183.527 52.4509L128.637 52.6224H101.194H97.7623C97.1889 52.6224 96.6242 52.6224 96.0596 52.6922C95.4984 52.778 94.9424 52.9245 94.3965 53.1304C92.7488 53.7424 91.2274 54.9157 89.9606 56.5515C88.6938 58.1873 87.7189 60.2377 87.1179 62.5297C87.0296 62.9171 86.9061 63.2854 86.8444 63.6792L86.637 64.8604C86.5294 65.6588 86.463 66.4676 86.4385 67.2801C86.39 70.5507 86.4385 73.8595 86.4385 77.1492L86.5135 235.189L86.293 234.872L177.325 234.961L177.166 235.189L177.21 141.197L177.263 94.2012L177.294 70.7032V64.8287V61.8882C177.28 61.3985 177.294 60.908 177.333 60.4212C177.357 59.9323 177.411 59.4476 177.497 58.9732C177.781 57.0321 178.57 55.3211 179.702 54.191C180.261 53.6298 180.88 53.201 181.533 52.9209C182.18 52.6397 182.851 52.4817 183.527 52.4509ZM183.527 52.4509C182.846 52.4941 182.173 52.6671 181.524 52.9653C180.872 53.2459 180.256 53.6747 179.698 54.2355C178.573 55.3664 177.793 57.076 177.519 59.0113C177.435 59.4837 177.381 59.9663 177.36 60.4529C177.324 60.9401 177.312 61.4304 177.325 61.92V70.7286L177.36 94.2266L177.413 141.223L177.452 235.215V235.456H177.289L86.2577 235.539H86.0415V235.221L86.1121 77.181C86.1121 73.8849 86.1121 70.6016 86.143 67.2928C86.1687 66.4591 86.2365 65.6291 86.3459 64.8096L86.5664 63.6029C86.6282 63.1965 86.7561 62.8154 86.8444 62.4217C87.4627 60.0721 88.4644 57.9709 89.7649 56.2953C91.0654 54.6197 92.6267 53.4188 94.3171 52.7938C94.8778 52.5852 95.4484 52.4366 96.0243 52.3493C96.6022 52.3048 97.18 52.2604 97.7491 52.2794H101.181H128.624L183.527 52.4509Z" fill="#263238"/>
<path d="M99.9857 82.5547H115.866L115.893 90.2138H115.13C114.883 87.4744 114.171 85.62 112.995 84.6504C112.066 84.0347 111.052 83.7369 110.03 83.7804V103.785C110.03 105.189 110.198 106.116 110.538 106.573C110.877 107.031 111.583 107.259 112.659 107.259V108.225H103.259V107.259C104.287 107.259 104.975 107.024 105.31 106.561C105.645 106.097 105.822 105.176 105.822 103.785V83.7804C104.801 83.7453 103.787 84.0427 102.857 84.6504C101.596 85.6475 100.881 87.4956 100.718 90.2138H99.9592L99.9857 82.5547Z" fill="#6DD2AE"/>
<path d="M164.81 84.3079C164.81 84.581 156.049 84.8032 145.241 84.8032C134.433 84.8032 125.673 84.581 125.673 84.3079C125.673 84.0348 134.433 83.8125 145.241 83.8125C156.049 83.8125 164.81 84.0094 164.81 84.3079Z" fill="#6DD2AE"/>
<path d="M141.589 93.2879C141.589 93.561 138.201 93.7832 134.023 93.7832C129.846 93.7832 126.458 93.561 126.458 93.2879C126.458 93.0148 129.846 92.7861 134.023 92.7861C138.201 92.7861 141.589 93.0084 141.589 93.2879Z" fill="#455A64"/>
<path d="M122.514 120.748C122.514 121.021 116.083 121.244 108.147 121.244C100.211 121.244 93.7747 121.021 93.7747 120.748C93.7747 120.475 100.206 120.253 108.147 120.253C116.087 120.253 122.514 120.507 122.514 120.748Z" fill="#455A64"/>
<path d="M155.061 120.748C155.061 121.021 148.625 121.244 140.693 121.244C132.762 121.244 126.321 121.021 126.321 120.748C126.321 120.475 132.753 120.253 140.693 120.253C148.633 120.253 155.061 120.507 155.061 120.748Z" fill="#6DD2AE"/>
<path d="M122.514 128.083C122.514 128.356 116.083 128.578 108.147 128.578C100.211 128.578 93.7747 128.356 93.7747 128.083C93.7747 127.81 100.206 127.587 108.147 127.587C116.087 127.587 122.514 127.81 122.514 128.083Z" fill="#455A64"/>
<path d="M122.514 135.418C122.514 135.691 116.083 135.914 108.147 135.914C100.211 135.914 93.7747 135.691 93.7747 135.418C93.7747 135.145 100.206 134.917 108.147 134.917C116.087 134.917 122.514 135.113 122.514 135.418Z" fill="#6DD2AE"/>
<path d="M141.589 108.226C141.589 108.499 138.201 108.721 134.023 108.721C129.846 108.721 126.458 108.499 126.458 108.226C126.458 107.953 129.846 107.73 134.023 107.73C138.201 107.73 141.589 107.953 141.589 108.226Z" fill="#455A64"/>
<path d="M167.836 120.748C167.836 121.021 165.577 121.244 162.794 121.244C160.01 121.244 157.747 121.021 157.747 120.748C157.747 120.475 160.006 120.253 162.794 120.253C165.582 120.253 167.836 120.507 167.836 120.748Z" fill="#455A64"/>
<path d="M170.535 93.2879C170.535 93.561 164.721 93.7832 157.553 93.7832C150.385 93.7832 144.571 93.561 144.571 93.2879C144.571 93.0148 150.38 92.7861 157.553 92.7861C164.726 92.7861 170.535 93.0084 170.535 93.2879Z" fill="#455A64"/>
<path d="M169.362 100.439C169.362 100.712 159.759 100.934 147.91 100.934C136.061 100.934 126.458 100.712 126.458 100.439C126.458 100.166 136.061 99.9434 147.91 99.9434C159.759 99.9434 169.362 100.185 169.362 100.439Z" fill="#455A64"/>
<path d="M167.836 128.083C167.836 128.356 158.541 128.578 147.103 128.578C135.664 128.578 126.343 128.356 126.343 128.083C126.343 127.81 135.633 127.587 147.103 127.587C158.572 127.587 167.836 127.81 167.836 128.083Z" fill="#455A64"/>
<path d="M167.836 149.315C167.836 149.588 159.115 149.81 148.36 149.81C137.605 149.81 128.88 149.588 128.88 149.315C128.88 149.042 137.601 148.819 148.36 148.819C159.119 148.819 167.836 149.042 167.836 149.315Z" fill="#6DD2AE"/>
<path d="M167.836 156.452C167.836 156.725 159.115 156.948 148.36 156.948C137.605 156.948 128.88 156.725 128.88 156.452C128.88 156.179 137.601 155.957 148.36 155.957C159.119 155.957 167.836 156.179 167.836 156.452Z" fill="#455A64"/>
<path d="M167.836 163.592C167.836 163.865 159.115 164.087 148.36 164.087C137.605 164.087 128.88 163.865 128.88 163.592C128.88 163.318 137.601 163.096 148.36 163.096C159.119 163.096 167.836 163.318 167.836 163.592Z" fill="#455A64"/>
<path d="M167.836 170.729C167.836 171.002 159.115 171.225 148.36 171.225C137.605 171.225 128.88 171.002 128.88 170.729C128.88 170.456 137.601 170.234 148.36 170.234C159.119 170.234 167.836 170.456 167.836 170.729Z" fill="#455A64"/>
<path d="M151.307 177.867C151.307 178 150.05 178.127 148.02 178.216C145.991 178.305 143.168 178.362 140.08 178.362C136.992 178.362 134.178 178.305 132.14 178.216C130.102 178.127 128.858 178 128.858 177.867C128.858 177.734 130.11 177.607 132.14 177.518C134.169 177.429 136.992 177.372 140.08 177.372C143.168 177.372 145.978 177.429 148.02 177.518C150.063 177.607 151.307 177.727 151.307 177.867Z" fill="#455A64"/>
<path d="M160.778 135.8C160.778 136.073 153.278 136.295 144.015 136.295C134.751 136.295 127.252 136.073 127.252 135.8C127.252 135.526 134.751 135.304 144.015 135.304C153.278 135.304 160.778 135.526 160.778 135.8Z" fill="#455A64"/>
<path d="M121.835 150.121L123.904 205.221L86.4828 211.966L86.4519 149.651L121.835 150.121Z" fill="#E0E0E0"/>
<path d="M73.3835 146.303L73.1213 204.754L123.903 205.227L124.165 146.775L73.3835 146.303Z" fill="#F5F5F5"/>
<path d="M75.1181 150.003L74.8889 201.094L122.102 201.533L122.331 150.442L75.1181 150.003Z" fill="#6DD2AE"/>
<g opacity="0.2">
<path opacity="0.2" d="M74.8853 201.087L91.5203 169.485L101.644 189.446L108.623 178.89L122.104 201.525L74.8853 201.087Z" fill="black"/>
</g>
<g opacity="0.2">
<path opacity="0.2" d="M106.087 165.725C106.082 166.785 105.86 167.818 105.447 168.695C105.035 169.572 104.451 170.253 103.77 170.652C103.088 171.052 102.34 171.151 101.619 170.938C100.899 170.724 100.238 170.208 99.7212 169.454C99.2045 168.701 98.8546 167.743 98.7159 166.703C98.5772 165.663 98.6559 164.587 98.942 163.611C99.2282 162.635 99.7089 161.804 100.323 161.222C100.938 160.639 101.659 160.332 102.394 160.34C102.882 160.344 103.365 160.487 103.815 160.76C104.265 161.033 104.673 161.431 105.016 161.931C105.359 162.431 105.63 163.024 105.814 163.675C105.997 164.326 106.09 165.023 106.087 165.725Z" fill="black"/>
</g>
<path d="M128.792 219.007C128.792 219.231 128.746 219.45 128.659 219.635C128.573 219.821 128.45 219.966 128.307 220.052C128.163 220.137 128.006 220.16 127.853 220.116C127.701 220.073 127.561 219.965 127.451 219.807C127.341 219.649 127.267 219.447 127.236 219.228C127.206 219.009 127.222 218.781 127.281 218.575C127.34 218.368 127.441 218.192 127.57 218.067C127.699 217.943 127.851 217.877 128.006 217.877C128.11 217.876 128.212 217.905 128.308 217.961C128.403 218.018 128.49 218.101 128.563 218.206C128.636 218.311 128.694 218.436 128.733 218.574C128.772 218.711 128.792 218.859 128.792 219.007Z" fill="#263238"/>
<path d="M133.454 219.007C133.454 219.231 133.408 219.45 133.322 219.635C133.236 219.821 133.113 219.966 132.969 220.052C132.826 220.137 132.668 220.16 132.516 220.116C132.363 220.073 132.224 219.965 132.114 219.807C132.004 219.649 131.929 219.447 131.899 219.228C131.869 219.009 131.884 218.781 131.944 218.575C132.003 218.368 132.104 218.192 132.233 218.067C132.362 217.943 132.514 217.877 132.669 217.877C132.877 217.877 133.077 217.996 133.224 218.208C133.371 218.42 133.454 218.708 133.454 219.007Z" fill="#263238"/>
<path d="M138.113 219.007C138.113 219.231 138.067 219.45 137.98 219.635C137.894 219.821 137.771 219.966 137.628 220.052C137.484 220.137 137.327 220.16 137.174 220.116C137.022 220.073 136.882 219.965 136.772 219.807C136.662 219.649 136.588 219.447 136.557 219.228C136.527 219.009 136.543 218.781 136.602 218.575C136.661 218.368 136.762 218.192 136.891 218.067C137.02 217.943 137.172 217.877 137.327 217.877C137.536 217.877 137.735 217.996 137.883 218.208C138.03 218.42 138.113 218.708 138.113 219.007Z" fill="#263238"/>
<path d="M155.281 192.742C155.281 193.015 148.845 193.238 140.909 193.238C132.973 193.238 126.537 193.015 126.537 192.742C126.537 192.469 132.973 192.247 140.909 192.247C148.845 192.247 155.281 192.469 155.281 192.742Z" fill="#6DD2AE"/>
<path d="M168.056 200.077C168.056 200.35 158.762 200.572 147.297 200.572C135.832 200.572 126.537 200.35 126.537 200.077C126.537 199.804 135.832 199.582 147.297 199.582C158.762 199.582 168.056 199.804 168.056 200.077Z" fill="#455A64"/>
<path d="M260.455 213.122L260.21 248.331L290.798 248.771L291.043 213.562L260.455 213.122Z" fill="#F5F5F5"/>
<path d="M260.442 214.532L260.303 245.307L288.743 245.572L288.881 214.796L260.442 214.532Z" fill="#6DD2AE"/>
<path opacity="0.2" d="M260.297 245.294L270.315 226.261L276.416 238.283L280.619 231.926L288.736 245.561L260.297 245.294Z" fill="black"/>
<g opacity="0.2">
<path opacity="0.2" d="M279.093 224.025C279.091 224.663 278.958 225.287 278.71 225.816C278.462 226.345 278.111 226.757 277.701 226.998C277.29 227.24 276.839 227.301 276.405 227.174C275.97 227.046 275.572 226.736 275.26 226.282C274.948 225.829 274.736 225.252 274.652 224.625C274.568 223.999 274.615 223.35 274.787 222.762C274.958 222.173 275.248 221.671 275.618 221.32C275.988 220.968 276.422 220.782 276.865 220.786C277.459 220.791 278.027 221.135 278.445 221.742C278.862 222.35 279.096 223.171 279.093 224.025Z" fill="black"/>
</g>
<path d="M254.913 208.624L254.755 243.833L285.342 244.117L285.5 208.909L254.913 208.624Z" fill="#F5F5F5"/>
<path d="M255.961 210.85L255.823 241.625L284.262 241.89L284.4 211.114L255.961 210.85Z" fill="#6DD2AE"/>
<path opacity="0.2" d="M255.81 241.617L265.828 222.584L271.929 234.606L276.133 228.249L284.25 241.884L255.81 241.617Z" fill="black"/>
<g opacity="0.2">
<path opacity="0.2" d="M274.607 220.324C274.604 220.963 274.469 221.587 274.22 222.116C273.97 222.645 273.618 223.056 273.206 223.295C272.794 223.535 272.342 223.593 271.907 223.462C271.473 223.332 271.075 223.018 270.764 222.561C270.453 222.104 270.244 221.524 270.163 220.895C270.081 220.267 270.132 219.618 270.307 219.03C270.482 218.443 270.775 217.944 271.148 217.596C271.521 217.249 271.957 217.068 272.401 217.079C272.991 217.092 273.554 217.44 273.967 218.048C274.38 218.656 274.61 219.474 274.607 220.324Z" fill="black"/>
</g>
<path d="M250.921 205.594L250.763 240.802L281.351 241.087L281.509 205.878L250.921 205.594Z" fill="#F5F5F5"/>
<path d="M251.966 207.814L251.828 238.589L280.267 238.854L280.405 208.078L251.966 207.814Z" fill="#6DD2AE"/>
<path opacity="0.2" d="M251.818 238.582L261.836 219.542L267.937 231.57L272.136 225.207L280.258 238.842L251.818 238.582Z" fill="black"/>
<g opacity="0.2">
<path opacity="0.2" d="M270.61 217.282C270.607 217.921 270.473 218.545 270.223 219.074C269.974 219.603 269.621 220.014 269.209 220.253C268.797 220.493 268.345 220.551 267.911 220.42C267.476 220.29 267.078 219.976 266.767 219.519C266.457 219.062 266.247 218.482 266.166 217.853C266.085 217.225 266.135 216.576 266.31 215.988C266.486 215.401 266.778 214.902 267.151 214.554C267.524 214.207 267.96 214.026 268.404 214.037C268.995 214.05 269.558 214.398 269.971 215.006C270.384 215.614 270.614 216.432 270.61 217.282Z" fill="black"/>
</g>
<path d="M247.44 210.168L247.195 245.377L277.783 245.818L278.028 210.609L247.44 210.168Z" fill="#F5F5F5"/>
<path d="M247.481 211.598L247.343 242.374L275.782 242.638L275.92 211.863L247.481 211.598Z" fill="#455A64"/>
<path opacity="0.2" d="M247.332 242.367L257.35 223.328L263.45 235.35L267.65 228.993L275.771 242.628L247.332 242.367Z" fill="black"/>
<g opacity="0.2">
<path opacity="0.2" d="M266.142 221.066C266.139 221.705 266.004 222.329 265.755 222.858C265.505 223.387 265.152 223.798 264.741 224.038C264.329 224.277 263.877 224.335 263.442 224.205C263.007 224.074 262.61 223.76 262.299 223.303C261.988 222.846 261.779 222.266 261.698 221.638C261.616 221.009 261.666 220.36 261.842 219.772C262.017 219.185 262.31 218.686 262.683 218.338C263.056 217.991 263.492 217.811 263.936 217.821C264.527 217.831 265.091 218.178 265.505 218.787C265.918 219.395 266.147 220.215 266.142 221.066Z" fill="black"/>
</g>
<path d="M294.669 222.456H277.011V256.452H294.669V222.456Z" fill="#263238"/>
<path d="M243.203 222.458V256.447H278.493V222.458H243.203ZM264.619 230.498H257.12C256.69 230.498 256.277 230.251 255.972 229.813C255.668 229.375 255.497 228.78 255.497 228.161C255.497 227.541 255.668 226.946 255.972 226.508C256.277 226.07 256.69 225.823 257.12 225.823H264.619C265.05 225.823 265.463 226.07 265.767 226.508C266.072 226.946 266.243 227.541 266.243 228.161C266.243 228.78 266.072 229.375 265.767 229.813C265.463 230.251 265.05 230.498 264.619 230.498Z" fill="#6DD2AE"/>
<path d="M239.529 262.083L206.687 259.187C206.479 258.507 206.342 258.113 206.342 258.113L197.44 258.374L194.542 258.113L194.428 258.456L164.545 259.314C158.586 259.314 152.322 264.547 152.322 271.234C152.247 277.585 154.391 284.507 159.728 284.348L200.44 284.152L241.156 284.348C246.494 284.507 247.906 279.903 247.915 274.371C248.537 264.134 244.081 262.165 239.529 262.083Z" fill="#455A64"/>
<path d="M163.465 284.357H163.659H164.237L166.442 284.325L174.638 284.275L201.988 284.224L201.874 284.395C201.816 283.125 201.759 281.734 201.697 280.35C201.574 277.517 201.455 274.723 201.34 272.094L201.441 272.246L176.253 268.143L168.789 266.918L166.777 266.568L166.257 266.473C166.199 266.466 166.141 266.451 166.085 266.429H166.261L166.782 266.499L168.798 266.784L176.271 267.915L201.464 271.84H201.556V271.973C201.675 274.628 201.794 277.416 201.918 280.229C201.98 281.614 202.037 282.992 202.094 284.275V284.452H201.975L174.625 284.395L166.429 284.344H164.223H163.645L163.465 284.357Z" fill="#263238"/>
<path d="M171.86 267.54C171.833 267.585 171.419 267.108 170.708 266.48C169.773 265.66 168.768 265.02 167.717 264.574C166.665 264.143 165.578 263.912 164.484 263.889C163.646 263.889 163.125 263.965 163.121 263.889C163.236 263.822 163.358 263.781 163.483 263.768C163.814 263.694 164.149 263.652 164.484 263.641C166.725 263.547 168.931 264.459 170.797 266.251C171.077 266.518 171.345 266.81 171.599 267.127C171.776 267.388 171.868 267.509 171.86 267.54Z" fill="#263238"/>
<path d="M236.979 265.026C236.979 265.114 230.517 267.369 222.514 270.062C214.512 272.755 208.006 274.863 207.992 274.774C207.979 274.685 214.455 272.431 222.462 269.738C230.468 267.045 236.966 264.968 236.979 265.026Z" fill="#263238"/>
<path d="M231.505 264.111C230.617 264.564 229.766 265.152 228.964 265.864C228.208 266.669 227.517 267.593 226.904 268.62C227.002 268.236 227.152 267.885 227.345 267.585C228.202 266.037 229.367 264.902 230.684 264.333C230.946 264.189 231.224 264.114 231.505 264.111Z" fill="#263238"/>
<path d="M219.277 210.425L229.683 236.501C230.315 238.086 230.665 239.873 230.701 241.7C230.738 243.527 230.459 245.339 229.89 246.974C229.234 248.86 228.218 250.438 226.96 251.521C225.703 252.604 224.257 253.148 222.792 253.09L206.815 252.455L206.396 244.091L220.463 240.197L210.979 216.56L219.277 210.425Z" fill="#FFBE9D"/>
<path d="M180.501 255.046L195.191 260.647L195.513 254.296L181.975 242.979L191.865 216.56L183.567 210.425L173.161 236.501C172.57 238.081 172.228 239.829 172.16 241.621C172.092 243.413 172.299 245.204 172.766 246.868C173.234 248.531 173.95 250.026 174.865 251.245C175.78 252.464 176.87 253.378 178.057 253.922L180.501 255.046Z" fill="#FFBE9D"/>
<path d="M213.614 224.49L223.654 216.869C222.419 213.263 220.98 209.81 219.353 206.542C216.243 200.35 211.413 196.025 205.943 194.374L194.394 194.571C192.984 194.75 191.597 195.21 190.274 195.936V195.873C184.005 197.861 177.04 217.542 177.04 217.542L186.207 224.471L186.41 226.541C186.678 229.284 187.507 231.851 188.792 233.914L186.145 259.108L215.762 259.991L212 241.967L213.614 224.49Z" fill="#6DD2AE"/>
<path d="M190.298 236.732C190.137 236.6 189.989 236.438 189.857 236.249C189.477 235.767 189.138 235.221 188.847 234.623C187.895 232.61 187.457 230.184 187.608 227.758C187.757 226.462 187.984 225.187 188.287 223.948C188.552 222.798 188.825 221.782 189.059 220.931C189.293 220.08 189.5 219.4 189.641 218.937C189.706 218.687 189.792 218.451 189.897 218.232C189.857 218.491 189.799 218.744 189.725 218.988C189.588 219.528 189.416 220.207 189.209 221.014C189.002 221.82 188.741 222.919 188.49 224.043C188.199 225.272 187.981 226.534 187.837 227.815C187.763 229.097 187.848 230.387 188.088 231.626C188.278 232.644 188.576 233.615 188.971 234.503C189.369 235.298 189.814 236.043 190.298 236.732Z" fill="#263238"/>
<path d="M185.852 267.869L184.176 239.767H220.3L217.905 268.219L185.852 267.869Z" fill="#263238"/>
<path d="M204.538 254.755C204.539 255.411 204.405 256.053 204.152 256.599C203.899 257.145 203.54 257.571 203.119 257.823C202.698 258.075 202.234 258.141 201.787 258.013C201.34 257.886 200.93 257.57 200.607 257.106C200.285 256.642 200.066 256.05 199.977 255.407C199.888 254.763 199.934 254.096 200.109 253.49C200.284 252.884 200.58 252.366 200.959 252.002C201.338 251.639 201.784 251.445 202.24 251.446C202.85 251.446 203.434 251.795 203.865 252.415C204.296 253.036 204.538 253.878 204.538 254.755Z" fill="#FAFAFA"/>
<path d="M201.605 273.357L207.741 274.589V284.191L202.099 283.982L201.605 273.357Z" fill="#FFBE9D"/>
<path d="M207.745 274.588H210.502C211.038 274.588 211.565 274.792 212.029 275.179L213.48 276.398C214.301 277.054 215.15 277.635 216.021 278.139C217.697 278.913 220.516 279.961 221.112 280.622C222.806 282.527 222.289 284.731 221.359 284.959C220.543 285.169 207.741 284.197 207.741 284.197L207.745 274.588Z" fill="#6DD2AE"/>
<path d="M212.267 283.385C212.053 282.59 211.953 281.741 211.971 280.889C211.912 280.032 211.978 279.167 212.165 278.349C212.21 279.181 212.222 280.016 212.201 280.851C212.257 281.693 212.28 282.539 212.267 283.385Z" fill="#263238"/>
<path d="M213.577 283.339C213.433 281.819 213.442 280.277 213.604 278.76C213.71 279.514 213.744 280.286 213.705 281.053C213.737 281.82 213.693 282.589 213.577 283.339Z" fill="#263238"/>
<path d="M215.121 283.722C214.883 282.174 214.797 280.586 214.865 279.003C215.021 279.765 215.102 280.553 215.108 281.347C215.187 282.134 215.192 282.933 215.121 283.722Z" fill="#263238"/>
<path d="M211.076 280.845C210.879 280.808 210.688 280.722 210.511 280.591C210.01 280.288 209.544 279.875 209.131 279.365C209.003 279.207 208.87 279.029 208.738 278.832C208.589 278.63 208.469 278.389 208.385 278.121C208.337 277.96 208.319 277.784 208.333 277.61C208.347 277.436 208.392 277.271 208.464 277.13C208.549 276.981 208.671 276.885 208.804 276.863C208.931 276.843 209.058 276.863 209.179 276.92C209.66 277.169 210.082 277.606 210.4 278.181C210.718 278.757 210.918 279.448 210.978 280.178C211.038 280.908 210.955 281.648 210.74 282.314C210.524 282.981 210.184 283.547 209.757 283.951C209.566 284.148 209.35 284.288 209.122 284.364C209.004 284.404 208.882 284.404 208.764 284.364C208.704 284.335 208.648 284.288 208.6 284.227C208.552 284.166 208.513 284.091 208.487 284.008C208.447 283.858 208.434 283.696 208.448 283.536C208.462 283.377 208.502 283.225 208.566 283.093C208.662 282.859 208.781 282.645 208.919 282.458C209.311 281.914 209.772 281.482 210.278 281.188C210.456 281.064 210.649 280.986 210.847 280.959C210.847 280.959 210.652 281.074 210.313 281.309C209.836 281.64 209.403 282.09 209.034 282.636C208.91 282.803 208.805 282.996 208.72 283.208C208.675 283.304 208.646 283.415 208.634 283.53C208.623 283.646 208.63 283.763 208.654 283.874C208.699 283.979 208.767 284.057 208.848 284.097C208.928 284.136 209.016 284.134 209.095 284.09C209.294 284.017 209.481 283.89 209.647 283.716C210.037 283.34 210.347 282.817 210.544 282.204C210.741 281.59 210.817 280.911 210.762 280.239C210.708 279.568 210.526 278.932 210.237 278.4C209.947 277.868 209.561 277.461 209.122 277.225C209.042 277.168 208.952 277.148 208.864 277.166C208.776 277.184 208.693 277.24 208.628 277.327C208.577 277.428 208.546 277.546 208.537 277.669C208.527 277.793 208.54 277.918 208.575 278.032C208.743 278.482 208.972 278.88 209.25 279.2C209.798 279.877 210.413 280.432 211.076 280.845Z" fill="#263238"/>
<path d="M221.359 284.955C221.498 284.777 221.612 284.561 221.694 284.32C221.774 283.989 221.8 283.636 221.769 283.289C221.737 282.941 221.65 282.609 221.513 282.319C221.116 281.432 220.512 280.777 219.81 280.471C219.03 280.065 218.103 279.874 217.164 279.449C215.558 278.755 214.025 277.751 212.607 276.464C212.068 275.968 211.649 275.524 211.367 275.194C211.213 275.04 211.072 274.861 210.948 274.66C211.114 274.78 211.272 274.923 211.42 275.086C211.716 275.371 212.143 275.784 212.695 276.254C214.121 277.471 215.643 278.435 217.23 279.125C218.152 279.538 219.074 279.76 219.876 280.173C220.616 280.518 221.243 281.238 221.641 282.199C221.78 282.52 221.864 282.886 221.884 283.264C221.904 283.643 221.86 284.022 221.756 284.371C221.686 284.549 221.59 284.703 221.473 284.821C221.42 284.936 221.363 284.968 221.359 284.955Z" fill="#263238"/>
<path d="M217.181 203.955C217.187 204.001 217.187 204.049 217.181 204.095V204.489C217.159 204.857 217.124 205.371 217.084 206.025C216.987 207.391 216.851 209.341 216.683 211.792V211.938L216.59 211.868L211.235 207.81L211.363 207.759L208.469 214.796L208.407 214.942L208.31 214.84L203.458 209.461H203.599L201.477 211.856L198.583 215.113L198.477 215.234L198.416 215.063L195.659 207.727L195.795 207.791L189.955 211.538L189.845 211.608V211.443L188.962 203.961L189.051 204.038L185.689 205.905L184.807 206.375L184.577 206.495L184.498 206.527C184.498 206.527 184.52 206.527 184.569 206.47L184.794 206.33L185.676 205.81L188.998 203.904L189.073 203.866V203.981C189.333 206.064 189.642 208.572 189.999 211.449L189.875 211.354L195.703 207.543L195.795 207.486L195.844 207.607C196.726 209.931 197.644 212.383 198.61 214.942L198.438 214.891L201.332 211.627L203.453 209.233L203.524 209.156L203.595 209.233L208.447 214.624L208.288 214.669L211.204 207.683L211.248 207.575L211.328 207.632L216.621 211.735L216.52 211.811L216.987 206.057C217.045 205.422 217.089 204.895 217.12 204.527C217.12 204.368 217.15 204.241 217.159 204.133C217.163 204.073 217.171 204.013 217.181 203.955Z" fill="#F5F5F5"/>
<path d="M221.469 211.03C221.467 211.093 221.459 211.155 221.447 211.215C221.42 211.354 221.39 211.532 221.354 211.754C221.262 212.243 221.138 212.942 220.975 213.831C220.635 215.66 220.141 218.277 219.532 221.56L219.506 221.687L219.427 221.63L213.202 217.337L213.326 217.286C211.733 220.55 209.969 224.177 208.085 228.051L208.006 228.209L207.913 228.07L202.893 220.715L201.834 219.172H201.975L195.191 225.301L195.094 225.39L195.037 225.25L191.375 215.94L191.49 216.003L184.511 219.464L184.445 219.496L184.423 219.401C183.761 216.645 183.236 214.454 182.875 212.936C182.703 212.199 182.566 211.621 182.473 211.215C182.429 211.03 182.398 210.884 182.372 210.77C182.357 210.722 182.348 210.67 182.345 210.618C182.365 210.663 182.38 210.712 182.389 210.764L182.508 211.196C182.61 211.602 182.755 212.167 182.95 212.898C183.325 214.409 183.872 216.587 184.56 219.337L184.471 219.274L191.424 215.762L191.499 215.724L191.538 215.825L195.222 225.11L195.067 225.053L201.852 218.912L201.927 218.842L201.993 218.937C202.343 219.454 202.696 219.968 203.052 220.48L208.085 227.841H207.913L213.18 217.102L213.224 217.007L213.299 217.057L219.502 221.414L219.4 221.484L220.909 213.78L221.323 211.716C221.372 211.5 221.407 211.323 221.438 211.189C221.444 211.135 221.454 211.081 221.469 211.03Z" fill="#F5F5F5"/>
<path d="M217.009 166.728C216.124 166.862 215.23 166.732 214.381 166.346C213.533 165.96 212.748 165.327 212.077 164.487C213.683 165.655 215.822 164.048 216.391 161.591C216.961 159.133 216.493 154.554 215.09 152.928C214.416 152.156 213.628 151.619 212.786 151.359C211.944 151.099 211.072 151.123 210.238 151.429C208.583 152.064 206.832 155.691 206.29 158.028L206.32 158.098C206.069 157.952 205.809 157.818 205.553 157.691C203.723 156.76 201.772 156.419 199.84 156.694C197.903 156.983 196.078 158.14 194.622 160.003L205.84 185.959C207.878 185.705 209.682 183.723 210.749 181.215C211.817 178.706 212.227 175.715 212.329 172.774C212.355 172.031 212.351 171.288 212.329 170.545L215.933 171.377C215.286 170.128 214.472 169.078 213.537 168.291C214.155 168.609 214.829 168.629 215.455 168.347C216.082 168.065 216.627 167.497 217.009 166.728Z" fill="#263238"/>
<path d="M202.84 207.009C204.304 206.965 205.699 206.103 206.73 204.605C207.761 203.107 208.346 201.09 208.363 198.982L208.623 166.688C208.637 166.043 208.479 165.415 208.182 164.932C207.886 164.448 207.472 164.145 207.026 164.084L197.551 160.636C194.512 160.178 192.5 165.551 192.306 169.933C192.094 174.804 191.966 180.761 192.368 184.401C193.175 191.704 197.066 192.657 197.066 192.657C197.066 192.657 197.066 195.483 197.066 198.944C197.069 200.022 197.221 201.088 197.514 202.081C197.806 203.073 198.233 203.972 198.77 204.724C199.306 205.477 199.941 206.068 200.637 206.464C201.334 206.859 202.078 207.051 202.827 207.028L202.84 207.009Z" fill="#FFBE9D"/>
<path d="M194.273 174.666C194.272 174.911 194.337 175.147 194.455 175.324C194.573 175.5 194.734 175.604 194.904 175.612C194.987 175.622 195.07 175.607 195.149 175.57C195.228 175.532 195.301 175.472 195.363 175.393C195.426 175.315 195.477 175.219 195.513 175.111C195.549 175.004 195.57 174.887 195.575 174.767C195.577 174.523 195.513 174.287 195.396 174.11C195.279 173.933 195.118 173.829 194.948 173.821C194.865 173.812 194.782 173.826 194.703 173.864C194.624 173.901 194.551 173.961 194.488 174.04C194.425 174.118 194.374 174.214 194.337 174.322C194.3 174.429 194.278 174.546 194.273 174.666Z" fill="#263238"/>
<path d="M193.188 173.033C193.267 173.16 193.761 172.633 194.463 172.633C195.164 172.633 195.676 173.141 195.751 173.02C195.826 172.9 195.707 172.741 195.482 172.506C195.178 172.207 194.818 172.048 194.45 172.049C194.085 172.047 193.729 172.214 193.435 172.525C193.237 172.76 193.188 172.982 193.188 173.033Z" fill="#263238"/>
<path d="M200.939 174.665C200.936 174.911 201.001 175.148 201.119 175.325C201.237 175.502 201.399 175.605 201.569 175.612C201.652 175.621 201.736 175.607 201.815 175.569C201.894 175.532 201.967 175.472 202.03 175.393C202.093 175.315 202.144 175.219 202.181 175.111C202.218 175.004 202.239 174.887 202.244 174.767C202.246 174.522 202.18 174.286 202.062 174.109C201.945 173.933 201.784 173.829 201.613 173.821C201.53 173.81 201.447 173.824 201.367 173.861C201.288 173.898 201.215 173.958 201.152 174.037C201.089 174.116 201.037 174.212 201.001 174.32C200.964 174.428 200.943 174.545 200.939 174.665Z" fill="#263238"/>
<path d="M200.092 173.223C200.171 173.344 200.665 172.823 201.367 172.823C202.068 172.823 202.58 173.331 202.655 173.204C202.73 173.077 202.611 172.931 202.386 172.696C202.083 172.394 201.722 172.235 201.353 172.239C200.989 172.236 200.634 172.4 200.339 172.709C200.123 172.95 200.052 173.166 200.092 173.223Z" fill="#263238"/>
<path d="M197.546 180.705C197.177 180.538 196.795 180.438 196.408 180.406C196.232 180.406 196.064 180.33 196.033 180.152C196.016 179.886 196.058 179.62 196.152 179.39L196.682 177.428C197.414 174.64 197.948 172.347 197.868 172.302C197.789 172.258 197.132 174.487 196.395 177.281L195.888 179.25C195.778 179.562 195.745 179.918 195.795 180.26C195.82 180.352 195.86 180.435 195.911 180.501C195.963 180.567 196.024 180.615 196.091 180.641C196.19 180.679 196.292 180.699 196.395 180.698C196.777 180.771 197.164 180.773 197.546 180.705Z" fill="#263238"/>
<path d="M197.065 192.638C199.456 192.691 201.809 191.787 203.863 190.028C203.863 190.028 202.213 195.045 197.132 194.36L197.065 192.638Z" fill="#EB996E"/>
<path d="M197.847 183.13C197.98 182.889 198.153 182.701 198.351 182.583C198.548 182.465 198.763 182.422 198.976 182.456C199.131 182.479 199.282 182.547 199.418 182.656C199.555 182.766 199.674 182.914 199.77 183.092C199.864 183.259 199.92 183.464 199.93 183.679C199.94 183.893 199.904 184.107 199.827 184.292C199.715 184.472 199.567 184.601 199.404 184.661C199.241 184.721 199.069 184.709 198.91 184.628C198.584 184.455 198.285 184.194 198.027 183.86C197.948 183.78 197.881 183.679 197.829 183.561C197.803 183.506 197.789 183.441 197.789 183.374C197.789 183.307 197.803 183.242 197.829 183.187" fill="#EB996E"/>
<path d="M199.611 181.397C199.496 181.397 199.496 182.483 198.844 183.265C198.191 184.046 197.383 183.9 197.379 184.071C197.375 184.243 197.56 184.287 197.9 184.3C198.347 184.301 198.781 184.076 199.126 183.665C199.456 183.274 199.668 182.714 199.717 182.102C199.748 181.664 199.66 181.397 199.611 181.397Z" fill="#263238"/>
<path d="M199.774 171.457C199.845 171.73 200.542 171.603 201.367 171.743C202.192 171.883 202.853 172.207 202.959 171.965C203.008 171.845 202.893 171.591 202.628 171.33C202.27 171.005 201.865 170.801 201.444 170.734C201.023 170.667 200.597 170.738 200.198 170.943C199.898 171.114 199.743 171.33 199.774 171.457Z" fill="#263238"/>
<path d="M193.303 171.173C193.426 171.402 193.907 171.173 194.489 171.173C195.072 171.173 195.561 171.332 195.671 171.091C195.724 170.97 195.645 170.742 195.429 170.526C195.143 170.259 194.807 170.128 194.467 170.151C194.125 170.16 193.794 170.322 193.519 170.615C193.316 170.831 193.25 171.065 193.303 171.173Z" fill="#263238"/>
<path d="M208.059 175.771C208.264 175.611 208.496 175.536 208.73 175.553C208.963 175.569 209.189 175.678 209.382 175.866C209.851 176.26 210.211 176.875 210.401 177.607C210.591 178.34 210.6 179.144 210.426 179.884C210.251 180.624 209.905 181.255 209.444 181.67C208.984 182.085 208.439 182.258 207.9 182.16" fill="#FFBE9D"/>
<path d="M208.416 179.981C208.416 179.93 208.61 180.038 208.857 179.879C209.01 179.755 209.134 179.567 209.212 179.341C209.291 179.115 209.321 178.86 209.298 178.609C209.298 178.359 209.246 178.115 209.149 177.907C209.053 177.699 208.916 177.537 208.756 177.44C208.5 177.288 208.314 177.364 208.314 177.307C208.314 177.25 208.486 177.078 208.822 177.186C209.016 177.253 209.189 177.409 209.316 177.631C209.469 177.903 209.557 178.24 209.567 178.59C209.594 178.909 209.546 179.233 209.431 179.509C209.316 179.785 209.141 179.998 208.932 180.114C208.575 180.26 208.389 180.006 208.416 179.981Z" fill="#EB996E"/>
<path d="M209.801 181.463C209.801 181.463 209.889 181.533 210.035 181.698L210.657 182.409L212.863 185.089L212.938 185.178L212.876 185.286C212.06 186.696 211.151 188.461 210.132 190.303C209.898 190.722 209.669 191.129 209.444 191.51L209.254 191.827V191.408C209.166 188.436 209.091 185.8 209.051 183.908C209.051 183.012 209.025 182.263 209.016 181.685C208.999 181.415 208.999 181.142 209.016 180.872C209.06 181.136 209.084 181.407 209.086 181.679C209.113 182.257 209.148 183 209.192 183.901C209.272 185.807 209.369 188.417 209.47 191.396L209.272 191.294L209.951 190.1C210.97 188.258 211.888 186.505 212.726 185.102V185.299L210.586 182.53L209.995 181.774C209.923 181.681 209.858 181.576 209.801 181.463Z" fill="#455A64"/>
<path d="M199.536 157.443C198.292 157.46 197.052 157.655 195.835 158.028C194.611 158.405 193.496 159.308 192.637 160.619C192.214 161.279 191.912 162.081 191.758 162.951C191.604 163.821 191.603 164.733 191.754 165.604C191.928 166.466 192.301 167.217 192.813 167.73C193.324 168.243 193.943 168.488 194.564 168.424C195.5 168.246 196.395 167.249 197.299 167.643C198.204 168.037 198.623 169.516 199.505 169.751C200.387 169.986 201.142 168.862 202.015 168.748C202.986 168.627 203.824 169.77 204.256 171.028C204.688 172.285 204.852 173.695 205.284 174.946C205.404 175.363 205.583 175.738 205.812 176.047C206.04 176.356 206.311 176.591 206.607 176.737C206.887 176.82 207.177 176.806 207.452 176.695C207.728 176.585 207.981 176.381 208.191 176.102C208.605 175.533 208.922 174.833 209.117 174.057C209.576 172.435 209.767 170.682 209.677 168.935C209.587 167.189 209.217 165.496 208.597 163.989C207.976 162.482 207.122 161.203 206.102 160.25C205.081 159.297 203.921 158.698 202.712 158.498" fill="#263238"/>
<path d="M211.905 165.203C211.865 165.203 211.746 164.612 211.438 163.717C210.609 161.382 209.208 159.572 207.507 158.636C206.859 158.28 206.431 158.172 206.435 158.115C206.44 158.058 206.55 158.115 206.744 158.115C207.023 158.17 207.297 158.262 207.564 158.388C208.45 158.809 209.265 159.493 209.955 160.395C210.65 161.293 211.205 162.393 211.583 163.621C211.7 163.989 211.791 164.372 211.857 164.765C211.89 164.906 211.906 165.054 211.905 165.203Z" fill="#6DD2AE"/>
<path d="M215.787 154.502C215.391 154.272 214.982 154.089 214.565 153.956C213.551 153.708 212.508 153.931 211.587 154.591C210.674 155.278 209.887 156.266 209.289 157.475C208.817 158.395 208.597 159.037 208.561 159.011C208.582 158.843 208.624 158.682 208.685 158.535C208.82 158.121 208.976 157.722 209.152 157.341C209.734 156.053 210.538 155.004 211.486 154.299C212.439 153.605 213.529 153.401 214.574 153.721C214.89 153.818 215.195 153.981 215.478 154.204C215.686 154.369 215.796 154.464 215.787 154.502Z" fill="#455A64"/>
<path d="M210.908 163.08C210.965 163.578 210.965 164.086 210.908 164.585C210.82 165.795 210.605 166.978 210.273 168.097C209.943 169.214 209.496 170.252 208.95 171.177C208.737 171.577 208.479 171.923 208.187 172.199C208.944 170.916 209.58 169.494 210.079 167.97C210.5 166.398 210.779 164.754 210.908 163.08Z" fill="#455A64"/>
<path d="M211.054 163.24C211.112 163.368 211.154 163.51 211.177 163.659C211.269 164.049 211.336 164.451 211.376 164.859C211.519 166.217 211.473 167.602 211.239 168.933C211.006 170.265 210.591 171.516 210.017 172.613C209.846 172.945 209.654 173.253 209.444 173.534C209.294 173.738 209.21 173.839 209.197 173.82C209.183 173.801 209.483 173.325 209.885 172.474C210.404 171.37 210.788 170.145 211.019 168.854C211.24 167.559 211.307 166.219 211.217 164.891C211.142 163.875 211.014 163.252 211.054 163.24Z" fill="#455A64"/>
<path d="M208.157 124.532C207.671 124.752 207.258 125.222 206.997 125.852C206.736 126.482 206.645 127.228 206.741 127.949C206.837 128.669 207.114 129.314 207.519 129.76C207.923 130.206 208.428 130.422 208.936 130.368C209.444 130.313 209.921 129.992 210.275 129.465C210.629 128.937 210.837 128.241 210.858 127.508C210.879 126.775 210.712 126.056 210.389 125.489C210.066 124.921 209.609 124.545 209.106 124.43" fill="#EBEBEB"/>
<path d="M214.121 112.053C213.563 112.305 213.088 112.844 212.787 113.567C212.487 114.29 212.381 115.146 212.491 115.974C212.6 116.802 212.917 117.543 213.381 118.056C213.846 118.57 214.425 118.819 215.008 118.758C215.592 118.697 216.14 118.329 216.548 117.724C216.955 117.119 217.194 116.32 217.219 115.478C217.244 114.636 217.054 113.81 216.683 113.158C216.313 112.505 215.789 112.071 215.211 111.938" fill="#EBEBEB"/>
<path d="M226.857 57.0566C222.887 56.5739 218.833 57.8568 216.093 62.0611C214.733 64.1878 213.718 66.724 213.123 69.4856C212.528 72.2472 212.367 75.1649 212.652 78.027C208.409 80.5674 206.097 88.3408 207.743 94.5392C209.388 100.738 214.726 104.256 219.058 102.052C220.037 105.625 221.647 108.768 223.728 111.173C225.808 113.577 228.288 115.159 230.923 115.763C233.558 116.367 236.257 115.972 238.753 114.617C241.249 113.261 243.457 110.993 245.159 108.035C249.319 109.387 253.982 109.305 257.511 105.774C261.04 102.243 262.593 94.5074 259.928 89.7062C264.723 88.0232 267.158 79.4052 265.738 72.5971C264.318 65.789 260.056 60.9116 255.513 58.1489C252.509 56.3199 248.759 55.3673 246.196 58.2696C245.165 55.9862 243.77 54.0907 242.127 52.741C240.483 51.3912 238.64 50.6264 236.75 50.5102C234.86 50.394 232.978 50.9298 231.261 52.0729C229.544 53.2161 228.042 54.9335 226.879 57.082" fill="#F5F5F5"/>
<path d="M226.857 57.055C226.857 57.055 226.936 56.9025 227.1 56.6104C227.342 56.1822 227.599 55.7731 227.872 55.3847C228.936 53.8768 230.187 52.6685 231.559 51.8219C232.554 51.2017 233.601 50.7745 234.674 50.5517C235.958 50.2944 237.263 50.3524 238.534 50.7232C240.004 51.1493 241.407 51.9631 242.672 53.1238C244.1 54.4353 245.319 56.1667 246.249 58.2045H246.134C247.224 57.0223 248.546 56.3686 249.91 56.3373C251.357 56.2994 252.797 56.6305 254.163 57.3154C255.614 58.0235 257.011 58.945 258.332 60.0652C259.734 61.2298 261.03 62.6398 262.192 64.2631C263.421 65.9635 264.432 67.963 265.178 70.1694C265.549 71.3207 265.832 72.5257 266.025 73.764C266.2 75.0345 266.261 76.3323 266.206 77.6253C266.096 80.2954 265.501 82.8771 264.481 85.1129C263.95 86.2469 263.287 87.2415 262.522 88.0533C261.743 88.8817 260.861 89.4894 259.924 89.8443L259.981 89.5966C260.56 90.6602 260.966 91.8973 261.168 93.2165C261.368 94.5574 261.392 95.9403 261.239 97.2938C260.912 100.074 259.986 102.636 258.592 104.616C257.126 106.583 255.308 107.92 253.342 108.478C251.352 109.063 249.306 109.151 247.295 108.738C246.558 108.605 245.83 108.395 245.115 108.179L245.23 108.122C243.929 110.4 242.325 112.28 240.512 113.652C238.699 115.023 236.713 115.859 234.672 116.109C232.631 116.36 230.576 116.02 228.628 115.109C226.68 114.199 224.878 112.736 223.328 110.808C221.397 108.459 219.892 105.469 218.943 102.095L219.075 102.178C217.856 102.743 216.568 102.936 215.293 102.744C214.019 102.553 212.786 101.981 211.673 101.066C210.615 100.244 209.688 99.1143 208.949 97.7489C208.21 96.3835 207.676 94.812 207.381 93.134C206.883 89.977 207.197 86.6673 208.263 83.8173C209.207 81.1872 210.748 79.1025 212.631 77.9111L212.586 78.0317C212.334 75.5152 212.427 72.952 212.86 70.4869C213.412 67.2979 214.521 64.3645 216.08 61.9641C216.533 61.2845 217.027 60.6659 217.558 60.1161C218.484 59.1563 219.51 58.4126 220.597 57.9123C222.624 57.0147 224.757 56.7187 226.866 57.0423C226.866 57.0423 226.725 57.0423 226.451 57.0423C226.178 57.0423 225.772 56.9978 225.234 56.9978C223.666 56.9988 222.107 57.3524 220.615 58.0457C219.538 58.5507 218.523 59.2966 217.606 60.2558C217.083 60.8015 216.596 61.4159 216.151 62.0912C215.676 62.8306 215.242 63.6227 214.854 64.46C213.996 66.3236 213.364 68.3828 212.983 70.5505C212.563 72.9906 212.477 75.5249 212.728 78.0127V78.0952L212.67 78.1333C210.827 79.3133 209.319 81.3632 208.396 83.9443C207.345 86.7377 207.032 89.9834 207.513 93.0832C207.815 94.7271 208.351 96.2626 209.087 97.5912C209.824 98.9199 210.746 100.013 211.792 100.799C212.881 101.692 214.087 102.249 215.333 102.435C216.579 102.621 217.839 102.432 219.031 101.879L219.124 101.835L219.164 101.968C220.129 105.36 221.658 108.359 223.615 110.704C225.572 113.049 227.898 114.668 230.39 115.419C233.081 116.138 235.856 115.822 238.435 114.501C241.014 113.181 243.305 110.904 245.076 107.9L245.12 107.823H245.186C245.896 108.039 246.615 108.249 247.347 108.376C249.331 108.782 251.348 108.696 253.312 108.122C255.237 107.582 257.019 106.275 258.455 104.35C259.813 102.419 260.713 99.9209 261.027 97.2112C261.195 95.9171 261.174 94.587 260.967 93.3048C260.76 92.0226 260.37 90.8162 259.823 89.7617L259.717 89.5712L259.884 89.5077C260.793 89.1602 261.649 88.5722 262.408 87.7739C263.143 86.9681 263.778 85.9889 264.287 84.8779C265.289 82.6891 265.873 80.1594 265.981 77.5427C266.041 76.2672 265.983 74.9859 265.809 73.7322C265.622 72.5176 265.344 71.3358 264.979 70.2075C264.246 68.0283 263.252 66.0525 262.042 64.3711C260.893 62.7616 259.61 61.3642 258.221 60.2113C256.916 59.0948 255.534 58.1754 254.097 57.4678C252.75 56.7908 251.332 56.4598 249.906 56.4897C248.575 56.5133 247.284 57.1448 246.218 58.2934L246.152 58.3696L246.104 58.268C244.351 54.4472 241.618 51.7822 238.503 50.8566C237.246 50.4817 235.955 50.4151 234.683 50.6597C232.134 51.1804 229.762 52.8346 227.898 55.3911C227.541 55.8991 227.276 56.3056 227.113 56.5914C226.95 56.8771 226.857 57.055 226.857 57.055Z" fill="#263238"/>
<path d="M254.141 76.8494C254.141 77.1224 246.315 77.3447 236.668 77.3447C227.02 77.3447 219.199 77.1224 219.199 76.8494C219.199 76.5763 227.02 76.354 236.668 76.354C246.315 76.354 254.141 76.5763 254.141 76.8494Z" fill="#455A64"/>
<path d="M254.141 82.3376C254.141 82.6107 246.315 82.833 236.668 82.833C227.02 82.833 219.199 82.6107 219.199 82.3376C219.199 82.0646 227.02 81.8359 236.668 81.8359C246.315 81.8359 254.141 82.0328 254.141 82.3376Z" fill="#455A64"/>
<path d="M254.141 87.7664C254.141 88.0395 246.315 88.2617 236.668 88.2617C227.02 88.2617 219.199 88.0395 219.199 87.7664C219.199 87.4933 227.02 87.271 236.668 87.271C246.315 87.271 254.141 87.4933 254.141 87.7664Z" fill="#455A64"/>
<path d="M254.141 93.2219C254.141 93.495 246.315 93.7173 236.668 93.7173C227.02 93.7173 219.199 93.495 219.199 93.2219C219.199 92.9488 227.02 92.7266 236.668 92.7266C246.315 92.7266 254.141 92.9488 254.141 93.2219Z" fill="#455A64"/>
</g>
<defs>
<filter id="filter0_d" x="0" y="0" width="317" height="292.989" filterUnits="userSpaceOnUse" color-interpolation-filters="sRGB">
<feFlood flood-opacity="0" result="BackgroundImageFix"/>
<feColorMatrix in="SourceAlpha" type="matrix" values="0 0 0 0 0 0 0 0 0 0 0 0 0 0 0 0 0 0 127 0" result="hardAlpha"/>
<feOffset dy="4"/>
<feGaussianBlur stdDeviation="2"/>
<feColorMatrix type="matrix" values="0 0 0 0 0 0 0 0 0 0 0 0 0 0 0 0 0 0 0.25 0"/>
<feBlend mode="normal" in2="BackgroundImageFix" result="effect1_dropShadow"/>
<feBlend mode="normal" in="SourceGraphic" in2="effect1_dropShadow" result="shape"/>
</filter>
</defs>
</svg>

