<svg width="318" height="217" viewBox="0 0 318 217" fill="none" xmlns="http://www.w3.org/2000/svg">
<path d="M211.022 170.298L200.09 214.487L204.711 214.477L215.665 170.712L211.022 170.298Z" fill="#E0E0E0"/>
<path d="M230.961 170.298L241.931 214.487H246.322L235.706 170.298H230.961Z" fill="#E0E0E0"/>
<path d="M203.644 137.107L209.869 167.532H216.941L210.293 137.107H203.644Z" fill="#E0E0E0"/>
<path d="M95.2507 170.298L86.3345 214.487H90.8757L100.189 170.298H95.2507Z" fill="#E0E0E0"/>
<path d="M113.995 170.298L124.187 214.243H128.674L118.831 170.298H113.995Z" fill="#E0E0E0"/>
<path d="M87.8733 137.107L94.0926 167.532H101.164L94.5216 137.107H87.8733Z" fill="#E0E0E0"/>
<path d="M73.869 134.336L75.1397 139.873H217.15L215.493 134.336H73.869Z" fill="#EBEBEB"/>
<path d="M76.5819 145.08L78.0831 150.612H219.128L217.847 145.08H76.5819Z" fill="#EBEBEB"/>
<path d="M79.386 156.204L80.7853 161.736H221.391L220.061 156.204H79.386Z" fill="#EBEBEB"/>
<path d="M241.759 167.527H90.1357V173.059H241.759V167.527Z" fill="#EBEBEB"/>
<path d="M44.0751 209.106C52.1174 202.316 52.6267 191.432 50.9539 181.911C50.6751 180.318 50.6322 178.611 49.6243 177.308C48.6163 176.005 46.5789 175.276 45.1367 176.134C43.9411 176.843 43.5765 178.291 43.0189 179.514C42.2812 181.152 41.0574 182.56 39.491 183.573C38.4723 184.232 37.1695 184.717 36.0114 184.292C34.4029 183.713 33.9901 181.831 33.781 180.238C33.395 177.279 33.0071 174.317 32.6175 171.351C32.4084 169.764 32.1886 168.141 31.4487 166.698C30.7088 165.255 29.3417 163.992 27.6635 163.763C25.9854 163.533 24.0981 164.646 23.9694 166.259C23.996 166.929 24.0712 167.596 24.1946 168.256C24.2375 168.92 24.007 169.689 23.3636 169.954C22.7202 170.218 21.9589 169.854 21.3852 169.454C19.4068 168.061 17.927 166.139 16.5276 164.222C15.1283 162.305 13.7504 160.328 11.9114 158.77C10.0724 157.212 7.67043 156.089 5.21486 156.274C2.75929 156.459 0.34125 158.151 0.0356443 160.458C-0.269962 162.764 1.44036 164.876 3.22038 166.504C5.84943 168.903 8.83832 170.934 12.0937 172.535C12.7162 172.768 13.2448 173.176 13.6056 173.703C14.1418 174.702 13.1874 175.9 12.1151 176.384C10.8981 176.928 9.50407 176.973 8.1905 177.278C6.87693 177.582 5.50974 178.301 5.17733 179.529C4.70016 181.237 6.3944 182.765 7.9814 183.708C11.1645 185.594 14.6719 186.957 18.3506 187.737C19.6641 188.017 21.0313 188.236 22.1626 188.93C23.2939 189.624 24.0981 190.987 23.637 192.181C23.1759 193.374 21.664 193.918 20.3182 193.848C18.9725 193.778 17.7018 193.254 16.3936 192.964C13.9327 192.42 10.9302 192.935 9.68636 195.001C9.32118 195.703 9.13504 196.473 9.14248 197.253C9.14992 198.032 9.35073 198.8 9.72925 199.495C10.4998 200.883 11.5628 202.112 12.855 203.109C17.142 206.822 22.4118 209.407 28.1246 210.598C33.8024 211.707 38.9066 211.597 44.0536 209.101" fill="#EBEBEB"/>
<path d="M45.1902 216.18C44.0995 211.801 42.5609 207.53 40.5954 203.424C38.1727 198.417 35.4409 193.544 32.4137 188.831L30.0547 185.106C29.2826 183.888 28.5106 182.675 27.6795 181.536C26.0781 179.351 24.3491 177.25 22.5003 175.241C20.7471 173.309 19.01 171.541 17.3694 169.894C15.7287 168.246 14.1524 166.748 12.678 165.435C10.3422 163.35 7.83224 161.44 5.17192 159.724C4.23365 159.12 3.4884 158.67 2.97906 158.371L2.39466 158.036C2.33187 157.993 2.26339 157.958 2.19092 157.931C2.24856 157.981 2.31144 158.024 2.37857 158.061L2.91472 158.421C3.41334 158.735 4.14787 159.2 5.05932 159.819C7.68194 161.568 10.1621 163.495 12.4797 165.585C13.9487 166.908 15.4982 168.416 17.1281 170.078C18.758 171.741 20.4898 173.503 22.2269 175.431C24.064 177.437 25.7823 179.535 27.3739 181.716C28.1996 182.85 28.9824 184.053 29.7384 185.276L32.0921 188.995C35.1103 193.702 37.8453 198.56 40.2844 203.549C42.2527 207.636 43.8072 211.884 44.9275 216.24" fill="#E0E0E0"/>
<path d="M27.5885 181.536C27.6368 181.306 27.6602 181.072 27.6582 180.837C27.6903 180.388 27.7064 179.739 27.7171 178.93C27.744 177.323 27.7171 175.096 27.626 172.645C27.5349 170.193 27.5456 167.971 27.5938 166.369C27.5938 165.565 27.6421 164.916 27.6635 164.467C27.6912 164.233 27.6912 163.997 27.6635 163.763C27.5958 163.989 27.5545 164.222 27.5402 164.457C27.4812 164.901 27.4223 165.555 27.3686 166.359C27.2614 167.966 27.2453 170.193 27.3097 172.65C27.374 175.106 27.4437 177.258 27.4973 178.93C27.4973 179.689 27.5241 180.323 27.5349 180.837C27.527 181.072 27.5449 181.306 27.5885 181.536Z" fill="#E0E0E0"/>
<path d="M5.12366 180.348C5.41793 180.373 5.71404 180.373 6.00831 180.348C6.58199 180.348 7.4023 180.293 8.42099 180.283C10.4584 180.243 13.2463 180.283 16.3775 180.453C19.5086 180.623 22.2751 180.892 24.3018 181.142C25.3151 181.262 26.1301 181.377 26.693 181.452C26.9841 181.509 27.2803 181.54 27.5777 181.546C27.2977 181.451 27.0087 181.381 26.7145 181.337C26.1783 181.227 25.3419 181.077 24.334 180.932C22.3127 180.633 19.5086 180.328 16.3936 180.153C13.7375 179.999 11.0746 179.972 8.41562 180.074C7.39158 180.113 6.57126 180.178 6.00294 180.233C5.70656 180.245 5.41209 180.284 5.12366 180.348Z" fill="#E0E0E0"/>
<path d="M40.2738 203.079C40.3262 202.997 40.366 202.908 40.3918 202.815C40.4615 202.6 40.5526 202.345 40.6652 202.031C40.8957 201.347 41.2013 200.353 41.5713 199.12C42.3112 196.654 43.2066 193.219 44.1448 189.415C45.0831 185.61 45.9463 182.17 46.6272 179.694C46.9596 178.491 47.233 177.502 47.4421 176.763C47.5279 176.444 47.5976 176.179 47.6566 175.964C47.6869 175.872 47.7049 175.776 47.7102 175.68C47.66 175.765 47.6205 175.856 47.5923 175.95C47.5226 176.159 47.4314 176.419 47.3242 176.728C47.0883 177.412 46.788 178.406 46.4127 179.639C45.6782 182.105 44.8043 185.54 43.8392 189.345C42.8741 193.149 42.0377 196.589 41.3568 199.065L40.5472 201.996C40.4561 202.316 40.3864 202.58 40.3274 202.795C40.2975 202.887 40.2795 202.983 40.2738 203.079Z" fill="#E0E0E0"/>
<path d="M9.9491 197.827C10.0471 197.864 10.1498 197.89 10.2547 197.902L11.1394 198.067L14.3884 198.636C17.1335 199.135 20.9134 199.819 25.1114 200.598C29.3095 201.377 33.084 202.056 35.8345 202.48C37.2124 202.695 38.3329 202.86 39.105 202.955L39.995 203.065C40.1 203.078 40.2064 203.078 40.3113 203.065C40.2133 203.028 40.1106 203.002 40.0057 202.99L39.1264 202.825L35.8774 202.261C33.1323 201.762 29.347 201.078 25.1543 200.294C20.9616 199.51 17.1818 198.841 14.4313 198.411C13.0534 198.197 11.9382 198.037 11.1608 197.937L10.2708 197.827C10.1641 197.814 10.0558 197.814 9.9491 197.827Z" fill="#E0E0E0"/>
<path d="M138.827 7.74678L24.3433 10.3149L27.9997 151.655L142.483 149.087L138.827 7.74678Z" fill="#E0E0E0"/>
<path d="M147.734 14.3503L33.2507 16.9185L36.9072 158.258L151.391 155.69L147.734 14.3503Z" fill="#EBEBEB"/>
<path d="M246.333 68.0843H296.597C296.597 68.0843 292.152 60.5555 279.215 61.6489C266.857 62.6973 266.229 57.9444 259.946 57.3602C253.662 56.7761 248.429 61.2744 246.333 68.0843Z" fill="#EBEBEB"/>
<path d="M231.492 97.5007H264.374C264.374 97.5007 261.463 92.573 253.002 93.2919C244.917 93.9759 244.51 90.8705 240.398 90.486C236.285 90.1016 232.865 93.0472 231.492 97.5007Z" fill="#EBEBEB"/>
<path d="M184.938 38.553H247.93C247.93 38.553 242.365 29.112 226.147 30.485C210.663 31.798 209.874 25.8419 202.02 25.1079C194.165 24.374 187.565 29.9957 184.938 38.553Z" fill="#E0E0E0"/>
<path d="M318 214.488C318 214.558 249.635 214.618 165.326 214.618C81.0158 214.618 12.6298 214.558 12.6298 214.488C12.6298 214.418 80.9837 214.368 165.326 214.368C249.667 214.368 318 214.413 318 214.488Z" fill="#263238"/>
<path d="M139.784 0.103406L26.3105 14.4651L46.7583 154.558L160.232 140.196L139.784 0.103406Z" fill="#FAFAFA"/>
<path d="M160.216 140.208C160.066 139.209 151.836 83.137 139.655 0.129807L139.794 0.22966L26.3392 14.5934L26.4571 14.4436C34.0437 66.5865 41.0887 114.965 46.8577 154.546L46.729 154.456L160.216 140.208L46.7558 154.686H46.6432V154.581C40.8474 115.015 33.7863 66.6414 26.1676 14.4836V14.3588H26.3016L139.762 0H139.885V0.11483C151.938 83.122 160.071 139.184 160.216 140.208Z" fill="#263238"/>
<path d="M41.5819 26.9501C41.8936 26.7702 42.1423 26.5096 42.2975 26.2001C42.4527 25.8907 42.5077 25.5458 42.4558 25.2077C42.4324 24.9893 42.3621 24.7776 42.249 24.585C42.136 24.3925 41.9825 24.223 41.7978 24.0868C41.6131 23.9505 41.4008 23.8502 41.1736 23.7919C40.9464 23.7335 40.7089 23.7183 40.4753 23.7471C40.2417 23.7758 40.0166 23.8481 39.8135 23.9594C39.6105 24.0708 39.4335 24.219 39.2932 24.3953C39.1528 24.5717 39.052 24.7724 38.9966 24.9857C38.9412 25.1991 38.9325 25.4206 38.9708 25.6371C39.0089 25.9833 39.1573 26.3111 39.3972 26.578C39.6371 26.845 39.9573 27.0389 40.3166 27.1349C39.7757 27.2648 39.2886 27.5416 38.9171 27.9301C38.5457 28.3187 38.3069 28.8013 38.231 29.3166C38.952 29.8979 39.8723 30.2202 40.8259 30.2253L41.8982 30.0955C42.8295 29.8562 43.6367 29.312 44.1715 28.5628C43.9643 28.0825 43.6063 27.6716 43.1443 27.3839C42.6822 27.0962 42.1377 26.945 41.5819 26.9501Z" fill="#455A64"/>
<path d="M41.3622 30.1705C41.3622 30.1405 41.7107 30.1056 42.2897 29.8809C43.1024 29.5538 43.7756 28.9849 44.2038 28.2633C44.5156 27.7366 44.6818 27.146 44.6875 26.5446C44.6931 25.9432 44.5379 25.35 44.2359 24.8184C43.8831 24.1836 43.3341 23.6619 42.6597 23.3206C41.9422 22.955 41.1178 22.813 40.3073 22.9155C39.4968 23.0179 38.7429 23.3593 38.156 23.8898C37.6128 24.383 37.2395 25.0156 37.0837 25.7071C36.9455 26.295 36.9662 26.9057 37.144 27.4843C37.3218 28.0629 37.6511 28.5913 38.1024 29.0222C38.7216 29.6092 39.5324 29.9885 40.4078 30.1006C41.0298 30.1755 41.3836 30.1006 41.3836 30.1505C41.3026 30.1782 41.2178 30.195 41.1316 30.2004C40.8858 30.2269 40.6375 30.2269 40.3917 30.2004C39.4705 30.1269 38.6057 29.7561 37.9469 29.152C37.4875 28.7337 37.1404 28.2206 36.9336 27.6542C36.7032 27.0106 36.6588 26.3218 36.8049 25.6571C36.9717 24.9089 37.3772 24.2251 37.9683 23.695C38.6004 23.1214 39.4137 22.7521 40.2883 22.6415C41.1629 22.531 42.0524 22.685 42.8259 23.081C43.5104 23.4275 44.0754 23.9479 44.455 24.5815C44.8346 25.2152 45.0134 25.9362 44.9705 26.6607C44.926 27.3878 44.6563 28.0875 44.1938 28.6749C43.7314 29.2623 43.0961 29.7124 42.3648 29.9708C42.1341 30.0502 41.8951 30.1071 41.6517 30.1405C41.5581 30.1673 41.4598 30.1774 41.3622 30.1705Z" fill="#455A64"/>
<path d="M82.28 20.9134L50.4678 24.9397L50.6837 26.4189L82.4959 22.3926L82.28 20.9134Z" fill="#455A64"/>
<path d="M133.264 12.4564C133.283 12.5837 133.261 12.7133 133.2 12.8289C133.14 12.9445 133.044 13.0409 132.925 13.1058C132.806 13.1706 132.669 13.2011 132.531 13.1934C132.394 13.1856 132.261 13.14 132.152 13.0622C132.042 12.9844 131.959 12.878 131.914 12.7565C131.869 12.635 131.864 12.5038 131.9 12.3796C131.935 12.2553 132.009 12.1437 132.112 12.0587C132.216 11.9737 132.344 11.9192 132.481 11.9022C132.664 11.8795 132.848 11.925 132.995 12.0289C133.142 12.1327 133.238 12.2864 133.264 12.4564Z" fill="#455A64"/>
<path d="M133.58 14.7682C133.599 14.8954 133.577 15.0251 133.517 15.1407C133.457 15.2563 133.361 15.3527 133.242 15.4175C133.123 15.4824 132.985 15.5129 132.848 15.5052C132.71 15.4974 132.578 15.4517 132.468 15.374C132.358 15.2962 132.275 15.1898 132.231 15.0683C132.186 14.9468 132.181 14.8156 132.216 14.6913C132.251 14.5671 132.325 14.4554 132.429 14.3705C132.532 14.2855 132.661 14.231 132.797 14.214C132.98 14.1912 133.165 14.2368 133.312 14.3406C133.458 14.4445 133.555 14.5982 133.58 14.7682Z" fill="#455A64"/>
<path d="M133.918 17.0747C133.937 17.202 133.915 17.3316 133.855 17.4472C133.794 17.5629 133.699 17.6592 133.579 17.7241C133.46 17.789 133.323 17.8194 133.185 17.8117C133.048 17.8039 132.916 17.7583 132.806 17.6805C132.696 17.6027 132.613 17.4963 132.568 17.3748C132.524 17.2533 132.518 17.1221 132.554 16.9979C132.589 16.8737 132.663 16.762 132.767 16.677C132.87 16.592 132.998 16.5376 133.135 16.5205C133.226 16.5086 133.318 16.5135 133.406 16.5349C133.495 16.5564 133.578 16.594 133.651 16.6455C133.723 16.697 133.785 16.7615 133.83 16.8352C133.876 16.9089 133.906 16.9903 133.918 17.0747Z" fill="#455A64"/>
<path d="M70.5663 141.835L69.3331 141.491C68.7572 141.867 68.0647 142.057 67.3617 142.032C66.6586 142.006 65.9839 141.767 65.4408 141.351C64.8977 140.934 64.5162 140.364 64.3547 139.726C64.1932 139.088 64.2607 138.419 64.5468 137.82C64.8328 137.222 65.3217 136.727 65.9385 136.412C66.5553 136.097 67.266 135.979 67.9618 136.076C68.6576 136.173 69.3001 136.479 69.7908 136.949C70.2816 137.418 70.5935 138.025 70.6789 138.675C70.7849 139.415 70.594 140.165 70.1427 140.782L70.5663 141.835ZM67.0331 136.278C66.5552 136.315 66.0934 136.456 65.6851 136.69C65.2769 136.924 64.9338 137.245 64.6837 137.626C64.4337 138.007 64.2838 138.437 64.2462 138.882C64.2086 139.327 64.2844 139.774 64.4674 140.187C64.6504 140.6 64.9355 140.966 65.2994 141.257C65.6633 141.548 66.0958 141.754 66.5617 141.86C67.0275 141.966 67.5136 141.967 67.9803 141.865C68.447 141.763 68.8811 141.559 69.2474 141.271L69.2903 141.241L70.2017 141.496L69.8961 140.732L69.9336 140.687C70.2726 140.236 70.4631 139.703 70.4818 139.153C70.5004 138.602 70.3464 138.059 70.0387 137.589C69.7309 137.119 69.2826 136.743 68.7488 136.507C68.215 136.27 67.6188 136.184 67.0331 136.258V136.278Z" fill="#263238"/>
<path d="M78.0027 140.477L76.2495 137.596L73.4508 135.764L79.5254 134.985L78.0027 140.477ZM74.0459 135.899L76.4318 137.481L77.9223 139.933L79.2252 135.255L74.0459 135.899Z" fill="#263238"/>
<path d="M79.3009 135.044L76.26 137.448L76.4057 137.608L79.4466 135.204L79.3009 135.044Z" fill="#263238"/>
<path d="M100.827 133.413C100.867 133.642 100.833 133.878 100.729 134.09C100.625 134.301 100.455 134.479 100.242 134.6C100.028 134.721 99.7809 134.78 99.5312 134.77C99.2815 134.759 99.0409 134.679 98.8403 134.54C98.6397 134.401 98.4882 134.21 98.4052 133.99C98.3223 133.771 98.3116 133.533 98.3747 133.308C98.4378 133.083 98.5717 132.88 98.7592 132.726C98.9467 132.572 99.1794 132.474 99.4272 132.444C99.5875 132.421 99.751 132.429 99.9083 132.465C100.066 132.502 100.214 132.567 100.344 132.657C100.474 132.747 100.583 132.86 100.666 132.99C100.749 133.119 100.804 133.263 100.827 133.413Z" fill="#263238"/>
<path d="M104.676 132.938C104.697 133.234 104.596 133.527 104.394 133.756C104.192 133.985 103.904 134.135 103.588 134.173C103.272 134.212 102.953 134.137 102.694 133.965C102.435 133.792 102.256 133.534 102.194 133.243C102.173 132.947 102.274 132.655 102.476 132.425C102.678 132.196 102.966 132.047 103.282 132.008C103.598 131.969 103.918 132.044 104.176 132.217C104.435 132.389 104.614 132.647 104.676 132.938Z" fill="#263238"/>
<path d="M108.52 132.489C108.562 132.719 108.529 132.955 108.426 133.167C108.322 133.379 108.153 133.557 107.94 133.679C107.727 133.801 107.479 133.861 107.23 133.851C106.98 133.841 106.739 133.762 106.537 133.623C106.336 133.485 106.184 133.293 106.101 133.074C106.017 132.854 106.006 132.616 106.069 132.391C106.132 132.165 106.265 131.962 106.453 131.808C106.64 131.654 106.873 131.555 107.121 131.525C107.444 131.481 107.772 131.557 108.034 131.738C108.297 131.919 108.471 132.189 108.52 132.489Z" fill="#263238"/>
<path d="M150.957 131.99L148.099 129.968L146.056 132.489L145.059 125.754L149.96 125.135L150.957 131.99ZM148.056 129.673L148.147 129.738L150.662 131.52L149.766 125.394L145.311 125.959L146.185 131.95L148.056 129.673Z" fill="#263238"/>
<path d="M60.315 137.981C60.1701 137.586 59.8797 137.251 59.4952 137.036C59.1107 136.821 58.6569 136.74 58.2143 136.807C57.7718 136.874 57.369 137.085 57.0773 137.402C56.7856 137.719 56.624 138.122 56.6209 138.54C56.4986 138.138 56.2274 137.789 55.8552 137.556C55.4831 137.322 55.0342 137.219 54.5882 137.265C54.1422 137.31 53.7279 137.501 53.4189 137.804C53.1099 138.107 52.926 138.502 52.9001 138.919C52.8969 139.531 53.1464 140.121 53.5971 140.567C54.045 141.008 54.5533 141.392 55.109 141.71C55.8596 142.209 56.5566 142.639 57.3126 143.113C57.9023 142.469 58.3849 141.865 58.9854 141.221C59.4302 140.769 59.8104 140.266 60.1167 139.723C60.4151 139.186 60.4859 138.564 60.315 137.981Z" fill="#6DD2AE"/>
<path d="M135.12 25.5408L37.396 37.4902L50.45 130.062L148.174 118.112L135.12 25.5408Z" fill="#E0E0E0"/>
<path d="M62.1112 68.0843C60.862 73.5762 60.8191 81.5245 61.13 91.7393C61.1837 93.6215 80.5333 79.1829 80.5333 79.1829L83.3535 95.4938C83.3535 95.4938 69.7031 108.3 57.2912 107.686C48.686 107.261 47.5064 95.9831 48.0748 87.0313C48.6109 78.3941 49.6564 69.1278 51.2488 64.5046" fill="#FFBE9D"/>
<path d="M61.1889 72.1882L50.1764 68.6933C50.1764 68.6933 51.5382 60.0811 53.2914 60.111C53.2914 60.111 54.2833 60.3806 54.026 61.0197C54.026 61.0197 54.7551 59.8215 55.7685 60.2608C56.7818 60.7002 56.3368 61.9533 56.3368 61.9533C56.3368 61.9533 59.5537 52.9666 60.8833 53.4659C62.0253 53.8952 61.4195 54.729 59.2749 60.7701C59.2749 60.7701 58.3634 63.6158 59.0926 63.2064C59.8218 62.797 62.8885 57.4799 63.9179 56.2917C64.4541 55.6476 65.3602 56.751 64.4863 58.4135C63.7517 59.8015 61.7412 63.5909 61.6661 64.4047C61.6784 64.6364 61.7271 64.8652 61.8109 65.0837C62.0414 65.533 62.5883 66.7662 62.0629 69.0378C61.9181 69.6769 61.2104 72.1931 61.2104 72.1931" fill="#FFBE9D"/>
<path d="M59.1302 70.6905C58.9802 70.5809 58.8483 70.4514 58.7388 70.306C58.4143 69.9328 58.1153 69.5409 57.8434 69.1328C57.4427 68.5237 57.0983 67.884 56.814 67.2206C56.645 66.8287 56.4982 66.4287 56.3744 66.0224C56.3101 65.8127 56.2457 65.598 56.1975 65.3683C56.1321 65.1275 56.1321 64.8753 56.1975 64.6344C56.2373 64.4799 56.3252 64.3397 56.4501 64.2313C56.575 64.123 56.7314 64.0513 56.8998 64.0253C57.2085 64.0179 57.5102 64.1115 57.7523 64.2899C58.8658 65.0168 59.7119 66.0453 60.1757 67.2356H60.0309C60.2689 66.9543 60.5711 66.7258 60.9156 66.5666C61.1569 66.4617 61.3016 66.4367 61.3016 66.4517C60.8598 66.6659 60.4723 66.9655 60.165 67.3304L60.0738 67.4403L60.0149 67.3105C59.7064 66.6198 59.271 65.9845 58.7281 65.4332C58.3902 65.0909 58.0126 64.7844 57.6022 64.5196C57.4127 64.3772 57.1755 64.3012 56.932 64.3049C56.818 64.3251 56.713 64.3761 56.63 64.4516C56.5471 64.5271 56.4899 64.6237 56.4655 64.7293C56.408 65.1501 56.4651 65.5776 56.6317 65.9724C56.7533 66.3885 56.8927 66.7829 57.0499 67.1557C57.3181 67.8113 57.6389 68.4471 58.0097 69.0579C58.653 70.0814 59.1677 70.6605 59.1302 70.6905Z" fill="#EB996E"/>
<path d="M56.0849 62.5426C56.1085 62.7083 56.1085 62.8761 56.0849 63.0418C56.0849 63.3813 56.0527 63.8656 56.0044 64.4647C55.9562 65.0638 55.8918 65.7778 55.79 66.5716C55.7469 66.9928 55.6771 67.4112 55.5809 67.8247C55.5068 68.067 55.3436 68.2773 55.1198 68.4189C54.9975 68.4995 54.8514 68.5428 54.7016 68.5428C54.5518 68.5428 54.4057 68.4995 54.2834 68.4189C54.0719 68.2523 53.9281 68.0232 53.8759 67.7698C53.8234 67.5478 53.7876 67.3225 53.7687 67.0958C53.7258 66.6615 53.7097 66.2421 53.7043 65.8427C53.7043 65.0439 53.7043 64.3449 53.7365 63.7258C53.7687 63.1067 53.7901 62.7023 53.8062 62.3079C53.8056 62.132 53.8236 61.9564 53.8598 61.7837C53.9074 61.9547 53.9272 62.1314 53.9188 62.3079C53.9188 62.6424 53.9188 63.1317 53.9188 63.7308C53.9188 64.3299 53.9188 65.0439 53.9188 65.8377C53.9188 66.2321 53.951 66.6465 53.9992 67.0709C54.0166 67.2842 54.0507 67.4962 54.1011 67.7049C54.1408 67.8983 54.2483 68.0739 54.4067 68.2042C54.4832 68.2601 54.5776 68.2904 54.6748 68.2904C54.772 68.2904 54.8664 68.2601 54.9429 68.2042C55.1136 68.0964 55.2372 67.9352 55.2914 67.7499C55.3889 67.3532 55.4605 66.9514 55.5058 66.5466C55.6184 65.7578 55.7096 65.0489 55.7846 64.4547C55.8597 63.8606 55.9026 63.4312 55.9455 63.0418C55.9729 62.8713 56.0196 62.7039 56.0849 62.5426Z" fill="#EB996E"/>
<path d="M53.7042 64.8689C53.8623 65.2406 53.8923 65.6489 53.79 66.0372C53.7495 66.2342 53.6921 66.4278 53.6185 66.6163C53.5338 66.8463 53.3903 67.0537 53.2003 67.2204C53.1384 67.2725 53.0651 67.3115 52.9855 67.3348C52.906 67.358 52.8219 67.365 52.7392 67.3552C52.6538 67.3382 52.5736 67.3038 52.5041 67.2546C52.4346 67.2055 52.3776 67.1427 52.3371 67.0707C52.2129 66.8195 52.1177 66.5567 52.0529 66.2868C51.7932 65.3787 51.6758 64.4404 51.7044 63.501C51.6949 63.1104 51.7528 62.721 51.876 62.3477C51.8606 63.6509 52.01 64.9512 52.321 66.2219C52.3824 66.4679 52.4667 66.7085 52.573 66.9409C52.5884 66.9832 52.6154 67.0211 52.6512 67.0509C52.687 67.0807 52.7305 67.1014 52.7774 67.1109C52.8244 67.1205 52.8731 67.1185 52.919 67.1054C52.9649 67.0922 53.0064 67.0682 53.0394 67.0357C53.2011 66.898 53.3259 66.7271 53.404 66.5365C53.4827 66.3632 53.5472 66.1846 53.597 66.0023C53.6665 65.6279 53.7024 65.2488 53.7042 64.8689Z" fill="#EB996E"/>
<path d="M58.7388 71.4094C58.712 71.4543 58.3475 71.2197 57.6665 71.0599C57.2836 70.9648 56.8806 70.9648 56.4977 71.0599C56.031 71.1871 55.6245 71.4582 55.345 71.8287L55.1091 72.1333V71.7589C55.1091 71.6191 55.1091 71.4693 55.0716 71.3195C54.9427 70.3757 54.5111 69.49 53.8331 68.7783C53.2969 68.2291 52.8787 67.9944 52.9055 67.9595C53.3189 68.105 53.6873 68.3434 53.9778 68.6534C54.7344 69.3676 55.2168 70.2941 55.3504 71.2895C55.3772 71.4493 55.3772 71.6091 55.3879 71.7589L55.1305 71.689C55.4143 71.3106 55.8222 71.0281 56.293 70.8841C56.7639 70.7401 57.2722 70.7422 57.7416 70.8901C57.8972 70.9332 58.048 70.99 58.192 71.0599C58.3024 71.103 58.4068 71.1583 58.5029 71.2246C58.6584 71.3345 58.7388 71.3944 58.7388 71.4094Z" fill="#EB996E"/>
<path d="M122.814 120.771L121.549 114.91L118.868 92.7377L125.838 80.1114L124.852 79.038C116.841 69.9515 109.303 72.1881 105.99 72.288L89.369 73.7359C80.8603 74.7793 78.9302 75.9176 73.0111 82.3831L62.0629 91.3098L65.2101 109.822L79.8953 101.994L82.5438 118.3L81.8897 125.944" fill="#6DD2AE"/>
<path d="M146.593 100.721C146.593 100.721 136.888 89.9768 123.409 77.4902L116.89 94.1755C116.89 94.1755 132.074 112.823 136.036 119.099L149.037 117.451L146.593 100.721Z" fill="#FFBE9D"/>
<path d="M77.8418 78.3391C77.8687 78.3391 77.5952 78.6786 77.2735 79.3376C76.8325 80.2852 76.5852 81.3011 76.5444 82.3332C76.509 83.8679 76.6892 85.4003 77.0805 86.8915C77.488 88.5939 77.8633 90.4811 78.2386 92.4582C78.9731 96.4074 79.6326 99.9821 80.1205 102.608L80.6888 105.684C80.7478 106.028 80.8014 106.303 80.8389 106.522C80.8671 106.618 80.8798 106.718 80.8765 106.817C80.8354 106.725 80.8048 106.63 80.7853 106.532C80.7371 106.343 80.662 106.063 80.5816 105.704C80.41 104.985 80.1902 103.936 79.9275 102.643C79.3913 100.052 78.7211 96.4673 77.9652 92.5032C77.5845 90.5061 77.2199 88.6439 76.8285 86.9414C76.4421 85.4279 76.2762 83.8729 76.3353 82.3182C76.396 81.267 76.6783 80.2373 77.1663 79.2877C77.2997 79.0315 77.4557 78.786 77.6327 78.5538C77.6948 78.4761 77.7649 78.4042 77.8418 78.3391Z" fill="#263238"/>
<path d="M96.9128 79.8818C97.9489 79.7508 98.9447 79.4219 99.8378 78.9155C100.731 78.4092 101.502 77.7365 102.102 76.9395C102.703 76.1425 103.12 75.2385 103.328 74.2843C103.536 73.33 103.529 72.3461 103.309 71.3943L102.21 66.5864C102.21 66.5864 108.081 64.9588 107.341 59.3621C106.601 53.7654 103.69 41.1241 103.69 41.1241C100.081 40.19 96.2707 40.17 92.6513 41.0661C89.0319 41.9622 85.7351 43.742 83.1015 46.2216L82.3295 46.9505L88.4845 74.325C88.8765 76.0709 89.9633 77.6142 91.5266 78.6449C93.0899 79.6756 95.0141 80.1174 96.9128 79.8818Z" fill="#FFBE9D"/>
<path d="M103.116 51.2991C102.972 51.2077 102.861 51.0788 102.796 50.9286C102.731 50.7784 102.716 50.6136 102.751 50.4551C102.787 50.2966 102.872 50.1516 102.997 50.0382C103.121 49.9249 103.278 49.8484 103.449 49.8184C103.62 49.7884 103.797 49.8062 103.957 49.8696C104.117 49.9331 104.253 50.0393 104.348 50.1748C104.443 50.3103 104.493 50.469 104.491 50.6309C104.49 50.7928 104.436 50.9506 104.338 51.0844C104.273 51.1732 104.19 51.2493 104.093 51.3082C103.997 51.3671 103.889 51.4077 103.775 51.4276C103.662 51.4475 103.545 51.4464 103.432 51.4244C103.319 51.4023 103.211 51.3597 103.116 51.2991Z" fill="#263238"/>
<path d="M105.025 49.7564C104.944 49.8662 104.296 49.5167 103.47 49.6216C102.644 49.7264 102.103 50.1957 101.995 50.1208C101.888 50.0459 101.995 49.8962 102.247 49.6765C102.565 49.395 102.972 49.2163 103.408 49.1668C103.843 49.1174 104.284 49.1998 104.666 49.4019C104.95 49.5417 105.068 49.7114 105.025 49.7564Z" fill="#263238"/>
<path d="M95.0255 51.3539C95.1848 51.419 95.3198 51.5267 95.4133 51.6633C95.5069 51.7998 95.5548 51.9592 95.5511 52.1211C95.5474 52.2831 95.4921 52.4404 95.3924 52.5731C95.2926 52.7058 95.1528 52.808 94.9907 52.8667C94.8286 52.9254 94.6514 52.938 94.4815 52.9029C94.3117 52.8678 94.1569 52.7866 94.0366 52.6696C93.9164 52.5525 93.8361 52.4049 93.806 52.2453C93.7759 52.0858 93.7973 51.9215 93.8675 51.7733C93.9134 51.6745 93.98 51.5853 94.0632 51.5107C94.1465 51.436 94.2448 51.3775 94.3525 51.3385C94.4602 51.2995 94.5752 51.2808 94.6907 51.2834C94.8062 51.2861 94.92 51.31 95.0255 51.3539Z" fill="#263238"/>
<path d="M96.1031 51.2243C96.0227 51.3341 95.374 50.9846 94.5483 51.0845C93.7226 51.1843 93.1757 51.6586 93.0739 51.5838C92.972 51.5089 93.0739 51.3591 93.3259 51.1394C93.6441 50.8585 94.0504 50.6799 94.4855 50.6296C94.9206 50.5793 95.3616 50.6599 95.7439 50.8598C96.0281 51.0096 96.1407 51.1744 96.1031 51.2243Z" fill="#263238"/>
<path d="M100.339 57.1505C100.742 56.939 101.181 56.7922 101.636 56.7162C101.851 56.6712 102.011 56.6013 102.011 56.4915C101.99 56.2899 101.908 56.098 101.776 55.9373L100.896 54.4395C99.6685 52.3277 98.7517 50.5703 98.8803 50.5104C99.009 50.4504 100.081 52.118 101.309 54.2298L102.162 55.7276C102.338 55.9678 102.421 56.2565 102.397 56.5464C102.381 56.6281 102.343 56.7046 102.287 56.7691C102.231 56.8336 102.158 56.8841 102.076 56.9159C101.96 56.9625 101.837 56.9928 101.711 57.0057C101.266 57.1268 100.802 57.1758 100.339 57.1505Z" fill="#263238"/>
<path d="M102.204 66.5215C99.4438 66.9218 96.6175 66.5463 94.0872 65.4431C94.0872 65.4431 96.5213 69.2275 102.43 67.9694L102.204 66.5215Z" fill="#EB996E"/>
<path d="M102.51 39.866C102.851 39.7946 103.169 39.6511 103.441 39.4467C103.712 39.2422 103.929 38.9823 104.075 38.687C104.222 38.3918 104.293 38.0691 104.283 37.7441C104.274 37.4191 104.184 37.1005 104.022 36.813C103.859 36.5254 103.627 36.2767 103.344 36.086C103.061 35.8954 102.735 35.768 102.391 35.7137C102.047 35.6594 101.693 35.6796 101.359 35.7729C101.025 35.8661 100.718 36.0298 100.462 36.2513C101.056 35.5761 101.491 34.7919 101.738 33.9498C101.852 33.5267 101.824 33.0814 101.658 32.6736C101.493 32.2657 101.197 31.9149 100.811 31.6681C100.006 31.2487 98.9769 31.5134 98.2156 31.9976C97.0682 32.7316 96.2854 33.9048 95.0845 34.5638C93.8835 35.2229 92.4037 35.2828 91.0204 35.5973C89.485 35.9109 88.0948 36.6674 87.0476 37.7591C86.5344 38.3097 86.1663 38.9643 85.9727 39.6707C85.7791 40.3771 85.7653 41.1158 85.9324 41.8281C83.954 41.9629 81.804 42.3274 80.5172 43.7403C79.4449 44.9235 79.2037 46.636 79.5254 48.1637C79.8471 49.6915 80.8389 51.0195 81.6324 52.3925C81.8345 52.7883 82.1188 53.1429 82.4688 53.4359L84.0344 57.2553L86.6669 56.7211L84.7314 48.5132C84.7314 48.5132 83.7234 45.0933 86.9939 44.8037C90.2645 44.5141 95.3472 47.0703 101.411 45.0633C102.392 44.7388 103.422 44.4392 104.156 43.7453C104.535 43.4098 104.81 42.9861 104.953 42.5182C105.096 42.0502 105.103 41.5551 104.971 41.0842C104.815 40.6206 104.47 40.2329 104.009 40.0049C103.548 39.7769 103.01 39.727 102.51 39.866Z" fill="#263238"/>
<path d="M83.0801 52.3525C82.9407 52.3525 78.5657 52.6072 79.9704 57.2253C81.3751 61.8435 85.9217 58.9927 85.8681 58.8579C85.8145 58.7231 83.0801 52.3525 83.0801 52.3525Z" fill="#FFBE9D"/>
<path d="M83.8789 57.6397C83.8789 57.6397 83.8092 57.7196 83.6805 57.8194C83.4992 57.9548 83.2685 58.0193 83.0372 57.9992C82.4581 57.9592 81.7826 57.3002 81.5038 56.4764C81.3717 56.0844 81.3351 55.67 81.3965 55.2632C81.3979 55.1066 81.4407 54.9526 81.5211 54.8151C81.6015 54.6775 81.7171 54.5605 81.8576 54.4744C81.9494 54.4228 82.0578 54.4031 82.1637 54.4186C82.2696 54.4341 82.3663 54.4839 82.4367 54.5592C82.5385 54.6691 82.5385 54.7689 82.5653 54.7689C82.5921 54.7689 82.6511 54.6641 82.5653 54.4843C82.5045 54.3765 82.4035 54.293 82.2812 54.2497C82.118 54.1873 81.935 54.1873 81.7718 54.2497C81.5793 54.3406 81.4151 54.476 81.2949 54.643C81.1747 54.81 81.1026 55.0029 81.0856 55.2033C80.9969 55.6594 81.0282 56.1288 81.1767 56.5713C81.493 57.4949 82.249 58.2288 83.0479 58.2338C83.1919 58.2337 83.334 58.2036 83.4639 58.1458C83.5938 58.0879 83.7081 58.0037 83.7985 57.8993C83.9004 57.7545 83.895 57.6397 83.8789 57.6397Z" fill="#EB996E"/>
<path d="M95.5778 47.7643C95.4866 47.9689 94.5377 47.7643 93.4332 47.944C92.3287 48.1237 91.4548 48.5331 91.2886 48.3584C91.2189 48.2785 91.3529 48.0438 91.7014 47.7842C92.1692 47.4612 92.7152 47.2504 93.2911 47.1703C93.8671 47.0902 94.4554 47.1433 95.0041 47.3249C95.4169 47.4797 95.6207 47.6694 95.5778 47.7643Z" fill="#263238"/>
<path d="M103.775 47.2499C103.679 47.4496 103.127 47.4247 102.532 47.5894C101.936 47.7542 101.459 48.0138 101.282 47.889C101.191 47.8241 101.207 47.6394 101.379 47.3897C101.613 47.107 101.941 46.9049 102.312 46.8156C102.681 46.7171 103.075 46.7347 103.432 46.8655C103.679 47.0003 103.775 47.1551 103.775 47.2499Z" fill="#263238"/>
<path d="M91.0579 52.6871C90.9915 52.498 90.9413 52.3044 90.9078 52.1079C90.8381 51.6786 90.7416 51.1094 90.6237 50.4304V50.3555H90.7094C92.4358 50.1159 95.0255 49.7664 98.0011 49.387H98.1405V49.5168C98.2316 50.1408 98.3281 50.7899 98.4246 51.4539C98.5966 52.2138 98.5085 53.0047 98.1727 53.7156C97.9644 54.1618 97.6583 54.5627 97.2741 54.8925C96.8899 55.2222 96.4359 55.4737 95.9413 55.6307C95.4467 55.7876 94.9223 55.8467 94.4018 55.8041C93.8812 55.7614 93.376 55.618 92.9184 55.3831C92.1446 54.9938 91.5457 54.3599 91.2295 53.5957C91.1456 53.3911 91.0862 53.1785 91.0526 52.9617C91.0383 52.8874 91.0383 52.8113 91.0526 52.737C91.0847 52.737 91.1116 53.0465 91.3475 53.5558C91.6871 54.2747 92.2813 54.8634 93.031 55.2233C93.5789 55.4833 94.189 55.6087 94.8036 55.5877C95.4181 55.5667 96.0167 55.4001 96.5428 55.1035C97.1624 54.7488 97.6506 54.2262 97.9421 53.6057C98.2496 52.9368 98.3282 52.1959 98.1673 51.4839C98.0708 50.8198 97.9743 50.1708 97.8831 49.5467L98.0386 49.6566C95.063 50.026 92.468 50.3356 90.7309 50.5303L90.8059 50.4404C90.8864 51.1294 90.9561 51.6935 91.0097 52.1229C91.0433 52.3093 91.0594 52.4981 91.0579 52.6871Z" fill="#455A64"/>
<path d="M100.762 51.4588C100.701 51.2646 100.658 51.0658 100.634 50.8646C100.559 50.4353 100.462 49.8661 100.349 49.1871V49.1122H100.435C102.167 48.8676 104.751 48.5181 107.732 48.1387H107.866V48.2685C107.963 48.8926 108.054 49.5416 108.156 50.2056C108.322 50.9658 108.234 51.7551 107.904 52.4673C107.692 52.9105 107.384 53.3082 106.999 53.6354C106.614 53.9626 106.161 54.2123 105.668 54.3688C105.174 54.5253 104.652 54.5854 104.132 54.5451C103.613 54.5048 103.108 54.3651 102.65 54.1348C101.875 53.7469 101.275 53.1126 100.961 52.3474C100.872 52.1444 100.812 51.9311 100.784 51.7134C100.776 51.6387 100.776 51.5634 100.784 51.4887C100.816 51.4887 100.848 51.7983 101.084 52.3075C101.419 53.0275 102.012 53.6168 102.762 53.975C103.195 54.1835 103.67 54.3074 104.156 54.3389C104.642 54.3705 105.13 54.3091 105.59 54.1585C106.05 54.0079 106.472 53.7714 106.831 53.4634C107.189 53.1554 107.476 52.7824 107.673 52.3674C107.983 51.6973 108.062 50.9541 107.899 50.2406C107.802 49.5765 107.705 48.9275 107.62 48.3034L107.77 48.4133C104.794 48.7827 102.199 49.0923 100.462 49.287L100.537 49.1971C100.623 49.8861 100.693 50.4502 100.741 50.8796C100.766 51.0717 100.774 51.2655 100.762 51.4588Z" fill="#455A64"/>
<path d="M100.655 50.9348C100.283 51.1079 99.8751 51.2033 99.4595 51.2144C99.0552 51.2985 98.636 51.2985 98.2317 51.2144C99.0045 50.944 99.833 50.8399 100.655 50.9098V50.9348Z" fill="#455A64"/>
<path d="M90.8221 51.4539C89.3607 51.7681 87.8799 51.9982 86.3881 52.1428C84.9103 52.372 83.4188 52.517 81.922 52.5772C83.3816 52.2632 84.8606 52.0332 86.3506 51.8882C87.8294 51.6532 89.3231 51.5081 90.8221 51.4539Z" fill="#455A64"/>
<path d="M101.481 59.0326C101.481 59.0625 101.272 59.1874 100.859 59.2722C100.325 59.3709 99.7747 59.352 99.2504 59.2173C98.7187 59.0828 98.2295 58.8311 97.8243 58.4834C97.5187 58.2138 97.3953 57.9841 97.4221 57.9841C97.9876 58.42 98.6322 58.7582 99.3255 58.9827C100.035 59.1187 100.765 59.1356 101.481 59.0326Z" fill="#263238"/>
<path d="M84.399 59.6417C84.399 59.6417 84.5116 59.9163 84.2381 60.2708C84.0999 60.4567 83.8979 60.5935 83.6653 60.6586C83.4327 60.7238 83.1832 60.7135 82.9578 60.6294C82.7323 60.5452 82.5441 60.3923 82.4242 60.1957C82.3042 59.999 82.2594 59.7702 82.2973 59.5468C82.3316 59.2949 82.4677 59.0646 82.6779 58.9028C83.0425 58.6282 83.3589 58.6931 83.3428 58.7181C83.3267 58.743 83.0801 58.773 82.8066 59.0376C82.6596 59.1847 82.5675 59.372 82.5439 59.5718C82.5388 59.6904 82.5615 59.8086 82.6106 59.9181C82.6597 60.0276 82.7339 60.1259 82.8281 60.2059C82.919 60.2892 83.0287 60.3526 83.1493 60.3915C83.2699 60.4304 83.3983 60.4437 83.5251 60.4305C83.7309 60.3952 83.919 60.2989 84.0612 60.1559C84.3507 59.8913 84.3507 59.6367 84.399 59.6417Z" fill="#263238"/>
<path d="M98.06 57.1655C98.1405 57.1655 98.1619 57.6647 97.7169 58.0791C97.2719 58.4935 96.725 58.4735 96.7358 58.4036C96.7465 58.3337 97.1593 58.2439 97.5185 57.9044C97.8777 57.5649 97.985 57.1555 98.06 57.1655Z" fill="#263238"/>
<path d="M99.1325 90.2663C99.0574 90.2663 98.4676 87.9597 97.8082 85.084C97.1487 82.2083 96.6823 79.8617 96.7359 79.8468C96.7895 79.8318 97.4061 82.1533 98.0602 85.0291C98.7143 87.9048 99.2075 90.2514 99.1325 90.2663Z" fill="#263238"/>
<path d="M99.1109 80.6506C99.1484 80.6805 98.9071 80.8403 98.9018 81.2098C98.8998 81.3098 98.9197 81.4092 98.9603 81.5019C99.0008 81.5946 99.0612 81.6786 99.1377 81.749C99.2413 81.8178 99.3627 81.8596 99.4894 81.8699C99.6162 81.8803 99.7436 81.8589 99.8585 81.808C99.9733 81.757 100.071 81.6784 100.143 81.5802C100.214 81.4821 100.256 81.3679 100.264 81.2497C100.243 81.0551 100.141 80.8759 99.9794 80.7504C99.8066 80.6317 99.6032 80.5576 99.3897 80.5358C99.3629 80.5358 99.6792 80.351 100.097 80.6007C100.216 80.6743 100.316 80.7716 100.389 80.8856C100.462 80.9996 100.507 81.1274 100.521 81.2597C100.524 81.4256 100.475 81.5887 100.38 81.7289C100.285 81.8691 100.147 81.9802 99.9848 82.0485C99.8243 82.1231 99.6434 82.1511 99.4656 82.1289C99.2877 82.1066 99.1212 82.0352 98.9876 81.9237C98.8876 81.8285 98.8121 81.7135 98.7666 81.5872C98.7211 81.461 98.7068 81.3269 98.7248 81.1948C98.7731 80.7405 99.1162 80.6206 99.1109 80.6506Z" fill="#263238"/>
<path d="M99.9795 85.0989C100.012 85.1288 99.7704 85.2886 99.765 85.6581C99.7625 85.7579 99.7828 85.8571 99.8243 85.9492C99.8659 86.0412 99.9279 86.1241 100.006 86.1923C100.104 86.2667 100.224 86.3125 100.35 86.324C100.476 86.3356 100.602 86.3123 100.714 86.2572C100.831 86.2139 100.933 86.14 101.006 86.0444C101.079 85.9487 101.121 85.8353 101.127 85.718C101.118 85.6213 101.088 85.5272 101.039 85.4415C100.99 85.3557 100.924 85.2799 100.843 85.2187C100.67 85.0999 100.466 85.0259 100.253 85.004C100.226 85.004 100.548 84.8193 100.961 85.0689C101.08 85.142 101.18 85.2392 101.253 85.3533C101.327 85.4675 101.371 85.5955 101.384 85.7279C101.39 85.8942 101.341 86.0582 101.246 86.1988C101.15 86.3394 101.012 86.4501 100.848 86.5168C100.687 86.5912 100.505 86.619 100.326 86.5968C100.148 86.5745 99.9803 86.5032 99.8454 86.392C99.7461 86.2965 99.6714 86.1813 99.6268 86.055C99.5822 85.9288 99.569 85.7948 99.5881 85.663C99.6417 85.1887 99.9795 85.0589 99.9795 85.0989Z" fill="#263238"/>
<path d="M113.34 90.8106L126.208 109.113L143.027 95.3389C143.027 95.3389 123.458 75.9825 119.168 74.2251L113.34 90.8106Z" fill="#6DD2AE"/>
<path d="M120.809 99.957C120.724 99.8931 120.648 99.8193 120.584 99.7373L119.994 99.0733C119.485 98.4892 118.75 97.6454 117.849 96.577C117.404 96.0478 116.927 95.4587 116.45 94.8046C115.973 94.1506 115.496 93.4267 115.008 92.6628C113.882 91.0248 113.098 89.2041 112.697 87.2957C112.277 85.3771 112.401 83.3899 113.056 81.5293C113.624 80.0184 114.579 78.6593 115.839 77.5701C116.684 76.8396 117.675 76.2712 118.756 75.8976C119.048 75.8006 119.347 75.7222 119.651 75.663C119.756 75.6351 119.864 75.6184 119.973 75.613C119.875 75.6576 119.773 75.6911 119.667 75.7129C119.371 75.7915 119.079 75.8848 118.793 75.9925C117.746 76.3937 116.789 76.9746 115.973 77.7049C114.765 78.7878 113.855 80.1251 113.319 81.6042C112.692 83.4256 112.577 85.3664 112.987 87.2408C113.383 89.1239 114.148 90.9229 115.244 92.548C115.726 93.3118 116.187 94.0458 116.654 94.6898C117.12 95.3338 117.592 95.933 118.021 96.4722L120.08 99.0084L120.616 99.7024C120.689 99.7815 120.753 99.8668 120.809 99.957Z" fill="#263238"/>
<g opacity="0.3">
<path opacity="0.3" d="M116.643 95.0444C120.117 102.938 117.865 112.718 111.217 118.585C110.669 118.991 110.219 119.502 109.898 120.082C109.746 120.374 109.707 120.706 109.787 121.022C109.867 121.337 110.062 121.617 110.338 121.815C110.763 122.068 111.259 122.2 111.764 122.194C115.464 121.81 119.093 121.196 122.793 120.796L121.527 114.935L119.603 98.5393L116.643 95.0444Z" fill="black"/>
</g>
<path d="M163.647 211.871L163.529 207.094L153.922 207.243L154.013 214.233H154.608C157.262 214.328 168.114 214.552 169.877 214.023C171.867 213.459 163.647 211.871 163.647 211.871Z" fill="#6DD2AE"/>
<g opacity="0.4">
<path opacity="0.4" d="M167.653 212.78C167.653 212.78 170.532 213.504 170.183 213.948C169.835 214.393 158.86 214.557 154.013 214.233V214.033L166.816 213.943C166.816 213.943 167.095 212.81 167.653 212.78Z" fill="white"/>
</g>
<path d="M153.873 214.028C153.929 214.035 153.984 214.035 154.04 214.028H154.511L156.259 214.073C157.739 214.073 159.776 214.113 162.028 214.073C164.28 214.033 166.317 213.968 167.797 213.898L169.545 213.809L170.017 213.774H170.183H170.017H169.54L167.792 213.834C166.317 213.884 164.28 213.943 162.028 213.973C159.776 214.003 157.739 214.003 156.259 213.973H154.511H153.873V214.028Z" fill="#263238"/>
<path d="M166.827 214.083C166.896 213.813 167 213.551 167.138 213.304C167.309 213.075 167.505 212.863 167.722 212.67C167.426 212.78 167.182 212.985 167.036 213.249C166.855 213.493 166.781 213.791 166.827 214.083Z" fill="#263238"/>
<path d="M163.964 212.785C163.996 212.785 164.125 212.645 164.264 212.441C164.403 212.236 164.489 212.051 164.462 212.036C164.436 212.021 164.302 212.176 164.162 212.381C164.023 212.585 163.937 212.77 163.964 212.785Z" fill="#263238"/>
<path d="M163.181 212.416C163.181 212.416 163.353 212.341 163.519 212.201C163.685 212.061 163.792 211.927 163.771 211.907C163.749 211.887 163.599 211.976 163.438 212.121C163.278 212.266 163.16 212.371 163.181 212.416Z" fill="#263238"/>
<path d="M162.677 211.577C162.837 211.63 163.008 211.647 163.176 211.627C163.346 211.644 163.518 211.626 163.68 211.572C163.517 211.522 163.346 211.505 163.176 211.522C163.007 211.505 162.837 211.524 162.677 211.577Z" fill="#263238"/>
<path d="M162.495 210.983C162.662 211.084 162.859 211.135 163.058 211.127C163.255 211.155 163.456 211.127 163.637 211.048C163.447 211.022 163.255 211.012 163.063 211.018C162.875 210.99 162.685 210.979 162.495 210.983Z" fill="#263238"/>
<path d="M164.28 212.001C164.484 212.034 164.693 212.034 164.897 212.001C165.119 211.974 165.339 211.925 165.551 211.857C165.682 211.822 165.808 211.771 165.926 211.707C165.963 211.688 165.995 211.662 166.021 211.631C166.047 211.6 166.066 211.565 166.076 211.527C166.084 211.484 166.079 211.44 166.062 211.4C166.045 211.359 166.017 211.324 165.98 211.297C165.741 211.194 165.472 211.17 165.217 211.23C164.962 211.29 164.737 211.43 164.58 211.627C164.489 211.743 164.423 211.876 164.387 212.016C164.387 212.116 164.387 212.171 164.387 212.171C164.444 211.991 164.535 211.822 164.655 211.672C164.798 211.518 164.983 211.403 165.192 211.342C165.311 211.303 165.437 211.286 165.563 211.293C165.689 211.3 165.813 211.33 165.926 211.382C166.028 211.447 165.99 211.552 165.883 211.617C165.773 211.673 165.658 211.722 165.54 211.762C165.332 211.83 165.119 211.884 164.902 211.922C164.516 211.981 164.28 211.981 164.28 212.001Z" fill="#263238"/>
<path d="M164.441 212.026C164.512 211.904 164.535 211.763 164.505 211.627C164.483 211.476 164.423 211.332 164.328 211.207C164.273 211.121 164.194 211.049 164.101 210.999C164.007 210.95 163.9 210.923 163.792 210.923C163.73 210.937 163.676 210.973 163.641 211.023C163.606 211.073 163.593 211.134 163.605 211.192C163.622 211.284 163.661 211.371 163.717 211.447C163.799 211.573 163.898 211.689 164.012 211.792C164.21 211.966 164.366 212.031 164.371 212.016C164.377 212.001 164.248 211.916 164.071 211.737C163.972 211.631 163.884 211.518 163.808 211.397C163.723 211.277 163.658 211.058 163.808 211.028C163.958 210.998 164.125 211.153 164.221 211.267C164.309 211.379 164.371 211.507 164.403 211.642C164.427 211.769 164.439 211.897 164.441 212.026Z" fill="#263238"/>
<path d="M154.029 211.577C154.029 211.577 154.302 211.547 154.737 211.577C155.303 211.627 155.844 211.825 156.297 212.146C156.744 212.473 157.085 212.908 157.283 213.404C157.439 213.789 157.455 214.043 157.482 214.043C157.49 213.983 157.49 213.923 157.482 213.863C157.465 213.694 157.427 213.526 157.369 213.364C157.187 212.841 156.839 212.381 156.371 212.046C155.903 211.71 155.337 211.513 154.747 211.482C154.569 211.467 154.39 211.467 154.211 211.482C154.145 211.503 154.083 211.535 154.029 211.577Z" fill="#263238"/>
<path d="M154.962 207.837C154.904 208.448 154.886 209.062 154.908 209.675C154.892 210.289 154.914 210.905 154.973 211.517C155.028 210.904 155.046 210.289 155.026 209.675C155.042 209.062 155.021 208.448 154.962 207.837Z" fill="#263238"/>
<path d="M158.688 213.219C159.15 213.31 159.622 213.347 160.093 213.329C160.565 213.345 161.038 213.301 161.498 213.199C161.498 213.169 160.87 213.199 160.093 213.199C159.315 213.199 158.693 213.184 158.688 213.219Z" fill="#263238"/>
<path d="M156.806 213.244C156.806 213.244 156.86 213.364 156.924 213.499C156.988 213.634 157.031 213.749 157.064 213.749C157.096 213.749 157.106 213.609 157.031 213.454C156.956 213.299 156.854 213.22 156.806 213.244Z" fill="#263238"/>
<path d="M156.082 212.431C156.082 212.431 156.125 212.545 156.222 212.635C156.318 212.725 156.426 212.785 156.447 212.765C156.468 212.745 156.404 212.65 156.308 212.56C156.211 212.471 156.104 212.411 156.082 212.431Z" fill="#263238"/>
<path d="M155.058 212.071C155.058 212.101 155.192 212.096 155.337 212.141C155.482 212.186 155.584 212.256 155.605 212.236C155.627 212.216 155.546 212.091 155.375 212.036C155.203 211.981 155.048 212.041 155.058 212.071Z" fill="#263238"/>
<path d="M154.334 211.901C154.334 211.931 154.377 211.976 154.458 212.006C154.538 212.036 154.613 212.031 154.624 212.006C154.635 211.981 154.581 211.936 154.501 211.906C154.42 211.877 154.345 211.872 154.334 211.901Z" fill="#263238"/>
<g opacity="0.3">
<path opacity="0.3" d="M154.034 211.337L163.637 211.048L163.599 209.969L153.948 210.773L154.034 211.337Z" fill="black"/>
</g>
<path d="M172.58 210.873L174.188 206.345L165.074 203.444L162.613 210.049L163.149 210.264C165.615 211.192 175.738 214.827 177.593 214.887C179.711 214.962 172.58 210.873 172.58 210.873Z" fill="#6DD2AE"/>
<g opacity="0.4">
<path opacity="0.4" d="M176.016 213C176.016 213 178.456 214.593 177.968 214.897C177.48 215.202 167.095 211.902 162.65 210.054L162.752 209.875L174.826 213.839C174.826 213.839 175.48 212.87 176.016 213Z" fill="white"/>
</g>
<path d="M162.597 209.82L162.747 209.884L163.186 210.054L164.795 210.648C166.173 211.148 168.087 211.797 170.215 212.481C172.344 213.165 174.29 213.739 175.705 214.143L177.378 214.602L177.839 214.722C177.892 214.739 177.945 214.75 178 214.757L177.845 214.702L177.394 214.563L175.727 214.063C174.322 213.644 172.387 213.065 170.253 212.371C168.119 211.677 166.205 211.043 164.822 210.573L163.181 210.009L162.752 209.874L162.597 209.82Z" fill="#263238"/>
<path d="M174.762 213.963C174.928 213.732 175.122 213.519 175.341 213.329C175.582 213.165 175.843 213.027 176.118 212.92C175.8 212.924 175.496 213.04 175.266 213.244C175.008 213.418 174.828 213.674 174.762 213.963Z" fill="#263238"/>
<path d="M172.542 211.842C172.542 211.842 172.746 211.757 172.95 211.607C173.153 211.457 173.304 211.312 173.282 211.287C173.131 211.337 172.994 211.417 172.88 211.522C172.671 211.672 172.526 211.817 172.542 211.842Z" fill="#263238"/>
<path d="M171.942 211.242C171.942 211.267 172.129 211.242 172.333 211.148C172.537 211.053 172.698 210.978 172.682 210.948C172.665 210.918 172.494 210.948 172.29 211.048C172.086 211.148 171.931 211.212 171.942 211.242Z" fill="#263238"/>
<path d="M171.77 210.294C171.77 210.324 171.963 210.414 172.226 210.503C172.379 210.573 172.548 210.609 172.719 210.608C172.719 210.578 172.526 210.488 172.263 210.399C172.11 210.329 171.941 210.294 171.77 210.294Z" fill="#263238"/>
<path d="M171.818 209.68C171.939 209.827 172.106 209.937 172.296 209.994C172.469 210.083 172.667 210.12 172.864 210.099C172.692 210.016 172.513 209.948 172.328 209.894C172.166 209.808 171.995 209.736 171.818 209.68Z" fill="#263238"/>
<path d="M173.127 211.198C173.307 211.293 173.505 211.356 173.711 211.382C173.931 211.427 174.156 211.45 174.381 211.452C174.515 211.467 174.65 211.467 174.783 211.452C174.867 211.436 174.942 211.392 174.992 211.327C175.018 211.291 175.032 211.249 175.032 211.205C175.032 211.162 175.018 211.119 174.992 211.083C174.872 210.973 174.728 210.889 174.569 210.837C174.41 210.785 174.24 210.766 174.073 210.783C173.905 210.799 173.744 210.849 173.599 210.931C173.455 211.012 173.332 211.122 173.239 211.253C173.203 211.294 173.179 211.344 173.169 211.397C173.287 211.246 173.434 211.118 173.604 211.018C173.787 210.914 174 210.863 174.215 210.873C174.47 210.875 174.715 210.97 174.896 211.138C174.966 211.233 174.896 211.322 174.767 211.347C174.643 211.362 174.516 211.362 174.392 211.347C174.173 211.347 173.954 211.332 173.738 211.302C173.352 211.253 173.132 211.183 173.127 211.198Z" fill="#263238"/>
<path d="M173.266 211.277C173.379 211.184 173.453 211.057 173.475 210.918C173.512 210.77 173.512 210.616 173.475 210.468C173.456 210.372 173.41 210.282 173.342 210.207C173.275 210.132 173.187 210.074 173.089 210.039C173.027 210.032 172.964 210.048 172.914 210.083C172.864 210.119 172.83 210.171 172.821 210.229C172.799 210.321 172.799 210.416 172.821 210.508C172.855 210.652 172.907 210.791 172.977 210.923C173.036 211.047 173.121 211.16 173.229 211.252C173.229 211.252 173.148 211.117 173.052 210.893C172.995 210.762 172.954 210.627 172.928 210.488C172.891 210.349 172.928 210.124 173.068 210.144C173.207 210.164 173.32 210.364 173.368 210.498C173.412 210.629 173.423 210.767 173.4 210.903C173.37 211.032 173.325 211.157 173.266 211.277Z" fill="#263238"/>
<path d="M163.637 207.563C163.637 207.563 163.905 207.623 164.296 207.797C164.809 208.029 165.245 208.386 165.556 208.831C165.861 209.279 166.024 209.798 166.028 210.329C166.028 210.733 165.958 210.983 165.98 210.988C166.009 210.934 166.031 210.877 166.044 210.818C166.083 210.654 166.105 210.487 166.108 210.319C166.129 209.769 165.97 209.226 165.653 208.761C165.339 208.307 164.89 207.948 164.361 207.728C164.198 207.664 164.029 207.615 163.857 207.583C163.786 207.562 163.711 207.555 163.637 207.563Z" fill="#263238"/>
<path d="M165.873 204.338C165.601 204.898 165.361 205.471 165.154 206.055C164.914 206.626 164.712 207.209 164.548 207.803C164.821 207.244 165.06 206.673 165.267 206.09C165.506 205.518 165.708 204.933 165.873 204.338Z" fill="#263238"/>
<path d="M167.422 210.579C167.823 210.81 168.253 210.995 168.703 211.128C169.144 211.286 169.603 211.395 170.071 211.452C170.071 211.422 169.475 211.263 168.746 211.023C168.017 210.783 167.438 210.549 167.422 210.579Z" fill="#263238"/>
<path d="M165.642 210.009C165.61 210.009 165.642 210.139 165.642 210.289C165.642 210.439 165.642 210.553 165.68 210.563C165.717 210.573 165.776 210.444 165.755 210.274C165.733 210.104 165.669 209.994 165.642 210.009Z" fill="#263238"/>
<path d="M165.256 209.016C165.229 209.016 165.256 209.135 165.315 209.255C165.374 209.375 165.449 209.46 165.481 209.445C165.513 209.43 165.481 209.325 165.422 209.205C165.363 209.086 165.288 209.001 165.256 209.016Z" fill="#263238"/>
<path d="M164.425 208.377C164.425 208.407 164.543 208.447 164.661 208.531C164.779 208.616 164.848 208.716 164.881 208.706C164.913 208.696 164.881 208.551 164.731 208.447C164.58 208.342 164.425 208.322 164.425 208.377Z" fill="#263238"/>
<path d="M163.824 207.967C163.824 207.967 163.824 208.047 163.905 208.102C163.985 208.157 164.044 208.177 164.06 208.152C164.076 208.127 164.06 208.067 163.98 208.017C163.899 207.967 163.824 207.942 163.824 207.967Z" fill="#263238"/>
<g opacity="0.3">
<path opacity="0.3" d="M163.728 207.338L172.864 210.099L173.229 209.076L163.857 206.779L163.728 207.338Z" fill="black"/>
</g>
<path d="M135.473 78.5688C135.473 82.473 135.51 89.7073 137.317 96.5872C137.644 97.8503 147.043 83.3667 147.043 83.3667L151.665 92.5931C151.665 92.5931 149.048 102.039 139.478 106.163C128.058 111.081 126.766 85.0293 127.565 77.6152" fill="#FFBE9D"/>
<path d="M179.426 122.424L168.119 122.883L150.775 122.424L152.753 210.968L166.73 210.538C166.73 210.538 166.73 209.54 166.73 207.827L174.113 209.605C174.113 209.605 188.026 182.999 191.018 171.661C193.516 162.205 179.426 122.424 179.426 122.424ZM166.677 194.317C166.446 173.883 167.422 139.124 167.749 134.875C167.749 134.875 176.327 165.475 176.386 167.887C176.429 169.334 170.419 183.458 166.677 194.297V194.317Z" fill="#263238"/>
<path d="M166.612 188.496C166.653 188.781 166.671 189.068 166.666 189.355C166.666 189.949 166.693 190.738 166.714 191.696C166.746 193.693 166.768 196.404 166.779 199.42C166.789 202.435 166.779 205.166 166.779 207.143C166.779 208.102 166.752 208.891 166.741 209.485C166.745 209.772 166.729 210.059 166.693 210.344C166.649 210.059 166.631 209.772 166.639 209.485C166.639 208.891 166.607 208.102 166.586 207.143C166.559 205.146 166.532 202.435 166.527 199.42C166.521 196.404 166.527 193.673 166.527 191.696C166.527 190.738 166.527 189.949 166.559 189.355C166.551 189.068 166.569 188.78 166.612 188.496Z" fill="#455A64"/>
<path d="M159.884 123.627C159.908 123.778 159.908 123.931 159.884 124.081C159.846 124.498 159.754 124.909 159.61 125.304C159.145 126.634 158.19 127.768 156.916 128.506C155.641 129.245 154.127 129.542 152.64 129.343C152.196 129.292 151.76 129.19 151.343 129.039C151.187 128.992 151.039 128.925 150.903 128.839C151.482 128.982 152.069 129.092 152.662 129.169C154.098 129.317 155.546 129.01 156.773 128.298C157.999 127.586 158.933 126.511 159.423 125.245C159.614 124.715 159.768 124.175 159.884 123.627Z" fill="#455A64"/>
<path d="M169.004 123.757C169.043 123.909 169.061 124.065 169.057 124.221C169.057 124.521 169.095 124.955 169.111 125.489C169.138 126.558 169.164 128.035 169.175 129.663V131.99C169.219 132.637 169.059 133.283 168.714 133.847C168.587 134.033 168.419 134.192 168.221 134.314C168.023 134.437 167.8 134.519 167.567 134.556C167.388 134.594 167.201 134.569 167.041 134.486C167.203 134.486 167.364 134.474 167.524 134.451C167.948 134.347 168.312 134.093 168.537 133.742C168.83 133.197 168.958 132.588 168.907 131.98C168.907 131.266 168.907 130.482 168.907 129.678C168.907 128.05 168.907 126.573 168.907 125.504C168.907 124.97 168.907 124.536 168.939 124.236C168.934 124.074 168.956 123.913 169.004 123.757Z" fill="#455A64"/>
<path d="M180.472 129.274C180.344 129.292 180.214 129.292 180.086 129.274C179.737 129.251 179.39 129.199 179.051 129.119C177.921 128.86 176.859 128.391 175.93 127.74C175 127.089 174.221 126.269 173.641 125.329C173.466 125.048 173.319 124.752 173.202 124.446C173.145 124.338 173.109 124.221 173.094 124.101C173.143 124.101 173.341 124.556 173.808 125.24C175.031 127.032 176.912 128.35 179.099 128.949C179.909 129.179 180.477 129.229 180.472 129.274Z" fill="#455A64"/>
<path d="M210.598 69.6819L210.502 69.8417L206.395 76.3171L209.601 77.8198L212.121 74.2102" fill="#FFBE9D"/>
<path d="M180.879 94.6051C180.879 94.6051 188.766 96.9916 195.221 98.6991C196.26 98.9729 197.346 99.0502 198.417 98.9266C199.488 98.8029 200.522 98.4808 201.457 97.9791C202.392 97.4775 203.209 96.8065 203.861 96.0058C204.513 95.205 204.986 94.2908 205.253 93.317L210.239 76.9862L204.781 75.2488L197.425 89.6475L184.466 84.7697" fill="#FFBE9D"/>
<path d="M210.239 68.4687L206.743 76.1923L204.781 75.2487C204.781 75.2487 204.936 74.6096 205.553 72.8272C206.008 71.5554 206.967 70.4931 208.234 69.8566C208.234 69.8566 209.462 65.4831 210.185 65.7777C210.909 66.0722 210.239 68.4687 210.239 68.4687Z" fill="#FFBE9D"/>
<path d="M210.636 63.8755C210.496 64.22 206.395 77.1159 206.395 77.1159L207.869 77.3406L212.303 64.3148L210.636 63.8755Z" fill="#263238"/>
<path d="M210.239 76.986C210.239 76.986 212.764 74.8392 212.947 73.576C213.016 73.1267 213.29 67.4401 212.984 67.4052C212.679 67.3702 208.738 69.6569 209.295 70.246C209.472 70.4074 209.702 70.509 209.948 70.5343C210.194 70.5597 210.442 70.5074 210.652 70.3858C210.652 70.3858 208.127 71.7238 208.69 72.1931C209.253 72.6624 210.802 71.8236 210.802 71.8236C210.802 71.8236 207.585 73.2116 208.25 73.9155C208.915 74.6195 211.628 73.5062 211.628 73.5062L210.239 76.986Z" fill="#FFBE9D"/>
<path d="M212.566 69.1875C212.095 69.6036 211.565 69.9565 210.99 70.2359C210.773 70.3695 210.543 70.4832 210.303 70.5754C210.086 70.6421 209.851 70.6421 209.633 70.5754C209.263 70.4606 209.145 70.2459 209.172 70.231C209.199 70.216 209.365 70.3508 209.681 70.3957C209.863 70.4245 210.049 70.4037 210.217 70.3358C210.437 70.2388 210.648 70.127 210.85 70.0013C211.377 69.6549 211.955 69.3808 212.566 69.1875Z" fill="#EB996E"/>
<path d="M212.662 70.7253C211.762 71.4299 210.751 72.0024 209.665 72.4228C209.436 72.5571 209.16 72.6053 208.893 72.5576C208.819 72.5393 208.75 72.5049 208.692 72.4572C208.634 72.4095 208.589 72.3498 208.561 72.283C208.519 72.1558 208.53 72.0183 208.593 71.8986C208.69 71.7231 208.821 71.5657 208.979 71.4343C209.111 71.3083 209.25 71.1899 209.397 71.0798C209.65 70.8539 209.954 70.6833 210.287 70.5806C210.046 70.8049 209.792 71.0166 209.526 71.2146C209.413 71.3145 209.295 71.4293 209.177 71.5541C209.048 71.6761 208.94 71.8159 208.856 71.9685C208.786 72.1233 208.856 72.2431 208.995 72.288C209.199 72.311 209.404 72.2649 209.574 72.1582C211.295 71.4393 212.614 70.6604 212.662 70.7253Z" fill="#EB996E"/>
<path d="M212.271 72.6225C211.966 72.8241 211.637 72.9917 211.29 73.1218L210.218 73.621L209.569 73.9056C209.331 74.0222 209.079 74.1127 208.818 74.1752C208.661 74.2037 208.498 74.1863 208.352 74.1253C208.276 74.0919 208.209 74.0431 208.157 73.9827C208.104 73.9222 208.066 73.8515 208.046 73.7758C208.017 73.645 208.026 73.5094 208.072 73.383C208.119 73.2566 208.2 73.144 208.309 73.0569C208.481 72.92 208.67 72.8027 208.872 72.7074L209.37 72.4527C209.688 72.2668 210.028 72.116 210.384 72.0034C210.11 72.2434 209.804 72.4482 209.472 72.6125L208.99 72.8921C208.809 72.9858 208.64 73.098 208.486 73.2266C208.409 73.2863 208.352 73.3646 208.321 73.4528C208.29 73.541 208.286 73.6356 208.309 73.7259C208.343 73.8088 208.409 73.8766 208.495 73.9156C208.581 73.9545 208.679 73.9616 208.77 73.9356C209.007 73.8747 209.237 73.7911 209.456 73.6859L210.11 73.4213L211.231 72.977C211.56 72.8178 211.909 72.6987 212.271 72.6225Z" fill="#EB996E"/>
<path d="M156.742 78.9282L166.822 78.1793C166.88 77.0809 166.822 72.8422 166.822 72.8422C166.822 72.8422 171.014 72.2381 171.062 68.3488C171.111 64.4596 170.387 55.4829 170.387 55.4829C168.004 54.5287 165.392 54.1844 162.818 54.4854C160.245 54.7865 157.805 55.722 155.75 57.1953L155.128 57.6397L156.742 78.9282Z" fill="#FFBE9D"/>
<path d="M169.4 62.4177C169.311 62.3421 169.247 62.2435 169.218 62.1343C169.188 62.0252 169.194 61.9103 169.235 61.8043C169.276 61.6982 169.349 61.6058 169.446 61.5387C169.543 61.4716 169.659 61.4328 169.78 61.4272C169.901 61.4216 170.021 61.4495 170.125 61.5073C170.228 61.5652 170.311 61.6503 170.363 61.7521C170.415 61.8538 170.433 61.9676 170.415 62.0789C170.398 62.1903 170.345 62.2943 170.264 62.3777C170.155 62.4896 170.003 62.5566 169.841 62.5641C169.679 62.5716 169.521 62.5189 169.4 62.4177Z" fill="#263238"/>
<path d="M170.419 61.5238C170.355 61.5937 169.942 61.2991 169.347 61.2941C168.752 61.2891 168.35 61.5687 168.274 61.4988C168.199 61.4289 168.307 61.349 168.489 61.2192C168.733 61.051 169.029 60.9602 169.333 60.9602C169.637 60.9602 169.933 61.051 170.178 61.2192C170.387 61.374 170.451 61.4938 170.419 61.5238Z" fill="#263238"/>
<path d="M163.765 61.7537C163.867 61.8125 163.948 61.898 163.997 61.9994C164.047 62.1009 164.063 62.2137 164.044 62.3236C164.025 62.4336 163.971 62.5358 163.889 62.6174C163.808 62.6989 163.702 62.7562 163.586 62.7819C163.469 62.8076 163.347 62.8006 163.235 62.7619C163.123 62.7231 163.026 62.6543 162.955 62.5641C162.885 62.4738 162.845 62.3663 162.84 62.2549C162.836 62.1436 162.867 62.0335 162.929 61.9384C163.014 61.8113 163.15 61.7206 163.307 61.686C163.463 61.6514 163.628 61.6758 163.765 61.7537Z" fill="#263238"/>
<path d="M164.146 61.7587C164.082 61.8236 163.669 61.529 163.074 61.529C162.479 61.529 162.077 61.8036 162.002 61.7337C161.926 61.6638 162.034 61.5789 162.216 61.4491C162.463 61.2861 162.76 61.2005 163.063 61.2045C163.367 61.2045 163.663 61.2974 163.905 61.4691C164.119 61.5939 164.178 61.7287 164.146 61.7587Z" fill="#263238"/>
<path d="M166.462 66.1919C166.76 66.0821 167.075 66.0197 167.395 66.0072C167.545 66.0072 167.669 65.9623 167.679 65.8874C167.684 65.7453 167.645 65.6049 167.567 65.483C167.422 65.1285 167.272 64.769 167.111 64.3896C166.484 62.8319 166.039 61.5488 166.124 61.5188C166.21 61.4889 166.789 62.7271 167.422 64.2798C167.567 64.6642 167.711 65.0237 167.851 65.3831C167.95 65.5632 167.98 65.7691 167.937 65.9673C167.914 66.021 167.879 66.0692 167.834 66.1082C167.788 66.1472 167.733 66.1758 167.674 66.1919C167.591 66.2152 167.504 66.2253 167.417 66.2219C167.099 66.261 166.776 66.2508 166.462 66.1919Z" fill="#263238"/>
<path d="M166.805 72.7872C164.87 72.8204 162.968 72.3164 161.342 71.3394C161.342 71.3394 162.634 74.1502 166.816 73.8007L166.805 72.7872Z" fill="#EB996E"/>
<path d="M169.684 54.5143C169.925 54.4952 170.157 54.4248 170.363 54.3086C170.569 54.1925 170.744 54.0337 170.874 53.8445C171.004 53.6554 171.085 53.441 171.112 53.2179C171.138 52.9948 171.109 52.769 171.027 52.558C170.945 52.3469 170.812 52.1564 170.638 52.001C170.464 51.8457 170.254 51.7297 170.024 51.662C169.794 51.5944 169.55 51.5769 169.312 51.6109C169.074 51.6449 168.847 51.7296 168.65 51.8583C169.124 51.4462 169.5 50.9462 169.754 50.3904C169.872 50.1095 169.897 49.802 169.824 49.508C169.751 49.214 169.585 48.9473 169.347 48.7429C169.074 48.5886 168.76 48.5071 168.441 48.5071C168.121 48.5071 167.808 48.5886 167.535 48.7429C166.671 49.1423 166.017 49.8812 165.127 50.2406C164.237 50.6001 163.208 50.5003 162.232 50.5951C161.147 50.6783 160.118 51.0765 159.289 51.7334C158.881 52.0667 158.564 52.4842 158.361 52.9523C158.158 53.4204 158.075 53.9263 158.12 54.4294C156.747 54.3496 155.235 54.4294 154.211 55.2732C153.802 55.6574 153.488 56.1212 153.294 56.6312C153.099 57.1413 153.028 57.6851 153.085 58.2238C153.155 59.3022 153.702 60.2958 154.109 61.3093C154.207 61.5995 154.368 61.8679 154.581 62.0981L155.273 64.854L157.133 64.7142L156.624 58.9178C156.624 58.9178 156.275 56.4814 158.554 56.5663C160.833 56.6512 164.055 58.8479 168.419 57.9942C169.136 57.9174 169.826 57.6903 170.435 57.3302C170.728 57.1323 170.96 56.8651 171.105 56.5561C171.25 56.2471 171.304 55.9076 171.261 55.5728C171.202 55.2382 171.003 54.939 170.707 54.7407C170.412 54.5424 170.044 54.461 169.684 54.5143Z" fill="#263238"/>
<path d="M155.096 61.4041C155.005 61.3741 151.97 61.1844 152.474 64.4746C152.978 67.7647 156.383 66.202 156.372 66.1071C156.361 66.0123 155.096 61.4041 155.096 61.4041Z" fill="#FFBE9D"/>
<path d="M155.112 65.0887C155.112 65.0887 155.058 65.1337 154.962 65.1936C154.823 65.2708 154.658 65.2958 154.501 65.2635C154.253 65.1584 154.039 64.994 153.882 64.787C153.725 64.58 153.629 64.3378 153.605 64.0852C153.551 63.8046 153.566 63.5161 153.648 63.2415C153.668 63.1353 153.714 63.0349 153.783 62.9482C153.852 62.8615 153.942 62.791 154.045 62.7422C154.113 62.7158 154.189 62.7123 154.259 62.7323C154.33 62.7524 154.391 62.7947 154.431 62.852C154.495 62.9369 154.485 63.0068 154.501 63.0118C154.517 63.0168 154.57 62.9469 154.501 62.8121C154.466 62.735 154.406 62.6702 154.329 62.6274C154.222 62.571 154.094 62.5566 153.975 62.5874C153.834 62.6337 153.708 62.7125 153.609 62.8164C153.51 62.9203 153.44 63.0459 153.407 63.1816C153.302 63.4879 153.278 63.8133 153.337 64.1302C153.365 64.4249 153.485 64.7055 153.684 64.9365C153.882 65.1675 154.15 65.3386 154.453 65.4282C154.549 65.4404 154.647 65.4324 154.74 65.4048C154.833 65.3772 154.918 65.3306 154.989 65.2685C155.123 65.1786 155.128 65.0887 155.112 65.0887Z" fill="#EB996E"/>
<path d="M189.12 85.5133C184.531 83.3166 181.276 82.0185 178.772 80.5207C170.977 75.8626 168.923 76.8911 167.09 76.6814C163.6 77.7058 159.856 77.7058 156.367 76.6814C153.52 76.7962 151.954 77.2555 150.212 78.2541C147.646 79.7487 145.555 81.8529 144.153 84.35L137.993 94.2554L148.367 103.242L149.885 101.035C149.885 101.035 149.793 104.985 149.809 104.316L149.407 122.878H180.879L178.199 106.767L176.542 92.6727L184.949 96.5819L189.099 85.5083" fill="#6DD2AE"/>
<path d="M135.489 81.4545L127.366 80.5658C127.366 80.5658 127.077 74.5747 128.272 74.345C128.272 74.345 128.98 74.3949 128.905 74.8443C128.905 74.8443 129.216 73.9356 129.977 74.0954C130.739 74.2552 130.621 75.1638 130.621 75.1638C130.621 75.1638 131.419 68.6385 132.379 68.7932C133.221 68.933 132.947 69.5771 132.427 73.9606C132.427 73.9606 132.256 76.0126 132.685 75.6331C133.114 75.2537 134.363 71.2446 134.862 70.306C135.13 69.8067 135.907 70.4158 135.575 71.664C135.296 72.7025 134.502 75.5383 134.599 76.0974C134.643 76.2541 134.711 76.4039 134.803 76.5418C135.028 76.8114 135.591 77.5752 135.591 79.1829C135.591 79.6372 135.505 81.4345 135.505 81.4345" fill="#FFBE9D"/>
<path d="M133.859 80.7157C133.429 80.4942 133.044 80.2035 132.722 79.8569C132.352 79.5014 132.016 79.1154 131.72 78.7036C131.541 78.4606 131.377 78.2089 131.226 77.9497C131.027 77.6682 130.911 77.3428 130.889 77.0061C130.894 76.8893 130.935 76.7764 131.007 76.6808C131.08 76.5852 131.18 76.5109 131.296 76.4669C131.516 76.4174 131.747 76.4404 131.95 76.5318C132.285 76.6629 132.602 76.8305 132.894 77.0311C133.361 77.3512 133.756 77.7531 134.057 78.2144H133.907C134.027 77.9888 134.201 77.7922 134.417 77.6402C134.567 77.5404 134.663 77.5054 134.669 77.5204C134.419 77.7375 134.214 77.9945 134.063 78.2793L133.998 78.4041L133.913 78.2893C133.397 77.6021 132.68 77.0668 131.848 76.7465C131.705 76.6812 131.543 76.6618 131.387 76.6916C131.321 76.719 131.265 76.7639 131.226 76.8207C131.187 76.8775 131.166 76.9437 131.167 77.0111C131.198 77.2957 131.301 77.5695 131.468 77.81C131.618 78.0746 131.773 78.3092 131.934 78.5489C132.216 78.9562 132.528 79.3449 132.867 79.7121C133.457 80.3562 133.886 80.6857 133.859 80.7157Z" fill="#EB996E"/>
<path d="M130.529 75.6132C130.662 76.0469 130.748 76.4917 130.787 76.9412C130.851 77.3806 130.921 77.8698 130.996 78.394C131.048 78.6843 131.071 78.9785 131.066 79.2728C131.06 79.4596 130.98 79.6378 130.84 79.772C130.764 79.8511 130.662 79.9054 130.55 79.9269C130.439 79.9485 130.322 79.9362 130.218 79.8918C130.067 79.7919 129.938 79.665 129.84 79.5184C129.741 79.3719 129.675 79.2086 129.645 79.0381C129.548 78.7485 129.473 78.4689 129.409 78.1993C129.275 77.6551 129.184 77.1659 129.109 76.7565C129.007 76.316 128.944 75.8685 128.921 75.4185C129.1 75.8383 129.23 76.2753 129.307 76.7215C129.403 77.1259 129.516 77.6102 129.655 78.1394C129.73 78.404 129.811 78.6836 129.907 78.9632C130.004 79.2428 130.117 79.5523 130.336 79.6522C130.556 79.752 130.787 79.5174 130.797 79.2578C130.799 78.9789 130.779 78.7003 130.738 78.424C130.685 77.8981 130.637 77.4138 130.594 76.9712C130.525 76.5215 130.504 76.0667 130.529 75.6132Z" fill="#EB996E"/>
<path d="M129.28 77.5104C129.465 77.7325 129.56 78.0083 129.548 78.2892C129.561 78.4288 129.561 78.569 129.548 78.7086C129.531 78.8878 129.465 79.0598 129.355 79.2078C129.318 79.2564 129.27 79.2969 129.215 79.3262C129.159 79.3555 129.097 79.3731 129.033 79.3776C128.967 79.3788 128.901 79.3659 128.841 79.34C128.78 79.314 128.727 79.2757 128.685 79.2278C128.56 79.0717 128.452 78.9045 128.363 78.7286C127.868 77.9179 127.627 76.9944 127.666 76.0625C127.9 76.9353 128.216 77.7873 128.61 78.6087C128.688 78.7646 128.781 78.9134 128.889 79.0531C128.985 79.1579 129.06 79.1529 129.157 79.0531C129.299 78.8238 129.373 78.5637 129.371 78.2992C129.366 77.8149 129.232 77.5253 129.28 77.5104Z" fill="#EB996E"/>
<path d="M133.703 81.2596C133.703 81.2996 133.403 81.2047 132.931 81.1947C132.663 81.1853 132.397 81.2421 132.159 81.3595C131.872 81.5045 131.647 81.7372 131.521 82.0185L131.361 82.363L131.253 81.9985C131.226 81.9087 131.2 81.8088 131.162 81.709C130.928 81.0959 130.507 80.5598 129.95 80.1662C129.521 79.8617 129.194 79.7519 129.211 79.7119C129.52 79.7346 129.816 79.8404 130.063 80.0165C130.7 80.3927 131.18 80.9597 131.425 81.6241C131.468 81.7339 131.495 81.8388 131.527 81.9436H131.259C131.413 81.6059 131.693 81.3312 132.047 81.1698C132.324 81.0427 132.636 80.9957 132.942 81.035C133.214 81.0376 133.479 81.1158 133.703 81.2596Z" fill="#EB996E"/>
<path d="M164.135 59.3372C164.012 59.5269 163.379 59.3721 162.629 59.3921C161.878 59.4121 161.256 59.5569 161.128 59.3921C161.069 59.3022 161.17 59.1225 161.433 58.9528C161.787 58.7434 162.198 58.6325 162.618 58.6332C163.039 58.62 163.455 58.7224 163.814 58.9278C164.082 59.0975 164.189 59.2473 164.135 59.3372Z" fill="#263238"/>
<path d="M169.797 59.6917C169.668 59.8765 169.304 59.8814 168.929 59.9364C168.553 59.9913 168.194 60.0612 168.022 59.9364C167.942 59.8615 167.953 59.7067 168.087 59.5469C168.274 59.3478 168.533 59.2185 168.814 59.1827C169.096 59.1469 169.382 59.2071 169.62 59.3522C169.797 59.4571 169.851 59.5969 169.797 59.6917Z" fill="#263238"/>
<path d="M160.538 62.3228C160.502 62.1856 160.488 62.0444 160.495 61.9034C160.495 61.5789 160.468 61.1945 160.452 60.7302V60.6503H160.538C161.75 60.6253 163.562 60.6053 165.642 60.6003H165.781V62.0981C165.822 62.6426 165.68 63.1854 165.374 63.6508C165.181 63.9405 164.927 64.19 164.626 64.3835C164.325 64.577 163.984 64.7103 163.625 64.775C163.265 64.8397 162.896 64.8345 162.539 64.7596C162.182 64.6847 161.846 64.5417 161.551 64.3398C161.055 64 160.707 63.5057 160.57 62.9469C160.534 62.7978 160.518 62.6452 160.522 62.4925C160.522 62.3877 160.522 62.3378 160.522 62.3378C160.522 62.3378 160.522 62.5525 160.661 62.9219C160.824 63.4377 161.172 63.8856 161.648 64.19C162.032 64.4389 162.484 64.5802 162.951 64.5974C163.419 64.6145 163.881 64.5067 164.285 64.2868C164.689 64.0668 165.016 63.7438 165.229 63.356C165.442 62.9681 165.531 62.5317 165.486 62.0981V60.7451L165.626 60.8699C163.546 60.8699 161.733 60.8699 160.522 60.82L160.608 60.7451C160.608 61.2094 160.608 61.5939 160.57 61.9184C160.578 62.0539 160.567 62.1898 160.538 62.3228Z" fill="#455A64"/>
<path d="M167.325 62.3228C167.29 62.1856 167.273 62.0446 167.277 61.9034C167.277 61.5789 167.277 61.1945 167.24 60.7302V60.6503H167.331C168.537 60.6253 170.349 60.6053 172.43 60.6003H172.569V62.0981C172.609 62.6419 172.469 63.1839 172.167 63.6508C171.876 64.0842 171.449 64.424 170.944 64.6244C170.52 64.7888 170.058 64.849 169.602 64.7992C169.145 64.7494 168.71 64.5912 168.339 64.3398C167.842 64.0017 167.495 63.5064 167.363 62.9469C167.323 62.7983 167.305 62.6455 167.309 62.4925C167.309 62.3877 167.309 62.3378 167.309 62.3378C167.309 62.3378 167.309 62.5525 167.443 62.9219C167.61 63.4357 167.958 63.8824 168.43 64.19C168.814 64.4389 169.266 64.5802 169.733 64.5974C170.201 64.6145 170.664 64.5067 171.067 64.2868C171.471 64.0668 171.799 63.7438 172.012 63.356C172.224 62.9681 172.314 62.5317 172.269 62.0981C172.269 61.6338 172.269 61.1795 172.269 60.7451L172.403 60.8699C170.322 60.8699 168.51 60.8699 167.304 60.82L167.384 60.7451C167.384 61.2094 167.358 61.5939 167.347 61.9184C167.356 62.0535 167.349 62.1892 167.325 62.3228Z" fill="#455A64"/>
<path d="M167.299 61.9533C167.299 62.0232 166.923 62.0831 166.452 62.0831C165.98 62.0831 165.61 62.0232 165.61 61.9533C165.61 61.8834 165.985 61.8235 166.452 61.8235C166.918 61.8235 167.299 61.8784 167.299 61.9533Z" fill="#455A64"/>
<path d="M160.5 61.454C158.429 61.6271 156.346 61.6271 154.276 61.454C156.346 61.2809 158.429 61.2809 160.5 61.454Z" fill="#455A64"/>
<path d="M167.041 67.585C167.041 67.615 166.886 67.6898 166.591 67.7198C166.205 67.7504 165.816 67.6921 165.46 67.55C165.102 67.411 164.788 67.1894 164.548 66.906C164.371 66.6863 164.318 66.5216 164.345 66.5066C164.718 66.8196 165.13 67.0895 165.572 67.3104C166.049 67.4557 166.542 67.5478 167.041 67.585Z" fill="#263238"/>
<path d="M155.273 66.5167C155.305 66.5167 155.348 66.7264 155.123 66.956C154.982 67.0935 154.79 67.1757 154.587 67.1857C154.463 67.1913 154.34 67.1687 154.228 67.12C154.116 67.0713 154.018 66.9979 153.943 66.9061C153.863 66.8184 153.807 66.7142 153.779 66.6022C153.751 66.4902 153.752 66.3736 153.782 66.2621C153.838 66.0855 153.963 65.9344 154.131 65.8377C154.426 65.6829 154.64 65.7628 154.624 65.7928C154.608 65.8227 154.442 65.8327 154.249 65.9875C154.19 66.0317 154.141 66.0863 154.105 66.1482C154.069 66.21 154.046 66.2779 154.038 66.3479C154.03 66.4179 154.037 66.4887 154.059 66.5562C154.08 66.6237 154.115 66.6866 154.163 66.7414C154.21 66.7961 154.269 66.8416 154.336 66.8752C154.402 66.9089 154.475 66.93 154.55 66.9374C154.625 66.9448 154.701 66.9384 154.774 66.9185C154.846 66.8985 154.914 66.8655 154.973 66.8212C155.192 66.6765 155.246 66.5117 155.273 66.5167Z" fill="#263238"/>
<path d="M166.505 124.645C166.505 124.685 166.183 124.73 166.001 125.145C165.948 125.249 165.921 125.364 165.921 125.479C165.921 125.595 165.948 125.709 166.001 125.814C166.08 125.93 166.195 126.021 166.331 126.075C166.468 126.128 166.618 126.142 166.763 126.113C166.908 126.099 167.045 126.043 167.155 125.954C167.265 125.865 167.344 125.746 167.379 125.614C167.396 125.499 167.385 125.382 167.347 125.271C167.309 125.161 167.245 125.059 167.159 124.975C166.854 124.655 166.511 124.71 166.516 124.665C166.521 124.62 166.586 124.615 166.736 124.615C166.947 124.626 167.147 124.708 167.299 124.845C167.419 124.945 167.512 125.07 167.571 125.209C167.629 125.349 167.652 125.5 167.636 125.649C167.591 125.832 167.488 125.999 167.341 126.128C167.193 126.257 167.008 126.342 166.809 126.373C166.609 126.403 166.405 126.378 166.221 126.299C166.037 126.221 165.882 126.094 165.776 125.934C165.71 125.797 165.679 125.647 165.686 125.497C165.694 125.347 165.739 125.2 165.819 125.07C165.918 124.896 166.079 124.76 166.275 124.685C166.403 124.615 166.505 124.63 166.505 124.645Z" fill="#455A64"/>
<path d="M154.538 93.3018C154.331 93.8222 154.073 94.3236 153.766 94.7995C153.23 95.7082 152.517 96.9464 151.659 98.2944C150.801 99.6424 149.986 100.836 149.375 101.689C149.07 102.167 148.722 102.62 148.335 103.042C148.589 102.541 148.881 102.057 149.209 101.594L151.418 98.1646L153.595 94.7147C153.875 94.2247 154.19 93.7527 154.538 93.3018Z" fill="#263238"/>
<path d="M176.842 98.1697C176.76 97.6739 176.715 97.1735 176.708 96.6719C176.628 95.6734 176.526 94.3953 176.419 93.0073C176.311 91.6194 176.22 90.2714 176.209 89.3278C176.172 88.8179 176.193 88.3056 176.274 87.8C176.354 88.3044 176.398 88.8131 176.408 89.3228C176.488 90.3213 176.585 91.5944 176.697 92.9874C176.81 94.3803 176.896 95.7183 176.906 96.6619C176.94 97.1653 176.918 97.6704 176.842 98.1697Z" fill="#263238"/>
<path opacity="0.3" d="M156.136 90.531L149.793 109.792L149.884 101.04L156.136 90.531Z" fill="black"/>
<path opacity="0.3" d="M176.429 91.3647C176.429 91.3647 183.935 95.244 186.198 93.3019L184.97 96.587L176.563 92.6778L176.429 91.3647Z" fill="black"/>
<path d="M163.975 88.5141C163.899 88.5141 163.637 86.0527 163.395 83.0222C163.154 79.9917 163.015 77.5004 163.095 77.4954C163.176 77.4904 163.428 79.9567 163.674 82.9872C163.921 86.0178 164.05 88.5091 163.975 88.5141Z" fill="#263238"/>
<path d="M164.361 78.7833C164.387 78.8183 164.221 78.9131 164.194 79.1528C164.184 79.2164 164.188 79.2812 164.207 79.3431C164.225 79.405 164.258 79.4627 164.302 79.5123C164.358 79.5647 164.429 79.601 164.507 79.617C164.585 79.6329 164.666 79.6277 164.741 79.6021C164.818 79.5853 164.889 79.5481 164.944 79.495C164.999 79.4419 165.037 79.375 165.052 79.3026C165.059 79.2384 165.051 79.1736 165.028 79.1126C165.006 79.0515 164.97 78.9955 164.923 78.9481C164.757 78.7584 164.564 78.7684 164.564 78.7284C164.564 78.6885 164.789 78.6036 165.063 78.8133C165.141 78.8742 165.203 78.9507 165.245 79.0372C165.287 79.1237 165.307 79.2178 165.304 79.3126C165.286 79.4309 165.23 79.5415 165.144 79.6304C165.058 79.7193 164.946 79.7824 164.822 79.8118C164.696 79.8521 164.56 79.856 164.432 79.823C164.303 79.7901 164.189 79.7218 164.103 79.6271C164.041 79.5493 164 79.4591 163.982 79.3638C163.964 79.2684 163.971 79.1705 164.001 79.0779C164.119 78.7983 164.361 78.7484 164.361 78.7833Z" fill="#263238"/>
<path d="M164.741 83.2418C164.741 83.2768 164.596 83.3716 164.57 83.6113C164.554 83.7395 164.593 83.8683 164.677 83.9708C164.733 84.0232 164.805 84.0595 164.883 84.0755C164.961 84.0914 165.042 84.0862 165.117 84.0606C165.194 84.0438 165.264 84.0066 165.319 83.9535C165.375 83.9003 165.412 83.8335 165.427 83.7611C165.438 83.6308 165.394 83.5018 165.304 83.4016C165.138 83.2169 164.945 83.2269 164.94 83.1869C164.934 83.147 165.165 83.0621 165.444 83.2718C165.52 83.3336 165.582 83.4103 165.623 83.4966C165.665 83.5828 165.686 83.6765 165.685 83.7711C165.665 83.8927 165.609 84.0066 165.523 84.0996C165.436 84.1927 165.324 84.261 165.197 84.2965C165.071 84.3321 164.936 84.3335 164.809 84.3006C164.682 84.2677 164.567 84.2018 164.478 84.1106C164.416 84.0332 164.372 83.9436 164.352 83.8485C164.332 83.7534 164.335 83.6553 164.361 83.5614C164.478 83.2518 164.741 83.2069 164.741 83.2418Z" fill="#263238"/>
<path d="M145.853 101.065C145.689 101.275 145.51 101.473 145.316 101.66C144.862 102.209 144.438 102.778 144.046 103.367C143.402 104.216 142.645 104.986 141.794 105.659C140.757 106.518 139.473 107.075 138.1 107.261C136.709 107.386 135.315 107.063 134.148 106.348C133.206 105.776 132.404 105.026 131.795 104.146C131.383 103.562 131.041 102.937 130.776 102.284C130.68 102.042 130.615 101.791 130.583 101.535C130.583 101.535 130.706 101.779 130.921 102.229C131.22 102.856 131.579 103.458 131.993 104.026C132.608 104.868 133.401 105.584 134.325 106.128C135.436 106.813 136.762 107.129 138.089 107.027C139.409 106.843 140.646 106.314 141.655 105.499C142.495 104.844 143.251 104.1 143.906 103.282C144.317 102.701 144.768 102.145 145.257 101.62C145.434 101.44 145.579 101.305 145.681 101.215C145.783 101.125 145.847 101.06 145.853 101.065Z" fill="#EB996E"/>
<path d="M258.316 186.199C256.9 188.082 254.155 187.458 252.884 186.309C251.614 185.161 251.072 183.503 250.584 181.921C249.464 178.301 248.338 174.502 249.169 170.812C249.372 169.703 249.899 168.666 250.692 167.817C251.097 167.397 251.613 167.084 252.189 166.909C252.765 166.734 253.38 166.702 253.973 166.818C255.356 167.158 256.214 168.421 256.836 169.624C258.669 173.168 259.629 177.048 259.645 180.982C259.645 182.809 259.42 184.732 258.316 186.239" fill="#6DD2AE"/>
<g opacity="0.2">
<path opacity="0.2" d="M258.316 186.199C256.9 188.082 254.155 187.458 252.884 186.309C251.614 185.161 251.072 183.503 250.584 181.921C249.464 178.301 248.338 174.502 249.169 170.812C249.372 169.703 249.899 168.666 250.692 167.817C251.097 167.397 251.613 167.084 252.189 166.909C252.765 166.734 253.38 166.702 253.973 166.818C255.356 167.158 256.214 168.421 256.836 169.624C258.669 173.168 259.629 177.048 259.645 180.982C259.645 182.809 259.42 184.732 258.316 186.239" fill="black"/>
</g>
<path d="M253.024 195.715C250.713 194.602 247.995 194.457 245.427 194.852C244.054 195.066 242.617 195.451 241.674 196.414C240.73 197.378 240.558 199.07 241.636 199.909C242.329 200.348 243.166 200.546 244 200.468C246.006 200.468 248.231 200.119 249.839 201.242C250.751 201.886 251.362 202.95 252.456 203.264C253.002 203.382 253.576 203.331 254.089 203.119C254.601 202.906 255.026 202.543 255.297 202.086C255.821 201.151 255.936 200.063 255.619 199.05C255.493 198.345 255.194 197.677 254.743 197.098C254.293 196.519 253.704 196.046 253.024 195.715Z" fill="#6DD2AE"/>
<path d="M262.192 188.906C260.659 187.213 260.369 184.742 261.05 182.62C261.731 180.498 263.275 178.691 265.05 177.213C267.141 175.481 269.573 174.145 272.213 173.279C273.234 172.899 274.331 172.729 275.43 172.779C275.973 172.809 276.501 172.961 276.967 173.222C277.434 173.483 277.826 173.845 278.11 174.277C278.866 175.615 278.143 177.238 277.36 178.566C275.984 180.902 274.414 183.134 272.663 185.241C271.253 186.933 269.639 188.606 267.489 189.37C265.339 190.134 263.109 190.044 261.972 188.656" fill="#6DD2AE"/>
<path d="M258.407 214.532C258.331 214.253 258.29 213.967 258.283 213.679C258.214 213.06 258.133 212.281 258.037 211.352C257.913 210.205 257.725 209.066 257.474 207.937C257.148 206.561 256.702 205.212 256.139 203.903C255.59 202.596 254.846 201.368 253.93 200.253C253.183 199.348 252.229 198.61 251.137 198.092C250.395 197.751 249.601 197.521 248.783 197.408C248.473 197.397 248.166 197.356 247.866 197.283C248.176 197.253 248.489 197.253 248.799 197.283C249.648 197.34 250.478 197.541 251.249 197.877C252.401 198.381 253.41 199.128 254.198 200.059C255.159 201.186 255.932 202.442 256.493 203.783C257.061 205.11 257.504 206.479 257.817 207.877C258.054 209.02 258.217 210.176 258.305 211.337C258.385 212.336 258.412 213.129 258.428 213.684C258.454 213.966 258.447 214.251 258.407 214.532Z" fill="#263238"/>
<path d="M258.235 212.74C258.219 212.609 258.219 212.477 258.235 212.346V211.212C258.235 210.214 258.235 208.806 258.182 207.054C258.09 203.559 257.763 198.691 257.109 193.364C256.455 188.037 255.64 183.234 254.879 179.794C254.697 178.93 254.514 178.156 254.343 177.477C254.171 176.798 254.042 176.209 253.908 175.735C253.774 175.261 253.699 174.921 253.624 174.632C253.582 174.505 253.557 174.374 253.549 174.242C253.614 174.359 253.662 174.483 253.694 174.612C253.79 174.896 253.908 175.256 254.048 175.7C254.187 176.144 254.364 176.753 254.552 177.432C254.739 178.111 254.943 178.88 255.136 179.744C256.181 184.228 256.965 188.761 257.485 193.324C258.117 198.666 258.396 203.524 258.423 207.049C258.423 208.806 258.423 210.234 258.358 211.217C258.326 211.677 258.3 212.051 258.283 212.351C258.286 212.482 258.27 212.613 258.235 212.74Z" fill="#263238"/>
<path d="M258.187 203.384C258.157 202.99 258.157 202.595 258.187 202.201C258.235 201.442 258.348 200.344 258.578 198.996C258.856 197.421 259.228 195.863 259.694 194.327C260.252 192.441 260.954 190.594 261.795 188.801C263.249 185.501 265.335 182.475 267.95 179.869C268.405 179.424 268.888 179.005 269.398 178.616C269.623 178.441 269.816 178.266 270.02 178.116L270.556 177.752C270.895 177.514 271.253 177.302 271.628 177.118C270.394 178.017 269.223 178.99 268.122 180.029C265.614 182.654 263.602 185.655 262.171 188.905C261.341 190.692 260.637 192.526 260.064 194.397C259.582 195.918 259.185 197.462 258.873 199.021C258.611 200.354 258.46 201.442 258.369 202.196C258.341 202.596 258.28 202.993 258.187 203.384Z" fill="#263238"/>
</svg>
