<svg width="295" height="214" viewBox="0 0 295 214" fill="none" xmlns="http://www.w3.org/2000/svg">
<g filter="url(#filter0_d)">
<path d="M103.007 17.3926H27.9906V93.8094H103.007V17.3926Z" stroke="#263238" stroke-linecap="round" stroke-linejoin="round"/>
<path d="M97.9271 20.6104H33.0704V90.587H97.9271V20.6104Z" stroke="#263238" stroke-linecap="round" stroke-linejoin="round"/>
<path d="M97.9271 24.8697C96.8639 24.6744 85.4918 22.6935 82.9176 27.3062C80.2254 32.1421 98.0142 44.6411 88.3084 54.7407C78.6026 64.8404 51.1142 49.5003 46.8053 57.5632C42.4964 65.6262 43.0312 76.5117 35.4829 78.5251C34.6974 78.7298 33.8904 78.8853 33.0704 78.9901V90.6149H97.9271V24.8697Z" stroke="#263238" stroke-miterlimit="10"/>
<path d="M49.1307 20.6104C54.0116 22.6238 57.6054 25.5253 53.8126 29.3243C45.7296 37.3826 33.8663 42.2232 41.4145 46.6545C48.9628 51.0859 68.9029 47.4636 66.2107 34.9646C64.7184 28.0549 64.7184 23.6142 66.0988 20.6104H49.1307Z" stroke="#263238" stroke-miterlimit="10"/>
<path d="M66.7399 79.0726C71.7768 77.4057 74.0531 73.0008 71.8242 69.2339C69.5953 65.467 63.7052 63.7646 58.6683 65.4315C53.6314 67.0984 51.3551 71.5034 53.584 75.2702C55.8129 79.0371 61.703 80.7395 66.7399 79.0726Z" stroke="#263238" stroke-miterlimit="10"/>
<path d="M94.2401 65.4031C94.2389 66.0007 94.0008 66.5845 93.556 67.081C93.1111 67.5774 92.4795 67.9641 91.7409 68.1921C91.0023 68.4202 90.1899 68.4794 89.4063 68.3622C88.6228 68.2451 87.9032 67.9568 87.3386 67.534C86.774 67.1111 86.3897 66.5725 86.2343 65.9864C86.0789 65.4002 86.1593 64.7927 86.4653 64.2407C86.7714 63.6887 87.2894 63.2169 87.9539 62.885C88.6184 62.5531 89.3995 62.376 90.1986 62.376C90.7299 62.376 91.2559 62.4543 91.7466 62.6065C92.2374 62.7587 92.6832 62.9817 93.0586 63.2629C93.4339 63.544 93.7315 63.8778 93.9342 64.245C94.137 64.6122 94.2409 65.0058 94.2401 65.4031V65.4031Z" stroke="#263238" stroke-miterlimit="10"/>
<path d="M54.8883 40.6094C54.8883 41.0876 54.6986 41.5551 54.3434 41.9527C53.9881 42.3503 53.4832 42.6603 52.8924 42.8433C52.3016 43.0263 51.6515 43.0742 51.0243 42.9809C50.3971 42.8876 49.821 42.6573 49.3689 42.3191C48.9167 41.981 48.6088 41.5501 48.484 41.0811C48.3592 40.612 48.4233 40.1259 48.668 39.6841C48.9127 39.2422 49.3271 38.8646 49.8588 38.5989C50.3905 38.3332 51.0156 38.1914 51.6551 38.1914C52.5126 38.1914 53.3349 38.4462 53.9413 38.8996C54.5476 39.3531 54.8883 39.9681 54.8883 40.6094Z" stroke="#263238" stroke-miterlimit="10"/>
<path d="M286.453 145.057H208.931V152.353H280.603" stroke="#263238" stroke-linecap="round" stroke-linejoin="round"/>
<path d="M212.836 152.352V185.896" stroke="#263238" stroke-linecap="round" stroke-linejoin="round"/>
<path d="M257.691 170.579H218.681V155.997H277.674" stroke="#263238" stroke-linecap="round" stroke-linejoin="round"/>
<path d="M218.681 184.437V174.593H248.911" stroke="#263238" stroke-linecap="round" stroke-linejoin="round"/>
<path d="M252.337 117.152C255.057 117.152 257.262 112.828 257.262 107.494C257.262 102.16 255.057 97.8364 252.337 97.8364C249.617 97.8364 247.413 102.16 247.413 107.494C247.413 112.828 249.617 117.152 252.337 117.152Z" fill="#92E3A9"/>
<path d="M267.65 101.555C269.189 97.9328 268.728 94.5904 266.62 94.0895C264.513 93.5886 261.557 96.1189 260.017 99.7412C258.478 103.363 258.939 106.706 261.046 107.207C263.154 107.708 266.11 105.177 267.65 101.555Z" fill="#92E3A9"/>
<path d="M231.508 123.383C226.496 122.751 222.735 120.914 223.108 119.282C223.481 117.65 227.839 116.841 232.845 117.478C237.85 118.115 241.624 119.952 241.251 121.579C240.878 123.207 236.519 124.02 231.508 123.383Z" fill="#92E3A9"/>
<path d="M272.271 114.465C276.458 111.36 278.299 107.673 276.384 106.228C274.469 104.784 269.523 106.13 265.336 109.235C261.15 112.34 259.308 116.028 261.223 117.472C263.138 118.916 268.085 117.57 272.271 114.465Z" fill="#92E3A9"/>
<path d="M246.127 116.269C248.686 114.95 247.479 110.321 243.431 105.929C239.383 101.538 234.027 99.0469 231.468 100.366C228.909 101.685 230.117 106.314 234.165 110.706C238.213 115.098 243.568 117.588 246.127 116.269Z" fill="#92E3A9"/>
<path d="M252.679 116.673L253.065 129.949" stroke="#263238" stroke-miterlimit="10" stroke-linecap="round"/>
<path d="M252.225 103.905L252.679 116.674" stroke="#8C8C8C" stroke-miterlimit="10" stroke-linecap="round"/>
<path d="M252.256 101.821L252.225 102.802" stroke="#8C8C8C" stroke-miterlimit="10" stroke-linecap="round"/>
<path d="M246.101 115.654C248.927 120.01 250.583 124.739 250.975 129.572" stroke="#263238" stroke-miterlimit="10" stroke-linecap="round"/>
<path d="M237.645 105.979C241.024 108.91 243.867 112.164 246.101 115.655" stroke="#8C8C8C" stroke-miterlimit="10" stroke-linecap="round"/>
<path d="M234.984 103.877C234.984 103.877 235.493 104.226 236.333 104.891" stroke="#8C8C8C" stroke-miterlimit="10" stroke-linecap="round"/>
<path d="M261.546 117.017C258.093 120.637 255.403 124.631 253.568 128.86" stroke="#263238" stroke-miterlimit="10" stroke-linecap="round"/>
<path d="M267.191 112.148C265.113 113.638 263.223 115.267 261.546 117.017" stroke="#8C8C8C" stroke-miterlimit="10" stroke-linecap="round"/>
<path d="M273.241 108.703C271.702 109.353 270.256 110.12 268.926 110.991" stroke="#8C8C8C" stroke-miterlimit="10" stroke-linecap="round"/>
<path d="M261.322 106.295C258.592 112.716 254.93 122.198 253.239 130.433" stroke="#263238" stroke-miterlimit="10" stroke-linecap="round"/>
<path d="M262.982 102.486C262.497 103.57 261.931 104.858 261.322 106.295" stroke="#8C8C8C" stroke-miterlimit="10" stroke-linecap="round"/>
<path d="M264.685 98.8032C264.685 98.8032 264.207 99.789 263.442 101.472" stroke="#8C8C8C" stroke-miterlimit="10" stroke-linecap="round"/>
<path d="M241.027 120.691C242.977 121.203 244.743 122.043 246.191 123.146C247.638 124.249 248.728 125.585 249.378 127.052" stroke="#263238" stroke-miterlimit="10" stroke-linecap="round"/>
<path d="M234.704 119.733C236.864 119.814 238.995 120.137 241.027 120.691" stroke="#8C8C8C" stroke-miterlimit="10" stroke-linecap="round"/>
<path d="M230.625 119.809C230.625 119.809 231.247 119.743 232.235 119.714" stroke="#8C8C8C" stroke-miterlimit="10" stroke-linecap="round"/>
<path d="M274.391 123.383C279.403 122.751 283.164 120.914 282.798 119.282C282.431 117.65 278.066 116.841 273.054 117.478C268.043 118.115 264.281 119.952 264.648 121.579C265.015 123.207 269.38 124.02 274.391 123.383Z" fill="#92E3A9"/>
<path d="M265.009 120.658C263.039 121.165 261.252 122.006 259.789 123.116C258.325 124.225 257.224 125.572 256.571 127.051" stroke="#263238" stroke-miterlimit="10" stroke-linecap="round"/>
<path d="M271.724 119.714C269.434 119.761 267.169 120.075 265.009 120.644" stroke="#8C8C8C" stroke-miterlimit="10" stroke-linecap="round"/>
<path d="M275.274 119.809C275.274 119.809 274.876 119.766 274.192 119.733" stroke="#8C8C8C" stroke-miterlimit="10" stroke-linecap="round"/>
<path d="M240.113 126.084C239.49 127.59 239.175 129.158 239.18 130.734C239.18 137.9 245.467 145.149 253.226 145.149C260.986 145.149 267.266 137.891 267.266 130.734C267.271 129.158 266.956 127.59 266.333 126.084H240.113Z" fill="#263238"/>
<path d="M239.442 128.261C239.367 128.615 239.305 128.977 239.267 129.345H267.185C267.141 128.977 267.085 128.615 267.011 128.261H239.442Z" fill="#7A7A7A"/>
<path d="M266.887 133.812C266.974 133.45 267.048 133.087 267.11 132.724H239.342C239.398 133.087 239.473 133.45 239.56 133.812H266.887Z" fill="#7A7A7A"/>
<path d="M242.569 130.795C242.569 130.963 242.503 131.126 242.378 131.266C242.253 131.405 242.076 131.513 241.869 131.577C241.662 131.641 241.434 131.658 241.214 131.625C240.995 131.592 240.793 131.511 240.635 131.392C240.477 131.273 240.37 131.122 240.327 130.957C240.284 130.793 240.307 130.622 240.394 130.468C240.48 130.313 240.626 130.182 240.813 130.089C241 129.997 241.22 129.948 241.444 129.949C241.592 129.949 241.739 129.971 241.876 130.013C242.013 130.056 242.137 130.118 242.242 130.197C242.346 130.276 242.429 130.369 242.485 130.472C242.541 130.574 242.57 130.684 242.569 130.795Z" fill="#8C8C8C"/>
<path d="M248.221 130.795C248.221 130.962 248.155 131.126 248.03 131.265C247.906 131.404 247.729 131.513 247.522 131.577C247.316 131.641 247.088 131.658 246.869 131.625C246.649 131.592 246.447 131.512 246.289 131.393C246.131 131.275 246.023 131.124 245.98 130.96C245.936 130.796 245.958 130.626 246.044 130.471C246.13 130.317 246.275 130.184 246.461 130.091C246.647 129.998 246.866 129.949 247.089 129.949C247.238 129.948 247.386 129.97 247.523 130.012C247.661 130.054 247.786 130.117 247.891 130.195C247.997 130.274 248.08 130.367 248.137 130.47C248.193 130.573 248.222 130.684 248.221 130.795Z" fill="#8C8C8C"/>
<path d="M253.867 130.795C253.867 130.963 253.8 131.126 253.675 131.266C253.551 131.405 253.374 131.513 253.167 131.577C252.959 131.641 252.732 131.658 252.512 131.625C252.292 131.592 252.091 131.511 251.933 131.392C251.775 131.273 251.667 131.122 251.624 130.957C251.581 130.793 251.605 130.622 251.691 130.468C251.778 130.313 251.924 130.182 252.111 130.089C252.298 129.997 252.517 129.948 252.741 129.949C252.89 129.949 253.036 129.971 253.173 130.013C253.31 130.056 253.435 130.118 253.539 130.197C253.644 130.276 253.727 130.369 253.783 130.472C253.839 130.574 253.867 130.684 253.867 130.795Z" fill="#8C8C8C"/>
<path d="M259.519 130.795C259.519 130.962 259.452 131.126 259.328 131.265C259.204 131.404 259.027 131.513 258.82 131.577C258.613 131.641 258.386 131.658 258.166 131.625C257.947 131.592 257.745 131.512 257.587 131.393C257.429 131.275 257.321 131.124 257.277 130.96C257.233 130.796 257.256 130.626 257.342 130.471C257.427 130.317 257.572 130.184 257.758 130.091C257.944 129.998 258.163 129.949 258.387 129.949C258.536 129.948 258.683 129.97 258.821 130.012C258.959 130.054 259.084 130.117 259.189 130.195C259.294 130.274 259.378 130.367 259.434 130.47C259.491 130.573 259.519 130.684 259.519 130.795Z" fill="#8C8C8C"/>
<path d="M265.17 130.795C265.17 130.962 265.104 131.126 264.98 131.265C264.855 131.404 264.679 131.513 264.472 131.577C264.265 131.641 264.037 131.658 263.818 131.625C263.598 131.592 263.397 131.512 263.239 131.393C263.08 131.275 262.973 131.124 262.929 130.96C262.885 130.796 262.908 130.626 262.993 130.471C263.079 130.317 263.224 130.184 263.41 130.091C263.596 129.998 263.815 129.949 264.039 129.949C264.339 129.949 264.627 130.038 264.839 130.197C265.051 130.355 265.17 130.571 265.17 130.795Z" fill="#8C8C8C"/>
<path d="M45.1078 185.218C45.4498 184.46 45.7731 183.744 46.0156 183.182C45.0146 182.07 44.1068 181.094 43.5285 180.438C43.4291 180.327 43.2923 180.359 43.2177 180.438L43.3109 181.029C43.7026 182.117 44.3555 183.619 45.1078 185.218Z" fill="#92E3A9"/>
<path d="M46.6435 182.697C46.6435 182.535 46.2891 182.535 46.2207 182.697C46.1523 182.86 46.0901 183.004 46.0155 183.162L46.7927 184.036C46.7554 183.511 46.7057 183.046 46.6435 182.697Z" fill="#92E3A9"/>
<path d="M49.9825 187.747C49.982 187.727 49.9755 187.706 49.9636 187.688C49.9516 187.669 49.9344 187.653 49.9132 187.639C49.892 187.626 49.8672 187.616 49.8405 187.611C49.8139 187.606 49.7859 187.605 49.7587 187.608L49.9763 187.896C49.9763 187.845 49.9825 187.794 49.9825 187.747Z" fill="#92E3A9"/>
<path d="M44.8467 185.799C44.3306 187.003 43.6964 188.277 43.3855 189.226C43.0239 190.221 42.7518 191.234 42.571 192.257C42.0425 191.22 41.4954 190.188 40.8549 189.188C41.4706 188.787 41.9357 188.273 42.2042 187.696C42.7226 186.723 43.0918 185.709 43.3047 184.673C43.4706 183.491 43.4706 182.299 43.3047 181.116C43.302 181.091 43.302 181.066 43.3047 181.042C43.2612 180.93 43.2114 180.818 43.1741 180.716C43.1542 180.673 43.1472 180.626 43.1536 180.581C43.1601 180.535 43.1798 180.491 43.2114 180.451C43.0436 179.47 42.8508 178.563 42.6767 177.991C42.627 177.833 42.2974 177.856 42.2539 178.024C42.0674 178.745 41.6757 179.968 41.3026 181.204C40.9295 182.441 40.5254 183.743 40.3326 184.72C40.1257 185.739 40.0074 186.767 39.9782 187.798L38.9523 186.301L37.7958 184.906C38.3558 184.453 38.7424 183.895 38.915 183.292C39.2708 182.292 39.4793 181.266 39.5368 180.233C39.5398 179.048 39.3899 177.866 39.0891 176.703C38.716 175.476 38.2497 174.304 37.9451 173.588C37.8767 173.425 37.5409 173.476 37.5285 173.648C37.429 174.402 37.2549 175.638 37.0808 176.94C36.9067 178.242 36.6269 179.535 36.5958 180.512C36.5292 181.541 36.552 182.572 36.6642 183.599L35.4207 182.204L34.1025 180.865C34.5959 180.371 34.9088 179.789 35.0103 179.177C35.2441 178.152 35.3151 177.109 35.2217 176.071C35.0526 174.862 34.6894 173.672 34.1398 172.528C33.6261 171.497 33.0387 170.488 32.3802 169.505C32.3531 169.474 32.3131 169.451 32.2665 169.439C32.2199 169.427 32.1693 169.427 32.1225 169.438C32.0757 169.45 32.0354 169.473 32.0078 169.504C31.9802 169.534 31.9668 169.571 31.9699 169.608C32.0507 170.379 32.1129 171.658 32.1813 172.942C32.2497 174.225 32.1813 175.597 32.3429 176.568C32.4288 177.602 32.6033 178.63 32.8652 179.647C31.9139 178.791 30.9999 177.926 29.9242 177.145C30.34 176.609 30.5548 175.998 30.546 175.378C30.5976 174.33 30.4659 173.281 30.1543 172.258C29.9869 171.691 29.7454 171.138 29.433 170.607C29.1114 170.001 28.7418 169.409 28.3263 168.836C27.5967 167.851 26.7652 166.91 25.8392 166.022C25.8062 165.995 25.7617 165.976 25.7128 165.969C25.6639 165.962 25.6134 165.968 25.5692 165.985C25.5249 166.002 25.4896 166.029 25.4687 166.063C25.4478 166.097 25.4425 166.135 25.4537 166.171C25.5843 166.548 25.7459 167.041 25.9387 167.608C26.1314 168.175 26.2682 168.817 26.4423 169.468C26.803 170.737 27.0641 172.095 27.3563 173.058L27.9097 174.732C28.0625 175.181 28.2472 175.623 28.4631 176.057L26.8278 174.908C26.2807 174.536 25.6713 174.211 25.0931 173.862C25.3983 173.285 25.4843 172.656 25.3418 172.044C25.1755 170.994 24.8156 169.966 24.2724 168.989C23.9522 168.451 23.5867 167.93 23.178 167.427C22.6994 166.87 22.1805 166.333 21.6236 165.818C20.6624 164.923 19.5948 164.095 18.4339 163.344C18.3952 163.32 18.3468 163.307 18.2966 163.306C18.2464 163.305 18.1972 163.317 18.157 163.339C18.1168 163.362 18.0879 163.394 18.075 163.43C18.0621 163.466 18.0659 163.505 18.0858 163.539C18.322 163.897 18.6329 164.367 18.9562 164.902L19.9448 166.659C20.5666 167.873 21.2257 169.147 21.7169 170.1C22.034 170.682 22.3387 171.212 22.6433 171.677C22.8837 172.108 23.1535 172.531 23.4516 172.942L22.0962 172.253L20.691 171.63C20.6159 171.416 20.4778 171.218 20.2868 171.049C19.9946 170.804 19.6719 170.579 19.3231 170.379C18.3321 169.823 17.2278 169.39 16.0526 169.096C14.6673 168.758 13.2197 168.584 11.7624 168.58C11.0668 168.571 10.3712 168.594 9.67944 168.65C9.96546 169.056 10.2577 169.46 10.5561 169.863L11.3271 170.1C12.6204 170.5 13.9323 170.989 14.9893 171.268C17.1904 171.863 19.1863 172.253 20.1252 172.132L21.5428 172.737C22.0029 172.951 22.4381 173.202 22.892 173.416C22.31 173.367 21.724 173.35 21.1386 173.365C20.4413 173.404 19.7477 173.476 19.0619 173.579C18.3812 173.682 17.7165 173.838 17.0785 174.044C16.3703 174.256 15.6826 174.504 15.0204 174.788L14.7655 174.904C15.1324 175.299 15.4992 175.69 15.8723 176.076L16.8733 175.945C17.4951 175.876 18.1666 175.792 18.7386 175.694C20.063 175.476 21.3314 175.285 22.3946 175.043C23.18 174.925 23.9261 174.691 24.5895 174.355C25.1491 174.69 25.7273 175.001 26.2558 175.359L27.8475 176.438C27.2753 176.327 26.6936 176.245 26.1066 176.192C25.4121 176.123 24.7104 176.104 24.0112 176.136C22.5321 176.202 21.073 176.424 19.6775 176.796C18.95 176.982 18.2723 177.173 17.6692 177.373L17.2837 177.512C17.5137 177.736 17.75 177.977 17.9863 178.177H19.2733C19.9386 178.177 20.6039 178.21 21.2879 178.21H23.234C24.5708 178.21 25.9325 178.098 27.0019 178.01C27.8055 177.992 28.5944 177.844 29.3149 177.577C30.3346 178.331 31.2424 179.163 32.1564 179.982C30.9629 179.618 29.7071 179.382 28.4258 179.279C26.9478 179.19 25.4607 179.238 23.9988 179.424C22.736 179.582 21.4894 179.805 20.2682 180.093C20.2361 180.103 20.2067 180.117 20.1811 180.135L20.5044 180.409L23.3521 180.753C24.633 180.963 26.1439 181.121 27.319 181.251C28.5812 181.372 29.8518 181.437 31.1243 181.446C31.9264 181.506 32.7363 181.436 33.4994 181.242L34.7429 182.534L35.9367 183.874C34.7924 183.407 33.5658 183.065 32.2932 182.855C30.8293 182.618 29.3321 182.517 27.8351 182.553C26.537 182.576 25.2417 182.654 23.9553 182.785C23.7501 182.818 23.6257 183.013 23.7812 183.055C24.4713 183.227 25.6465 183.52 26.9646 183.808C28.2534 184.175 29.5696 184.486 30.9066 184.738C32.1441 184.974 33.4006 185.149 34.6683 185.264C35.4628 185.376 36.2798 185.365 37.0684 185.231L38.1565 186.626L39.1575 188.049C38.0854 187.496 36.9129 187.061 35.6756 186.756C34.2464 186.416 32.7691 186.201 31.2735 186.115C30.0299 186.022 28.8424 185.989 27.947 185.989C28.5688 186.389 29.1905 186.784 29.8123 187.175L30.2351 187.314C31.4729 187.762 32.7409 188.161 34.0341 188.509C35.2356 188.827 36.463 189.086 37.7088 189.286C38.4781 189.466 39.2904 189.52 40.0902 189.444C40.7119 190.411 41.2342 191.411 41.7565 192.406C40.7695 191.774 39.6711 191.247 38.4922 190.839C37.2943 190.442 36.0439 190.139 34.7616 189.937C36.3969 190.793 38.0881 191.616 39.8352 192.392C41.0104 192.918 42.1669 193.401 43.3171 193.848L43.2612 193.717C43.9393 193.367 44.4767 192.884 44.8156 192.322C45.487 191.41 45.997 190.436 46.3327 189.426C46.4738 189.032 46.5776 188.631 46.6436 188.226C46.1151 187.254 45.5928 186.212 45.114 185.203L44.8467 185.799Z" fill="#92E3A9"/>
<path d="M47.9307 190.388L47.7441 190.69C46.9918 191.871 46.2519 193.057 45.7483 193.987L45.4312 194.629C46.3078 194.94 47.1783 195.233 48.0426 195.498C48.254 195.178 48.4592 194.833 48.6644 194.471C48.9929 193.802 49.2486 193.115 49.4291 192.416C49.0125 191.895 48.596 191.327 48.1856 190.732C48.0799 190.621 48.0053 190.486 47.9307 190.388Z" fill="#92E3A9"/>
<path d="M74.3932 190.667C74.5487 190.556 74.3435 190.365 74.1259 190.426C72.2606 190.932 68.0388 192.286 65.7631 193.625C64.5336 194.319 63.4227 195.123 62.4553 196.019C62.9216 194.741 63.419 193.462 63.9848 192.202C64.905 192.332 67.4667 191.37 70.2025 190.007C72.6444 188.648 74.9877 187.192 77.2223 185.645C77.3839 185.534 77.2223 185.334 76.9798 185.39C76.0285 185.618 74.4927 186.017 72.8326 186.52C71.269 186.989 69.7645 187.561 68.3372 188.231C67.0434 188.861 65.8556 189.606 64.7993 190.449C65.3838 189.193 66.0429 187.952 66.6646 186.729C67.5911 186.91 70.2087 186.069 73.0564 184.818C75.6206 183.552 78.0791 182.17 80.4182 180.679C80.5861 180.572 80.4182 180.363 80.1881 180.41C79.2244 180.614 77.6327 180.968 75.9601 181.419C74.3631 181.834 72.8156 182.349 71.3341 182.958C69.9929 183.538 68.7417 184.227 67.6035 185.013C68.3248 183.799 69.0212 182.572 69.7984 181.377C70.6999 181.591 73.386 180.87 76.3207 179.703C77.7578 179.09 79.1467 178.417 80.4803 177.685C81.8855 176.945 83.1602 176.229 83.925 175.797C84.1053 175.699 83.925 175.49 83.7136 175.527C81.755 175.843 77.272 176.746 74.7166 177.773C73.345 178.312 72.0547 178.959 70.8678 179.703C71.6637 178.512 72.4471 177.313 73.2927 176.141C74.1756 176.387 76.9176 175.75 79.9021 174.681C82.4824 173.751 86.1198 171.858 87.7302 171.087C87.9105 170.998 87.7613 170.78 87.5312 170.808C85.554 171.031 81.0275 171.77 78.4223 172.709C77.016 173.194 75.6874 173.796 74.4616 174.504C75.3197 173.337 76.1839 172.179 77.0917 171.026C77.956 171.3 80.7415 170.761 83.7819 169.817C86.3996 168.98 90.1737 167.292 91.8028 166.609C91.9893 166.53 91.8525 166.311 91.6287 166.325C90.6401 166.39 89.0235 166.544 87.2763 166.79C85.6176 167.016 83.9901 167.356 82.414 167.804C80.9761 168.228 79.611 168.779 78.3477 169.445C79.2617 168.306 80.213 167.185 81.2016 166.069C82.0596 166.39 84.8576 165.944 87.9602 165.163C89.297 164.828 90.9261 164.265 92.437 163.768C93.9479 163.27 95.3095 162.81 96.1241 162.54C96.3168 162.484 96.2049 162.261 95.981 162.252C94.5491 162.223 93.1162 162.262 91.6908 162.368C90.0431 162.471 88.4139 162.7 86.8286 163.052C85.3603 163.408 83.9536 163.894 82.6379 164.498C83.3902 163.702 84.1301 162.898 84.9136 162.122C85.8773 162.01 87.8234 160.601 89.8877 158.797C90.3354 158.392 90.8328 157.923 91.3178 157.402C91.8028 156.881 92.3313 156.36 92.8349 155.839C93.6727 154.953 94.5735 154.101 95.5334 153.287C95.5687 153.259 95.5902 153.223 95.5942 153.184C95.5982 153.146 95.5845 153.108 95.5553 153.076C95.5262 153.045 95.4834 153.022 95.4341 153.011C95.3848 153 95.332 153.002 95.2847 153.017C93.8991 153.484 92.5821 154.057 91.3551 154.728C90.6156 155.122 89.9057 155.546 89.2286 155.998C88.6166 156.407 88.0393 156.845 87.5001 157.309C85.5167 159.067 84.3913 160.833 84.3415 161.647C83.5332 162.442 82.7871 163.265 82.0099 164.074C82.2958 162.951 82.4724 161.813 82.5384 160.671C82.6068 159.559 82.5384 158.109 82.4762 156.709C82.4141 155.309 82.3581 153.97 82.3581 153.143C82.3531 153.103 82.3301 153.066 82.293 153.038C82.2559 153.01 82.207 152.992 82.1545 152.988C82.1019 152.983 82.049 152.993 82.0045 153.014C81.9601 153.036 81.9268 153.068 81.9104 153.105C81.3183 154.238 80.8098 155.395 80.3871 156.57C79.9039 157.861 79.5956 159.185 79.4669 160.522C79.2928 163.084 79.871 165.172 80.555 165.688C79.5974 166.79 78.6461 167.887 77.7446 169.013C77.9319 167.879 78.0088 166.737 77.9746 165.595C77.9373 164.484 77.7508 163.061 77.5083 161.684C77.2658 160.308 77.0544 159.001 76.9176 158.206C76.9058 158.17 76.878 158.137 76.8385 158.114C76.799 158.091 76.7503 158.078 76.7 158.078C76.6497 158.078 76.6009 158.091 76.5615 158.114C76.522 158.137 76.4941 158.17 76.4824 158.206C75.8606 159.787 74.816 163.368 74.9031 165.6C74.9715 168.148 75.6616 170.217 76.4078 170.715C75.5124 171.84 74.6544 172.984 73.815 174.132C73.9313 172.995 73.9313 171.852 73.815 170.715C73.5974 168.529 72.5715 165.004 72.1673 163.433C72.1555 163.396 72.1277 163.364 72.0882 163.34C72.0487 163.317 71.9999 163.305 71.9497 163.305C71.8994 163.305 71.8506 163.317 71.8112 163.34C71.7717 163.364 71.7438 163.396 71.7321 163.433C71.2657 165.004 70.5258 168.599 70.7497 170.812C70.9859 173.346 71.8129 175.388 72.5777 175.848C71.7507 177.001 70.9797 178.173 70.1901 179.349C70.2526 178.21 70.1881 177.068 69.9973 175.936C69.6554 173.76 68.3869 170.287 67.8647 168.743C67.8529 168.706 67.825 168.674 67.7856 168.651C67.7461 168.627 67.6973 168.615 67.647 168.615C67.5968 168.615 67.548 168.627 67.5085 168.651C67.469 168.674 67.4412 168.706 67.4294 168.743C67.274 169.529 67.0564 170.826 66.9196 172.193C66.7691 173.499 66.7691 174.812 66.9196 176.118C67.3051 178.633 68.2564 180.661 69.046 181.084C68.275 182.265 67.5911 183.474 66.8761 184.669C66.8623 183.528 66.7251 182.39 66.4657 181.265C66.1487 179.981 65.7335 178.711 65.2221 177.462C64.7309 176.146 64.2087 174.904 63.8916 174.146C63.8792 174.108 63.8487 174.074 63.8058 174.052C63.7629 174.029 63.7104 174.019 63.6581 174.023C63.6057 174.026 63.5571 174.045 63.5211 174.073C63.4852 174.102 63.4644 174.139 63.4625 174.179C63.2449 175.755 62.9029 179.368 63.4066 181.581C63.9351 184.092 65.0543 186.083 65.8937 186.468C65.2719 187.687 64.6004 188.91 64.0284 190.151C63.9046 189.011 63.676 187.878 63.3444 186.761C62.9315 185.488 62.4314 184.23 61.8459 182.995C61.7278 182.725 61.6035 182.46 61.4853 182.2C61.7402 181.391 61.9516 180.684 62.1071 180.149C62.1817 179.903 61.8895 179.712 61.7278 179.903C61.4915 180.186 61.2055 180.535 60.8884 180.935C60.6646 180.47 60.4656 180.038 60.304 179.712C60.2844 179.678 60.25 179.649 60.2063 179.631C60.1626 179.613 60.1121 179.606 60.0627 179.612C60.0134 179.618 59.9681 179.636 59.934 179.664C59.9 179.691 59.8792 179.726 59.8749 179.763C59.8252 180.386 59.7754 181.321 59.7754 182.358C58.9547 183.446 58.0656 184.683 57.2884 185.906C57.2013 185.752 57.1267 185.608 57.0583 185.483C57.0377 185.447 57.0012 185.418 56.9551 185.401C56.909 185.383 56.8561 185.378 56.8056 185.386C56.755 185.394 56.7097 185.415 56.6776 185.446C56.6455 185.476 56.6284 185.514 56.6293 185.552C56.6293 185.924 56.6293 186.408 56.6293 186.947C56.3309 187.454 56.0635 187.952 55.8397 188.417C55.0872 189.998 54.5112 191.623 54.1174 193.276C53.8749 191.197 53.6759 189.091 53.4956 187.031C54.422 186.85 56.2438 184.376 57.9599 181.093C59.4335 178.257 61.106 173.342 61.8832 171.207C61.9641 170.966 61.6781 170.766 61.5102 170.956C60.0428 172.588 56.7537 176.471 55.2925 179.326C54.438 180.891 53.7559 182.505 53.2531 184.153C53.1122 182.07 52.9961 179.985 52.9049 177.899C53.8438 177.736 55.765 175.309 57.6366 172.072C58.42 170.677 59.3153 168.762 60.0801 166.957C60.9444 165.223 61.6967 163.623 62.1382 162.647C62.2377 162.428 61.9641 162.228 61.79 162.391C61.0066 163.112 59.7195 164.335 58.4013 165.758C58.0718 166.111 57.7423 166.478 57.4189 166.855C57.0956 167.232 56.7972 167.632 56.5298 168.018C55.9578 168.794 55.4355 169.561 55.0189 170.259C54.1136 171.798 53.3755 173.388 52.8116 175.016C52.7619 172.933 52.7246 170.831 52.7495 168.757C53.2158 168.692 53.993 168.064 54.8386 167.055C55.9415 165.817 56.9504 164.533 57.8604 163.21C58.0905 162.889 58.3143 162.531 58.5444 162.159L59.3402 160.987C59.8812 160.178 60.4159 159.327 60.9195 158.499C61.4231 157.672 61.9765 156.872 62.4428 156.174L63.6242 154.375C63.761 154.166 63.5247 153.938 63.3195 154.091C62.418 154.742 60.9382 155.853 59.3837 157.16C57.9214 158.453 56.601 159.833 55.4355 161.285C55.1197 161.675 54.8372 162.081 54.5899 162.498C54.3412 162.898 54.1111 163.298 53.8935 163.689C53.4645 164.465 53.0977 165.204 52.8179 165.869C52.9671 163.791 52.9982 161.708 53.3899 159.643C54.3723 159.578 56.6107 157.374 59.278 154.575C61.4294 152.115 64.7931 147.953 66.3165 146.205C66.4843 146 66.2792 145.74 66.0553 145.889C65.0605 146.479 63.4252 147.474 61.7029 148.655C60.0619 149.83 58.5405 151.096 57.1516 152.44C55.8915 153.816 54.7812 155.265 53.8313 156.774L54.5402 153.701L54.9008 152.161L55.3671 150.641C55.8459 150.641 56.7599 150.153 57.9039 149.33C59.048 148.507 60.478 147.367 61.9703 146.075C63.2138 144.94 64.8553 143.387 66.3227 141.89L70.1092 138.202C70.3082 138.012 70.1528 137.737 69.8978 137.872C68.8035 138.384 67.0812 139.267 65.2159 140.327C63.4106 141.37 61.7202 142.519 60.1609 143.764C58.7033 145.029 57.3928 146.386 56.2438 147.818L57.3816 144.81L57.9599 143.313L58.6252 141.829C59.5827 141.918 62.4677 140.132 65.7942 137.751C68.6543 135.673 72.901 131.981 74.9155 130.483C75.1331 130.311 74.9963 130.042 74.7414 130.144C73.0354 130.786 71.3752 131.494 69.7673 132.264C68.7973 132.729 67.7714 133.232 66.845 133.757C65.9185 134.282 65.0543 134.822 64.3081 135.338C63.4251 135.943 62.5944 136.589 61.8211 137.272C61.0812 137.909 60.4221 138.528 59.8749 139.09C60.6273 137.672 61.2926 136.231 62.1195 134.831C62.648 134.557 63.4314 133.734 64.3268 132.548C65.2221 131.362 66.3165 129.846 67.4729 128.186C67.9641 127.447 68.4864 126.578 69.0522 125.675L69.873 124.28L70.7248 122.885C71.8378 121.026 72.9134 119.31 73.6285 118.277C73.7901 118.04 73.5228 117.891 73.274 118.091C71.7232 119.371 70.2701 120.716 68.9217 122.118L67.7092 123.397C67.3237 123.834 66.9507 124.276 66.5776 124.704C65.8961 125.501 65.2734 126.325 64.7123 127.173C63.756 128.583 62.9393 130.044 62.2687 131.544C61.8319 132.464 61.5642 133.424 61.4729 134.399L60.8511 135.473L60.2915 136.561L59.1661 138.742C59.2594 138.063 59.3216 137.291 59.3526 136.449C59.3837 135.608 59.3526 134.71 59.3962 133.78C59.3962 132.999 59.3402 132.12 59.2532 131.2C59.1661 130.279 59.0915 129.34 59.0107 128.41C58.7993 126.55 58.6749 124.838 58.5568 123.76C58.5568 123.518 58.1526 123.616 58.0656 123.885L57.3692 126.131C57.1392 127.024 56.8967 128.024 56.6728 129.037C56.449 130.051 56.306 131.111 56.1754 132.097C56.0461 132.997 55.9921 133.903 56.0138 134.808C56.0821 138.439 57.0272 141.188 57.8417 141.611L57.1827 143.057C56.9775 143.522 56.8034 144.043 56.6107 144.536L55.4852 147.493C55.4754 145.836 55.3342 144.181 55.0624 142.536C54.907 140.992 54.4407 139.039 54.0241 137.212C53.6075 135.384 53.2344 133.659 52.9982 132.622C52.9546 132.385 52.5754 132.506 52.5132 132.781C52.3142 133.99 51.9412 135.952 51.7795 138.016C51.5877 139.951 51.6148 141.893 51.8603 143.824C52.0607 145.367 52.4775 146.89 53.1039 148.367C53.6199 149.534 54.1484 150.283 54.5837 150.464L54.1236 151.966L53.7692 153.482L53.0666 156.518C52.8229 154.868 52.4471 153.23 51.9412 151.613C51.5743 150.088 50.8717 148.186 50.1816 146.377C49.4914 144.568 48.9753 142.908 48.5961 141.876C48.509 141.639 48.1608 141.787 48.1422 142.066C47.9494 144.512 47.9121 150.027 48.9442 153.152C49.9266 156.714 51.6987 159.266 52.594 159.55C52.2085 161.582 52.1712 163.642 52.0282 165.693C51.8292 165.028 51.5619 164.298 51.2323 163.47C51.0707 163.07 50.8966 162.652 50.7038 162.224C50.5111 161.796 50.3121 161.354 50.1443 160.913C49.5225 159.425 48.5401 157.583 47.6199 155.839C46.6997 154.096 45.9287 152.468 45.4064 151.464C45.2882 151.231 44.9587 151.408 44.9836 151.692C45.0457 152.301 45.1204 153.11 45.2074 154.017C45.2945 154.923 45.4064 155.932 45.6613 156.979C45.9162 158.025 46.1401 159.062 46.4074 160.043C46.5504 160.531 46.6748 161.001 46.8427 161.438C47.0105 161.875 47.2033 162.303 47.3836 162.684C48.0472 164.149 48.8794 165.568 49.8707 166.925C50.7163 167.962 51.45 168.608 51.9287 168.72C51.9287 170.766 51.9287 172.812 51.9909 174.862C51.348 173.287 50.5797 171.742 49.6904 170.236C49.2862 169.524 48.7764 168.743 48.2106 167.943L47.3401 166.73L46.4945 165.479C45.3193 163.8 44.2375 162.224 43.5722 161.294C43.4229 161.075 43.1245 161.294 43.1929 161.559C43.5038 162.782 44.0198 164.777 44.6727 166.785C45.3347 168.603 46.1509 170.388 47.1162 172.128C49.0126 175.383 51.1266 177.708 52.0904 177.899C52.1712 179.945 52.2894 181.991 52.4261 184.037C51.7227 182.478 50.8921 180.953 49.9391 179.47C48.1484 176.68 44.7349 172.756 43.2364 171.021C43.0685 170.826 42.7887 171.021 42.8758 171.291C43.6468 173.556 45.6364 178.633 47.4458 181.433C49.4976 184.632 51.7049 186.901 52.6686 187.068C52.8489 189.114 53.0417 191.156 53.2904 193.197C52.5074 191.659 51.6064 190.156 50.5919 188.696C50.4116 188.435 50.2126 188.161 49.9702 187.882C49.9672 188.905 49.8821 189.927 49.7152 190.942C49.6406 191.43 49.5349 191.923 49.4043 192.402C51.1702 194.634 52.8365 196.122 53.6262 196.224C53.6262 196.475 53.7008 196.726 53.7319 196.977L54.5961 197.163C54.5526 196.833 54.5029 196.503 54.4593 196.173C55.1557 196.015 56.3246 194.541 57.4873 192.402C57.562 192.625 57.6303 192.839 57.7112 193.034C58.6811 195.522 60.1609 197.368 61.0625 197.656L60.9319 198.121L61.7651 198.196L61.877 197.819C62.8097 197.884 65.2532 196.768 67.8149 195.289C70.0409 193.992 73.0502 191.658 74.3932 190.667ZM61.6781 195.782C61.4406 194.649 61.0999 193.529 60.6584 192.43C60.2915 191.5 59.6946 190.305 59.0791 189.147C59.4335 188.301 59.7817 187.357 60.1236 186.389C60.1858 186.682 60.2542 186.966 60.335 187.226C61.0625 189.733 62.3309 191.653 63.189 192.007C62.6542 193.248 62.163 194.508 61.7029 195.778L61.6781 195.782Z" fill="#92E3A9"/>
<path d="M49.7587 187.608C48.882 186.464 47.8188 185.218 46.7929 184.055C46.8302 184.613 46.8551 185.241 46.8675 185.873C46.8302 186.682 46.7742 187.496 46.6375 188.24C47.0665 189.021 47.5017 189.751 47.9307 190.388C48.5525 189.324 49.1743 188.328 49.566 187.705C49.583 187.677 49.61 187.654 49.644 187.636C49.678 187.619 49.7177 187.609 49.7587 187.608Z" fill="#92E3A9"/>
<path d="M150.527 73.542C150.527 73.542 150.527 83.5812 150.185 84.5949C149.843 85.6086 137.128 87.6917 137.128 87.6917C137.128 87.6917 146.274 93.1089 160.543 92.8532C174.813 92.5974 181.279 85.3575 181.279 85.3575L173.507 83.7393L172.444 74.8114C172.444 74.8114 158.175 77.4805 150.527 73.542Z" fill="white" stroke="#263238" stroke-linecap="round" stroke-linejoin="round"/>
<path d="M138.004 86.3665L141.778 84.1717C141.778 84.1717 147.859 86.4967 158.759 86.4967C169.659 86.4967 174.925 85.2458 176.79 83.9903L178.656 82.7349L184.736 84.46C184.736 84.46 182.871 85.7155 177.605 89.0076C172.338 92.2998 148.257 91.5139 141.971 89.6354C135.685 87.7568 138.004 86.3665 138.004 86.3665Z" fill="#92E3A9" stroke="#263238" stroke-linecap="round" stroke-linejoin="round"/>
<path d="M169.049 77.6944L163.348 75.6856C159.039 75.774 154.071 75.3694 150.527 73.542C150.527 73.542 150.527 81.4469 150.29 83.9299C166.581 83.9113 169.049 77.6944 169.049 77.6944Z" fill="#263238" stroke="#263238" stroke-linecap="round" stroke-linejoin="round"/>
<path d="M140.075 52.1799C140.075 52.8821 141.486 67.4689 142.755 70.1193C145.721 76.327 155.961 83.5065 165.281 80.019C168.602 78.7775 171.686 76.7362 174.564 75.011C176.598 73.7928 180.465 72.0304 181.404 70.0914C182.343 68.1524 187.74 56.2161 187.74 56.2161C187.74 56.2161 186.334 46.2048 180.931 41.1131C175.528 36.0215 171.536 36.3702 164.255 38.4813C156.975 40.5923 139.621 49.8968 139.621 49.8968L140.075 52.1799Z" fill="white" stroke="#263238" stroke-linecap="round" stroke-linejoin="round"/>
<path d="M148.556 54.2309C150.323 52.5373 152.837 51.3688 155.65 50.9341" stroke="#263238" stroke-width="3" stroke-miterlimit="10" stroke-linecap="round"/>
<path d="M169.354 49.874C169.354 49.874 174.446 51.3016 175.988 55.2866" stroke="#263238" stroke-width="3" stroke-miterlimit="10" stroke-linecap="round"/>
<path d="M161.433 70.9751C161.459 71.1172 161.444 71.2618 161.389 71.3992C161.334 71.5366 161.24 71.6636 161.114 71.7717C160.988 71.8798 160.833 71.9664 160.658 72.0258C160.483 72.0851 160.294 72.1158 160.102 72.1158C159.91 72.1158 159.721 72.0851 159.546 72.0258C159.372 71.9664 159.216 71.8798 159.09 71.7717C158.964 71.6636 158.87 71.5366 158.815 71.3992C158.76 71.2618 158.745 71.1172 158.771 70.9751C158.771 70.3427 159.437 70.2729 160.177 70.2729C160.917 70.2729 161.433 70.3427 161.433 70.9751Z" fill="#263238" stroke="#263238" stroke-linecap="round" stroke-linejoin="round"/>
<path d="M146.554 59.0193L153.611 58.4009" stroke="#263238" stroke-linecap="round" stroke-linejoin="round"/>
<path d="M167.495 58.7549L176.554 59.9871" stroke="#263238" stroke-linecap="round" stroke-linejoin="round"/>
<path d="M171.331 56.1651C171.331 57.0254 170.771 57.7275 170.088 57.7275C169.404 57.7275 168.844 57.0254 168.844 56.1651C168.844 55.3049 169.404 54.6074 170.088 54.6074C170.771 54.6074 171.331 55.3049 171.331 56.1651Z" fill="#263238"/>
<path d="M153.412 55.8398C153.412 56.7186 152.827 57.4347 152.1 57.4347C151.372 57.4347 150.813 56.6954 150.813 55.8398C150.813 54.9842 151.403 54.2495 152.125 54.2495C152.846 54.2495 153.412 54.9377 153.412 55.8398Z" fill="#263238"/>
<path d="M157.509 63.5215C157.623 63.8581 157.846 64.1685 158.159 64.4255C158.471 64.6825 158.863 64.8782 159.3 64.9955C160.916 65.5349 163.068 66.0696 165.045 63.6563" stroke="#263238" stroke-linecap="round" stroke-linejoin="round"/>
<path d="M206.293 51.7098C206.295 51.6897 206.295 51.6695 206.293 51.6494C206.295 51.6695 206.295 51.6897 206.293 51.7098V51.7098Z" stroke="#263238" stroke-linecap="round" stroke-linejoin="round"/>
<path d="M203.246 57.7973C203.246 57.7973 204.185 57.2719 205.112 55.6909C205.754 54.4127 206.147 53.0723 206.281 51.7106C206.243 51.9431 205.951 52.8126 203.707 52.3523C201.12 51.8268 197.961 49.9064 197.961 48.5022C197.961 47.0979 198.54 36.1985 194.075 32.1577C189.611 28.1169 183.275 27.5915 179.52 29.1724C179.52 29.1724 171.53 23.9041 164.722 23.2019C157.913 22.4998 148.755 23.7274 144.29 26.7126C139.826 29.6979 137.961 30.9255 133.03 34.4501C129.884 36.6441 126.322 38.4789 122.46 39.8951C122.416 40.3779 122.545 40.8607 122.835 41.2933C123.125 41.7259 123.564 42.0926 124.108 42.355C125.371 42.9202 126.709 43.3876 128.1 43.7499C126.982 44.4332 125.8 45.0548 124.562 45.6099C123.808 45.8556 123.028 46.0531 122.23 46.2004L120.582 46.0284C120.582 46.0284 120.346 48.8183 122.448 50.0645C124.549 51.3107 129.729 51.9989 132.315 48.8369C131.966 49.3155 131.661 49.8111 131.401 50.3203L126.16 54.8539C125.381 55.5709 124.387 56.1409 123.26 56.5181C122.132 56.8953 120.902 57.0691 119.668 57.0255C119.668 57.0255 119.892 58.1972 122.155 60.3734C124.419 62.5496 129.983 64.3863 133.565 65.0559C135.169 65.4052 136.817 65.6296 138.483 65.7255C138.483 65.7255 138.297 65.2279 138.104 64.4281C139.428 64.7862 140.342 65.0233 140.342 65.0233C139.601 62.3475 139.487 59.5956 140.006 56.8906C140.156 56.0955 141.517 54.8632 142.008 54.2913C144.144 52.0241 147.126 50.2787 150.583 49.274C155.128 48.1209 159.182 48.2697 163.553 46.791C165.816 46.0237 171.791 43.7546 171.791 41.4622C171.791 41.4622 174.141 48.4836 178.133 52.701C182.125 56.9185 185.88 63.9399 185.88 63.9399L184.463 70.2545C184.463 70.2545 187.279 69.0269 195.736 66.2137C204.192 63.4005 206.772 60.2572 207.475 58.8529C207.823 58.1158 208.297 57.4156 208.886 56.7697L203.246 57.7973Z" fill="#263238" stroke="#263238" stroke-linecap="round" stroke-linejoin="round"/>
<path d="M133.024 78.1172C133.024 78.1172 133.534 60.4475 134.044 58.5503C134.554 56.6531 137.955 55.2442 137.955 55.2442C137.955 55.2442 142.711 51.687 143.899 51.3057C145.086 50.9244 145.764 51.8172 145.26 52.8309C144.757 53.8446 141.349 57.6575 141.349 57.6575L141.182 62.9956C142.923 62.0408 144.8 61.2315 146.778 60.5823C149.663 59.6942 156.291 58.4201 156.8 58.5503C157.31 58.6805 156.458 60.0755 154.761 60.9636C153.064 61.8517 148.817 62.8701 148.307 63.2514C147.797 63.6327 144.228 66.5528 144.228 66.5528C144.228 66.5528 149.824 65.0276 151.534 64.3953C153.244 63.7629 157.988 61.2194 158.162 62.6143C158.336 64.0093 154.929 65.6647 153.064 66.6784C151.198 67.692 145.08 69.8589 145.08 70.6215C145.08 71.3841 145.08 76.592 144.06 78.9914C143.041 81.3907 141.847 82.2928 139.304 83.4367C137.208 84.3259 135.052 85.133 132.844 85.8546L128.939 80.391C128.939 80.391 132.856 79.3866 133.024 78.1172Z" fill="white" stroke="#263238" stroke-linecap="round" stroke-linejoin="round"/>
<path d="M137.955 55.2446C137.955 55.2446 136.257 57.2767 136.257 58.6763C136.257 60.0759 136.593 65.2838 136.593 65.2838" stroke="#263238" stroke-linecap="round" stroke-linejoin="round"/>
<path d="M201.518 170.311L121.733 170.148V203.707H122.69C134.653 201.136 148.052 198.885 164.119 198.862C180.409 198.862 192.931 199.429 203.788 199.55L201.518 170.311Z" fill="#263238" stroke="#263238" stroke-linecap="round" stroke-linejoin="round"/>
<path d="M136.954 169.498C136.954 169.986 135.43 178.928 122.385 182.983" stroke="white" stroke-linecap="round" stroke-linejoin="round"/>
<path d="M199.752 184.419C200.254 184.547 200.77 184.667 201.3 184.782" stroke="white" stroke-linecap="round" stroke-linejoin="round"/>
<path d="M179.346 171.125C179.346 171.125 182.722 179.095 196.538 183.508" stroke="white" stroke-linecap="round" stroke-linejoin="round"/>
<path d="M157.167 190.143L156.085 176.324L155.65 174.375L161.737 174.538L162.39 187.219" stroke="white" stroke-linecap="round" stroke-linejoin="round"/>
<path d="M168.428 193.556L148.475 187.381" stroke="white" stroke-linecap="round" stroke-linejoin="round"/>
<path d="M173.694 195.183L171.462 194.495" stroke="white" stroke-linecap="round" stroke-linejoin="round"/>
<path d="M160.867 191.608V205" stroke="white" stroke-linecap="round" stroke-linejoin="round"/>
<path d="M119.998 164.945C119.998 164.945 119.78 169.497 120.862 170.962C121.944 172.427 132.607 176.486 158.691 176.486C184.774 176.486 200.648 172.422 202.606 171.288C204.565 170.153 204.776 170.148 204.776 169.172C204.776 168.195 204.347 163.806 204.347 163.806C204.347 163.806 181.963 167.87 153.256 166.247C124.549 164.624 119.563 162.992 119.563 162.992L119.998 164.945Z" fill="#92E3A9" stroke="#263238" stroke-linecap="round" stroke-linejoin="round"/>
<path d="M169.839 89.5287C165.033 90.654 159.623 90.2448 154.674 89.2823C148.699 88.1245 142.978 86.2273 136.891 85.4508C125.843 84.0558 115.714 86.7202 106.891 91.5654C96.9574 97.0232 87.4728 102.924 78.4886 109.235C76.3622 110.732 74.1051 112.49 74.0865 114.68C74.0492 118.261 79.7881 120.19 84.5695 120.386C96.9054 120.892 108.433 116.201 119.177 111.621C122.143 127.472 120.607 143.612 114.669 158.989C113.961 160.817 113.239 162.909 114.601 164.513C115.652 165.741 117.635 166.299 119.488 166.741C145.671 172.98 173.777 173.089 200.044 167.052C201.848 166.629 203.775 166.122 204.801 164.913C205.957 163.56 205.553 161.798 205.112 160.231C201.85 148.578 198.583 136.927 195.313 125.277C197.949 128.277 199.043 131.862 200.318 135.326C201.593 138.79 203.166 142.338 206.486 144.933C209.806 147.527 215.334 148.88 219.543 147.165C222.515 145.956 224.268 143.491 224.841 140.994C225.413 138.497 224.977 135.949 224.536 133.443C222.77 123.374 220.994 113.316 219.207 103.269C218.206 97.6057 216.838 91.398 211.031 87.6827C206.803 84.9811 201.027 84.1581 195.487 83.6698C190.513 83.2048 185.246 83.0188 180.757 84.6742C177.872 85.7391 175.534 87.506 172.674 88.6406C171.767 89.0007 170.818 89.298 169.839 89.5287Z" fill="white"/>
<path d="M200.318 135.316C200.473 135.739 200.635 136.166 200.803 136.594H225.015C224.903 135.534 224.722 134.479 224.542 133.432C224.268 131.901 223.999 130.371 223.734 128.843H197.713C198.725 130.966 199.595 133.127 200.318 135.316Z" fill="#92E3A9"/>
<path d="M81.0503 107.454H219.972C219.723 106.059 219.475 104.664 219.232 103.246C219.027 102.079 218.803 100.888 218.53 99.7026H92.9323C88.8908 102.21 84.9301 104.794 81.0503 107.454Z" fill="#92E3A9"/>
<path d="M114.669 158.979C113.96 160.807 113.239 162.899 114.601 164.504C115.051 165.007 115.648 165.427 116.348 165.731H203.794C204.186 165.497 204.526 165.217 204.801 164.903C205.957 163.55 205.553 161.788 205.112 160.221L204.49 157.984H115.036C114.912 158.315 114.8 158.649 114.669 158.979Z" fill="#92E3A9"/>
<path d="M172.736 88.6166C171.812 88.9937 170.842 89.305 169.839 89.5466C165.033 90.6718 159.623 90.2627 154.674 89.3001C148.699 88.1423 142.979 86.2451 136.891 85.4686C135.656 85.3139 134.411 85.2083 133.161 85.1524H128.808C120.887 85.543 113.538 87.9423 106.928 91.5832C106.133 92.0203 105.349 92.4621 104.566 92.9038H216.018C215.072 91.0796 213.594 89.4358 211.693 88.0918C209.791 86.7478 207.514 85.7374 205.025 85.1338H179.626C177.25 86.194 175.18 87.6401 172.736 88.6166Z" fill="#92E3A9"/>
<path d="M198.49 136.594C197.761 134.009 197.035 131.425 196.314 128.843H120.626C120.585 131.428 120.421 134.012 120.135 136.594H198.49Z" fill="#92E3A9"/>
<path d="M84.5695 120.376C94.4867 120.78 103.844 117.818 112.754 114.275H74.1113C74.1019 114.407 74.1019 114.538 74.1113 114.67C74.0491 118.251 79.7881 120.18 84.5695 120.376Z" fill="#92E3A9"/>
<path d="M119.631 114.275C120.035 116.846 120.303 119.432 120.47 122.022H222.534L221.172 114.275H119.631Z" fill="#92E3A9"/>
<path d="M204.838 143.411C205.335 143.946 205.886 144.451 206.486 144.922C209.806 147.517 215.334 148.87 219.543 147.154C221.515 146.308 223.048 144.989 223.895 143.411H204.838Z" fill="#92E3A9"/>
<path d="M119.102 143.411C118.613 146.012 117.992 148.596 117.237 151.163H202.575C201.85 148.577 201.124 145.993 200.399 143.411H119.102Z" fill="#92E3A9"/>
<g opacity="0.7">
<path opacity="0.7" d="M200.318 135.315C200.473 135.738 200.635 136.166 200.803 136.594H225.015C224.903 135.534 224.722 134.478 224.542 133.432C224.269 131.9 223.999 130.371 223.734 128.842H197.713C198.725 130.966 199.595 133.126 200.318 135.315Z" fill="white"/>
<path opacity="0.7" d="M81.0503 107.454H219.972C219.723 106.059 219.475 104.664 219.232 103.246C219.027 102.079 218.803 100.888 218.53 99.7026H92.9323C88.8908 102.21 84.9301 104.794 81.0503 107.454Z" fill="white"/>
<path opacity="0.7" d="M114.669 158.979C113.96 160.807 113.239 162.899 114.601 164.504C115.051 165.007 115.648 165.427 116.348 165.731H203.794C204.186 165.497 204.526 165.217 204.801 164.903C205.957 163.55 205.553 161.788 205.112 160.221L204.49 157.984H115.036C114.912 158.315 114.8 158.649 114.669 158.979Z" fill="white"/>
<path opacity="0.7" d="M172.736 88.6166C171.812 88.9937 170.842 89.305 169.839 89.5466C165.033 90.6718 159.623 90.2627 154.674 89.3001C148.699 88.1423 142.979 86.2451 136.891 85.4686C135.656 85.3139 134.411 85.2083 133.161 85.1524H128.808C120.887 85.543 113.538 87.9423 106.928 91.5832C106.133 92.0203 105.349 92.4621 104.566 92.9038H216.018C215.072 91.0796 213.594 89.4358 211.693 88.0918C209.791 86.7478 207.514 85.7374 205.025 85.1338H179.626C177.25 86.194 175.18 87.6401 172.736 88.6166Z" fill="white"/>
<path opacity="0.7" d="M198.49 136.594C197.76 134.008 197.035 131.425 196.314 128.842H120.626C120.585 131.428 120.421 134.011 120.135 136.594H198.49Z" fill="white"/>
<path opacity="0.7" d="M84.5695 120.375C94.4867 120.78 103.844 117.818 112.754 114.274H74.1113C74.1019 114.406 74.1019 114.538 74.1113 114.67C74.0491 118.25 79.7881 120.18 84.5695 120.375Z" fill="white"/>
<path opacity="0.7" d="M119.631 114.274C120.035 116.846 120.303 119.431 120.47 122.021H222.534L221.172 114.274H119.631Z" fill="white"/>
<path opacity="0.7" d="M204.838 143.411C205.335 143.946 205.886 144.451 206.486 144.922C209.806 147.517 215.334 148.87 219.543 147.154C221.515 146.308 223.048 144.989 223.895 143.411H204.838Z" fill="white"/>
<path opacity="0.7" d="M119.102 143.411C118.613 146.012 117.992 148.596 117.237 151.163H202.575C201.85 148.577 201.124 145.993 200.399 143.411H119.102Z" fill="white"/>
</g>
<path d="M119.177 111.61L125.942 106.523L120.346 116.753L119.177 111.61Z" fill="#263238" stroke="#263238" stroke-linecap="round" stroke-linejoin="round"/>
<path d="M166.5 160.854C164.158 161.888 161.737 162.819 159.25 163.643" stroke="#263238" stroke-miterlimit="10"/>
<path d="M194.013 143.723C194.013 143.723 183.68 152.446 170.274 159.067" stroke="#263238" stroke-miterlimit="10"/>
<path d="M144.185 162.323C143.42 162.546 142.649 162.788 141.872 162.983" stroke="#263238" stroke-miterlimit="10"/>
<path d="M169.802 153.679C169.802 153.679 159.853 157.567 147.455 161.333" stroke="#263238" stroke-miterlimit="10"/>
<path d="M127.596 105.403L131.32 102.851" stroke="#263238" stroke-miterlimit="10"/>
<path d="M149.128 89.6074C149.128 89.6074 162.645 94.6619 176.486 96.5032" stroke="#263238" stroke-miterlimit="10"/>
<path d="M171.368 97.689C172.421 97.8533 173.507 98.0083 174.626 98.154" stroke="#263238" stroke-miterlimit="10"/>
<path d="M154.966 93.5039C158.917 94.9738 163.064 96.1271 167.339 96.9449" stroke="#263238" stroke-miterlimit="10"/>
<path d="M169.839 89.5287C165.033 90.654 159.623 90.2448 154.674 89.2823C148.699 88.1245 142.978 86.2273 136.891 85.4508C125.843 84.0558 115.714 86.7202 106.891 91.5654C96.9574 97.0232 87.4728 102.924 78.4886 109.235C76.3622 110.732 74.1051 112.49 74.0865 114.68C74.0492 118.261 79.7881 120.19 84.5695 120.386C96.9054 120.892 108.433 116.201 119.177 111.621C122.143 127.472 120.607 143.612 114.669 158.989C113.961 160.817 113.239 162.909 114.601 164.513C115.652 165.741 117.635 166.299 119.488 166.741C145.671 172.98 173.777 173.089 200.044 167.052C201.848 166.629 203.775 166.122 204.801 164.913C205.957 163.56 205.553 161.798 205.112 160.231C201.85 148.578 198.583 136.927 195.313 125.277C197.949 128.277 199.043 131.862 200.318 135.326C201.593 138.79 203.166 142.338 206.486 144.933C209.806 147.527 215.334 148.88 219.543 147.165C222.515 145.956 224.268 143.491 224.841 140.994C225.413 138.497 224.977 135.949 224.536 133.443C222.77 123.374 220.994 113.316 219.207 103.269C218.206 97.6057 216.838 91.398 211.031 87.6827C206.803 84.9811 201.027 84.1581 195.487 83.6698C190.513 83.2048 185.246 83.0188 180.757 84.6742C177.872 85.7391 175.534 87.506 172.674 88.6406C171.767 89.0007 170.818 89.298 169.839 89.5287V89.5287Z" stroke="#263238" stroke-miterlimit="10"/>
<path d="M128.74 79.3208L136.512 89.1647L126.147 94.4331L119.724 82.3433L128.74 79.3208Z" fill="#92E3A9" stroke="#263238" stroke-linecap="round" stroke-linejoin="round"/>
<path d="M193.629 55.382L182.063 53.1322C180.551 52.8381 179.006 53.5163 178.613 54.6472L170.515 77.9311C170.121 79.062 171.028 80.2172 172.541 80.5113L184.106 82.7611C185.618 83.0552 187.163 82.3769 187.556 81.2461L195.654 57.9621C196.048 56.8313 195.141 55.6761 193.629 55.382Z" fill="#92E3A9" stroke="#263238" stroke-linecap="round" stroke-linejoin="round"/>
<path d="M194.697 58.1183C194.62 58.3358 194.458 58.5314 194.232 58.6802C194.007 58.8291 193.727 58.9246 193.429 58.9547C193.131 58.9848 192.827 58.9482 192.557 58.8494C192.286 58.7507 192.061 58.5942 191.909 58.3998C191.758 58.2053 191.686 57.9817 191.704 57.757C191.723 57.5323 191.829 57.3167 192.011 57.1374C192.193 56.958 192.442 56.823 192.726 56.7493C193.011 56.6756 193.318 56.6666 193.609 56.7233C193.804 56.7606 193.987 56.8265 194.147 56.917C194.307 57.0075 194.442 57.121 194.543 57.2507C194.644 57.3805 194.71 57.524 194.737 57.673C194.763 57.8219 194.75 57.9733 194.697 58.1183Z" fill="white" stroke="#263238" stroke-linecap="round" stroke-linejoin="round"/>
<path d="M193.758 95.9965L189.151 88.166C189.151 88.166 194.598 76.583 193.97 74.6812C193.342 72.7794 186.875 65.9394 186.254 65.3116C185.632 64.6839 182.902 63.1215 182.069 63.7446C181.236 64.3677 182.274 65.3116 183.313 66.5625C184.351 67.8133 187.286 71.2589 187.286 71.8866C187.286 72.5144 187.908 75.3322 187.908 75.3322C187.908 75.3322 182.884 70.3196 180.583 69.5384C178.283 68.7572 175.143 67.9714 173.259 67.9714C171.375 67.9714 173.047 69.5384 173.88 69.8314C174.714 70.1243 178.693 71.5565 179.11 72.0261C179.526 72.4958 185.595 78.6244 185.595 78.6244C185.595 78.6244 179.943 75.6484 178.687 75.3369C177.431 75.0253 170.312 75.8019 169.056 75.8019C167.8 75.8019 169.056 77.1968 169.677 77.1968C170.299 77.1968 177.636 77.6618 177.636 77.6618L183.493 81.419C183.493 81.419 176.797 79.6938 175.957 79.6938C175.118 79.6938 171.567 80.4843 170.088 80.4843C168.608 80.4843 169.876 81.7352 172.575 81.5771C174.176 81.4836 175.785 81.4836 177.387 81.5771L181.783 84.553C181.783 84.553 179.06 90.9745 180.111 93.0066C181.161 95.0386 187.224 98.9585 187.224 98.9585L193.758 95.9965Z" fill="white" stroke="#263238" stroke-linecap="round" stroke-linejoin="round"/>
<path d="M196.37 92.9834L183.536 98.4936L188.026 107.342L202.712 100.13L196.37 92.9834Z" fill="#92E3A9" stroke="#263238" stroke-linecap="round" stroke-linejoin="round"/>
<path d="M197.128 139.431C196.961 138.938 196.786 138.445 196.594 137.943C194.498 132.61 191.29 127.611 188.741 122.398C187.497 119.813 186.216 117.218 185.079 114.596C184.581 113.443 183.543 111.862 183.68 110.611C183.922 108.444 185.054 107.509 186.857 105.584C188.66 103.659 202.469 98.4746 202.469 98.4746C202.469 98.4746 206.2 98.3258 207.941 100.004C209.682 101.683 225.68 130.694 226.594 134.642C227.508 138.589 224.455 147.289 215.601 149.912C209.831 151.623 204.123 148.159 200.498 145.137C198.478 143.444 197.843 141.496 197.128 139.431Z" fill="white"/>
<path d="M226.6 134.642C226.575 134.534 226.538 134.408 226.488 134.266L199.535 144.189C199.825 144.526 200.15 144.846 200.505 145.146C202.556 146.858 205.28 148.713 208.301 149.685L224.051 143.896C226.376 140.58 227.116 136.851 226.6 134.642Z" fill="#92E3A9"/>
<path d="M210.322 103.641L184.388 113.182C184.637 113.684 184.892 114.168 185.078 114.577C185.955 116.6 186.906 118.604 187.876 120.622L214.463 110.857C212.915 108.067 211.466 105.556 210.322 103.641Z" fill="#92E3A9"/>
<path d="M222.677 126.105C221.52 123.85 220.19 121.343 218.834 118.8L192.036 128.653C193.36 131.08 194.666 133.512 195.767 136L222.677 126.105Z" fill="#92E3A9"/>
<g opacity="0.7">
<path opacity="0.7" d="M226.6 134.641C226.575 134.533 226.538 134.407 226.488 134.265L199.535 144.188C199.825 144.525 200.15 144.845 200.505 145.145C202.556 146.857 205.28 148.712 208.301 149.684L224.051 143.895C226.376 140.579 227.116 136.85 226.6 134.641Z" fill="white"/>
<path opacity="0.7" d="M210.322 103.641L184.388 113.182C184.637 113.684 184.892 114.168 185.078 114.577C185.955 116.6 186.906 118.604 187.876 120.622L214.463 110.857C212.915 108.067 211.466 105.556 210.322 103.641Z" fill="white"/>
<path opacity="0.7" d="M222.677 126.104C221.52 123.849 220.19 121.343 218.834 118.799L192.036 128.652C193.36 131.08 194.666 133.512 195.767 135.999L222.677 126.104Z" fill="white"/>
</g>
<path d="M197.128 139.431C196.961 138.938 196.786 138.445 196.594 137.943C194.498 132.61 191.29 127.611 188.741 122.398C187.497 119.813 186.216 117.218 185.079 114.596C184.581 113.443 183.543 111.862 183.68 110.611C183.922 108.444 185.054 107.509 186.857 105.584C188.66 103.659 202.469 98.4746 202.469 98.4746C202.469 98.4746 206.2 98.3258 207.941 100.004C209.682 101.683 225.68 130.694 226.594 134.642C227.508 138.589 224.455 147.289 215.601 149.912C209.831 151.623 204.123 148.159 200.498 145.137C198.478 143.444 197.843 141.496 197.128 139.431Z" stroke="#263238" stroke-miterlimit="10"/>
<path d="M94.2318 116.442C94.2318 116.442 125.737 100.79 127.186 98.9303C128.634 97.0704 128.429 95.8288 128.429 93.5039C128.429 91.1789 121.173 81.1025 121.173 81.1025C121.173 81.1025 118.276 79.4007 115.577 80.0191C112.879 80.6376 77.8607 97.3773 74.1301 100.167C70.3994 102.957 66.2523 111.327 71.4316 117.218C76.6109 123.11 91.123 118.925 91.123 118.925" fill="white"/>
<path d="M90.8433 91.416C87.7344 92.9319 84.781 94.4106 82.2069 95.7218L97.2102 114.954C99.3428 113.884 102.427 112.336 105.815 110.606L90.8433 91.416Z" fill="#92E3A9"/>
<path d="M73.1724 101C70.4144 103.938 68.9574 107.449 69.0066 111.039L75.8087 119.753C79.6948 120.827 84.5632 120.278 87.7529 119.688L73.1724 101Z" fill="#92E3A9"/>
<path d="M109.198 82.7114C106.711 83.8553 103.639 85.2735 100.4 86.8127L115.198 105.775C118.443 104.073 121.447 102.464 123.641 101.218L109.198 82.7114Z" fill="#92E3A9"/>
<g opacity="0.7">
<path opacity="0.7" d="M90.8433 91.4155C87.7344 92.9314 84.781 94.4101 82.2069 95.7214L97.2102 114.953C99.3428 113.884 102.427 112.336 105.815 110.606L90.8433 91.4155Z" fill="white"/>
<path opacity="0.7" d="M73.1724 101C70.4144 103.938 68.9574 107.449 69.0066 111.039L75.8087 119.753C79.6948 120.827 84.5632 120.278 87.7529 119.688L73.1724 101Z" fill="white"/>
<path opacity="0.7" d="M109.198 82.7114C106.711 83.8553 103.639 85.2735 100.4 86.8127L115.198 105.775C118.444 104.073 121.447 102.464 123.641 101.218L109.198 82.7114Z" fill="white"/>
</g>
<path d="M94.2318 116.442C94.2318 116.442 125.737 100.79 127.186 98.9303C128.634 97.0704 128.429 95.8288 128.429 93.5039C128.429 91.1789 121.173 81.1025 121.173 81.1025C121.173 81.1025 118.276 79.4007 115.577 80.0191C112.879 80.6376 77.8607 97.3773 74.1301 100.167C70.3994 102.957 66.2523 111.327 71.4316 117.218C76.6109 123.11 91.123 118.925 91.123 118.925" stroke="#263238" stroke-miterlimit="10"/>
</g>
<defs>
<filter id="filter0_d" x="5.67944" y="16.8926" width="285.274" height="196.608" filterUnits="userSpaceOnUse" color-interpolation-filters="sRGB">
<feFlood flood-opacity="0" result="BackgroundImageFix"/>
<feColorMatrix in="SourceAlpha" type="matrix" values="0 0 0 0 0 0 0 0 0 0 0 0 0 0 0 0 0 0 127 0"/>
<feOffset dy="4"/>
<feGaussianBlur stdDeviation="2"/>
<feColorMatrix type="matrix" values="0 0 0 0 0 0 0 0 0 0 0 0 0 0 0 0 0 0 0.25 0"/>
<feBlend mode="normal" in2="BackgroundImageFix" result="effect1_dropShadow"/>
<feBlend mode="normal" in="SourceGraphic" in2="effect1_dropShadow" result="shape"/>
</filter>
</defs>
</svg>
