<svg width="283" height="257" viewBox="0 0 283 257" fill="none" xmlns="http://www.w3.org/2000/svg">
<path d="M45.2139 153.926C45.2547 153.926 45.9629 151.118 45.9901 150.914C46.2761 148.808 45.6156 144.47 43.5049 143.417C43.1491 143.252 42.7638 143.167 42.3739 143.166C41.984 143.165 41.5983 143.249 41.2419 143.412C40.8855 143.575 40.5663 143.813 40.3051 144.111C40.0439 144.41 39.8466 144.762 39.7259 145.144C39.1608 146.744 39.8825 148.717 40.7268 150.058C41.7277 151.658 45.2139 153.919 45.2139 153.926Z" fill="#92E3A9"/>
<path d="M57.5039 138.573C55.1685 138.321 52.4041 141.613 51.5462 143.586C51.4781 143.754 50.6201 146.562 50.661 146.555H50.7155C50.2729 147.074 49.8031 147.636 49.306 148.254C48.3936 149.412 47.3723 150.725 46.3578 152.234C45.2433 153.843 44.2225 155.519 43.3006 157.253C42.2535 159.189 41.3784 161.219 40.686 163.318V163.395C40.686 162.693 40.686 160.707 40.6451 160.552C40.3796 158.411 38.6024 154.438 36.3283 153.996C35.943 153.933 35.5492 153.955 35.1726 154.06C34.7961 154.165 34.4453 154.351 34.1432 154.605C33.8412 154.86 33.5946 155.177 33.4197 155.537C33.2447 155.896 33.1454 156.29 33.1281 156.691C32.9919 158.39 34.1903 160.096 35.3546 161.17C36.6687 162.377 40.3251 163.557 40.6179 163.648C39.9546 165.781 39.4314 167.957 39.0518 170.162C38.8271 171.454 38.6433 172.76 38.4731 174.079C38.4731 173.469 38.4731 172.921 38.4731 172.844C38.2075 170.703 36.4304 166.723 34.1562 166.287C33.7715 166.225 33.3782 166.247 33.0021 166.351C32.6261 166.456 32.2756 166.641 31.9736 166.895C31.6717 167.148 31.425 167.465 31.2496 167.824C31.0743 168.182 30.9743 168.575 30.9561 168.976C30.8199 170.682 32.0182 172.381 33.1826 173.455C34.3469 174.529 37.4654 175.61 38.2824 175.883L38.0986 177.4C37.8194 179.822 37.5471 182.25 37.2134 184.616C37.0977 185.451 36.9479 186.266 36.8049 187.087C36.8049 186.539 36.8049 186.083 36.8049 186.013C36.5325 183.872 34.7622 179.899 32.4881 179.456C32.1027 179.394 31.7089 179.416 31.3324 179.521C30.9559 179.626 30.6051 179.812 30.303 180.066C30.001 180.321 29.7544 180.638 29.5794 180.997C29.4045 181.357 29.3052 181.75 29.2879 182.152C29.1517 183.851 30.3501 185.557 31.5144 186.631C32.6787 187.705 35.4908 188.68 36.4645 189.003C36.2942 189.839 36.124 190.674 35.9265 191.474C35.7768 192.015 35.6678 192.548 35.484 193.089C35.3001 193.629 35.1503 194.149 34.9869 194.675C34.6329 195.672 34.306 196.704 33.9111 197.673C33.6592 198.375 33.4073 198.985 33.1553 199.624C33.2847 198.796 33.5026 197.167 33.5026 197.027C33.4765 195.128 32.9796 193.267 32.0591 191.622C32.0659 191.41 32.0522 191.199 32.0182 190.99C31.9707 190.59 31.8415 190.205 31.6392 189.86C31.4369 189.515 31.1661 189.218 30.8445 188.988C30.523 188.759 30.158 188.602 29.7735 188.528C29.389 188.455 28.9938 188.466 28.6138 188.561C26.3464 189.186 24.9098 193.285 24.8008 195.44C24.8008 195.567 24.8757 196.957 24.937 197.834C24.8281 197.322 24.7191 196.83 24.5965 196.311C24.3582 195.272 24.0927 194.247 23.8067 193.145C23.6569 192.619 23.5003 192.085 23.3369 191.552C23.1735 191.018 22.976 190.463 22.7922 189.916C22.3428 188.652 21.8321 187.389 21.2874 186.139C22.1658 185.922 25.2706 185.1 26.5167 184.118C27.7627 183.135 29.07 181.527 29.0564 179.822C29.0672 179.42 28.9959 179.021 28.8471 178.65C28.6982 178.279 28.4752 177.944 28.1925 177.668C27.9098 177.392 27.5738 177.18 27.2065 177.047C26.8391 176.914 26.4486 176.862 26.0605 176.894C23.7318 177.154 21.7028 180.98 21.2942 183.1C21.2942 183.233 21.1308 184.784 21.0695 185.634C20.7359 184.883 20.3887 184.132 20.0482 183.381C19.0064 181.218 17.883 179.063 16.7799 176.908L15.7722 174.922C16.0854 174.844 19.7963 173.96 21.2193 172.851C22.4586 171.875 23.7795 170.268 23.7659 168.562C23.7766 168.16 23.7053 167.761 23.5565 167.389C23.4077 167.018 23.1848 166.683 22.9023 166.406C22.6197 166.13 22.2838 165.917 21.9165 165.783C21.5491 165.649 21.1585 165.596 20.7699 165.628C18.4345 165.887 16.4123 169.72 16.0037 171.833C16.0037 171.994 15.7722 174.227 15.7518 174.802C15.0164 173.342 14.3015 171.882 13.6478 170.415C12.7547 168.436 11.9904 166.398 11.3601 164.315C11.503 164.315 15.3841 163.374 16.8072 162.244C18.0464 161.261 19.3605 159.654 19.3469 157.948C19.3578 157.547 19.2864 157.147 19.1376 156.776C18.9887 156.405 18.7657 156.071 18.483 155.795C18.2003 155.518 17.8644 155.307 17.497 155.173C17.1296 155.04 16.7391 154.988 16.351 155.021C14.0223 155.28 12.0001 159.113 11.5848 161.226C11.5848 161.367 11.4077 163.065 11.3532 163.88H11.2239C10.637 161.769 10.2382 159.607 10.0323 157.421C9.89615 156.221 9.84168 155.063 9.80763 153.912C10.543 153.82 13.893 153.357 15.3092 152.508C16.7255 151.658 18.1281 150.219 18.2983 148.52C18.351 148.123 18.3219 147.718 18.213 147.332C18.1041 146.946 17.9177 146.589 17.666 146.282C17.4143 145.976 17.1029 145.727 16.752 145.553C16.4011 145.379 16.0186 145.282 15.6292 145.27C13.287 145.27 10.863 148.843 10.223 150.886C10.223 150.998 9.95062 152.171 9.79401 153.034C9.79401 152.522 9.79401 152.002 9.79401 151.511C9.79401 149.686 9.90976 148.001 10.0255 146.527C10.0936 145.684 10.1685 144.926 10.2502 144.217C10.9311 143.733 13.6547 141.76 14.4785 140.349C15.3024 138.938 15.9561 136.987 15.3501 135.393C15.2188 135.016 15.0119 134.671 14.7429 134.381C14.474 134.09 14.1489 133.862 13.7887 133.71C13.4286 133.557 13.0414 133.485 12.6524 133.497C12.2633 133.509 11.881 133.605 11.5303 133.779C9.31058 134.944 8.75906 139.275 9.10631 141.381C9.10631 141.571 9.92338 144.393 9.95743 144.365H9.99828C9.90976 145.067 9.82125 145.769 9.73273 146.583C9.58975 148.064 9.44676 149.742 9.40591 151.574C9.33842 153.552 9.38389 155.533 9.54208 157.506C9.70649 159.715 10.062 161.904 10.6043 164.048C10.6043 164.048 10.6043 164.104 10.6043 164.125C10.2298 163.529 9.14717 161.893 9.05184 161.774C7.69006 160.145 4.10178 157.822 1.94336 158.762C1.58852 158.929 1.27172 159.17 1.01367 159.472C0.755621 159.773 0.562118 160.127 0.445806 160.51C0.329494 160.894 0.292991 161.299 0.338679 161.698C0.384367 162.097 0.511218 162.482 0.710947 162.827C1.50759 164.329 3.4345 165.066 4.96651 165.298C6.70958 165.557 10.4136 164.462 10.6792 164.371C11.2839 166.539 12.0277 168.664 12.9057 170.731C13.4095 171.938 13.9542 173.139 14.5194 174.332C14.1857 173.827 13.8793 173.377 13.8385 173.314C12.4767 171.686 8.88843 169.362 6.73001 170.303C6.37742 170.473 6.06331 170.717 5.80795 171.02C5.55259 171.323 5.36165 171.677 5.24745 172.061C5.13325 172.445 5.09833 172.849 5.14493 173.247C5.19154 173.646 5.31863 174.03 5.51802 174.374C6.31467 175.869 8.24158 176.613 9.77358 176.845C11.3056 177.077 14.499 176.206 15.3296 175.968L16.0105 177.337C17.0727 179.52 18.1485 181.696 19.1358 183.865C19.4831 184.623 19.8167 185.388 20.1163 186.153C19.8167 185.704 19.5648 185.332 19.5171 185.276C18.1553 183.64 14.567 181.317 12.4086 182.264C12.0544 182.431 11.7382 182.674 11.4809 182.975C11.2236 183.277 11.0308 183.631 10.9151 184.014C10.7995 184.398 10.7636 184.802 10.8097 185.201C10.8559 185.6 10.9831 185.984 11.183 186.329C11.9797 187.824 13.9066 188.561 15.4386 188.8C16.9706 189.038 19.8508 188.245 20.838 187.964C21.1444 188.751 21.444 189.551 21.7028 190.33C21.873 190.871 22.0636 191.376 22.2066 191.924C22.3496 192.471 22.4926 193.005 22.6424 193.531C22.8807 194.57 23.1326 195.637 23.3233 196.648C23.4731 197.35 23.6093 198.052 23.7386 198.705C23.405 197.94 22.7105 196.458 22.6356 196.339C21.5257 194.514 18.3256 191.657 16.0514 192.254C15.6765 192.363 15.3282 192.553 15.0293 192.811C14.7304 193.068 14.4875 193.388 14.3166 193.749C14.1457 194.11 14.0505 194.504 14.0374 194.906C14.0242 195.307 14.0933 195.707 14.2402 196.079C14.8122 197.68 16.5893 198.712 18.0872 199.182C19.735 199.701 23.3778 199.224 23.834 199.182C24.0518 200.305 24.2561 201.4 24.4263 202.432C25.0459 206.026 25.4204 209.038 25.6587 211.151C25.6996 211.523 25.7336 211.853 25.7677 212.176H18.7069L20.8789 255.993H33.7068L35.8857 212.176H29.3083L29.4581 211.867C30.3569 209.922 31.6097 207.142 32.9647 203.731C33.3936 202.657 33.8294 201.499 34.272 200.305C34.7078 200.396 38.3573 201.155 40.0051 200.761C41.5303 200.41 43.4095 199.519 44.0904 197.954C44.2623 197.594 44.3589 197.2 44.3739 196.799C44.3889 196.398 44.322 195.999 44.1776 195.626C44.0331 195.253 43.8143 194.916 43.5354 194.636C43.2565 194.356 42.9236 194.14 42.5584 194.001C40.3319 193.229 36.9411 195.834 35.695 197.567C35.6202 197.673 34.9461 198.88 34.5307 199.673C34.7078 199.182 34.8848 198.712 35.0618 198.206C35.4159 197.209 35.7427 196.199 36.0968 195.118C36.2466 194.591 36.4032 194.058 36.5598 193.517C36.7164 192.977 36.8389 192.408 36.9819 191.846C37.2815 190.534 37.5266 189.193 37.7445 187.838C38.5888 188.154 41.6188 189.242 43.1916 189.13C44.7645 189.017 46.7118 188.428 47.6106 187.024C47.835 186.695 47.9895 186.321 48.0642 185.927C48.1389 185.532 48.1319 185.126 48.0439 184.734C47.9559 184.343 47.7887 183.975 47.5533 183.654C47.3179 183.334 47.0196 183.069 46.6778 182.875C44.5943 181.766 40.8562 183.809 39.3719 185.332C39.2833 185.423 38.3369 186.645 37.8262 187.319C37.9556 186.504 38.0782 185.69 38.1803 184.855C38.4663 182.461 38.691 180.025 38.9157 177.596L39.1403 175.371C39.4399 175.483 43.0146 176.852 44.7713 176.726C46.3305 176.613 48.2847 176.024 49.1903 174.62C49.4146 174.291 49.5692 173.917 49.6439 173.523C49.7185 173.128 49.7116 172.722 49.6236 172.331C49.5355 171.939 49.3683 171.571 49.1329 171.251C48.8975 170.93 48.5992 170.665 48.2575 170.471C46.1739 169.362 42.4359 171.405 40.9515 172.928C40.8426 173.047 39.4808 174.795 39.154 175.259C39.3242 173.63 39.508 172.001 39.7463 170.408C40.0664 168.251 40.5213 166.117 41.1081 164.02C41.2443 164.076 44.9688 165.522 46.7663 165.424C48.3255 165.312 50.2797 164.722 51.1853 163.318C51.4096 162.989 51.5642 162.616 51.6389 162.221C51.7135 161.827 51.7066 161.42 51.6186 161.029C51.5305 160.637 51.3633 160.269 51.1279 159.949C50.8925 159.628 50.5942 159.363 50.2525 159.169C48.1689 158.06 44.4309 160.103 42.9465 161.626C42.8512 161.732 41.8162 163.065 41.3328 163.732L41.2171 163.669C41.8559 161.575 42.6787 159.544 43.6751 157.604C44.2062 156.523 44.7781 155.498 45.3501 154.571C46.031 154.915 49.0745 156.446 50.7087 156.509C52.3428 156.572 54.2833 156.214 55.3319 154.894C55.5852 154.593 55.7746 154.24 55.8882 153.858C56.0017 153.477 56.0369 153.075 55.9914 152.678C55.9459 152.282 55.8208 151.9 55.624 151.556C55.4272 151.213 55.1631 150.915 54.8485 150.682C52.8943 149.342 48.9588 150.956 47.3587 152.297C47.2702 152.374 46.4395 153.217 45.8471 153.848C46.1127 153.42 46.3782 152.971 46.6437 152.564C47.6242 151.04 48.6115 149.707 49.4967 148.534C50.0073 147.875 50.4772 147.285 50.9265 146.737C51.7504 146.737 55.0732 146.618 56.5235 145.916C57.9738 145.214 59.5602 143.951 59.9279 142.28C60.0518 141.87 60.0847 141.437 60.0243 141.012C59.9639 140.588 59.8117 140.182 59.579 139.827C59.3463 139.471 59.039 139.173 58.6798 138.957C58.3207 138.74 57.9188 138.609 57.5039 138.573ZM31.6846 203.155C30.2752 206.497 28.961 209.227 28.0418 211.123C27.858 211.502 27.6878 211.825 27.5312 212.155H27.3473C27.2997 211.782 27.252 211.382 27.1907 210.926C26.9048 208.82 26.4554 205.76 25.7609 202.151C25.543 201.007 25.2911 199.793 25.0187 198.543C26.1158 198.09 27.1866 197.572 28.2257 196.992C29.4241 198.333 32.5017 199.898 32.8966 200.102C32.5085 201.148 32.1136 202.172 31.6846 203.155Z" fill="#92E3A9"/>
<path d="M3.57065 152.992C5.25244 153.75 9.37182 153.652 9.37863 153.652C9.38544 153.652 8.49347 150.844 8.41177 150.703C7.50619 148.759 4.65326 145.537 2.32462 145.867C1.94101 145.932 1.57501 146.08 1.25027 146.3C0.925528 146.521 0.649291 146.809 0.439425 147.146C0.22956 147.484 0.0907392 147.863 0.0319448 148.259C-0.0268497 148.656 -0.00430964 149.06 0.098108 149.447C0.486215 151.11 2.1544 152.346 3.57065 152.992Z" fill="#92E3A9"/>
<path opacity="0.3" d="M3.57065 152.992C5.25244 153.75 9.37182 153.652 9.37863 153.652C9.38544 153.652 8.49347 150.844 8.41177 150.703C7.50619 148.759 4.65326 145.537 2.32462 145.867C1.94101 145.932 1.57501 146.08 1.25027 146.3C0.925528 146.521 0.649291 146.809 0.439425 147.146C0.22956 147.484 0.0907392 147.863 0.0319448 148.259C-0.0268497 148.656 -0.00430964 149.06 0.098108 149.447C0.486215 151.11 2.1544 152.346 3.57065 152.992Z" fill="white"/>
<path opacity="0.3" d="M45.2139 153.926C45.2547 153.926 45.9629 151.118 45.9901 150.914C46.2761 148.808 45.6156 144.47 43.5049 143.417C43.1491 143.252 42.7638 143.167 42.3739 143.166C41.984 143.165 41.5983 143.249 41.2419 143.412C40.8855 143.575 40.5663 143.813 40.3051 144.111C40.0439 144.41 39.8466 144.762 39.7259 145.144C39.1608 146.744 39.8825 148.717 40.7268 150.058C41.7277 151.658 45.2139 153.919 45.2139 153.926Z" fill="white"/>
<path opacity="0.3" d="M10.7064 164.357C11.3111 166.525 12.0549 168.65 12.9329 170.717C13.4368 171.924 13.9815 173.125 14.5466 174.318C14.213 173.813 13.9066 173.363 13.8657 173.3C12.504 171.672 8.91566 169.348 6.75724 170.289C6.40045 170.456 6.08189 170.699 5.82239 171.001C5.56289 171.304 5.3683 171.66 5.25133 172.046C5.13436 172.431 5.09766 172.838 5.14362 173.239C5.18957 173.641 5.31716 174.027 5.51803 174.374C6.31467 175.869 8.24158 176.613 9.77359 176.845C11.3056 177.077 14.499 176.206 15.3296 175.968L16.0105 177.337C17.0727 179.52 18.1485 181.696 19.1358 183.865C19.4831 184.623 19.8167 185.388 20.1163 186.153C19.8167 185.704 19.5648 185.332 19.5171 185.276C18.1553 183.64 14.567 181.317 12.4086 182.264C12.0544 182.431 11.7382 182.674 11.4809 182.975C11.2236 183.277 11.0308 183.631 10.9151 184.014C10.7995 184.398 10.7636 184.802 10.8097 185.201C10.8559 185.6 10.9831 185.984 11.183 186.329C11.9797 187.824 13.9066 188.561 15.4386 188.8C16.9706 189.038 19.8508 188.245 20.838 187.964C21.1444 188.751 21.444 189.551 21.7028 190.33C21.873 190.871 22.0636 191.376 22.2066 191.924C22.3496 192.471 22.4926 193.005 22.6424 193.531C22.8807 194.57 23.1326 195.637 23.3233 196.648C23.4731 197.35 23.6093 198.052 23.7386 198.705C23.405 197.94 22.7105 196.458 22.6356 196.339C21.5257 194.514 18.3256 191.657 16.0514 192.254C15.6765 192.363 15.3282 192.553 15.0293 192.811C14.7304 193.068 14.4875 193.388 14.3166 193.749C14.1457 194.11 14.0505 194.504 14.0374 194.906C14.0242 195.307 14.0933 195.707 14.2402 196.079C14.8122 197.68 16.5893 198.712 18.0872 199.182C19.735 199.701 23.3778 199.224 23.834 199.182C24.0518 200.305 24.2561 201.4 24.4263 202.432C25.0459 206.026 25.4204 209.038 25.6587 211.151C25.6996 211.523 25.7336 211.853 25.7677 212.176H18.7069L20.8789 255.993H33.7069L35.8857 212.176H29.3083L29.4581 211.867C30.3569 209.922 31.6097 207.142 32.9647 203.731C33.3936 202.657 33.8294 201.499 34.272 200.305C34.7078 200.396 38.3573 201.155 40.0051 200.761C41.5303 200.41 43.4095 199.519 44.0904 197.954C44.2623 197.594 44.3589 197.2 44.3739 196.799C44.3889 196.398 44.322 195.999 44.1776 195.626C44.0331 195.253 43.8143 194.916 43.5354 194.636C43.2565 194.356 42.9236 194.14 42.5584 194.001C40.3319 193.229 36.9411 195.834 35.6951 197.567C35.6202 197.673 34.9461 198.88 34.5307 199.673C34.7078 199.182 34.8848 198.712 35.0618 198.206C35.4159 197.209 35.7427 196.199 36.0968 195.118C36.2466 194.591 36.4032 194.058 36.5598 193.517C36.7164 192.977 36.8389 192.408 36.9819 191.846C37.2815 190.534 37.5266 189.193 37.7445 187.838C38.5888 188.154 41.6188 189.242 43.1916 189.13C44.7645 189.017 46.7118 188.428 47.6106 187.024C47.835 186.695 47.9895 186.321 48.0642 185.927C48.1389 185.532 48.1319 185.126 48.0439 184.734C47.9559 184.343 47.7887 183.975 47.5533 183.654C47.3179 183.334 47.0196 183.069 46.6778 182.875C44.5943 181.766 40.8562 183.809 39.3719 185.332C39.2833 185.423 38.3369 186.645 37.8262 187.319C37.9556 186.504 38.0782 185.69 38.1803 184.855C38.4663 182.461 38.691 180.025 38.9157 177.596L39.1404 175.371C39.4399 175.483 43.0146 176.852 44.7713 176.726C46.3305 176.613 48.2847 176.024 49.1903 174.62C49.4146 174.291 49.5692 173.917 49.6439 173.523C49.7185 173.128 49.7116 172.722 49.6236 172.331C49.5355 171.939 49.3684 171.571 49.1329 171.251C48.8975 170.93 48.5992 170.665 48.2575 170.471C46.1739 169.362 42.4359 171.405 40.9515 172.928C40.8426 173.047 39.4808 174.795 39.154 175.259C39.3242 173.63 39.508 172.001 39.7463 170.408C40.0664 168.251 40.5213 166.117 41.1081 164.02C41.2443 164.076 44.9688 165.522 46.7663 165.424C48.3256 165.312 50.2797 164.722 51.1853 163.318C51.4096 162.989 51.5642 162.616 51.6389 162.221C51.7135 161.827 51.7066 161.42 51.6186 161.029C51.5305 160.637 51.3634 160.269 51.1279 159.949C50.8925 159.628 50.5942 159.363 50.2525 159.169C48.1689 158.06 44.4309 160.103 42.9465 161.626C42.8512 161.732 41.8162 163.065 41.3328 163.732L41.2171 163.669C41.856 161.575 42.6787 159.544 43.6751 157.604C44.2062 156.523 44.7781 155.498 45.3501 154.571C46.031 154.915 49.0745 156.446 50.7087 156.509C52.3428 156.572 54.2833 156.214 55.3319 154.894C55.5852 154.593 55.7746 154.24 55.8882 153.858C56.0017 153.477 56.0369 153.075 55.9914 152.678C55.9459 152.282 55.8208 151.9 55.624 151.556C55.4272 151.213 55.1631 150.915 54.8485 150.682C52.8943 149.342 48.9588 150.956 47.3587 152.297C47.2702 152.374 46.4395 153.217 45.8471 153.848C46.1127 153.42 46.3782 152.971 46.6438 152.564C47.6242 151.04 48.6115 149.707 49.4967 148.534C50.0073 147.875 50.4772 147.285 50.9265 146.737C51.7504 146.737 55.0732 146.618 56.5235 145.916C57.9738 145.214 59.5602 143.951 59.9279 142.28C60.0191 141.891 60.0301 141.486 59.9603 141.092C59.8905 140.699 59.7414 140.324 59.5226 139.994C59.3039 139.663 59.0203 139.383 58.6902 139.172C58.36 138.962 57.9907 138.824 57.6061 138.77C55.2706 138.517 52.5062 141.81 51.6483 143.782C51.5802 143.951 50.7223 146.758 50.7631 146.751H50.8176C50.375 147.271 49.9052 147.832 49.4082 148.45C48.4958 149.608 47.4744 150.921 46.4599 152.43C45.3454 154.04 44.3246 155.716 43.4027 157.45C42.3557 159.386 41.4806 161.416 40.7881 163.515V163.592C40.7881 162.89 40.7881 160.903 40.7472 160.749C40.4817 158.608 38.7046 154.635 36.4304 154.192C36.0451 154.13 35.6513 154.152 35.2748 154.257C34.8982 154.362 34.5475 154.548 34.2454 154.802C33.9433 155.056 33.6967 155.374 33.5218 155.733C33.3469 156.093 33.2475 156.486 33.2302 156.888C33.0941 158.587 34.2924 160.293 35.4567 161.367C36.7709 162.574 40.4272 163.753 40.72 163.845C40.0303 165.911 39.4731 168.021 39.0518 170.162C38.8271 171.454 38.6433 172.76 38.4731 174.079C38.4731 173.469 38.4731 172.921 38.4731 172.844C38.2075 170.703 36.4304 166.723 34.1562 166.287C33.7715 166.225 33.3782 166.247 33.0021 166.351C32.6261 166.456 32.2756 166.641 31.9736 166.895C31.6717 167.148 31.425 167.465 31.2496 167.824C31.0743 168.182 30.9743 168.575 30.9561 168.976C30.8199 170.682 32.0182 172.381 33.1826 173.455C34.3469 174.529 37.4654 175.61 38.2824 175.883L38.0986 177.4C37.8194 179.822 37.5471 182.25 37.2134 184.616C37.0977 185.451 36.9479 186.266 36.8049 187.087C36.8049 186.539 36.8049 186.083 36.8049 186.013C36.5325 183.872 34.7622 179.899 32.4881 179.456C32.1027 179.394 31.7089 179.416 31.3324 179.521C30.9559 179.626 30.6051 179.812 30.303 180.066C30.001 180.321 29.7544 180.638 29.5795 180.997C29.4045 181.357 29.3052 181.75 29.2879 182.152C29.1517 183.851 30.3501 185.557 31.5144 186.631C32.6787 187.705 35.4908 188.68 36.4645 189.003C36.2942 189.839 36.124 190.674 35.9266 191.474C35.7768 192.015 35.6678 192.548 35.484 193.089C35.3001 193.629 35.1503 194.149 34.9869 194.675C34.6329 195.672 34.306 196.704 33.9111 197.673C33.6592 198.375 33.4073 198.985 33.1553 199.624C33.2847 198.796 33.5026 197.167 33.5026 197.027C33.4765 195.128 32.9796 193.267 32.0591 191.622C32.0659 191.41 32.0522 191.199 32.0182 190.99C31.9707 190.59 31.8415 190.205 31.6392 189.86C31.4369 189.515 31.1661 189.218 30.8445 188.988C30.523 188.759 30.158 188.602 29.7735 188.528C29.389 188.455 28.9938 188.466 28.6138 188.561C26.3464 189.186 24.9098 193.285 24.8008 195.44C24.8008 195.567 24.8757 196.957 24.937 197.834C24.8281 197.322 24.7191 196.83 24.5965 196.311C24.3582 195.272 24.0927 194.247 23.8067 193.145C23.6569 192.619 23.5003 192.085 23.3369 191.552C23.1735 191.018 22.976 190.463 22.7922 189.916C22.3428 188.652 21.8321 187.389 21.2874 186.139C22.1658 185.922 25.2706 185.1 26.5167 184.118C27.7627 183.135 29.07 181.527 29.0564 179.822C29.0672 179.42 28.9959 179.021 28.8471 178.65C28.6982 178.279 28.4752 177.944 28.1925 177.668C27.9098 177.392 27.5739 177.18 27.2065 177.047C26.8391 176.914 26.4486 176.862 26.0605 176.894C23.7318 177.154 21.7028 180.98 21.2942 183.1C21.2942 183.233 21.1308 184.784 21.0695 185.634C20.7359 184.883 20.3887 184.132 20.0482 183.381C19.0064 181.218 17.883 179.063 16.7799 176.908L15.7722 174.922C16.0854 174.844 19.7963 173.96 21.2193 172.851C22.4586 171.875 23.7795 170.268 23.7659 168.562C23.7766 168.16 23.7053 167.761 23.5565 167.389C23.4077 167.018 23.1848 166.683 22.9023 166.406C22.6197 166.13 22.2838 165.917 21.9165 165.783C21.5491 165.649 21.1585 165.596 20.7699 165.628C18.4345 165.887 16.4123 169.72 16.0037 171.833C16.0037 171.994 15.7722 174.227 15.7518 174.802C15.0164 173.342 14.3015 171.882 13.6478 170.415C12.7547 168.436 11.9904 166.398 11.3601 164.315C11.503 164.315 15.3841 163.374 16.8072 162.244C18.0464 161.261 19.3605 159.654 19.3469 157.948C19.3578 157.547 19.2864 157.147 19.1376 156.776C18.9887 156.405 18.7657 156.071 18.483 155.795C18.2003 155.518 17.8644 155.307 17.497 155.173C17.1296 155.04 16.7391 154.988 16.351 155.021C14.0223 155.28 12.0001 159.113 11.5848 161.226C11.5848 161.367 11.4077 163.065 11.3532 163.88H11.2239C10.637 161.769 10.2382 159.607 10.0323 157.421C9.89615 156.221 9.84168 155.063 9.80763 153.912C10.543 153.82 13.893 153.357 15.3092 152.508C16.7255 151.658 18.1281 150.219 18.2983 148.52C18.351 148.123 18.3219 147.718 18.213 147.332C18.1041 146.946 17.9177 146.589 17.666 146.282C17.4143 145.976 17.1029 145.727 16.752 145.553C16.4011 145.379 16.0186 145.282 15.6292 145.27C13.287 145.27 10.863 148.843 10.223 150.886C10.223 150.998 9.95062 152.171 9.79401 153.034C9.79401 152.522 9.79401 152.002 9.79401 151.511C9.79401 149.686 9.90977 148.001 10.0255 146.527C10.0936 145.684 10.1685 144.926 10.2502 144.217C10.9311 143.733 13.6547 141.76 14.4785 140.349C15.3024 138.938 15.9561 136.987 15.3501 135.393C15.2188 135.016 15.0119 134.671 14.7429 134.381C14.474 134.09 14.1489 133.862 13.7887 133.71C13.4286 133.557 13.0414 133.485 12.6524 133.497C12.2633 133.509 11.881 133.605 11.5303 133.779C9.31058 134.944 8.75906 139.275 9.10631 141.381C9.10631 141.571 9.92338 144.393 9.95743 144.365H9.99828C9.90976 145.067 9.82125 145.769 9.73273 146.583C9.58975 148.064 9.44676 149.742 9.40591 151.574C9.33842 153.552 9.38389 155.533 9.54208 157.506C9.70649 159.715 10.062 161.904 10.6043 164.048C10.6043 164.048 10.6043 164.104 10.6043 164.125C10.2298 163.529 9.14717 161.893 9.05184 161.774C7.69006 160.145 4.10178 157.822 1.94336 158.762C1.58852 158.929 1.27172 159.17 1.01367 159.472C0.755622 159.773 0.562118 160.127 0.445806 160.51C0.329494 160.894 0.292991 161.299 0.338679 161.698C0.384367 162.097 0.511218 162.482 0.710947 162.827C1.50759 164.329 3.43451 165.066 4.96651 165.298C6.73682 165.543 10.4136 164.448 10.7064 164.357ZM28.2529 196.978C29.4513 198.319 32.5289 199.884 32.9238 200.088C32.5085 201.148 32.0931 202.194 31.6846 203.141C30.2752 206.483 28.9611 209.213 28.0418 211.109C27.858 211.488 27.6878 211.811 27.5312 212.14H27.3473C27.2997 211.768 27.252 211.368 27.1907 210.912C26.9048 208.806 26.4554 205.745 25.7609 202.137C25.543 200.993 25.2911 199.779 25.0187 198.529C26.1251 198.077 27.205 197.559 28.2529 196.978Z" fill="white"/>
<path d="M46.5689 94.4897H257.1C258.989 94.4897 260.8 95.2633 262.136 96.6404C263.472 98.0174 264.222 99.885 264.222 101.832V244.909H39.4468V101.832C39.4468 99.885 40.1971 98.0174 41.5328 96.6404C42.8685 95.2633 44.68 94.4897 46.5689 94.4897V94.4897Z" stroke="#263238" stroke-linecap="round" stroke-linejoin="round"/>
<path d="M255.098 106.241H48.5638V226.574H255.098V106.241Z" stroke="#263238" stroke-linecap="round" stroke-linejoin="round"/>
<path d="M229.585 237.665H75.1118V245.513H229.585V237.665Z" fill="#263238" stroke="#263238" stroke-linecap="round" stroke-linejoin="round"/>
<path d="M229.585 241.441H75.1118V245.512H229.585V241.441Z" fill="white" stroke="#263238" stroke-linecap="round" stroke-linejoin="round"/>
<path d="M21.267 250.188C21.267 250.188 23.8067 253.389 31.419 256H273.278C273.278 256 278.916 254.547 281.448 250.483L21.267 250.188Z" fill="#263238" stroke="#263238" stroke-linecap="round" stroke-linejoin="round"/>
<path d="M280.713 244.439H22.0432C21.3325 244.439 20.7563 245.033 20.7563 245.766V249.219C20.7563 249.952 21.3325 250.546 22.0432 250.546H280.713C281.424 250.546 282 249.952 282 249.219V245.766C282 245.033 281.424 244.439 280.713 244.439Z" fill="white" stroke="#263238" stroke-linecap="round" stroke-linejoin="round"/>
<path d="M153.755 99.0386C153.755 98.6357 153.639 98.2419 153.421 97.9069C153.204 97.572 152.895 97.3111 152.534 97.1572C152.173 97.0033 151.775 96.9634 151.392 97.0426C151.009 97.1217 150.657 97.3163 150.381 97.6017C150.105 97.8871 149.918 98.2505 149.843 98.6458C149.767 99.0412 149.807 99.4507 149.958 99.8226C150.108 100.194 150.362 100.512 150.688 100.735C151.014 100.958 151.396 101.076 151.787 101.074C152.046 101.074 152.302 101.022 152.541 100.919C152.781 100.817 152.998 100.667 153.181 100.478C153.363 100.289 153.508 100.064 153.607 99.8172C153.705 99.5702 153.755 99.3057 153.755 99.0386Z" fill="white" stroke="#263238" stroke-linecap="round" stroke-linejoin="round"/>
<path d="M41.5643 136.819C41.4156 136.819 41.2728 136.759 41.1671 136.651C41.0613 136.543 41.0009 136.397 40.9991 136.243V119.396C41.0009 119.243 41.0613 119.096 41.1671 118.988C41.2728 118.881 41.4156 118.82 41.5643 118.82C41.713 118.82 41.8557 118.881 41.9615 118.988C42.0673 119.096 42.1276 119.243 42.1294 119.396V136.243C42.1276 136.397 42.0673 136.543 41.9615 136.651C41.8557 136.759 41.713 136.819 41.5643 136.819Z" fill="#263238" stroke="white" stroke-width="0.691688" stroke-miterlimit="10"/>
<path d="M199.013 106.241V226.532" stroke="#263238" stroke-linecap="round" stroke-linejoin="round"/>
<path d="M201.907 106.241V226.532" stroke="#263238" stroke-linecap="round" stroke-linejoin="round"/>
<path d="M48.6797 218.585H199.013" stroke="#263238" stroke-linecap="round" stroke-linejoin="round"/>
<path d="M55.3047 203.604H106.154" stroke="#263238" stroke-linecap="round" stroke-linejoin="round"/>
<path d="M55.3047 198.614H106.154" stroke="#263238" stroke-linecap="round" stroke-linejoin="round"/>
<path d="M55.3047 193.623H106.154" stroke="#263238" stroke-linecap="round" stroke-linejoin="round"/>
<path d="M55.3047 188.631H106.154" stroke="#263238" stroke-linecap="round" stroke-linejoin="round"/>
<path d="M55.3047 183.634H106.154" stroke="#263238" stroke-linecap="round" stroke-linejoin="round"/>
<path d="M55.3047 169.075H106.154" stroke="#263238" stroke-linecap="round" stroke-linejoin="round"/>
<path d="M55.3047 164.084H106.154" stroke="#263238" stroke-linecap="round" stroke-linejoin="round"/>
<path d="M55.3047 159.092H106.154" stroke="#263238" stroke-linecap="round" stroke-linejoin="round"/>
<path d="M55.3047 154.102H106.154" stroke="#263238" stroke-linecap="round" stroke-linejoin="round"/>
<path d="M55.3047 149.104H106.154" stroke="#263238" stroke-linecap="round" stroke-linejoin="round"/>
<path d="M229.803 117.641C229.622 117.641 229.449 117.715 229.322 117.847C229.194 117.978 229.122 118.157 229.122 118.343L229.081 119.256H218.092L217.445 135.141H238.552L239.036 123.102L239.199 119.256L239.267 117.669L229.803 117.641Z" fill="#92E3A9" stroke="#263238" stroke-linecap="round" stroke-linejoin="round"/>
<path d="M238.552 135.113L238.457 120.336H218.173L218.337 134.938L238.552 135.113Z" fill="white" stroke="#263238" stroke-linecap="round" stroke-linejoin="round"/>
<path d="M238.552 135.113L237.626 120.336H217.343L217.506 134.938L238.552 135.113Z" fill="white" stroke="#263238" stroke-linecap="round" stroke-linejoin="round"/>
<path d="M217.445 135.113L214.626 119.88H235.863L238.552 135.113H217.445Z" fill="#92E3A9" stroke="#263238" stroke-linecap="round" stroke-linejoin="round"/>
<path d="M229.803 144.485C229.628 144.485 229.46 144.554 229.333 144.678C229.206 144.802 229.131 144.972 229.122 145.152L229.081 146.071H218.092L217.445 161.957H238.552L239.036 149.911L239.199 146.071L239.267 144.485H229.803Z" fill="#92E3A9" stroke="#263238" stroke-linecap="round" stroke-linejoin="round"/>
<path d="M238.552 161.957L238.457 147.18H218.173L218.337 161.774L238.552 161.957Z" fill="white" stroke="#263238" stroke-linecap="round" stroke-linejoin="round"/>
<path d="M238.552 161.957L237.626 147.18H217.343L217.506 161.774L238.552 161.957Z" fill="white" stroke="#263238" stroke-linecap="round" stroke-linejoin="round"/>
<path d="M217.445 161.956L214.626 146.716H235.863L238.552 161.956H217.445Z" fill="#92E3A9" stroke="#263238" stroke-linecap="round" stroke-linejoin="round"/>
<path d="M229.803 171.321C229.622 171.321 229.449 171.395 229.322 171.526C229.194 171.658 229.122 171.837 229.122 172.023L229.081 172.935H218.092L217.445 188.821H238.552L239.036 176.782L239.199 172.935L239.267 171.349L229.803 171.321Z" fill="#92E3A9" stroke="#263238" stroke-linecap="round" stroke-linejoin="round"/>
<path d="M238.552 188.793L238.457 174.017H218.173L218.337 188.618L238.552 188.793Z" fill="white" stroke="#263238" stroke-linecap="round" stroke-linejoin="round"/>
<path d="M238.552 188.793L237.626 174.017H217.343L217.506 188.618L238.552 188.793Z" fill="white" stroke="#263238" stroke-linecap="round" stroke-linejoin="round"/>
<path d="M217.445 188.793L214.626 173.553H235.863L238.552 188.793H217.445Z" fill="#92E3A9" stroke="#263238" stroke-linecap="round" stroke-linejoin="round"/>
<path d="M229.803 198.165C229.628 198.164 229.46 198.233 229.333 198.358C229.206 198.482 229.131 198.651 229.122 198.831L229.081 199.751H218.092L217.445 215.637H238.552L239.036 203.591L239.199 199.751L239.267 198.165H229.803Z" fill="#92E3A9" stroke="#263238" stroke-linecap="round" stroke-linejoin="round"/>
<path d="M238.552 215.637L238.457 200.86H218.173L218.337 215.454L238.552 215.637Z" fill="white" stroke="#263238" stroke-linecap="round" stroke-linejoin="round"/>
<path d="M238.552 215.637L237.626 200.86H217.343L217.506 215.454L238.552 215.637Z" fill="white" stroke="#263238" stroke-linecap="round" stroke-linejoin="round"/>
<path d="M217.445 215.637L214.626 200.397H235.863L238.552 215.637H217.445Z" fill="#92E3A9" stroke="#263238" stroke-linecap="round" stroke-linejoin="round"/>
<path d="M171.846 241.308C172.772 242.684 173.275 244.315 173.289 245.99C173.153 248.405 178.941 251.037 180.527 250.04C182.114 249.043 182.386 246.348 181.208 244.642C180.11 243.175 178.937 241.769 177.695 240.43C177.347 240.002 177.347 239.651 176.244 239.651C175.141 239.651 172.261 239.602 171.846 241.308Z" fill="#263238" stroke="#263238" stroke-linecap="round" stroke-linejoin="round"/>
<path d="M181.521 245.196C181.546 245.798 181.489 246.401 181.351 246.986C181.004 248.264 180.67 248.334 180.67 248.334L180.05 247.337L178.743 247.695L178.675 248.973C177.929 249.015 177.182 248.92 176.469 248.692C175.706 248.334 174.195 247.485 173.916 245.779C173.619 244.525 173.107 243.336 172.404 242.269C173.01 243.408 173.318 244.69 173.296 245.99C173.16 248.404 178.947 251.037 180.534 250.04C181.95 249.148 182.311 246.881 181.521 245.196Z" fill="white" stroke="#263238" stroke-linecap="round" stroke-linejoin="round"/>
<path d="M157.309 239.532C156.036 240.673 154.651 241.673 153.176 242.515C150.976 243.722 148.409 243.217 148.083 244.361C147.756 245.505 149.526 246.558 153.53 247.127C157.533 247.696 158.214 246.699 159.937 246.06C161.66 245.421 164.703 245.92 165.384 245.421C166.065 244.923 165.452 243.006 165.18 241.209C164.907 239.412 164.764 238.942 164.764 238.942C163.566 239.539 162.223 239.761 160.904 239.581C159.712 239.406 158.504 239.39 157.309 239.532Z" fill="#263238" stroke="#263238" stroke-linecap="round" stroke-linejoin="round"/>
<path d="M159.93 246.06C161.653 245.421 164.696 245.919 165.377 245.421C165.84 245.091 165.711 244.108 165.493 242.964C164.792 243.433 164.034 243.806 163.239 244.073C161.396 244.515 159.577 245.061 157.792 245.709C155.761 246.429 153.536 246.301 151.596 245.351C149.873 244.649 150.561 244.712 150.765 244.003C150.804 243.886 150.816 243.761 150.798 243.639C150.78 243.517 150.734 243.401 150.663 243.301C149.356 243.547 148.294 243.624 148.083 244.333C147.735 245.463 149.526 246.53 153.53 247.099C157.533 247.667 158.207 246.677 159.93 246.06Z" fill="white" stroke="#263238" stroke-linecap="round" stroke-linejoin="round"/>
<path d="M153.387 168.442C153.387 168.442 152.903 173.202 152.903 183.64C152.879 191.569 153.316 199.492 154.211 207.367C154.762 211.698 154.892 211.768 154.966 212.337C155.041 212.906 157.588 229.023 157.588 230.02V231.368C157.588 231.368 156.226 232.771 156.689 234.07C157.152 235.369 158.003 237.973 157.792 238.043C157.581 238.114 156.832 238.472 156.832 239.11V239.749C157.73 240.777 158.945 241.454 160.271 241.666C162.681 242.164 163.443 242.522 164.063 241.595C164.852 240.51 165.436 239.281 165.786 237.973C166.058 236.625 166.405 235.987 165.575 234.639C164.744 233.291 164.472 232.715 164.472 232.006C164.472 231.297 165.438 219.511 164.819 215.461C164.199 211.41 163.648 208.771 163.648 206.665C163.648 204.559 164.267 186.209 164.267 186.209C164.267 186.209 167.781 208.862 168.196 213.762C168.611 218.662 169.919 231.094 169.776 231.873C169.633 232.652 168.605 233.86 169.095 235.137C169.601 236.242 170.222 237.287 170.947 238.254C170.801 238.38 170.701 238.554 170.664 238.747C170.627 238.94 170.655 239.14 170.743 239.314C171.022 240.016 171.573 241.23 171.846 241.308C172.118 241.385 177.701 240.451 177.701 240.451C177.701 240.451 179.696 236.899 179.063 235.053C178.43 233.207 177.824 232.357 177.824 232.147C178.165 230.244 178.392 228.322 178.505 226.391C178.573 223.835 176.305 198.627 176.305 198.627C176.305 198.627 175.339 175.827 175.339 175.617C175.339 175.406 175.134 171.777 175.134 171.777C175.134 171.777 167.828 176.754 161.564 174.62C155.3 172.486 153.387 168.442 153.387 168.442Z" fill="#92E3A9" stroke="#263238" stroke-linecap="round" stroke-linejoin="round"/>
<path d="M164.267 186.195L163.444 183.5" stroke="#263238" stroke-linecap="round" stroke-linejoin="round"/>
<path d="M164.472 184.209L161.51 182.362" stroke="#263238" stroke-linecap="round" stroke-linejoin="round"/>
<path d="M163.811 129.637C163.811 129.637 158.793 128.886 157.997 129.433C157.2 129.981 154.367 134.537 152.978 136.453C151.589 138.37 142.275 146.47 142.275 146.47L134.138 130.325C134.404 129.114 134.579 127.885 134.662 126.647C134.662 125.425 134.07 124.674 134.07 123.516C134.07 122.358 134.601 120.652 134.336 120.245C134.07 119.837 133.342 120.315 132.879 121.129C132.416 121.943 132.484 124.197 132.484 124.197C132.484 124.197 128.344 118.932 127.99 118.272C127.894 118.09 127.2 118.132 127.2 118.679C127.2 119.227 129.774 124.197 129.774 124.197C129.774 124.197 129.508 124.604 129.249 124.604C128.991 124.604 125.348 120.111 125.164 120.041C124.98 119.971 124.374 120.111 124.701 120.855C125.028 121.599 127.806 125.425 127.806 125.425C127.272 125.439 126.741 125.508 126.219 125.629C126.144 125.679 126.081 125.747 126.035 125.827C125.989 125.908 125.962 125.998 125.956 126.09C125.95 126.183 125.966 126.276 126.001 126.361C126.036 126.447 126.09 126.523 126.158 126.583C126.391 126.807 126.657 126.99 126.948 127.124C126.948 127.124 127.016 127.538 127.077 128.219C127.042 128.633 127.109 129.049 127.271 129.429C127.433 129.809 127.685 130.141 128.003 130.395C128.677 131.04 129.463 131.55 130.318 131.897C130.645 131.961 137.726 153.378 138.85 155.287C139.973 157.197 140.504 157.26 141.757 156.916C143.01 156.572 155.355 146.997 155.355 146.997C155.355 146.997 154.83 164.504 154.231 165.733C153.632 166.961 152.978 166.961 152.978 167.775C153.012 168.484 153.101 169.188 153.244 169.881C153.244 169.881 156.546 175.602 163.287 175.806C170.028 176.01 176.169 173.216 176.169 171.924C176.121 171.111 175.965 170.308 175.706 169.537C175.706 169.271 176.503 167.972 176.387 167.158C176.272 166.343 175.795 166.133 175.924 164.911C176.054 163.69 181.739 146.176 182.005 140.791C182.27 135.407 182.332 135 181.079 134.052C179.826 133.105 175.196 132.276 175.196 132.276L167.4 130.234L164.295 129.96L163.811 129.637Z" fill="#D9D9D9" stroke="#263238" stroke-linecap="round" stroke-linejoin="round"/>
<path d="M181.984 140.806C182.25 135.429 182.311 135.014 181.058 134.067C179.805 133.119 175.175 132.291 175.175 132.291L167.379 130.248L164.274 129.974L163.811 129.637C163.811 129.637 158.793 128.886 157.996 129.434C157.2 129.981 154.367 134.537 152.978 136.454C151.589 138.37 142.275 146.471 142.275 146.471L139.551 140.764L134.574 144.189C136.616 149.749 138.4 154.515 138.836 155.259C139.96 157.162 140.491 157.232 141.743 156.888C142.996 156.544 155.354 146.997 155.354 146.997C155.354 146.997 154.83 164.504 154.231 165.733C153.632 166.961 152.978 166.961 152.978 167.776C153.012 168.484 153.1 169.188 153.244 169.882C153.244 169.882 156.546 175.603 163.287 175.806C170.028 176.01 176.169 173.216 176.169 171.924C176.12 171.111 175.965 170.308 175.706 169.538C175.706 169.271 176.503 167.972 176.387 167.158C176.271 166.344 175.795 166.133 175.924 164.912C176.054 163.69 181.719 146.19 181.984 140.806Z" fill="#263238" stroke="#263238" stroke-linecap="round" stroke-linejoin="round"/>
<path d="M155.389 138.953L155.355 147.004L153.7 139.03" stroke="white" stroke-width="0.75" stroke-linecap="round" stroke-linejoin="round"/>
<path d="M153.993 170.359C160.654 172.226 167.704 172.003 174.242 169.72" stroke="white" stroke-width="0.75" stroke-linecap="round" stroke-linejoin="round"/>
<path d="M169.074 173.525C169.755 173.441 170.395 173.336 171.117 173.202" stroke="white" stroke-width="0.75" stroke-linecap="round" stroke-linejoin="round"/>
<path d="M155.797 171.286C155.797 171.286 159.44 173.82 166.058 173.736" stroke="white" stroke-width="0.75" stroke-linecap="round" stroke-linejoin="round"/>
<path d="M132.483 124.162C132.449 124.645 132.307 125.113 132.068 125.53C131.666 126.232 131.163 126.478 131.094 127.707C131.069 128.05 131.122 128.395 131.249 128.715C131.375 129.034 131.572 129.318 131.823 129.546" stroke="#263238" stroke-linecap="round" stroke-linejoin="round"/>
<path d="M128.255 126.134C128.255 126.134 125.613 124.232 125.082 124.569C124.937 124.673 124.816 124.808 124.726 124.964C124.636 125.121 124.579 125.296 124.561 125.477C124.542 125.658 124.561 125.841 124.617 126.014C124.673 126.187 124.764 126.345 124.885 126.478C125.484 127.026 128.058 127.433 128.521 127.18C128.984 126.927 128.677 126.415 128.255 126.134Z" fill="#D9D9D9" stroke="#263238" stroke-linecap="round" stroke-linejoin="round"/>
<path d="M129.072 128.247C129.072 128.247 127.227 127.84 126.778 127.763C126.328 127.686 126.063 127.945 126.097 128.43C126.131 128.914 126.587 129.216 127.302 129.244C128.017 129.272 129.603 129.546 129.671 128.837C129.692 128.753 129.69 128.665 129.667 128.581C129.643 128.498 129.599 128.422 129.538 128.363C129.477 128.303 129.402 128.26 129.32 128.24C129.238 128.22 129.153 128.222 129.072 128.247Z" fill="#D9D9D9" stroke="#263238" stroke-linecap="round" stroke-linejoin="round"/>
<path d="M167.399 125.671C167.399 125.671 171.083 125.552 172.336 124.934" stroke="#263238" stroke-linecap="round" stroke-linejoin="round"/>
<path d="M175.911 137.871C175.911 137.871 168.421 145.754 165.99 148.738C164.303 150.759 162.461 152.637 160.482 154.354L143.834 142.946C143.208 141.985 142.633 140.989 142.111 139.963C141.628 138.896 140.872 138.615 140.252 136.98C139.633 135.344 139.006 134.284 138.53 135.421C138.053 136.558 138.251 136.909 138.53 137.478C138.809 138.047 139.769 139.752 139.769 139.752C139.769 139.752 135.636 138.047 134.186 137.408C132.735 136.769 131.224 136.558 131.156 137.127C131.088 137.696 131.367 137.618 132.055 137.906C132.742 138.194 137.011 140.602 137.011 140.602L136.596 140.819C136.596 140.819 130.952 139.752 130.4 139.682C129.848 139.612 129.985 140.384 130.4 140.602C130.815 140.819 132.947 141.879 132.947 141.879C132.947 141.879 132.463 142.308 133.015 143.087C133.541 143.73 134.142 144.303 134.805 144.793C134.925 145.31 135.19 145.779 135.568 146.14C136.119 146.569 139.701 146.498 141.213 146.639C141.97 146.675 142.716 146.843 143.419 147.137C143.419 147.137 160.965 162.581 162.136 162.581C163.307 162.581 179.628 146.674 181.419 144.329C183.21 141.985 184.517 137.871 183.421 135.955C182.325 134.038 180.595 133.61 179.492 134.031" fill="#CCCCCC"/>
<path d="M175.911 137.871C175.911 137.871 168.421 145.754 165.99 148.738C164.303 150.759 162.461 152.637 160.482 154.354L143.834 142.946C143.208 141.985 142.633 140.989 142.111 139.963C141.628 138.896 140.872 138.615 140.252 136.98C139.633 135.344 139.006 134.284 138.53 135.421C138.053 136.558 138.251 136.909 138.53 137.478C138.809 138.047 139.769 139.752 139.769 139.752C139.769 139.752 135.636 138.047 134.186 137.408C132.735 136.769 131.224 136.558 131.156 137.127C131.088 137.696 131.367 137.618 132.055 137.906C132.742 138.194 137.011 140.602 137.011 140.602L136.596 140.819C136.596 140.819 130.952 139.752 130.4 139.682C129.848 139.612 129.985 140.384 130.4 140.602C130.815 140.819 132.947 141.879 132.947 141.879C132.947 141.879 132.463 142.308 133.015 143.087C133.541 143.73 134.142 144.303 134.805 144.793C134.925 145.31 135.19 145.779 135.568 146.14C136.119 146.569 139.701 146.498 141.213 146.639C141.97 146.675 142.716 146.843 143.419 147.137C143.419 147.137 160.965 162.581 162.136 162.581C163.307 162.581 179.628 146.674 181.419 144.329C183.21 141.985 184.517 137.871 183.421 135.955C182.325 134.038 180.595 133.61 179.492 134.031" stroke="#263238" stroke-linecap="round" stroke-linejoin="round"/>
<path d="M132.947 141.837C132.947 141.837 135.153 142.624 135.84 142.834L132.947 141.837Z" fill="white"/>
<path d="M132.947 141.837C132.947 141.837 135.153 142.624 135.84 142.834" stroke="#263238" stroke-linecap="round" stroke-linejoin="round"/>
<path d="M134.805 144.751L136.256 144.962" stroke="#263238" stroke-linecap="round" stroke-linejoin="round"/>
<path d="M175.911 137.871C175.911 137.871 168.421 145.754 165.99 148.738C164.303 150.759 162.461 152.637 160.482 154.354L156.035 151.342L153.516 156.221C157.908 159.682 161.687 162.539 162.143 162.539C163.307 162.539 179.635 146.632 181.426 144.287C183.217 141.943 184.524 137.829 183.428 135.913C182.331 133.996 180.602 133.568 179.499 133.989L178.498 134.642" fill="#263238"/>
<path d="M175.911 137.871C175.911 137.871 168.421 145.754 165.99 148.738C164.303 150.759 162.461 152.637 160.482 154.354L156.035 151.342L153.516 156.221C157.908 159.682 161.687 162.539 162.143 162.539C163.307 162.539 179.635 146.632 181.426 144.287C183.217 141.943 184.524 137.829 183.428 135.913C182.331 133.996 180.602 133.568 179.499 133.989L178.498 134.642" stroke="white" stroke-width="0.75" stroke-linecap="round" stroke-linejoin="round"/>
<path d="M175.175 132.29L167.379 130.248L164.901 130.023L163.811 129.637C163.811 129.637 163.246 129.553 162.449 129.461L162.252 145.08L177.824 132.866C176.462 132.515 175.175 132.29 175.175 132.29Z" fill="white" stroke="#263238" stroke-linecap="round" stroke-linejoin="round"/>
<path d="M173.228 107.286C171.599 107.241 170.017 107.856 168.822 108.999C167.039 110.894 166.923 112.123 166.208 112.797C165.493 113.471 164.124 113.408 163.178 115.492C162.231 117.577 161.51 121.93 161.687 123.341C161.864 124.751 163.049 125.18 164.186 125.362C165.323 125.545 167.399 125.671 167.399 125.671C167.399 125.671 167.093 130.276 166.8 130.206C166.507 130.136 164.901 130.023 164.901 130.023C164.901 130.023 164.601 137.198 164.546 138.974L164.485 140.757L175.345 132.256L173.228 131.343C173.287 129.929 173.515 128.529 173.909 127.173C174.236 126.097 174.653 125.052 175.155 124.05C175.155 124.05 178.559 122.884 180.391 120.252C181.868 118.146 181.821 115.106 181.017 112.734C180.558 111.348 179.741 110.117 178.654 109.173C177.567 108.229 176.251 107.609 174.848 107.378C174.312 107.292 173.77 107.261 173.228 107.286Z" fill="#D9D9D9" stroke="#263238" stroke-linecap="round" stroke-linejoin="round"/>
<path d="M167.277 114.271C166.693 114.94 166.035 115.536 165.316 116.047C164.363 116.658 165.078 117.823 166.269 118.251C167.461 118.679 167.815 118.132 167.815 118.132" stroke="#263238" stroke-linecap="round" stroke-linejoin="round"/>
<path d="M167.992 120.28C167.992 120.28 165.554 119.908 164.424 118.806C164.502 119.146 164.663 119.46 164.892 119.718C165.121 119.976 165.41 120.169 165.731 120.28C166.476 120.452 167.248 120.452 167.992 120.28V120.28Z" stroke="#263238" stroke-width="0.75" stroke-linecap="round" stroke-linejoin="round"/>
<path d="M171.444 112.677C171.86 112.811 172.228 113.069 172.503 113.417C172.777 113.765 172.947 114.189 172.99 114.636" stroke="#263238" stroke-linecap="round" stroke-linejoin="round"/>
<path d="M169.422 111.695C169.126 111.436 168.757 111.284 168.37 111.261C167.983 111.238 167.599 111.346 167.277 111.568" stroke="#263238" stroke-linecap="round" stroke-linejoin="round"/>
<path d="M170.368 115.064C170.116 115.478 169.762 115.717 169.585 115.605C169.408 115.492 169.463 115.05 169.715 114.636C169.967 114.222 170.321 113.983 170.504 114.103C170.688 114.222 170.627 114.65 170.368 115.064Z" fill="#263238"/>
<path d="M166.984 113.351C166.726 113.765 166.378 114.004 166.194 113.884C166.011 113.765 166.072 113.337 166.331 112.923C166.589 112.509 166.937 112.27 167.114 112.382C167.291 112.495 167.236 112.93 166.984 113.351Z" fill="#263238"/>
<path d="M169.061 116.166C169.061 116.166 170.906 116.229 171.498 116.966" stroke="#263238" stroke-width="0.75" stroke-linecap="round" stroke-linejoin="round"/>
<path d="M180.99 112.761C180.531 111.375 179.713 110.144 178.627 109.201C177.54 108.257 176.224 107.636 174.821 107.405C174.295 107.312 173.762 107.272 173.228 107.286C172.619 107.291 172.014 107.371 171.424 107.525C171.653 107.88 171.941 108.192 172.275 108.444C172.819 108.858 174.358 108.69 176.02 109.427C177.681 110.164 178.695 112.614 177.626 114.081C176.557 115.548 175.454 113.737 174.903 115.085C174.657 115.753 174.448 116.435 174.277 117.128C174.257 117.363 174.273 117.6 174.324 117.83C174.515 118.532 174.964 118.883 174.712 119.234C174.46 119.585 174.065 119.936 174.065 120.42C174.07 120.547 174.121 120.667 174.208 120.757C175.216 120.343 177.341 119.627 177.613 120.932C177.967 122.645 176.544 123.509 175.414 123.691C174.525 123.755 173.633 123.631 172.792 123.326C172.792 123.326 173.208 124.323 174.917 124.519C175.039 124.26 175.114 124.119 175.114 124.119C175.114 124.119 178.518 122.954 180.35 120.322C181.841 118.16 181.794 115.134 180.99 112.761Z" fill="#263238" stroke="#263238" stroke-linecap="round" stroke-linejoin="round"/>
<path d="M174.093 52.2724C174.093 49.8105 173.624 47.3725 172.711 45.0977C171.797 42.8229 170.459 40.7559 168.77 39.0147C167.082 37.2735 165.078 35.8923 162.872 34.95C160.665 34.0076 158.301 33.5226 155.913 33.5226C154.872 33.523 153.833 33.617 152.808 33.8034C152.821 26.7287 150.107 19.9386 145.263 14.9268C140.42 9.91508 133.844 7.09218 126.982 7.07915C120.12 7.06611 113.534 9.86402 108.672 14.8574C103.811 19.8507 101.073 26.6304 101.06 33.7051C100.228 33.5875 99.3884 33.5265 98.5479 33.5226C93.8056 33.5018 89.2431 35.3923 85.8338 38.7909C82.4245 42.1894 80.4382 46.8269 80.2988 51.714C80.1593 56.6011 81.8777 61.3509 85.0873 64.9502C88.2969 68.5495 92.7436 70.7133 97.4789 70.9801H157.03C161.649 70.687 165.986 68.5884 169.157 65.1122C172.327 61.6361 174.093 57.044 174.093 52.2724Z" fill="white" stroke="#263238" stroke-linecap="round" stroke-linejoin="round"/>
<path d="M136.596 51.5702L125.041 41.6724L113.487 51.5702H116.026V83.3978H134.063V51.5702H136.596Z" fill="#263238"/>
<path d="M127.057 77.2627C126.841 77.2659 126.635 77.3532 126.48 77.5069C126.324 77.6606 126.231 77.8693 126.219 78.091L126.178 79.2142H112.649L111.852 98.7642H137.822L138.421 83.9455L138.625 79.2142L138.707 77.2627H127.057Z" fill="#92E3A9" stroke="#263238" stroke-linecap="round" stroke-linejoin="round"/>
<path d="M137.822 98.7639L137.713 80.5757H112.751L112.949 98.5393L137.822 98.7639Z" fill="white" stroke="#263238" stroke-linecap="round" stroke-linejoin="round"/>
<path d="M137.822 98.7639L136.691 80.5757H111.73L111.927 98.5393L137.822 98.7639Z" fill="white" stroke="#263238" stroke-linecap="round" stroke-linejoin="round"/>
<path d="M111.852 98.7644L108.38 80.0146H134.512L137.822 98.7644H111.852Z" fill="#92E3A9" stroke="#263238" stroke-linecap="round" stroke-linejoin="round"/>
<path d="M114.392 73.9565V75.2061" stroke="#263238" stroke-linecap="round" stroke-linejoin="round"/>
<path d="M114.392 67.0068V72.6999" stroke="#263238" stroke-linecap="round" stroke-linejoin="round"/>
<path d="M135.622 60.9702V65.7507" stroke="#263238" stroke-linecap="round" stroke-linejoin="round"/>
<path d="M127.554 99.5928V104.373" stroke="#263238" stroke-linecap="round" stroke-linejoin="round"/>
<path d="M137.617 106.872V117.697" stroke="#263238" stroke-linecap="round" stroke-linejoin="round"/>
<path d="M137.617 103.117V105.166" stroke="#263238" stroke-linecap="round" stroke-linejoin="round"/>
<path d="M113.861 102.66V106.528" stroke="#263238" stroke-linecap="round" stroke-linejoin="round"/>
<path d="M116.292 120.54V121.452" stroke="#263238" stroke-linecap="round" stroke-linejoin="round"/>
<path d="M116.292 105.047V119.29" stroke="#263238" stroke-linecap="round" stroke-linejoin="round"/>
<path d="M242.747 74.8548C242.751 73.249 242.414 71.6617 241.759 70.2047C241.104 68.7477 240.148 67.4564 238.957 66.4218C237.765 65.3872 236.369 64.6343 234.865 64.2163C233.361 63.7982 231.787 63.7252 230.252 64.0022C230.176 59.9011 228.543 55.9942 225.705 53.1192C222.868 50.2442 219.05 48.6299 215.071 48.6226C211.093 48.6152 207.27 50.2154 204.422 53.0799C201.574 55.9444 199.928 59.8452 199.837 63.9461C199.348 63.873 198.854 63.8354 198.36 63.8337C195.583 63.8374 192.916 64.9548 190.925 66.9495C188.933 68.9442 187.772 71.6597 187.688 74.5211C187.604 77.3826 188.603 80.1655 190.474 82.2808C192.345 84.3961 194.941 85.6779 197.713 85.8547H232.717C235.432 85.6798 237.981 84.4449 239.844 82.4014C241.707 80.3579 242.745 77.6593 242.747 74.8548Z" fill="white" stroke="#263238" stroke-linecap="round" stroke-linejoin="round"/>
<path d="M203.732 15.9591C203.732 14.3115 203.097 12.7313 201.967 11.5662C200.837 10.4012 199.304 9.74663 197.706 9.74663C197.361 9.74474 197.017 9.77528 196.678 9.83788C196.678 7.49393 195.775 5.24598 194.167 3.58856C192.559 1.93113 190.379 1 188.105 1C185.832 1 183.651 1.93113 182.044 3.58856C180.436 5.24598 179.533 7.49393 179.533 9.83788C179.255 9.80125 178.975 9.78249 178.695 9.78172C177.136 9.79289 175.641 10.4271 174.526 11.5509C173.41 12.6747 172.761 14.2007 172.714 15.8079C172.667 17.4152 173.227 18.9785 174.275 20.1692C175.323 21.3599 176.778 22.0852 178.335 22.1927H198.08C199.616 22.0941 201.057 21.3934 202.108 20.2343C203.159 19.0753 203.74 17.5456 203.732 15.9591Z" fill="white" stroke="#263238" stroke-linecap="round" stroke-linejoin="round"/>
</svg>
