<svg width="25" height="25" viewBox="0 0 25 25" fill="none" xmlns="http://www.w3.org/2000/svg">
<path d="M16.359 16.9776L16.67 17.1162L16.9129 16.8776C17.4033 16.3958 18.063 16.1257 18.7504 16.1251C19.2694 16.1252 19.7768 16.2791 20.2084 16.5675C20.64 16.8559 20.9765 17.2659 21.1752 17.7455C21.3739 18.2252 21.4258 18.753 21.3246 19.2622C21.2233 19.7714 20.9733 20.2391 20.6061 20.6062C20.239 20.9734 19.7713 21.2234 19.2621 21.3246C18.7529 21.4259 18.2251 21.374 17.7455 21.1753C17.2658 20.9766 16.8558 20.6401 16.5674 20.2085C16.2789 19.7768 16.125 19.2693 16.125 18.7501V18.4063V18.0821L15.829 17.9498L7.59981 14.2728L7.28858 14.1337L7.04542 14.3726C6.67648 14.7351 6.20869 14.9805 5.70077 15.078C5.19285 15.1755 4.66744 15.1208 4.19049 14.9208C3.71354 14.7208 3.30631 14.3843 3.01992 13.9536C2.73353 13.523 2.58075 13.0173 2.58075 12.5001C2.58075 11.9829 2.73353 11.4772 3.01992 11.0465C3.30631 10.6159 3.71354 10.2794 4.19049 10.0794C4.66744 9.87934 5.19285 9.82466 5.70077 9.92219C6.20869 10.0197 6.67648 10.2651 7.04542 10.6276L7.2883 10.8662L7.59933 10.7276L15.8285 7.06097L16.125 6.92886V6.60426V6.25009V6.24969C16.1245 5.64342 16.3339 5.05567 16.7176 4.58626C17.1013 4.11685 17.6356 3.79473 18.2299 3.67461C18.8241 3.55448 19.4416 3.64376 19.9775 3.92727C20.5134 4.21079 20.9347 4.67107 21.1697 5.22992C21.4047 5.78878 21.4391 6.41177 21.2669 6.99308C21.0947 7.57439 20.7266 8.07817 20.2251 8.41887C19.7236 8.75957 19.1197 8.91618 18.5158 8.8621C17.912 8.80802 17.3455 8.54658 16.9125 8.12219L16.6694 7.88387L16.3585 8.02276L8.12935 11.6998L7.83333 11.8321V12.1563V12.5001V12.8543V13.1789L8.12983 13.311L16.359 16.9776Z" fill="#7DDAB9" stroke="black"/>
</svg>

