<svg width="255" height="201" viewBox="0 0 255 201" fill="none" xmlns="http://www.w3.org/2000/svg">
<g filter="url(#filter0_d)">
<path d="M21.6576 108.719V23.749H30.1905" stroke="#263238" stroke-linecap="round" stroke-linejoin="round"/>
<path d="M21.663 122.609V119.512" stroke="#263238" stroke-linecap="round" stroke-linejoin="round"/>
<path d="M52.1265 23.749H140.135V133.486H21.6576" stroke="#263238" stroke-linecap="round" stroke-linejoin="round"/>
<path d="M41.3339 23.749H49.0676" stroke="#263238" stroke-linecap="round" stroke-linejoin="round"/>
<path d="M135.679 27.519H26.1138V129.721H135.679V27.519Z" stroke="#263238" stroke-linecap="round" stroke-linejoin="round"/>
<path d="M130.584 34.6885V74.4384H31.2083V70.8146" stroke="#263238" stroke-linecap="round" stroke-linejoin="round"/>
<path d="M31.2083 62.3106V31.4644H130.584" stroke="#263238" stroke-linecap="round" stroke-linejoin="round"/>
<path d="M31.214 68.023V64.4976" stroke="#263238" stroke-linecap="round" stroke-linejoin="round"/>
<path d="M113.806 78.6172H135.679" stroke="#263238" stroke-linecap="round" stroke-linejoin="round"/>
<path d="M106.026 78.6172H109.12" stroke="#263238" stroke-linecap="round" stroke-linejoin="round"/>
<path d="M26.1138 78.6172H102.329" stroke="#263238" stroke-linecap="round" stroke-linejoin="round"/>
<path d="M75.3907 74.4381V72.5293H84.5504V73.6152H80.8992V74.4381" stroke="#263238" stroke-linecap="round" stroke-linejoin="round"/>
<path d="M26.3036 112.873C26.3036 112.873 27.8216 113.847 28.8911 119.741C28.8911 119.741 30.731 110.326 32.962 110.18C35.193 110.034 34.7215 116.307 34.7215 116.307C34.7215 116.307 35.0895 113.214 36.8375 113.355C38.5855 113.497 36.8375 119.741 36.8375 119.741C36.8375 119.741 38.9362 114.87 40.9199 114.958C42.9037 115.046 39.6032 123.779 39.6032 123.779C39.6032 123.779 44.6976 120.652 46.7619 122.181C48.8261 123.711 45.6119 127.568 45.6119 127.568C45.6119 127.568 52.9201 126.224 54.0528 129.853" stroke="#263238" stroke-linecap="round" stroke-linejoin="round"/>
<path d="M54.07 126.336C54.07 126.336 57.2555 124.568 59.7567 125.391C59.7567 125.391 58.164 123.336 59.7567 122.079C61.3494 120.823 63.3964 125.391 63.3964 125.391C63.3964 125.391 63.6264 117.739 66.8119 118.124C69.9973 118.509 66.8119 125.391 66.8119 125.391C66.8119 125.391 72.4986 121.125 73.8613 122.61C75.224 124.096 72.9528 126.336 72.9528 126.336C72.9528 126.336 76.3625 125.411 78.8638 127.569C78.8638 127.569 82.676 124.271 86.9137 123.799C86.9137 123.799 84.0962 116.872 85.4647 115.475C86.8332 114.077 89.3056 121.519 89.3056 121.519C89.3056 121.519 90.3924 116.678 93.9516 116.307C93.9516 116.307 90.9846 114.939 91.8644 112.874C92.7441 110.808 96.8381 113.361 96.8381 113.361C96.8381 113.361 95.1533 109.722 97.8155 108.724C100.478 107.725 101.588 111.768 101.588 111.768C101.588 111.768 102.329 107.53 105.457 107.764C108.585 107.998 107.573 112.878 107.573 112.878C107.573 112.878 110.523 108.982 112.104 109.396C115.261 110.185 114.301 116.312 114.301 116.312C114.301 116.312 118.711 113.716 119.844 114.91C121.068 116.2 115.244 119.517 115.244 119.517C115.244 119.517 119.619 119.926 122.339 122.084" stroke="#263238" stroke-linecap="round" stroke-linejoin="round"/>
<path d="M135.679 114.271C135.679 114.271 135.179 110.374 130.584 110.179C125.99 109.985 131.849 118.703 131.849 118.703C131.849 118.703 128.06 116.049 126.703 116.867C125.346 117.685 130.584 122.181 130.584 122.181C130.584 122.181 128.072 120.233 125.41 120.822C122.747 121.411 126.922 127.69 126.922 127.69C122.987 127.017 118.901 127.421 115.255 128.844" stroke="#263238" stroke-linecap="round" stroke-linejoin="round"/>
<path d="M181.379 166.533V117.982H245.917" stroke="#263238" stroke-linecap="round" stroke-linejoin="round"/>
<path d="M243.571 123.004H186.572V168.229" stroke="#263238" stroke-linecap="round" stroke-linejoin="round"/>
<path d="M197.979 147.669V127.568H201.711V131.713H206.691V129.852H211.141V132.107H217.15V127.568H223.296V130.617H226.608V128.844H232.542V140.685" stroke="#263238" stroke-linecap="round" stroke-linejoin="round"/>
<path d="M226.608 130.617V147.669" stroke="#263238" stroke-linecap="round" stroke-linejoin="round"/>
<path d="M223.774 133.169V136.212" stroke="#263238" stroke-linecap="round" stroke-linejoin="round"/>
<path d="M223.774 138.396V150.899" stroke="#263238" stroke-linecap="round" stroke-linejoin="round"/>
<path d="M217.15 132.112V143.344" stroke="#263238" stroke-linecap="round" stroke-linejoin="round"/>
<path d="M217.38 147.046V150.542" stroke="#263238" stroke-linecap="round" stroke-linejoin="round"/>
<path d="M211.141 132.112V138.396" stroke="#263238" stroke-linecap="round" stroke-linejoin="round"/>
<path d="M211.141 142.258V155.497" stroke="#263238" stroke-linecap="round" stroke-linejoin="round"/>
<path d="M206.691 131.713V147.319" stroke="#263238" stroke-linecap="round" stroke-linejoin="round"/>
<path d="M201.711 131.713V137.616" stroke="#263238" stroke-linecap="round" stroke-linejoin="round"/>
<path d="M201.711 140.685V154.718" stroke="#263238" stroke-linecap="round" stroke-linejoin="round"/>
<path d="M197.979 150.543V156.88" stroke="#263238" stroke-linecap="round" stroke-linejoin="round"/>
<path d="M190.28 156.88H235.578" stroke="#263238" stroke-linecap="round" stroke-linejoin="round"/>
<path d="M226.608 156.88V152.823" stroke="#263238" stroke-linecap="round" stroke-linejoin="round"/>
<path d="M217.38 153.895V156.69" stroke="#263238" stroke-linecap="round" stroke-linejoin="round"/>
<path d="M233.048 134.051H237.441" stroke="#263238" stroke-linecap="round" stroke-linejoin="round"/>
<path d="M190.453 160.416H232.542" stroke="#263238" stroke-linecap="round" stroke-linejoin="round"/>
<path d="M199.486 170.728V166.003H207.283V169.047H213.556V174.985H217.15V166.183H225.113V168.229H230.007" stroke="#263238" stroke-linecap="round" stroke-linejoin="round"/>
<path d="M225.114 168.229V173.294" stroke="#263238" stroke-linecap="round" stroke-linejoin="round"/>
<path d="M217.38 177.127V180.536" stroke="#263238" stroke-linecap="round" stroke-linejoin="round"/>
<path d="M213.556 174.985V179.476" stroke="#263238" stroke-linecap="round" stroke-linejoin="round"/>
<path d="M207.283 169.047V171.623" stroke="#263238" stroke-linecap="round" stroke-linejoin="round"/>
<path d="M243.766 14.3481H105.975V94.9927H243.766V14.3481Z" fill="#92E3A9" stroke="#263238" stroke-linecap="round" stroke-linejoin="round"/>
<path d="M243.766 14.3481H105.975V22.3215H243.766V14.3481Z" fill="#263238"/>
<path d="M161.795 69.6401L158.564 65.8312C158.563 65.0357 158.515 64.2408 158.42 63.4494C158.299 63.0939 156.338 60.4783 156.292 59.8597C156.285 59.5643 156.241 59.2704 156.16 58.983C156.16 58.983 155.154 59.1973 155.165 59.7184C155.177 60.2396 155.286 61.9979 155.286 61.9979C155.286 61.9979 152.664 60.7023 152.371 60.3614C152.078 60.0204 148.881 58.0332 148.582 57.7361C148.283 57.4389 147.064 57.4195 146.92 57.7361L147.092 58.1014L146.086 58.5056L146.759 60.1958C146.567 60.5763 146.45 60.9812 146.414 61.394C146.523 61.6034 146.88 62.8552 146.88 62.8552C146.88 62.8552 146.661 63.0451 146.69 63.7076C146.719 64.37 151.014 67.7551 151.865 68.1204C152.881 68.4822 153.922 68.7928 154.981 69.0507L157.678 72.0073L161.795 69.6401Z" fill="white" stroke="#263238" stroke-linecap="round" stroke-linejoin="round"/>
<path d="M155.28 61.9985C154.779 62.9661 154.65 64.0429 154.912 65.076" stroke="#263238" stroke-linecap="round" stroke-linejoin="round"/>
<path d="M147.087 58.1016C147.955 58.384 149.042 59.7572 149.542 60.1808C149.995 60.5264 150.479 60.8407 150.991 61.1206" stroke="#263238" stroke-linecap="round" stroke-linejoin="round"/>
<path d="M146.753 60.1818C147.466 60.0552 147.949 60.289 147.932 60.8782C147.915 61.4674 149.456 62.3633 149.456 62.3633" stroke="#263238" stroke-linecap="round" stroke-linejoin="round"/>
<path d="M146.874 62.8405C146.874 62.8405 147.374 62.0857 147.771 62.4315C148.168 62.7772 148.294 63.6634 149.025 63.8485" stroke="#263238" stroke-linecap="round" stroke-linejoin="round"/>
<path d="M203.816 65.5004C203.816 65.5004 192.471 66.0947 189.97 66.9617C187.917 67.6777 173.479 75.729 173.479 75.729C173.479 75.729 164.986 70.303 162.52 68.4229C162.044 68.228 161.533 68.1029 161.007 68.0527L159.714 67.3562L156.534 71.1505L157.425 72.1977C157.425 72.1977 157.569 73.8878 157.966 74.3116C163.244 79.9275 173.353 87.7889 174.87 88.5633C176.388 89.3378 189.855 82.5869 189.855 82.5869L192.356 95.0073H232.519C232.519 95.0073 232.416 73.2108 230.725 71.5401C229.035 69.8695 209.658 63.3184 209.658 63.3184L203.816 65.5004Z" fill="#757575" stroke="#263238" stroke-linecap="round" stroke-linejoin="round"/>
<path d="M217.38 57.6147C217.38 57.6147 213.78 59.6604 215.689 66.197C215.689 66.197 210.267 69.4798 204.902 66.1677C204.902 66.1677 206.139 60.9561 204.902 59.9089" fill="white"/>
<path d="M217.38 57.6147C217.38 57.6147 213.78 59.6604 215.689 66.197C215.689 66.197 210.267 69.4798 204.902 66.1677C204.902 66.1677 206.139 60.9561 204.902 59.9089" stroke="#263238" stroke-linecap="round" stroke-linejoin="round"/>
<path d="M230.007 72.5532C230.007 72.5532 225.113 77.3217 224.544 85.485" stroke="#263238" stroke-linecap="round" stroke-linejoin="round"/>
<path d="M208.473 44.5174C208.473 44.5174 205.265 44.1082 204.143 47.4398C203.49 49.4802 203.755 51.6532 204.885 53.538L210.785 48.8474L208.473 44.5174Z" fill="#263238"/>
<path d="M216.282 59.6021C220.416 55.4231 223.337 48.4579 217.127 45.6768C205.144 40.3092 201.182 50.7959 203.195 60.5373C203.816 63.5426 208.634 62.2031 212.159 61.1169" fill="white"/>
<path d="M216.282 59.6021C220.416 55.4231 223.337 48.4579 217.127 45.6768C205.144 40.3092 201.182 50.7959 203.195 60.5373C203.816 63.5426 208.634 62.2031 212.159 61.1169" stroke="#263238" stroke-linecap="round" stroke-linejoin="round"/>
<path d="M207.91 50.5181C207.91 50.5181 209.888 50.9709 210.388 51.8669" stroke="#263238" stroke-linecap="round" stroke-linejoin="round"/>
<path d="M205.046 50.0749C204.813 49.9776 204.554 49.9328 204.294 49.9448C204.034 49.9567 203.782 50.025 203.563 50.143" stroke="#263238" stroke-linecap="round" stroke-linejoin="round"/>
<path d="M207.875 52.8266C207.841 53.1236 207.996 53.3817 208.22 53.4012C208.444 53.4206 208.657 53.1918 208.692 52.9142C208.726 52.6367 208.571 52.3542 208.347 52.3348C208.122 52.3153 207.91 52.5247 207.875 52.8266Z" fill="#263238"/>
<path d="M203.586 51.9257C203.557 52.2276 203.712 52.4857 203.936 52.5052C204.161 52.5247 204.373 52.2958 204.408 52.0183C204.442 51.7407 204.287 51.4631 204.057 51.4437C203.827 51.4242 203.62 51.6287 203.586 51.9257Z" fill="#263238"/>
<path d="M214.436 54.7799C214.436 54.7799 212.579 57.0594 211.331 57.79C210.525 58.2273 209.553 58.3908 208.611 58.2478C208.611 58.2478 207.018 56.582 204.695 56.5577C204.094 56.2334 203.41 56.0347 202.7 55.9781L202.832 53.4355C202.832 53.4355 201.067 58.8859 201.234 60.839C201.401 62.7922 207.07 64.1463 209.905 63.6007C212.74 63.0552 214.183 59.3194 215.045 55.8076C215.109 55.5153 214.436 54.7799 214.436 54.7799Z" fill="#263238"/>
<path d="M203.045 57.8145C203.045 57.8145 205.288 58.725 207.283 58.5108" stroke="white" stroke-linecap="round" stroke-linejoin="round"/>
<path d="M216.293 47.8347C217.029 47.3477 215.143 45.2533 214.085 45.2971C213.027 45.3409 207.835 45.5065 207.835 45.5065C207.835 45.5065 206.742 40.665 215.482 43.2806C216.914 43.7092 217.374 44.8441 218.656 45.4237C219.938 46.0033 221.675 49.0524 221.18 51.6534C220.686 54.2543 219.047 58.8182 216.074 60.1869C216.074 60.1869 215.051 60.0992 215.672 59.5001C218.599 56.7092 215.534 51.4586 215.045 55.7984L214.016 55.2772C214.008 54.8007 214.066 54.3249 214.189 53.8598C214.407 52.6665 212.849 50.2263 216.293 47.8347Z" fill="#263238"/>
<path d="M215.845 54.4633C215.845 54.4633 217.725 52.5735 218.863 53.2164C220.002 53.8593 219.237 56.1388 218.628 56.7087C218.018 57.2786 217.524 57.4052 216.678 58.3161C215.833 59.2269 214.769 58.92 214.953 58.1894" fill="white"/>
<path d="M215.845 54.4633C215.845 54.4633 217.725 52.5735 218.863 53.2164C220.002 53.8593 219.237 56.1388 218.628 56.7087C218.018 57.2786 217.524 57.4052 216.678 58.3161C215.833 59.2269 214.769 58.92 214.953 58.1894" stroke="#263238" stroke-linecap="round" stroke-linejoin="round"/>
<path d="M210.095 53.0709C210.158 54.1278 209.399 55.0192 208.37 55.063C207.34 55.1068 206.501 54.2885 206.438 53.2316C206.374 52.1747 207.133 51.2833 208.163 51.2395C209.192 51.1956 210.02 52.0139 210.095 53.0709Z" stroke="#263238" stroke-width="0.5" stroke-miterlimit="10"/>
<path d="M204.793 52.1109C204.862 53.1678 204.097 54.0592 203.097 54.1079C202.096 54.1566 201.228 53.3286 201.159 52.2716C201.09 51.2147 201.861 50.3234 202.884 50.2795C203.908 50.2357 204.73 51.054 204.793 52.1109Z" stroke="#263238" stroke-width="0.5" stroke-miterlimit="10"/>
<path d="M205.339 51.2046C205.339 51.6917 202.361 54.5703 202.326 55.2035C202.292 55.8366 205.098 55.8756 205.098 55.8756" fill="white"/>
<path d="M205.339 51.2046C205.339 51.6917 202.361 54.5703 202.326 55.2035C202.292 55.8366 205.098 55.8756 205.098 55.8756" stroke="#263238" stroke-linecap="round" stroke-linejoin="round"/>
<path d="M204.793 52.1107C204.793 52.1107 205.684 51.9208 206.432 52.9385" stroke="#263238" stroke-width="0.5" stroke-miterlimit="10"/>
<path d="M210.106 53.4404L211.072 53.5622L216.494 53.8836" stroke="#263238" stroke-width="0.5" stroke-miterlimit="10"/>
<path d="M226.608 75.1495L225.527 74.0146C225.527 74.0146 216.42 74.8962 212.395 79.4942C212.395 79.4942 204.92 76.5036 198.192 77.9599L197.997 80.0008L212.711 87.4578L218.461 85.4316L226.608 75.1495Z" fill="white" stroke="#263238" stroke-linecap="round" stroke-linejoin="round"/>
<path d="M228.086 74.4629L226.534 83.2302C226.534 83.2302 217.966 86.4156 216.184 88.9776L215.758 89.0264L213.746 89.265L212.659 88.9923C210 88.3365 207.291 87.8353 204.552 87.4921C203.601 87.3677 202.636 87.3366 201.677 87.3995L195.881 79.7476C195.881 79.7476 204.845 78.6956 211.043 80.4928L214.01 80.3175L214.12 80.2396C215.011 79.621 221.255 75.4176 228.086 74.4629Z" fill="#92E3A9"/>
<path opacity="0.3" d="M215.643 86.9802L214.12 80.2342C215.005 79.6205 221.249 75.4171 228.08 74.4624L226.528 83.2297C226.528 83.2297 217.96 86.4152 216.178 88.9772L215.752 89.0259L215.643 86.9802Z" fill="black" fill-opacity="0.7"/>
<path opacity="0.3" d="M212.694 87.4571L212.653 88.9865C209.994 88.3308 207.286 87.8296 204.546 87.4863C204.667 85.9392 205.382 84.468 206.58 83.2961C207.779 82.1242 209.397 81.3158 211.187 80.9937L212.694 87.4571Z" fill="black" fill-opacity="0.7"/>
<path d="M228.086 74.4629L226.534 83.2302C226.534 83.2302 217.966 86.4156 216.184 88.9776L215.758 89.0264L213.746 89.265L212.659 88.9923C210 88.3365 207.291 87.8353 204.552 87.4921C203.601 87.3677 202.636 87.3366 201.677 87.3995L195.881 79.7476C195.881 79.7476 204.845 78.6956 211.043 80.4928L214.01 80.3175L214.12 80.2396C215.011 79.621 221.255 75.4176 228.086 74.4629Z" stroke="#263238" stroke-linecap="round" stroke-linejoin="round"/>
<path d="M215.609 91.1152C212.538 90.9496 206.696 86.9653 206.696 86.9653C206.345 86.2218 205.851 85.5324 205.236 84.9245C204.402 84.2182 205.512 83.6289 205.512 83.6289C205.512 83.6289 204.54 83.098 203.988 82.8057C203.436 82.5135 204.402 81.7439 204.402 81.7439C204.402 81.7439 208.571 82.231 209.002 82.0995C209.433 81.9679 213.435 84.1598 214.056 84.2182C214.9 84.2313 215.731 84.0476 216.46 83.6873C216.874 83.3951 218.156 81.5685 218.99 81.213C219.824 80.8574 221.29 80.8623 220.588 81.627C219.887 82.3917 220.013 84.0965 219.668 84.3351C219.323 84.5738 218.754 87.1358 218.754 88.0174L223.296 91.534L220.709 94.5198L215.609 91.1152Z" fill="white" stroke="#263238" stroke-linecap="round" stroke-linejoin="round"/>
<path d="M205.495 83.6294C206.311 83.7067 207.107 83.8958 207.852 84.1894" stroke="#263238" stroke-linecap="round" stroke-linejoin="round"/>
<path d="M208.588 85.0225C208.588 85.0225 208.329 85.9138 208.26 86.0502C208.191 86.1866 209.117 87.0584 208.985 87.4578C208.853 87.8572 209.922 88.919 209.922 88.919" stroke="#263238" stroke-linecap="round" stroke-linejoin="round"/>
<path d="M207.542 86.0496C206.743 85.7242 205.974 85.3482 205.242 84.9248" stroke="#263238" stroke-linecap="round" stroke-linejoin="round"/>
<path d="M205.316 63.8685L207.306 67.2634L215.482 63.4253L217.282 66.8251L208.939 71.311L207.335 67.7992L204.092 70.444L202.993 66.1675L205.316 63.8685Z" fill="#757575" stroke="#263238" stroke-linecap="round" stroke-linejoin="round"/>
<path d="M230.748 71.5254C232.732 73.3227 239.787 86.5029 240.466 94.9925H218.973V94.2327L216.627 93.0686C216.627 93.0686 218.081 88.7337 222.227 89.4107L223.435 90.8719L226.108 92.5767C226.108 92.5767 230.8 92.6789 232.163 93.8236" fill="#757575"/>
<path d="M230.748 71.5254C232.732 73.3227 239.787 86.5029 240.466 94.9925H218.973V94.2327L216.627 93.0686C216.627 93.0686 218.081 88.7337 222.227 89.4107L223.435 90.8719L226.108 92.5767C226.108 92.5767 230.8 92.6789 232.163 93.8236" stroke="#263238" stroke-linecap="round" stroke-linejoin="round"/>
<path d="M226.108 92.5962C226.108 92.5962 228.713 89.4165 232.542 90.7605" stroke="#263238" stroke-linecap="round" stroke-linejoin="round"/>
<path d="M225.113 87.4575C225.949 88.7721 226.694 90.1269 227.344 91.5148" stroke="#263238" stroke-linecap="round" stroke-linejoin="round"/>
<path d="M189.855 82.5724C189.855 82.5724 188.262 74.711 188.705 71.9932L189.855 82.5724Z" fill="#757575"/>
<path d="M189.855 82.5724C189.855 82.5724 188.262 74.711 188.705 71.9932" stroke="#263238" stroke-linecap="round" stroke-linejoin="round"/>
<path d="M186.669 75.0566C186.669 75.0566 187.555 78.9191 189.544 80.9892L186.669 75.0566Z" fill="#757575"/>
<path d="M186.669 75.0566C186.669 75.0566 187.555 78.9191 189.544 80.9892" stroke="#263238" stroke-linecap="round" stroke-linejoin="round"/>
<path d="M173.479 75.7339C173.479 75.7339 175.98 77.4873 174.387 81.8613L173.479 75.7339Z" fill="#757575"/>
<path d="M173.479 75.7339C173.479 75.7339 175.98 77.4873 174.387 81.8613" stroke="#263238" stroke-linecap="round" stroke-linejoin="round"/>
<path d="M206.926 70.5803C206.926 70.671 206.895 70.7597 206.835 70.8351C206.775 70.9105 206.69 70.9692 206.591 71.0036C206.492 71.0381 206.383 71.0469 206.278 71.0289C206.173 71.0108 206.077 70.9667 206.002 70.9022C205.926 70.8377 205.875 70.7557 205.855 70.6666C205.835 70.5775 205.846 70.4853 205.888 70.4018C205.93 70.3182 206 70.2471 206.09 70.1974C206.179 70.1476 206.285 70.1216 206.392 70.1226C206.462 70.1226 206.532 70.1345 206.598 70.1575C206.663 70.1806 206.722 70.2144 206.772 70.2569C206.822 70.2995 206.861 70.35 206.887 70.4055C206.914 70.461 206.927 70.5204 206.926 70.5803Z" fill="#263238"/>
<path d="M205.512 77.2822C205.81 77.2822 206.052 77.0772 206.052 76.8244C206.052 76.5716 205.81 76.3667 205.512 76.3667C205.213 76.3667 204.971 76.5716 204.971 76.8244C204.971 77.0772 205.213 77.2822 205.512 77.2822Z" fill="#263238"/>
<path d="M204.695 91.3447C204.994 91.3447 205.236 91.1397 205.236 90.8869C205.236 90.6341 204.994 90.4292 204.695 90.4292C204.397 90.4292 204.155 90.6341 204.155 90.8869C204.155 91.1397 204.397 91.3447 204.695 91.3447Z" fill="#263238"/>
<path d="M134.736 49.5681H141.509L144.902 44.5951L141.509 39.627H134.736L131.349 44.5951L134.736 49.5681Z" stroke="#263238" stroke-linecap="round" stroke-linejoin="round"/>
<path d="M133.753 60.4691L130.366 55.501H123.593" stroke="#263238" stroke-linecap="round" stroke-linejoin="round"/>
<path d="M124.501 44.5954H131.274L134.661 39.6273L131.274 34.6543H124.501L121.114 39.6273L124.501 44.5954Z" stroke="#263238" stroke-linecap="round" stroke-linejoin="round"/>
<path d="M134.736 39.6272H141.509L144.902 34.6542L141.509 29.686H134.736L131.349 34.6542L134.736 39.6272Z" stroke="#263238" stroke-linecap="round" stroke-linejoin="round"/>
<path d="M133.753 39.6268C133.752 39.4732 133.804 39.3229 133.904 39.1948C134.004 39.0667 134.147 38.9667 134.314 38.9075C134.482 38.8483 134.666 38.8326 134.844 38.8623C135.022 38.892 135.185 38.9659 135.313 39.0744C135.442 39.183 135.529 39.3214 135.564 39.472C135.599 39.6227 135.58 39.7788 135.51 39.9204C135.44 40.0621 135.322 40.183 135.171 40.2677C135.02 40.3524 134.842 40.3971 134.661 40.3961C134.42 40.3961 134.189 40.3151 134.019 40.1708C133.848 40.0265 133.753 39.8308 133.753 39.6268Z" fill="#263238"/>
<path d="M120.516 29.9631C121.018 29.9631 121.425 29.6186 121.425 29.1937C121.425 28.7688 121.018 28.4243 120.516 28.4243C120.015 28.4243 119.608 28.7688 119.608 29.1937C119.608 29.6186 120.015 29.9631 120.516 29.9631Z" fill="#263238"/>
<path d="M132.844 60.4686C132.844 60.3164 132.898 60.1677 132.997 60.0411C133.097 59.9146 133.239 59.816 133.405 59.7578C133.571 59.6995 133.754 59.6843 133.93 59.714C134.106 59.7437 134.268 59.817 134.395 59.9246C134.522 60.0322 134.609 60.1692 134.644 60.3185C134.679 60.4677 134.661 60.6224 134.592 60.763C134.523 60.9036 134.407 61.0238 134.257 61.1083C134.108 61.1928 133.932 61.238 133.753 61.238C133.512 61.238 133.281 61.1569 133.11 61.0126C132.94 60.8683 132.844 60.6726 132.844 60.4686Z" fill="#263238"/>
<path d="M123.593 56.2697C124.094 56.2697 124.501 55.9252 124.501 55.5003C124.501 55.0754 124.094 54.731 123.593 54.731C123.091 54.731 122.684 55.0754 122.684 55.5003C122.684 55.9252 123.091 56.2697 123.593 56.2697Z" fill="#263238"/>
<path d="M151.445 34.7855C151.445 34.6321 151.499 34.4822 151.6 34.3548C151.7 34.2274 151.844 34.1282 152.011 34.0697C152.178 34.0112 152.362 33.9962 152.54 34.0265C152.717 34.0567 152.88 34.131 153.008 34.2397C153.136 34.3485 153.222 34.4869 153.257 34.6374C153.291 34.7879 153.273 34.9438 153.202 35.0851C153.132 35.2265 153.014 35.3471 152.863 35.4316C152.712 35.5161 152.535 35.5607 152.354 35.5597C152.234 35.5597 152.115 35.5396 152.005 35.5007C151.894 35.4617 151.794 35.4046 151.709 35.3326C151.625 35.2607 151.558 35.1753 151.513 35.0814C151.467 34.9875 151.444 34.8869 151.445 34.7855Z" fill="#263238"/>
<path d="M130.297 56.2697C130.799 56.2697 131.205 55.9252 131.205 55.5003C131.205 55.0754 130.799 54.731 130.297 54.731C129.795 54.731 129.388 55.0754 129.388 55.5003C129.388 55.9252 129.795 56.2697 130.297 56.2697Z" fill="#263238"/>
<path d="M143.97 34.7855C143.97 34.6323 144.024 34.4827 144.124 34.3553C144.225 34.228 144.368 34.1288 144.535 34.0702C144.702 34.0116 144.886 33.9962 145.063 34.0261C145.24 34.056 145.403 34.1297 145.531 34.238C145.659 34.3463 145.746 34.4842 145.781 34.6344C145.816 34.7846 145.798 34.9403 145.729 35.0818C145.66 35.2232 145.543 35.3442 145.392 35.4292C145.242 35.5143 145.065 35.5597 144.885 35.5597C144.642 35.5597 144.41 35.4781 144.238 35.3329C144.067 35.1877 143.97 34.9908 143.97 34.7855Z" fill="#263238"/>
<path d="M133.753 49.5682C133.752 49.4146 133.804 49.2643 133.904 49.1362C134.004 49.0081 134.147 48.9081 134.314 48.8489C134.482 48.7897 134.666 48.774 134.844 48.8037C135.022 48.8334 135.185 48.9073 135.313 49.0158C135.442 49.1244 135.529 49.2628 135.564 49.4134C135.599 49.5641 135.58 49.7202 135.51 49.8618C135.44 50.0035 135.322 50.1244 135.171 50.2091C135.02 50.2938 134.842 50.3385 134.661 50.3375C134.421 50.3363 134.19 50.2548 134.02 50.1108C133.85 49.9668 133.754 49.7718 133.753 49.5682Z" fill="#263238"/>
<path d="M144.902 34.7856H152.36" stroke="#263238" stroke-linecap="round" stroke-linejoin="round"/>
<path d="M134.661 49.5684L130.297 55.5009" stroke="#263238" stroke-linecap="round" stroke-linejoin="round"/>
<path d="M124.501 34.6539L120.516 29.1938" stroke="#263238" stroke-linecap="round" stroke-linejoin="round"/>
<path d="M116.693 73.5857C117.303 73.1201 117.989 72.7299 118.728 72.4268C118.758 72.5831 118.857 72.7238 119.006 72.8198C119.155 72.9158 119.341 72.9599 119.527 72.9429C119.936 72.8894 120.396 72.5485 120.677 72.7968C120.792 72.8942 120.815 73.05 120.936 73.1426C121.304 73.4299 121.931 72.8114 122.345 73.0452C122.454 73.1085 122.512 73.2156 122.627 73.2789C122.717 73.3121 122.815 73.3293 122.914 73.3293C123.013 73.3293 123.111 73.3121 123.202 73.2789C124.229 73.0807 125.283 73.0037 126.335 73.05L131.159 73.0793L130.791 72.9186" stroke="#263238" stroke-linecap="round" stroke-linejoin="round"/>
<path d="M116.434 76.9952C116.474 76.8352 116.579 76.6921 116.731 76.5908C116.882 76.4894 117.071 76.4361 117.264 76.4402C117.457 76.4442 117.643 76.5053 117.788 76.6129C117.934 76.7205 118.03 76.8678 118.061 77.0293C118.181 76.9821 118.287 76.9145 118.374 76.8307C118.461 76.7469 118.527 76.6487 118.567 76.5423C118.878 77.1315 119.838 77.1802 120.603 77.1364L124.012 76.9319C125.036 76.8686 126.232 76.7128 126.692 75.958C127.197 76.7391 127.399 77.6356 127.267 78.5193C127.583 77.8832 127.995 77.2842 128.491 76.7371C128.595 77.0488 128.698 77.3604 128.796 77.672C131.171 76.2648 134.42 77.1851 137.295 76.8783" stroke="#263238" stroke-linecap="round" stroke-linejoin="round"/>
<path d="M116.739 81.5099C116.728 81.4203 116.756 81.3305 116.819 81.2577C116.882 81.1849 116.974 81.1343 117.078 81.1155C117.11 81.2038 117.163 81.2856 117.234 81.3559C117.305 81.4261 117.392 81.4833 117.49 81.5239C117.588 81.5645 117.695 81.5876 117.804 81.5919C117.913 81.5962 118.022 81.5816 118.124 81.5489C118.535 81.403 118.886 81.1594 119.136 80.8477C119.222 80.9066 119.322 80.9494 119.428 80.9731C119.535 80.9968 119.647 81.001 119.756 80.9853C119.864 80.9697 119.968 80.9345 120.06 80.8822C120.151 80.8299 120.228 80.7617 120.286 80.6821C120.543 81.0339 120.755 81.4077 120.919 81.7972C121.229 81.1252 122.282 81.0181 123.138 81.023H130.038" stroke="#263238" stroke-linecap="round" stroke-linejoin="round"/>
<path d="M170.075 28.4975C168.428 28.4636 166.813 28.886 165.475 29.7006C163.819 30.5968 162.244 32.1067 162.658 33.7335C163.072 35.3603 165.337 36.2225 167.332 36.5488C169.048 36.8319 170.794 36.9625 172.542 36.9385C173.215 36.947 173.887 36.8865 174.543 36.7582C175.206 36.5991 175.849 36.3854 176.463 36.1202L180.914 34.3472C181.523 34.1037 182.207 33.792 182.374 33.2367C182.581 32.5499 181.885 31.9119 181.224 31.4979C178.726 29.9845 175.645 29.3268 172.599 29.6567" stroke="#263238" stroke-linecap="round" stroke-linejoin="round"/>
<path d="M164.791 32.1406C165.053 31.8918 165.391 31.7097 165.768 31.6147C165.693 31.801 165.693 32.0031 165.768 32.1893C165.872 32.3646 166.188 32.4523 166.343 32.3062C166.499 32.1601 166.533 31.9264 166.706 31.9994L166.913 32.389C167.194 32.3062 167.413 32.1114 167.689 32.0092C168.003 31.9199 168.338 31.8932 168.666 31.9313C171.135 32.0386 173.61 31.9751 176.066 31.7413" stroke="#263238" stroke-linecap="round" stroke-linejoin="round"/>
<path d="M168.816 34.235C168.852 34.1355 168.915 34.0444 168.999 33.9692C169.084 33.8939 169.189 33.8365 169.305 33.8016C169.172 33.9233 169.333 34.1327 169.529 34.1619C169.727 34.1649 169.924 34.13 170.104 34.0597C170.322 34.012 170.546 33.9858 170.771 33.9818L174.962 33.7383" stroke="#263238" stroke-linecap="round" stroke-linejoin="round"/>
<path d="M170.604 39.1841C169.391 42.8452 166.877 46.1011 163.403 48.5091C159.929 50.917 155.663 52.36 151.187 52.6419" stroke="#263238" stroke-linecap="round" stroke-linejoin="round"/>
<path d="M151.255 51.585C150.442 52.0104 149.717 52.5468 149.111 53.1724C149.47 53.1088 149.842 53.1306 150.187 53.2354C150.532 53.3403 150.836 53.5241 151.066 53.7665" stroke="#263238" stroke-linecap="round" stroke-linejoin="round"/>
<path d="M169.224 52.7437L169.747 53.7175L170.495 52.9677C170.635 53.056 170.733 53.1838 170.771 53.328C170.828 53.4643 170.914 53.6153 171.075 53.6542C171.236 53.6932 171.438 53.5082 171.317 53.4059C171.423 53.4665 171.543 53.5071 171.669 53.5247C171.795 53.5424 171.924 53.5367 172.047 53.5082C172.156 53.5082 172.254 53.44 172.363 53.4156C172.494 53.3915 172.627 53.3816 172.76 53.3864H180.528" stroke="#263238" stroke-linecap="round" stroke-linejoin="round"/>
<path d="M169.586 58.1015C169.623 58.0235 169.683 57.9549 169.76 57.9022C169.837 57.8495 169.929 57.8146 170.027 57.8009C170.124 57.7872 170.225 57.7951 170.318 57.8239C170.411 57.8527 170.494 57.9014 170.558 57.9652C170.584 58.0275 170.623 58.0853 170.673 58.1356C170.742 58.177 170.827 58.195 170.911 58.186C170.995 58.1769 171.072 58.1416 171.127 58.0869C171.254 57.9895 171.334 57.8581 171.466 57.7704C171.829 57.5318 172.346 57.7169 172.789 57.8191C173.356 57.9195 173.938 57.9458 174.514 57.897L178.924 57.7022" stroke="#263238" stroke-linecap="round" stroke-linejoin="round"/>
<path d="M169.724 62.242C169.871 62.2453 170.015 62.2068 170.133 62.1326C170.25 62.0584 170.335 61.9529 170.374 61.833C170.447 61.8434 170.515 61.8722 170.568 61.9156C170.621 61.9591 170.658 62.0151 170.673 62.0764C170.884 61.9659 171.065 61.8181 171.202 61.6431C174.042 61.6723 176.887 61.6723 179.735 61.6431" stroke="#263238" stroke-linecap="round" stroke-linejoin="round"/>
<path d="M169.719 65.3347C169.894 65.3962 170.091 65.4005 170.271 65.3465C170.45 65.2926 170.6 65.1843 170.69 65.0425C170.87 65.1661 170.996 65.3377 171.047 65.5294C171.16 65.4644 171.288 65.42 171.423 65.3991C171.557 65.3781 171.696 65.3811 171.829 65.4077C171.938 65.4077 172.047 65.471 172.156 65.4953C172.432 65.5552 172.718 65.5765 173.002 65.5586L182.915 65.4369" stroke="#263238" stroke-linecap="round" stroke-linejoin="round"/>
<path d="M143.102 85.0262L147.604 84.6562C147.648 84.661 147.693 84.6565 147.734 84.643C147.775 84.6295 147.812 84.6075 147.84 84.5789C147.869 84.5503 147.889 84.5161 147.898 84.4794C147.907 84.4427 147.905 84.4047 147.892 84.3688V81.9341C147.903 81.8532 147.878 81.7718 147.823 81.7053C147.785 81.6767 147.742 81.6546 147.695 81.6404C147.647 81.6262 147.597 81.6201 147.547 81.6225C146.569 81.5494 144.367 81.1355 143.522 81.6955C142.677 82.2555 143.108 84.1936 143.102 85.0262Z" stroke="#263238" stroke-linecap="round" stroke-linejoin="round"/>
<path d="M144.39 82.8545C144.448 83.0834 144.499 83.3122 144.557 83.546C145.239 83.4253 145.939 83.3941 146.633 83.4534" stroke="#263238" stroke-linecap="round" stroke-linejoin="round"/>
<path d="M146.684 86.0791C146.642 86.134 146.619 86.1977 146.618 86.2631C146.616 86.3285 146.636 86.393 146.676 86.4493C146.715 86.5055 146.772 86.5513 146.841 86.5814C146.91 86.6115 146.987 86.6247 147.064 86.6196C147.368 86.5709 147.61 86.2252 147.892 86.3323" stroke="#263238" stroke-linecap="round" stroke-linejoin="round"/>
<path d="M143.585 80.4634C143.642 80.3909 143.723 80.3339 143.817 80.2996C143.911 80.2652 144.016 80.2549 144.117 80.2699C144.218 80.2848 144.312 80.3245 144.387 80.3839C144.462 80.4434 144.515 80.52 144.54 80.6046L145.621 80.4974" stroke="#263238" stroke-linecap="round" stroke-linejoin="round"/>
<path d="M152.555 88.5387C154.088 88.5387 155.622 88.5387 157.155 88.5387C158.347 88.552 159.538 88.4917 160.72 88.3585C160.852 88.3524 160.978 88.3077 161.076 88.2319C161.158 88.1324 161.193 88.0109 161.174 87.8909V81.9681C161.174 81.8999 154.13 81.71 153.308 82.1922C151.652 83.176 152.555 87.0239 152.555 88.5387Z" stroke="#263238" stroke-linecap="round" stroke-linejoin="round"/>
<path d="M155.05 83.7217L156.149 83.746C155.951 84.3787 155.639 84.9815 155.223 85.5331C155.073 85.7035 154.895 85.9178 155.004 86.1077C155.579 86.1856 156.252 86.2294 156.614 85.8545C157.086 85.3675 156.672 84.603 157.028 84.0577L157.166 85.2117L157.644 85.5964C157.768 85.7139 157.924 85.8041 158.098 85.8594C158.185 85.8851 158.28 85.8846 158.367 85.858C158.454 85.8314 158.527 85.7803 158.575 85.7133" stroke="#263238" stroke-linecap="round" stroke-linejoin="round"/>
<path d="M158.247 89.5327C158.61 89.4207 158.759 89.9953 159.133 90.0781C159.507 90.1609 159.708 89.7421 160.024 89.5571C160.174 89.4728 160.355 89.4373 160.534 89.457C160.712 89.4766 160.876 89.5502 160.996 89.6642" stroke="#263238" stroke-linecap="round" stroke-linejoin="round"/>
<path d="M155.28 80.1611C155.625 80.2342 155.487 80.7211 155.746 80.9305C156.005 81.1399 156.436 80.9305 156.729 80.7309C157.023 80.5312 157.557 80.4436 157.667 80.7309" stroke="#263238" stroke-linecap="round" stroke-linejoin="round"/>
<path d="M243.766 94.8804H105.975V103.122H243.766V94.8804Z" fill="#BFBFBF" stroke="#263238" stroke-linecap="round" stroke-linejoin="round"/>
<path d="M218.271 98.1245H128.239V99.8775H218.271V98.1245Z" fill="#263238"/>
<path d="M179.298 99.015C179.298 99.2683 179.209 99.5159 179.043 99.7265C178.877 99.9371 178.641 100.101 178.364 100.198C178.088 100.295 177.784 100.321 177.491 100.271C177.197 100.222 176.928 100.1 176.716 99.9206C176.505 99.7415 176.361 99.5133 176.302 99.2649C176.244 99.0165 176.274 98.759 176.389 98.525C176.503 98.2909 176.697 98.0909 176.946 97.9502C177.194 97.8095 177.487 97.7344 177.786 97.7344C178.187 97.7344 178.571 97.8693 178.855 98.1095C179.139 98.3496 179.298 98.6754 179.298 99.015Z" fill="#92E3A9" stroke="#263238" stroke-linecap="round" stroke-linejoin="round"/>
<path d="M239.304 97.4233H235.578V100.579H239.304V97.4233Z" stroke="#263238" stroke-linecap="round" stroke-linejoin="round"/>
<path d="M233.054 97.4233H229.328V100.579H233.054V97.4233Z" stroke="#263238" stroke-linecap="round" stroke-linejoin="round"/>
<path d="M116.733 97.3887H110.241V100.612H116.733V97.3887Z" stroke="#263238" stroke-linecap="round" stroke-linejoin="round"/>
<path d="M110.166 18.3325H134.661" stroke="white" stroke-linecap="round" stroke-linejoin="round"/>
<path d="M240.276 18.2579C240.277 18.5 240.193 18.737 240.035 18.9388C239.877 19.1405 239.652 19.2979 239.388 19.391C239.124 19.4841 238.833 19.5087 238.553 19.4617C238.272 19.4147 238.015 19.2982 237.812 19.127C237.61 18.9558 237.473 18.7376 237.417 18.5C237.362 18.2625 237.391 18.0163 237.501 17.7928C237.611 17.5693 237.796 17.3784 238.035 17.2445C238.273 17.1106 238.553 17.0396 238.839 17.0405C239.22 17.0405 239.586 17.1688 239.855 17.3971C240.125 17.6254 240.276 17.935 240.276 18.2579V18.2579Z" stroke="white" stroke-linecap="round" stroke-linejoin="round"/>
<path d="M234.589 18.3316C234.589 18.5724 234.505 18.8078 234.347 19.0079C234.189 19.2081 233.965 19.3642 233.702 19.4563C233.439 19.5485 233.15 19.5726 232.871 19.5256C232.593 19.4786 232.336 19.3627 232.135 19.1924C231.934 19.0222 231.797 18.8053 231.742 18.5691C231.687 18.333 231.715 18.0882 231.824 17.8658C231.933 17.6433 232.117 17.4532 232.353 17.3194C232.59 17.1857 232.868 17.1143 233.152 17.1143C233.533 17.1143 233.899 17.2425 234.168 17.4708C234.438 17.6991 234.589 18.0088 234.589 18.3316V18.3316Z" stroke="white" stroke-linecap="round" stroke-linejoin="round"/>
<path d="M228.903 18.4097C228.902 18.6503 228.816 18.8852 228.658 19.0847C228.499 19.2843 228.274 19.4396 228.011 19.5309C227.749 19.6223 227.46 19.6458 227.181 19.5982C226.903 19.5507 226.647 19.4344 226.447 19.2639C226.246 19.0935 226.11 18.8766 226.055 18.6406C226 18.4046 226.029 18.16 226.138 17.9379C226.247 17.7157 226.431 17.5259 226.667 17.3923C226.903 17.2588 227.181 17.1875 227.465 17.1875C227.654 17.1875 227.842 17.2191 228.017 17.2806C228.191 17.3421 228.35 17.4322 228.484 17.5458C228.617 17.6593 228.723 17.7941 228.795 17.9424C228.867 18.0906 228.903 18.2495 228.903 18.4097V18.4097Z" stroke="white" stroke-linecap="round" stroke-linejoin="round"/>
<path d="M119.688 179.48H106.072L98.701 177.502L96.4011 176.884L95.7283 182.763L15.1027 182.889C15.1027 182.889 16.3331 180.259 18.3399 176.402C22.6696 168.077 30.6045 154.021 37.5447 148.278C43.1796 143.617 57.2555 143.485 57.2555 143.485C58.6925 142.678 60.3785 142.248 62.1027 142.248C64.6901 142.355 84.2514 144.152 85.4647 144.683C86.3093 145.098 87.0341 145.667 87.5864 146.349C87.5864 146.349 94.4403 143.782 101.174 146.096C107.907 148.41 119.688 179.48 119.688 179.48Z" fill="#BFBFBF"/>
<path opacity="0.2" d="M98.701 177.503L96.4011 176.884L95.7283 182.763L15.1027 182.89C15.1027 182.89 16.3331 180.26 18.3399 176.402C21.4506 176.339 24.9581 176.202 24.9581 176.202L26.7635 171.2C26.7635 171.2 29.5983 168.662 33.1402 170.158C33.0221 169.779 33.0467 169.379 33.2107 169.013C33.3746 168.647 33.6697 168.334 34.0545 168.117C35.4229 167.347 41.0349 169.817 41.0349 169.817C41.0349 169.817 43.7374 165.433 44.6574 162.564C45.5773 159.695 46.1868 166.622 46.1868 166.622C46.1868 166.622 48.4868 163.436 48.4868 162.564C48.4868 161.692 52.7303 171.2 52.7303 171.2C52.7303 171.2 58.3422 171.77 59.8602 172.257C61.3782 172.744 76.489 173.231 81.3535 172.257C86.2179 171.283 77.9035 177.128 77.9035 177.128C77.9035 177.128 86.4479 179.563 91.2779 177.965C96.1078 176.368 98.2698 174.658 98.2698 174.658C98.2698 174.658 98.448 175.842 98.701 177.503Z" fill="black" fill-opacity="0.7"/>
<path d="M119.688 179.48H106.072L98.701 177.502L96.4011 176.884L95.7283 182.763L15.1027 182.889C15.1027 182.889 16.3331 180.259 18.3399 176.402C22.6696 168.077 30.6045 154.021 37.5447 148.278C43.1796 143.617 57.2555 143.485 57.2555 143.485C58.6925 142.678 60.3785 142.248 62.1027 142.248C64.6901 142.355 84.2514 144.152 85.4647 144.683C86.3093 145.098 87.0341 145.667 87.5864 146.349C87.5864 146.349 94.4403 143.782 101.174 146.096C107.907 148.41 119.688 179.48 119.688 179.48Z" stroke="#263238" stroke-linecap="round" stroke-linejoin="round"/>
<path d="M94.2621 164.459C93.0647 165.889 91.6988 167.213 90.1854 168.409" stroke="#263238" stroke-linecap="round" stroke-linejoin="round"/>
<path d="M86.2006 171.249C80.3427 174.914 73.4578 177.223 66.2253 177.946" stroke="#263238" stroke-linecap="round" stroke-linejoin="round"/>
<path d="M111.38 169.588C111.38 169.588 113.473 168.487 115.307 168.848C117.141 169.208 118.659 170.743 118.659 170.743C118.659 170.743 133.885 169.676 137.341 169.768C140.796 169.861 148.53 171.78 148.53 171.78C148.53 171.78 152.279 171.137 152.681 171.269C153.084 171.4 151.871 182.208 151.871 182.208H102.421C99.9948 182.208 98.195 179.232 96.3723 176.894C99.5125 167.591 101.118 157.965 101.145 148.289" fill="#BFBFBF"/>
<path opacity="0.2" d="M124.949 182.198H102.433C100.006 182.198 98.2065 179.222 96.3838 176.884C98.1866 171.636 99.4694 166.269 100.219 160.84C100.219 160.84 102.611 163.845 101.156 167.328L102.611 163.845C102.611 163.845 104.008 167.576 102.611 170.737C101.214 173.898 100.219 174.804 100.219 174.804C100.219 174.804 101.944 176.714 103.772 176.202C105.601 175.691 107.59 178.788 107.59 178.788C107.59 178.788 111.983 178.93 112.898 178.788C113.317 178.725 119.004 180.386 124.949 182.198Z" fill="black" fill-opacity="0.7"/>
<path d="M111.38 169.588C111.38 169.588 113.473 168.487 115.307 168.848C117.141 169.208 118.659 170.743 118.659 170.743C118.659 170.743 133.885 169.676 137.341 169.768C140.796 169.861 148.53 171.78 148.53 171.78C148.53 171.78 152.279 171.137 152.681 171.269C153.084 171.4 151.871 182.208 151.871 182.208H102.421C99.9948 182.208 98.195 179.232 96.3723 176.894C99.5125 167.591 101.118 157.965 101.145 148.289" stroke="#263238" stroke-linecap="round" stroke-linejoin="round"/>
<path d="M83.113 135.931V146.335C81.556 147.234 79.9437 148.061 78.283 148.814C74.9308 150.32 70.6299 151.81 68.0711 150.962C63.4309 149.418 60.4237 143.486 60.4237 143.486C65.4319 140.252 66.0356 135.931 66.7946 133.876L83.113 135.931Z" fill="white" stroke="#263238" stroke-linecap="round" stroke-linejoin="round"/>
<path d="M57.9972 144.279C57.9972 144.279 62.2464 152.116 67.4041 153.534C72.5618 154.951 81.2959 149.418 81.2959 149.418" stroke="#263238" stroke-linecap="round" stroke-linejoin="round"/>
<path d="M34.7961 153.763C34.7961 153.763 42.8461 159.072 44.1973 160.86C45.5485 162.647 44.1973 179.481 44.1973 179.481" stroke="#263238" stroke-linecap="round" stroke-linejoin="round"/>
<path d="M23.8368 170.893C28.5805 168.302 31.9155 171.137 34.7962 171.648C37.6769 172.159 44.0478 169.403 48.826 171.648C53.6042 173.893 53.6042 173.109 53.6042 173.109C53.6042 173.109 58.6067 176.343 56.025 182.817L15.0854 182.88C15.0854 182.88 12.3542 177.936 21.3298 170.883" fill="#BFBFBF"/>
<path d="M23.8368 170.893C28.5805 168.302 31.9155 171.137 34.7962 171.648C37.6769 172.159 44.0478 169.403 48.826 171.648C53.6042 173.893 53.6042 173.109 53.6042 173.109C53.6042 173.109 58.6067 176.343 56.025 182.817L15.0854 182.88C15.0854 182.88 12.3542 177.936 21.3298 170.883" stroke="#263238" stroke-linecap="round" stroke-linejoin="round"/>
<path d="M63.9542 160.874L74.7583 177.615L75.0976 179.495L73.3726 178.194L62.2292 161.575C62.3931 161.32 62.648 161.114 62.9577 160.988C63.2674 160.862 63.6161 160.822 63.9542 160.874Z" fill="#92E3A9" stroke="#263238" stroke-linecap="round" stroke-linejoin="round"/>
<path d="M53.6962 173.986C54.5121 173.786 55.3503 173.657 56.1974 173.601C57.1117 173.601 62.7351 170.08 64.6441 169.817C66.5531 169.554 69.9858 171.965 71.7338 172.35C73.4817 172.734 73.3725 174.663 74.396 175.433C75.4195 176.202 73.9417 177.069 72.671 176.202C72.7617 176.503 72.7673 176.818 72.6874 177.121C72.6075 177.424 72.4443 177.707 72.211 177.946C72.211 177.946 72.556 178.998 72.211 179.48H51.9712C51.9712 179.48 51.6665 176.202 53.6962 173.986Z" fill="white" stroke="#263238" stroke-linecap="round" stroke-linejoin="round"/>
<path d="M72.7113 176.202L70.8885 174.678L66.2253 173.412" stroke="#263238" stroke-linecap="round" stroke-linejoin="round"/>
<path d="M72.2571 177.946L69.4683 176.885L65.6561 176.276" stroke="#263238" stroke-linecap="round" stroke-linejoin="round"/>
<path d="M65.6561 178.789L69.4683 178.935L72.2571 179.48" stroke="#263238" stroke-linecap="round" stroke-linejoin="round"/>
<path d="M64.6614 169.816C62.9364 171.097 64.6614 172.447 63.8391 173.411C63.0169 174.375 62.1141 174.663 62.8156 176.202" stroke="#263238" stroke-linecap="round" stroke-linejoin="round"/>
<path d="M89.2769 180.294H181.379C181.379 180.982 181.057 181.642 180.482 182.129C179.907 182.616 179.128 182.889 178.315 182.889H96.6656C96.3454 182.889 96.0272 182.846 95.7226 182.763L89.1619 180.971C89.0682 180.947 88.9878 180.895 88.9352 180.826C88.8825 180.756 88.8613 180.672 88.8752 180.59C88.8891 180.508 88.9373 180.433 89.011 180.379C89.0848 180.325 89.1791 180.294 89.2769 180.294Z" fill="#92E3A9"/>
<path opacity="0.2" d="M181.379 180.295C181.378 180.983 181.056 181.643 180.482 182.13L180.39 182.198C179.827 182.643 179.085 182.89 178.315 182.89H96.6655C96.3453 182.889 96.0272 182.847 95.7225 182.763L89.1619 180.971C89.0672 180.947 88.986 180.895 88.9334 180.824C88.8807 180.753 88.8602 180.669 88.8757 180.586C88.8911 180.503 88.9415 180.428 89.0174 180.375C89.0933 180.321 89.1895 180.293 89.2884 180.295H181.379Z" fill="black" fill-opacity="0.7"/>
<path opacity="0.2" d="M181.379 180.294C181.378 180.982 181.056 181.642 180.482 182.13L180.39 182.198H127.692C127.095 182.198 126.523 181.997 126.1 181.641C125.678 181.284 125.44 180.799 125.438 180.294H181.379Z" fill="black" fill-opacity="0.7"/>
<path d="M89.2769 180.294H181.379C181.379 180.982 181.057 181.642 180.482 182.129C179.907 182.616 179.128 182.889 178.315 182.889H96.6656C96.3454 182.889 96.0272 182.846 95.7226 182.763L89.1619 180.971C89.0682 180.947 88.9878 180.895 88.9352 180.826C88.8825 180.756 88.8613 180.672 88.8752 180.59C88.8891 180.508 88.9373 180.433 89.011 180.379C89.0848 180.325 89.1791 180.294 89.2769 180.294V180.294Z" stroke="#263238" stroke-linecap="round" stroke-linejoin="round"/>
<path d="M125.438 180.294C125.44 180.799 125.678 181.284 126.1 181.641C126.523 181.997 127.095 182.198 127.692 182.198H136.438" stroke="#263238" stroke-linecap="round" stroke-linejoin="round"/>
<path d="M197.865 148.269V148.332L187.147 179.919C186.987 180.324 186.685 180.679 186.281 180.936C185.878 181.193 185.391 181.339 184.887 181.356H129.055C128.844 181.37 128.631 181.339 128.438 181.265C128.244 181.192 128.076 181.079 127.947 180.935C127.819 180.792 127.735 180.624 127.704 180.447C127.672 180.269 127.694 180.087 127.767 179.919L138.473 148.332C138.632 147.926 138.934 147.571 139.338 147.314C139.742 147.057 140.228 146.911 140.733 146.895H196.565C196.77 146.88 196.976 146.908 197.165 146.976C197.354 147.044 197.521 147.151 197.649 147.287C197.778 147.423 197.865 147.584 197.902 147.755C197.94 147.926 197.927 148.103 197.865 148.269Z" fill="#92E3A9"/>
<path opacity="0.4" d="M197.864 148.269V148.332L187.147 179.919C186.987 180.325 186.685 180.679 186.281 180.936C185.878 181.193 185.391 181.339 184.887 181.356H129.423V181.293L140.124 149.706C140.283 149.3 140.585 148.945 140.989 148.689C141.392 148.432 141.879 148.286 142.383 148.269H197.864Z" fill="white"/>
<path d="M197.865 148.269V148.332L187.147 179.919C186.987 180.324 186.685 180.679 186.281 180.936C185.878 181.193 185.391 181.339 184.887 181.356H129.055C128.844 181.37 128.631 181.339 128.438 181.265C128.244 181.192 128.076 181.079 127.947 180.935C127.819 180.792 127.735 180.624 127.704 180.447C127.672 180.269 127.694 180.087 127.767 179.919L138.473 148.332C138.632 147.926 138.934 147.571 139.338 147.314C139.742 147.057 140.228 146.911 140.733 146.895H196.565C196.77 146.88 196.976 146.908 197.165 146.976C197.354 147.044 197.521 147.151 197.649 147.287C197.778 147.423 197.865 147.584 197.902 147.755C197.94 147.926 197.927 148.103 197.865 148.269Z" stroke="#263238" stroke-linecap="round" stroke-linejoin="round"/>
<path d="M166.832 164.707C166.356 165.536 165.624 166.241 164.712 166.744C163.801 167.248 162.745 167.532 161.657 167.566C159.311 167.566 157.925 166.027 158.569 164.128C158.954 163.156 159.679 162.306 160.648 161.691C161.616 161.076 162.782 160.725 163.992 160.684H164.095C163.987 160.872 163.898 161.067 163.831 161.269C163.169 163.154 164.521 164.678 166.832 164.707Z" fill="white" stroke="#263238" stroke-linecap="round" stroke-linejoin="round"/>
<path d="M129.71 179.807L140.158 148.975C140.251 148.739 140.427 148.532 140.662 148.382C140.898 148.233 141.181 148.147 141.475 148.137H195.593" stroke="#263238" stroke-linecap="round" stroke-linejoin="round"/>
<path d="M103.772 182.889H26.7233L27.6548 181.243C27.6548 181.243 34.9342 181.817 40.7014 180.293C43.2486 179.621 47.1701 179.319 51.103 179.358C53.5812 179.388 59.6129 179.407 63.3561 179.392C64.6901 179.392 65.7366 179.392 66.2311 179.363C66.4209 179.363 66.6106 179.363 66.8061 179.363C67.8736 179.352 68.9394 179.437 69.9858 179.616C70.9955 179.52 72.0115 179.477 73.0275 179.49C74.8043 179.49 82.4459 179.465 84.5274 179.49C87.2701 179.519 90.4384 179.977 93.4456 180.327L93.5261 180.303V180.337C97.16 180.766 100.564 181.058 102.726 180.303L103.772 182.889Z" fill="white"/>
<path opacity="0.4" d="M103.772 182.889H44.0478L45.261 181.121C45.261 181.121 48.5212 182.733 51.7067 181.608C54.8922 180.483 58.1006 179.87 63.3561 179.383C64.5021 179.279 65.6571 179.266 66.8061 179.344C69.0937 179.493 71.3431 179.926 73.4817 180.629C73.4817 180.629 76.6154 179.471 84.5274 179.471C87.2701 179.5 90.4383 179.958 93.4455 180.308L93.526 180.284V180.318C97.16 180.746 100.564 181.039 102.726 180.284L103.772 182.889Z" fill="#92E3A9"/>
<path d="M45.261 181.121L27.6777 181.243L26.7462 182.889H44.0478L45.261 181.121Z" fill="#92E3A9"/>
<path d="M44.5424 182.163L45.2611 181.121C46.8157 181.694 48.4933 181.99 50.1888 181.988C52.7648 181.925 56.8357 179.222 64.6614 179.354" stroke="#263238" stroke-linecap="round" stroke-linejoin="round"/>
<path d="M69.9686 179.607C71.4118 180.055 73.4645 180.639 73.4645 180.639C73.4645 180.639 76.121 179.344 81.9572 179.48" stroke="#263238" stroke-linecap="round" stroke-linejoin="round"/>
<path d="M45.261 181.121C45.261 181.121 36.1646 181.257 32.5249 181.326" stroke="#263238" stroke-linecap="round" stroke-linejoin="round"/>
<path d="M72.2512 182.889C72.3008 182.572 72.4667 182.275 72.7257 182.042C72.9846 181.809 73.3234 181.65 73.6945 181.589C74.9824 181.409 75.8162 182.757 75.8162 182.757" stroke="#263238" stroke-linecap="round" stroke-linejoin="round"/>
<path d="M73.4645 180.639L73.6945 181.589" stroke="#263238" stroke-linecap="round" stroke-linejoin="round"/>
<path d="M74.7583 181.589C74.7583 181.589 78.8523 180.006 82.8082 180.294" stroke="#263238" stroke-linecap="round" stroke-linejoin="round"/>
<path d="M73.0735 181.779C72.7112 181.54 66.5645 179.934 60.2741 181.122" stroke="#263238" stroke-linecap="round" stroke-linejoin="round"/>
<path d="M72.2512 182.437C72.2512 182.437 67.0763 181.605 62.5741 182.184" stroke="#263238" stroke-linecap="round" stroke-linejoin="round"/>
<path d="M75.3333 182.192C78.7683 181.381 82.3633 181.176 85.8959 181.589C89.3748 182.027 92.89 182.225 96.4068 182.183" stroke="#263238" stroke-linecap="round" stroke-linejoin="round"/>
<path d="M103.772 182.889H26.7233L27.6548 181.243C27.6548 181.243 34.9342 181.817 40.7014 180.293C43.2486 179.621 47.1701 179.319 51.103 179.358C53.5812 179.388 59.6129 179.407 63.3561 179.392C64.6901 179.392 65.7366 179.392 66.2311 179.363C66.4209 179.363 66.6106 179.363 66.8061 179.363C67.8736 179.352 68.9394 179.437 69.9858 179.616C70.9955 179.52 72.0115 179.477 73.0275 179.49C74.8043 179.49 82.4459 179.465 84.5274 179.49C87.2701 179.519 90.4384 179.977 93.4456 180.327L93.5261 180.303V180.337C97.16 180.766 100.564 181.058 102.726 180.303L103.772 182.889Z" stroke="#263238" stroke-linecap="round" stroke-linejoin="round"/>
<path d="M83.1129 144.606V146.335C81.5559 147.233 79.9437 148.061 78.283 148.814C74.5973 145.945 74.074 140.495 74.074 140.495L83.1129 144.606Z" fill="#263238"/>
<path d="M67.4041 134.645C63.0686 129.214 63.9541 119.059 69.5258 113.516C77.7137 105.421 99.0805 111.334 99.0633 122.77C99.0465 124.36 98.885 125.946 98.5803 127.515C98.2985 129.024 96.7518 130.549 96.2803 132.054C95.8088 133.559 95.9985 135.951 95.8088 137.412C95.3833 140.739 89.9496 147.338 88.4776 148.054C86.4191 149.029 75.293 146.384 72.8665 140.339" fill="white"/>
<path d="M67.4041 134.645C63.0686 129.214 63.9541 119.059 69.5258 113.516C77.7137 105.421 99.0805 111.334 99.0633 122.77C99.0465 124.36 98.885 125.946 98.5803 127.515C98.2985 129.024 96.7518 130.549 96.2803 132.054C95.8088 133.559 95.9985 135.951 95.8088 137.412C95.3833 140.739 89.9496 147.338 88.4776 148.054C86.4191 149.029 75.293 146.384 72.8665 140.339" stroke="#263238" stroke-linecap="round" stroke-linejoin="round"/>
<path d="M82.5667 127.933C82.5667 127.933 85.5969 126.998 88.3166 127.933" stroke="#263238" stroke-linecap="round" stroke-linejoin="round"/>
<path d="M94.5209 127.933C94.5209 127.933 96.7289 126.998 98.2066 127.933" stroke="#263238" stroke-linecap="round" stroke-linejoin="round"/>
<path d="M85.4014 132.297C85.2404 132.954 84.7114 133.422 84.2514 133.339C83.7914 133.256 83.4866 132.648 83.6476 131.985C83.8086 131.323 84.3376 130.861 84.8264 130.948C85.3151 131.036 85.5624 131.649 85.4014 132.297Z" fill="#263238"/>
<path d="M95.1533 132.297C94.9923 132.954 94.4633 133.422 94.0033 133.339C93.5433 133.256 93.2386 132.648 93.3996 131.985C93.5606 131.323 94.0838 130.861 94.5783 130.948C95.0728 131.036 95.3143 131.649 95.1533 132.297Z" fill="#263238"/>
<path d="M93.5606 128.932C93.5606 128.932 92.1174 131.051 91.9679 132.829C91.8184 134.607 94.2679 138.289 93.5606 139.443C92.8534 140.598 89.8462 140.539 88.8572 139.833" fill="white"/>
<path d="M93.5606 128.932C93.5606 128.932 92.1174 131.051 91.9679 132.829C91.8184 134.607 94.2679 138.289 93.5606 139.443C92.8534 140.598 89.8462 140.539 88.8572 139.833" stroke="#263238" stroke-linecap="round" stroke-linejoin="round"/>
<path d="M89.3919 142.161C87.4049 142.399 85.3789 142.154 83.5499 141.455" stroke="#263238" stroke-linecap="round" stroke-linejoin="round"/>
<path d="M71.751 129.639C71.751 129.639 73.1655 128.48 74.833 128.933C76.5005 129.385 76.8052 133.233 76.8052 133.233L78.0185 132.137C78.0185 132.137 77.5642 129.96 79.3812 126.906C81.1982 123.852 80.2897 120.258 80.2897 120.258C80.2897 120.258 83.4234 121.154 84.5102 123.209C84.5102 123.209 85.6947 121.027 84.5102 119.357C84.5102 119.357 89.3919 120.384 90.6051 123.468C90.6051 123.468 91.5653 121.154 91.2376 120C91.2376 120 94.5438 120.896 95.757 123.594C95.757 123.594 96.861 121.539 96.3838 119.868C96.3838 119.868 97.7178 120.842 98.2295 123.726C99.2255 121.968 99.5182 119.982 99.0633 118.071C99.0633 118.071 100.788 119.741 101.064 121.154C101.064 121.154 102.467 117.043 94.2621 111.52C86.0569 105.996 72.0098 107.248 69.8248 111.52C69.8248 111.52 70.5493 108.373 72.0098 107.248C72.0098 107.248 67.9848 108.768 68.0711 111.904C68.0711 111.904 64.5176 111.52 62.7006 113.448C63.8143 113.377 64.934 113.42 66.0356 113.575C66.0356 113.575 61.1827 116.01 61.4874 121.797C61.7922 127.583 66.0356 135.922 66.0356 135.922L69.3591 135.099C69.3591 135.099 69.8881 131.163 71.751 129.639Z" fill="#263238"/>
<path d="M75.4368 131.051C75.4368 131.051 72.8608 127.198 71.4981 126.94C70.1354 126.682 67.5536 128.226 68.1574 130.281C68.7611 132.337 69.2211 135.805 69.9801 136.189C70.7391 136.574 71.9523 138.888 73.1656 138.245C73.3252 138.175 73.4633 138.075 73.5689 137.952C73.6745 137.829 73.7446 137.687 73.7737 137.537C73.8028 137.386 73.7899 137.233 73.7363 137.088C73.6826 136.942 73.5895 136.81 73.4646 136.701" fill="white"/>
<path d="M75.4368 131.051C75.4368 131.051 72.8608 127.198 71.4981 126.94C70.1354 126.682 67.5536 128.226 68.1574 130.281C68.7611 132.337 69.2211 135.805 69.9801 136.189C70.7391 136.574 71.9523 138.888 73.1656 138.245C73.3252 138.175 73.4633 138.075 73.5689 137.952C73.6745 137.829 73.7446 137.687 73.7737 137.537C73.8028 137.386 73.7899 137.233 73.7363 137.088C73.6826 136.942 73.5895 136.81 73.4646 136.701" stroke="#263238" stroke-linecap="round" stroke-linejoin="round"/>
<path d="M104.25 160.84C103.989 161.789 103.655 162.723 103.249 163.635" stroke="#263238" stroke-linecap="round" stroke-linejoin="round"/>
<path d="M102.323 165.497C101.407 167.266 100.063 168.854 98.379 170.158" stroke="#263238" stroke-linecap="round" stroke-linejoin="round"/>
<path d="M118.671 170.743C117.883 170.655 116.279 171.497 114.807 172.583" stroke="#263238" stroke-linecap="round" stroke-linejoin="round"/>
<path d="M113.726 173.445C112.576 174.453 111.684 175.52 111.684 176.201" stroke="#263238" stroke-linecap="round" stroke-linejoin="round"/>
<path d="M30.1215 168.117C30.1215 168.117 33.3932 168.886 33.4219 171.262" stroke="#263238" stroke-linecap="round" stroke-linejoin="round"/>
<path d="M42.3804 155.142C42.9235 155.656 43.4176 156.207 43.8581 156.787" stroke="#263238" stroke-linecap="round" stroke-linejoin="round"/>
<path d="M45.1518 158.794C45.7954 159.977 46.1419 161.261 46.1696 162.564C46.1696 166.572 44.8068 168.896 44.8068 168.896" stroke="#263238" stroke-linecap="round" stroke-linejoin="round"/>
<path d="M62.2464 151.21C63.1139 151.893 64.0424 152.519 65.0236 153.08" stroke="#263238" stroke-linecap="round" stroke-linejoin="round"/>
<path d="M67.91 154.542C70.8483 155.799 74.649 156.743 78.5934 155.911" stroke="#263238" stroke-linecap="round" stroke-linejoin="round"/>
<g opacity="0.2">
<path opacity="0.2" d="M74.0741 111.723C75.1013 111.59 76.1402 111.533 77.1791 111.553" stroke="white" stroke-linecap="round" stroke-linejoin="round"/>
<path opacity="0.2" d="M78.6913 111.621C81.503 111.845 84.9645 112.677 87.1149 115.19" stroke="white" stroke-linecap="round" stroke-linejoin="round"/>
<path opacity="0.2" d="M80.8992 109.77C80.8992 109.77 86.1719 109.819 89.9496 112.054" stroke="white" stroke-linecap="round" stroke-linejoin="round"/>
<path opacity="0.2" d="M91.4331 113.142C92.1093 113.74 92.651 114.438 93.0316 115.201" stroke="white" stroke-linecap="round" stroke-linejoin="round"/>
<path opacity="0.2" d="M72.7113 113.628C72.7113 113.628 77.8862 115.172 79.686 117.934" stroke="white" stroke-linecap="round" stroke-linejoin="round"/>
<path opacity="0.2" d="M70.2043 115.192C71.3257 116.508 72.1324 117.997 72.5791 119.576" stroke="white" stroke-linecap="round" stroke-linejoin="round"/>
<path opacity="0.2" d="M72.901 121.743C72.9079 122.325 72.8443 122.906 72.7113 123.477" stroke="white" stroke-linecap="round" stroke-linejoin="round"/>
<path opacity="0.2" d="M66.7198 116.989C66.4535 117.562 66.2326 118.149 66.0586 118.747" stroke="white" stroke-linecap="round" stroke-linejoin="round"/>
<path opacity="0.2" d="M65.6504 120.447C65.3484 121.966 65.3252 123.515 65.5814 125.04" stroke="white" stroke-linecap="round" stroke-linejoin="round"/>
</g>
<path d="M134.581 191.55H207.145V182.89H5V191.55H45.8706" fill="white"/>
<path d="M134.581 191.55H207.145V182.89H5V191.55H45.8706" stroke="#263238" stroke-linecap="round" stroke-linejoin="round"/>
<path d="M129.371 191.55H119.067" stroke="#263238" stroke-linecap="round" stroke-linejoin="round"/>
</g>
<defs>
<filter id="filter0_d" x="0.5" y="13.8481" width="249.917" height="186.202" filterUnits="userSpaceOnUse" color-interpolation-filters="sRGB">
<feFlood flood-opacity="0" result="BackgroundImageFix"/>
<feColorMatrix in="SourceAlpha" type="matrix" values="0 0 0 0 0 0 0 0 0 0 0 0 0 0 0 0 0 0 127 0"/>
<feOffset dy="4"/>
<feGaussianBlur stdDeviation="2"/>
<feColorMatrix type="matrix" values="0 0 0 0 0 0 0 0 0 0 0 0 0 0 0 0 0 0 0.25 0"/>
<feBlend mode="normal" in2="BackgroundImageFix" result="effect1_dropShadow"/>
<feBlend mode="normal" in="SourceGraphic" in2="effect1_dropShadow" result="shape"/>
</filter>
</defs>
</svg>
