<svg width="646" height="619" viewBox="0 0 646 619" fill="none" xmlns="http://www.w3.org/2000/svg">
<g filter="url(#filter0_d)">
<g filter="url(#filter1_d)">
<path d="M240.29 458.49L151.238 502.407L47.9187 375.054L115.609 362.984L240.29 458.49Z" fill="#92E3A9"/>
<path opacity="0.5" d="M240.29 458.49L151.238 502.407L47.9187 375.054L115.609 362.984L240.29 458.49Z" fill="white"/>
<path d="M349.834 516.683C361.639 516.683 371.208 508.817 371.208 499.113C371.208 489.41 361.639 481.543 349.834 481.543C338.029 481.543 328.459 489.41 328.459 499.113C328.459 508.817 338.029 516.683 349.834 516.683Z" fill="#92E3A9"/>
<path opacity="0.5" d="M349.834 516.683C361.639 516.683 371.208 508.817 371.208 499.113C371.208 489.41 361.639 481.543 349.834 481.543C338.029 481.543 328.459 489.41 328.459 499.113C328.459 508.817 338.029 516.683 349.834 516.683Z" fill="white"/>
<path d="M266.127 399.359L396.619 412.104L367.656 393.728L266.127 399.359Z" fill="#92E3A9"/>
<path opacity="0.5" d="M266.127 399.359L396.619 412.104L367.656 393.728L266.127 399.359Z" fill="white"/>
<path d="M295.517 349.813L256.802 345.911L261.665 338.83H283.934L295.517 349.813Z" fill="#92E3A9"/>
<path opacity="0.5" d="M295.517 349.813L256.802 345.911L261.665 338.83H283.934L295.517 349.813Z" fill="white"/>
<path d="M421.051 540.282C436.051 540.282 448.211 531.191 448.211 519.978C448.211 508.765 436.051 499.675 421.051 499.675C406.052 499.675 393.892 508.765 393.892 519.978C393.892 531.191 406.052 540.282 421.051 540.282Z" fill="#92E3A9"/>
<path opacity="0.5" d="M421.051 540.282C436.051 540.282 448.211 531.191 448.211 519.978C448.211 508.765 436.051 499.675 421.051 499.675C406.052 499.675 393.892 508.765 393.892 519.978C393.892 531.191 406.052 540.282 421.051 540.282Z" fill="white"/>
<path d="M260.114 472.836L245.486 502.46L277.882 510.199L290.426 480.576L260.114 472.836Z" fill="white" stroke="#263238" stroke-linecap="round" stroke-linejoin="round"/>
<path d="M285.202 439.361L270.574 466.399L300.873 477.992L313.417 450.954L285.202 439.361Z" fill="#92E3A9"/>
<path opacity="0.5" d="M285.202 439.361L270.574 466.399L300.873 477.992L313.417 450.954L285.202 439.361Z" fill="white" stroke="#263238" stroke-miterlimit="10"/>
<path d="M285.202 439.361L270.574 466.399L300.873 477.992L313.417 450.954L285.202 439.361Z" stroke="#263238" stroke-linecap="round" stroke-linejoin="round"/>
<path d="M317.598 490.882L291.468 499.889L301.914 520.505L332.226 511.481L317.598 490.882Z" fill="#92E3A9" stroke="#263238" stroke-linecap="round" stroke-linejoin="round"/>
<path d="M392.141 485.599L394.813 510.611C394.813 520.969 405.032 529.383 417.643 529.383C430.254 529.383 440.488 520.969 440.488 510.611L443.24 485.599H392.141Z" fill="#92E3A9" stroke="#263238" stroke-linecap="round" stroke-linejoin="round"/>
<path d="M417.671 506.625C431.8 506.625 443.254 497.211 443.254 485.597C443.254 473.984 431.8 464.569 417.671 464.569C403.542 464.569 392.088 473.984 392.088 485.597C392.088 497.211 403.542 506.625 417.671 506.625Z" fill="#92E3A9" stroke="#263238" stroke-linecap="round" stroke-linejoin="round"/>
<path d="M417.671 503.479C429.69 503.479 439.433 495.472 439.433 485.596C439.433 475.72 429.69 467.713 417.671 467.713C405.652 467.713 395.909 475.72 395.909 485.596C395.909 495.472 405.652 503.479 417.671 503.479Z" fill="#92E3A9" stroke="#263238" stroke-linecap="round" stroke-linejoin="round"/>
<path d="M417.671 503.495C429.484 503.495 439.059 496.934 439.059 488.84C439.059 480.746 429.484 474.185 417.671 474.185C405.859 474.185 396.283 480.746 396.283 488.84C396.283 496.934 405.859 503.495 417.671 503.495Z" fill="#263238" stroke="#263238" stroke-linecap="round" stroke-linejoin="round"/>
<path d="M425.379 437.597C421.665 434.649 416.028 434.913 413.77 440.363C410.43 448.3 412.821 463.004 411.619 465.063C410.417 467.121 406.85 467.714 405.18 463.301C403.51 458.888 403.51 453.009 401.359 452.713C399.209 452.416 396.35 453.602 395.869 460.37C395.388 467.138 396.35 474.778 400.17 478.302C403.991 481.826 408.279 480.657 409.522 482.139C410.764 483.621 409.522 485.926 409.522 487.441C409.522 494.028 416.509 497.321 420.93 495.674C427.37 493.319 426.662 485.366 427.61 482.139C428.558 478.911 433.822 478.598 435.732 473.609C437.643 468.62 440.502 458.591 436.44 454.771C432.379 450.951 429.28 452.713 428.812 456.83C428.256 460.099 427.358 463.265 426.141 466.248C428.999 459.283 431.805 442.701 425.379 437.597Z" fill="#92E3A9"/>
<path opacity="0.2" d="M425.379 437.597C421.665 434.649 416.028 434.913 413.77 440.363C410.43 448.3 412.821 463.004 411.619 465.063C410.417 467.121 406.85 467.714 405.18 463.301C403.51 458.888 403.51 453.009 401.359 452.713C399.209 452.416 396.35 453.602 395.869 460.37C395.388 467.138 396.35 474.778 400.17 478.302C403.991 481.826 408.279 480.657 409.522 482.139C410.764 483.621 409.522 485.926 409.522 487.441C409.522 494.028 416.509 497.321 420.93 495.674C427.37 493.319 426.662 485.366 427.61 482.139C428.558 478.911 433.822 478.598 435.732 473.609C437.643 468.62 440.502 458.591 436.44 454.771C432.379 450.951 429.28 452.713 428.812 456.83C428.256 460.099 427.358 463.265 426.141 466.248C428.999 459.283 431.805 442.701 425.379 437.597Z" fill="black"/>
<path d="M425.379 437.597C421.665 434.649 416.028 434.913 413.77 440.363C410.43 448.3 412.821 463.004 411.619 465.063C410.417 467.121 406.85 467.714 405.18 463.301C403.51 458.888 403.51 453.009 401.359 452.713C399.209 452.416 396.35 453.602 395.869 460.37C395.388 467.138 396.35 474.778 400.17 478.302C403.991 481.826 408.279 480.657 409.522 482.139C410.764 483.621 409.522 485.926 409.522 487.441C409.522 494.028 416.509 497.321 420.93 495.674C427.37 493.319 426.662 485.366 427.61 482.139C428.558 478.911 433.822 478.598 435.732 473.609C437.643 468.62 440.502 458.591 436.44 454.771C432.379 450.951 429.28 452.713 428.812 456.83C428.256 460.099 427.358 463.265 426.141 466.248C428.999 459.283 431.805 442.701 425.379 437.597Z" stroke="#263238" stroke-linecap="round" stroke-linejoin="round"/>
<path d="M419.502 439.771C418.418 440.65 417.511 441.821 416.849 443.197C416.187 444.572 415.788 446.114 415.681 447.708C415.441 453.01 415.681 469.773 414.011 472.128C412.341 474.483 406.851 473.89 403.324 469.773C399.797 465.657 401.36 456.847 401.36 456.847" stroke="#263238" stroke-width="0.5" stroke-linecap="round" stroke-linejoin="round"/>
<path d="M402.415 474.959C403.652 476.146 405.083 476.988 406.61 477.429C410.911 478.598 414.011 475.963 414.732 478.598C415.454 481.233 414.011 490.668 414.011 490.668" stroke="#263238" stroke-width="0.5" stroke-linecap="round" stroke-linejoin="round"/>
<path d="M399.929 471.833C400.374 472.606 400.884 473.319 401.452 473.958" stroke="#263238" stroke-width="0.5" stroke-linecap="round" stroke-linejoin="round"/>
<path d="M419.42 485.844C419.661 481.459 419.688 477.06 419.501 472.671C419.073 466.084 421.558 453.85 422.172 448.317" stroke="#263238" stroke-width="0.5" stroke-linecap="round" stroke-linejoin="round"/>
<path d="M419.02 492.729C419.02 492.729 419.154 490.934 419.301 488.3" stroke="#263238" stroke-width="0.5" stroke-linecap="round" stroke-linejoin="round"/>
<path d="M435.545 463.254C435.666 461.821 435.733 460.949 435.733 460.949" stroke="#263238" stroke-width="0.5" stroke-linecap="round" stroke-linejoin="round"/>
<path d="M424.27 487.424C424.27 487.424 425.232 477.726 427.142 475.898C429.052 474.07 434.53 472.95 435.01 468.537C435.091 467.846 435.157 467.187 435.224 466.578" stroke="#263238" stroke-width="0.5" stroke-linecap="round" stroke-linejoin="round"/>
<path d="M432.392 457.126C431.891 457.54 431.492 458.114 431.238 458.788C430.983 459.461 430.883 460.208 430.949 460.946C431.047 462.709 430.742 464.47 430.069 466.03C429.396 467.591 428.382 468.887 427.142 469.772" stroke="#263238" stroke-width="0.5" stroke-linecap="round" stroke-linejoin="round"/>
<path d="M422.44 444.958C422.511 443.311 422.484 441.66 422.36 440.018" stroke="#263238" stroke-width="0.5" stroke-linecap="round" stroke-linejoin="round"/>
<path d="M331.466 438.503L335.006 484.445V489.303C335.006 495.89 342.514 501.109 351.785 501.109C361.056 501.109 368.564 495.824 368.564 489.303V484.445L371.784 438.026L331.466 438.503Z" fill="white" stroke="#263238" stroke-linecap="round" stroke-linejoin="round"/>
<path d="M368.723 481.957L370.58 455.198C368.082 459.99 360.627 463.432 351.81 463.432C342.526 463.432 334.764 459.579 332.694 454.392L334.804 481.792C338.224 485.299 344.543 487.671 351.81 487.671C359.078 487.671 365.303 485.415 368.723 481.957Z" fill="#92E3A9" stroke="#263238" stroke-linecap="round" stroke-linejoin="round"/>
<path d="M332.135 447.164V446.851L331.96 445.006L332.135 447.164Z" fill="white" stroke="#263238" stroke-linecap="round" stroke-linejoin="round"/>
<path d="M372.424 431.687C368.871 426.154 360.976 422.284 351.784 422.284C342.593 422.284 334.698 426.154 331.131 431.687H329.114V438.273C329.114 447.099 339.267 454.246 351.825 454.246C364.382 454.246 374.535 447.099 374.535 438.273V431.687H372.424Z" fill="#92E3A9" stroke="#263238" stroke-linecap="round" stroke-linejoin="round"/>
<path opacity="0.2" d="M372.424 431.687C368.871 426.154 360.976 422.284 351.784 422.284C342.593 422.284 334.698 426.154 331.131 431.687H329.114V438.273C329.114 447.099 339.267 454.246 351.825 454.246C364.382 454.246 374.535 447.099 374.535 438.273V431.687H372.424Z" fill="black"/>
<path d="M351.784 447.66C364.305 447.66 374.455 440.508 374.455 431.687C374.455 422.866 364.305 415.714 351.784 415.714C339.264 415.714 329.114 422.866 329.114 431.687C329.114 440.508 339.264 447.66 351.784 447.66Z" fill="white" stroke="#263238" stroke-linecap="round" stroke-linejoin="round"/>
<path d="M369.819 422.778C366.707 417.937 359.813 414.544 351.784 414.544C343.756 414.544 336.862 417.92 333.75 422.778H332.026V428.508C332.026 436.214 340.883 442.455 351.825 442.455C362.766 442.455 371.623 436.214 371.623 428.508V422.778H369.819Z" fill="#92E3A9" stroke="#263238" stroke-linecap="round" stroke-linejoin="round"/>
<path d="M351.785 436.724C362.719 436.724 371.583 430.48 371.583 422.777C371.583 415.074 362.719 408.83 351.785 408.83C340.85 408.83 331.986 415.074 331.986 422.777C331.986 430.48 340.85 436.724 351.785 436.724Z" fill="white" stroke="#263238" stroke-linecap="round" stroke-linejoin="round"/>
<path d="M151.958 287.339C151.958 287.339 153.508 286.071 163.34 291.159C173.173 296.247 177.033 295.144 186.598 293.069C198.087 290.599 207.626 288.129 208.775 293.859C210.765 303.739 202.723 303.624 188.255 305.534C173.787 307.444 165.397 301.994 160.749 299.441C158.609 298.358 156.537 297.082 154.55 295.621L151.958 287.339Z" fill="white" stroke="#263238" stroke-linecap="round" stroke-linejoin="round"/>
<path d="M129.729 292.444C129.729 292.444 142.661 310.92 148.338 305.815C154.016 300.711 153.508 284.162 148.338 279.057C143.168 273.952 128.701 283.519 129.729 292.444Z" fill="white" stroke="#263238" stroke-linecap="round" stroke-linejoin="round"/>
<path d="M169.044 241.465C169.044 241.465 169.565 258.673 165.945 270.134C162.325 281.594 155.605 289.251 154.576 295.624C153.548 301.996 154.055 310.921 148.885 313.474C143.715 316.026 143.715 311.564 144.236 306.459C144.757 301.354 145.786 282.253 145.786 282.253L128.7 294.982C128.7 294.982 133.349 310.921 123.53 312.831C113.711 314.742 101.821 296.266 100.272 282.302C98.7219 268.339 104.921 237.052 115.781 228.769C126.642 220.487 140.589 221.771 147.843 221.771C155.097 221.771 165.918 228.094 169.044 241.465Z" fill="white" stroke="#263238" stroke-linecap="round" stroke-linejoin="round"/>
<path d="M127.832 223.778C127.832 223.778 125.16 225.425 120.498 234.465C115.836 243.505 125.16 251.294 130.17 247.194C135.18 243.093 130.825 234.465 134.498 230.348C136.612 228.138 138.03 225.085 138.506 221.72L127.832 223.778Z" fill="#263238"/>
<path d="M112.843 236.506C111.649 237.557 110.646 238.904 109.898 240.461C109.15 242.018 108.675 243.75 108.501 245.546C108.167 251.293 116.517 240.606 117.505 235.666C118.494 230.726 112.843 236.506 112.843 236.506Z" fill="#263238"/>
<path d="M142.66 223.631C141.475 226.286 140.897 229.288 140.988 232.316C141.08 235.344 141.838 238.284 143.181 240.823C147.83 249.747 158.17 253.568 162.298 247.195C166.426 240.823 167.989 237.644 166.439 234.466C164.89 231.288 149.901 218.527 142.66 223.631Z" fill="#92E3A9" stroke="#263238" stroke-linecap="round" stroke-linejoin="round"/>
<path d="M180.908 192.406C178.946 192.668 176.961 192.406 175.089 191.636C173.216 190.865 171.501 189.606 170.06 187.943C164.89 182.213 160.228 169.468 158.171 170.094C156.113 170.719 148.819 189.211 148.819 189.211C148.819 189.211 136.409 190.496 135.38 194.942C134.351 199.388 140.029 220.432 144.731 229.357C146.924 233.332 149.844 236.617 153.254 238.948C156.665 241.279 160.472 242.591 164.369 242.777C170.568 242.777 189.177 244.687 191.769 237.03C194.361 229.373 192.277 206.452 192.277 206.452C192.277 206.452 200.559 196.259 196.939 194.349C193.319 192.439 180.908 192.406 180.908 192.406Z" fill="white" stroke="#263238" stroke-linecap="round" stroke-linejoin="round"/>
<path d="M178.396 224.288C177.768 223.284 177.167 222.263 176.579 221.209C175.604 219.431 173.293 216.714 168.844 218.443C162.512 220.896 158.157 228.323 165.184 234.465C171.797 240.31 185.076 235.041 178.396 224.288Z" fill="#263238"/>
<path d="M148.86 189.216C148.86 189.216 156.101 194.321 160.229 192.411C164.357 190.501 161.778 168.83 158.171 170.098C154.564 171.366 148.339 180.933 148.86 189.216Z" fill="white" stroke="#263238" stroke-linecap="round" stroke-linejoin="round"/>
<path d="M196.938 194.32C196.938 194.32 190.259 193.678 186.077 199.409C181.896 205.139 184.528 210.935 190.218 212.154C195.909 213.372 198.995 194.32 196.938 194.32Z" fill="white" stroke="#263238" stroke-linecap="round" stroke-linejoin="round"/>
<path d="M156.621 230.002C156.621 230.002 149.942 223.629 151.451 228.718C152.961 233.806 155.579 234.464 158.131 233.18C160.682 231.896 156.621 230.002 156.621 230.002Z" fill="#92E3A9" stroke="#263238" stroke-linecap="round" stroke-linejoin="round"/>
<path d="M152.933 214.029C152.546 215.676 151.45 216.828 150.489 216.499C149.527 216.17 149.059 214.523 149.446 212.827C149.834 211.131 150.929 210.028 151.891 210.357C152.853 210.686 153.321 212.349 152.933 214.029Z" fill="#263238"/>
<path d="M168.871 229.065C167.628 229.954 166.199 229.822 165.718 228.752C165.237 227.682 165.798 226.117 167.054 225.228C167.513 224.778 168.093 224.559 168.678 224.614C169.262 224.669 169.809 224.994 170.207 225.525C170.688 226.595 170.1 228.176 168.871 229.065Z" fill="white"/>
<path d="M122.502 269.504C122.502 269.504 120.952 283.517 123.01 289.264C125.067 295.011 127.151 316.665 131.292 317.257C135.434 317.85 133.871 305.731 133.871 303.87C133.871 302.009 134.392 281.574 134.392 281.574C134.392 281.574 138.012 272.007 140.069 266.919" fill="white"/>
<path d="M122.502 269.504C122.502 269.504 120.952 283.517 123.01 289.264C125.067 295.011 127.151 316.665 131.292 317.257C135.434 317.85 133.871 305.731 133.871 303.87C133.871 302.009 134.392 281.574 134.392 281.574C134.392 281.574 138.012 272.007 140.069 266.919" stroke="#263238" stroke-linecap="round" stroke-linejoin="round"/>
<path d="M105.441 268.865C105.441 268.865 119.402 263.76 120.951 282.878" stroke="#263238" stroke-linecap="round" stroke-linejoin="round"/>
<path d="M145.761 282.301C145.761 282.301 157.65 274.644 158.171 258.078" stroke="#263238" stroke-linecap="round" stroke-linejoin="round"/>
</g>
<path d="M21 310.772L29.8036 308.318" stroke="#263238" stroke-linecap="round" stroke-linejoin="round"/>
<path d="M94.4753 374.808L165.466 349.993C167.722 349.697 169.992 350.372 171.891 351.903L287.408 442.881C287.9 443.273 288.282 443.842 288.503 444.511C288.725 445.179 288.774 445.916 288.644 446.62C288.514 447.325 288.212 447.963 287.778 448.449C287.344 448.934 286.8 449.244 286.219 449.336L189.071 486.632L94.4753 374.808Z" fill="#92E3A9" stroke="#263238" stroke-linecap="round" stroke-linejoin="round"/>
<path d="M135.982 380.043L146.042 388.589L157.664 384.539L147.618 376.009L135.982 380.043Z" fill="#263238"/>
<path d="M142.247 403.938L132.201 395.392L120.566 399.442L130.625 407.989L142.247 403.938Z" fill="#263238"/>
<path d="M161.258 385.281L171.304 393.811L182.926 389.76L172.88 381.23L161.258 385.281Z" fill="#263238"/>
<path d="M172.973 395.226L183.019 403.756L194.642 399.705L184.596 391.175L172.973 395.226Z" fill="#263238"/>
<path d="M147.698 389.988L157.744 398.535L169.366 394.484L159.32 385.954L147.698 389.988Z" fill="#263238"/>
<path d="M122.422 384.768L132.468 393.314L144.104 389.263L134.045 380.717L122.422 384.768Z" fill="#263238"/>
<path d="M202.643 438.995L192.584 430.449L180.975 434.5L191.021 443.046L202.643 438.995Z" fill="#263238"/>
<path d="M189.071 443.72L179.025 435.174L167.402 439.225L177.462 447.754L189.071 443.72Z" fill="#263238"/>
<path d="M153.95 413.883L143.904 405.336L132.281 409.387L142.327 417.917L153.95 413.883Z" fill="#263238"/>
<path d="M214.346 448.939L204.3 440.409L192.678 444.444L202.724 452.99L214.346 448.939Z" fill="#263238"/>
<path d="M165.666 423.828L155.607 415.282L143.984 419.333L154.044 427.862L165.666 423.828Z" fill="#263238"/>
<path d="M177.369 433.772L167.323 425.226L155.7 429.276L165.746 437.822L177.369 433.772Z" fill="#263238"/>
<path d="M184.676 405.169L194.722 413.699L206.344 409.648L196.298 401.119L184.676 405.169Z" fill="#263238"/>
<path d="M134.139 394.713L144.185 403.259L155.807 399.208L145.761 390.679L134.139 394.713Z" fill="#263238"/>
<path d="M227.906 444.213L217.86 435.683L206.237 439.734L216.283 448.263L227.906 444.213Z" fill="#263238"/>
<path d="M192.785 414.376L182.739 405.846L171.116 409.88L181.162 418.427L192.785 414.376Z" fill="#263238"/>
<path d="M167.509 409.157L157.463 400.611L145.841 404.662L155.887 413.208L167.509 409.157Z" fill="#263238"/>
<path d="M118.829 384.046L112.951 379.04L105.002 381.79L109.651 387.24L118.829 384.046Z" fill="#263238"/>
<path d="M130.532 393.992L120.485 385.446L110.96 388.772L118.829 397.96L118.909 398.026L130.532 393.992Z" fill="#263238"/>
<path d="M159.4 399.952L169.46 408.481L181.082 404.431L171.023 395.901L159.4 399.952Z" fill="#263238"/>
<path d="M179.226 419.101L169.18 410.572L157.557 414.606L167.603 423.152L179.226 419.101Z" fill="#263238"/>
<path d="M229.762 429.54L219.716 421.01L208.093 425.061L218.139 433.591L229.762 429.54Z" fill="#263238"/>
<path d="M196.378 415.117L206.438 423.646L218.06 419.596L208.014 411.066L196.378 415.117Z" fill="#263238"/>
<path d="M216.203 434.266L206.157 425.737L194.535 429.788L204.581 438.317L216.203 434.266Z" fill="#263238"/>
<path d="M204.488 424.323L194.442 415.793L182.82 419.827L192.879 428.373L204.488 424.323Z" fill="#263238"/>
<path d="M190.928 429.048L180.882 420.518L169.26 424.552L179.306 433.099L190.928 429.048Z" fill="#263238"/>
<path d="M140.391 418.592L130.345 410.062L129.45 410.375L137.372 419.646L140.391 418.592Z" fill="#263238"/>
<path d="M229.576 445.63L217.953 449.681L230.003 459.907L241.332 455.609L229.576 445.63Z" fill="#263238"/>
<path d="M216.003 450.354L204.38 454.389L216.791 464.927L228.106 460.63L216.003 450.354Z" fill="#263238"/>
<path d="M163.809 438.483L153.763 429.953L147.925 431.979L155.86 441.266L163.809 438.483Z" fill="#263238"/>
<path d="M241.478 439.489L231.419 430.959L219.797 435.01L229.856 443.539L241.478 439.489Z" fill="#263238"/>
<path d="M175.512 448.448L165.466 439.901L157.17 442.8L165.092 452.07L175.512 448.448Z" fill="#263238"/>
<path d="M187.227 458.389L177.181 449.843L166.4 453.598L174.335 462.868L187.227 458.389Z" fill="#263238"/>
<path d="M200.786 453.668L190.74 445.122L179.118 449.172L189.164 457.718L200.786 453.668Z" fill="#263238"/>
<path d="M266.435 440.263L259.755 435.109L245.06 440.23L256.415 449.879L265.259 446.586C265.842 446.523 266.393 446.235 266.834 445.761C267.275 445.288 267.583 444.654 267.714 443.952C267.844 443.249 267.791 442.514 267.561 441.851C267.331 441.188 266.937 440.632 266.435 440.263Z" fill="#263238"/>
<path d="M188.884 459.792L175.645 464.403L186.065 476.588L201.682 470.66L188.884 459.792Z" fill="#263238"/>
<path d="M247.357 425.409L233.37 430.283L243.416 438.813L258.044 433.725L247.357 425.409Z" fill="#263238"/>
<path d="M243.136 440.905L231.513 444.956L243.216 454.901L254.545 450.604L243.136 440.905Z" fill="#263238"/>
<path d="M161.457 369.192L170.956 365.882L164.824 361.106L155.66 364.268L161.457 369.192Z" fill="#263238"/>
<path d="M214.894 465.655L202.444 455.066L190.821 459.117L203.566 469.952L214.894 465.655Z" fill="#263238"/>
<path d="M163.115 370.608L173.161 379.138L183.407 375.581L172.72 367.266L163.115 370.608Z" fill="#263238"/>
<path d="M186.533 390.499L196.579 399.028L208.281 394.961L197.607 386.646L186.533 390.499Z" fill="#263238"/>
<path d="M174.817 380.553L184.877 389.083L195.845 385.263L185.157 376.947L174.817 380.553Z" fill="#263238"/>
<path d="M198.236 400.446L208.282 408.975L220.719 404.661L210.045 396.329L198.236 400.446Z" fill="#263238"/>
<path d="M209.951 410.391L219.997 418.921L233.156 414.343L222.482 406.027L209.951 410.391Z" fill="#263238"/>
<path d="M234.919 415.707L221.653 420.334L231.699 428.864L245.593 424.039L234.919 415.707Z" fill="#263238"/>
<path d="M149.555 375.334L159.601 383.863L171.224 379.812L161.178 371.283L149.555 375.334Z" fill="#263238"/>
<path d="M126.083 406.456L128.14 408.843L128.674 408.646L126.083 406.456Z" fill="#263238"/>
<path d="M120.765 383.369L132.388 379.318L126.537 374.345L114.887 378.363L120.765 383.369Z" fill="#263238"/>
<path d="M134.325 378.644L145.948 374.594L140.123 369.637L128.474 373.672L134.325 378.644Z" fill="#263238"/>
<path d="M142.073 368.977L147.898 373.917L159.52 369.866L153.709 364.943L142.073 368.977Z" fill="#263238"/>
<path d="M152.093 428.554L142.047 420.008L138.68 421.177L146.616 430.448L152.093 428.554Z" fill="#263238"/>
<path d="M189.003 486.631L158.277 333.31C157.577 329.825 156.069 326.666 153.936 324.221L71.1091 229.028C70.7571 228.625 70.3095 228.371 69.8321 228.305C69.3547 228.239 68.8727 228.364 68.457 228.661C68.0412 228.957 67.7137 229.411 67.5226 229.954C67.3315 230.497 67.2869 231.102 67.3953 231.679L94.4742 374.806L189.003 486.631Z" fill="#92E3A9" stroke="#263238" stroke-linecap="round" stroke-linejoin="round"/>
<path d="M142.568 317.95L152.039 328.16C152.039 328.16 154.992 328.884 157.944 347.113" stroke="#263238" stroke-width="0.5" stroke-linecap="round" stroke-linejoin="round"/>
<path d="M159.721 356.579L177.182 449.845" stroke="#263238" stroke-width="0.5" stroke-linecap="round" stroke-linejoin="round"/>
<path d="M108.596 313.781C112.697 326.065 112.323 337.905 107.754 340.226C103.185 342.548 96.1449 334.463 92.0437 322.113C87.9425 309.763 88.3165 297.99 92.8853 295.684C97.4541 293.379 104.494 301.497 108.596 313.781Z" fill="#92E3A9"/>
<path opacity="0.6" d="M108.596 313.781C112.697 326.065 112.323 337.905 107.754 340.226C103.185 342.548 96.1449 334.463 92.0437 322.113C87.9425 309.763 88.3165 297.99 92.8853 295.684C97.4541 293.379 104.494 301.497 108.596 313.781Z" fill="white"/>
<path d="M105.603 333.801C108.85 332.153 109.117 323.734 106.198 314.997C103.279 306.26 98.2805 300.513 95.0331 302.161C91.7856 303.809 91.5192 312.228 94.4379 320.966C97.3566 329.703 102.355 335.45 105.603 333.801Z" stroke="#263238" stroke-miterlimit="10"/>
<path d="M114.928 364.155C117.066 370.527 116.184 377.015 112.978 378.645C109.772 380.275 105.443 376.422 103.306 370.066C101.168 363.71 102.063 357.206 105.27 355.576C108.476 353.945 112.804 357.799 114.928 364.155Z" fill="#263238"/>
<path d="M110.505 374.939C108.488 374.939 106.297 372.683 105.162 369.159C104.522 367.347 104.301 365.353 104.52 363.395C104.579 362.579 104.81 361.796 105.189 361.123C105.569 360.45 106.084 359.911 106.685 359.559C108.942 358.406 111.828 360.827 113.244 365.059C114.647 369.29 113.979 373.506 111.721 374.659C111.334 374.847 110.921 374.943 110.505 374.939ZM107.834 360.925C107.604 360.923 107.377 360.979 107.166 361.09C106.782 361.344 106.457 361.715 106.223 362.167C105.989 362.62 105.854 363.139 105.83 363.675C105.639 365.354 105.833 367.066 106.391 368.615C107.473 371.909 109.677 373.983 111.2 373.21C112.723 372.436 113.084 369.027 111.988 365.767C110.986 362.885 109.169 360.925 107.834 360.925Z" fill="#92E3A9"/>
<g opacity="0.5">
<path opacity="0.5" d="M110.505 374.939C108.488 374.939 106.297 372.683 105.162 369.159C104.522 367.347 104.301 365.353 104.52 363.395C104.579 362.579 104.81 361.796 105.189 361.123C105.569 360.45 106.084 359.911 106.685 359.559C108.942 358.406 111.828 360.827 113.244 365.059C114.647 369.29 113.979 373.506 111.721 374.659C111.334 374.847 110.921 374.943 110.505 374.939ZM107.834 360.925C107.604 360.923 107.377 360.979 107.166 361.09C106.782 361.344 106.457 361.715 106.223 362.167C105.989 362.62 105.854 363.139 105.83 363.675C105.639 365.354 105.833 367.066 106.391 368.615C107.473 371.909 109.677 373.983 111.2 373.21C112.723 372.436 113.084 369.027 111.988 365.767C110.986 362.885 109.169 360.925 107.834 360.925Z" fill="white"/>
</g>
<path d="M138.748 366.196L131.146 381.016C130.95 381.376 130.846 381.8 130.846 382.234C130.846 382.668 130.95 383.092 131.146 383.453L147.418 412.698C147.56 412.957 147.745 413.177 147.961 413.343C148.177 413.509 148.419 413.617 148.671 413.66C148.922 413.704 149.179 413.681 149.423 413.595C149.668 413.509 149.895 413.36 150.09 413.159L158.519 404.678C158.855 404.345 159.082 403.873 159.158 403.349C159.234 402.826 159.154 402.286 158.933 401.83L141.82 366.278C141.667 365.946 141.447 365.669 141.181 365.474C140.915 365.278 140.613 365.171 140.303 365.163C139.993 365.154 139.687 365.245 139.415 365.426C139.142 365.607 138.912 365.873 138.748 366.196Z" fill="#263238"/>
<path d="M125.522 385.839C125.522 385.839 146.576 381.524 161.044 418.08L164.637 412.63C164.637 412.63 150.704 384.027 139.349 381.475C127.993 378.923 123.865 378.906 123.865 378.906L125.522 385.839Z" fill="#92E3A9"/>
<path opacity="0.5" d="M125.522 385.839C125.522 385.839 146.576 381.524 161.044 418.08L164.637 412.63C164.637 412.63 150.704 384.027 139.349 381.475C127.993 378.923 123.865 378.906 123.865 378.906L125.522 385.839Z" fill="white"/>
<path d="M34.72 306.949L69.0796 297.382" stroke="#263238" stroke-linecap="round" stroke-linejoin="round"/>
<path d="M252.875 399.159C248.756 399.96 244.603 400.472 240.437 400.691C233.985 401.003 231.246 401.003 232.235 402.848C233.223 404.692 240.945 406.52 243.67 407.129C246.395 407.738 252.875 399.159 252.875 399.159Z" fill="white" stroke="#263238" stroke-miterlimit="10"/>
<path d="M495.155 465.767L483.652 458.357" stroke="#263238" stroke-linecap="round" stroke-linejoin="round"/>
<path d="M265.391 292.705C265.391 292.705 267.809 287.485 268.824 293.957L265.391 292.705Z" fill="#263238"/>
<path d="M632 578L199.665 263.005" stroke="#263238" stroke-linecap="round" stroke-linejoin="round"/>
<path d="M203.471 343.9L262.398 390.731L310.865 366.361L245.579 325.458L203.471 343.9Z" fill="#263238" stroke="#263238" stroke-linecap="round" stroke-linejoin="round"/>
<path d="M241.345 334.133L217.86 344.359" stroke="white" stroke-width="0.5" stroke-linecap="round" stroke-linejoin="round"/>
<path d="M221.548 347.768L263.923 380.701L298.456 364.235" stroke="white" stroke-width="0.5" stroke-linecap="round" stroke-linejoin="round"/>
<path d="M446.274 122.606C446.274 122.606 480.019 129.193 490.88 151.489C501.741 173.785 493.98 208.826 490.359 220.928C487.086 231.912 496.758 241.084 502.703 247.044C516.062 260.415 522.942 279.286 515.996 299.82C511.667 312.598 492.417 318.328 495.022 333.708C497.627 349.088 508.969 370.659 494.501 386.599C479.231 403.395 456.32 394.733 442.935 379.041C427.879 361.388 422.695 330.678 430.404 306.95C439.755 278.282 444.872 259.806 436.081 247.67C427.291 235.534 415.922 227.91 415.922 210.719C415.922 193.528 428.333 188.423 433.503 171.199C438.673 153.975 431.432 136.158 431.432 136.158L446.274 122.606Z" fill="#263238" stroke="#263238" stroke-linecap="round" stroke-linejoin="round"/>
<path d="M477.882 152.345C484.401 158.421 490.333 168.647 488.275 185.278C484.107 219.034 463.868 221.241 476.96 242.516C490.052 263.791 501.969 254.24 499.577 280.652C497.186 307.065 489.464 316.599 489.464 316.599" stroke="white" stroke-miterlimit="10"/>
<path d="M463.92 144.224C466.53 144.98 469.066 146.084 471.482 147.517" stroke="white" stroke-miterlimit="10"/>
<path d="M457.375 153.773C457.375 153.773 474.635 159.636 479.992 177.238C485.349 194.841 463.961 209.529 462.732 220.529" stroke="white" stroke-miterlimit="10"/>
<path d="M456.614 440.935C456.374 430.841 456.267 417.372 456.761 403.161C457.803 373.851 486.232 334.973 487.26 327.975C488.289 320.976 485.711 319.741 485.711 319.741L429.362 289.789C403.165 310.998 396.792 372.681 395.229 401.465L456.614 440.935Z" fill="#92E3A9" stroke="#263238" stroke-linecap="round" stroke-linejoin="round"/>
<path d="M479.591 321.604C479.591 321.604 484.32 325.244 479.591 331.073C474.862 336.902 461.85 361.684 456.506 376.257" stroke="#263238" stroke-width="0.5" stroke-linecap="round" stroke-linejoin="round"/>
<path d="M454.169 383.499C454.169 383.499 450.028 395.157 450.629 406.816C451.23 418.474 451.217 429.408 451.217 429.408" stroke="#263238" stroke-width="0.5" stroke-linecap="round" stroke-linejoin="round"/>
<path d="M343.636 305.782C346.121 313.752 349.113 330.893 347.123 340.691C346.094 345.779 342.647 356.466 339.588 365.572L415.561 414.511C415.481 395.014 415.682 364.238 417.699 358.524C420.678 349.945 444.537 269.094 443.081 250.717C441.625 232.341 412.769 205.994 412.769 205.994L417.191 161.205L390.86 180.817C390.86 180.817 387.868 198.568 384.889 202.866C381.91 207.163 357.556 213.272 350.596 224.272C343.636 235.272 346.121 268.995 346.121 270.823C346.121 272.651 341.151 297.878 343.636 305.782Z" fill="white"/>
<g style="mix-blend-mode:multiply" opacity="0.5">
<path d="M443.041 250.652C441.545 232.275 412.729 205.928 412.729 205.928L417.191 161.205L390.86 180.817C390.86 180.817 389.992 185.938 388.736 191.355C390.433 191.174 392.33 190.878 394.454 190.417C404.5 188.227 409.83 183.83 409.83 183.83L404.487 211.527C404.487 211.527 431.686 231.287 438.78 255.262C439.742 258.556 440.77 261.635 441.826 264.698C442.725 260.101 443.134 255.379 443.041 250.652Z" fill="#92E3A9"/>
</g>
<path d="M343.636 305.782C346.121 313.752 349.113 330.893 347.123 340.691C346.094 345.779 342.647 356.466 339.588 365.572L415.561 414.511C415.481 395.014 415.682 364.238 417.699 358.524C420.678 349.945 444.537 269.094 443.081 250.717C441.625 232.341 412.769 205.994 412.769 205.994L417.191 161.205L390.86 180.817C390.86 180.817 387.868 198.568 384.889 202.866C381.91 207.163 357.556 213.272 350.596 224.272C343.636 235.272 346.121 268.995 346.121 270.823C346.121 272.651 341.151 297.878 343.636 305.782Z" stroke="#263238" stroke-linecap="round" stroke-linejoin="round"/>
<path d="M343.636 305.779C346.121 313.749 349.113 330.891 347.123 340.689C346.094 345.777 342.647 356.464 339.588 365.57L415.561 414.508C415.481 395.012 415.682 364.236 417.699 358.522C420.678 349.943 444.537 269.092 443.081 250.715C442.159 239.271 430.644 224.764 422.081 215.427C413.651 226.443 395.362 246.994 382.003 237.838C369.98 229.605 370.742 217.09 372.518 209.647C364.396 213.336 354.684 218.045 350.69 224.369C343.729 235.401 346.214 269.092 346.214 270.92C346.214 272.747 341.151 297.875 343.636 305.779Z" fill="#263238" stroke="#263238" stroke-linecap="round" stroke-linejoin="round"/>
<path d="M388.015 284.01L371.476 274.443C371.476 274.443 366.814 264.893 364.235 264.893C361.657 264.893 360.094 278.28 360.094 278.28C360.094 278.28 351.317 288.473 354.416 298.666C357.516 308.858 368.884 324.156 382.845 318.426C396.805 312.695 392.664 294.862 392.664 294.862C392.664 294.862 398.355 282.759 398.355 280.206C398.355 277.654 388.015 284.01 388.015 284.01Z" fill="white" stroke="#263238" stroke-linecap="round" stroke-linejoin="round"/>
<path d="M352.586 86.4602C352.586 86.4602 356.073 108.525 355.566 123.839C355.058 139.153 350.102 145.246 351.558 152.014C353.014 158.781 370.942 183.877 381.87 186.314C392.797 188.751 418.647 167.937 426.102 158.748C433.556 149.56 434.545 136.09 433.556 130.574C432.567 125.058 428.586 80.9603 413.678 63.1929C398.769 45.4254 359.547 47.2697 352.586 86.4602Z" fill="white"/>
<g style="mix-blend-mode:multiply" opacity="0.5">
<path d="M413.76 63.1928C408.189 56.6062 399.212 52.6542 389.794 52.4072L389.179 75.2628C389.179 75.2628 386.213 97.855 396.861 116.067C407.508 134.279 416.966 139.4 418.142 146.678C419.317 153.957 413.974 161.202 400.401 173.651C395.093 178.602 389.406 182.904 383.421 186.495C395.057 187.005 419.037 167.558 426.171 158.748C433.625 149.56 434.613 136.09 433.625 130.574C432.636 125.058 428.629 80.9603 413.76 63.1928Z" fill="#92E3A9"/>
</g>
<path d="M352.586 86.4602C352.586 86.4602 356.073 108.525 355.566 123.839C355.058 139.153 350.102 145.246 351.558 152.014C353.014 158.781 370.942 183.877 381.87 186.314C392.797 188.751 418.647 167.937 426.102 158.748C433.556 149.56 434.544 136.09 433.556 130.574C432.567 125.058 428.586 80.9603 413.678 63.1929C398.769 45.4254 359.547 47.2697 352.586 86.4602Z" stroke="#263238" stroke-linecap="round" stroke-linejoin="round"/>
<path d="M371.477 131.794C371.477 131.794 369.98 143.436 367.469 147.108C369.419 149.204 371.853 150.494 374.429 150.796" stroke="#263238" stroke-linecap="round" stroke-linejoin="round"/>
<path d="M372.465 161.201C375.703 162.97 379.232 163.781 382.769 163.569C386.306 163.358 389.754 162.129 392.838 159.982" stroke="#263238" stroke-linecap="round" stroke-linejoin="round"/>
<path d="M390.353 125.667C390.353 127.709 389.578 129.356 388.616 129.356C387.654 129.356 386.879 127.709 386.879 125.667C386.879 123.625 387.654 121.995 388.616 121.995C389.578 121.995 390.353 123.642 390.353 125.667Z" fill="#263238"/>
<path d="M365.759 120.774C365.759 122.799 364.984 124.446 364.022 124.446C363.06 124.446 362.285 122.799 362.285 120.774C362.285 118.748 363.06 117.102 364.022 117.102C364.984 117.102 365.759 118.748 365.759 120.774Z" fill="#263238"/>
<path d="M359.052 104.852C360.446 103.779 362 103.063 363.623 102.747C365.245 102.43 366.903 102.518 368.497 103.007" stroke="#263238" stroke-linecap="round" stroke-linejoin="round"/>
<path d="M382.404 105.466C382.404 105.466 385.383 103.621 391.849 108.528" stroke="#263238" stroke-linecap="round" stroke-linejoin="round"/>
<path d="M385.383 69.9271C385.383 69.9271 371.476 84.0225 364.516 92.5851C357.556 101.148 354.577 107.29 344.143 101.79C333.71 96.2901 326.242 77.2712 340.136 54.6132C354.029 31.9551 380.894 25.2038 407.225 34.3922C433.556 43.5805 444.51 64.4108 446.488 87.0853C448.465 109.76 444.484 134.855 435.132 141.606C425.781 148.357 404.807 120.776 397.353 103.618C392.682 92.7742 388.68 81.5121 385.383 69.9271Z" fill="#263238" stroke="#263238" stroke-linecap="round" stroke-linejoin="round"/>
<path d="M385.384 69.9287C385.384 69.9287 347.858 76.7459 346.081 87.0046C344.304 97.2633 355.606 94.3487 355.606 94.3487" stroke="white" stroke-miterlimit="10"/>
<path d="M341.245 76.6982C338.707 83.3837 340.724 87.7473 340.724 87.7473" stroke="white" stroke-miterlimit="10"/>
<path d="M422.855 48.127C422.855 48.127 386.545 40.7994 386.545 60.5922C386.545 60.5922 364.529 51.0581 350.248 64.2643C348.105 66.1903 346.138 68.3989 344.384 70.8509" stroke="white" stroke-miterlimit="10"/>
<path d="M388.377 65.0049C388.377 65.0049 397.635 101.824 416.952 111.227" stroke="white" stroke-miterlimit="10"/>
<path d="M407.639 74.9014C415.08 82.476 425.727 89.9518 438.365 89.2108" stroke="white" stroke-miterlimit="10"/>
<path d="M396.07 59.8672C397.81 62.8167 399.721 65.6068 401.788 68.2158" stroke="white" stroke-miterlimit="10"/>
<path d="M349.113 107.917L407.252 120.168C407.252 120.168 407.251 131.069 404.767 136.635C402.282 142.2 399.303 142.266 392.837 142.266C386.371 142.266 377.381 137.326 376.94 135.531C375.911 131.184 376.606 116.842 376.606 116.842L371.97 115.92C371.97 115.92 372.571 132.633 370.086 134.477C367.602 136.322 351.197 132.633 348.218 127.743C345.238 122.852 347.122 107.291 349.113 107.917Z" stroke="#263238" stroke-linecap="round" stroke-linejoin="round"/>
<path d="M407.251 120.166L433.101 114.649V118.931L407.251 126.901V120.166Z" fill="#92E3A9" stroke="#263238" stroke-linecap="round" stroke-linejoin="round"/>
<path d="M452.179 123.98C454.198 108.491 449.463 94.673 441.603 93.116C433.743 91.5589 425.734 102.853 423.715 118.342C421.695 133.831 426.43 147.649 434.29 149.206C442.15 150.763 450.159 139.469 452.179 123.98Z" fill="#92E3A9" stroke="#263238" stroke-linecap="round" stroke-linejoin="round"/>
<path d="M456.334 124.596C454.638 137.638 448.746 147.303 443.202 146.2C437.658 145.097 434.519 133.653 436.216 120.611C437.912 107.57 443.79 97.9202 449.348 99.0234C454.905 100.127 458.031 111.571 456.334 124.596Z" fill="#92E3A9" stroke="#263238" stroke-linecap="round" stroke-linejoin="round"/>
<path d="M448.493 69.9268C449.453 87.0693 447.938 104.286 444.017 120.776C444.017 120.776 443.523 130.656 450.977 126.292C458.432 121.928 457.443 84.6314 456.441 69.3175C455.439 54.0036 446.021 58.2849 448.493 69.9268Z" fill="white" stroke="#263238" stroke-linecap="round" stroke-linejoin="round"/>
<path d="M420.678 41.1284C420.678 41.1284 432.1 37.4564 438.044 50.3332C443.989 63.2101 443.014 74.8355 451.403 76.0541C459.793 77.2726 460.354 65.6472 455.879 50.9425C451.403 36.2378 441.972 25.2052 429.04 23.9867C416.109 22.7682 409.75 35.6286 409.75 35.6286C409.75 35.6286 416.696 36.8471 420.678 41.1284Z" fill="#92E3A9" stroke="#263238" stroke-linecap="round" stroke-linejoin="round"/>
<path d="M419.676 270.246L385.384 366.428C385.384 366.428 291.95 387.834 283.507 387.834C275.064 387.834 258.125 395.178 254.678 397.714C251.231 400.25 217.446 419.368 223.952 420.553C227.96 421.294 238.326 414.263 238.326 414.263C238.326 414.263 221.921 424.143 223.404 427.123C224.887 430.104 244.779 417.935 244.779 417.935C244.779 417.935 226.597 431.108 230.324 431.849C233.718 432.59 237.819 430.203 241.305 427.123C244.346 424.823 247.621 423.029 251.044 421.788C251.044 421.788 243.029 428.375 242.08 431.372C241.132 434.369 244.071 432.59 247.05 431.372C252.625 428.408 258.014 424.941 263.174 420.998C265.152 419.154 271.123 415.482 275.104 411.2L283.053 402.621C283.053 402.621 336.222 404.449 360.536 403.23C384.849 402.012 396.819 398.949 405.77 387.917C414.72 376.884 440.062 307.049 446.021 288.063C451.979 269.077 448.011 258.045 442.013 245.25" fill="white"/>
<g style="mix-blend-mode:multiply" opacity="0.5">
<path d="M421.066 333.261C405.035 370.426 391.502 382.084 377.315 390.894C363.127 399.704 285.07 401.828 285.07 401.828L288.356 402.799C302.45 403.227 340.884 404.232 360.496 403.244C384.849 402.025 396.779 398.963 405.73 387.93C414.68 376.897 440.022 307.063 445.981 288.077C448.746 279.283 449.36 272.203 448.652 265.847L445.273 268.465C438.27 290.645 430.187 312.283 421.066 333.261Z" fill="#92E3A9"/>
</g>
<path d="M419.676 270.246L385.384 366.428C385.384 366.428 291.95 387.834 283.507 387.834C275.064 387.834 258.125 395.178 254.678 397.714C251.231 400.25 217.446 419.368 223.952 420.553C227.96 421.294 238.326 414.263 238.326 414.263C238.326 414.263 221.921 424.143 223.404 427.123C224.887 430.104 244.779 417.935 244.779 417.935C244.779 417.935 226.597 431.108 230.324 431.849C233.718 432.59 237.819 430.203 241.305 427.123C244.346 424.823 247.621 423.029 251.044 421.788C251.044 421.788 243.029 428.375 242.08 431.372C241.132 434.369 244.071 432.59 247.05 431.372C252.625 428.408 258.014 424.941 263.174 420.998C265.152 419.154 271.123 415.482 275.104 411.2L283.053 402.621C283.053 402.621 336.222 404.449 360.536 403.23C384.849 402.012 396.819 398.949 405.77 387.917C414.72 376.884 440.062 307.049 446.021 288.063C451.979 269.077 448.011 258.045 442.013 245.25" stroke="#263238" stroke-miterlimit="10"/>
<path d="M419.102 267.82L408.668 301.165C416.337 296.126 430.724 289.358 442.2 299.518C443.816 294.842 445.139 290.89 446.021 288.074C451.992 269.088 448.011 258.055 442.013 245.261" fill="#263238"/>
<path d="M419.102 267.82L408.668 301.165C416.337 296.126 430.724 289.358 442.2 299.518C443.816 294.842 445.139 290.89 446.021 288.074C451.992 269.088 448.011 258.055 442.013 245.261" stroke="#263238" stroke-linecap="round" stroke-linejoin="round"/>
<path d="M345.265 312.068C335.179 315.707 295.342 330.082 291.642 331.153C289.35 331.84 287.025 332.352 284.682 332.684C284.682 332.684 270.762 325.324 267.034 321.964C263.307 318.605 258.832 320.729 256.601 321.964C254.37 323.199 252.593 331.762 256.855 331.762C261.116 331.762 261.824 331.449 266.54 336.356C271.256 341.263 271.269 343.717 274.743 345.545C278.216 347.372 283.947 346.154 286.926 345.545C289.598 345.001 335.794 341.214 347.162 340.473C348.645 332.766 347.162 320.729 345.265 312.068Z" fill="white"/>
<g style="mix-blend-mode:multiply" opacity="0.5">
<path d="M346.856 320.928L286.927 345.628C289.599 345.084 335.795 341.297 347.163 340.556C348.178 335.188 347.804 327.86 346.856 320.928Z" fill="#92E3A9"/>
</g>
<path d="M345.265 312.068C335.179 315.707 295.342 330.082 291.642 331.153C289.35 331.84 287.025 332.352 284.682 332.684C284.682 332.684 270.762 325.324 267.034 321.964C263.307 318.605 258.832 320.729 256.601 321.964C254.37 323.199 252.593 331.762 256.855 331.762C261.116 331.762 261.824 331.449 266.54 336.356C271.256 341.263 271.269 343.717 274.743 345.545C278.216 347.372 283.947 346.154 286.926 345.545C289.598 345.001 335.794 341.214 347.162 340.473C348.645 332.766 347.162 320.729 345.265 312.068Z" stroke="#263238" stroke-linecap="round" stroke-linejoin="round"/>
<path d="M245.66 332.075C245.66 332.075 240.436 335.747 238.98 340.029C237.524 344.31 240.463 343.091 241.465 342.186C242.467 341.28 246.689 336.966 246.689 336.966L245.66 332.075Z" fill="white" stroke="#263238" stroke-linecap="round" stroke-linejoin="round"/>
<path d="M247.157 328.996C246.179 329.769 245.405 330.877 244.93 332.185C244.456 333.492 244.301 334.942 244.485 336.356C244.979 341.56 249.454 349.217 249.962 346.154C250.47 343.091 247.157 328.996 247.157 328.996Z" fill="white" stroke="#263238" stroke-linecap="round" stroke-linejoin="round"/>
<path d="M253.368 324.404C253.368 324.404 248.639 325.935 247.156 328.998C245.673 332.061 248.144 345.251 249.894 346.156C250.266 346.362 250.67 346.46 251.077 346.444C251.484 346.427 251.882 346.297 252.242 346.062C252.601 345.826 252.912 345.493 253.152 345.087C253.391 344.681 253.551 344.213 253.622 343.719C254.116 341.562 253.368 324.404 253.368 324.404Z" fill="white" stroke="#263238" stroke-linecap="round" stroke-linejoin="round"/>
<path d="M259.341 321.341C259.341 321.341 253.115 321.341 252.381 325.029C251.646 328.718 250.39 344.625 251.632 347.078C252.875 349.532 254.865 348.61 255.854 345.547C256.843 342.484 259.341 321.341 259.341 321.341Z" fill="white" stroke="#263238" stroke-linecap="round" stroke-linejoin="round"/>
<path d="M264.991 292.804L254.785 350.091L256.388 357.402C256.412 357.514 256.459 357.616 256.526 357.698C256.592 357.781 256.675 357.84 256.766 357.87C256.856 357.9 256.952 357.9 257.043 357.87C257.134 357.84 257.216 357.781 257.283 357.699L261.745 352.232L269.199 294.335L264.991 292.804Z" fill="#263238"/>
<path d="M274.997 339.042C274.997 339.042 269.279 341.808 264.804 344.262C260.328 346.715 255.853 347.934 256.347 351.31C256.842 354.685 258.832 353.45 262.065 352.232C266.501 350.325 271.085 348.989 275.745 348.247C281.957 347.325 286.926 340.277 286.926 340.277" fill="white"/>
<path d="M274.997 339.042C274.997 339.042 269.279 341.808 264.804 344.262C260.328 346.715 255.853 347.934 256.347 351.31C256.842 354.685 258.832 353.45 262.065 352.232C266.501 350.325 271.085 348.989 275.745 348.247C281.957 347.325 286.926 340.277 286.926 340.277" stroke="#263238" stroke-linecap="round" stroke-linejoin="round"/>
<path d="M254.918 350.981L255.96 356.383C256.011 356.643 256.116 356.882 256.266 357.076C256.415 357.271 256.604 357.413 256.812 357.49C257.02 357.567 257.241 357.575 257.452 357.513C257.664 357.452 257.859 357.323 258.017 357.14L260.462 354.275" stroke="white" stroke-width="0.5" stroke-linecap="round" stroke-linejoin="round"/>
<path d="M254.797 350.092L260.074 321.078" stroke="white" stroke-width="0.5" stroke-linecap="round" stroke-linejoin="round"/>
<path d="M72.2192 236.322L139.616 313.583" stroke="#263238" stroke-width="0.5" stroke-linecap="round" stroke-linejoin="round"/>
</g>
<defs>
<filter id="filter0_d" x="0.499878" y="23.4053" width="652" height="595.095" filterUnits="userSpaceOnUse" color-interpolation-filters="sRGB">
<feFlood flood-opacity="0" result="BackgroundImageFix"/>
<feColorMatrix in="SourceAlpha" type="matrix" values="0 0 0 0 0 0 0 0 0 0 0 0 0 0 0 0 0 0 127 0" result="hardAlpha"/>
<feOffset dy="20"/>
<feGaussianBlur stdDeviation="10"/>
<feColorMatrix type="matrix" values="0 0 0 0 0 0 0 0 0 0 0 0 0 0 0 0 0 0 0.25 0"/>
<feBlend mode="normal" in2="BackgroundImageFix" result="effect1_dropShadow"/>
<feBlend mode="normal" in="SourceGraphic" in2="effect1_dropShadow" result="shape"/>
</filter>
<filter id="filter1_d" x="43.9187" y="169.543" width="408.292" height="378.739" filterUnits="userSpaceOnUse" color-interpolation-filters="sRGB">
<feFlood flood-opacity="0" result="BackgroundImageFix"/>
<feColorMatrix in="SourceAlpha" type="matrix" values="0 0 0 0 0 0 0 0 0 0 0 0 0 0 0 0 0 0 127 0" result="hardAlpha"/>
<feOffset dy="4"/>
<feGaussianBlur stdDeviation="2"/>
<feColorMatrix type="matrix" values="0 0 0 0 0 0 0 0 0 0 0 0 0 0 0 0 0 0 1 0"/>
<feBlend mode="normal" in2="BackgroundImageFix" result="effect1_dropShadow"/>
<feBlend mode="normal" in="SourceGraphic" in2="effect1_dropShadow" result="shape"/>
</filter>
</defs>
</svg>
