<svg width="246" height="242" viewBox="0 0 246 242" fill="none" xmlns="http://www.w3.org/2000/svg">
<g filter="url(#filter0_d)">
<path d="M123.73 198.019L79.3483 216.986L27.8564 161.983L61.5918 156.771L123.73 198.019Z" fill="#92E3A9"/>
<path opacity="0.5" d="M123.73 198.019L79.3483 216.986L27.8564 161.983L61.5918 156.771L123.73 198.019Z" fill="white"/>
<path d="M178.324 223.151C184.207 223.151 188.977 219.754 188.977 215.563C188.977 211.372 184.207 207.975 178.324 207.975C172.441 207.975 167.671 211.372 167.671 215.563C167.671 219.754 172.441 223.151 178.324 223.151Z" fill="#92E3A9"/>
<path opacity="0.5" d="M178.324 223.151C184.207 223.151 188.977 219.754 188.977 215.563C188.977 211.372 184.207 207.975 178.324 207.975C172.441 207.975 167.671 211.372 167.671 215.563C167.671 219.754 172.441 223.151 178.324 223.151Z" fill="white"/>
<path d="M136.606 172.48L201.64 177.985L187.206 170.048L136.606 172.48Z" fill="#92E3A9"/>
<path opacity="0.5" d="M136.606 172.48L201.64 177.985L187.206 170.048L136.606 172.48Z" fill="white"/>
<path d="M151.253 151.081L131.959 149.395L134.382 146.337H145.481L151.253 151.081Z" fill="#92E3A9"/>
<path opacity="0.5" d="M151.253 151.081L131.959 149.395L134.382 146.337H145.481L151.253 151.081Z" fill="white"/>
<path d="M213.817 233.343C221.292 233.343 227.352 229.417 227.352 224.574C227.352 219.731 221.292 215.805 213.817 215.805C206.342 215.805 200.282 219.731 200.282 224.574C200.282 229.417 206.342 233.343 213.817 233.343Z" fill="#92E3A9"/>
<path opacity="0.5" d="M213.817 233.343C221.292 233.343 227.352 229.417 227.352 224.574C227.352 219.731 221.292 215.805 213.817 215.805C206.342 215.805 200.282 219.731 200.282 224.574C200.282 229.417 206.342 233.343 213.817 233.343Z" fill="white"/>
<path d="M133.61 204.213L126.32 217.007L142.465 220.35L148.717 207.556L133.61 204.213Z" fill="white" stroke="#263238" stroke-linecap="round" stroke-linejoin="round"/>
<path d="M146.113 189.755L138.823 201.432L153.923 206.439L160.175 194.762L146.113 189.755Z" fill="#92E3A9"/>
<path opacity="0.5" d="M146.113 189.755L138.823 201.432L153.923 206.439L160.175 194.762L146.113 189.755Z" fill="white" stroke="#263238" stroke-miterlimit="10"/>
<path d="M146.113 189.755L138.823 201.432L153.923 206.439L160.175 194.762L146.113 189.755Z" stroke="#263238" stroke-linecap="round" stroke-linejoin="round"/>
<path d="M162.259 212.008L149.236 215.898L154.442 224.802L169.549 220.905L162.259 212.008Z" fill="#92E3A9" stroke="#263238" stroke-linecap="round" stroke-linejoin="round"/>
<path d="M199.409 209.725L200.741 220.528C200.741 225.001 205.834 228.635 212.119 228.635C218.404 228.635 223.504 225.001 223.504 220.528L224.876 209.725H199.409Z" fill="#92E3A9" stroke="#263238" stroke-linecap="round" stroke-linejoin="round"/>
<path d="M212.133 218.807C219.174 218.807 224.882 214.74 224.882 209.725C224.882 204.709 219.174 200.643 212.133 200.643C205.091 200.643 199.383 204.709 199.383 209.725C199.383 214.74 205.091 218.807 212.133 218.807Z" fill="#92E3A9" stroke="#263238" stroke-linecap="round" stroke-linejoin="round"/>
<path d="M212.133 217.448C218.123 217.448 222.978 213.99 222.978 209.725C222.978 205.459 218.123 202.001 212.133 202.001C206.143 202.001 201.287 205.459 201.287 209.725C201.287 213.99 206.143 217.448 212.133 217.448Z" fill="#92E3A9" stroke="#263238" stroke-linecap="round" stroke-linejoin="round"/>
<path d="M212.133 217.455C218.02 217.455 222.792 214.622 222.792 211.126C222.792 207.63 218.02 204.796 212.133 204.796C206.246 204.796 201.473 207.63 201.473 211.126C201.473 214.622 206.246 217.455 212.133 217.455Z" fill="#263238" stroke="#263238" stroke-linecap="round" stroke-linejoin="round"/>
<path d="M215.974 188.994C214.123 187.721 211.314 187.835 210.189 190.189C208.524 193.617 209.716 199.968 209.117 200.857C208.517 201.746 206.74 202.002 205.908 200.096C205.075 198.19 205.075 195.651 204.003 195.523C202.931 195.395 201.507 195.907 201.267 198.83C201.027 201.753 201.507 205.053 203.411 206.574C205.315 208.096 207.452 207.591 208.071 208.231C208.691 208.872 208.071 209.867 208.071 210.521C208.071 213.366 211.553 214.789 213.757 214.077C216.966 213.06 216.613 209.625 217.086 208.231C217.559 206.838 220.182 206.702 221.134 204.548C222.086 202.393 223.511 198.062 221.487 196.412C219.463 194.762 217.918 195.523 217.685 197.301C217.408 198.713 216.961 200.08 216.354 201.369C217.779 198.36 219.177 191.199 215.974 188.994Z" fill="#92E3A9"/>
<path opacity="0.2" d="M215.974 188.994C214.123 187.721 211.314 187.835 210.189 190.189C208.524 193.617 209.716 199.968 209.117 200.857C208.517 201.746 206.74 202.002 205.908 200.096C205.075 198.19 205.075 195.651 204.003 195.523C202.931 195.395 201.507 195.907 201.267 198.83C201.027 201.753 201.507 205.053 203.411 206.574C205.315 208.096 207.452 207.591 208.071 208.231C208.691 208.872 208.071 209.867 208.071 210.521C208.071 213.366 211.553 214.789 213.757 214.077C216.966 213.06 216.613 209.625 217.086 208.231C217.559 206.838 220.182 206.702 221.134 204.548C222.086 202.393 223.511 198.062 221.487 196.412C219.463 194.762 217.918 195.523 217.685 197.301C217.408 198.713 216.961 200.08 216.354 201.369C217.779 198.36 219.177 191.199 215.974 188.994Z" fill="black"/>
<path d="M215.974 188.994C214.123 187.721 211.314 187.835 210.189 190.189C208.524 193.617 209.716 199.968 209.117 200.857C208.517 201.746 206.74 202.002 205.908 200.096C205.075 198.19 205.075 195.651 204.003 195.523C202.931 195.395 201.507 195.907 201.267 198.83C201.027 201.753 201.507 205.053 203.411 206.574C205.315 208.096 207.452 207.591 208.071 208.231C208.691 208.872 208.071 209.867 208.071 210.521C208.071 213.366 211.553 214.789 213.757 214.077C216.966 213.06 216.613 209.625 217.086 208.231C217.559 206.838 220.182 206.702 221.134 204.548C222.086 202.393 223.511 198.062 221.487 196.412C219.463 194.762 217.918 195.523 217.685 197.301C217.408 198.713 216.961 200.08 216.354 201.369C217.779 198.36 219.177 191.199 215.974 188.994Z" stroke="#263238" stroke-linecap="round" stroke-linejoin="round"/>
<path d="M213.045 189.933C212.505 190.312 212.053 190.818 211.723 191.412C211.393 192.006 211.194 192.672 211.141 193.36C211.021 195.65 211.141 202.89 210.308 203.907C209.476 204.924 206.74 204.668 204.982 202.89C203.224 201.112 204.003 197.308 204.003 197.308" stroke="#263238" stroke-width="0.5" stroke-linecap="round" stroke-linejoin="round"/>
<path d="M204.529 205.13C205.146 205.643 205.859 206.007 206.62 206.197C208.764 206.702 210.308 205.564 210.668 206.702C211.027 207.84 210.308 211.915 210.308 211.915" stroke="#263238" stroke-width="0.5" stroke-linecap="round" stroke-linejoin="round"/>
<path d="M203.291 203.78C203.513 204.114 203.767 204.421 204.05 204.697" stroke="#263238" stroke-width="0.5" stroke-linecap="round" stroke-linejoin="round"/>
<path d="M213.005 209.832C213.125 207.938 213.138 206.038 213.045 204.142C212.832 201.298 214.07 196.014 214.376 193.624" stroke="#263238" stroke-width="0.5" stroke-linecap="round" stroke-linejoin="round"/>
<path d="M212.805 212.805C212.805 212.805 212.872 212.029 212.945 210.892" stroke="#263238" stroke-width="0.5" stroke-linecap="round" stroke-linejoin="round"/>
<path d="M221.041 200.074C221.101 199.456 221.134 199.079 221.134 199.079" stroke="#263238" stroke-width="0.5" stroke-linecap="round" stroke-linejoin="round"/>
<path d="M215.422 210.514C215.422 210.514 215.901 206.325 216.853 205.536C217.805 204.747 220.535 204.263 220.774 202.357C220.814 202.058 220.848 201.774 220.881 201.511" stroke="#263238" stroke-width="0.5" stroke-linecap="round" stroke-linejoin="round"/>
<path d="M219.47 197.429C219.22 197.607 219.021 197.856 218.894 198.146C218.768 198.437 218.718 198.76 218.751 199.079C218.799 199.84 218.648 200.601 218.312 201.274C217.977 201.948 217.471 202.508 216.853 202.891" stroke="#263238" stroke-width="0.5" stroke-linecap="round" stroke-linejoin="round"/>
<path d="M214.509 192.173C214.545 191.462 214.532 190.749 214.469 190.04" stroke="#263238" stroke-width="0.5" stroke-linecap="round" stroke-linejoin="round"/>
<path d="M169.169 189.385L170.934 209.227V211.325C170.934 214.169 174.675 216.424 179.296 216.424C183.917 216.424 187.658 214.141 187.658 211.325V209.227L189.263 189.179L169.169 189.385Z" fill="white" stroke="#263238" stroke-linecap="round" stroke-linejoin="round"/>
<path d="M187.738 208.153L188.664 196.596C187.419 198.666 183.704 200.152 179.309 200.152C174.682 200.152 170.814 198.488 169.782 196.248L170.834 208.082C172.538 209.596 175.688 210.62 179.309 210.62C182.931 210.62 186.034 209.646 187.738 208.153Z" fill="#92E3A9" stroke="#263238" stroke-linecap="round" stroke-linejoin="round"/>
<path d="M169.502 193.125V192.99L169.416 192.194L169.502 193.125Z" fill="white" stroke="#263238" stroke-linecap="round" stroke-linejoin="round"/>
<path d="M189.582 186.441C187.811 184.051 183.877 182.38 179.296 182.38C174.715 182.38 170.781 184.051 169.003 186.441H167.998V189.285C167.998 193.097 173.058 196.184 179.316 196.184C185.574 196.184 190.634 193.097 190.634 189.285V186.441H189.582Z" fill="#92E3A9" stroke="#263238" stroke-linecap="round" stroke-linejoin="round"/>
<path opacity="0.2" d="M189.582 186.441C187.811 184.051 183.877 182.38 179.296 182.38C174.715 182.38 170.781 184.051 169.003 186.441H167.998V189.285C167.998 193.097 173.058 196.184 179.316 196.184C185.574 196.184 190.634 193.097 190.634 189.285V186.441H189.582Z" fill="black"/>
<path d="M179.296 193.339C185.536 193.339 190.594 190.25 190.594 186.44C190.594 182.631 185.536 179.542 179.296 179.542C173.056 179.542 167.998 182.631 167.998 186.44C167.998 190.25 173.056 193.339 179.296 193.339Z" fill="white" stroke="#263238" stroke-linecap="round" stroke-linejoin="round"/>
<path d="M188.284 182.593C186.733 180.502 183.297 179.037 179.296 179.037C175.295 179.037 171.859 180.495 170.308 182.593H169.449V185.068C169.449 188.396 173.863 191.092 179.316 191.092C184.769 191.092 189.183 188.396 189.183 185.068V182.593H188.284Z" fill="#92E3A9" stroke="#263238" stroke-linecap="round" stroke-linejoin="round"/>
<path d="M179.296 188.617C184.745 188.617 189.163 185.92 189.163 182.593C189.163 179.266 184.745 176.569 179.296 176.569C173.847 176.569 169.429 179.266 169.429 182.593C169.429 185.92 173.847 188.617 179.296 188.617Z" fill="white" stroke="#263238" stroke-linecap="round" stroke-linejoin="round"/>
<path d="M79.7078 124.099C79.7078 124.099 80.4801 123.552 85.3803 125.749C90.2805 127.947 92.2046 127.47 96.9716 126.574C102.697 125.507 107.451 124.441 108.024 126.915C109.016 131.182 105.008 131.133 97.7972 131.958C90.5868 132.783 86.4056 130.429 84.0887 129.326C83.0222 128.859 81.9896 128.307 80.9994 127.676L79.7078 124.099Z" fill="white" stroke="#263238" stroke-linecap="round" stroke-linejoin="round"/>
<path d="M68.6292 126.304C68.6292 126.304 75.074 134.283 77.9036 132.078C80.7332 129.874 80.4802 122.726 77.9036 120.522C75.327 118.317 68.1165 122.449 68.6292 126.304Z" fill="white" stroke="#263238" stroke-linecap="round" stroke-linejoin="round"/>
<path d="M88.2233 104.286C88.2233 104.286 88.4829 111.718 86.6786 116.667C84.8744 121.617 81.5255 124.924 81.0128 127.676C80.5001 130.429 80.7531 134.283 78.1766 135.385C75.6 136.488 75.6 134.561 75.8596 132.356C76.1193 130.151 76.6319 121.902 76.6319 121.902L68.1165 127.399C68.1165 127.399 70.4335 134.283 65.5399 135.108C60.6464 135.933 54.7209 127.954 53.9486 121.923C53.1763 115.892 56.2655 102.38 61.6784 98.8026C67.0912 95.2254 74.042 95.7801 77.6572 95.7801C81.2725 95.7801 86.6653 98.511 88.2233 104.286Z" fill="white" stroke="#263238" stroke-linecap="round" stroke-linejoin="round"/>
<path d="M67.6837 96.6478C67.6837 96.6478 66.3522 97.3589 64.0286 101.263C61.705 105.168 66.3521 108.532 68.8488 106.761C71.3455 104.99 69.1751 101.263 71.006 99.4853C72.0593 98.5309 72.766 97.2123 73.0034 95.7588L67.6837 96.6478Z" fill="#263238"/>
<path d="M60.2136 102.145C59.6184 102.599 59.1184 103.181 58.7458 103.853C58.3732 104.526 58.1362 105.274 58.0498 106.05C57.8834 108.532 62.0446 103.916 62.5372 101.782C63.0299 99.6489 60.2136 102.145 60.2136 102.145Z" fill="#263238"/>
<path d="M75.074 96.5837C74.4831 97.7302 74.1951 99.0267 74.2409 100.334C74.2866 101.642 74.6643 102.912 75.3336 104.008C77.6506 107.863 82.8038 109.513 84.861 106.761C86.9183 104.008 87.6973 102.636 86.925 101.263C86.1527 99.8907 78.6825 94.3791 75.074 96.5837Z" fill="#92E3A9" stroke="#263238" stroke-linecap="round" stroke-linejoin="round"/>
<path d="M94.1355 83.1001C93.1576 83.2136 92.1682 83.1001 91.2352 82.7675C90.3021 82.4349 89.4473 81.8909 88.7293 81.1728C86.1527 78.698 83.8291 73.1935 82.8038 73.4637C81.7785 73.7339 78.1433 81.7205 78.1433 81.7205C78.1433 81.7205 71.9581 82.2752 71.4455 84.1953C70.9328 86.1155 73.7624 95.2044 76.106 99.0589C77.1988 100.776 78.6537 102.195 80.3536 103.201C82.0534 104.208 83.9508 104.775 85.893 104.855C88.9823 104.855 98.2567 105.68 99.5483 102.373C100.84 99.066 99.8013 89.1665 99.8013 89.1665C99.8013 89.1665 103.929 84.7643 102.125 83.9393C100.321 83.1144 94.1355 83.1001 94.1355 83.1001Z" fill="white" stroke="#263238" stroke-linecap="round" stroke-linejoin="round"/>
<path d="M92.8838 96.8681C92.5708 96.4343 92.2712 95.9933 91.9783 95.5382C91.4923 94.7701 90.3405 93.5967 88.1234 94.3434C84.9676 95.4031 82.7971 98.6105 86.2991 101.263C89.5948 103.788 96.2127 101.512 92.8838 96.8681Z" fill="#263238"/>
<path d="M78.1632 81.7203C78.1632 81.7203 81.7718 83.9249 83.829 83.1C85.8863 82.275 84.6014 72.9159 82.8037 73.4635C81.0061 74.0111 77.9036 78.1431 78.1632 81.7203Z" fill="white" stroke="#263238" stroke-linecap="round" stroke-linejoin="round"/>
<path d="M102.125 83.9248C102.125 83.9248 98.7959 83.6475 96.712 86.1224C94.6281 88.5973 95.9397 91.1006 98.7759 91.6269C101.612 92.1531 103.15 83.9248 102.125 83.9248Z" fill="white" stroke="#263238" stroke-linecap="round" stroke-linejoin="round"/>
<path d="M82.0315 99.3359C82.0315 99.3359 78.7025 96.5837 79.4549 98.7812C80.2072 100.979 81.5122 101.263 82.7838 100.709C84.0555 100.154 82.0315 99.3359 82.0315 99.3359Z" fill="#92E3A9" stroke="#263238" stroke-linecap="round" stroke-linejoin="round"/>
<path d="M80.1939 92.4377C80.0008 93.1489 79.4549 93.6467 78.9755 93.5044C78.4961 93.3622 78.2631 92.651 78.4562 91.9185C78.6493 91.186 79.1952 90.7095 79.6746 90.8518C80.1539 90.994 80.387 91.7123 80.1939 92.4377Z" fill="#263238"/>
<path d="M88.1367 98.9303C87.5175 99.3144 86.8051 99.2575 86.5655 98.7952C86.3258 98.333 86.6054 97.6573 87.2312 97.2733C87.46 97.079 87.749 96.9842 88.0404 97.008C88.3318 97.0317 88.604 97.1722 88.8025 97.4013C89.0422 97.8636 88.7492 98.5463 88.1367 98.9303Z" fill="white"/>
<path d="M65.0273 116.397C65.0273 116.397 64.255 122.449 65.2803 124.931C66.3056 127.413 67.3442 136.765 69.4082 137.021C71.4721 137.277 70.6931 132.043 70.6931 131.24C70.6931 130.436 70.9528 121.61 70.9528 121.61C70.9528 121.61 72.7571 117.478 73.7824 115.281" fill="white"/>
<path d="M65.0273 116.397C65.0273 116.397 64.255 122.449 65.2803 124.931C66.3056 127.413 67.3442 136.765 69.4082 137.021C71.4721 137.277 70.6931 132.043 70.6931 131.24C70.6931 130.436 70.9528 121.61 70.9528 121.61C70.9528 121.61 72.7571 117.478 73.7824 115.281" stroke="#263238" stroke-linecap="round" stroke-linejoin="round"/>
<path d="M56.5252 116.12C56.5252 116.12 63.4827 113.915 64.255 122.172" stroke="#263238" stroke-linecap="round" stroke-linejoin="round"/>
<path d="M76.6186 121.923C76.6186 121.923 82.5441 118.616 82.8037 111.461" stroke="#263238" stroke-linecap="round" stroke-linejoin="round"/>
<path d="M5 133.181L9.38753 132.121" stroke="#263238" stroke-linecap="round" stroke-linejoin="round"/>
<path d="M41.6182 160.838L76.9981 150.121C78.1227 149.994 79.2539 150.285 80.2005 150.946L137.771 190.238C138.016 190.408 138.207 190.654 138.317 190.942C138.427 191.231 138.452 191.549 138.387 191.854C138.322 192.158 138.172 192.434 137.956 192.643C137.739 192.853 137.468 192.987 137.178 193.026L88.7625 209.134L41.6182 160.838Z" fill="#92E3A9" stroke="#263238" stroke-linecap="round" stroke-linejoin="round"/>
<path d="M62.3042 163.1L67.3176 166.791L73.1099 165.041L68.1032 161.357L62.3042 163.1Z" fill="#263238"/>
<path d="M65.4267 173.419L60.42 169.728L54.621 171.478L59.6344 175.169L65.4267 173.419Z" fill="#263238"/>
<path d="M74.9009 165.361L79.9076 169.045L85.6999 167.296L80.6932 163.612L74.9009 165.361Z" fill="#263238"/>
<path d="M80.7398 169.657L85.7465 173.341L91.5389 171.592L86.5322 167.908L80.7398 169.657Z" fill="#263238"/>
<path d="M68.1431 167.395L73.1498 171.086L78.9422 169.337L73.9355 165.653L68.1431 167.395Z" fill="#263238"/>
<path d="M55.5464 165.141L60.5532 168.832L66.3521 167.083L61.3388 163.392L55.5464 165.141Z" fill="#263238"/>
<path d="M95.5269 188.56L90.5135 184.869L84.7278 186.618L89.7346 190.309L95.5269 188.56Z" fill="#263238"/>
<path d="M88.7625 190.601L83.7558 186.91L77.9635 188.66L82.9769 192.344L88.7625 190.601Z" fill="#263238"/>
<path d="M71.259 177.714L66.2523 174.023L60.46 175.773L65.4667 179.457L71.259 177.714Z" fill="#263238"/>
<path d="M101.359 192.855L96.3525 189.171L90.5601 190.914L95.5668 194.605L101.359 192.855Z" fill="#263238"/>
<path d="M77.0979 182.01L72.0846 178.319L66.2922 180.069L71.3056 183.753L77.0979 182.01Z" fill="#263238"/>
<path d="M82.9302 186.306L77.9235 182.615L72.1312 184.364L77.1379 188.055L82.9302 186.306Z" fill="#263238"/>
<path d="M86.5721 173.953L91.5788 177.636L97.3711 175.887L92.3644 172.203L86.5721 173.953Z" fill="#263238"/>
<path d="M61.3854 169.437L66.3921 173.128L72.1844 171.378L67.1777 167.694L61.3854 169.437Z" fill="#263238"/>
<path d="M108.117 190.814L103.11 187.13L97.3179 188.88L102.325 192.564L108.117 190.814Z" fill="#263238"/>
<path d="M90.6134 177.928L85.6067 174.244L79.8143 175.987L84.821 179.678L90.6134 177.928Z" fill="#263238"/>
<path d="M78.0168 175.673L73.01 171.982L67.2177 173.732L72.2244 177.423L78.0168 175.673Z" fill="#263238"/>
<path d="M53.7555 164.828L50.8261 162.666L46.8646 163.854L49.1816 166.208L53.7555 164.828Z" fill="#263238"/>
<path d="M59.5878 169.124L54.5811 165.433L49.834 166.869L53.7555 170.838L53.7955 170.866L59.5878 169.124Z" fill="#263238"/>
<path d="M73.9754 171.698L78.9888 175.382L84.7811 173.632L79.7677 169.948L73.9754 171.698Z" fill="#263238"/>
<path d="M83.8557 179.969L78.849 176.285L73.0566 178.028L78.0634 181.719L83.8557 179.969Z" fill="#263238"/>
<path d="M109.042 184.478L104.036 180.794L98.2433 182.543L103.25 186.227L109.042 184.478Z" fill="#263238"/>
<path d="M92.4044 178.248L97.4177 181.932L103.21 180.182L98.2034 176.499L92.4044 178.248Z" fill="#263238"/>
<path d="M102.285 186.519L97.2779 182.835L91.4856 184.584L96.4923 188.268L102.285 186.519Z" fill="#263238"/>
<path d="M96.4457 182.223L91.439 178.54L85.6467 180.282L90.66 183.973L96.4457 182.223Z" fill="#263238"/>
<path d="M89.6879 184.264L84.6812 180.581L78.8889 182.323L83.8956 186.014L89.6879 184.264Z" fill="#263238"/>
<path d="M64.5012 179.748L59.4945 176.064L59.0485 176.2L62.9966 180.204L64.5012 179.748Z" fill="#263238"/>
<path d="M108.949 191.426L103.157 193.176L109.162 197.592L114.808 195.736L108.949 191.426Z" fill="#263238"/>
<path d="M102.185 193.467L96.3925 195.21L102.578 199.761L108.217 197.905L102.185 193.467Z" fill="#263238"/>
<path d="M76.1725 188.339L71.1658 184.655L68.2563 185.53L72.2111 189.541L76.1725 188.339Z" fill="#263238"/>
<path d="M114.881 188.773L109.868 185.089L104.076 186.839L109.089 190.523L114.881 188.773Z" fill="#263238"/>
<path d="M82.0048 192.642L76.9981 188.951L72.8635 190.203L76.8116 194.207L82.0048 192.642Z" fill="#263238"/>
<path d="M87.8437 196.938L82.837 193.247L77.4641 194.868L81.4189 198.872L87.8437 196.938Z" fill="#263238"/>
<path d="M94.6015 194.897L89.5948 191.206L83.8024 192.955L88.8091 196.646L94.6015 194.897Z" fill="#263238"/>
<path d="M127.318 189.108L123.989 186.882L116.666 189.094L122.325 193.261L126.732 191.839C127.023 191.812 127.297 191.687 127.517 191.482C127.737 191.278 127.891 191.004 127.956 190.701C128.021 190.398 127.994 190.08 127.88 189.794C127.765 189.507 127.568 189.267 127.318 189.108Z" fill="#263238"/>
<path d="M88.6693 197.542L82.0714 199.534L87.2645 204.796L95.0475 202.236L88.6693 197.542Z" fill="#263238"/>
<path d="M117.811 182.693L110.84 184.798L115.847 188.482L123.137 186.284L117.811 182.693Z" fill="#263238"/>
<path d="M115.707 189.385L109.915 191.134L115.747 195.43L121.393 193.574L115.707 189.385Z" fill="#263238"/>
<path d="M75.0007 158.413L79.7345 156.984L76.6785 154.921L72.1112 156.287L75.0007 158.413Z" fill="#263238"/>
<path d="M101.632 200.074L95.427 195.501L89.6347 197.25L95.9863 201.93L101.632 200.074Z" fill="#263238"/>
<path d="M75.8263 159.025L80.833 162.709L85.9396 161.172L80.6133 157.581L75.8263 159.025Z" fill="#263238"/>
<path d="M87.4975 167.616L92.5042 171.3L98.3365 169.543L93.0169 165.952L87.4975 167.616Z" fill="#263238"/>
<path d="M81.6586 163.32L86.6719 167.004L92.138 165.354L86.8118 161.763L81.6586 163.32Z" fill="#263238"/>
<path d="M93.3298 171.911L98.3365 175.595L104.535 173.732L99.2153 170.133L93.3298 171.911Z" fill="#263238"/>
<path d="M99.1688 176.207L104.175 179.891L110.733 177.914L105.414 174.322L99.1688 176.207Z" fill="#263238"/>
<path d="M111.612 178.504L105.001 180.502L110.008 184.186L116.932 182.102L111.612 178.504Z" fill="#263238"/>
<path d="M69.0685 161.066L74.0753 164.75L79.8676 163L74.8609 159.316L69.0685 161.066Z" fill="#263238"/>
<path d="M57.3707 174.507L58.396 175.538L58.6624 175.453L57.3707 174.507Z" fill="#263238"/>
<path d="M54.7209 164.536L60.5132 162.787L57.5971 160.639L51.7914 162.374L54.7209 164.536Z" fill="#263238"/>
<path d="M61.4786 162.496L67.271 160.746L64.3682 158.605L58.5625 160.348L61.4786 162.496Z" fill="#263238"/>
<path d="M65.3401 158.321L68.243 160.455L74.0353 158.705L71.1391 156.579L65.3401 158.321Z" fill="#263238"/>
<path d="M70.3335 184.051L65.3268 180.36L63.649 180.865L67.6038 184.869L70.3335 184.051Z" fill="#263238"/>
<path d="M88.7292 209.134L73.4161 142.917C73.0673 141.411 72.3154 140.047 71.2523 138.991L29.9736 97.878C29.7982 97.7039 29.5751 97.5946 29.3372 97.5661C29.0992 97.5375 28.859 97.5913 28.6518 97.7195C28.4446 97.8476 28.2814 98.0434 28.1862 98.2781C28.0909 98.5127 28.0687 98.7738 28.1227 99.023L41.6182 160.838L88.7292 209.134Z" fill="#92E3A9" stroke="#263238" stroke-linecap="round" stroke-linejoin="round"/>
<path d="M65.5865 136.281L70.3069 140.691C70.3069 140.691 71.7783 141.003 73.2497 148.876" stroke="#263238" stroke-width="0.5" stroke-linecap="round" stroke-linejoin="round"/>
<path d="M74.1352 152.966L82.837 193.247" stroke="#263238" stroke-width="0.5" stroke-linecap="round" stroke-linejoin="round"/>
<path d="M48.6555 134.482C50.6995 139.787 50.5131 144.901 48.2361 145.903C45.9591 146.906 42.4504 143.414 40.4064 138.08C38.3625 132.747 38.5489 127.662 40.8259 126.666C43.1029 125.67 46.6116 129.177 48.6555 134.482Z" fill="#92E3A9"/>
<path opacity="0.6" d="M48.6555 134.482C50.6995 139.787 50.5131 144.901 48.2361 145.903C45.9591 146.906 42.4504 143.414 40.4064 138.08C38.3625 132.747 38.5489 127.662 40.8259 126.666C43.1029 125.67 46.6116 129.177 48.6555 134.482Z" fill="white"/>
<path d="M47.164 143.128C48.7825 142.416 48.9153 138.78 47.4606 135.006C46.006 131.233 43.5148 128.751 41.8964 129.463C40.2779 130.174 40.1451 133.81 41.5998 137.584C43.0544 141.358 45.5456 143.84 47.164 143.128Z" stroke="#263238" stroke-miterlimit="10"/>
<path d="M51.8114 156.237C52.8766 158.99 52.4372 161.792 50.8393 162.496C49.2414 163.2 47.0843 161.536 46.019 158.79C44.9538 156.045 45.3999 153.236 46.9977 152.532C48.5956 151.828 50.7528 153.492 51.8114 156.237Z" fill="#263238"/>
<path d="M49.6076 160.895C48.6023 160.895 47.5104 159.921 46.9445 158.399C46.6259 157.616 46.5153 156.755 46.6249 155.91C46.6542 155.557 46.7691 155.219 46.9582 154.928C47.1474 154.638 47.4043 154.405 47.7035 154.253C48.8287 153.755 50.2668 154.8 50.9725 156.628C51.6716 158.456 51.3387 160.276 50.2135 160.774C50.0207 160.856 49.815 160.897 49.6076 160.895ZM48.2761 154.843C48.1617 154.842 48.0483 154.866 47.9432 154.914C47.7518 155.024 47.5901 155.184 47.4735 155.379C47.3569 155.575 47.2894 155.799 47.2774 156.031C47.1822 156.756 47.279 157.495 47.557 158.164C48.0963 159.587 49.1948 160.483 49.9538 160.148C50.7128 159.814 50.8926 158.342 50.3467 156.934C49.8473 155.689 48.9418 154.843 48.2761 154.843Z" fill="#92E3A9"/>
<g opacity="0.5">
<path opacity="0.5" d="M49.6076 160.895C48.6023 160.895 47.5104 159.921 46.9445 158.399C46.6259 157.616 46.5153 156.755 46.6249 155.91C46.6542 155.557 46.7691 155.219 46.9582 154.928C47.1474 154.638 47.4043 154.405 47.7035 154.253C48.8287 153.755 50.2668 154.8 50.9725 156.628C51.6716 158.456 51.3387 160.276 50.2135 160.774C50.0207 160.856 49.815 160.897 49.6076 160.895ZM48.2761 154.843C48.1617 154.842 48.0483 154.866 47.9432 154.914C47.7518 155.024 47.5901 155.184 47.4735 155.379C47.3569 155.575 47.2894 155.799 47.2774 156.031C47.1822 156.756 47.279 157.495 47.557 158.164C48.0963 159.587 49.1948 160.483 49.9538 160.148C50.7128 159.814 50.8926 158.342 50.3467 156.934C49.8473 155.689 48.9418 154.843 48.2761 154.843Z" fill="white"/>
</g>
<path d="M63.6824 157.119L59.894 163.519C59.7964 163.675 59.7443 163.858 59.7443 164.046C59.7443 164.233 59.7964 164.416 59.894 164.572L68.0033 177.202C68.0743 177.315 68.1666 177.41 68.2742 177.481C68.3817 177.553 68.5021 177.599 68.6277 177.618C68.7532 177.637 68.881 177.627 69.0028 177.59C69.1246 177.553 69.2378 177.489 69.3349 177.402L73.536 173.739C73.7034 173.595 73.8165 173.391 73.8544 173.165C73.8923 172.939 73.8525 172.706 73.7424 172.509L65.2137 157.154C65.1374 157.011 65.0276 156.891 64.8951 156.807C64.7625 156.722 64.6118 156.676 64.4575 156.673C64.3032 156.669 64.1506 156.708 64.0148 156.786C63.8789 156.865 63.7644 156.979 63.6824 157.119Z" fill="#263238"/>
<path d="M57.0911 165.603C57.0911 165.603 67.5839 163.74 74.7943 179.528L76.5853 177.174C76.5853 177.174 69.6411 164.821 63.982 163.718C58.3228 162.616 56.2655 162.609 56.2655 162.609L57.0911 165.603Z" fill="#92E3A9"/>
<path opacity="0.5" d="M57.0911 165.603C57.0911 165.603 67.5839 163.74 74.7943 179.528L76.5853 177.174C76.5853 177.174 69.6411 164.821 63.982 163.718C58.3228 162.616 56.2655 162.609 56.2655 162.609L57.0911 165.603Z" fill="white"/>
<path d="M11.8376 131.531L28.9616 127.399" stroke="#263238" stroke-linecap="round" stroke-linejoin="round"/>
<path d="M120.56 171.356C118.508 171.702 116.438 171.923 114.362 172.018C111.146 172.153 109.781 172.153 110.274 172.949C110.767 173.746 114.615 174.535 115.973 174.799C117.331 175.062 120.56 171.356 120.56 171.356Z" fill="white" stroke="#263238" stroke-miterlimit="10"/>
<path d="M241.307 200.124L235.575 196.923" stroke="#263238" stroke-linecap="round" stroke-linejoin="round"/>
<path d="M126.799 125.379C126.799 125.379 128.004 123.125 128.51 125.92L126.799 125.379Z" fill="#263238"/>
<path d="M232.026 194.94L92.2645 116.945" stroke="#263238" stroke-linecap="round" stroke-linejoin="round"/>
<path d="M95.9396 147.49L125.307 167.715L149.462 157.19L116.925 139.524L95.9396 147.49Z" fill="#263238" stroke="#263238" stroke-linecap="round" stroke-linejoin="round"/>
<path d="M114.815 143.272L103.11 147.688" stroke="white" stroke-width="0.5" stroke-linecap="round" stroke-linejoin="round"/>
<path d="M104.948 149.161L126.066 163.384L143.277 156.272" stroke="white" stroke-width="0.5" stroke-linecap="round" stroke-linejoin="round"/>
<path d="M216.946 51.9146C216.946 51.9146 233.764 54.7593 239.177 64.3886C244.59 74.0179 240.721 89.1517 238.917 94.3789C237.286 99.1224 242.106 103.084 245.069 105.658C251.727 111.433 255.156 119.583 251.694 128.451C249.536 133.97 239.942 136.445 241.241 143.087C242.539 149.73 248.192 159.046 240.981 165.93C233.371 173.184 221.953 169.444 215.282 162.666C207.778 155.042 205.195 141.779 209.037 131.531C213.697 119.149 216.247 111.17 211.866 105.928C207.485 100.687 201.82 97.3943 201.82 89.9696C201.82 82.5449 208.005 80.3403 210.581 72.9014C213.158 65.4625 209.549 57.7675 209.549 57.7675L216.946 51.9146Z" fill="#263238" stroke="#263238" stroke-linecap="round" stroke-linejoin="round"/>
<path d="M232.699 64.7583C235.948 67.3825 238.904 71.7989 237.879 78.9818C235.801 93.5609 225.715 94.5139 232.239 103.702C238.764 112.891 244.703 108.766 243.511 120.173C242.319 131.58 238.471 135.698 238.471 135.698" stroke="white" stroke-miterlimit="10"/>
<path d="M225.741 61.2524C227.042 61.5792 228.305 62.0561 229.51 62.6748" stroke="white" stroke-miterlimit="10"/>
<path d="M222.479 65.377C222.479 65.377 231.081 67.9087 233.751 75.5112C236.42 83.1137 225.761 89.4574 225.149 94.208" stroke="white" stroke-miterlimit="10"/>
<path d="M222.099 189.399C221.98 185.04 221.926 179.223 222.173 173.085C222.692 160.426 236.86 143.635 237.373 140.613C237.885 137.59 236.6 137.057 236.6 137.057L208.517 124.121C195.461 133.281 192.286 159.921 191.507 172.353L222.099 189.399Z" fill="#92E3A9" stroke="#263238" stroke-linecap="round" stroke-linejoin="round"/>
<path d="M233.551 137.86C233.551 137.86 235.908 139.432 233.551 141.95C231.194 144.467 224.709 155.17 222.046 161.464" stroke="#263238" stroke-width="0.5" stroke-linecap="round" stroke-linejoin="round"/>
<path d="M220.881 164.593C220.881 164.593 218.817 169.628 219.117 174.664C219.416 179.699 219.41 184.421 219.41 184.421" stroke="#263238" stroke-width="0.5" stroke-linecap="round" stroke-linejoin="round"/>
<path d="M165.794 131.026C167.032 134.468 168.524 141.871 167.532 146.103C167.019 148.3 165.301 152.916 163.777 156.849L201.64 177.985C201.6 169.564 201.7 156.272 202.705 153.805C204.19 150.099 216.081 115.181 215.355 107.244C214.629 99.3073 200.248 87.9285 200.248 87.9285L202.452 68.5845L189.329 77.0546C189.329 77.0546 187.838 84.7211 186.353 86.5772C184.869 88.4334 172.731 91.0719 169.263 95.8225C165.794 100.573 167.032 115.138 167.032 115.927C167.032 116.717 164.556 127.612 165.794 131.026Z" fill="white"/>
<g style="mix-blend-mode:multiply" opacity="0.5">
<path d="M215.335 107.216C214.589 99.2788 200.228 87.9 200.228 87.9L202.452 68.5845L189.329 77.0546C189.329 77.0546 188.897 79.2663 188.271 81.6061C189.116 81.5279 190.062 81.3999 191.12 81.2007C196.127 80.2549 198.784 78.356 198.784 78.356L196.12 90.318C196.12 90.318 209.676 98.8521 213.211 109.207C213.691 110.629 214.203 111.959 214.729 113.282C215.177 111.297 215.381 109.257 215.335 107.216Z" fill="#92E3A9"/>
</g>
<path d="M165.794 131.026C167.032 134.468 168.524 141.871 167.532 146.103C167.019 148.3 165.301 152.916 163.777 156.849L201.64 177.985C201.6 169.564 201.7 156.272 202.705 153.805C204.19 150.099 216.081 115.181 215.355 107.244C214.629 99.3073 200.248 87.9285 200.248 87.9285L202.452 68.5845L189.329 77.0546C189.329 77.0546 187.838 84.7211 186.353 86.5772C184.869 88.4334 172.731 91.0719 169.263 95.8225C165.794 100.573 167.032 115.138 167.032 115.927C167.032 116.717 164.556 127.612 165.794 131.026Z" stroke="#263238" stroke-linecap="round" stroke-linejoin="round"/>
<path d="M165.794 131.026C167.032 134.468 168.524 141.871 167.532 146.103C167.019 148.3 165.301 152.916 163.777 156.849L201.64 177.985C201.6 169.564 201.7 156.273 202.705 153.805C204.19 150.1 216.081 115.181 215.355 107.244C214.896 102.301 209.157 96.0359 204.889 92.0035C200.688 96.7613 191.573 105.637 184.915 101.683C178.923 98.1268 179.303 92.7218 180.188 89.5073C176.14 91.1004 171.3 93.1343 169.309 95.8652C165.841 100.63 167.079 115.181 167.079 115.97C167.079 116.76 164.556 127.612 165.794 131.026Z" fill="#263238" stroke="#263238" stroke-linecap="round" stroke-linejoin="round"/>
<path d="M187.911 121.624L179.669 117.492C179.669 117.492 177.345 113.367 176.06 113.367C174.775 113.367 173.996 119.149 173.996 119.149C173.996 119.149 169.622 123.551 171.167 127.953C172.711 132.356 178.377 138.962 185.335 136.488C192.292 134.013 190.228 126.311 190.228 126.311C190.228 126.311 193.065 121.083 193.065 119.981C193.065 118.879 187.911 121.624 187.911 121.624Z" fill="white" stroke="#263238" stroke-linecap="round" stroke-linejoin="round"/>
<path d="M170.255 36.3041C170.255 36.3041 171.992 45.8339 171.739 52.4478C171.486 59.0617 169.016 61.6931 169.742 64.616C170.468 67.539 179.403 78.3773 184.849 79.4298C190.295 80.4824 203.178 71.4931 206.893 67.5247C210.608 63.5564 211.101 57.7389 210.608 55.3565C210.115 52.9741 208.131 33.9288 200.701 26.2552C193.271 18.5816 173.723 19.3781 170.255 36.3041Z" fill="white"/>
<g style="mix-blend-mode:multiply" opacity="0.5">
<path d="M200.741 26.2554C197.965 23.4107 193.491 21.7038 188.797 21.5972L188.491 31.4683C188.491 31.4683 187.013 41.2256 192.319 49.0912C197.625 56.9568 202.339 59.1686 202.925 62.312C203.511 65.4554 200.848 68.5846 194.083 73.9611C191.438 76.0995 188.604 77.9574 185.621 79.5082C191.42 79.7287 203.371 71.3297 206.926 67.5249C210.641 63.5566 211.134 57.7391 210.641 55.3567C210.149 52.9743 208.151 33.929 200.741 26.2554Z" fill="#92E3A9"/>
</g>
<path d="M170.255 36.3041C170.255 36.3041 171.992 45.8339 171.739 52.4478C171.486 59.0617 169.016 61.6931 169.742 64.616C170.468 67.539 179.403 78.3773 184.849 79.4298C190.295 80.4824 203.178 71.4931 206.893 67.5247C210.608 63.5564 211.101 57.7389 210.608 55.3565C210.115 52.9741 208.131 33.9288 200.701 26.2552C193.271 18.5816 173.723 19.3781 170.255 36.3041Z" stroke="#263238" stroke-linecap="round" stroke-linejoin="round"/>
<path d="M179.669 55.8828C179.669 55.8828 178.923 60.9108 177.672 62.4968C178.643 63.4022 179.856 63.9593 181.14 64.0898" stroke="#263238" stroke-linecap="round" stroke-linejoin="round"/>
<path d="M180.162 68.5849C181.775 69.3489 183.534 69.6991 185.297 69.6078C187.06 69.5164 188.778 68.9859 190.315 68.0586" stroke="#263238" stroke-linecap="round" stroke-linejoin="round"/>
<path d="M189.076 53.2373C189.076 54.1191 188.69 54.8303 188.211 54.8303C187.732 54.8303 187.345 54.1191 187.345 53.2373C187.345 52.3554 187.732 51.6514 188.211 51.6514C188.69 51.6514 189.076 52.3625 189.076 53.2373Z" fill="#263238"/>
<path d="M176.819 51.125C176.819 51.9997 176.433 52.7109 175.954 52.7109C175.474 52.7109 175.088 51.9997 175.088 51.125C175.088 50.2502 175.474 49.5391 175.954 49.5391C176.433 49.5391 176.819 50.2502 176.819 51.125Z" fill="#263238"/>
<path d="M173.477 44.2478C174.172 43.7846 174.946 43.4755 175.755 43.3386C176.563 43.2018 177.39 43.2401 178.184 43.4512" stroke="#263238" stroke-linecap="round" stroke-linejoin="round"/>
<path d="M185.115 44.5114C185.115 44.5114 186.6 43.7149 189.822 45.8342" stroke="#263238" stroke-linecap="round" stroke-linejoin="round"/>
<path d="M186.6 29.1638C186.6 29.1638 179.669 35.2514 176.2 38.9496C172.731 42.6477 171.247 45.3004 166.047 42.925C160.847 40.5497 157.125 32.3356 164.05 22.5498C170.974 12.764 184.363 9.84823 197.485 13.8166C210.608 17.785 216.067 26.7813 217.053 36.5742C218.038 46.3671 216.054 57.2054 211.394 60.1213C206.733 63.0371 196.28 51.1249 192.565 43.7144C190.237 39.0312 188.243 34.1672 186.6 29.1638Z" fill="#263238" stroke="#263238" stroke-linecap="round" stroke-linejoin="round"/>
<path d="M186.6 29.1641C186.6 29.1641 167.898 32.1083 167.012 36.539C166.127 40.9696 171.759 39.7108 171.759 39.7108" stroke="white" stroke-miterlimit="10"/>
<path d="M164.602 32.0869C163.337 34.9743 164.343 36.8589 164.343 36.8589" stroke="white" stroke-miterlimit="10"/>
<path d="M205.275 19.7481C205.275 19.7481 187.179 16.5833 187.179 25.1317C187.179 25.1317 176.207 21.014 169.09 26.7176C168.021 27.5494 167.041 28.5033 166.167 29.5623" stroke="white" stroke-miterlimit="10"/>
<path d="M188.091 27.0376C188.091 27.0376 192.705 42.9395 202.332 47.0003" stroke="white" stroke-miterlimit="10"/>
<path d="M197.692 31.312C201.4 34.5834 206.706 37.8122 213.005 37.4921" stroke="white" stroke-miterlimit="10"/>
<path d="M191.926 24.8188C192.793 26.0927 193.745 27.2977 194.776 28.4245" stroke="white" stroke-miterlimit="10"/>
<path d="M168.524 45.5709L197.499 50.8621C197.499 50.8621 197.499 55.57 196.26 57.9738C195.022 60.3776 193.537 60.406 190.315 60.406C187.092 60.406 182.612 58.2725 182.392 57.4973C181.879 55.6198 182.226 49.4255 182.226 49.4255L179.915 49.0272C179.915 49.0272 180.215 56.2457 178.976 57.0422C177.738 57.8387 169.562 56.2457 168.078 54.1335C166.593 52.0213 167.532 45.3007 168.524 45.5709Z" stroke="#263238" stroke-linecap="round" stroke-linejoin="round"/>
<path d="M197.499 50.8619L210.382 48.4795V50.3286L197.499 53.7706V50.8619Z" fill="#92E3A9" stroke="#263238" stroke-linecap="round" stroke-linejoin="round"/>
<path d="M219.889 52.5089C220.896 45.8194 218.536 39.8514 214.619 39.1789C210.702 38.5064 206.71 43.3842 205.704 50.0737C204.697 56.7631 207.057 62.7312 210.974 63.4036C214.891 64.0761 218.883 59.1984 219.889 52.5089Z" fill="#92E3A9" stroke="#263238" stroke-linecap="round" stroke-linejoin="round"/>
<path d="M221.96 52.775C221.114 58.4075 218.178 62.5821 215.415 62.1057C212.652 61.6292 211.087 56.6865 211.933 51.054C212.778 45.4215 215.708 41.254 218.478 41.7305C221.247 42.207 222.805 47.1496 221.96 52.775Z" fill="#92E3A9" stroke="#263238" stroke-linecap="round" stroke-linejoin="round"/>
<path d="M218.051 29.1641C218.53 36.5678 217.775 44.0034 215.821 51.1252C215.821 51.1252 215.575 55.3923 219.29 53.5077C223.005 51.623 222.512 35.5149 222.013 28.901C221.514 22.287 216.82 24.1361 218.051 29.1641Z" fill="white" stroke="#263238" stroke-linecap="round" stroke-linejoin="round"/>
<path d="M204.19 16.7256C204.19 16.7256 209.882 15.1397 212.845 20.7011C215.808 26.2625 215.322 31.2834 219.503 31.8097C223.684 32.3359 223.964 27.315 221.733 20.9642C219.503 14.6134 214.802 9.84855 208.358 9.32228C201.913 8.79601 198.744 14.3503 198.744 14.3503C198.744 14.3503 202.206 14.8766 204.19 16.7256Z" fill="#92E3A9" stroke="#263238" stroke-linecap="round" stroke-linejoin="round"/>
<path d="M203.69 115.679L186.6 157.219C186.6 157.219 140.035 166.464 135.827 166.464C131.619 166.464 123.177 169.636 121.459 170.731C119.742 171.826 102.904 180.083 106.146 180.595C108.144 180.915 113.31 177.878 113.31 177.878C113.31 177.878 105.134 182.145 105.873 183.433C106.612 184.72 116.526 179.464 116.526 179.464C116.526 179.464 107.464 185.154 109.322 185.474C111.013 185.794 113.057 184.763 114.795 183.433C116.31 182.439 117.942 181.664 119.648 181.129C119.648 181.129 115.654 183.973 115.181 185.268C114.708 186.562 116.173 185.794 117.658 185.268C120.436 183.988 123.122 182.49 125.694 180.787C126.679 179.991 129.655 178.405 131.639 176.556L135.601 172.85C135.601 172.85 162.099 173.64 174.216 173.114C186.333 172.587 192.299 171.264 196.76 166.5C201.22 161.735 213.85 131.574 216.82 123.374C219.789 115.174 217.812 110.409 214.822 104.883" fill="white"/>
<g style="mix-blend-mode:multiply" opacity="0.5">
<path d="M204.383 142.895C196.393 158.947 189.649 163.982 182.578 167.786C175.508 171.591 136.606 172.509 136.606 172.509L138.244 172.928C145.268 173.113 164.422 173.547 174.196 173.12C186.333 172.594 192.279 171.271 196.74 166.506C201.2 161.742 213.83 131.581 216.8 123.381C218.178 119.583 218.484 116.525 218.131 113.78L216.447 114.911C212.957 124.49 208.928 133.835 204.383 142.895Z" fill="#92E3A9"/>
</g>
<path d="M203.69 115.679L186.6 157.219C186.6 157.219 140.035 166.464 135.827 166.464C131.619 166.464 123.177 169.636 121.459 170.731C119.742 171.826 102.904 180.083 106.146 180.595C108.144 180.915 113.31 177.878 113.31 177.878C113.31 177.878 105.134 182.145 105.873 183.433C106.612 184.72 116.526 179.464 116.526 179.464C116.526 179.464 107.464 185.154 109.322 185.474C111.013 185.794 113.057 184.763 114.795 183.433C116.31 182.439 117.942 181.664 119.648 181.129C119.648 181.129 115.654 183.973 115.181 185.268C114.708 186.562 116.173 185.794 117.658 185.268C120.436 183.988 123.122 182.49 125.694 180.787C126.679 179.991 129.655 178.405 131.639 176.556L135.601 172.85C135.601 172.85 162.099 173.64 174.216 173.114C186.333 172.587 192.299 171.264 196.76 166.5C201.22 161.735 213.85 131.574 216.82 123.374C219.789 115.174 217.812 110.409 214.822 104.883" stroke="#263238" stroke-miterlimit="10"/>
<path d="M203.404 114.633L198.204 129.035C202.026 126.858 209.196 123.935 214.916 128.323C215.721 126.304 216.38 124.597 216.82 123.381C219.796 115.181 217.812 110.416 214.822 104.89" fill="#263238"/>
<path d="M203.404 114.633L198.204 129.035C202.026 126.858 209.196 123.935 214.916 128.323C215.721 126.304 216.38 124.597 216.82 123.381C219.796 115.181 217.812 110.416 214.822 104.89" stroke="#263238" stroke-linecap="round" stroke-linejoin="round"/>
<path d="M166.606 133.743C161.579 135.314 141.726 141.523 139.882 141.985C138.739 142.282 137.581 142.503 136.413 142.647C136.413 142.647 129.475 139.468 127.618 138.017C125.76 136.566 123.53 137.483 122.418 138.017C121.306 138.55 120.421 142.248 122.544 142.248C124.668 142.248 125.021 142.113 127.371 144.233C129.722 146.352 129.728 147.411 131.459 148.201C133.19 148.99 136.047 148.464 137.531 148.201C138.863 147.966 161.886 146.33 167.552 146.01C168.291 142.682 167.552 137.483 166.606 133.743Z" fill="white"/>
<g style="mix-blend-mode:multiply" opacity="0.5">
<path d="M167.398 137.569L137.531 148.236C138.863 148.002 161.886 146.366 167.552 146.046C168.058 143.728 167.871 140.563 167.398 137.569Z" fill="#92E3A9"/>
</g>
<path d="M166.606 133.743C161.579 135.314 141.726 141.523 139.882 141.985C138.739 142.282 137.581 142.503 136.413 142.647C136.413 142.647 129.475 139.468 127.618 138.017C125.76 136.566 123.53 137.483 122.418 138.017C121.306 138.55 120.421 142.248 122.544 142.248C124.668 142.248 125.021 142.113 127.371 144.233C129.722 146.352 129.728 147.411 131.459 148.201C133.19 148.99 136.047 148.464 137.531 148.201C138.863 147.966 161.886 146.33 167.552 146.01C168.291 142.682 167.552 137.483 166.606 133.743Z" stroke="#263238" stroke-linecap="round" stroke-linejoin="round"/>
<path d="M116.965 142.383C116.965 142.383 114.362 143.969 113.636 145.818C112.911 147.667 114.375 147.141 114.875 146.75C115.374 146.359 117.478 144.495 117.478 144.495L116.965 142.383Z" fill="white" stroke="#263238" stroke-linecap="round" stroke-linejoin="round"/>
<path d="M117.711 141.053C117.223 141.387 116.838 141.866 116.601 142.431C116.365 142.995 116.288 143.621 116.379 144.232C116.626 146.479 118.856 149.786 119.109 148.464C119.362 147.141 117.711 141.053 117.711 141.053Z" fill="white" stroke="#263238" stroke-linecap="round" stroke-linejoin="round"/>
<path d="M120.807 139.069C120.807 139.069 118.45 139.731 117.711 141.054C116.972 142.376 118.204 148.073 119.076 148.464C119.261 148.553 119.462 148.595 119.665 148.588C119.868 148.581 120.066 148.525 120.246 148.423C120.425 148.322 120.58 148.178 120.699 148.002C120.818 147.827 120.898 147.625 120.933 147.411C121.18 146.48 120.807 139.069 120.807 139.069Z" fill="white" stroke="#263238" stroke-linecap="round" stroke-linejoin="round"/>
<path d="M123.783 137.746C123.783 137.746 120.68 137.746 120.314 139.339C119.948 140.932 119.322 147.802 119.941 148.862C120.56 149.921 121.552 149.523 122.045 148.2C122.538 146.878 123.783 137.746 123.783 137.746Z" fill="white" stroke="#263238" stroke-linecap="round" stroke-linejoin="round"/>
<path d="M126.599 125.422L121.513 150.164L122.311 153.321C122.323 153.37 122.347 153.414 122.38 153.449C122.413 153.485 122.455 153.51 122.5 153.523C122.545 153.536 122.593 153.536 122.638 153.523C122.683 153.51 122.724 153.485 122.758 153.449L124.981 151.088L128.696 126.083L126.599 125.422Z" fill="#263238"/>
<path d="M131.586 145.392C131.586 145.392 128.736 146.586 126.506 147.646C124.276 148.706 122.045 149.232 122.291 150.69C122.538 152.148 123.53 151.614 125.141 151.088C127.352 150.265 129.637 149.688 131.959 149.367C135.055 148.969 137.531 145.925 137.531 145.925" fill="white"/>
<path d="M131.586 145.392C131.586 145.392 128.736 146.586 126.506 147.646C124.276 148.706 122.045 149.232 122.291 150.69C122.538 152.148 123.53 151.614 125.141 151.088C127.352 150.265 129.637 149.688 131.959 149.367C135.055 148.969 137.531 145.925 137.531 145.925" stroke="#263238" stroke-linecap="round" stroke-linejoin="round"/>
<path d="M121.579 150.547L122.098 152.88C122.124 152.992 122.176 153.096 122.251 153.18C122.325 153.264 122.419 153.325 122.523 153.358C122.627 153.391 122.737 153.395 122.842 153.368C122.948 153.342 123.045 153.286 123.124 153.207L124.342 151.97" stroke="white" stroke-width="0.5" stroke-linecap="round" stroke-linejoin="round"/>
<path d="M121.519 150.164L124.149 137.633" stroke="white" stroke-width="0.5" stroke-linecap="round" stroke-linejoin="round"/>
<path d="M30.5262 101.028L64.1151 134.397" stroke="#263238" stroke-width="0.5" stroke-linecap="round" stroke-linejoin="round"/>
</g>
<defs>
<filter id="filter0_d" x="0.499878" y="8.78711" width="257.064" height="232.556" filterUnits="userSpaceOnUse" color-interpolation-filters="sRGB">
<feFlood flood-opacity="0" result="BackgroundImageFix"/>
<feColorMatrix in="SourceAlpha" type="matrix" values="0 0 0 0 0 0 0 0 0 0 0 0 0 0 0 0 0 0 127 0"/>
<feOffset dy="4"/>
<feGaussianBlur stdDeviation="2"/>
<feColorMatrix type="matrix" values="0 0 0 0 0 0 0 0 0 0 0 0 0 0 0 0 0 0 1 0"/>
<feBlend mode="normal" in2="BackgroundImageFix" result="effect1_dropShadow"/>
<feBlend mode="normal" in="SourceGraphic" in2="effect1_dropShadow" result="shape"/>
</filter>
</defs>
</svg>
