<svg width="360" height="128" viewBox="0 0 360 128" fill="none" xmlns="http://www.w3.org/2000/svg">
<path d="M175.971 161.175C176.931 158.96 178.285 155.743 179.794 151.783C180.242 150.635 180.709 149.406 181.157 148.145C179.95 146.636 178.877 144.816 177.974 142.746C177.627 141.784 177.401 140.701 177.313 139.571C177.224 138.441 177.275 137.291 177.462 136.199C177.673 135.285 178.08 134.556 178.594 134.172C179.108 133.787 179.688 133.777 180.206 134.145L180.407 134.307C181.962 135.924 182.237 141.582 181.916 144.362C181.916 144.54 181.514 146.593 181.304 147.596L182.136 145.268C182.548 144.104 182.959 142.859 183.362 141.663L183.947 139.739C184.157 139.092 184.313 138.429 184.496 137.751C184.761 136.781 184.999 135.73 185.246 134.711C183.992 133.593 182.841 132.143 181.834 130.411C181.407 129.552 181.09 128.539 180.905 127.442C180.72 126.345 180.672 125.191 180.764 124.058C180.9 123.085 181.249 122.248 181.735 121.729C182.22 121.211 182.802 121.054 183.353 121.293L183.508 121.374C185.191 122.522 185.96 128.083 185.868 130.928C185.868 130.928 185.813 131.607 185.749 132.319C185.969 131.3 186.188 130.282 186.389 129.231C186.966 126.256 187.496 123.185 188.045 120.113C188.155 119.483 188.274 118.852 188.384 118.206C187.096 117.056 185.912 115.574 184.871 113.809C184.444 112.952 184.127 111.942 183.942 110.848C183.757 109.754 183.709 108.602 183.801 107.471C183.866 106.991 183.985 106.538 184.149 106.139C184.314 105.74 184.522 105.402 184.761 105.145C185 104.888 185.265 104.717 185.541 104.642C185.818 104.567 186.1 104.589 186.371 104.707L186.545 104.788C188.228 105.919 188.996 111.497 188.905 114.326C188.905 114.423 188.841 115.134 188.759 115.942C189.07 114.326 189.39 112.709 189.737 111.093C190.32 108.32 191.008 105.619 191.796 103.01C190.453 101.844 189.219 100.323 188.137 98.4993C187.709 97.6428 187.392 96.6326 187.208 95.5385C187.023 94.4444 186.975 93.2924 187.066 92.1621C187.132 91.6817 187.25 91.2288 187.415 90.8296C187.58 90.4304 187.788 90.0926 188.026 89.8357C188.265 89.5788 188.53 89.4079 188.807 89.3327C189.083 89.2576 189.365 89.2797 189.637 89.3977H189.811C191.494 90.5455 192.262 96.1067 192.171 98.9357C192.171 99.1459 191.924 101.7 191.814 102.622V102.525C192.621 99.9856 193.558 97.583 194.613 95.3469C195.542 93.3311 196.537 91.4148 197.595 89.6079C198.574 87.9913 199.516 86.4717 200.339 85.2107C200.797 84.5318 201.226 83.9174 201.629 83.3678C201.629 83.3678 202.617 79.9406 202.699 79.7466C203.614 77.4025 206.148 73.846 207.867 74.7513C208.138 74.9079 208.389 75.1585 208.604 75.4885C208.819 75.8185 208.995 76.2212 209.121 76.673C209.248 77.1247 209.321 77.6165 209.338 78.1193C209.356 78.6221 209.316 79.1259 209.221 79.6011L209.139 79.9568C208.822 80.9522 208.386 81.8135 207.862 82.4808C207.337 83.1481 206.737 83.6052 206.102 83.8204C204.659 84.1013 203.2 83.9923 201.775 83.4971C201.355 84.0791 200.925 84.7257 200.449 85.4532C199.617 86.7465 198.693 88.2338 197.705 89.9474C197.449 90.4162 197.183 90.9174 196.927 91.4185C197.359 90.8383 197.808 90.2987 198.272 89.8019C199.69 88.4763 202.846 87.377 204.163 89.5917C204.361 89.9389 204.518 90.3519 204.625 90.807C204.732 91.262 204.788 91.7501 204.788 92.243C204.788 92.7359 204.732 93.224 204.625 93.679C204.518 94.1341 204.361 94.5471 204.163 94.8942C204.109 94.9941 204.051 95.0861 203.989 95.1691C203.448 95.7936 202.836 96.2024 202.196 96.3671C201.556 96.5318 200.904 96.4485 200.284 96.1228C198.925 95.1864 197.654 93.889 196.516 92.2753C195.948 93.3746 195.39 94.5224 194.842 95.7834C193.826 98.0321 192.929 100.44 192.161 102.977C192.141 103.142 192.1 103.296 192.043 103.43C192.271 103.026 193.634 100.957 193.735 100.827C195.061 99.2106 198.162 97.5131 199.58 99.4692C200.015 100.098 200.291 101.006 200.347 101.994C200.404 102.982 200.236 103.969 199.882 104.739L199.717 105.063C199.211 105.788 198.621 106.308 197.989 106.587C197.357 106.867 196.698 106.898 196.058 106.679C194.609 105.996 193.231 104.904 191.978 103.446C191.255 106.007 190.625 108.647 190.094 111.351C189.692 113.356 189.335 115.409 188.978 117.478C189.289 116.961 190.551 115.037 190.652 114.924C191.978 113.307 195.07 111.61 196.497 113.55C196.932 114.187 197.207 115.101 197.261 116.095C197.316 117.088 197.147 118.079 196.79 118.852L196.634 119.143C196.129 119.871 195.539 120.394 194.907 120.673C194.275 120.952 193.615 120.982 192.976 120.76C191.539 120.08 190.169 119.017 188.914 117.608L188.448 120.42C187.944 123.508 187.441 126.596 186.902 129.619C186.71 130.67 186.499 131.688 186.298 132.723C186.774 131.963 187.652 130.637 187.734 130.524C189.06 128.908 192.152 127.291 193.579 129.166C194.014 129.811 194.288 130.734 194.339 131.734C194.39 132.733 194.216 133.728 193.854 134.501L193.716 134.76C193.211 135.488 192.621 136.01 191.989 136.289C191.357 136.569 190.697 136.599 190.058 136.376C188.67 135.73 187.346 134.71 186.133 133.353C185.786 134.97 185.42 136.732 185.017 138.349C184.834 139.028 184.67 139.755 184.468 140.402L183.901 142.358C183.49 143.667 183.106 144.88 182.703 146.076C182.502 146.69 182.301 147.256 182.108 147.854C182.52 146.965 183.197 145.575 183.261 145.462C184.441 143.522 187.35 141 188.923 142.552C189.163 142.803 189.372 143.136 189.539 143.53C189.706 143.925 189.828 144.374 189.896 144.851C189.965 145.328 189.98 145.825 189.94 146.313C189.9 146.8 189.807 147.269 189.664 147.693C189.664 147.806 189.582 147.919 189.536 148.032C189.106 148.885 188.575 149.562 187.98 150.014C187.386 150.467 186.743 150.684 186.097 150.651C184.627 150.354 183.19 149.673 181.834 148.63C181.34 150.069 180.855 151.459 180.389 152.736C178.898 156.81 177.581 160.092 176.638 162.436C175.696 164.78 175.12 165.993 175.12 165.993C175.071 166.121 175.008 166.229 174.934 166.311C174.859 166.392 174.776 166.445 174.689 166.465C174.603 166.484 174.515 166.471 174.431 166.426C174.348 166.381 174.271 166.305 174.205 166.203C174.137 166.111 174.079 165.996 174.036 165.864C173.994 165.732 173.966 165.587 173.956 165.436C173.946 165.285 173.953 165.132 173.977 164.986C174.001 164.84 174.041 164.704 174.095 164.586C174.81 163.614 175.441 162.465 175.971 161.175Z" fill="#92E3A9"/>
<path d="M196.708 91.564C196.708 91.564 194.384 87.765 193.845 85.4694C193.563 84.4426 193.409 83.3204 193.395 82.1793C193.381 81.0383 193.506 79.9053 193.762 78.8575C194.033 77.981 194.489 77.3302 195.031 77.0483C195.573 76.7663 196.157 76.8763 196.653 77.354L196.845 77.5642C198.299 79.4395 198.208 85.1784 197.696 87.862C197.65 88.1045 196.726 91.5964 196.708 91.564Z" fill="#92E3A9"/>
<path d="M173.464 162.695C173.034 160.787 172.403 158.072 171.562 154.887C171.324 153.965 171.059 152.995 170.784 151.993C169.791 152.773 168.736 153.28 167.656 153.497C167.181 153.521 166.708 153.363 166.271 153.033C165.833 152.704 165.441 152.211 165.122 151.589C164.872 151.003 164.764 150.266 164.821 149.539C164.877 148.812 165.094 148.155 165.424 147.709L165.57 147.547C166.723 146.416 168.863 148.259 169.732 149.665C169.787 149.762 170.373 150.958 170.647 151.589C170.473 150.991 170.308 150.393 170.126 149.778C169.869 148.889 169.586 147.968 169.302 147.062C169.156 146.594 169 146.141 168.845 145.672C168.689 145.203 168.516 144.767 168.342 144.314C168.168 143.862 167.811 142.989 167.537 142.326C166.665 143.296 165.715 144.026 164.719 144.492C164.251 144.645 163.77 144.616 163.308 144.407C162.847 144.198 162.417 143.813 162.048 143.28C161.903 143.023 161.788 142.718 161.709 142.382C161.63 142.047 161.59 141.687 161.59 141.323C161.59 140.96 161.63 140.6 161.709 140.265C161.788 139.929 161.903 139.624 162.048 139.367L162.131 139.157C163.174 137.718 165.451 138.963 166.421 140.143L166.869 140.806C166.595 140.181 166.311 139.551 166.018 138.915C165.168 137.153 164.28 135.391 163.393 133.628L162.844 132.529C161.947 133.532 160.97 134.29 159.945 134.776C159.478 134.929 158.997 134.9 158.538 134.691C158.078 134.481 157.649 134.097 157.283 133.564C157.137 133.307 157.022 133.002 156.943 132.666C156.864 132.331 156.824 131.971 156.824 131.608C156.824 131.244 156.864 130.885 156.943 130.549C157.022 130.213 157.137 129.908 157.283 129.652L157.402 129.458C158.444 128.019 160.722 129.264 161.701 130.428L162.213 131.203C161.737 130.234 161.298 129.264 160.832 128.261C160.055 126.564 159.349 124.771 158.719 122.894C157.796 123.948 156.787 124.744 155.728 125.254C155.261 125.407 154.781 125.378 154.321 125.169C153.861 124.959 153.433 124.575 153.066 124.042C152.774 123.521 152.611 122.818 152.611 122.086C152.611 121.353 152.774 120.65 153.066 120.13L153.185 119.936C154.218 118.497 156.496 119.742 157.475 120.906C157.548 121.003 158.389 122.248 158.655 122.7C158.059 120.842 157.557 118.894 157.155 116.88C156.79 115.081 156.485 113.246 156.24 111.384C156.002 109.654 155.847 108.054 155.718 106.631C155.645 105.855 155.6 105.16 155.545 104.497C155.545 104.497 154.703 102.105 154.63 101.943C154.136 100.035 153.825 95.8645 154.804 94.2963C155.115 93.8199 155.52 93.5798 155.931 93.6282C156.343 93.6766 156.726 94.0097 156.999 94.555L157.109 94.8137C157.344 95.5442 157.486 96.3565 157.526 97.194C157.565 98.0316 157.501 98.8742 157.338 99.6635C156.893 101.378 156.301 102.959 155.581 104.352C155.636 105.047 155.7 105.774 155.782 106.566C155.929 107.989 156.103 109.573 156.368 111.287C156.432 111.74 156.514 112.225 156.587 112.693C156.587 111.853 156.514 110.689 156.523 110.576C156.587 108.506 157.438 104.546 158.673 103.947C159.073 103.777 159.495 103.894 159.847 104.273C160.199 104.652 160.451 105.261 160.548 105.968C160.553 106.076 160.553 106.184 160.548 106.292C160.566 107.131 160.479 107.967 160.294 108.74C160.109 109.514 159.83 110.206 159.478 110.77C158.648 111.929 157.723 112.856 156.734 113.518C156.908 114.552 157.109 115.619 157.347 116.751C157.766 118.732 158.287 120.642 158.902 122.458L159.021 122.765C158.957 122.361 158.737 120.065 158.728 119.887C158.664 117.818 159.222 113.712 160.457 112.871C160.841 112.621 161.266 112.65 161.639 112.953C162.011 113.256 162.3 113.808 162.442 114.488C162.465 114.587 162.484 114.69 162.497 114.795C162.569 115.624 162.537 116.472 162.403 117.277C162.268 118.082 162.035 118.824 161.719 119.451C160.927 120.787 160.026 121.91 159.048 122.781C159.685 124.564 160.388 126.27 161.152 127.889C161.71 129.086 162.314 130.266 162.917 131.446C162.844 130.896 162.634 128.762 162.634 128.601C162.561 126.532 163.128 122.425 164.363 121.585C164.747 121.334 165.172 121.364 165.545 121.667C165.917 121.97 166.206 122.522 166.348 123.201C166.371 123.3 166.39 123.403 166.403 123.508C166.475 124.338 166.443 125.185 166.309 125.99C166.174 126.795 165.941 127.538 165.625 128.164C164.837 129.504 163.94 130.627 162.963 131.495L163.796 133.111C164.71 134.841 165.625 136.571 166.485 138.317C166.787 138.931 167.07 139.545 167.4 140.16C167.308 139.351 167.171 137.864 167.162 137.735C167.098 135.649 167.656 131.559 168.891 130.719C169.275 130.468 169.7 130.497 170.073 130.801C170.445 131.104 170.734 131.656 170.876 132.335C170.901 132.433 170.919 132.536 170.931 132.642C171.003 133.472 170.971 134.319 170.837 135.124C170.702 135.929 170.469 136.671 170.153 137.298C169.4 138.605 168.535 139.696 167.592 140.531C168.067 141.566 168.506 142.601 168.946 143.668C169.119 144.136 169.321 144.589 169.476 145.058C169.632 145.527 169.796 145.979 169.952 146.432C170.263 147.386 170.555 148.275 170.866 149.164C171.004 149.633 171.132 150.069 171.269 150.506C171.113 149.714 170.866 148.437 170.857 148.307C170.61 146.27 170.812 142.083 171.964 140.919C172.154 140.776 172.358 140.7 172.564 140.696C172.77 140.692 172.975 140.761 173.167 140.898C173.358 141.034 173.532 141.237 173.679 141.493C173.826 141.749 173.942 142.054 174.022 142.39C174.167 143.198 174.208 144.051 174.143 144.89C174.078 145.728 173.909 146.531 173.647 147.24C172.987 148.76 172.204 150.1 171.324 151.217C171.644 152.3 171.955 153.367 172.239 154.45C173.153 157.684 173.803 160.351 174.26 162.275C174.718 164.198 174.946 165.314 174.946 165.314C174.985 165.52 174.977 165.744 174.924 165.94C174.871 166.136 174.777 166.288 174.663 166.365C174.604 166.4 174.543 166.415 174.481 166.408C174.42 166.401 174.36 166.373 174.304 166.325C174.249 166.277 174.2 166.21 174.159 166.128C174.119 166.046 174.088 165.951 174.068 165.847C173.902 164.777 173.701 163.724 173.464 162.695Z" fill="#92E3A9"/>
<path d="M156.496 113.292C155.441 113.865 154.343 114.159 153.24 114.165C152.767 114.09 152.309 113.836 151.897 113.42C151.485 113.005 151.129 112.437 150.852 111.756C150.641 111.125 150.581 110.373 150.684 109.664C150.787 108.955 151.045 108.347 151.401 107.973L151.556 107.827C152.782 106.922 154.785 109.202 155.554 110.786C155.618 110.899 156.514 113.292 156.496 113.292Z" fill="#92E3A9"/>
<path d="M174.745 160.448C174.946 157.684 175.202 153.707 175.376 148.922C175.431 147.548 175.477 146.093 175.513 144.589C174.043 144.352 172.6 143.73 171.232 142.746C170.656 142.229 170.151 141.495 169.753 140.596C169.354 139.696 169.073 138.654 168.927 137.541C168.888 137.048 168.905 136.547 168.976 136.066C169.047 135.585 169.171 135.133 169.341 134.736C169.511 134.34 169.724 134.007 169.966 133.756C170.209 133.504 170.478 133.34 170.757 133.273H170.985C172.815 133.273 174.644 137.929 175.157 140.629C175.157 140.79 175.44 142.908 175.559 143.991C175.55 143.074 175.569 142.157 175.614 141.243V134.776C175.614 134.033 175.55 133.321 175.522 132.578C175.468 131.495 175.385 130.395 175.303 129.345C173.901 129.491 172.495 129.262 171.132 128.666C170.516 128.304 169.951 127.71 169.478 126.926C169.004 126.142 168.632 125.186 168.387 124.123C168.302 123.652 168.27 123.155 168.293 122.662C168.317 122.169 168.395 121.689 168.523 121.249C168.651 120.809 168.827 120.418 169.041 120.098C169.255 119.779 169.502 119.537 169.769 119.386L170.034 119.273C171.809 118.772 174.059 122.894 174.781 125.416C174.781 125.513 174.928 126.063 175.074 126.742C174.974 125.659 174.873 124.576 174.754 123.509C174.397 120.421 173.995 117.301 173.583 114.165C173.501 113.518 173.428 112.871 173.345 112.208C171.904 112.372 170.457 112.143 169.055 111.53C168.439 111.173 167.874 110.584 167.4 109.802C166.926 109.02 166.555 108.065 166.311 107.003C166.226 106.532 166.194 106.035 166.217 105.542C166.24 105.049 166.318 104.569 166.446 104.129C166.575 103.689 166.751 103.298 166.964 102.979C167.178 102.659 167.426 102.417 167.692 102.266L167.958 102.153C169.732 101.652 171.982 105.774 172.705 108.296C172.705 108.393 172.879 109.056 173.043 109.816C172.833 108.102 172.641 106.405 172.476 104.691C172.193 101.772 172.019 98.8239 171.955 95.8646C170.472 96.0248 168.983 95.8015 167.537 95.2018C166.92 94.843 166.355 94.2506 165.881 93.466C165.407 92.6814 165.035 91.7235 164.793 90.6591C164.707 90.1878 164.675 89.6914 164.698 89.1983C164.722 88.7051 164.8 88.2249 164.928 87.785C165.056 87.3451 165.232 86.9542 165.446 86.6346C165.66 86.3151 165.907 86.0731 166.174 85.9225L166.43 85.8093C168.205 85.3082 170.455 89.4305 171.187 91.9524C171.187 92.1464 171.754 94.5713 171.918 95.4605C171.894 92.5479 172.016 89.6372 172.284 86.7631C172.507 84.1962 172.812 81.654 173.199 79.1489C173.565 76.821 173.967 74.7194 174.342 72.8764C174.544 71.8903 174.745 70.985 174.928 70.1444C174.928 70.1444 174.818 66.313 174.827 66.0705C174.946 63.2415 176.126 57.8905 177.873 57.1468C178.148 57.0453 178.432 57.0411 178.708 57.1342C178.984 57.2273 179.247 57.416 179.482 57.6895C179.717 57.963 179.918 58.3158 180.076 58.7276C180.233 59.1394 180.342 59.6021 180.398 60.0891C180.402 60.2129 180.402 60.3371 180.398 60.4609C180.403 61.6025 180.269 62.7326 180.004 63.7735C179.738 64.8144 179.349 65.7414 178.861 66.4908C177.694 68.02 176.402 69.2249 175.028 70.0636C174.846 70.9365 174.653 71.8742 174.452 72.9411C174.105 74.7841 173.72 76.8857 173.391 79.2136C173.309 79.844 173.226 80.523 173.144 81.1696C173.409 80.1189 173.794 78.6962 173.839 78.5669C174.69 76.1581 177.123 72.3753 178.87 73.1351C179.412 73.3995 179.873 74.0332 180.151 74.897C180.428 75.7608 180.501 76.7842 180.352 77.7424C180.333 77.8801 180.309 78.0152 180.279 78.1466C179.989 79.1703 179.576 80.0697 179.069 80.7817C178.562 81.4938 177.973 82.0014 177.343 82.2689C175.9 82.657 174.432 82.657 172.989 82.2689C172.815 83.7239 172.659 85.2112 172.54 86.7793C172.31 89.6269 172.222 92.5047 172.275 95.3797V95.8808C172.357 95.3312 172.943 92.3242 172.998 92.1303C173.693 89.5598 175.879 85.3405 177.663 85.7608C177.939 85.8412 178.204 86.0172 178.442 86.2785C178.68 86.5398 178.886 86.8814 179.049 87.2838C179.212 87.6861 179.329 88.1414 179.392 88.6235C179.456 89.1056 179.465 89.605 179.419 90.0933C179.423 90.2171 179.423 90.3413 179.419 90.4651C179.192 91.5345 178.836 92.5043 178.377 93.3079C177.917 94.1116 177.365 94.7301 176.757 95.121C175.316 95.8138 173.822 96.1083 172.33 95.9939C172.432 98.8601 172.64 101.711 172.952 104.53C173.172 106.599 173.446 108.7 173.739 110.802C173.858 110.075 174.397 107.294 174.452 107.1C175.138 104.53 177.324 100.31 179.108 100.731C179.384 100.807 179.649 100.98 179.887 101.237C180.125 101.495 180.332 101.833 180.496 102.233C180.66 102.632 180.778 103.085 180.843 103.565C180.907 104.045 180.918 104.543 180.874 105.031L180.819 105.435C180.597 106.508 180.245 107.481 179.786 108.286C179.328 109.09 178.774 109.707 178.166 110.091C176.73 110.773 175.244 111.073 173.757 110.98L174.159 113.825C174.599 116.945 175.074 120.065 175.44 123.153C175.577 124.236 175.687 125.303 175.797 126.386C175.998 125.303 176.373 123.379 176.419 123.153C177.105 120.583 179.3 116.363 181.075 116.784C181.351 116.86 181.615 117.032 181.854 117.29C182.092 117.548 182.299 117.886 182.463 118.286C182.627 118.685 182.745 119.138 182.809 119.618C182.874 120.098 182.885 120.596 182.84 121.084L182.785 121.488C182.564 122.561 182.211 123.534 181.753 124.338C181.294 125.143 180.741 125.76 180.133 126.144C178.748 126.819 177.314 127.119 175.879 127.033C176.062 128.811 176.218 130.573 176.327 132.335C176.327 133.095 176.437 133.871 176.446 134.599C176.455 135.326 176.446 136.07 176.51 136.797V143.134C176.62 142.003 176.803 140.208 176.831 140.047C177.297 137.331 179.09 132.562 180.892 132.497C181.454 132.505 181.991 132.906 182.387 133.612C182.783 134.317 183.005 135.27 183.005 136.264C183.01 136.409 183.01 136.555 183.005 136.7C182.874 137.818 182.607 138.872 182.221 139.788C181.836 140.704 181.341 141.46 180.773 142.003C179.424 143.071 177.989 143.763 176.519 144.056C176.519 145.672 176.519 147.37 176.437 148.906C176.309 153.755 176.108 157.765 175.934 160.561C175.76 163.358 175.632 164.991 175.632 164.991C175.621 165.136 175.594 165.277 175.552 165.403C175.51 165.53 175.454 165.641 175.388 165.73C175.321 165.818 175.246 165.883 175.165 165.92C175.085 165.957 175.001 165.965 174.919 165.945C174.753 165.901 174.604 165.744 174.504 165.508C174.403 165.273 174.358 164.977 174.379 164.684C174.546 163.285 174.668 161.871 174.745 160.448Z" fill="#92E3A9"/>
<path d="M172.851 81.8485C172.851 81.8485 169.76 80.6361 168.644 79.1326C168.106 78.5004 167.652 77.6678 167.316 76.6931C166.979 75.7184 166.767 74.6254 166.695 73.4907C166.683 72.4928 166.894 71.5267 167.283 70.803C167.672 70.0793 168.207 69.6566 168.772 69.627H168.991C170.775 69.9664 172.33 74.9941 172.65 77.71C172.687 78.0172 172.879 81.8647 172.851 81.8485Z" fill="#92E3A9"/>
<g opacity="0.1">
<path opacity="0.1" d="M175.971 161.176C176.931 158.961 178.285 155.744 179.794 151.783C180.242 150.635 180.709 149.407 181.157 148.146C179.95 146.637 178.877 144.817 177.974 142.746C177.627 141.785 177.401 140.702 177.313 139.572C177.224 138.442 177.275 137.291 177.462 136.199C177.673 135.285 178.08 134.557 178.594 134.172C179.108 133.787 179.688 133.778 180.206 134.146L180.407 134.308C181.962 135.924 182.237 141.582 181.916 144.363C181.916 144.541 181.514 146.594 181.303 147.596L182.136 145.268C182.548 144.104 182.959 142.859 183.362 141.663L183.947 139.739C184.157 139.093 184.313 138.43 184.496 137.751C184.761 136.781 184.999 135.73 185.246 134.712C183.992 133.593 182.841 132.143 181.834 130.412C181.407 129.552 181.09 128.539 180.905 127.442C180.72 126.346 180.672 125.191 180.764 124.058C180.9 123.086 181.249 122.248 181.735 121.73C182.22 121.211 182.802 121.055 183.352 121.294L183.508 121.375C185.191 122.523 185.959 128.084 185.868 130.929C185.868 130.929 185.813 131.608 185.749 132.319C185.969 131.301 186.188 130.282 186.389 129.231C186.966 126.257 187.496 123.185 188.045 120.114C188.155 119.483 188.274 118.853 188.384 118.206C187.096 117.056 185.912 115.574 184.871 113.809C184.444 112.953 184.127 111.942 183.942 110.848C183.757 109.754 183.709 108.602 183.801 107.472C183.866 106.991 183.985 106.539 184.149 106.139C184.314 105.74 184.522 105.402 184.761 105.145C185 104.889 185.265 104.718 185.541 104.642C185.818 104.567 186.1 104.589 186.371 104.708L186.545 104.788C188.228 105.92 188.996 111.497 188.905 114.326C188.905 114.423 188.841 115.135 188.759 115.943C189.07 114.326 189.39 112.71 189.737 111.093C190.32 108.32 191.008 105.62 191.795 103.01C190.453 101.845 189.219 100.324 188.137 98.4998C187.709 97.6433 187.392 96.6331 187.208 95.539C187.023 94.4448 186.975 93.2929 187.066 92.1626C187.132 91.6822 187.25 91.2293 187.415 90.8301C187.58 90.4308 187.788 90.0931 188.026 89.8362C188.265 89.5793 188.53 89.4084 188.807 89.3332C189.083 89.2581 189.365 89.2802 189.637 89.3982H189.811C191.494 90.546 192.262 96.1072 192.171 98.9362C192.171 99.1464 191.924 101.701 191.814 102.622V102.525C192.621 99.9861 193.557 97.5834 194.613 95.3473C195.542 93.3316 196.537 91.4153 197.595 89.6084C198.574 87.9918 199.516 86.4722 200.339 85.2112C200.796 84.5323 201.226 83.9179 201.629 83.3683C201.629 83.3683 202.617 79.9411 202.699 79.7471C203.614 77.403 206.148 73.8465 207.867 74.7518C208.138 74.9084 208.389 75.159 208.604 75.489C208.819 75.819 208.995 76.2217 209.121 76.6735C209.248 77.1252 209.321 77.617 209.338 78.1198C209.356 78.6226 209.316 79.1264 209.221 79.6016L209.139 79.9573C208.822 80.9527 208.386 81.814 207.862 82.4813C207.337 83.1486 206.737 83.6057 206.102 83.8209C204.659 84.1018 203.2 83.9928 201.775 83.4976C201.354 84.0796 200.925 84.7262 200.449 85.4537C199.616 86.747 198.693 88.2343 197.705 89.9479C197.449 90.4167 197.183 90.9179 196.927 91.419C197.359 90.8388 197.808 90.2992 198.272 89.8024C199.69 88.4768 202.846 87.3775 204.163 89.5922C204.361 89.9394 204.518 90.3524 204.625 90.8074C204.732 91.2625 204.788 91.7505 204.788 92.2435C204.788 92.7364 204.732 93.2245 204.625 93.6795C204.518 94.1346 204.361 94.5475 204.163 94.8947C204.109 94.9946 204.051 95.0866 203.989 95.1695C203.448 95.7941 202.836 96.2029 202.196 96.3676C201.556 96.5323 200.904 96.449 200.284 96.1233C198.925 95.1869 197.654 93.8894 196.516 92.2758C195.948 93.3751 195.39 94.5229 194.842 95.7839C193.826 98.0326 192.929 100.441 192.161 102.978C192.141 103.142 192.1 103.297 192.042 103.43C192.271 103.026 193.634 100.957 193.735 100.828C195.061 99.2111 198.162 97.5136 199.58 99.4697C200.015 100.099 200.291 101.007 200.347 101.994C200.404 102.982 200.236 103.97 199.882 104.74L199.717 105.063C199.211 105.788 198.621 106.309 197.989 106.588C197.357 106.867 196.698 106.899 196.058 106.68C194.609 105.997 193.231 104.905 191.978 103.447C191.255 106.007 190.625 108.648 190.094 111.352C189.692 113.356 189.335 115.409 188.978 117.479C189.289 116.961 190.551 115.038 190.652 114.924C191.978 113.308 195.07 111.61 196.497 113.55C196.932 114.187 197.207 115.102 197.261 116.095C197.316 117.088 197.147 118.079 196.79 118.853L196.634 119.144C196.129 119.872 195.539 120.394 194.907 120.674C194.275 120.953 193.615 120.983 192.976 120.76C191.539 120.08 190.169 119.017 188.914 117.608L188.448 120.421C187.944 123.509 187.441 126.596 186.902 129.619C186.71 130.67 186.499 131.689 186.298 132.723C186.774 131.964 187.652 130.638 187.734 130.525C189.06 128.908 192.152 127.292 193.579 129.167C194.014 129.812 194.288 130.735 194.339 131.734C194.39 132.734 194.216 133.729 193.854 134.502L193.716 134.76C193.211 135.488 192.621 136.011 191.989 136.29C191.357 136.569 190.697 136.599 190.057 136.377C188.67 135.73 187.346 134.711 186.133 133.354C185.786 134.97 185.42 136.733 185.017 138.349C184.834 139.028 184.67 139.756 184.468 140.402L183.901 142.358C183.49 143.668 183.106 144.88 182.703 146.077C182.502 146.691 182.301 147.257 182.108 147.855C182.52 146.966 183.197 145.575 183.261 145.462C184.441 143.522 187.35 141 188.923 142.552C189.163 142.804 189.372 143.136 189.539 143.531C189.706 143.925 189.827 144.374 189.896 144.851C189.965 145.329 189.98 145.826 189.94 146.313C189.9 146.801 189.807 147.27 189.664 147.693C189.664 147.806 189.582 147.919 189.536 148.033C189.106 148.886 188.575 149.562 187.98 150.015C187.386 150.467 186.743 150.685 186.097 150.652C184.627 150.355 183.19 149.674 181.834 148.631C181.34 150.07 180.855 151.46 180.389 152.737C178.898 156.811 177.58 160.093 176.638 162.437C175.696 164.781 175.12 165.993 175.12 165.993C175.071 166.121 175.008 166.23 174.934 166.311C174.859 166.393 174.776 166.445 174.689 166.465C174.603 166.485 174.515 166.472 174.431 166.427C174.348 166.382 174.271 166.305 174.205 166.203C174.137 166.112 174.079 165.996 174.036 165.865C173.994 165.733 173.966 165.587 173.956 165.436C173.946 165.285 173.953 165.132 173.977 164.986C174.001 164.84 174.041 164.705 174.095 164.587C174.81 163.614 175.441 162.465 175.971 161.176Z" fill="black"/>
<path opacity="0.1" d="M196.708 91.5645C196.708 91.5645 194.384 87.7655 193.845 85.4699C193.563 84.4431 193.409 83.3209 193.395 82.1798C193.381 81.0388 193.506 79.9058 193.762 78.858C194.033 77.9815 194.489 77.3307 195.031 77.0488C195.573 76.7668 196.157 76.8768 196.653 77.3545L196.845 77.5647C198.299 79.44 198.208 85.1789 197.696 87.8625C197.65 88.105 196.726 91.5969 196.708 91.5645Z" fill="black"/>
<path opacity="0.1" d="M173.464 162.695C173.034 160.787 172.403 158.072 171.562 154.887C171.324 153.965 171.059 152.995 170.784 151.993C169.791 152.773 168.736 153.28 167.656 153.497C167.18 153.521 166.708 153.363 166.271 153.033C165.833 152.704 165.441 152.211 165.122 151.589C164.872 151.003 164.764 150.266 164.821 149.539C164.877 148.812 165.094 148.155 165.424 147.709L165.57 147.547C166.723 146.416 168.863 148.259 169.732 149.665C169.787 149.762 170.372 150.958 170.647 151.589C170.473 150.991 170.308 150.393 170.126 149.778C169.869 148.889 169.586 147.968 169.302 147.062C169.156 146.594 169 146.141 168.845 145.672C168.689 145.203 168.516 144.767 168.342 144.314C168.168 143.862 167.811 142.989 167.537 142.326C166.665 143.296 165.715 144.026 164.719 144.492C164.251 144.645 163.769 144.616 163.308 144.407C162.847 144.198 162.417 143.813 162.048 143.28C161.903 143.023 161.787 142.718 161.709 142.382C161.63 142.047 161.589 141.687 161.589 141.323C161.589 140.96 161.63 140.6 161.709 140.265C161.787 139.929 161.903 139.624 162.048 139.367L162.131 139.157C163.174 137.718 165.451 138.963 166.421 140.143L166.869 140.806C166.595 140.181 166.311 139.551 166.018 138.915C165.168 137.153 164.28 135.391 163.393 133.628L162.844 132.529C161.947 133.532 160.97 134.29 159.945 134.776C159.478 134.929 158.997 134.9 158.538 134.691C158.078 134.481 157.649 134.097 157.283 133.564C157.137 133.307 157.022 133.002 156.943 132.666C156.864 132.331 156.824 131.971 156.824 131.608C156.824 131.244 156.864 130.885 156.943 130.549C157.022 130.213 157.137 129.908 157.283 129.652L157.402 129.458C158.444 128.019 160.722 129.264 161.701 130.428L162.213 131.203C161.737 130.234 161.298 129.264 160.832 128.261C160.055 126.564 159.349 124.771 158.719 122.894C157.796 123.948 156.787 124.744 155.728 125.254C155.261 125.407 154.781 125.378 154.321 125.169C153.861 124.959 153.433 124.575 153.066 124.042C152.774 123.521 152.611 122.818 152.611 122.086C152.611 121.353 152.774 120.65 153.066 120.13L153.185 119.936C154.218 118.497 156.496 119.742 157.475 120.906C157.548 121.003 158.389 122.248 158.655 122.7C158.059 120.842 157.557 118.894 157.155 116.88C156.79 115.081 156.485 113.246 156.24 111.384C156.002 109.654 155.846 108.054 155.718 106.631C155.645 105.855 155.6 105.16 155.545 104.497C155.545 104.497 154.703 102.105 154.63 101.943C154.136 100.035 153.825 95.8645 154.804 94.2963C155.115 93.8199 155.52 93.5798 155.931 93.6282C156.342 93.6766 156.726 94.0097 156.999 94.555L157.109 94.8137C157.344 95.5442 157.486 96.3565 157.526 97.194C157.565 98.0316 157.501 98.8742 157.337 99.6635C156.893 101.378 156.301 102.959 155.581 104.352C155.636 105.047 155.7 105.774 155.782 106.566C155.929 107.989 156.103 109.573 156.368 111.287C156.432 111.74 156.514 112.225 156.587 112.693C156.587 111.853 156.514 110.689 156.523 110.576C156.587 108.506 157.438 104.546 158.673 103.947C159.073 103.777 159.495 103.894 159.847 104.273C160.199 104.652 160.451 105.261 160.548 105.968C160.553 106.076 160.553 106.184 160.548 106.292C160.566 107.131 160.479 107.967 160.294 108.74C160.109 109.514 159.83 110.206 159.478 110.77C158.648 111.929 157.723 112.856 156.734 113.518C156.908 114.552 157.109 115.619 157.347 116.751C157.766 118.732 158.287 120.642 158.902 122.458L159.021 122.765C158.957 122.361 158.737 120.065 158.728 119.887C158.664 117.818 159.222 113.712 160.457 112.871C160.841 112.621 161.266 112.65 161.639 112.953C162.011 113.256 162.3 113.808 162.442 114.488C162.465 114.587 162.484 114.69 162.497 114.795C162.569 115.624 162.537 116.472 162.403 117.277C162.268 118.082 162.035 118.824 161.719 119.451C160.926 120.787 160.026 121.91 159.048 122.781C159.685 124.564 160.388 126.27 161.152 127.889C161.71 129.086 162.314 130.266 162.917 131.446C162.844 130.896 162.634 128.762 162.634 128.601C162.561 126.532 163.128 122.425 164.363 121.585C164.747 121.334 165.172 121.364 165.545 121.667C165.917 121.97 166.206 122.522 166.348 123.201C166.371 123.3 166.39 123.403 166.403 123.508C166.475 124.338 166.443 125.185 166.309 125.99C166.174 126.795 165.941 127.538 165.625 128.164C164.837 129.504 163.94 130.627 162.963 131.495L163.796 133.111C164.71 134.841 165.625 136.571 166.485 138.317C166.787 138.931 167.07 139.545 167.4 140.16C167.308 139.351 167.171 137.864 167.162 137.735C167.098 135.649 167.656 131.559 168.891 130.719C169.275 130.468 169.7 130.497 170.072 130.801C170.445 131.104 170.734 131.656 170.876 132.335C170.901 132.433 170.919 132.536 170.93 132.642C171.003 133.472 170.971 134.319 170.837 135.124C170.702 135.929 170.469 136.671 170.153 137.298C169.4 138.605 168.535 139.696 167.592 140.531C168.067 141.566 168.506 142.601 168.946 143.668C169.119 144.136 169.321 144.589 169.476 145.058C169.632 145.527 169.796 145.979 169.952 146.432C170.263 147.386 170.555 148.275 170.866 149.164C171.004 149.633 171.132 150.069 171.269 150.506C171.113 149.714 170.866 148.437 170.857 148.307C170.61 146.27 170.812 142.083 171.964 140.919C172.154 140.776 172.358 140.7 172.564 140.696C172.77 140.692 172.975 140.761 173.166 140.898C173.358 141.034 173.532 141.237 173.679 141.493C173.826 141.749 173.942 142.054 174.022 142.39C174.167 143.198 174.208 144.051 174.143 144.89C174.078 145.728 173.909 146.531 173.647 147.24C172.987 148.76 172.204 150.1 171.324 151.217C171.644 152.3 171.955 153.367 172.239 154.45C173.153 157.684 173.803 160.351 174.26 162.275C174.717 164.198 174.946 165.314 174.946 165.314C174.985 165.52 174.977 165.744 174.924 165.94C174.871 166.136 174.777 166.288 174.663 166.365C174.604 166.4 174.543 166.415 174.481 166.408C174.42 166.401 174.36 166.373 174.304 166.325C174.249 166.277 174.2 166.21 174.159 166.128C174.119 166.046 174.088 165.951 174.068 165.847C173.902 164.777 173.701 163.724 173.464 162.695Z" fill="black"/>
<path opacity="0.1" d="M156.496 113.292C155.441 113.865 154.343 114.159 153.24 114.165C152.767 114.09 152.309 113.836 151.897 113.42C151.485 113.005 151.129 112.437 150.852 111.756C150.642 111.125 150.581 110.373 150.684 109.664C150.787 108.955 151.045 108.347 151.401 107.973L151.556 107.827C152.782 106.922 154.785 109.202 155.554 110.786C155.618 110.899 156.514 113.292 156.496 113.292Z" fill="black"/>
<path opacity="0.1" d="M174.745 160.448C174.946 157.684 175.202 153.707 175.376 148.922C175.431 147.548 175.477 146.093 175.513 144.589C174.043 144.352 172.6 143.73 171.232 142.746C170.656 142.229 170.151 141.495 169.753 140.596C169.354 139.696 169.073 138.654 168.927 137.541C168.888 137.048 168.905 136.547 168.976 136.066C169.047 135.585 169.171 135.133 169.341 134.736C169.511 134.34 169.724 134.007 169.966 133.756C170.209 133.504 170.478 133.34 170.757 133.273H170.985C172.815 133.273 174.644 137.929 175.157 140.629C175.157 140.79 175.44 142.908 175.559 143.991C175.55 143.074 175.569 142.157 175.614 141.243V134.776C175.614 134.033 175.55 133.321 175.522 132.578C175.468 131.495 175.385 130.395 175.303 129.345C173.901 129.491 172.495 129.262 171.132 128.666C170.516 128.304 169.951 127.71 169.478 126.926C169.004 126.142 168.632 125.186 168.387 124.123C168.302 123.652 168.27 123.155 168.293 122.662C168.316 122.169 168.394 121.689 168.523 121.249C168.651 120.809 168.827 120.418 169.041 120.098C169.255 119.779 169.502 119.537 169.769 119.386L170.034 119.273C171.809 118.772 174.059 122.894 174.781 125.416C174.781 125.513 174.928 126.063 175.074 126.742C174.974 125.659 174.873 124.576 174.754 123.509C174.397 120.421 173.995 117.301 173.583 114.165C173.501 113.518 173.428 112.871 173.345 112.208C171.904 112.372 170.457 112.143 169.055 111.53C168.439 111.173 167.874 110.584 167.4 109.802C166.926 109.02 166.554 108.065 166.311 107.003C166.226 106.532 166.194 106.035 166.217 105.542C166.24 105.049 166.318 104.569 166.446 104.129C166.575 103.689 166.751 103.298 166.964 102.979C167.178 102.659 167.426 102.417 167.692 102.266L167.958 102.153C169.732 101.652 171.982 105.774 172.705 108.296C172.705 108.393 172.879 109.056 173.043 109.816C172.833 108.102 172.641 106.405 172.476 104.691C172.193 101.772 172.019 98.8239 171.955 95.8646C170.472 96.0248 168.983 95.8015 167.537 95.2018C166.92 94.843 166.355 94.2506 165.881 93.466C165.407 92.6814 165.035 91.7235 164.793 90.6591C164.707 90.1878 164.675 89.6914 164.698 89.1983C164.722 88.7051 164.8 88.2249 164.928 87.785C165.056 87.3451 165.232 86.9542 165.446 86.6346C165.66 86.3151 165.907 86.0731 166.174 85.9225L166.43 85.8093C168.205 85.3082 170.455 89.4305 171.187 91.9524C171.187 92.1464 171.754 94.5713 171.918 95.4605C171.894 92.5479 172.016 89.6372 172.284 86.7631C172.507 84.1962 172.812 81.654 173.199 79.1489C173.565 76.821 173.967 74.7194 174.342 72.8764C174.544 71.8903 174.745 70.985 174.928 70.1444C174.928 70.1444 174.818 66.313 174.827 66.0705C174.946 63.2415 176.126 57.8905 177.873 57.1468C178.148 57.0453 178.432 57.0411 178.708 57.1342C178.984 57.2273 179.247 57.416 179.482 57.6895C179.717 57.963 179.918 58.3158 180.076 58.7276C180.233 59.1394 180.342 59.6021 180.398 60.0891C180.402 60.2129 180.402 60.3371 180.398 60.4609C180.403 61.6025 180.269 62.7326 180.004 63.7735C179.738 64.8144 179.349 65.7414 178.861 66.4908C177.694 68.02 176.402 69.2249 175.028 70.0636C174.845 70.9365 174.653 71.8742 174.452 72.9411C174.105 74.7841 173.72 76.8857 173.391 79.2136C173.309 79.844 173.226 80.523 173.144 81.1696C173.409 80.1189 173.794 78.6962 173.839 78.5669C174.69 76.1581 177.123 72.3753 178.87 73.1351C179.412 73.3995 179.873 74.0332 180.151 74.897C180.428 75.7608 180.501 76.7842 180.352 77.7424C180.333 77.8801 180.309 78.0152 180.279 78.1466C179.989 79.1703 179.576 80.0697 179.069 80.7817C178.562 81.4938 177.973 82.0014 177.343 82.2689C175.9 82.657 174.432 82.657 172.989 82.2689C172.815 83.7239 172.659 85.2112 172.54 86.7793C172.31 89.6269 172.221 92.5047 172.275 95.3797V95.8808C172.357 95.3312 172.943 92.3242 172.998 92.1303C173.693 89.5598 175.879 85.3405 177.663 85.7608C177.939 85.8412 178.204 86.0172 178.442 86.2785C178.68 86.5398 178.886 86.8814 179.049 87.2838C179.212 87.6861 179.329 88.1414 179.392 88.6235C179.456 89.1056 179.465 89.605 179.419 90.0933C179.423 90.2171 179.423 90.3413 179.419 90.4651C179.192 91.5345 178.836 92.5043 178.377 93.3079C177.917 94.1116 177.365 94.7301 176.757 95.121C175.316 95.8138 173.822 96.1083 172.33 95.9939C172.432 98.8601 172.64 101.711 172.952 104.53C173.172 106.599 173.446 108.7 173.739 110.802C173.858 110.075 174.397 107.294 174.452 107.1C175.138 104.53 177.324 100.31 179.108 100.731C179.384 100.807 179.649 100.98 179.887 101.237C180.125 101.495 180.332 101.833 180.496 102.233C180.66 102.632 180.778 103.085 180.843 103.565C180.907 104.045 180.918 104.543 180.874 105.031L180.819 105.435C180.597 106.508 180.245 107.481 179.786 108.286C179.328 109.09 178.774 109.707 178.166 110.091C176.73 110.773 175.243 111.073 173.757 110.98L174.159 113.825C174.599 116.945 175.074 120.065 175.44 123.153C175.577 124.236 175.687 125.303 175.797 126.386C175.998 125.303 176.373 123.379 176.419 123.153C177.105 120.583 179.3 116.363 181.075 116.784C181.351 116.86 181.615 117.032 181.853 117.29C182.092 117.548 182.299 117.886 182.463 118.286C182.627 118.685 182.744 119.138 182.809 119.618C182.874 120.098 182.885 120.596 182.84 121.084L182.785 121.488C182.564 122.561 182.211 123.534 181.753 124.338C181.294 125.143 180.741 125.76 180.133 126.144C178.748 126.819 177.314 127.119 175.879 127.033C176.062 128.811 176.218 130.573 176.327 132.335C176.327 133.095 176.437 133.871 176.446 134.599C176.455 135.326 176.446 136.07 176.51 136.797V143.134C176.62 142.003 176.803 140.208 176.83 140.047C177.297 137.331 179.09 132.562 180.892 132.497C181.454 132.505 181.991 132.906 182.387 133.612C182.783 134.317 183.005 135.27 183.005 136.264C183.009 136.409 183.009 136.555 183.005 136.7C182.874 137.818 182.607 138.872 182.221 139.788C181.836 140.704 181.341 141.46 180.773 142.003C179.424 143.071 177.989 143.763 176.519 144.056C176.519 145.672 176.519 147.37 176.437 148.906C176.309 153.755 176.108 157.765 175.934 160.561C175.76 163.358 175.632 164.991 175.632 164.991C175.621 165.136 175.594 165.277 175.552 165.403C175.51 165.53 175.454 165.641 175.388 165.73C175.321 165.818 175.246 165.883 175.165 165.92C175.085 165.957 175.001 165.965 174.919 165.945C174.753 165.901 174.604 165.744 174.504 165.508C174.403 165.273 174.358 164.977 174.379 164.684C174.546 163.285 174.668 161.871 174.745 160.448Z" fill="black"/>
<path opacity="0.1" d="M172.851 81.8485C172.851 81.8485 169.76 80.6361 168.644 79.1326C168.106 78.5004 167.652 77.6678 167.316 76.6931C166.979 75.7184 166.767 74.6254 166.695 73.4907C166.683 72.4928 166.894 71.5267 167.283 70.803C167.672 70.0793 168.207 69.6566 168.772 69.627H168.991C170.775 69.9664 172.33 74.9941 172.65 77.71C172.687 78.0172 172.879 81.8647 172.851 81.8485Z" fill="black"/>
</g>
<path d="M325.466 132.917C326.939 129.522 329.015 124.592 331.348 118.497C332.024 116.735 332.72 114.86 333.424 112.92C332.994 112.338 329.527 107.763 328.548 104.626C327.634 101.765 326.966 97.7073 327.762 94.5549C328.083 93.1295 328.712 91.9882 329.51 91.3819C330.307 90.7756 331.209 90.7539 332.015 91.3217L332.336 91.5965C334.732 94.0214 335.171 102.783 334.659 107.051C334.659 107.326 334.037 110.479 333.744 112.079C334.165 110.899 334.595 109.719 335.025 108.49C335.647 106.712 336.278 104.804 336.854 102.945C337.156 101.975 337.467 100.989 337.769 99.9867C338.071 98.9844 338.327 97.966 338.611 96.9475C339.013 95.4441 339.388 93.8436 339.763 92.2593C338.702 91.2409 335.61 88.1531 334.522 85.6474C333.433 83.1417 332.372 79.181 332.884 75.9478C333.086 74.4555 333.615 73.1654 334.353 72.3596C335.092 71.5537 335.982 71.2977 336.827 71.6476L337.156 71.8254C339.727 73.5875 340.916 82.1394 340.815 86.4881C340.815 86.6336 340.724 87.5388 340.623 88.622C340.961 87.0053 341.3 85.4857 341.611 83.8691C342.526 79.3103 343.312 74.606 344.145 69.8855C344.319 68.9155 344.501 67.9294 344.684 66.9594C343.77 66.1026 340.422 62.8047 339.288 60.202C338.153 57.5993 337.129 53.7356 337.641 50.5024C337.843 49.0101 338.371 47.72 339.11 46.9142C339.849 46.1083 340.738 45.8523 341.583 46.2022L341.913 46.38C344.492 48.1421 345.672 56.6939 345.572 61.0426C345.572 61.2043 345.471 62.2874 345.352 63.516C345.816 60.9618 346.313 58.4399 346.843 55.9503C347.736 51.6784 348.794 47.5194 350.008 43.5024C349.688 43.2114 345.7 39.4932 344.437 36.5833C343.312 33.9968 342.279 30.1169 342.791 26.8837C342.989 25.3939 343.513 24.1041 344.249 23.2977C344.985 22.4913 345.872 22.2344 346.715 22.5835L346.999 22.729C349.578 24.475 350.758 33.0268 350.658 37.3755C350.658 37.6827 350.273 41.6272 350.109 43.0336V42.8881C351.361 38.9971 352.799 35.303 354.408 31.8467C355.834 28.7592 357.361 25.8226 358.982 23.0523C360.473 20.4496 361.927 18.2025 363.226 16.2787C363.93 15.2441 364.589 14.3065 365.211 13.4497C365.156 13.4497 366.739 8.19569 366.858 7.88853C368.257 4.29966 372.154 -1.18063 374.798 0.225824C375.205 0.463555 375.582 0.840738 375.906 1.33581C376.231 1.83089 376.497 2.43415 376.69 3.11118C376.883 3.78822 376.999 4.52576 377.03 5.28167C377.062 6.03758 377.009 6.79706 376.874 7.51674C376.874 7.71074 376.792 7.90471 376.746 8.0987C376.005 11.3319 373.855 13.2072 372.081 14.0155C370.306 14.8238 366.382 13.8053 365.431 13.5143C364.799 14.4358 364.123 15.4219 363.4 16.5374C362.128 18.5258 360.701 20.8053 359.247 23.4403C358.863 24.1517 358.46 24.9438 358.058 25.6874C358.881 24.6689 360.006 23.2948 360.125 23.1978C362.311 21.1447 367.196 19.4473 369.181 22.8583C369.783 23.9577 370.114 25.4338 370.102 26.9637C370.09 28.4935 369.736 29.9527 369.117 31.0222C369.033 31.1654 368.944 31.3004 368.852 31.4263C367.361 33.6573 364.964 33.6088 363.162 32.8813C361.36 32.1539 358.067 27.9183 357.372 26.9969C356.462 28.7084 355.601 30.4997 354.792 32.364C353.241 35.8286 351.867 39.5289 350.685 43.4216C350.621 43.6479 350.566 43.8904 350.502 44.1167C350.859 43.5024 352.944 40.3177 353.1 40.1237C355.14 37.6665 359.896 35.0314 362.074 38.0221C362.734 38.9957 363.151 40.3891 363.235 41.9014C363.319 43.4137 363.062 44.9236 362.522 46.1052C362.447 46.2637 362.368 46.4148 362.284 46.5578C360.939 49.0474 358.552 49.4677 356.722 49.0959C354.609 48.6756 350.612 44.3916 350.456 44.2461C349.34 48.1814 348.371 52.2425 347.557 56.403C346.944 59.4745 346.395 62.6269 345.855 65.8116C346.331 65.0033 348.27 62.0449 348.426 61.8671C350.456 59.4099 355.213 56.7748 357.39 59.7817C357.741 60.2995 358.028 60.941 358.231 61.6652C358.434 62.3895 358.55 63.1807 358.571 63.9883C358.591 64.7959 358.516 65.6022 358.351 66.3559C358.186 67.1097 357.933 67.7942 357.61 68.3659C356.265 70.8554 353.868 71.2919 352.039 70.9201C349.981 70.4998 346.139 66.4098 345.81 66.0703C345.572 67.5091 345.325 68.9479 345.087 70.4028C344.309 75.1395 343.55 79.8923 342.709 84.5319C342.425 86.1486 342.105 87.7652 341.794 89.2848C342.526 88.137 343.879 86.0516 344.008 85.9222C346.038 83.465 350.795 80.8461 352.972 83.8368C353.323 84.3546 353.61 84.9961 353.813 85.7204C354.016 86.4446 354.132 87.2357 354.152 88.0434C354.173 88.851 354.098 89.6574 353.933 90.4111C353.767 91.1648 353.515 91.8493 353.191 92.421C351.838 94.9106 349.45 95.3471 347.621 94.9753C345.791 94.6034 342.507 91.2894 341.593 90.3356C341.053 92.9545 340.495 95.5249 339.873 97.9983C339.589 99.0653 339.342 100.181 339.031 101.232L338.162 104.222C337.522 106.243 336.937 108.102 336.333 109.945C336.031 110.883 335.72 111.756 335.418 112.661C336.058 111.303 337.092 109.169 337.193 108.991C339.022 106.017 343.477 102.153 345.883 104.529C346.624 105.321 347.156 106.6 347.364 108.085C347.572 109.571 347.437 111.141 346.99 112.451L346.797 112.952C345.681 115.781 343.349 116.848 341.51 116.961C339.48 117.107 335.464 114.229 334.97 113.873C334.211 116.072 333.461 118.206 332.738 120.178C330.46 126.418 328.43 131.494 326.984 134.97C325.539 138.446 324.652 140.434 324.652 140.434C324.486 140.784 324.249 141.004 323.992 141.047C323.735 141.089 323.479 140.95 323.28 140.661C323.177 140.526 323.091 140.354 323.028 140.156C322.965 139.959 322.926 139.74 322.914 139.515C322.902 139.289 322.917 139.062 322.958 138.847C322.999 138.632 323.065 138.435 323.152 138.268C323.152 138.268 323.984 136.328 325.466 132.917Z" fill="#92E3A9"/>
<path d="M357.317 25.9947C357.317 25.9947 353.749 20.1749 352.926 16.6345C352.231 13.6276 351.81 9.44063 352.798 6.48224C353.004 5.81423 353.282 5.22447 353.617 4.74668C353.952 4.2689 354.337 3.91248 354.75 3.69777C355.163 3.48307 355.595 3.41429 356.023 3.4954C356.451 3.57652 356.866 3.80594 357.244 4.1705L357.536 4.49384C359.759 7.38757 359.622 16.1819 358.845 20.3204C358.799 20.6761 357.354 25.9947 357.317 25.9947Z" fill="#92E3A9"/>
<g opacity="0.2">
<path opacity="0.2" d="M325.466 132.917C326.939 129.522 329.015 124.592 331.348 118.497C332.024 116.735 332.72 114.86 333.424 112.92C332.994 112.338 329.527 107.763 328.548 104.626C327.634 101.765 326.966 97.7073 327.762 94.5549C328.083 93.1295 328.712 91.9882 329.51 91.3819C330.307 90.7756 331.209 90.7539 332.015 91.3217L332.336 91.5965C334.732 94.0214 335.171 102.783 334.659 107.051C334.659 107.326 334.037 110.479 333.744 112.079C334.165 110.899 334.595 109.719 335.025 108.49C335.647 106.712 336.278 104.804 336.854 102.945C337.156 101.975 337.467 100.989 337.769 99.9867C338.071 98.9844 338.327 97.966 338.611 96.9475C339.013 95.4441 339.388 93.8436 339.763 92.2593C338.702 91.2409 335.61 88.1531 334.522 85.6474C333.433 83.1417 332.372 79.181 332.884 75.9478C333.086 74.4555 333.615 73.1654 334.353 72.3596C335.092 71.5537 335.982 71.2977 336.827 71.6476L337.156 71.8254C339.727 73.5875 340.916 82.1394 340.815 86.4881C340.815 86.6336 340.724 87.5388 340.623 88.622C340.961 87.0053 341.3 85.4857 341.611 83.8691C342.526 79.3103 343.312 74.606 344.145 69.8855C344.319 68.9155 344.501 67.9294 344.684 66.9594C343.77 66.1026 340.422 62.8047 339.288 60.202C338.153 57.5993 337.129 53.7356 337.641 50.5024C337.843 49.0101 338.371 47.72 339.11 46.9142C339.849 46.1083 340.738 45.8523 341.583 46.2022L341.913 46.38C344.492 48.1421 345.672 56.6939 345.572 61.0426C345.572 61.2043 345.471 62.2874 345.352 63.516C345.816 60.9618 346.313 58.4399 346.843 55.9503C347.736 51.6784 348.794 47.5194 350.008 43.5024C349.688 43.2114 345.7 39.4932 344.437 36.5833C343.312 33.9968 342.279 30.1169 342.791 26.8837C342.989 25.3939 343.513 24.1041 344.249 23.2977C344.985 22.4913 345.872 22.2344 346.715 22.5835L346.999 22.729C349.578 24.475 350.758 33.0268 350.658 37.3755C350.658 37.6827 350.273 41.6272 350.109 43.0336V42.8881C351.361 38.9971 352.799 35.303 354.408 31.8467C355.834 28.7592 357.361 25.8226 358.982 23.0523C360.473 20.4496 361.927 18.2025 363.226 16.2787C363.93 15.2441 364.589 14.3065 365.211 13.4497C365.156 13.4497 366.739 8.19569 366.858 7.88853C368.257 4.29966 372.154 -1.18063 374.798 0.225824C375.205 0.463555 375.582 0.840738 375.906 1.33581C376.231 1.83089 376.497 2.43415 376.69 3.11118C376.883 3.78822 376.999 4.52576 377.03 5.28167C377.062 6.03758 377.009 6.79706 376.874 7.51674C376.874 7.71074 376.792 7.90471 376.746 8.0987C376.005 11.3319 373.855 13.2072 372.081 14.0155C370.306 14.8238 366.382 13.8053 365.431 13.5143C364.799 14.4358 364.123 15.4219 363.4 16.5374C362.128 18.5258 360.701 20.8053 359.247 23.4403C358.863 24.1517 358.46 24.9438 358.058 25.6874C358.881 24.6689 360.006 23.2948 360.125 23.1978C362.311 21.1447 367.196 19.4473 369.181 22.8583C369.783 23.9577 370.114 25.4338 370.102 26.9637C370.09 28.4935 369.736 29.9527 369.117 31.0222C369.033 31.1654 368.944 31.3004 368.852 31.4263C367.361 33.6573 364.964 33.6088 363.162 32.8813C361.36 32.1539 358.067 27.9183 357.372 26.9969C356.462 28.7084 355.601 30.4997 354.792 32.364C353.241 35.8286 351.867 39.5289 350.685 43.4216C350.621 43.6479 350.566 43.8904 350.502 44.1167C350.859 43.5024 352.944 40.3177 353.1 40.1237C355.14 37.6665 359.896 35.0314 362.074 38.0221C362.734 38.9957 363.151 40.3891 363.235 41.9014C363.319 43.4137 363.062 44.9236 362.522 46.1052C362.447 46.2637 362.368 46.4148 362.284 46.5578C360.939 49.0474 358.552 49.4677 356.722 49.0959C354.609 48.6756 350.612 44.3916 350.456 44.2461C349.34 48.1814 348.371 52.2425 347.557 56.403C346.944 59.4745 346.395 62.6269 345.855 65.8116C346.331 65.0033 348.27 62.0449 348.426 61.8671C350.456 59.4099 355.213 56.7748 357.39 59.7817C357.741 60.2995 358.028 60.941 358.231 61.6652C358.434 62.3895 358.55 63.1807 358.571 63.9883C358.591 64.7959 358.516 65.6022 358.351 66.3559C358.186 67.1097 357.933 67.7942 357.61 68.3659C356.265 70.8554 353.868 71.2919 352.039 70.9201C349.981 70.4998 346.139 66.4098 345.81 66.0703C345.572 67.5091 345.325 68.9479 345.087 70.4028C344.309 75.1395 343.55 79.8923 342.709 84.5319C342.425 86.1486 342.105 87.7652 341.794 89.2848C342.526 88.137 343.879 86.0516 344.008 85.9222C346.038 83.465 350.795 80.8461 352.972 83.8368C353.323 84.3546 353.61 84.9961 353.813 85.7204C354.016 86.4446 354.132 87.2357 354.152 88.0434C354.173 88.851 354.098 89.6574 353.933 90.4111C353.767 91.1648 353.515 91.8493 353.191 92.421C351.838 94.9106 349.45 95.3471 347.621 94.9753C345.791 94.6034 342.507 91.2894 341.593 90.3356C341.053 92.9545 340.495 95.5249 339.873 97.9983C339.589 99.0653 339.342 100.181 339.031 101.232L338.162 104.222C337.522 106.243 336.937 108.102 336.333 109.945C336.031 110.883 335.72 111.756 335.418 112.661C336.058 111.303 337.092 109.169 337.193 108.991C339.022 106.017 343.477 102.153 345.883 104.529C346.624 105.321 347.156 106.6 347.364 108.085C347.572 109.571 347.437 111.141 346.99 112.451L346.797 112.952C345.681 115.781 343.349 116.848 341.51 116.961C339.48 117.107 335.464 114.229 334.97 113.873C334.211 116.072 333.461 118.206 332.738 120.178C330.46 126.418 328.43 131.494 326.984 134.97C325.539 138.446 324.652 140.434 324.652 140.434C324.486 140.784 324.249 141.004 323.992 141.047C323.735 141.089 323.479 140.95 323.28 140.661C323.177 140.526 323.091 140.354 323.028 140.156C322.965 139.959 322.926 139.74 322.914 139.515C322.902 139.289 322.917 139.062 322.958 138.847C322.999 138.632 323.065 138.435 323.152 138.268C323.152 138.268 323.984 136.328 325.466 132.917Z" fill="black"/>
<path opacity="0.2" d="M357.317 25.9947C357.317 25.9947 353.75 20.1749 352.926 16.6345C352.231 13.6276 351.81 9.44063 352.798 6.48224C353.004 5.81423 353.282 5.22447 353.617 4.74668C353.952 4.2689 354.337 3.91248 354.75 3.69777C355.163 3.48307 355.596 3.41429 356.024 3.4954C356.451 3.57652 356.866 3.80594 357.244 4.1705L357.537 4.49384C359.759 7.38757 359.622 16.1819 358.845 20.3204C358.799 20.6761 357.354 25.9947 357.317 25.9947Z" fill="black"/>
</g>
<path d="M313.977 168.499C313.977 168.499 317.755 130.347 320.453 127.485C323.152 124.624 323.691 136.07 326.39 138.931C329.088 141.792 333.955 106.502 337.733 106.502C341.51 106.502 339.891 120.809 342.05 124.624C344.209 128.439 355.542 103.608 358.241 106.502C360.939 109.396 361.479 117.947 361.479 117.947C361.479 117.947 381.448 109.363 378.749 116.994C376.051 124.624 356.622 124.624 354.966 130.347C353.31 136.07 370.617 132.254 365.22 139.885C359.823 147.515 342.013 142.746 339.855 147.515C337.696 152.284 350.109 154.192 345.791 158.007C341.474 161.822 325.274 159.915 330.14 161.822C335.007 163.73 345.791 169.453 338.236 172.314C330.68 175.175 312.376 179.944 313.977 168.499Z" fill="#92E3A9"/>
<path d="M357.948 121.924C357.948 121.924 349.459 124.915 334.76 140.903C320.06 156.892 314.398 171.894 314.398 171.894" fill="#92E3A9"/>
<path d="M357.948 121.924C357.948 121.924 349.459 124.915 334.76 140.903C320.06 156.892 314.398 171.894 314.398 171.894" stroke="white" stroke-width="0.729" stroke-miterlimit="10"/>
<path d="M336.452 125.917L333.625 141.905L348.334 137.912" fill="#92E3A9"/>
<path d="M336.452 125.917L333.625 141.905L348.334 137.912" stroke="white" stroke-width="0.729" stroke-miterlimit="10"/>
<path d="M350.31 125.917L353.42 117.43" stroke="white" stroke-width="0.729" stroke-miterlimit="10"/>
<path d="M314.635 170.503C314.635 170.503 312.257 142.859 310.565 140.79C308.873 138.72 308.525 147.014 306.833 149.083C305.14 151.152 302.085 125.577 299.716 125.577C297.347 125.577 298.362 135.956 296.972 138.72C295.582 141.485 288.501 123.508 286.8 125.577C285.099 127.647 284.769 133.871 284.769 133.871C284.769 133.871 272.228 127.647 273.921 133.192C275.613 138.737 287.825 138.72 288.84 142.891C289.855 147.062 279.006 144.282 282.437 149.81C285.867 155.339 297.008 151.88 298.371 155.339C299.734 158.799 291.923 160.189 294.639 162.937C297.356 165.685 307.519 164.328 304.473 165.702C301.427 167.076 294.639 171.23 299.387 173.3C304.134 175.369 315.651 178.796 314.635 170.503Z" fill="#92E3A9"/>
<path d="M312.522 171.021C312.522 171.021 293.972 131.882 294.475 125.093C294.978 118.303 301.875 127.34 305.616 125.513C309.357 123.686 293.267 85.2918 296.24 79.2457C299.213 73.1996 306.019 88.2018 309.87 88.0563C313.721 87.9108 308.653 48.2554 312.394 46.4124C316.136 44.5695 318.157 62.4653 318.157 62.4653C318.157 62.4653 332.272 11.7523 334.467 22.7614C336.662 33.7705 321.35 64.7932 323.298 72.359C325.246 79.9247 336.708 48.9505 336.754 64.2759C336.8 79.6014 320.096 103.915 321.084 111.497C322.072 119.079 332.976 100.876 331.677 111.093C330.378 121.31 316.602 145.624 321.505 139.448C326.408 133.273 338.135 121.019 333.799 135.601C329.463 150.182 317.7 183.533 312.522 171.021Z" fill="#92E3A9"/>
<path d="M312.522 171.021C312.522 171.021 293.972 131.882 294.475 125.093C294.978 118.303 301.875 127.34 305.616 125.513C309.357 123.686 293.267 85.2918 296.24 79.2457C299.213 73.1996 306.019 88.2018 309.87 88.0563C313.721 87.9108 308.653 48.2554 312.394 46.4124C316.136 44.5695 318.157 62.4653 318.157 62.4653C318.157 62.4653 332.272 11.7523 334.467 22.7614C336.662 33.7705 321.35 64.7932 323.298 72.359C325.246 79.9247 336.708 48.9505 336.754 64.2759C336.8 79.6014 320.096 103.915 321.084 111.497C322.072 119.079 332.976 100.876 331.677 111.093C330.378 121.31 316.602 145.624 321.505 139.448C326.408 133.273 338.135 121.019 333.799 135.601C329.463 150.182 317.7 183.533 312.522 171.021Z" fill="#92E3A9"/>
<path opacity="0.1" d="M312.522 171.021C312.522 171.021 293.972 131.882 294.475 125.093C294.978 118.303 301.875 127.34 305.616 125.513C309.357 123.686 293.267 85.2918 296.24 79.2457C299.213 73.1996 306.019 88.2018 309.87 88.0563C313.721 87.9108 308.653 48.2554 312.394 46.4124C316.136 44.5695 318.157 62.4653 318.157 62.4653C318.157 62.4653 332.272 11.7523 334.467 22.7614C336.662 33.7705 321.35 64.7932 323.298 72.359C325.246 79.9247 336.708 48.9505 336.754 64.2759C336.8 79.6014 320.096 103.915 321.084 111.497C322.072 119.079 332.976 100.876 331.677 111.093C330.378 121.31 316.602 145.624 321.505 139.448C326.408 133.273 338.135 121.019 333.799 135.601C329.463 150.182 317.7 183.533 312.522 171.021Z" fill="black"/>
<path d="M320.847 60.2827C320.847 60.2827 315.861 76.4488 313.3 113.873C310.739 151.298 314.745 173.316 314.745 173.316" stroke="white" stroke-width="0.729" stroke-miterlimit="10"/>
<path d="M306.183 98.1438L312.971 116.541L322.301 89.5435" stroke="white" stroke-width="0.729" stroke-miterlimit="10"/>
<path d="M320.289 123.815L313.108 137.411L308.845 122.91" stroke="white" stroke-width="0.729" stroke-miterlimit="10"/>
<path d="M317.087 75.9803L314.745 63.6294" stroke="white" stroke-width="0.729" stroke-miterlimit="10"/>
<path d="M34.5524 132.917C33.0706 129.522 31.0033 124.591 28.6707 118.497C27.9938 116.735 27.2986 114.859 26.5851 112.919C27.0242 112.338 30.491 107.763 31.4698 104.626C32.3845 101.765 33.0523 97.7072 32.2565 94.5548C31.9349 93.1294 31.3061 91.9881 30.5085 91.3818C29.7108 90.7755 28.8096 90.7538 28.0029 91.3216L27.6828 91.5964C25.2862 94.0213 24.8471 102.783 25.3594 107.051C25.3594 107.326 25.9814 110.478 26.2741 112.079C25.8442 110.899 25.4234 109.719 24.9935 108.49C24.3623 106.712 23.7311 104.804 23.164 102.945L22.2492 99.9866C21.9291 98.9843 21.6913 97.9659 21.3985 96.9474C20.9961 95.444 20.6302 93.8435 20.2551 92.2592C21.3162 91.2408 24.3989 88.1531 25.4874 85.6473C26.576 83.1416 27.6462 79.1809 27.1339 75.9477C26.9319 74.4554 26.4037 73.1653 25.6649 72.3595C24.9261 71.5536 24.0368 71.2976 23.1914 71.6475L22.8621 71.8253C20.2826 73.5874 19.1026 82.1393 19.2032 86.488C19.2032 86.6335 19.2946 87.5387 19.3953 88.6219C19.0568 87.0053 18.7184 85.4856 18.4074 83.869C17.4926 79.3102 16.6968 74.6059 15.8644 69.8854L15.3338 66.9593C16.2486 66.1025 19.5874 62.8047 20.7308 60.2019C21.8742 57.5992 22.8896 53.7355 22.3773 50.5023C22.1753 49.01 21.6471 47.7199 20.9083 46.9141C20.1694 46.1082 19.2801 45.8522 18.4348 46.2021L18.1055 46.3799C15.5259 48.142 14.3459 56.6939 14.4466 61.0425C14.4466 61.2042 14.5472 62.2873 14.6661 63.5159C14.1904 60.9617 13.7514 58.4398 13.1751 55.9502C12.2818 51.6783 11.2244 47.5193 10.0101 43.5023C10.3302 43.2113 14.3093 39.4931 15.5808 36.5832C16.7059 33.9967 17.7396 30.1168 17.2273 26.8836C17.1295 26.1446 16.9499 25.4471 16.699 24.8313C16.448 24.2155 16.1306 23.6934 15.765 23.2953C15.3994 22.8971 14.9929 22.6307 14.5688 22.5113C14.1447 22.3919 13.7115 22.4219 13.294 22.5996L13.0287 22.7613C10.4492 24.5072 9.26914 33.059 9.36976 37.4077C9.36976 37.7149 9.75395 41.6594 9.9186 43.0659L9.87287 42.9204C8.62954 39.0239 7.19392 35.3291 5.58276 31.879C4.15715 28.7915 2.62995 25.8549 1.00908 23.0846C-0.481941 20.4819 -1.93637 18.2348 -3.23529 16.311C-3.94879 15.2764 -4.6074 14.3387 -5.22027 13.4819H-5.16539C-5.16539 13.4819 -6.693 8.22796 -6.81191 7.92081C-8.21146 4.33194 -12.1082 -1.1484 -14.7518 0.258049C-15.1585 0.492491 -15.5351 0.86627 -15.86 1.35797C-16.1849 1.84967 -16.4518 2.44971 -16.6455 3.12377C-16.8392 3.79783 -16.9558 4.53272 -16.9888 5.28647C-17.0217 6.04021 -16.9703 6.79804 -16.8374 7.51665C-16.8012 7.7277 -16.7554 7.93316 -16.7002 8.13097C-15.9593 11.3642 -13.8188 13.2394 -12.0351 14.0477C-10.2513 14.856 -6.3454 13.8376 -5.38493 13.5466C-4.75376 14.468 -4.086 15.4542 -3.35421 16.5697C-2.08273 18.5581 -0.655741 20.8375 0.798691 23.4726C1.18288 24.1839 1.58536 24.976 1.98785 25.7196C1.16458 24.7012 0.0303116 23.3271 -0.0886059 23.2301C-2.25653 21.1447 -7.09548 19.3825 -9.1262 22.7613C-9.72831 23.8606 -10.0596 25.3367 -10.0476 26.8666C-10.0356 28.3964 -9.68129 29.8556 -9.06216 30.9251C-8.97802 31.0684 -8.88946 31.2033 -8.79689 31.3293C-7.30587 33.5602 -4.90926 33.5117 -3.10723 32.7842C-1.3052 32.0568 1.98784 27.8212 2.68304 26.8998C3.60359 28.5949 4.46503 30.3872 5.2626 32.2669C6.81678 35.7388 8.19136 39.4503 9.36976 43.3568C9.44294 43.5832 9.49783 43.8257 9.56186 44.052C9.20511 43.4377 7.11951 40.253 6.95486 40.059C4.92415 37.6017 0.167522 34.9666 -2.00955 37.9574C-2.6711 38.9286 -3.08991 40.3209 -3.17549 41.8333C-3.26106 43.3457 -3.00655 44.8569 -2.46692 46.0404C-2.39243 46.1989 -2.31304 46.3501 -2.22909 46.4931C-0.875278 48.9826 1.51218 49.403 3.34165 49.0311C5.44555 48.6108 9.45209 44.3268 9.59845 44.1813C10.7126 48.1208 11.6841 52.1813 12.5073 56.3382C13.1202 59.4098 13.669 62.5621 14.2087 65.7469C13.7331 64.9386 11.7938 61.9802 11.6383 61.8023C9.59845 59.3451 4.85097 56.71 2.66475 59.7169C2.31528 60.2373 2.03072 60.8802 1.82909 61.6049C1.62745 62.3297 1.51313 63.1205 1.49336 63.9274C1.47358 64.7343 1.54878 65.5396 1.7142 66.2925C1.87962 67.0453 2.13165 67.7293 2.45436 68.3011C3.79902 70.7907 6.19563 71.2272 8.0251 70.8554C10.0833 70.435 13.9252 66.345 14.2453 66.0055C14.4923 67.4443 14.7393 68.8831 14.9771 70.338C15.7455 75.0747 16.5139 79.8276 17.3463 84.4672C17.639 86.0838 17.9591 87.7004 18.261 89.22C17.5384 88.0722 16.1845 85.9868 16.0565 85.8575C14.0166 83.4002 9.26914 80.7813 7.08292 83.772C6.4241 84.7479 6.00879 86.1424 5.92665 87.6547C5.8445 89.1669 6.1021 90.6756 6.64385 91.8551L6.87254 92.2916C8.2172 94.7812 10.6138 95.2176 12.4433 94.8458C14.2727 94.474 17.6024 91.2731 18.5171 90.3193C19.0477 92.9382 19.6148 95.5086 20.2368 97.982C20.5204 99.049 20.7674 100.164 21.0692 101.215C21.3711 102.266 21.6547 103.22 21.984 104.206C22.6151 106.227 23.2097 108.086 23.8134 109.929L24.7282 112.645C24.0879 111.287 23.0542 109.153 22.8987 108.975C21.0692 106 16.6236 102.137 14.2087 104.513C13.4678 105.305 12.935 106.583 12.7274 108.069C12.5199 109.554 12.6546 111.125 13.1019 112.435L13.294 112.936C14.41 115.765 16.7334 116.832 18.5812 116.945C20.6027 117.09 24.6276 114.213 25.1215 113.857C25.8807 116.056 26.6308 118.19 27.3443 120.162C29.6312 126.402 31.6619 131.478 33.1072 134.954C34.5524 138.43 35.4397 140.418 35.4397 140.418C35.6054 140.768 35.8425 140.988 36.0994 141.03C36.3564 141.073 36.6124 140.934 36.8118 140.644C36.9148 140.509 37.0006 140.337 37.0635 140.14C37.1265 139.943 37.1653 139.724 37.1773 139.498C37.1894 139.273 37.1745 139.045 37.1336 138.831C37.0927 138.616 37.0267 138.419 36.9399 138.252C36.9399 138.252 36.0252 136.328 34.5524 132.917Z" fill="#92E3A9"/>
<path d="M2.70142 25.9947C2.70142 25.9947 6.25975 20.1749 7.08301 16.6345C7.78736 13.6276 8.20813 9.44062 7.21107 6.48223C6.79719 5.13853 6.09836 4.14023 5.26818 3.70674C4.43799 3.27326 3.54438 3.44007 2.78375 4.17049L2.48189 4.49383C0.25908 7.38756 0.39629 16.1819 1.17382 20.3204C1.24699 20.676 2.66483 25.9947 2.70142 25.9947Z" fill="#92E3A9"/>
<g opacity="0.2">
<path opacity="0.2" d="M34.5524 132.917C33.0706 129.522 31.0033 124.591 28.6707 118.497C27.9938 116.735 27.2986 114.859 26.5851 112.919C27.0242 112.338 30.491 107.763 31.4698 104.626C32.3845 101.765 33.0523 97.7072 32.2565 94.5548C31.9349 93.1294 31.3061 91.9881 30.5085 91.3818C29.7108 90.7755 28.8096 90.7538 28.0029 91.3216L27.6828 91.5964C25.2862 94.0213 24.8471 102.783 25.3594 107.051C25.3594 107.326 25.9814 110.478 26.2741 112.079C25.8442 110.899 25.4234 109.719 24.9935 108.49C24.3623 106.712 23.7311 104.804 23.164 102.945L22.2492 99.9866C21.9291 98.9843 21.6913 97.9659 21.3985 96.9474C20.9961 95.444 20.6302 93.8435 20.2551 92.2592C21.3162 91.2408 24.3989 88.1531 25.4874 85.6473C26.576 83.1416 27.6462 79.1809 27.1339 75.9477C26.9319 74.4554 26.4037 73.1653 25.6649 72.3595C24.9261 71.5536 24.0368 71.2976 23.1914 71.6475L22.8621 71.8253C20.2826 73.5874 19.1026 82.1393 19.2032 86.488C19.2032 86.6335 19.2946 87.5387 19.3953 88.6219C19.0568 87.0053 18.7184 85.4856 18.4074 83.869C17.4926 79.3102 16.6968 74.6059 15.8644 69.8854L15.3338 66.9593C16.2486 66.1025 19.5874 62.8047 20.7308 60.2019C21.8742 57.5992 22.8896 53.7355 22.3773 50.5023C22.1753 49.01 21.6471 47.7199 20.9083 46.9141C20.1694 46.1082 19.2801 45.8522 18.4348 46.2021L18.1055 46.3799C15.5259 48.142 14.3459 56.6939 14.4466 61.0425C14.4466 61.2042 14.5472 62.2873 14.6661 63.5159C14.1904 60.9617 13.7514 58.4398 13.1751 55.9502C12.2818 51.6783 11.2244 47.5193 10.0101 43.5023C10.3302 43.2113 14.3093 39.4931 15.5808 36.5832C16.7059 33.9967 17.7396 30.1168 17.2273 26.8836C17.1295 26.1446 16.9499 25.4471 16.699 24.8313C16.448 24.2155 16.1306 23.6934 15.765 23.2953C15.3994 22.8971 14.9929 22.6307 14.5688 22.5113C14.1447 22.3919 13.7115 22.4219 13.294 22.5996L13.0287 22.7613C10.4492 24.5072 9.26914 33.059 9.36976 37.4077C9.36976 37.7149 9.75395 41.6594 9.9186 43.0659L9.87287 42.9204C8.62954 39.0239 7.19392 35.3291 5.58276 31.879C4.15715 28.7915 2.62995 25.8549 1.00908 23.0846C-0.481941 20.4819 -1.93637 18.2348 -3.23529 16.311C-3.94879 15.2764 -4.6074 14.3387 -5.22027 13.4819H-5.16539C-5.16539 13.4819 -6.693 8.22796 -6.81191 7.92081C-8.21146 4.33194 -12.1082 -1.1484 -14.7518 0.258049C-15.1585 0.492491 -15.5351 0.86627 -15.86 1.35797C-16.1849 1.84967 -16.4518 2.44971 -16.6455 3.12377C-16.8392 3.79783 -16.9558 4.53272 -16.9888 5.28647C-17.0217 6.04021 -16.9703 6.79804 -16.8374 7.51665C-16.8012 7.7277 -16.7554 7.93316 -16.7002 8.13097C-15.9593 11.3642 -13.8188 13.2394 -12.0351 14.0477C-10.2513 14.856 -6.3454 13.8376 -5.38493 13.5466C-4.75376 14.468 -4.086 15.4542 -3.35421 16.5697C-2.08273 18.5581 -0.655741 20.8375 0.798691 23.4726C1.18288 24.1839 1.58536 24.976 1.98785 25.7196C1.16458 24.7012 0.0303116 23.3271 -0.0886059 23.2301C-2.25653 21.1447 -7.09548 19.3825 -9.1262 22.7613C-9.72831 23.8606 -10.0596 25.3367 -10.0476 26.8666C-10.0356 28.3964 -9.68129 29.8556 -9.06216 30.9251C-8.97802 31.0684 -8.88946 31.2033 -8.79689 31.3293C-7.30587 33.5602 -4.90926 33.5117 -3.10723 32.7842C-1.3052 32.0568 1.98784 27.8212 2.68304 26.8998C3.60359 28.5949 4.46503 30.3872 5.2626 32.2669C6.81678 35.7388 8.19136 39.4503 9.36976 43.3568C9.44294 43.5832 9.49783 43.8257 9.56186 44.052C9.20511 43.4377 7.11951 40.253 6.95486 40.059C4.92415 37.6017 0.167522 34.9666 -2.00955 37.9574C-2.6711 38.9286 -3.08991 40.3209 -3.17549 41.8333C-3.26106 43.3457 -3.00655 44.8569 -2.46692 46.0404C-2.39243 46.1989 -2.31304 46.3501 -2.22909 46.4931C-0.875278 48.9826 1.51218 49.403 3.34165 49.0311C5.44555 48.6108 9.45209 44.3268 9.59845 44.1813C10.7126 48.1208 11.6841 52.1813 12.5073 56.3382C13.1202 59.4098 13.669 62.5621 14.2087 65.7469C13.7331 64.9386 11.7938 61.9802 11.6383 61.8023C9.59845 59.3451 4.85097 56.71 2.66475 59.7169C2.31528 60.2373 2.03072 60.8802 1.82909 61.6049C1.62745 62.3297 1.51313 63.1205 1.49336 63.9274C1.47358 64.7343 1.54878 65.5396 1.7142 66.2925C1.87962 67.0453 2.13165 67.7293 2.45436 68.3011C3.79902 70.7907 6.19563 71.2272 8.0251 70.8554C10.0833 70.435 13.9252 66.345 14.2453 66.0055C14.4923 67.4443 14.7393 68.8831 14.9771 70.338C15.7455 75.0747 16.5139 79.8276 17.3463 84.4672C17.639 86.0838 17.9591 87.7004 18.261 89.22C17.5384 88.0722 16.1845 85.9868 16.0565 85.8575C14.0166 83.4002 9.26914 80.7813 7.08292 83.772C6.4241 84.7479 6.00879 86.1424 5.92665 87.6547C5.8445 89.1669 6.1021 90.6756 6.64385 91.8551L6.87254 92.2916C8.2172 94.7812 10.6138 95.2176 12.4433 94.8458C14.2727 94.474 17.6024 91.2731 18.5171 90.3193C19.0477 92.9382 19.6148 95.5086 20.2368 97.982C20.5204 99.049 20.7674 100.164 21.0692 101.215C21.3711 102.266 21.6547 103.22 21.984 104.206C22.6151 106.227 23.2097 108.086 23.8134 109.929L24.7282 112.645C24.0879 111.287 23.0542 109.153 22.8987 108.975C21.0692 106 16.6236 102.137 14.2087 104.513C13.4678 105.305 12.935 106.583 12.7274 108.069C12.5199 109.554 12.6546 111.125 13.1019 112.435L13.294 112.936C14.41 115.765 16.7334 116.832 18.5812 116.945C20.6027 117.09 24.6276 114.213 25.1215 113.857C25.8807 116.056 26.6308 118.19 27.3443 120.162C29.6312 126.402 31.6619 131.478 33.1072 134.954C34.5524 138.43 35.4397 140.418 35.4397 140.418C35.6054 140.768 35.8425 140.988 36.0994 141.03C36.3564 141.073 36.6124 140.934 36.8118 140.644C36.9148 140.509 37.0006 140.337 37.0635 140.14C37.1265 139.943 37.1653 139.724 37.1773 139.498C37.1894 139.273 37.1745 139.045 37.1336 138.831C37.0927 138.616 37.0267 138.419 36.9399 138.252C36.9399 138.252 36.0252 136.328 34.5524 132.917Z" fill="black"/>
<path opacity="0.2" d="M2.70142 25.9947C2.70142 25.9947 6.25975 20.1749 7.08301 16.6345C7.78736 13.6276 8.20813 9.44062 7.21107 6.48223C6.79719 5.13853 6.09836 4.14023 5.26818 3.70674C4.43799 3.27326 3.54438 3.44007 2.78375 4.17049L2.48189 4.49383C0.25908 7.38756 0.39629 16.1819 1.17382 20.3204C1.24699 20.676 2.66483 25.9947 2.70142 25.9947Z" fill="black"/>
</g>
<path d="M46.0141 168.499C46.0141 168.499 42.2362 130.347 39.5378 127.485C36.8393 124.624 36.2996 136.07 33.6011 138.931C30.9026 141.792 26.0454 106.502 22.2675 106.502C18.4897 106.502 20.1088 120.809 17.95 124.624C15.7912 128.439 4.45763 103.608 1.75916 106.502C-0.939314 109.396 -1.47901 117.947 -1.47901 117.947C-1.47901 117.947 -21.4477 109.363 -18.7492 116.994C-16.0508 124.624 3.37824 124.624 5.03391 130.347C6.68958 136.07 -10.6172 132.254 -5.22028 139.885C0.176662 147.515 17.9866 142.746 20.1453 147.515C22.3041 152.284 9.89116 154.192 14.2087 158.007C18.5263 161.822 34.7171 159.915 29.8598 161.79C25.0026 163.665 14.2087 169.42 21.7644 172.282C29.3202 175.143 47.6332 179.944 46.0141 168.499Z" fill="#92E3A9"/>
<path d="M2.05188 121.924C2.05188 121.924 10.5406 124.915 25.2404 140.903C39.9402 156.892 45.6025 171.894 45.6025 171.894" fill="#92E3A9"/>
<path d="M2.05188 121.924C2.05188 121.924 10.5406 124.915 25.2404 140.903C39.9402 156.892 45.6025 171.894 45.6025 171.894" stroke="white" stroke-width="0.729" stroke-miterlimit="10"/>
<path d="M7.88242 121L10.709 136.988L-4 132.995" fill="#92E3A9"/>
<path d="M7.88242 121L10.709 136.988L-4 132.995" stroke="white" stroke-width="0.729" stroke-miterlimit="10"/>
<path d="M9.70818 125.917L6.59808 117.43" stroke="white" stroke-width="0.729" stroke-miterlimit="10"/>
<path d="M45.3829 170.503C45.3829 170.503 47.7613 142.859 49.4535 140.79C51.1458 138.72 51.4842 147.014 53.1856 149.083C54.8871 151.152 57.9331 125.577 60.3023 125.577C62.6715 125.577 61.6561 135.956 63.0465 138.72C64.4369 141.485 71.5261 123.508 73.2184 125.577C74.9106 127.647 75.2582 133.871 75.2582 133.871C75.2582 133.871 87.7993 127.647 86.107 133.192C84.4147 138.737 72.203 138.72 71.1877 142.891C70.1723 147.062 81.0211 144.282 77.5908 149.81C74.1605 155.339 63.0099 151.88 61.6561 155.339C60.3023 158.799 68.0592 160.189 65.3882 162.937C62.7172 165.685 52.5087 164.328 55.5548 165.702C58.6009 167.076 65.3882 171.23 60.6407 173.3C55.8933 175.369 44.3676 178.796 45.3829 170.503Z" fill="#92E3A9"/>
<path d="M47.496 171.021C47.496 171.021 66.0835 131.882 65.5346 125.093C64.9858 118.303 58.1435 127.34 54.4023 125.513C50.661 123.686 66.7512 85.2919 63.7783 79.2457C60.8054 73.1996 53.9998 88.2018 50.1487 88.0563C46.2977 87.9108 51.3562 48.2554 47.6241 46.4124C43.892 44.5695 41.8612 62.4653 41.8612 62.4653C41.8612 62.4653 27.7286 11.7523 25.5515 22.7614C23.3744 33.7705 38.6414 64.7933 36.7204 72.2782C34.7995 79.7631 23.3104 48.8697 23.2555 64.1951C23.2006 79.5206 39.922 103.77 38.9341 111.352C37.9462 118.933 27.0883 100.73 28.3323 110.947C29.5763 121.164 43.4163 145.43 38.5133 139.303C33.6103 133.176 21.8743 120.873 26.2192 135.455C30.5642 150.037 42.3003 183.533 47.496 171.021Z" fill="#92E3A9"/>
<path d="M47.496 171.021C47.496 171.021 66.0835 131.882 65.5346 125.093C64.9858 118.303 58.1435 127.34 54.4023 125.513C50.661 123.686 66.7512 85.2919 63.7783 79.2457C60.8054 73.1996 53.9998 88.2018 50.1487 88.0563C46.2977 87.9108 51.3562 48.2554 47.6241 46.4124C43.892 44.5695 41.8612 62.4653 41.8612 62.4653C41.8612 62.4653 27.7286 11.7523 25.5515 22.7614C23.3744 33.7705 38.6414 64.7933 36.7204 72.2782C34.7995 79.7631 23.3104 48.8697 23.2555 64.1951C23.2006 79.5206 39.922 103.77 38.9341 111.352C37.9462 118.933 27.0883 100.73 28.3323 110.947C29.5763 121.164 43.4163 145.43 38.5133 139.303C33.6103 133.176 21.8743 120.873 26.2192 135.455C30.5642 150.037 42.3003 183.533 47.496 171.021Z" fill="#92E3A9"/>
<path opacity="0.1" d="M47.496 171.021C47.496 171.021 66.0835 131.882 65.5346 125.093C64.9858 118.303 58.1435 127.34 54.4023 125.513C50.661 123.686 66.7512 85.2919 63.7783 79.2457C60.8054 73.1996 53.9998 88.2018 50.1487 88.0563C46.2977 87.9108 51.3562 48.2554 47.6241 46.4124C43.892 44.5695 41.8612 62.4653 41.8612 62.4653C41.8612 62.4653 27.7286 11.7523 25.5515 22.7614C23.3744 33.7705 38.6414 64.7933 36.7204 72.2782C34.7995 79.7631 23.3104 48.8697 23.2555 64.1951C23.2006 79.5206 39.922 103.77 38.9341 111.352C37.9462 118.933 27.0883 100.73 28.3323 110.947C29.5763 121.164 43.4163 145.43 38.5133 139.303C33.6103 133.176 21.8743 120.873 26.2192 135.455C30.5642 150.037 42.3003 183.533 47.496 171.021Z" fill="black"/>
<path d="M39.1718 60.2827C39.1718 60.2827 44.1571 76.4488 46.7184 113.873C49.2796 151.298 45.2731 173.316 45.2731 173.316" stroke="white" stroke-width="0.729" stroke-miterlimit="10"/>
<path d="M53.8351 98.1438L47.0386 116.541L37.7174 89.5435" stroke="white" stroke-width="0.729" stroke-miterlimit="10"/>
<path d="M39.7299 123.815L46.9105 137.411L51.1732 122.91" stroke="white" stroke-width="0.729" stroke-miterlimit="10"/>
<path d="M42.9224 75.9803L45.2641 63.6294" stroke="white" stroke-width="0.729" stroke-miterlimit="10"/>
</svg>
