<svg width="263" height="255" viewBox="0 0 263 255" fill="none" xmlns="http://www.w3.org/2000/svg">
<g filter="url(#filter0_d)">
<path d="M41.9413 229.512C91.5938 252.661 172.124 252.661 221.763 229.512C271.402 206.362 271.422 168.772 221.763 145.595C172.104 122.418 91.5803 122.445 41.9413 145.595C-7.69775 168.744 -7.71809 206.342 41.9413 229.512Z" fill="#F5F5F5"/>
<path d="M155.37 195.639C142.128 201.971 120.661 201.971 107.426 195.639C94.1906 189.307 94.1839 179.026 107.426 172.687C120.668 166.348 142.128 166.355 155.37 172.687C168.612 179.019 168.612 189.3 155.37 195.639Z" fill="#E6E6E6"/>
<path d="M193.143 204.919C210.852 204.919 225.208 198.048 225.208 189.572C225.208 181.097 210.852 174.226 193.143 174.226C175.435 174.226 161.079 181.097 161.079 189.572C161.079 198.048 175.435 204.919 193.143 204.919Z" fill="#E6E6E6"/>
<path d="M92.5295 200.691C79.735 206.819 58.9938 206.819 46.1925 200.691C33.3912 194.563 33.398 184.643 46.1925 178.515C58.9871 172.387 79.735 172.387 92.5295 178.515C105.324 184.643 105.31 194.57 92.5295 200.691Z" fill="#E6E6E6"/>
<path d="M47.8808 160.063C47.3587 153.527 41.5751 140.373 34.1167 132.42C26.6583 124.468 15.5724 119.143 8.24285 122.337C1.43537 125.332 2.92705 134.524 11.9449 139.964C20.9628 145.404 34.3811 152.077 38.9782 162.372L47.8808 174.736V160.063Z" fill="#6DD2AE"/>
<path opacity="0.1" d="M47.8808 160.063C47.3587 153.527 41.5751 140.373 34.1167 132.42C26.6583 124.468 15.5724 119.143 8.24285 122.337C1.43537 125.332 2.92705 134.524 11.9449 139.964C20.9628 145.404 34.3811 152.077 38.9782 162.372L47.8808 174.736V160.063Z" fill="black"/>
<path d="M49.0741 168.962C48.9708 168.963 48.8703 168.929 48.7881 168.866C48.7059 168.804 48.6468 168.715 48.6198 168.615C42.4768 146.664 23.0579 129.983 12.0059 126.851C11.8954 126.807 11.805 126.723 11.7522 126.616C11.6995 126.509 11.6879 126.386 11.7199 126.271C11.7519 126.156 11.8252 126.057 11.9255 125.993C12.0259 125.929 12.1463 125.905 12.2635 125.925C23.5461 129.125 43.3176 146.072 49.5555 168.356C49.5741 168.428 49.5762 168.502 49.5618 168.574C49.5474 168.646 49.5168 168.714 49.4724 168.772C49.4279 168.831 49.3708 168.878 49.3053 168.911C49.2398 168.944 49.1677 168.962 49.0945 168.962H49.0741Z" fill="white"/>
<path d="M46.9044 183.485C45.5484 179.897 40.6191 174.198 32.9912 169.773C24.5564 164.884 14.2367 163.155 11.5584 159.029C8.34456 154.079 12.2975 148.816 20.5899 149.197C28.8823 149.578 44.2194 159.655 47.8808 176.404L46.9044 183.485Z" fill="#6DD2AE"/>
<path d="M48.186 179.523C48.0947 179.522 48.0055 179.496 47.9287 179.446C47.8518 179.397 47.7906 179.327 47.752 179.244C39.4122 160.683 24.3598 155.155 17.5659 154.814C17.5035 154.811 17.4424 154.796 17.386 154.769C17.3296 154.742 17.2791 154.704 17.2372 154.658C17.1953 154.611 17.163 154.557 17.142 154.498C17.121 154.439 17.1119 154.376 17.115 154.314C17.1181 154.251 17.1334 154.19 17.1602 154.133C17.1869 154.077 17.2245 154.026 17.2708 153.984C17.317 153.942 17.3711 153.909 17.4299 153.888C17.4887 153.867 17.551 153.858 17.6133 153.861C25.126 154.229 40.1106 159.907 48.6199 178.849C48.646 178.906 48.6605 178.968 48.6627 179.031C48.6648 179.093 48.6546 179.156 48.6325 179.215C48.6105 179.274 48.577 179.328 48.5341 179.374C48.4912 179.419 48.4397 179.456 48.3826 179.482C48.3206 179.509 48.2536 179.523 48.186 179.523Z" fill="white"/>
<path d="M215.993 160.928C216.447 155.257 219.031 145.949 225.601 137.098C232.625 127.607 241.196 121.669 247.556 124.447C253.482 127.035 251.237 135.253 241.033 143.355C233.88 149.04 226.455 156.441 222.461 165.374L215.993 176.745V160.928Z" fill="#6DD2AE"/>
<g opacity="0.1">
<path opacity="0.1" d="M215.993 160.928C216.447 155.257 219.031 145.949 225.601 137.098C232.625 127.607 241.196 121.669 247.556 124.447C253.482 127.035 251.237 135.253 241.033 143.355C233.88 149.04 226.455 156.441 222.461 165.374L215.993 176.745V160.928Z" fill="black"/>
</g>
<path d="M216.563 165.252C216.645 165.251 216.726 165.226 216.794 165.178C216.862 165.131 216.913 165.064 216.942 164.986C222.631 149.265 234.47 133.36 244.484 127.981C244.531 127.957 244.573 127.923 244.607 127.882C244.64 127.841 244.666 127.794 244.681 127.743C244.696 127.692 244.701 127.639 244.695 127.586C244.689 127.534 244.673 127.482 244.647 127.436C244.622 127.39 244.588 127.349 244.547 127.315C244.507 127.282 244.46 127.257 244.409 127.242C244.359 127.226 244.306 127.221 244.254 127.227C244.201 127.232 244.151 127.248 244.104 127.273C233.934 132.72 221.933 148.822 216.19 164.721C216.171 164.77 216.163 164.823 216.165 164.876C216.167 164.929 216.179 164.981 216.201 165.029C216.223 165.077 216.255 165.12 216.293 165.156C216.332 165.192 216.377 165.22 216.427 165.238L216.563 165.252Z" fill="white"/>
<path d="M216.562 180.306C219.849 182.899 223.756 184.58 227.892 185.181C235.032 186.318 238.185 182.886 238.185 182.886C238.185 182.886 235.371 176.166 231.317 174.28C231.317 174.28 238.192 175.683 243.704 179.38C243.704 179.38 248.064 179.448 249.807 172.769C249.807 172.769 247.223 168.745 238.558 166.573C238.558 166.573 243.833 165.211 251.441 167.192C252.01 167.417 254.438 158.777 255.177 154.794C255.916 150.811 254.316 150.851 251.224 150.028C248.132 149.204 237.595 148.666 235.629 150.388C233.663 152.111 232.707 157.939 232.707 157.939C232.707 157.939 230.855 154.63 231.296 151.682C229.139 151.061 226.845 151.115 224.719 151.839C221.241 153.057 221.465 154.753 221.465 157.286C221.451 159.844 221.8 162.391 222.502 164.85C222.502 164.85 220.102 162.767 220.02 155.08C220.02 155.08 215.322 159.117 213.437 162.569C211.552 166.021 212.033 175.131 216.562 180.306Z" fill="#6DD2AE"/>
<path d="M216.563 180.715C216.639 180.713 216.713 180.69 216.778 180.65C216.842 180.609 216.894 180.551 216.929 180.483C222.685 168.466 244.104 154.501 251.773 153.003C251.878 152.982 251.97 152.92 252.03 152.831C252.089 152.741 252.112 152.632 252.092 152.527C252.07 152.423 252.009 152.332 251.922 152.274C251.834 152.215 251.727 152.193 251.624 152.213C243.82 153.732 222.055 167.921 216.203 180.129C216.18 180.177 216.167 180.229 216.164 180.282C216.161 180.335 216.169 180.388 216.186 180.438C216.204 180.488 216.231 180.534 216.267 180.573C216.302 180.612 216.345 180.644 216.393 180.667C216.445 180.696 216.503 180.712 216.563 180.715Z" fill="white"/>
<path d="M124.449 46.0518L117.662 69.2421L125.08 73.0754L130.864 53.7388L124.449 46.0518Z" fill="#FFA8A7"/>
<path d="M132.016 36.9219C128.416 37.31 125.27 40.5645 123.826 45.6642C122.381 50.7639 120.435 58.6961 120.435 58.6961C120.435 58.6961 124.382 63.0332 129.738 61.7191L132.016 36.9219Z" fill="#E6E6E6"/>
<path d="M122.761 171.345V170.365C122.361 171.509 120.496 176.418 117.757 178.848C115.574 180.782 112.611 183.008 111.831 185.194C111.051 187.38 115.859 188.306 117.872 187.979C120.212 187.604 123.249 186.324 124.924 184.323C126.104 182.913 126.863 181.238 127.711 180.128C128.558 179.019 130.47 177.8 130.938 176.513C131.196 175.832 130.938 174.239 130.606 172.918C130.274 171.597 129.989 170.365 129.575 170.474C129.575 170.623 129.575 171.216 129.575 171.216C129.074 171.761 127.697 172.285 126.151 172.319C125.155 172.346 122.741 172.108 122.761 171.345Z" fill="#263238"/>
<path d="M115.798 180.551C116.476 179.966 117.154 179.394 117.771 178.842C119.683 177.147 121.161 174.233 122.029 172.245C122.518 171.111 122.781 169.892 122.802 168.656L122.863 164.755L130.009 164.421L129.575 171.23V171.393H129.535C129.189 172.81 126.002 176.541 124.185 178.978C122.971 180.612 120.673 182.675 117.967 182.995C115.398 183.309 114.103 182.478 115.798 180.551Z" fill="#FFA8A7"/>
<path d="M157.612 172.591L157.354 171.652C157.287 172.857 156.88 178.1 154.934 181.184C153.381 183.655 151.164 186.631 151.022 188.946C150.879 191.261 155.768 190.791 157.605 189.913C159.748 188.884 162.304 186.794 163.348 184.404C164.081 182.723 164.345 180.898 164.84 179.597C165.335 178.297 166.84 176.581 166.928 175.213C166.976 174.457 166.25 173.034 165.572 171.856C164.894 170.678 164.264 169.582 163.898 169.813C163.931 169.956 164.094 170.535 164.094 170.535C163.762 171.216 162.589 172.087 161.118 172.578C160.195 172.877 157.809 173.333 157.612 172.591Z" fill="#263238"/>
<path d="M153.517 183.397C153.998 182.641 154.493 181.899 154.934 181.205C156.29 179.026 156.9 175.819 157.171 173.668C157.323 172.441 157.231 171.196 156.9 170.005L155.87 166.246L162.433 164.421L164.121 170.549L164.162 170.713C164.223 172.17 162.216 176.65 161.152 179.503C160.473 181.416 158.826 184.044 156.31 185.12C153.91 186.155 152.432 185.726 153.517 183.397Z" fill="#FFA8A7"/>
<path d="M153.937 72.6604C157.721 77.5354 158.405 82.5739 157.578 96.8244C156.751 111.075 156.493 123.004 156.704 123.807C156.914 124.611 159.985 131.154 161.111 136.444C162.433 142.633 162.758 165.599 162.758 165.599C161.911 166.446 160.857 167.055 159.701 167.364C158.546 167.674 157.33 167.673 156.175 167.362C156.175 167.362 145.218 130.378 144.153 127.191C143.089 124.005 136.356 90.2064 136.356 90.2064L137.38 71.1421L153.937 72.6604Z" fill="#37474F"/>
<path d="M125.033 89.0622C125.609 82.4782 127.012 71.0737 127.012 71.0737L143.773 70.0864C146.486 74.335 145.306 81.4025 144.567 87.789L134.979 125.475C135.176 127.279 136.83 131.106 134.979 140.808C132.945 151.641 130.064 165.912 130.064 165.912C130.064 165.912 126.456 167.58 122.842 166.055C122.842 166.055 121.486 131.732 122.341 122.357C123.324 112.219 124.639 93.5628 125.033 89.0622Z" fill="#37474F"/>
<path d="M139.292 105.042L136.58 91.2208C134.157 90.3551 131.857 89.1764 129.738 87.7144C131.093 89.4346 132.708 90.9304 134.525 92.1468L139.292 105.042Z" fill="#263238"/>
<path d="M125.08 34.8244H138.58C142.96 34.8244 147.161 33.077 150.259 29.9665C153.356 26.856 155.097 22.6374 155.097 18.2385C155.097 16.2592 154.71 14.2991 153.956 12.4703C153.203 10.6414 152.098 8.97955 150.704 7.57967C149.311 6.17979 147.656 5.06931 145.835 4.31167C144.014 3.55402 142.063 3.16406 140.092 3.16406C136.11 3.16406 132.292 4.75225 129.477 7.57925C126.662 10.4063 125.08 14.2405 125.08 18.2385V34.8244Z" fill="#263238"/>
<path d="M152.581 37.3979C155.185 37.5273 157.104 38.0175 158.873 43.1581C160.643 48.2986 164.332 68.0302 163.097 70.0864L154.866 66.6004L152.832 55.7678C148.147 51.7575 148.411 38.8414 152.581 37.3979Z" fill="#FFA8A7"/>
<path d="M128.07 60.3777C127.657 64.2246 126.117 78.4275 126.117 78.4275C138.749 85.1953 154.419 80.7152 156.819 77.9237C154.649 70.7405 152.31 66.6553 150.52 64.7421L152.798 55.7682C152.798 55.7682 147.157 47.6659 152.581 37.3848L145.882 36.8333L136.044 36.5474C133.691 36.6767 132.016 36.9082 132.016 36.9082C130.504 38.3244 128.131 42.2122 126.592 46.1748C125.595 48.7417 124.524 52.8201 128.07 60.3777Z" fill="#F5F5F5"/>
<path d="M152.581 37.3983C155.544 37.2281 157.327 37.9635 159.463 42.7432C161.599 47.5229 163.328 59.1929 163.328 59.1929C163.328 59.1929 161.518 62.8901 152.568 61.8415L151.212 53.7392C151.212 53.7392 147.265 45.3168 152.581 37.3983Z" fill="#E6E6E6"/>
<path d="M151.652 60.2822C151.544 60.7248 148.581 64.6534 147.13 65.5794C145.679 66.5054 149.706 67.7854 150.269 70.0867C151.415 74.7302 148.086 79.7414 136.783 80.0478C134.111 80.1159 133.996 80.6878 135.379 81.5049C145.421 83.1662 154.988 80.0546 156.819 77.9235C154.649 70.7403 152.31 66.6551 150.52 64.7419L151.652 60.2822Z" fill="#E6E6E6"/>
<path d="M130.443 9.72745C128.857 10.667 126.897 14.6705 127.087 23.0656C127.257 30.1807 129.548 31.9169 130.701 32.448C131.854 32.9791 134.091 32.6455 136.241 32.2846V36.5536C136.306 37.0009 136.46 37.4305 136.693 37.8175C136.926 38.2044 137.233 38.5409 137.597 38.8073C139.353 39.9171 141.441 39.4882 142.614 39.0728C145.197 38.1401 145.713 36.86 145.713 36.86L145.665 27.0419C145.665 27.0419 146.933 28.2879 149.089 26.361C150.873 24.8019 151.476 22.1669 150.086 20.7507C149.727 20.4136 149.292 20.1673 148.819 20.0321C148.346 19.8969 147.848 19.8767 147.366 19.9732C146.883 20.0697 146.431 20.28 146.046 20.5869C145.66 20.8938 145.353 21.2883 145.15 21.738C145.15 21.738 143.882 21.8401 142.614 19.4775C142.614 19.4775 142.655 13.0501 141.258 12.2126C136.702 9.58446 133.494 9.72745 130.443 9.72745Z" fill="#FFA8A7"/>
<path d="M135 20.8258C134.999 21.0004 135.049 21.1715 135.143 21.3179C135.238 21.4642 135.374 21.5794 135.533 21.6491C135.693 21.7188 135.869 21.74 136.04 21.7101C136.212 21.6801 136.37 21.6003 136.497 21.4806C136.624 21.3609 136.712 21.2065 136.752 21.0365C136.792 20.8666 136.782 20.6886 136.722 20.5246C136.662 20.3607 136.556 20.2179 136.416 20.1141C136.276 20.0103 136.109 19.95 135.935 19.9407C135.695 19.9351 135.462 20.0249 135.287 20.1905C135.112 20.3562 135.009 20.5844 135 20.8258Z" fill="#263238"/>
<g style="mix-blend-mode:multiply" opacity="0.5">
<g style="mix-blend-mode:multiply" opacity="0.5">
<path d="M134.762 27.3076L132.694 27.9885C132.732 28.1287 132.797 28.2598 132.886 28.3739C132.975 28.488 133.087 28.5827 133.214 28.6521C133.34 28.7215 133.48 28.7643 133.624 28.7778C133.768 28.7913 133.913 28.7753 134.05 28.7306C134.33 28.6328 134.561 28.4296 134.693 28.164C134.826 27.8983 134.851 27.5912 134.762 27.3076Z" fill="#F28F8F"/>
</g>
</g>
<path d="M128.185 18.0345L129.989 16.7817C129.915 16.6592 129.816 16.5533 129.7 16.4705C129.583 16.3877 129.451 16.3299 129.311 16.3005C129.171 16.2712 129.027 16.2709 128.887 16.2998C128.747 16.3287 128.614 16.3861 128.497 16.4685C128.256 16.6404 128.09 16.8983 128.032 17.1894C127.974 17.4805 128.029 17.7828 128.185 18.0345Z" fill="#263238"/>
<path d="M136.241 17.6871L138.275 18.4769C138.334 18.3457 138.365 18.2037 138.367 18.0596C138.37 17.9156 138.342 17.7727 138.287 17.6399C138.231 17.507 138.149 17.387 138.046 17.2873C137.942 17.1877 137.819 17.1106 137.685 17.0607C137.41 16.962 137.108 16.9718 136.84 17.088C136.572 17.2043 136.357 17.4184 136.241 17.6871Z" fill="#263238"/>
<path d="M127.785 20.6348C127.783 20.811 127.832 20.9841 127.927 21.1324C128.022 21.2808 128.158 21.3979 128.318 21.4691C128.479 21.5404 128.657 21.5627 128.83 21.5333C129.003 21.5038 129.163 21.4239 129.292 21.3036C129.42 21.1832 129.51 21.0276 129.551 20.8562C129.592 20.6848 129.581 20.5051 129.521 20.3395C129.461 20.1739 129.354 20.0297 129.213 19.9248C129.072 19.8199 128.903 19.759 128.728 19.7497C128.608 19.7451 128.488 19.7645 128.376 19.8066C128.264 19.8487 128.161 19.9127 128.073 19.995C127.985 20.0773 127.915 20.1762 127.865 20.286C127.816 20.3959 127.789 20.5144 127.785 20.6348Z" fill="#263238"/>
<g style="mix-blend-mode:multiply" opacity="0.5">
<g style="mix-blend-mode:multiply" opacity="0.5">
<path d="M132.315 20.1177L132.172 25.5033L129.352 24.6318L132.315 20.1177Z" fill="#F28F8F"/>
</g>
</g>
<g style="mix-blend-mode:multiply" opacity="0.5">
<g style="mix-blend-mode:multiply" opacity="0.5">
<path d="M136.241 32.2852C138.519 31.9856 143.211 30.6307 143.936 28.772C143.643 29.7113 143.07 30.5381 142.295 31.1414C140.892 32.3465 136.241 33.7082 136.241 33.7082V32.2852Z" fill="#F28F8F"/>
</g>
</g>
<path d="M142.261 3.96763L142.607 0.018579C142.351 -0.0175224 142.089 -0.000896348 141.84 0.0674502C141.59 0.135797 141.356 0.254439 141.153 0.416171C140.95 0.577904 140.782 0.779355 140.659 1.0083C140.536 1.23724 140.461 1.4889 140.438 1.74799C140.388 2.28478 140.552 2.81932 140.894 3.23511C141.236 3.65089 141.727 3.91419 142.261 3.96763Z" fill="#263238"/>
<path d="M142.472 4.36956L145.658 2.02737C145.516 1.81207 145.332 1.62771 145.117 1.48526C144.903 1.34281 144.662 1.24517 144.409 1.19817C144.156 1.15116 143.896 1.15574 143.645 1.21164C143.393 1.26753 143.156 1.3736 142.946 1.52354C142.519 1.84676 142.232 2.32206 142.144 2.85153C142.056 3.381 142.173 3.92432 142.472 4.36956Z" fill="#263238"/>
<path d="M145.143 21.7654V25.5238C144.81 25.5247 144.48 25.4595 144.172 25.3318C143.864 25.2042 143.584 25.0166 143.348 24.78C143.112 24.5433 142.926 24.2623 142.798 23.9529C142.671 23.6436 142.606 23.312 142.607 22.9774V19.5254L145.143 21.7654Z" fill="#263238"/>
<path d="M135 4.05615C133.345 4.05526 131.706 4.38181 130.177 5.01716C128.647 5.65251 127.258 6.5842 126.087 7.75899C124.917 8.93379 123.988 10.3287 123.355 11.864C122.721 13.3992 122.395 15.0448 122.395 16.7067V18.3476H128.565C129.952 18.3471 131.292 17.8419 132.337 16.9256C133.381 16.0092 134.06 14.7438 134.247 13.3636L134.478 18.3476C135.618 18.3484 136.718 17.9194 137.559 17.1453C138.401 16.3713 138.922 15.3085 139.02 14.167L139.095 13.35C139.207 14.7083 139.822 15.9752 140.819 16.9004C141.815 17.8256 143.121 18.342 144.479 18.3476H145.021L145.652 9.40777L135 4.05615Z" fill="#263238"/>
<path d="M147.116 20.077H140.071C139.93 19.4109 139.566 18.8136 139.039 18.3849C138.512 17.9561 137.854 17.7218 137.176 17.7212H136.722C136.14 17.7272 135.573 17.9046 135.091 18.2314C134.609 18.5583 134.233 19.0201 134.01 19.5595C133.553 19.0954 132.937 18.8249 132.288 18.8038C131.74 18.759 131.196 18.9217 130.762 19.2599C130.509 18.7952 130.137 18.4071 129.683 18.1364C129.23 17.8657 128.713 17.7223 128.185 17.7212H127.731C126.947 17.7212 126.195 18.034 125.641 18.5907C125.086 19.1474 124.775 19.9024 124.775 20.6898C124.775 21.4771 125.086 22.2321 125.641 22.7889C126.195 23.3456 126.947 23.6583 127.731 23.6583H128.185C128.574 23.6583 128.958 23.5816 129.317 23.4324C129.675 23.2832 130.001 23.0645 130.276 22.7889C130.55 22.5132 130.768 22.186 130.917 21.8258C131.065 21.4656 131.142 21.0796 131.142 20.6898C131.138 20.3692 131.081 20.0515 130.972 19.7502C131.142 19.5874 131.346 19.4635 131.568 19.3871C131.79 19.3107 132.027 19.2836 132.26 19.3076C132.565 19.3095 132.865 19.3824 133.137 19.5206C133.409 19.6589 133.645 19.8587 133.827 20.1042C133.786 20.3013 133.765 20.5021 133.766 20.7034C133.767 21.4901 134.079 22.2442 134.633 22.8005C135.187 23.3568 135.938 23.6702 136.722 23.672H137.176C137.564 23.672 137.949 23.5952 138.307 23.446C138.666 23.2968 138.992 23.0781 139.267 22.8025C139.541 22.5268 139.759 22.1996 139.907 21.8394C140.056 21.4792 140.132 21.0932 140.132 20.7034C140.132 20.6625 140.132 20.6285 140.132 20.5944H146.126C146.425 20.3682 146.76 20.1934 147.116 20.077ZM128.165 23.1545H127.711C127.06 23.1545 126.435 22.8948 125.975 22.4326C125.515 21.9704 125.256 21.3434 125.256 20.6898C125.256 20.0361 125.515 19.4092 125.975 18.9469C126.435 18.4847 127.06 18.225 127.711 18.225H128.165C128.816 18.225 129.44 18.4847 129.901 18.9469C130.361 19.4092 130.62 20.0361 130.62 20.6898C130.62 21.3434 130.361 21.9704 129.901 22.4326C129.44 22.8948 128.816 23.1545 128.165 23.1545ZM137.176 23.1545H136.722C136.071 23.1545 135.447 22.8948 134.986 22.4326C134.526 21.9704 134.267 21.3434 134.267 20.6898C134.267 20.0361 134.526 19.4092 134.986 18.9469C135.447 18.4847 136.071 18.225 136.722 18.225H137.176C137.827 18.225 138.451 18.4847 138.912 18.9469C139.372 19.4092 139.631 20.0361 139.631 20.6898C139.631 21.3434 139.372 21.9704 138.912 22.4326C138.451 22.8948 137.827 23.1545 137.176 23.1545Z" fill="#455A64"/>
<path d="M163.097 70.0867C161.26 72.2382 144.567 87.7892 144.567 87.7892L145.143 78.4L154.866 66.6074L163.097 70.0867Z" fill="#FFA8A7"/>
<path d="M130.85 94.9724L136.505 90.9417C141.929 87.0948 148.35 81.0487 148.35 74.097C148.283 71.6577 147.363 69.3201 145.751 67.4938C144.139 65.6675 141.939 64.4691 139.536 64.1086C135.074 63.5095 131.399 67.9215 130.83 72.1701C130.274 67.7717 126.585 62.3724 122.124 61.7801C121.028 61.5913 119.905 61.6489 118.835 61.9487C117.764 62.2485 116.774 62.783 115.934 63.5138C115.094 64.2445 114.426 65.1532 113.978 66.1744C113.53 67.1956 113.313 68.3039 113.343 69.4194C113.343 76.3847 119.771 84.1398 125.155 89.4233L130.85 94.9724Z" fill="#6DD2AE"/>
<path d="M146.235 81.1372C143.963 82.4989 140.085 82.5466 137.474 82.6624C134.864 82.7781 131.637 86.7884 133.759 88.4089C135.39 89.4784 137.32 89.9947 139.265 89.882C141.211 89.7693 143.069 89.0334 144.567 87.7825L146.235 81.1372Z" fill="#FFA8A7"/>
<path d="M113.642 71.9658C113.018 72.4697 112.835 74.1106 113.214 75.8536C113.594 77.5966 115.065 80.3133 117.154 81.1371C118.11 81.5184 122.266 81.641 124.266 79.4826C126.382 77.1949 126.212 73.2799 123.168 73.9744C120.263 74.5225 117.298 74.6737 114.354 74.4238C114.058 73.6227 113.82 72.8013 113.642 71.9658Z" fill="#FFA8A7"/>
<path d="M216.739 177.03H210.053V186.801H216.739V177.03Z" fill="#FFA8A7"/>
<path d="M210.053 183.485V182.532C209.416 182.811 207.924 188.503 205.273 190.927C203.171 192.86 200.297 195.087 199.564 197.238C198.832 199.39 203.565 200.718 205.538 200.364C207.823 199.955 211.789 198.321 212.786 196.843C213.783 195.366 214.244 193.126 215.057 192.03C215.871 190.933 217.729 189.701 218.163 188.435C218.407 187.754 218.122 186.201 217.783 184.908C217.471 183.723 217.139 182.416 216.732 182.532V183.26C216.251 183.798 214.908 184.336 213.396 184.397C212.44 184.431 210.047 184.241 210.053 183.485Z" fill="#263238"/>
<path d="M187.265 179.325L180.586 179.557L181.156 169.67L187.834 169.446L187.265 179.325Z" fill="#FFA8A7"/>
<path d="M180.708 177.487C180.355 177.487 180.091 177.991 179.352 178.848C178.211 180.009 176.884 180.969 175.426 181.688C172.924 182.947 168.056 184.881 165.859 185.875C164.503 186.501 164.544 188.169 165.968 189.116C167.391 190.062 170.822 190.75 174.945 189.797C177.189 189.293 180.111 187.209 181.962 187.325C183.813 187.441 187.271 187.407 188.634 186.46C189.997 185.514 189.455 183.499 189.068 181.763C188.648 179.87 188.044 176.908 187.421 177.037L187.38 177.827C186.573 179.053 182.444 179.298 180.681 178.399L180.708 177.487Z" fill="#263238"/>
<path d="M188.322 51.8941C185.305 54.8014 167.527 64.1497 166.551 63.9795C165.086 63.7752 159.77 58.5326 155.227 53.6848C154.516 49.9945 153.471 45.3442 152.305 42.7433C151.706 41.2217 150.814 39.8336 149.681 38.6581L149.986 37.4053L167.195 53.7461C167.195 53.7461 186.078 39.4479 188.892 38.6308C191.706 37.8138 191.34 48.9868 188.322 51.8941Z" fill="#F28F8F"/>
<path d="M143.28 35.253C140.975 35.8317 139.212 37.3977 139.599 39.9033C139.85 41.551 142.562 42.7561 144.019 41.5033C145.192 40.4888 148.705 38.0581 150.312 39.3041C150.675 40.044 150.801 40.8792 150.671 41.694C150.563 43.0012 151.227 43.934 151.62 43.8728C152.014 43.8115 152.624 41.728 152.685 40.911C152.773 39.6446 152.054 35.927 146.42 35.1781C145.378 35.0079 144.313 35.0333 143.28 35.253Z" fill="#FFA8A7"/>
<path d="M230.123 76.9498C229.974 74.9072 226.536 65.661 224.828 61.8413L216.169 65.9265L219.485 73.5522L228.455 80.5107C230.781 80.143 230.191 77.8077 230.123 76.9498Z" fill="#FFA8A7"/>
<path d="M213.172 82.4922C213.172 88.8991 214 130.35 214 130.35C214.156 132.189 216.495 138.255 216.712 146.827C216.983 156.455 217.268 178.147 217.268 178.147C217.268 178.147 214.135 181.266 209.714 178.147C209.714 178.147 202.426 146.46 200.181 134.422C199.137 126.102 196.527 102.237 196.527 102.237L191.102 129.404C191.579 132.597 191.806 135.823 191.78 139.052C191.78 143.477 187.936 172.183 187.936 172.183C187.936 172.183 184.159 174.484 180.539 172.305C180.539 172.305 178.362 133.448 178.301 129.411C178.226 124.468 181.874 82.4854 181.874 82.4854L213.172 82.4922Z" fill="#37474F"/>
<path d="M196.547 102.25L195.767 96.4494C195.767 96.4494 190.729 94.1277 188.987 92.48C188.987 92.48 192.153 96.6809 194.147 97.852L191.706 126.591L196.547 102.25Z" fill="#263238"/>
<path d="M191.421 37.7798C187.943 37.7798 183.285 40.8573 179.352 43.9076C175.419 46.9579 172.151 49.4703 172.151 49.4703C172.829 53.1606 175.168 56.5377 177.691 59.302L188.885 53.2083C188.885 53.2083 193.767 43.2267 191.421 37.7798Z" fill="#E6E6E6"/>
<path d="M203.11 38.1127C209.104 39.5629 216.705 41.9936 219.383 47.5359C222.061 53.0781 226.164 62.0656 226.164 62.0656C223.376 64.8003 219.973 66.8205 216.244 67.9551L213.199 62.6307V82.4916C208.514 87.6049 192.18 89.9812 181.949 82.4916V49.81C181.949 44.5809 184.837 38.3033 192.797 37.8335L203.11 38.1127Z" fill="#F5F5F5"/>
<path d="M213.172 62.6313C213.172 62.6313 210.169 57.4022 209.518 56.1426L213.172 68.7727V62.6313Z" fill="#E6E6E6"/>
<path d="M205.361 11.3616C205.9 11.2984 206.445 11.3594 206.956 11.5399C207.467 11.7204 207.931 12.0157 208.311 12.4033C209.572 13.7038 209.314 16.1073 208.311 21.6359L204.405 22.0853L205.361 11.3616Z" fill="#263238"/>
<path d="M182.559 9.7622C181.718 9.76952 180.884 9.60023 180.111 9.26518C178.911 8.58431 178.599 9.94604 179.257 11.1376C179.693 11.9889 180.339 12.7142 181.133 13.2445C181.927 13.7748 182.843 14.0925 183.793 14.1674C183.827 13.9972 184.919 11.1035 184.919 11.1035L182.559 9.7622Z" fill="#263238"/>
<path d="M203.531 22.1193C204.107 22.4665 204.934 21.3431 205.653 20.5941C206.372 19.8452 208.704 18.8103 209.87 21.275C211.037 23.7398 208.365 27.1305 206.778 28.2335C204.9 29.5476 203.531 28.5194 203.531 28.5194L203.11 38.1333C203.11 38.1333 201.036 43.233 195.415 44.0024C189.794 44.7718 190.946 40.0874 192.777 37.7793V34.2864C192.777 34.2864 189.875 34.8583 188.499 34.5043C187.505 34.1869 186.606 33.6281 185.879 32.8773C185.153 32.1266 184.623 31.2073 184.335 30.2012C182.788 25.079 182.465 19.6625 183.393 14.3914C184.817 5.66953 194.615 5.54017 200.107 8.99217C205.599 12.4442 203.531 22.1193 203.531 22.1193Z" fill="#FFA8A7"/>
<path d="M203.531 23.0727C203.822 23.0727 204.927 21.2275 205.653 20.5671C206.656 19.6479 205.361 11.3617 205.361 11.3617C205.361 11.3617 206.378 8.22295 204.399 6.13949C202.419 4.05603 198.581 4.40328 195.774 4.30115C192.329 4.31722 188.918 3.62196 185.753 2.25854C181.766 0.51552 181.467 0.31126 181.006 2.0679C180.545 3.82454 180.328 7.84847 182.701 10.5447L184.675 11.2732C184.675 11.2732 185.746 12.2265 189.461 12.6826C193.177 13.1388 198.954 12.5941 199.754 12.4852C200.832 12.3354 201.063 13.3839 201.639 16.2504C202.12 18.79 202.548 23.0522 203.531 23.0727Z" fill="#263238"/>
<path d="M205.355 12.0083L208.867 10.1154C208.754 9.8782 208.595 9.66623 208.399 9.4923C208.203 9.31837 207.974 9.18607 207.726 9.10338C207.478 9.02069 207.215 8.9893 206.955 9.01112C206.694 9.03294 206.44 9.1075 206.209 9.23032C205.739 9.49517 205.389 9.93107 205.23 10.448C205.071 10.965 205.115 11.5235 205.355 12.0083Z" fill="#263238"/>
<path d="M192.777 34.3138C192.777 34.3138 197.984 33.2585 199.801 32.2712C200.873 31.7139 201.75 30.8424 202.317 29.7725C202.044 30.8411 201.56 31.8437 200.893 32.7206C199.537 34.4296 192.757 35.6892 192.757 35.6892L192.777 34.3138Z" fill="#F28F8F"/>
<path d="M194.059 20.7578C194.056 20.8973 194.081 21.0359 194.131 21.1658C194.182 21.2957 194.258 21.4143 194.354 21.5149C194.45 21.6154 194.565 21.6959 194.693 21.7517C194.82 21.8076 194.957 21.8377 195.096 21.8404C195.313 21.8499 195.527 21.794 195.712 21.6799C195.896 21.5658 196.043 21.3988 196.132 21.2004C196.221 21.0019 196.249 20.7812 196.212 20.5666C196.175 20.3521 196.075 20.1535 195.925 19.9966C195.775 19.8397 195.581 19.7317 195.369 19.6864C195.157 19.6411 194.936 19.6607 194.735 19.7426C194.534 19.8246 194.362 19.9651 194.242 20.146C194.121 20.3269 194.057 20.54 194.059 20.7578Z" fill="#263238"/>
<path d="M195.354 16.4476L197.584 17.68C197.739 17.3716 197.771 17.0158 197.674 16.6847C197.577 16.3535 197.358 16.0717 197.062 15.8961C196.915 15.8157 196.753 15.7662 196.586 15.7505C196.419 15.7348 196.25 15.7533 196.09 15.8049C195.931 15.8564 195.783 15.94 195.656 16.0505C195.53 16.1609 195.427 16.296 195.354 16.4476Z" fill="#263238"/>
<path d="M194.133 27.8867L191.753 28.7855C191.805 28.9455 191.888 29.0933 191.998 29.2203C192.108 29.3473 192.243 29.4507 192.393 29.5244C192.544 29.5981 192.708 29.6406 192.875 29.6493C193.042 29.6581 193.21 29.6329 193.367 29.5753C193.684 29.4432 193.939 29.1956 194.081 28.8823C194.223 28.569 194.242 28.2133 194.133 27.8867Z" fill="#F28F8F"/>
<path d="M184.39 17.7686L186.424 16.189C186.328 16.0516 186.205 15.9352 186.063 15.8467C185.921 15.7582 185.762 15.6995 185.597 15.674C185.432 15.6486 185.263 15.657 185.101 15.6987C184.939 15.7404 184.787 15.8145 184.654 15.9166C184.383 16.133 184.204 16.4454 184.155 16.7898C184.106 17.1342 184.19 17.4844 184.39 17.7686Z" fill="#263238"/>
<path d="M185.38 20.4854C185.389 20.6905 185.458 20.8883 185.578 21.0543C185.698 21.2204 185.865 21.3473 186.056 21.4194C186.247 21.4915 186.456 21.5056 186.655 21.4599C186.854 21.4143 187.036 21.3108 187.177 21.1625C187.319 21.0141 187.414 20.8273 187.45 20.6254C187.487 20.4234 187.463 20.215 187.383 20.0262C187.303 19.8374 187.169 19.6763 186.999 19.5631C186.828 19.4499 186.628 19.3894 186.424 19.3892C186.141 19.3981 185.874 19.5179 185.679 19.7229C185.483 19.9279 185.376 20.2017 185.38 20.4854Z" fill="#263238"/>
<path d="M190.695 19.4917L190.35 25.7897L187.075 24.6731L190.695 19.4917Z" fill="#F28F8F"/>
<path d="M178.857 87.5171L183.339 85.1205C187.617 82.8328 192.723 78.9518 192.723 73.4436C192.723 69.5831 189.611 65.4911 185.766 64.2995C182.234 63.2033 179.318 66.1787 178.871 69.4673C178.43 65.8996 175.514 61.1131 171.975 60.0169C168.137 58.8186 165.025 60.9837 165.025 64.8374C165.025 70.3525 170.11 77.3994 174.382 82.3357L178.857 87.5171Z" fill="#6DD2AE"/>
<path d="M228.455 80.4969L219.485 73.5384C219.485 73.5384 201.402 76.4934 199.279 76.6568C197.157 76.8202 195.286 75.2134 194.479 73.1231C193.672 71.0328 192.404 71.2575 192.404 71.2575C192.743 72.4272 192.812 73.6588 192.608 74.8593C191.875 75.6491 187.692 76.4389 184.871 75.4789C182.051 74.5189 177.962 75.9147 180.491 79.7684C183.02 83.6221 187.949 84.0783 191.34 84.0783C192.768 84.0694 194.194 83.9739 195.611 83.7923C196.716 83.6493 197.822 83.5336 198.934 83.4587C205.958 82.9548 225.275 81.5046 228.455 80.4969Z" fill="#FFA8A7"/>
<path d="M68.1134 37.6579C74.2835 36.5277 74.5547 37.3787 93.9737 48.2862C93.9737 48.2862 116.844 38.972 119.556 37.3923C122.268 35.8127 126.153 34.771 129.048 36.5481C128.346 36.5677 127.65 36.6869 126.98 36.9021C126.648 37.0655 125.536 37.6375 125.679 38.1481C125.733 38.366 125.997 38.4341 126.221 38.4477C126.694 38.483 127.17 38.4601 127.638 38.3796C128.181 38.2843 128.825 38.1481 129.198 38.5498C129.331 38.7315 129.398 38.9536 129.389 39.179C129.379 39.4045 129.292 39.6198 129.143 39.789C128.841 40.1232 128.465 40.382 128.045 40.5448L126.011 41.4912C125.516 41.6993 125.045 41.9619 124.607 42.2742C124.207 42.5738 123.868 42.955 123.455 43.2478C122.166 44.1397 120.654 43.6768 119.305 44.2555C119.075 44.3508 118.844 44.4734 118.627 44.5755C117.63 45.0521 116.681 45.6104 115.732 46.1755C112.965 47.8232 110.26 49.5799 107.548 51.3093C104.836 53.0387 102.266 54.7136 99.5403 56.2592C98.5491 56.9097 97.4749 57.4228 96.3468 57.7843C92.9566 58.6082 73.4766 50.1041 73.4766 50.1041L68.1134 37.6579Z" fill="#9E6767"/>
<path d="M60.4787 4.4585H65.1029C68.5088 4.4585 71.7752 5.81714 74.1836 8.23554C76.5919 10.6539 77.9449 13.934 77.9449 17.3541V19.5057C77.9458 21.1899 77.6162 22.8578 76.975 24.4141C76.3338 25.9703 75.3935 27.3845 74.2078 28.5757C73.0222 29.767 71.6144 30.7119 70.065 31.3567C68.5155 32.0014 66.8547 32.3332 65.1775 32.3332H60.4313C57.0451 32.3332 53.7977 30.9825 51.4033 28.5781C49.009 26.1738 47.6638 22.9128 47.6638 19.5125V17.3541C47.6638 13.9387 49.0131 10.6628 51.4156 8.24516C53.8181 5.82754 57.0775 4.46571 60.4787 4.4585Z" fill="#6DD2AE"/>
<path d="M53.7322 184.548V183.568C54.1187 184.719 55.902 189.655 58.6005 192.133C60.7499 194.101 63.6858 196.375 64.4317 198.567C65.1775 200.76 60.3634 201.618 58.3293 201.291C55.9969 200.875 52.9796 199.541 51.332 197.519C50.1793 196.089 49.4471 194.4 48.6199 193.284C47.7926 192.167 45.9077 190.908 45.4466 189.614C45.2026 188.933 45.4941 187.34 45.8399 186.019C46.1518 184.814 46.5179 183.479 46.9044 183.595V184.337C47.3994 184.889 48.769 185.44 50.2946 185.495C51.3252 185.529 53.739 185.311 53.7322 184.548Z" fill="#263238"/>
<path d="M60.5601 193.863C59.8821 193.263 59.204 192.685 58.6142 192.126C56.7292 190.397 55.2918 187.462 54.4646 185.461C53.9901 184.32 53.7458 183.095 53.7458 181.859V177.958H46.918V184.31V184.473H46.9519C47.2842 185.896 50.4099 189.675 52.1864 192.14C53.3729 193.794 55.6376 195.898 58.3429 196.259C60.9059 196.627 62.2145 195.817 60.5601 193.863Z" fill="#9E6767"/>
<path d="M80.3113 177.801V176.82C80.691 177.971 82.4742 182.948 85.1795 185.386C87.3289 187.353 90.258 189.627 91.0039 191.827C91.7497 194.026 86.9356 194.87 84.9015 194.516C82.5623 194.101 79.5451 192.773 77.9042 190.744C76.7516 189.321 76.0125 187.632 75.1921 186.509C74.3717 185.386 72.4799 184.14 72.0257 182.839C71.7748 182.158 72.0663 180.565 72.4121 179.251C72.7308 178.039 73.0902 176.711 73.4834 176.82V177.569C73.9784 178.121 75.348 178.665 76.8736 178.727C77.8974 178.761 80.318 178.563 80.3113 177.801Z" fill="#263238"/>
<path d="M87.1255 187.121C86.4475 186.522 85.7695 185.937 85.1796 185.378C83.2878 183.649 81.8504 180.714 81.0232 178.713C80.554 177.57 80.3121 176.347 80.3113 175.111V171.23H73.5309V177.576V177.746C73.8564 179.169 76.9821 182.955 78.7586 185.419C79.9519 187.074 82.2165 189.178 84.9219 189.539C87.4781 189.879 88.7935 189.069 87.1255 187.121Z" fill="#9E6767"/>
<path d="M48.2741 78.217C42.9922 89.7918 48.464 130.61 48.464 130.61C48.308 132.489 46.1654 136.193 45.3721 144.465C44.4297 154.243 46.8502 178.788 46.8502 178.788C47.8884 179.393 49.0581 179.734 50.2576 179.782C51.4571 179.829 52.65 179.582 53.7323 179.06C53.7323 179.06 60.2279 142.089 61.4484 132.373C62.5129 123.89 64.5605 105.234 64.5605 105.234L70.3713 132.326C69.5222 135.059 68.9074 137.861 68.5338 140.7C67.9778 146.413 73.4971 173.035 73.4971 173.035C73.4971 173.035 75.8498 173.906 80.2774 173.246C80.2774 173.246 82.2302 137.915 82.7387 131.032C83.6066 119.457 80.5486 83.3712 78.4332 76.5625L48.2741 78.217Z" fill="#37474F"/>
<path d="M64.5605 105.234L66.276 94.4762C66.276 94.4762 73.531 92.9646 76.8194 89.8599C76.8194 89.8599 73.3682 94.1698 68.2423 95.586L66.3167 103.865L69.7068 128.955L64.5605 105.234Z" fill="#263238"/>
<path d="M57.5903 37.9709C50.8099 38.4339 50.3489 41.7225 48.6538 45.3107C47.4094 48.0767 47.2925 51.222 48.3283 54.0735L53.0746 67.7862C53.0746 67.7862 50.871 73.1514 48.3283 78.2171C60.1736 84.8555 74.9616 81.3627 78.5213 76.5217C78.6704 75.4936 77.7551 67.4593 77.1652 62.2235C79.2535 56.9672 79.8027 53.6377 78.9213 50.1653C77.2872 43.7175 70.9476 37.4399 68.1405 37.6645L57.5903 37.9709Z" fill="#F5F5F5"/>
<path d="M53.5153 77.1546C53.5153 77.1546 54.9121 71.5783 55.4138 70.3459C55.5764 69.8484 55.9007 69.4201 56.3348 69.13C56.7689 68.8398 57.2875 68.7045 57.8073 68.7459C57.0484 68.2403 56.3965 67.589 55.8892 66.8294C55.3818 66.0699 55.029 65.2172 54.8511 64.3202L53.4136 57.069C53.4136 57.069 56.0851 48.5513 55.8139 45.6372L49.0335 46.0321L48.1588 46.6449C47.4379 49.0696 47.5044 51.6618 48.3487 54.0459L53.0949 67.7586C53.0949 67.7586 50.8913 73.1239 48.3487 78.1895C57.075 83.0782 67.4015 82.4722 73.653 79.8713L53.5153 77.1546Z" fill="#E6E6E6"/>
<path d="M39.663 73.1851C39.7037 72.6472 42.0429 58.206 43.9007 48.4832C45.1483 41.9197 47.752 39.5162 52.8508 38.7264L54.6612 38.4404C57.0817 46.427 55.4138 50.0152 52.2202 55.5098L49.2098 70.094L41.9209 77.495C39.4121 76.9912 39.6088 73.9409 39.663 73.1851Z" fill="#9E6767"/>
<path d="M72.9682 10.6138C74.5684 11.567 76.5482 15.6045 76.3584 24.0813C76.1889 31.2645 73.87 33.0416 72.7105 33.5522C71.5511 34.0629 69.3204 33.7497 67.1167 33.3888V37.6987C67.1167 37.6987 70.134 41.2188 69.9441 43.1933C69.7543 45.1678 65.5844 45.6376 62.7638 43.704C60.9337 42.3826 59.3635 40.732 58.1328 38.8358V28.4185C58.1328 28.4185 56.6547 30.393 54.2476 28.7861C51.8406 27.1793 51.7457 23.1962 53.1424 21.7664C54.5392 20.3366 57.57 20.7927 58.1328 22.7673C58.1328 22.7673 61.6111 22.8966 66.2692 20.3366C68.067 19.3571 69.6101 17.9667 70.7738 16.2777C71.9375 14.5887 72.6892 12.6484 72.9682 10.6138Z" fill="#9E6767"/>
<path d="M68.3643 22.2768C68.3667 22.4544 68.317 22.6288 68.2215 22.7783C68.126 22.9277 67.9888 23.0457 67.8271 23.1175C67.6653 23.1892 67.4861 23.2117 67.3117 23.182C67.1374 23.1523 66.9755 23.0718 66.8464 22.9504C66.7173 22.8291 66.6265 22.6723 66.5854 22.4996C66.5443 22.3268 66.5548 22.1458 66.6153 21.9789C66.6759 21.8121 66.7841 21.6668 66.9262 21.5612C67.0684 21.4556 67.2384 21.3943 67.415 21.3849C67.5358 21.3804 67.6563 21.3999 67.7695 21.4424C67.8827 21.4848 67.9864 21.5494 68.0747 21.6323C68.1629 21.7152 68.234 21.8149 68.2837 21.9255C68.3334 22.0361 68.3608 22.1555 68.3643 22.2768Z" fill="#263238"/>
<path d="M68.6016 28.3711L70.69 29.0519C70.6527 29.1922 70.5875 29.3235 70.4983 29.4378C70.4092 29.5522 70.2979 29.6472 70.1712 29.7172C70.0445 29.7871 69.9049 29.8306 69.7611 29.845C69.6172 29.8594 69.4719 29.8444 69.3339 29.8009C69.0501 29.7057 68.8146 29.5029 68.6778 29.2357C68.541 28.9686 68.5136 28.6582 68.6016 28.3711Z" fill="#874C4C"/>
<path d="M75.7413 19.5054L73.9174 18.239C73.9936 18.1159 74.094 18.0095 74.2125 17.9266C74.331 17.8436 74.465 17.7857 74.6064 17.7564C74.7479 17.7271 74.8938 17.727 75.0353 17.7562C75.1767 17.7853 75.3108 17.843 75.4294 17.9258C75.6727 18.0991 75.8406 18.3594 75.8986 18.6533C75.9566 18.9471 75.9003 19.252 75.7413 19.5054Z" fill="#263238"/>
<path d="M75.3209 21.6235C75.3233 21.8011 75.2737 21.9755 75.1782 22.125C75.0827 22.2744 74.9455 22.3924 74.7837 22.4642C74.622 22.536 74.4428 22.5584 74.2684 22.5287C74.094 22.499 73.9322 22.4185 73.8031 22.2971C73.6739 22.1758 73.5832 22.019 73.5421 21.8463C73.501 21.6735 73.5114 21.4925 73.572 21.3256C73.6326 21.1588 73.7407 21.0135 73.8829 20.9079C74.0251 20.8023 74.1951 20.741 74.3717 20.7316C74.4925 20.7271 74.6129 20.7466 74.7262 20.789C74.8394 20.8315 74.9431 20.896 75.0314 20.979C75.1196 21.0619 75.1907 21.1615 75.2403 21.2722C75.29 21.3828 75.3174 21.5022 75.3209 21.6235Z" fill="#263238"/>
<path d="M71.0764 21.106L71.2188 26.5461L74.0666 25.661L71.0764 21.106Z" fill="#874C4C"/>
<path d="M67.1099 33.3891C64.8114 33.0828 60.0719 31.721 59.3396 29.8418C59.6343 30.7917 60.2116 31.6281 60.994 32.2385C62.4111 33.4572 67.0964 34.8258 67.0964 34.8258L67.1099 33.3891Z" fill="#874C4C"/>
<path d="M89.3631 85.8909L85.0508 83.5828C80.9351 81.3836 76.0262 77.6456 76.0262 72.3484C76.0262 68.6377 79.0163 64.6955 82.7116 63.5516C86.1018 62.4963 88.9224 65.3559 89.3496 68.522C89.7767 65.1176 92.5838 60.4809 95.9807 59.4256C99.676 58.2817 102.673 60.3584 102.673 64.0691C102.673 69.373 97.7775 76.1477 93.6686 80.9001L89.3631 85.8909Z" fill="#6DD2AE"/>
<path d="M41.9209 77.4889L49.2098 70.0879C49.2098 70.0879 67.6049 74.1731 69.6797 74.3706C71.7545 74.568 73.4021 72.6548 74.8599 71.0071C75.0368 70.7932 75.2587 70.6212 75.5095 70.5035C75.7604 70.3858 76.034 70.3253 76.3109 70.3262C76.1057 70.9862 76.0433 71.6826 76.1278 72.3688C76.4397 73.2403 81.0165 74.1731 83.7828 73.2335C86.5492 72.2939 90.5632 73.6556 88.0613 77.4345C85.5593 81.2133 80.7724 81.6422 77.4229 81.649C76.0241 81.6393 74.6271 81.5461 73.2394 81.3699C72.1613 81.2269 71.0832 81.1179 69.9916 81.0362C63.1502 80.5256 45.0331 78.4694 41.9209 77.4889Z" fill="#9E6767"/>
<path d="M49.5217 6.0862C52.4779 7.33219 51.8134 9.87865 50.5794 12.8404C49.3454 15.8022 48.0029 18.0763 45.0466 16.8303C43.6278 16.2344 42.5028 15.0969 41.9192 13.6681C41.3355 12.2393 41.341 10.6362 41.9345 9.2114C42.5279 7.78664 43.6606 6.65696 45.0835 6.07087C46.5064 5.48478 48.1028 5.4903 49.5217 6.0862Z" fill="#6DD2AE"/>
<path d="M52.1254 8.7413L53.1628 3.78459C52.8424 3.6999 52.5082 3.6814 52.1805 3.73021C51.8528 3.77902 51.5384 3.89412 51.2563 4.06855C50.9742 4.24297 50.7303 4.47309 50.5393 4.74495C50.3484 5.01682 50.2144 5.32477 50.1455 5.65017C50.0166 6.32219 50.1503 7.01825 50.519 7.59386C50.8877 8.16946 51.4629 8.58038 52.1254 8.7413Z" fill="#6DD2AE"/>
</g>
<defs>
<filter id="filter0_d" x="0" y="0" width="263" height="254.874" filterUnits="userSpaceOnUse" color-interpolation-filters="sRGB">
<feFlood flood-opacity="0" result="BackgroundImageFix"/>
<feColorMatrix in="SourceAlpha" type="matrix" values="0 0 0 0 0 0 0 0 0 0 0 0 0 0 0 0 0 0 127 0"/>
<feOffset dy="4"/>
<feGaussianBlur stdDeviation="2"/>
<feColorMatrix type="matrix" values="0 0 0 0 0 0 0 0 0 0 0 0 0 0 0 0 0 0 0.25 0"/>
<feBlend mode="normal" in2="BackgroundImageFix" result="effect1_dropShadow"/>
<feBlend mode="normal" in="SourceGraphic" in2="effect1_dropShadow" result="shape"/>
</filter>
</defs>
</svg>
