<svg width="238" height="206" viewBox="0 0 238 206" fill="none" xmlns="http://www.w3.org/2000/svg">
<g filter="url(#filter0_d)">
<path d="M36.9207 154.437C38.5236 153.993 41.3661 151.823 41.3661 151.819C41.3661 151.814 39.0793 150.713 38.9244 150.66C37.1238 150.03 33.1967 149.693 31.7701 151.073C31.5444 151.308 31.3804 151.579 31.2883 151.87C31.1963 152.16 31.1784 152.464 31.2358 152.76C31.2931 153.057 31.4245 153.341 31.6214 153.593C31.8183 153.845 32.0764 154.06 32.3792 154.224C33.6401 154.97 35.5316 154.81 36.9207 154.437Z" fill="#9C9C9C"/>
<path d="M66.5264 133.514C66.5638 133.514 65.351 131.548 65.2548 131.428C64.1862 130.097 61.1193 127.997 59.0141 128.495C58.6671 128.585 58.3468 128.736 58.0742 128.936C57.8015 129.136 57.5825 129.381 57.4314 129.656C57.2802 129.931 57.2004 130.229 57.1969 130.532C57.1934 130.834 57.2665 131.133 57.4112 131.411C57.9829 132.6 59.666 133.337 61.0766 133.661C62.7329 134.043 66.5211 133.519 66.5264 133.514Z" fill="#9C9C9C"/>
<path d="M45.3039 160.612C46.6824 159.862 48.5845 157.354 48.7341 157.154C50.4587 158.061 52.2544 158.871 54.1092 159.578C55.1778 159.995 56.2891 160.39 57.4005 160.772C56.8662 160.656 56.38 160.563 56.3319 160.554C54.3924 160.341 50.4973 160.878 49.5623 162.521C49.4157 162.798 49.3413 163.098 49.3439 163.401C49.3465 163.704 49.426 164.003 49.5773 164.279C49.7286 164.554 49.9483 164.8 50.2219 165.001C50.4955 165.201 50.817 165.351 51.1652 165.441C52.6185 165.885 54.371 165.304 55.6159 164.638C56.8608 163.972 58.5279 161.846 58.9606 161.282L60.243 161.726C62.3 162.405 64.3517 163.058 66.3447 163.786C67.0446 164.034 67.7232 164.305 68.4071 164.567C67.9262 164.469 67.5255 164.389 67.4614 164.385C65.5219 164.172 61.6322 164.709 60.6918 166.351C60.5453 166.628 60.4709 166.928 60.4735 167.231C60.4761 167.533 60.5557 167.832 60.7071 168.107C60.8584 168.383 61.0781 168.628 61.3517 168.828C61.6253 169.028 61.9466 169.178 62.2947 169.267C63.7533 169.711 65.5272 169.13 66.7454 168.464C67.9636 167.798 69.4917 165.881 70.0153 165.215C70.6992 165.503 71.3885 165.792 72.0403 166.102C72.4785 166.32 72.9219 166.502 73.3494 166.742L74.621 167.421C75.4064 167.865 76.2239 168.344 76.9826 168.806C77.5169 169.125 78.0085 169.436 78.5107 169.746C77.8161 169.493 76.443 169.014 76.3201 168.987C74.4447 168.544 70.4962 168.575 69.2727 170.079C69.0766 170.334 68.9475 170.62 68.8937 170.919C68.8399 171.218 68.8626 171.523 68.9605 171.814C69.0583 172.105 69.229 172.376 69.4614 172.609C69.6938 172.841 69.9827 173.031 70.3092 173.164C71.6663 173.772 73.515 173.435 74.8561 172.929C76.3147 172.374 78.5962 170.23 78.8527 169.96C79.6808 170.479 80.4823 170.989 81.225 171.482C83.3942 172.907 85.2001 174.189 86.568 175.192L87.6366 174.385C86.2046 173.382 84.2918 172.077 81.989 170.63C81.1502 170.102 80.2418 169.547 79.3175 168.987C79.8107 168.167 80.2459 167.324 80.6212 166.462C82.2615 166.6 85.3498 165.894 85.7505 165.801C86.0978 166.613 86.4237 167.407 86.7176 168.157C87.5618 170.301 88.2083 172.152 88.6838 173.621L89.8806 172.734C89.3837 171.362 88.7426 169.689 87.9465 167.802C87.5992 166.977 87.2091 166.102 86.7924 165.206C87.161 165.033 90.1317 163.595 91.0668 162.512C91.9163 161.526 92.6697 160.075 92.2102 158.846C92.1132 158.555 91.9438 158.284 91.7131 158.051C91.4823 157.818 91.1953 157.628 90.8705 157.493C90.5457 157.358 90.1904 157.281 89.8275 157.267C89.4647 157.253 89.1023 157.302 88.7639 157.412C86.7496 158.127 85.9482 161.336 86.1245 162.951C86.1245 163.049 86.3916 164.074 86.5626 164.727C86.3916 164.358 86.2314 164.003 86.0283 163.63C85.6757 162.885 85.2963 162.152 84.8956 161.362C84.6819 160.985 84.4735 160.608 84.2544 160.226C84.0354 159.844 83.7789 159.458 83.5385 159.067C82.9668 158.18 82.331 157.292 81.6631 156.404C82.4485 156.147 85.2108 155.197 86.2367 154.327C87.2626 153.457 88.267 152.108 88.0319 150.852C87.9907 150.552 87.8737 150.263 87.6888 150.003C87.5039 149.743 87.2551 149.518 86.9586 149.344C86.6622 149.169 86.3248 149.048 85.9684 148.989C85.612 148.93 85.2446 148.934 84.8903 149.001C82.7531 149.445 81.3906 152.525 81.273 154.145C81.273 154.243 81.3372 155.415 81.3906 156.058C80.9845 155.534 80.5838 155.011 80.1564 154.491C78.9168 152.996 77.6024 151.513 76.3041 150.031C75.9033 149.587 75.5133 149.121 75.1232 148.664C75.4011 148.575 78.7137 147.505 79.8625 146.533C80.883 145.646 81.8928 144.314 81.6631 143.053C81.6211 142.753 81.5035 142.464 81.318 142.204C81.1325 141.944 80.8832 141.72 80.5864 141.545C80.2896 141.37 79.9518 141.25 79.5951 141.191C79.2384 141.132 78.8708 141.136 78.5161 141.203C76.3789 141.646 75.0164 144.727 74.8988 146.347C74.8988 146.471 74.995 148.153 75.0484 148.566C74.1829 147.558 73.3333 146.551 72.5426 145.53C71.4645 144.157 70.4971 142.726 69.6467 141.247C69.7749 141.207 73.2372 140.102 74.4126 139.103C75.4331 138.215 76.443 136.884 76.2132 135.628C76.1719 135.328 76.055 135.039 75.8701 134.779C75.6851 134.519 75.4363 134.294 75.1399 134.12C74.8435 133.945 74.5061 133.824 74.1497 133.765C73.7933 133.706 73.4259 133.71 73.0715 133.777C70.9343 134.221 69.5719 137.301 69.4543 138.921C69.4543 139.028 69.5238 140.31 69.5772 140.919L69.4597 140.945C68.6468 139.439 67.9994 137.875 67.5255 136.271C67.253 135.384 67.05 134.536 66.8736 133.706C67.5415 133.555 70.6137 132.84 71.7785 132.037C72.9433 131.234 74.0867 130.026 74.0279 128.744C74.0249 128.442 73.9457 128.144 73.7952 127.869C73.6447 127.594 73.4264 127.348 73.1545 127.148C72.8825 126.947 72.5629 126.797 72.2163 126.705C71.8698 126.614 71.504 126.584 71.1427 126.618C68.9788 126.871 67.1996 129.8 66.8683 131.402C66.8683 131.487 66.7828 132.388 66.7454 133.045C66.676 132.667 66.5905 132.281 66.5317 131.917C66.3019 130.555 66.1897 129.299 66.0989 128.185C66.0562 127.55 66.0348 126.973 66.0188 126.436C66.5798 125.992 68.8345 124.217 69.4223 123.094C70.01 121.971 70.3573 120.43 69.5932 119.312C69.424 119.044 69.1888 118.809 68.903 118.622C68.6172 118.435 68.2871 118.3 67.9342 118.226C67.5814 118.152 67.2137 118.14 66.8551 118.192C66.4966 118.244 66.1552 118.358 65.8531 118.526C64.0686 119.583 64.1166 122.863 64.7097 124.412C64.7631 124.545 65.8478 126.56 65.8798 126.538L65.9119 126.511C65.9119 127.026 65.9119 127.581 65.9546 128.189C66.0134 129.307 66.0882 130.572 66.2859 131.944C66.4787 133.422 66.7748 134.889 67.1728 136.338C67.609 137.965 68.2205 139.556 69.0002 141.092L69.0322 141.145C68.6155 140.741 67.4026 139.645 67.2957 139.569C65.8211 138.504 62.2145 137.168 60.3498 138.109C60.0437 138.272 59.7823 138.487 59.5829 138.739C59.3835 138.992 59.2504 139.277 59.1924 139.575C59.1345 139.873 59.1528 140.178 59.2464 140.47C59.34 140.762 59.5066 141.034 59.7354 141.269C60.6651 142.294 62.5191 142.636 63.9831 142.641C65.6287 142.641 68.8773 141.42 69.1391 141.309C69.9759 142.856 70.9362 144.356 72.0136 145.796C72.6334 146.635 73.2906 147.47 73.9638 148.295C73.5898 147.958 73.2532 147.656 73.1998 147.616C71.7251 146.555 68.1186 145.215 66.2538 146.156C65.9477 146.319 65.6864 146.534 65.4869 146.786C65.2875 147.039 65.1545 147.324 65.0965 147.622C65.0385 147.92 65.0569 148.225 65.1504 148.517C65.244 148.809 65.4106 149.081 65.6394 149.316C66.5637 150.346 68.4231 150.683 69.8871 150.688C71.3511 150.692 74.1615 149.693 74.8988 149.423C75.1606 149.738 75.4331 150.057 75.6843 150.372C76.9452 151.877 78.2115 153.382 79.4244 154.882C79.8465 155.415 80.2365 155.947 80.6265 156.48C80.2953 156.178 80.0121 155.929 79.964 155.894C78.4893 154.829 74.8828 153.493 73.0181 154.434C72.7123 154.597 72.4515 154.812 72.2526 155.065C72.0537 155.318 71.9211 155.603 71.8637 155.901C71.8062 156.199 71.825 156.504 71.919 156.796C72.013 157.087 72.1799 157.359 72.409 157.594C73.3333 158.619 75.1927 158.961 76.6513 158.965C78.11 158.97 80.6586 158.078 81.5349 157.749C81.9195 158.304 82.3042 158.859 82.6409 159.414C82.8653 159.795 83.111 160.15 83.3034 160.545C83.4957 160.941 83.7148 161.318 83.9125 161.695C84.2705 162.441 84.6391 163.204 84.9811 163.936C85.2108 164.442 85.4192 164.931 85.6276 165.419C85.2215 164.886 84.388 163.861 84.3079 163.781C83.1435 162.725 81.6714 161.937 80.0335 161.491C79.9118 161.368 79.7758 161.255 79.6274 161.154C79.3539 160.955 79.0332 160.806 78.686 160.717C78.3388 160.628 77.973 160.601 77.6122 160.637C77.2515 160.673 76.9039 160.771 76.592 160.926C76.2801 161.081 76.0109 161.288 75.8018 161.535C74.5943 163.053 76.0583 166.098 77.2818 167.367C77.3513 167.443 78.2436 168.18 78.8153 168.637L77.6077 167.984C76.8223 167.541 76.0048 167.097 75.1606 166.613L73.873 165.956C73.4455 165.73 72.9647 165.534 72.5052 165.321C71.4366 164.842 70.3199 164.398 69.1872 163.99C69.668 163.417 71.3244 161.362 71.6182 160.164C71.9121 158.965 71.8426 157.394 70.8114 156.44C70.5772 156.209 70.287 156.022 69.9599 155.89C69.6328 155.758 69.276 155.685 68.9127 155.676C68.5494 155.666 68.1877 155.72 67.8511 155.834C67.5145 155.948 67.2106 156.12 66.9591 156.338C65.4898 157.669 66.3821 160.878 67.3545 162.285C67.4186 162.374 68.2521 163.315 68.7277 163.826C68.0438 163.577 67.3599 163.324 66.6599 163.089C64.6296 162.41 62.5512 161.757 60.4834 161.131C59.8476 160.936 59.2171 160.732 58.5866 160.532C58.763 160.332 60.8147 157.922 61.1246 156.582C61.4024 155.392 61.3543 153.812 60.3178 152.858C60.0835 152.627 59.7934 152.44 59.4663 152.308C59.1391 152.176 58.7823 152.103 58.419 152.094C58.0557 152.084 57.694 152.138 57.3574 152.252C57.0209 152.366 56.717 152.538 56.4655 152.756C54.9961 154.088 55.8884 157.297 56.8662 158.704C56.9356 158.81 58.1432 160.164 58.4691 160.479C57.0799 160.035 55.7014 159.591 54.3603 159.099C52.55 158.447 50.7936 157.697 49.1028 156.853C49.1829 156.759 51.3415 154.252 51.6568 152.88C51.9293 151.691 51.8812 150.111 50.85 149.156C50.6157 148.925 50.3256 148.738 49.9984 148.606C49.6713 148.475 49.3145 148.402 48.9512 148.392C48.5879 148.383 48.2262 148.436 47.8896 148.551C47.5531 148.665 47.2492 148.836 46.9977 149.054C45.5283 150.386 46.4206 153.595 47.393 155.002C47.4572 155.095 48.3762 156.129 48.8303 156.613L48.7448 156.688C47.0688 155.803 45.4917 154.794 44.0323 153.675C43.2148 153.067 42.4775 152.45 41.7775 151.833C42.237 151.389 44.3101 149.405 44.7643 148.193C45.2184 146.981 45.352 145.459 44.4544 144.42C44.2507 144.17 43.9859 143.958 43.6774 143.799C43.3688 143.639 43.0232 143.534 42.6631 143.493C42.303 143.451 41.9363 143.472 41.5867 143.556C41.2372 143.639 40.9127 143.782 40.6341 143.977C38.9992 145.184 39.464 148.442 40.2441 149.929C40.2868 150.009 40.8318 150.79 41.2379 151.353C40.928 151.074 40.6021 150.79 40.3082 150.515C39.2396 149.485 38.2832 148.486 37.4711 147.594C37.0116 147.084 36.6109 146.618 36.2368 146.178C36.4238 145.557 37.1291 143.049 36.862 141.828C36.5948 140.608 35.8682 139.165 34.4897 138.597C34.1715 138.452 33.82 138.364 33.4581 138.339C33.0962 138.314 32.7321 138.352 32.3893 138.452C32.0466 138.552 31.733 138.71 31.4688 138.917C31.2047 139.124 30.9961 139.375 30.8564 139.654C30.071 141.349 32.2884 144.061 33.8058 145.082C33.9393 145.171 36.1834 146.351 36.1941 146.32C36.1952 146.307 36.1952 146.294 36.1941 146.28C36.5414 146.724 36.9207 147.168 37.3428 147.665C38.1336 148.553 39.0419 149.591 40.1159 150.643C41.2596 151.788 42.4816 152.877 43.7758 153.906C45.2212 155.053 46.7857 156.093 48.451 157.012L48.5151 157.044C47.9006 156.897 46.1588 156.538 46.0199 156.524C44.0804 156.311 40.1907 156.848 39.2503 158.49C39.1037 158.768 39.0293 159.068 39.0319 159.371C39.0345 159.674 39.114 159.973 39.2653 160.249C39.4166 160.524 39.6363 160.77 39.9099 160.971C40.1835 161.171 40.505 161.321 40.8532 161.411C42.3118 161.846 44.0857 161.282 45.3039 160.612Z" fill="#9C9C9C"/>
<path d="M145.266 48.0163C146.41 49.6053 150.529 51.9355 150.534 51.9355C150.54 51.9355 151.56 49.2147 151.603 49.0327C152.041 46.96 151.421 42.7345 148.932 41.6338C148.508 41.4604 148.046 41.363 147.575 41.3478C147.103 41.3326 146.633 41.4001 146.195 41.5458C145.757 41.6915 145.361 41.9122 145.033 42.1934C144.704 42.4747 144.451 42.8103 144.289 43.1784C143.514 44.723 144.294 46.667 145.266 48.0163Z" fill="#9C9C9C"/>
<path d="M185.665 73.1118C185.665 73.1517 188.336 71.3098 188.481 71.1766C190.228 69.6453 192.514 65.8504 191.152 63.7688C190.914 63.4302 190.593 63.137 190.21 62.9082C189.827 62.6795 189.39 62.5204 188.928 62.4413C188.465 62.3621 187.988 62.3647 187.527 62.4489C187.066 62.5331 186.632 62.697 186.252 62.9299C184.601 63.8753 183.966 65.8549 183.875 67.4261C183.773 69.2725 185.665 73.1074 185.665 73.1118Z" fill="#9C9C9C"/>
<path d="M138.272 58.611C139.816 59.8405 144.187 61.1187 144.534 61.2164C143.653 63.2917 142.939 65.4136 142.397 67.5679C142.071 68.8195 141.788 70.0933 141.526 71.3716C141.526 70.7724 141.526 70.2354 141.526 70.1599C141.291 68.065 139.352 64.1236 136.579 63.6132C136.115 63.5382 135.638 63.5452 135.178 63.6338C134.718 63.7223 134.286 63.8903 133.909 64.1269C133.532 64.3635 133.22 64.6634 132.992 65.0069C132.765 65.3505 132.627 65.7301 132.587 66.1209C132.352 67.7765 133.731 69.4808 135.099 70.5594C136.466 71.6379 140.185 72.8186 141.168 73.1115C141.072 73.5998 140.97 74.0924 140.88 74.5807C140.436 76.9375 140.009 79.2899 139.501 81.589C139.325 82.3968 139.111 83.1913 138.903 83.9858C138.903 83.4532 138.903 83.0049 138.903 82.9383C138.668 80.8389 136.728 76.902 133.955 76.3871C133.492 76.3129 133.015 76.3205 132.555 76.4096C132.095 76.4988 131.663 76.6673 131.287 76.9043C130.911 77.1413 130.6 77.4414 130.372 77.7852C130.145 78.1289 130.008 78.5085 129.969 78.8993C129.734 80.5504 131.107 82.2548 132.475 83.3378C133.843 84.4208 137.204 85.4771 138.352 85.8322C138.112 86.64 137.872 87.4478 137.594 88.2201C137.385 88.7439 137.236 89.2587 136.995 89.778L136.322 91.3093C135.857 92.268 135.382 93.2622 134.895 94.1943C134.564 94.8379 134.233 95.4504 133.902 96.0674C134.089 95.264 134.436 93.6839 134.436 93.5507C134.586 91.4469 133.367 87.3102 130.739 86.4492C130.294 86.3168 129.821 86.2637 129.35 86.2935C128.879 86.3233 128.42 86.4353 128.005 86.6221C127.59 86.8088 127.226 87.0663 126.939 87.3776C126.651 87.6889 126.446 88.047 126.336 88.4287C125.802 90.031 126.87 91.8907 128.003 93.138C129.275 94.5139 133.191 96.2715 133.683 96.489C133.148 97.5054 132.582 98.4952 132.048 99.4184C130.498 102.113 129.066 104.376 127.934 106.112L129.478 107.026C130.6 105.251 132.032 102.849 133.57 100.009C134.137 98.9746 134.719 97.8605 135.302 96.7109C136.692 96.9962 138.101 97.2111 139.523 97.3545C139.79 99.1299 141.751 102.166 142.007 102.556C140.869 103.156 139.758 103.728 138.694 104.252C135.676 105.761 133.02 106.977 130.942 107.896L132.625 108.895C134.575 107.98 136.937 106.826 139.571 105.446C140.73 104.842 141.954 104.176 143.199 103.484C143.567 103.821 146.613 106.529 148.542 107.203C150.289 107.812 152.714 108.189 154.451 107.35C154.867 107.166 155.233 106.91 155.522 106.601C155.812 106.291 156.02 105.935 156.132 105.554C156.245 105.173 156.259 104.777 156.175 104.391C156.09 104.006 155.909 103.639 155.642 103.315C153.975 101.402 148.857 101.487 146.442 102.139C146.303 102.179 144.812 102.738 143.882 103.107C144.39 102.823 144.887 102.548 145.405 102.25C146.436 101.664 147.446 101.056 148.531 100.408L150.08 99.4095C150.615 99.0811 151.112 98.6861 151.635 98.3221C152.827 97.461 153.986 96.5467 155.124 95.588C155.744 96.3337 157.988 98.9657 159.607 99.7912C161.226 100.617 163.555 101.291 165.42 100.679C165.866 100.549 166.273 100.343 166.616 100.073C166.959 99.8036 167.23 99.4772 167.411 99.115C167.592 98.7527 167.679 98.3629 167.666 97.9709C167.654 97.5788 167.542 97.1934 167.338 96.8396C166.04 94.7402 160.959 94.1766 158.458 94.5183C158.303 94.5405 156.54 94.9622 155.578 95.193C156.257 94.6204 156.941 94.0478 157.603 93.4442C159.527 91.7132 161.407 89.8934 163.288 88.118C163.865 87.5677 164.453 87.0262 165.03 86.4847C165.249 86.751 167.83 89.9245 169.646 90.8521C171.249 91.6733 173.595 92.3523 175.465 91.7398C175.91 91.6094 176.317 91.4027 176.659 91.133C177.002 90.8633 177.272 90.5368 177.452 90.1746C177.633 89.8125 177.719 89.4228 177.706 89.031C177.694 88.6392 177.582 88.254 177.378 87.9005C176.079 85.8011 170.998 85.2374 168.498 85.5792C168.311 85.6014 165.773 86.2006 165.137 86.3781C166.419 85.1798 167.707 83.9947 169.037 82.8673C170.821 81.3405 172.722 79.9113 174.728 78.5886C174.829 78.7129 177.506 82.0373 179.365 82.9871C180.968 83.8083 183.314 84.4829 185.184 83.8748C185.629 83.7445 186.036 83.5377 186.378 83.268C186.721 82.9984 186.991 82.6718 187.171 82.3096C187.352 81.9475 187.438 81.5578 187.425 81.166C187.413 80.7742 187.301 80.389 187.097 80.0356C185.798 77.9362 180.717 77.3725 178.217 77.7187C178.051 77.7187 176.122 78.1936 175.208 78.4244L175.134 78.3045C177.198 77.0191 179.395 75.8887 181.7 74.9269C182.961 74.3854 184.201 73.9282 185.44 73.5021C185.862 74.1634 187.834 77.1683 189.394 78.1758C190.954 79.1834 193.134 80.0267 195.058 79.5917C195.517 79.5028 195.949 79.3345 196.325 79.0979C196.7 78.8612 197.012 78.5615 197.239 78.2182C197.467 77.8749 197.604 77.4958 197.644 77.1053C197.683 76.7149 197.623 76.322 197.467 75.9521C196.452 73.7329 191.483 72.7209 188.951 72.8452C188.812 72.8452 187.417 73.0449 186.407 73.1914C186.942 73.0094 187.529 72.8097 188.064 72.641C190.073 72.0063 191.953 71.527 193.631 71.1142C194.582 70.8834 195.453 70.6704 196.265 70.5194C197.088 70.9899 200.427 72.8496 202.34 73.1381C204.253 73.4267 206.673 73.3556 208.148 72.2283C208.507 71.9734 208.796 71.6586 208.999 71.3045C209.201 70.9503 209.312 70.5647 209.323 70.1728C209.334 69.7809 209.245 69.3915 209.063 69.0298C208.881 68.6682 208.609 68.3425 208.266 68.0738C206.128 66.5071 201.165 67.5013 198.979 68.5665C198.787 68.6597 196.035 70.3863 196.078 70.4129L196.126 70.4395C195.341 70.5905 194.497 70.7636 193.578 70.9633C191.895 71.3494 189.987 71.7977 187.957 72.3969C185.759 73.0329 183.608 73.7739 181.513 74.6162C179.163 75.5448 176.915 76.6438 174.797 77.9006L174.728 77.9495C175.219 77.3946 176.544 75.8057 176.63 75.6725C177.827 73.8128 178.826 69.6406 176.854 67.9407C176.516 67.6671 176.113 67.4555 175.67 67.3195C175.228 67.1835 174.756 67.1263 174.285 67.1514C173.814 67.1765 173.355 67.2834 172.937 67.4652C172.519 67.6471 172.151 67.8998 171.858 68.207C170.565 69.4808 170.581 71.5314 170.998 73.0671C171.468 74.7981 174.263 77.8651 174.487 78.1092C172.372 79.4348 170.366 80.8761 168.482 82.4235C167.376 83.3111 166.302 84.2521 165.233 85.1975C165.644 84.7048 166.002 84.261 166.045 84.1944C167.242 82.3391 168.241 78.1625 166.27 76.467C165.933 76.1922 165.53 75.9795 165.088 75.8428C164.646 75.7061 164.174 75.6484 163.703 75.6736C163.232 75.6987 162.773 75.8061 162.355 75.9887C161.937 76.1713 161.571 76.425 161.279 76.7333C159.981 78.0027 159.997 80.0533 160.414 81.589C160.83 83.1247 163.16 85.8056 163.785 86.498L162.567 87.5943C160.633 89.3697 158.715 91.1229 156.764 92.8051C156.08 93.3998 155.375 93.9635 154.675 94.5316C155.039 94.0878 155.343 93.7238 155.381 93.6439C156.577 91.7887 157.577 87.612 155.605 85.9165C155.268 85.6421 154.865 85.4296 154.423 85.2928C153.98 85.1561 153.508 85.0982 153.037 85.1229C152.566 85.1476 152.106 85.2543 151.688 85.4362C151.27 85.618 150.902 85.8709 150.609 86.1784C149.316 87.4523 149.332 89.5028 149.749 91.0385C150.166 92.5743 152.266 94.9932 153.008 95.8232C152.271 96.3825 151.534 96.9462 150.786 97.4655C150.251 97.8072 149.797 98.1667 149.252 98.4908L147.676 99.4584C146.65 100.049 145.592 100.657 144.572 101.212C143.861 101.598 143.182 101.957 142.493 102.321C143.188 101.735 144.513 100.568 144.63 100.461C145.901 98.9369 146.681 97.1675 146.896 95.3217C147.047 95.1576 147.179 94.9823 147.291 94.7979C147.515 94.4527 147.649 94.0722 147.685 93.6812C147.72 93.2901 147.656 92.8973 147.497 92.5281C147.338 92.1589 147.087 91.8217 146.761 91.5383C146.434 91.2549 146.04 91.0317 145.603 90.8832C142.931 90.0532 138.726 92.4677 137.15 94.1189C137.054 94.2165 136.189 95.3661 135.654 96.0984C135.889 95.6279 136.124 95.1752 136.359 94.687C136.83 93.7283 137.268 92.7607 137.738 91.7176C137.946 91.2072 138.16 90.6923 138.368 90.173C138.577 89.6537 138.748 89.0989 138.945 88.5574C139.368 87.288 139.72 85.992 140.041 84.6738C141.051 85.0155 144.668 86.1828 146.57 86.1296C148.472 86.0763 150.844 85.5703 152.014 84.2077C152.299 83.8949 152.501 83.5359 152.607 83.154C152.714 82.772 152.722 82.3758 152.632 81.991C152.542 81.6062 152.355 81.2415 152.084 80.9207C151.813 80.5998 151.463 80.33 151.058 80.1288C148.584 78.9703 143.973 80.83 142.114 82.2592C141.996 82.3524 140.8 83.502 140.158 84.1456C140.34 83.3555 140.532 82.5655 140.693 81.7577C141.141 79.4275 141.51 77.0618 141.895 74.7005C142.007 73.977 142.135 73.258 142.258 72.539C142.616 72.6632 146.88 74.1279 149.012 74.0658C150.903 74.0125 153.286 73.5065 154.451 72.1439C154.736 71.8314 154.938 71.4726 155.045 71.0909C155.151 70.7091 155.16 70.313 155.071 69.9282C154.981 69.5435 154.795 69.1787 154.524 68.8577C154.253 68.5367 153.904 68.2666 153.5 68.065C151.021 66.911 146.41 68.7662 144.55 70.1999C144.411 70.3064 142.691 71.9753 142.28 72.4191C142.552 70.8346 142.814 69.2545 143.199 67.7055C143.678 65.6125 144.318 63.5473 145.117 61.5226C145.282 61.5803 149.722 63.1294 151.908 63.0672C153.799 63.0095 156.182 62.508 157.347 61.1454C157.632 60.8325 157.834 60.4734 157.941 60.0913C158.048 59.7092 158.056 59.3127 157.967 58.9276C157.877 58.5425 157.691 58.1774 157.42 57.8559C157.15 57.5345 156.8 57.264 156.396 57.062C153.917 55.908 149.311 57.7632 147.446 59.1969C147.323 59.2901 146.014 60.555 145.405 61.1676L145.266 61.101C146.123 59.0842 147.196 57.1354 148.472 55.2777C149.167 54.248 149.893 53.2937 150.609 52.3794C151.4 52.7389 155.039 54.3412 157.021 54.4699C158.912 54.5853 161.354 54.3012 162.684 53.054C163.008 52.7691 163.257 52.4307 163.413 52.0608C163.569 51.6909 163.63 51.2979 163.591 50.9072C163.552 50.5166 163.415 50.1371 163.188 49.7935C162.961 49.4499 162.649 49.1499 162.273 48.9129C159.965 47.537 155.14 48.9617 153.099 50.2178C152.992 50.2844 151.956 51.0789 151.213 51.6692C151.55 51.2609 151.892 50.8348 152.228 50.4486C153.478 49.0017 154.734 47.7367 155.851 46.6227C156.497 45.9968 157.096 45.4376 157.657 44.9227C158.656 44.9227 162.679 44.9582 164.464 44.3235C166.248 43.6888 168.204 42.5171 168.706 40.9015C168.836 40.5239 168.868 40.1278 168.801 39.739C168.734 39.3503 168.57 38.9777 168.317 38.6455C168.065 38.3133 167.732 38.0291 167.338 37.8113C166.945 37.5935 166.501 37.4472 166.035 37.3817C163.224 37.0444 159.73 40.1602 158.613 42.051C158.517 42.2152 157.368 44.9183 157.416 44.9183H157.48C156.946 45.4065 156.332 45.9347 155.701 46.525C154.552 47.6169 153.259 48.8641 151.961 50.2933C150.545 51.8253 149.237 53.4244 148.045 55.0824C146.701 56.9342 145.559 58.8815 144.63 60.9013L144.598 60.9767C144.646 60.2843 144.689 58.3536 144.673 58.2027C144.438 56.1033 142.499 52.1663 139.726 51.6559C139.263 51.5817 138.786 51.5892 138.327 51.678C137.867 51.7669 137.436 51.935 137.06 52.1716C136.684 52.4081 136.372 52.7077 136.144 53.0509C135.917 53.3941 135.779 53.7732 135.74 54.1636C135.531 55.8192 136.904 57.5236 138.272 58.611Z" fill="#9C9C9C"/>
<path d="M184.918 134.842V133.355C184.918 125.698 196.588 125.366 196.588 119.915C196.588 117.549 194.269 116.005 190.817 116.005C187.04 116.005 184.651 117.714 184.651 120.137V120.745C184.651 121.349 184.256 121.633 183.524 121.633L176.434 121.411C175.771 121.411 175.306 121.136 175.306 120.754V120.146C175.306 113.488 181.67 108.912 191.02 108.912C200.167 108.912 206.066 113.209 206.066 119.649C206.066 128.792 194.199 128.85 194.199 133.852V134.842C194.217 134.968 194.2 135.097 194.15 135.217C194.1 135.338 194.017 135.447 193.909 135.537C193.8 135.627 193.669 135.696 193.524 135.738C193.379 135.779 193.224 135.793 193.072 135.778H186.046C185.893 135.793 185.739 135.779 185.594 135.738C185.449 135.696 185.317 135.627 185.209 135.537C185.1 135.447 185.018 135.338 184.967 135.217C184.917 135.097 184.9 134.968 184.918 134.842ZM184.32 143.719C184.32 141.295 186.906 139.311 190.021 139.311C193.008 139.311 195.658 141.295 195.658 143.719C195.658 146.142 192.986 148.126 189.957 148.126C186.927 148.126 184.32 146.133 184.32 143.71V143.719Z" fill="#263238"/>
<path d="M44.8248 71.7701V70.4785C44.8248 63.8207 54.9765 63.5411 54.9765 58.8053C54.9765 56.7458 52.9622 55.4098 49.9701 55.4098C46.6841 55.4098 44.6271 56.8923 44.6271 58.9961V59.5243C44.6271 60.048 44.2851 60.2877 43.6493 60.2877L37.4888 60.0969C36.9118 60.0969 36.511 59.8572 36.511 59.5243V58.9961C36.511 53.2261 42.0357 49.2314 50.1571 49.2314C58.1021 49.2314 63.2314 52.9642 63.2314 58.5523C63.2314 66.4927 52.9194 66.5415 52.9194 70.8957V71.7567C52.9348 71.8665 52.9201 71.9777 52.8764 72.0821C52.8328 72.1865 52.7612 72.2813 52.6671 72.3594C52.5731 72.4376 52.459 72.497 52.3333 72.5333C52.2077 72.5696 52.0738 72.5818 51.9416 72.569H45.8025C45.6719 72.5814 45.5396 72.5694 45.4152 72.5339C45.2909 72.4983 45.1777 72.4401 45.084 72.3635C44.9902 72.2869 44.9183 72.1939 44.8734 72.0912C44.8286 71.9885 44.812 71.8788 44.8248 71.7701ZM44.2905 79.4708C44.2905 77.367 46.5345 75.6449 49.2381 75.6449C51.8294 75.6449 54.1376 77.367 54.1376 79.4708C54.1376 81.5747 51.8294 83.2968 49.1847 83.2968C47.9282 83.3231 46.7103 82.9357 45.7964 82.2189C44.8826 81.5022 44.347 80.5143 44.3065 79.4708H44.2905Z" fill="#92E3A9"/>
<path d="M173.784 20.8388V20.1864C173.784 16.8264 178.902 16.68 178.902 14.2876C178.902 13.249 177.882 12.5699 176.37 12.5699C174.713 12.5699 173.666 13.32 173.666 14.3853V14.6516C173.666 14.9179 173.49 15.0377 173.169 15.0377L170.059 14.9401C169.766 14.9401 169.563 14.8202 169.563 14.6516V14.3853C169.563 11.4603 172.357 9.4541 176.46 9.4541C180.473 9.4541 183.064 11.3405 183.064 14.1678C183.064 18.1624 177.855 18.2024 177.855 20.3816V20.8255C177.863 20.8811 177.855 20.9374 177.833 20.9902C177.811 21.0431 177.774 21.091 177.726 21.1303C177.678 21.1697 177.62 21.1995 177.557 21.2174C177.493 21.2353 177.425 21.241 177.358 21.2338H174.275C174.21 21.2407 174.144 21.2354 174.081 21.2181C174.019 21.2009 173.962 21.1723 173.915 21.1344C173.868 21.0965 173.832 21.0502 173.809 20.999C173.786 20.9479 173.777 20.8931 173.784 20.8388ZM173.522 24.7314C173.487 24.3163 173.604 23.9024 173.857 23.5432C174.11 23.1841 174.487 22.8965 174.939 22.7177C175.391 22.5389 175.897 22.4773 176.392 22.5409C176.887 22.6045 177.348 22.7903 177.714 23.0741C178.08 23.358 178.335 23.7268 178.445 24.1325C178.555 24.5383 178.516 24.9623 178.332 25.3493C178.149 25.7363 177.829 26.0685 177.415 26.3026C177.001 26.5368 176.512 26.662 176.012 26.6621C175.695 26.6716 175.38 26.6291 175.084 26.5371C174.787 26.4452 174.515 26.3055 174.284 26.1261C174.053 25.9468 173.866 25.7312 173.736 25.4919C173.605 25.2525 173.532 24.9941 173.522 24.7314Z" fill="#92E3A9"/>
<path d="M23.7359 110.603V109.782C23.7359 105.548 30.1903 105.366 30.1903 102.347C30.1903 101.038 28.908 100.186 26.9845 100.186C24.8954 100.186 23.5757 101.131 23.5757 102.472V102.805C23.5757 103.142 23.3566 103.293 22.9505 103.293L19.0288 103.173C18.6601 103.173 18.4036 103.018 18.4036 102.805V102.472C18.4036 98.7877 21.9247 96.2578 27.0967 96.2578C32.1565 96.2578 35.4158 98.6324 35.4158 102.197C35.4158 107.252 28.8545 107.283 28.8545 110.057V110.603C28.8649 110.673 28.8559 110.745 28.8281 110.811C28.8004 110.878 28.7547 110.939 28.6944 110.989C28.6341 111.039 28.561 111.077 28.4804 111.1C28.3998 111.123 28.314 111.131 28.2294 111.122H24.3504C24.2666 111.129 24.182 111.121 24.1028 111.097C24.0236 111.073 23.9518 111.035 23.8928 110.985C23.8338 110.936 23.7891 110.875 23.7619 110.809C23.7348 110.743 23.7259 110.672 23.7359 110.603V110.603ZM23.4047 115.508C23.3628 114.985 23.5115 114.463 23.8313 114.012C24.151 113.56 24.6271 113.199 25.1975 112.975C25.7679 112.751 26.4063 112.675 27.0294 112.757C27.6526 112.838 28.2317 113.074 28.6913 113.433C29.151 113.792 29.4699 114.257 29.6065 114.769C29.7432 115.281 29.6913 115.815 29.4575 116.301C29.2238 116.788 28.8191 117.205 28.296 117.498C27.773 117.791 27.1559 117.947 26.525 117.944C25.7209 117.966 24.9394 117.721 24.3523 117.264C23.7652 116.807 23.4205 116.175 23.394 115.508H23.4047Z" stroke="#263238" stroke-miterlimit="10"/>
<path d="M72.8916 33.9859V33.4222C72.8916 30.5106 77.3317 30.3818 77.3317 28.3091C77.3317 27.4214 76.4501 26.8222 75.1357 26.8222C73.6984 26.8222 72.7901 27.4702 72.7901 28.3934V28.6242C72.7901 28.855 72.6405 28.9571 72.3627 28.9571L69.6912 28.8728C69.44 28.8728 69.2637 28.7707 69.2637 28.6242V28.3934C69.2637 25.859 71.6841 24.1191 75.2372 24.1191C78.7903 24.1191 80.9061 25.7525 80.9061 28.2025C80.9061 31.6823 76.3913 31.7045 76.3913 33.6086V33.9859C76.3982 34.0339 76.3918 34.0826 76.3728 34.1282C76.3537 34.1739 76.3225 34.2154 76.2813 34.2496C76.2402 34.2838 76.1902 34.3098 76.1352 34.3256C76.0802 34.3414 76.0216 34.3467 75.9639 34.341H73.2924C73.2367 34.3432 73.1811 34.3353 73.1295 34.318C73.0778 34.3006 73.0314 34.2741 72.9932 34.2403C72.9551 34.2066 72.9263 34.1663 72.9088 34.1224C72.8912 34.0785 72.8854 34.0319 72.8916 33.9859ZM72.6672 37.3591C72.6437 37.0045 72.7488 36.6521 72.9689 36.3476C73.189 36.0431 73.5139 35.8004 73.9018 35.651C74.2897 35.5015 74.7226 35.4521 75.1446 35.5092C75.5666 35.5662 75.9583 35.7272 76.2691 35.9711C76.5799 36.2151 76.7954 36.5308 76.8878 36.8776C76.9803 37.2244 76.9454 37.5863 76.7877 37.9164C76.6299 38.2465 76.3566 38.5298 76.0031 38.7295C75.6495 38.9293 75.232 39.0363 74.8044 39.0369C74.2526 39.0525 73.7159 38.8855 73.3121 38.5725C72.9084 38.2596 72.6707 37.8264 72.6512 37.368L72.6672 37.3591Z" fill="#263238"/>
<path d="M151.968 155.667V155.103C151.968 152.191 156.408 152.067 156.408 149.99C156.408 149.102 155.527 148.503 154.212 148.503C152.775 148.503 151.867 149.151 151.867 150.074V150.305C151.867 150.536 151.717 150.642 151.439 150.642L148.768 150.558C148.517 150.558 148.34 150.451 148.34 150.305V150.074C148.34 147.54 150.761 145.8 154.314 145.8C157.867 145.8 160.041 147.433 160.041 149.888C160.041 153.363 155.527 153.385 155.527 155.289V155.667C155.533 155.715 155.527 155.764 155.508 155.809C155.489 155.855 155.458 155.897 155.417 155.931C155.376 155.966 155.326 155.992 155.271 156.009C155.216 156.025 155.157 156.031 155.099 156.026H152.428C152.367 156.036 152.305 156.033 152.246 156.019C152.187 156.004 152.132 155.979 152.088 155.944C152.043 155.909 152.009 155.865 151.988 155.817C151.967 155.769 151.96 155.717 151.968 155.667V155.667ZM151.744 159.04C151.72 158.685 151.825 158.333 152.045 158.028C152.265 157.724 152.59 157.481 152.978 157.332C153.366 157.182 153.799 157.133 154.221 157.19C154.643 157.247 155.035 157.408 155.346 157.652C155.656 157.896 155.872 158.212 155.964 158.558C156.057 158.905 156.022 159.267 155.864 159.597C155.706 159.927 155.433 160.21 155.08 160.41C154.726 160.61 154.308 160.717 153.881 160.718C153.331 160.728 152.798 160.558 152.399 160.244C151.999 159.929 151.766 159.497 151.749 159.04H151.744Z" stroke="#263238" stroke-miterlimit="10"/>
<path d="M131.05 165.768C131.013 165.675 130.975 165.582 130.933 165.489C130.89 165.396 130.858 165.298 130.815 165.205C130.772 165.112 130.74 165.018 130.698 164.925C130.655 164.832 130.623 164.734 130.58 164.641C130.537 164.548 130.505 164.455 130.462 164.361C130.42 164.268 130.388 164.171 130.345 164.077L130.227 163.798C130.19 163.7 130.147 163.607 130.11 163.514L129.992 163.234C129.955 163.136 129.912 163.043 129.875 162.95L129.757 162.67C129.72 162.573 129.677 162.48 129.64 162.386L129.527 162.089C129.49 161.991 129.447 161.898 129.41 161.805L129.287 161.525C129.25 161.428 129.212 161.334 129.169 161.241C129.127 161.148 129.095 161.055 129.052 160.962C129.009 160.868 128.977 160.771 128.934 160.677C128.892 160.584 128.86 160.491 128.817 160.398C127.075 155.995 121.689 152.764 115.764 152.764C110.02 152.764 105.024 155.542 102.941 159.457C102.887 159.546 102.839 159.639 102.791 159.728L102.647 160.003C102.593 160.092 102.545 160.18 102.497 160.274C102.449 160.367 102.396 160.456 102.348 160.544L102.203 160.815C102.15 160.908 102.102 160.997 102.054 161.09C102.006 161.183 101.952 161.268 101.904 161.361C101.856 161.454 101.803 161.539 101.754 161.632L101.61 161.903C101.557 161.991 101.509 162.084 101.461 162.173C101.413 162.262 101.359 162.355 101.311 162.444L101.167 162.719C101.113 162.808 101.065 162.897 101.017 162.99C100.969 163.083 100.916 163.172 100.868 163.261L100.723 163.531C100.67 163.625 100.622 163.713 100.574 163.807C100.526 163.9 100.472 163.984 100.424 164.077L100.28 164.348C100.226 164.437 100.178 164.53 100.13 164.619C100.082 164.708 100.029 164.801 99.9806 164.894C99.0639 166.516 98.593 168.287 98.6021 170.078C98.6021 177.224 106.029 183.065 115.214 183.065C124.2 183.065 132.017 177.224 132.017 170.078C132.016 168.716 131.728 167.364 131.168 166.084C131.13 165.955 131.093 165.862 131.05 165.768Z" fill="#263238"/>
<path d="M118.339 67.4619C90.7853 67.4619 72.026 80.9327 72.026 100.577V102.353C72.031 102.646 72.127 102.934 72.3049 103.187C72.4827 103.441 72.7363 103.652 73.0412 103.8C73.1565 103.892 73.2816 103.975 73.4152 104.048C73.531 104.142 73.6581 104.225 73.7945 104.297C73.9103 104.39 74.0374 104.474 74.1739 104.545C74.2886 104.64 74.4159 104.723 74.5532 104.794C74.6671 104.887 74.7925 104.971 74.9272 105.043C75.0429 105.137 75.17 105.222 75.3066 105.296C75.4238 105.388 75.5507 105.471 75.686 105.544C75.802 105.637 75.9291 105.721 76.0653 105.793C76.1795 105.886 76.3048 105.969 76.4393 106.041C76.5648 106.142 76.7027 106.231 76.8507 106.308C76.9597 106.39 77.0757 106.466 77.198 106.534C77.3152 106.626 77.4422 106.709 77.5774 106.782C77.6927 106.875 77.8179 106.958 77.9514 107.031C78.0685 107.123 78.1955 107.206 78.3307 107.28C78.4468 107.373 78.5739 107.456 78.7101 107.528C78.8243 107.621 78.9496 107.705 79.0841 107.777C79.2002 107.87 79.3273 107.953 79.4635 108.025C79.5776 108.118 79.703 108.202 79.8375 108.274C79.9546 108.366 80.0816 108.449 80.2168 108.522C80.331 108.616 80.4563 108.699 80.5908 108.771C81.2082 109.222 82.0137 109.455 82.8349 109.419L100.018 109.952C101.787 109.952 102.748 109.286 102.748 107.817V106.352C102.748 100.48 108.529 96.3476 117.709 96.3476C126.06 96.3476 131.681 100.08 131.681 105.819C131.681 106.473 131.606 107.126 131.456 107.768C122.833 117.16 100.387 121.301 100.387 139.53V143.915C100.387 145.69 101.557 146.671 103.71 146.671H124.398C126.535 146.671 127.721 145.699 127.721 143.915V140.99C127.721 126.219 162.702 126.054 162.702 99.1083C162.702 80.1205 145.305 67.4619 118.339 67.4619Z" fill="#263238"/>
<path d="M100.361 143.922V139.537C100.361 116.972 134.754 116.013 134.754 99.9281C134.754 92.9464 127.915 88.388 117.752 88.388C106.612 88.388 99.5862 93.4213 99.5862 100.563V102.338C99.5862 104.114 98.4107 104.939 96.2628 104.939L75.3503 104.287C73.4001 104.287 72.0323 103.474 72.0323 102.338V100.563C72.0323 80.9181 90.7916 67.4473 118.345 67.4473C145.312 67.4473 162.692 80.1058 162.692 99.1025C162.692 126.049 127.712 126.213 127.712 140.984V143.909C127.712 145.684 126.536 146.665 124.388 146.665H103.684C101.531 146.679 100.361 145.707 100.361 143.922ZM98.6031 170.078C98.6031 162.937 106.222 157.091 115.407 157.091C124.201 157.091 132.018 162.937 132.018 170.078C132.018 177.22 124.185 183.043 115.214 183.043C106.019 183.043 98.6031 177.202 98.6031 170.078Z" fill="#92E3A9" stroke="#92E3A9" stroke-miterlimit="10"/>
<path d="M114.359 197.597C130.473 197.597 143.537 195.17 143.537 192.177C143.537 189.184 130.473 186.758 114.359 186.758C98.244 186.758 85.1805 189.184 85.1805 192.177C85.1805 195.17 98.244 197.597 114.359 197.597Z" fill="#263238"/>
<path d="M92.057 69.2578L90.9403 71.2818C90.9403 71.2818 84.4539 71.8632 84.4539 72.2671C84.4539 72.671 84.5234 75.4539 84.876 75.5693C85.1441 75.656 85.4415 75.656 85.7095 75.5693L95.2628 73.5409L96.1711 69.9502L92.057 69.2578Z" fill="white" stroke="#263238" stroke-linecap="round" stroke-linejoin="round"/>
<path d="M90.2404 72.8755C89.0541 73.6829 87.7745 74.3906 86.4202 74.9883C84.876 75.5653 84.8173 76.4396 85.3088 76.4396C85.8004 76.4396 90.1603 74.9217 90.1603 74.9217C90.1603 74.9217 94.1194 74.0606 94.6911 73.7987C95.2628 73.5369 95.327 72.0811 95.327 72.0811" fill="white"/>
<path d="M90.2404 72.8755C89.0541 73.6829 87.7745 74.3906 86.4202 74.9883C84.876 75.5653 84.8173 76.4396 85.3088 76.4396C85.8004 76.4396 90.1603 74.9217 90.1603 74.9217C90.1603 74.9217 94.1194 74.0606 94.6911 73.7987C95.2628 73.5369 95.327 72.0811 95.327 72.0811" stroke="#263238" stroke-linecap="round" stroke-linejoin="round"/>
<path d="M97.7634 30.3682L93.7775 55.7474L91.0045 69.4889L97.1596 70.6962L101.749 54.4425L103.924 44.2118L97.7634 30.3682Z" fill="#7D7D7D" stroke="#263238" stroke-linecap="round" stroke-linejoin="round"/>
<path d="M129.928 11.9928L127.497 11.6732L122.517 10.1064L122.336 15.0198L130.056 15.6102L129.928 11.9928Z" fill="white" stroke="#263238" stroke-linecap="round" stroke-linejoin="round"/>
<path d="M101.509 101.992C99.6969 103.747 98.0042 105.584 96.4383 107.495C94.3812 110.105 95.1079 112.91 97.6458 113.616C100.184 114.322 103.438 112.409 104.287 110.904C105.137 109.4 104.891 108.601 106.216 107.096C107.541 105.591 108.631 104.087 108.15 102.081C107.669 100.074 102.813 100.589 101.509 101.992Z" fill="#7D7D7D" stroke="#263238" stroke-linecap="round" stroke-linejoin="round"/>
<path d="M104.041 111.282C103.87 110.98 103.673 110.66 103.438 110.318C101.498 107.482 98.0946 107.709 95.9574 108.237C94.5522 110.62 95.3536 112.99 97.6565 113.629C99.9593 114.269 102.93 112.706 104.041 111.282Z" fill="white" stroke="#263238" stroke-linecap="round" stroke-linejoin="round"/>
<path d="M103.438 110.318C102.716 111.206 101.749 113.629 98.0038 112.626C96.9593 112.404 96.0251 111.915 95.3323 111.228C95.4132 111.769 95.6748 112.281 96.0874 112.705C96.5 113.13 97.0472 113.45 97.6672 113.629C100.2 114.331 103.459 112.422 104.309 110.917C105.158 109.413 104.912 108.614 106.237 107.109C107.562 105.605 108.652 104.1 108.172 102.094C108.172 104.499 107.103 104.899 105.756 106.204C104.41 107.509 104.164 109.413 103.438 110.318Z" fill="white" stroke="#263238" stroke-linecap="round" stroke-linejoin="round"/>
<path d="M137.141 101.992C138.953 103.747 140.646 105.584 142.212 107.495C144.269 110.105 143.542 112.91 141.004 113.616C138.466 114.322 135.212 112.409 134.363 110.904C133.513 109.4 133.759 108.601 132.434 107.096C131.109 105.591 130.019 104.087 130.5 102.081C130.981 100.074 135.816 100.589 137.141 101.992Z" fill="#7D7D7D" stroke="#263238" stroke-linecap="round" stroke-linejoin="round"/>
<path d="M134.614 111.282C134.78 110.98 134.977 110.66 135.212 110.318C137.152 107.482 140.555 107.709 142.693 108.237C144.098 110.62 143.296 112.99 140.994 113.629C138.691 114.269 135.72 112.706 134.614 111.282Z" fill="white" stroke="#263238" stroke-linecap="round" stroke-linejoin="round"/>
<path d="M135.212 110.318C135.934 111.206 136.901 113.629 140.646 112.626C141.691 112.404 142.625 111.915 143.318 111.228C143.237 111.769 142.975 112.281 142.563 112.705C142.15 113.13 141.603 113.45 140.983 113.629C138.45 114.331 135.191 112.422 134.342 110.917C133.492 109.413 133.738 108.614 132.413 107.109C131.088 105.605 129.998 104.1 130.479 102.094C130.479 104.499 131.547 104.899 132.894 106.204C134.24 107.509 134.486 109.413 135.212 110.318Z" fill="white" stroke="#263238" stroke-linecap="round" stroke-linejoin="round"/>
<path d="M142.805 67.3855C142.805 65.579 139.065 63.5728 139.065 63.5728C133.428 58.8103 123.255 59.4406 119.499 59.8667C115.758 59.4228 105.575 58.8103 99.9379 63.5728C99.9379 63.5728 96.1978 65.579 96.1978 67.3855C96.1978 69.1919 100.91 101.793 100.91 101.793C100.91 101.793 100.787 103.497 104.17 103.697C107.552 103.896 108.978 102.294 108.978 102.294L110.309 74.709C110.309 74.709 115.742 71.4955 116.72 71.3979C117.073 71.3579 117.532 71.2958 118.045 71.2425V71.2958C119.002 71.13 119.99 71.13 120.947 71.2958V71.2425C121.481 71.2958 121.914 71.3579 122.272 71.3979C123.239 71.4955 128.683 74.709 128.683 74.709L130.014 102.294C130.014 102.294 131.462 103.896 134.822 103.697C138.183 103.497 138.082 101.793 138.082 101.793C138.082 101.793 142.805 69.1919 142.805 67.3855Z" fill="#263238" stroke="#263238" stroke-linecap="round" stroke-linejoin="round"/>
<path d="M128.678 74.7091C128.678 74.7091 127.951 68.0868 131.456 65.5791" stroke="#707070" stroke-linecap="round" stroke-linejoin="round"/>
<path d="M110.325 74.7088C110.325 74.7088 110.688 69.1917 109.961 67.1855C109.235 65.1793 108.027 64.376 108.027 64.376" stroke="#707070" stroke-linecap="round" stroke-linejoin="round"/>
<path d="M114.791 61.5664C114.791 61.5664 118.654 65.277 119.381 68.3884" stroke="#707070" stroke-linecap="round" stroke-linejoin="round"/>
<path d="M123.244 61.7793C123.244 61.7793 121.07 63.7855 120.829 65.2901" stroke="#707070" stroke-linecap="round" stroke-linejoin="round"/>
<path d="M117.81 22.7474C117.81 22.7474 114.311 22.3435 113.103 23.3466C111.896 24.3497 107.787 28.0469 107.787 28.0469L109.961 59.9463C109.961 59.9463 114.914 61.553 119.141 61.553C123.367 61.553 128.197 60.2481 129.292 59.5468C130.388 58.8455 129.415 24.6382 129.415 24.6382C129.415 24.6382 120.444 22.4455 117.81 22.7474Z" fill="#92E3A9" stroke="#263238" stroke-linecap="round" stroke-linejoin="round"/>
<path d="M124.211 23.4492C126.05 23.2173 127.904 23.0824 129.763 23.0453C132.178 23.0453 134.571 23.1474 134.571 23.1474L140.609 18.3316L128.459 16.0236L129.426 11.412C129.426 11.412 138.359 10.9105 142.826 11.6117C147.293 12.313 154.298 14.1195 154.661 14.1195C155.024 14.1195 155.505 15.2247 155.142 16.0236C154.779 16.8225 143.419 27.2618 140.026 29.9693C137.807 31.7761 135.711 33.6847 133.748 35.6861L132.199 58.056C132.199 58.056 136.185 59.8625 136.912 60.4617C137.638 61.0609 138.482 63.471 138.482 63.471C138.482 63.471 131.114 60.9632 129.18 60.7635C127.246 60.5638 126.044 60.4617 125.681 59.8758C125.317 59.2899 122.298 32.4904 122.298 32.4904L122.421 23.964C122.421 23.964 122.4 23.4492 124.211 23.4492Z" fill="#7D7D7D" stroke="#263238" stroke-linecap="round" stroke-linejoin="round"/>
<path d="M131.456 37.1904L124.932 37.8917L125.536 39.8979L128.801 40.5992L131.937 39.3964L131.456 37.1904Z" stroke="#263238" stroke-linecap="round" stroke-linejoin="round"/>
<path d="M135.196 25.1533L133.748 35.6858L137.494 26.76" stroke="#263238" stroke-linecap="round" stroke-linejoin="round"/>
<path d="M140.63 18.3312C140.63 18.3312 143.649 18.8328 148.239 17.3281" stroke="#263238" stroke-linecap="round" stroke-linejoin="round"/>
<path d="M143.772 19.0323C145.755 19.0781 147.738 18.9442 149.687 18.6328" stroke="#263238" stroke-linecap="round" stroke-linejoin="round"/>
<path d="M113.707 22.6455L114.311 29.969C114.861 30.5704 115.574 31.056 116.391 31.3867C117.209 31.7174 118.108 31.884 119.018 31.8731C122.037 31.7755 122.4 29.969 122.4 29.969V23.9504L113.707 22.6455Z" fill="white" stroke="#263238" stroke-linecap="round" stroke-linejoin="round"/>
<path d="M122.517 26.4576L122.277 32.4851L124.815 29.174C124.815 29.174 127.593 32.0812 128.315 31.9836C129.036 31.8859 127.834 30.6786 127.593 29.5779C127.353 28.4772 125.296 24.558 125.055 23.4572C124.815 22.3565 122.517 22.1523 122.384 22.6539C122.317 23.0871 122.317 23.5256 122.384 23.9588L122.517 26.4576Z" fill="#7D7D7D" stroke="#263238" stroke-linecap="round" stroke-linejoin="round"/>
<path d="M114.188 31.873C114.188 31.873 114.669 59.9597 113.461 60.2793C112.254 60.5989 107.423 60.6832 104.378 61.886C101.332 63.0889 99.9112 63.5904 99.9112 63.5904C99.9112 63.5904 101.359 60.6832 103.053 59.3783C104.179 58.5378 105.437 57.8285 106.793 57.27L103.657 43.8303C103.657 43.8303 97.8595 31.0874 97.7366 30.3861C97.6137 29.6848 108.727 24.4696 111.019 23.5642C113.311 22.6587 113.921 23.4665 113.921 23.4665L114.188 31.873Z" fill="#7D7D7D" stroke="#263238" stroke-linecap="round" stroke-linejoin="round"/>
<path d="M111.169 22.1438C111.169 22.1438 108.273 29.7691 108.027 30.7722C107.781 31.7753 108.027 31.7753 108.877 31.0695C109.726 30.3638 111.896 28.6639 111.896 28.6639L114.188 31.8729L114.065 25.9564V22.5432C114.065 22.5432 113.947 21.1407 111.169 22.1438Z" fill="#7D7D7D" stroke="#263238" stroke-linecap="round" stroke-linejoin="round"/>
<path d="M105.495 38.5977H112.617L112.499 41.0033L109.358 41.9043L105.372 41.0033L105.495 38.5977Z" stroke="#263238" stroke-linecap="round" stroke-linejoin="round"/>
<path d="M125.055 12.2154C125.055 12.2154 126.744 18.3316 127.107 19.317C127.47 20.3023 125.178 24.2348 124.436 25.1358C124.153 25.5266 123.764 25.857 123.3 26.1005C122.836 26.3441 122.31 26.494 121.764 26.5384C120.92 26.5384 116.33 25.2379 115.24 24.6343C114.15 24.0306 113.071 23.3294 113.071 23.3294C112.557 23.5239 111.987 23.5898 111.429 23.5188C110.871 23.4478 110.35 23.2432 109.929 22.9299C108.481 21.8247 106.547 20.5198 107.028 19.6188C107.262 19.1767 107.655 18.805 108.152 18.5541C108.648 18.3033 109.226 18.1853 109.807 18.2162C111.137 18.2162 110.656 18.1142 110.656 18.1142C110.656 18.1142 108.241 15.2069 108.241 12.8989C108.241 10.5909 113.429 8.9043 116.448 8.9043C118.535 8.97656 120.586 9.38507 122.485 10.1071L125.055 12.2154Z" fill="white" stroke="#263238" stroke-linecap="round" stroke-linejoin="round"/>
<path d="M120.829 14.5186L123.004 17.9317L120.829 19.1346L119.862 18.1315" stroke="#263238" stroke-linecap="round" stroke-linejoin="round"/>
<path d="M124.815 17.6299C124.815 17.6299 124.933 18.4332 123.485 19.7382" stroke="#263238" stroke-linecap="round" stroke-linejoin="round"/>
<path d="M118.537 15.775C118.537 16.2455 118.291 16.6272 118.003 16.6272C117.714 16.6272 117.468 16.2455 117.468 15.775C117.468 15.3046 117.714 14.9229 118.003 14.9229C118.291 14.9229 118.537 15.3046 118.537 15.775Z" fill="#263238"/>
<path d="M122.336 15.0198C122.637 15.0198 122.881 14.6383 122.881 14.1676C122.881 13.697 122.637 13.3154 122.336 13.3154C122.035 13.3154 121.791 13.697 121.791 14.1676C121.791 14.6383 122.035 15.0198 122.336 15.0198Z" fill="#263238"/>
<path d="M112.013 6.99528C112.013 6.99528 104.415 9.30329 104.164 12.2149C103.913 15.1266 110.928 19.1345 111.292 19.6361C111.655 20.1376 112.74 19.0324 112.74 19.0324C112.498 18.7629 112.33 18.4532 112.246 18.1246C112.162 17.7959 112.165 17.4561 112.254 17.1283C112.617 16.1252 114.188 14.9091 114.188 14.4209C114.188 13.9326 112.376 14.8203 112.376 13.3157C112.376 11.811 116.843 10.91 119.499 11.0077C122.154 11.1053 124.452 14.8203 126.386 13.0139C128.32 11.2074 125.536 10.7103 125.536 10.7103C125.536 10.7103 129.276 10.3064 129.276 8.70409C129.276 7.1018 127.342 5.99218 126.498 5.99218C125.654 5.99218 123.362 7.19945 123.362 5.89453C123.362 4.58962 125.654 3.98599 123.479 1.8999C121.305 -0.186189 118.532 1.8999 118.532 2.70326C118.532 3.50663 117.805 5.00684 117.324 5.00684C116.843 5.00684 115.39 3.20481 113.702 4.20791C113.194 4.54321 112.78 4.96613 112.488 5.4474C112.197 5.92867 112.035 6.45681 112.013 6.99528Z" fill="#263238" stroke="#263238" stroke-linecap="round" stroke-linejoin="round"/>
<path d="M115.155 14.7229L119.018 13.5156" stroke="#263238" stroke-linecap="round" stroke-linejoin="round"/>
<path d="M119.622 12.1127C119.548 11.7978 119.608 11.4713 119.793 11.1895" stroke="#263238" stroke-linecap="round" stroke-linejoin="round"/>
<path d="M119.792 11.1807C120.065 10.7368 120.679 10.1643 122.037 9.69824" stroke="white" stroke-linecap="round" stroke-linejoin="round"/>
</g>
<defs>
<filter id="filter0_d" x="13.9036" y="0.5" width="199.42" height="205.097" filterUnits="userSpaceOnUse" color-interpolation-filters="sRGB">
<feFlood flood-opacity="0" result="BackgroundImageFix"/>
<feColorMatrix in="SourceAlpha" type="matrix" values="0 0 0 0 0 0 0 0 0 0 0 0 0 0 0 0 0 0 127 0"/>
<feOffset dy="4"/>
<feGaussianBlur stdDeviation="2"/>
<feColorMatrix type="matrix" values="0 0 0 0 0 0 0 0 0 0 0 0 0 0 0 0 0 0 0.5 0"/>
<feBlend mode="normal" in2="BackgroundImageFix" result="effect1_dropShadow"/>
<feBlend mode="normal" in="SourceGraphic" in2="effect1_dropShadow" result="shape"/>
</filter>
</defs>
</svg>
