<svg width="168" height="169" viewBox="0 0 168 169" fill="none" xmlns="http://www.w3.org/2000/svg">
<path d="M58.4941 41.2812H24.8573V99.9229H58.4941V41.2812Z" fill="#263238" stroke="#263238" stroke-width="0.951651" stroke-linecap="round" stroke-linejoin="round"/>
<path d="M55.8044 45.9678H27.5505V95.2267H55.8044V45.9678Z" fill="white" stroke="#263238" stroke-width="0.951651" stroke-linecap="round" stroke-linejoin="round"/>
<path d="M41.8436 55.7446C43.6082 55.7446 45.0387 54.082 45.0387 52.031C45.0387 49.98 43.6082 48.3174 41.8436 48.3174C40.079 48.3174 38.6486 49.98 38.6486 52.031C38.6486 54.082 40.079 55.7446 41.8436 55.7446Z" fill="#92E3A9"/>
<path d="M34.2765 59.2617H48.4034" stroke="#263238" stroke-width="0.951651" stroke-miterlimit="10"/>
<path d="M34.2765 87.7998H48.4034" stroke="#263238" stroke-width="0.951651" stroke-miterlimit="10"/>
<path d="M29.9044 68.6445H53.7863" stroke="#263238" stroke-width="0.951651" stroke-miterlimit="10"/>
<path d="M29.9044 71.3809H53.7863" stroke="#263238" stroke-width="0.951651" stroke-miterlimit="10"/>
<path d="M29.9044 74.1162H53.7863" stroke="#263238" stroke-width="0.951651" stroke-miterlimit="10"/>
<path d="M29.9044 76.8564H53.7863" stroke="#263238" stroke-width="0.951651" stroke-miterlimit="10"/>
<path d="M29.9044 79.5918H53.7863" stroke="#263238" stroke-width="0.951651" stroke-miterlimit="10"/>
<path d="M15.3392 155.257C15.3392 155.257 15.5584 146.195 15.2827 138.414C15.007 130.634 15.5619 113.914 15.5619 113.914" stroke="#263238" stroke-width="0.988167" stroke-miterlimit="10"/>
<path d="M15.4346 123.732L12.388 120.951" stroke="#263238" stroke-width="0.988167" stroke-miterlimit="10"/>
<path d="M15.4028 125.651L16.4844 123.609" stroke="#263238" stroke-width="0.988167" stroke-miterlimit="10"/>
<path d="M15.1555 133.712L17.8593 131.111" stroke="#263238" stroke-width="0.988167" stroke-miterlimit="10"/>
<path d="M15.5619 117.333L14.134 115.825" stroke="#263238" stroke-width="0.988167" stroke-miterlimit="10"/>
<path d="M15.1272 135.124L13.3423 132.894" stroke="#263238" stroke-width="0.988167" stroke-miterlimit="10"/>
<path d="M15.2862 143.869L11.5645 139.926" stroke="#263238" stroke-width="0.988167" stroke-miterlimit="10"/>
<path d="M15.3817 148.73C16.3287 148.304 17.2497 147.805 18.1385 147.234" stroke="#263238" stroke-width="0.988167" stroke-miterlimit="10"/>
<path d="M13.3282 125.133C11.8367 123.79 6.83197 124.028 5.85648 126.83C4.88099 129.631 7.94176 134.142 10.8965 133.813C12.0523 133.686 12.5506 133.592 13.0171 132.844L8.88545 128.177L13.3388 132.339C13.4689 132.07 13.572 131.784 13.6463 131.488C13.7021 131.269 13.7481 131.047 13.7841 130.823C14.0704 129.159 14.7243 126.386 13.3282 125.133Z" fill="#92E3A9"/>
<path d="M23.016 121.9C23.016 121.929 23.016 121.962 22.9983 121.995C22.5954 124.074 20.5525 125.253 18.8348 125.076C18.5959 125.05 18.3594 125.001 18.1279 124.928C17.7262 125.672 17.4772 126.512 17.3999 127.386C17.3227 128.259 17.4194 129.141 17.6826 129.964C17.7589 130.196 17.8573 130.416 17.9759 130.622C18.4955 130.141 23.8995 124.776 23.8995 124.776L18.2763 131.069C19.9658 133.177 23.949 132.889 25.3451 128.978C26.7412 125.068 24.9705 122.459 23.016 121.9Z" fill="#92E3A9"/>
<path d="M20.2626 114.633C17.3468 113.89 14.7384 115.426 14.7879 118.963C14.7958 119.75 14.9437 120.527 15.2223 121.245C15.5009 121.962 15.9041 122.605 16.4066 123.133L19.3826 118.339L16.8555 123.535C17.0915 123.719 17.3425 123.876 17.6048 124.004C17.9758 124.176 18.3662 124.285 18.764 124.328C20.4782 124.501 22.5246 123.322 22.9276 121.243C23.38 118.906 23.1785 115.377 20.2626 114.633Z" fill="#92E3A9"/>
<path d="M16.859 102.33C16.859 102.33 16.5586 102.433 14.6924 103.493C12.8263 104.553 11.3524 107.987 12.8404 110.92C13.6781 112.592 14.65 113.224 15.3357 113.459L16.0814 105.029L15.781 113.57C15.922 113.588 16.0642 113.588 16.2051 113.57C17.4174 113.422 19.3366 111.737 19.5169 108.283C19.6971 104.828 16.859 102.33 16.859 102.33Z" fill="#92E3A9"/>
<path d="M8.33764 109.988L13.9644 115.217C14.026 114.979 14.044 114.728 14.0174 114.482C13.7594 111.487 11.1899 109.753 9.49338 109.141C7.79688 108.529 6.61993 109.63 7.70852 112.497C8.79711 115.365 11.6635 116.729 12.9394 116.314C13.2455 116.223 13.519 116.022 13.7205 115.739L8.33764 109.988Z" fill="#92E3A9"/>
<path d="M12.2113 116.7C10.9955 116.745 9.03038 115.739 7.8817 113.796C6.70122 113.767 5.72219 114.416 5.40763 116.137C4.83506 119.259 6.77544 122.529 9.57467 122.127C10.7976 121.954 11.5044 121.465 11.9074 120.973L6.89914 115.665L12.2573 120.41C12.3614 120.187 12.4274 119.943 12.4517 119.691C12.6276 118.688 12.544 117.648 12.2113 116.7Z" fill="#92E3A9"/>
<path d="M12.1795 134.052C11.7249 134.283 11.2395 134.422 10.7445 134.463C8.91372 134.635 7.04756 132.992 6.12509 131.024C5.00115 131.234 4.10342 131.936 3.88782 133.362C3.33292 137.014 6.24172 141.828 9.1894 141.068C9.95486 140.895 10.6635 140.477 11.2358 139.861L4.80323 132.688L11.5928 139.38C11.9814 138.799 12.2314 138.109 12.3173 137.379C12.6355 136.29 12.5863 135.101 12.1795 134.052Z" fill="#92E3A9"/>
<path d="M25.0906 141.546C22.9346 138.641 20.3651 141.242 20.3651 141.242C20.3651 141.242 18.7888 141.845 18.195 144.438C18.0103 145.225 18.0374 146.059 18.2728 146.828L24.7654 142.441L18.4318 147.247C19.0221 148.55 20.3121 149.347 22.0758 148.772C24.9351 147.831 27.2501 144.45 25.0906 141.546Z" fill="#92E3A9"/>
<path d="M19.7113 152.521H10.7269V167.984H19.7113V152.521Z" fill="#263238"/>
<path d="M117.589 16.584H78.7674L78.2549 22.7871H117.589V16.584Z" stroke="#263238" stroke-width="0.94773" stroke-miterlimit="10"/>
<path d="M117.589 22.7861H78.7674L78.2549 28.9892H117.589V22.7861Z" stroke="#263238" stroke-width="0.94773" stroke-miterlimit="10"/>
<path d="M117.589 28.9893H78.7674L78.2549 35.1923H117.589V28.9893Z" stroke="#263238" stroke-width="0.94773" stroke-miterlimit="10"/>
<path d="M117.589 35.1924H78.7674L78.2549 41.3955H117.589V35.1924Z" stroke="#263238" stroke-width="0.94773" stroke-miterlimit="10"/>
<path d="M117.589 41.3955H78.7674L78.2549 47.5986H117.589V41.3955Z" stroke="#263238" stroke-width="0.94773" stroke-miterlimit="10"/>
<path d="M117.589 47.5996H78.7674L78.2549 53.8027H117.589V47.5996Z" stroke="#263238" stroke-width="0.94773" stroke-miterlimit="10"/>
<path d="M117.589 53.8018H78.7674L78.2549 60.0048H117.589V53.8018Z" stroke="#263238" stroke-width="0.94773" stroke-miterlimit="10"/>
<path d="M117.589 60.0049H78.7674L78.2549 66.208H117.589V60.0049Z" stroke="#263238" stroke-width="0.94773" stroke-miterlimit="10"/>
<path d="M117.589 66.208H78.7674L78.2549 72.4111H117.589V66.208Z" stroke="#263238" stroke-width="0.94773" stroke-miterlimit="10"/>
<path d="M117.589 72.4111H78.7674L78.2549 78.6142H117.589V72.4111Z" stroke="#263238" stroke-width="0.94773" stroke-miterlimit="10"/>
<path d="M117.589 78.6143H78.7674L78.2549 84.8173H117.589V78.6143Z" stroke="#263238" stroke-width="0.94773" stroke-miterlimit="10"/>
<path d="M117.589 84.8174H78.7674L78.2549 91.0205H117.589V84.8174Z" stroke="#263238" stroke-width="0.94773" stroke-miterlimit="10"/>
<path d="M117.589 91.0205H78.7674L78.2549 97.2236H117.589V91.0205Z" stroke="#263238" stroke-width="0.94773" stroke-miterlimit="10"/>
<path d="M117.589 97.2236H78.7674L78.2549 103.427H117.589V97.2236Z" stroke="#263238" stroke-width="0.94773" stroke-miterlimit="10"/>
<path d="M117.589 103.427H78.7674L78.2549 109.63H117.589V103.427Z" stroke="#263238" stroke-width="0.94773" stroke-miterlimit="10"/>
<path d="M157.496 16.584H118.674L118.162 22.7871H157.496V16.584Z" stroke="#263238" stroke-width="0.94773" stroke-miterlimit="10"/>
<path d="M157.496 22.7861H118.674L118.162 28.9892H157.496V22.7861Z" stroke="#263238" stroke-width="0.94773" stroke-miterlimit="10"/>
<path d="M157.496 28.9893H118.674L118.162 35.1923H157.496V28.9893Z" stroke="#263238" stroke-width="0.94773" stroke-miterlimit="10"/>
<path d="M157.496 35.1924H118.674L118.162 41.3955H157.496V35.1924Z" stroke="#263238" stroke-width="0.94773" stroke-miterlimit="10"/>
<path d="M157.496 41.3955H118.674L118.162 47.5986H157.496V41.3955Z" stroke="#263238" stroke-width="0.94773" stroke-miterlimit="10"/>
<path d="M157.496 47.5996H118.674L118.162 53.8027H157.496V47.5996Z" stroke="#263238" stroke-width="0.94773" stroke-miterlimit="10"/>
<path d="M157.496 53.8018H118.674L118.162 60.0048H157.496V53.8018Z" stroke="#263238" stroke-width="0.94773" stroke-miterlimit="10"/>
<path d="M157.496 60.0049H118.674L118.162 66.208H157.496V60.0049Z" stroke="#263238" stroke-width="0.94773" stroke-miterlimit="10"/>
<path d="M157.496 66.208H118.674L118.162 72.4111H157.496V66.208Z" stroke="#263238" stroke-width="0.94773" stroke-miterlimit="10"/>
<path d="M157.496 72.4111H118.674L118.162 78.6142H157.496V72.4111Z" stroke="#263238" stroke-width="0.94773" stroke-miterlimit="10"/>
<path d="M157.496 78.6143H118.674L118.162 84.8173H157.496V78.6143Z" stroke="#263238" stroke-width="0.94773" stroke-miterlimit="10"/>
<path d="M157.496 84.8174H118.674L118.162 91.0205H157.496V84.8174Z" stroke="#263238" stroke-width="0.94773" stroke-miterlimit="10"/>
<path d="M157.496 91.0205H118.674L118.162 97.2236H157.496V91.0205Z" stroke="#263238" stroke-width="0.94773" stroke-miterlimit="10"/>
<path d="M157.496 97.2236H118.674L118.162 103.427H157.496V97.2236Z" stroke="#263238" stroke-width="0.94773" stroke-miterlimit="10"/>
<path d="M157.496 103.427H118.674L118.162 109.63H157.496V103.427Z" stroke="#263238" stroke-width="0.94773" stroke-miterlimit="10"/>
<path d="M159.44 11.7773H77.3501V16.4564H159.44V11.7773Z" stroke="#263238" stroke-width="0.94773" stroke-miterlimit="10"/>
<path d="M159.44 16.46V98.8746" stroke="#263238" stroke-width="0.94773" stroke-miterlimit="10"/>
<path d="M158.546 16.5918V73.1342" stroke="#263238" stroke-width="0.94773" stroke-miterlimit="10"/>
<path d="M160.019 98.6904H158.917V100.79H160.019V98.6904Z" fill="#263238" stroke="#263238" stroke-width="0.94773" stroke-miterlimit="10"/>
<path d="M159.026 72.6865H157.923V74.7857H159.026V72.6865Z" fill="#263238" stroke="#263238" stroke-width="0.94773" stroke-miterlimit="10"/>
<path d="M144.21 167.987C145.624 162.861 151.328 141.626 151.328 136.73C151.328 131.155 149.628 130.436 146.38 129.335C143.132 128.234 116.207 128.797 112.959 129.697C109.711 130.596 108.315 134.215 107.696 137.432C107.138 140.353 101.921 163.469 100.907 167.967L144.21 167.987Z" fill="white" stroke="#263238" stroke-width="0.988167" stroke-linecap="round" stroke-linejoin="round"/>
<path d="M144.21 167.988C145.624 162.862 151.328 141.627 151.328 136.731C151.328 131.735 149.96 130.638 147.334 129.689L147.306 129.718C147.306 129.718 144.365 129.18 143.436 132.955C142.701 135.946 137.897 158.651 135.925 167.988H144.21Z" fill="#263238" stroke="#263238" stroke-width="0.988167" stroke-linecap="round" stroke-linejoin="round"/>
<path d="M54.0018 139.622C54.0018 139.622 56.8293 142.909 59.1408 143.887C61.4523 144.864 64.1561 143.476 64.1561 143.476C64.1561 143.476 62.4419 137.786 58.5258 135.227C54.6097 132.668 53.0228 136.78 54.0018 139.622Z" fill="white" stroke="#263238" stroke-width="0.988167" stroke-linecap="round" stroke-linejoin="round"/>
<path d="M51.1884 135.642C51.1884 135.642 46.1732 142.892 47.2723 143.886C48.3715 144.88 51.3086 139.055 51.6762 138.768C52.0438 138.48 52.7789 135.781 51.1884 135.642Z" fill="white" stroke="#263238" stroke-width="0.988167" stroke-linecap="round" stroke-linejoin="round"/>
<path d="M53.6342 133.509C53.6342 133.509 51.9201 132.511 51.1884 133.509C50.4568 134.507 50.835 137.773 50.941 140.189C51.0471 142.604 51.4323 146.305 52.6552 145.451C53.8781 144.597 53.7579 137.773 53.7579 136.208C53.7606 135.306 53.7193 134.405 53.6342 133.509Z" fill="white" stroke="#263238" stroke-width="0.988167" stroke-linecap="round" stroke-linejoin="round"/>
<path d="M56.9389 133.649C56.9389 133.649 54.7334 132.372 53.7579 132.655C52.7824 132.939 52.5315 140.05 52.5315 142.465C52.5315 144.881 54.122 146.306 54.6132 145.312C55.1045 144.318 55.5923 136.919 55.9598 135.781C56.2144 135.029 56.5429 134.314 56.9389 133.649Z" fill="white" stroke="#263238" stroke-width="0.988167" stroke-linecap="round" stroke-linejoin="round"/>
<path d="M84.2349 145.451C84.2349 145.451 83.6235 144.313 78.7319 143.175C73.8403 142.037 67.231 140.049 66.4958 139.622C65.7607 139.195 59.8724 134.224 58.1617 133.082C56.4511 131.94 55.7124 133.493 55.3342 135.07C54.9561 136.648 53.7438 143.886 53.8639 144.597C53.9841 145.307 55.0868 146.306 55.4544 145.311C55.822 144.317 57.4125 138.628 57.5362 138.057C57.6599 137.486 61.5724 142.608 62.5514 143.746C63.5305 144.884 64.6297 145.595 65.9763 145.595C66.7121 145.602 67.4477 145.554 68.1782 145.451C68.1782 145.451 81.6336 155.832 84.0829 157.11C86.5323 158.387 88.6069 156.826 88.8508 155.976C89.0947 155.125 89.3421 150.003 87.9955 148.171C86.6489 146.338 84.2349 145.451 84.2349 145.451Z" fill="white" stroke="#263238" stroke-width="0.988167" stroke-linecap="round" stroke-linejoin="round"/>
<path d="M63.1771 138.768C61.5161 138.432 59.9077 137.809 58.4057 136.919C56.0801 135.498 55.101 137.49 56.0801 139.055C57.0591 140.621 60.1163 141.044 60.1163 141.044C60.1163 141.044 61.9542 144.457 64.5237 145.312C65.2712 145.553 66.06 145.561 66.8112 145.336C67.5623 145.111 68.2495 144.661 68.8038 144.03" fill="white"/>
<path d="M63.1771 138.768C61.5161 138.432 59.9077 137.809 58.4057 136.919C56.0801 135.498 55.101 137.49 56.0801 139.055C57.0591 140.621 60.1163 141.044 60.1163 141.044C60.1163 141.044 61.9542 144.457 64.5237 145.312C65.2712 145.553 66.06 145.561 66.8112 145.336C67.5623 145.111 68.2495 144.661 68.8038 144.03" stroke="#263238" stroke-width="0.988167" stroke-linecap="round" stroke-linejoin="round"/>
<path d="M88.5009 122.845C88.5009 122.845 83.9734 140.476 85.1963 141.897C86.4192 143.319 90.5792 146.872 91.2048 146.005C91.8303 145.139 93.6505 138.04 93.6505 133.92C93.6505 129.799 89.3563 120.285 88.5009 122.845Z" fill="#92E3A9" stroke="#263238" stroke-width="0.988167" stroke-linecap="round" stroke-linejoin="round"/>
<path d="M92.6574 144.741C92.6574 144.741 88.1334 140.333 86.6489 139.906C85.1645 139.479 85.0584 139.339 83.9593 141.615C82.8601 143.891 82.4925 144.901 83.4715 145.723C84.4505 146.544 87.8754 151.979 90.0773 152.407C92.2792 152.834 92.9048 148.865 92.6574 144.741Z" fill="#92E3A9" stroke="#263238" stroke-width="0.988167" stroke-linecap="round" stroke-linejoin="round"/>
<path d="M83.6235 167.988H131.486C131.886 166.206 134.699 153.528 135.727 147.584C136.83 141.188 138.788 118.721 138.788 115.024C138.788 111.327 138.665 101.878 136.706 98.1813C134.748 94.4841 126.676 86.8062 121.537 83.8033C116.398 80.8003 112.347 78.2575 109.672 77.974C106.996 77.6906 97.192 87.0732 94.1207 95.3221C94.1207 95.3221 88.1122 100.441 87.6351 103.711C87.1579 106.981 87.1473 110.879 88.3702 118.273C89.5931 125.668 90.0915 130.528 90.0915 130.528C90.0915 130.528 85.5639 146.163 84.9419 152.563C84.394 158.388 83.7366 166.567 83.6235 167.988Z" fill="#92E3A9" stroke="#263238" stroke-width="0.988167" stroke-linecap="round" stroke-linejoin="round"/>
<path d="M92.6751 103.253C92.6751 103.253 91.3285 104.995 92.3747 104.995C93.4208 104.995 94.771 102.732 95.9691 103.253C97.1673 103.775 100.758 106.733 100.758 106.733C100.758 106.733 102.706 108.302 103.303 107.78C103.9 107.259 107.346 102.387 109.294 103.414C111.241 104.441 113.334 107.242 113.634 105.85C113.934 104.457 111.687 97.8431 110.789 94.7128C109.891 91.5825 100.461 89.8407 97.0047 93.3202C93.5481 96.7997 92.6751 103.253 92.6751 103.253Z" fill="#263238" stroke="#263238" stroke-width="0.988167" stroke-linecap="round" stroke-linejoin="round"/>
<path d="M102.487 108.887C102.487 108.887 101.221 109.762 101.221 115.735C101.245 119.679 101.449 123.618 101.833 127.537C101.833 127.537 100.733 127.948 100.857 128.815C100.981 129.681 102.692 129.813 102.692 129.813C102.692 129.813 94.4953 151.585 94.004 163.938" stroke="#263238" stroke-width="0.988167" stroke-linecap="round" stroke-linejoin="round"/>
<path d="M109.736 126.312C110.262 126.275 110.771 126.255 111.255 126.255" stroke="#263238" stroke-width="0.988167" stroke-linecap="round" stroke-linejoin="round"/>
<path d="M95.2269 129.241C95.2269 129.241 102.084 127.187 107.845 126.493" stroke="#263238" stroke-width="0.988167" stroke-linecap="round" stroke-linejoin="round"/>
<path d="M98.5316 130.807C98.5316 130.807 106.36 128.815 111.867 128.531" stroke="#263238" stroke-width="0.988167" stroke-linecap="round" stroke-linejoin="round"/>
<path d="M94.9441 93.9085C94.9441 93.9085 93.7035 97.7947 92.5584 100.679C91.4133 103.562 89.6955 105.115 90.7453 105.226C91.795 105.337 95.2304 102.12 96.0893 101.118C96.9481 100.116 98.6658 103.447 99.3374 104.667C100.009 105.887 102.009 109.104 102.486 108.882C102.964 108.66 108.117 100.896 109.071 99.7871C110.025 98.6779 112.51 105.444 113.941 106.771C115.373 108.098 114.8 105.329 114.609 103.665C114.419 102.001 113.655 88.4654 112.701 82.2542C111.747 76.0429 108.498 73.4877 106.781 73.2659C105.063 73.044 102.186 73.2659 100.482 75.8169C98.7789 78.368 94.9441 93.9085 94.9441 93.9085Z" fill="#92E3A9" stroke="#263238" stroke-width="0.988167" stroke-linecap="round" stroke-linejoin="round"/>
<path d="M95.8984 94.6889C95.8984 94.6889 99.4328 99.6801 100.493 103.673C101.553 107.666 102.497 109.999 102.967 108.664C103.437 107.329 107.562 94.1302 107.834 87.9189C108.106 81.7076 107.739 78.9306 107.166 76.9341C106.593 74.9376 104.78 70.0573 104.78 70.0573C104.78 70.0573 101.345 69.6137 100.295 72.3866C99.2455 75.1595 97.1425 85.4787 95.9974 88.8185C95.306 90.6852 95.2705 92.7922 95.8984 94.6889Z" fill="white" stroke="#263238" stroke-width="0.988167" stroke-linecap="round" stroke-linejoin="round"/>
<path d="M104.028 77.1228L100.539 73.8857L98.468 79.1768C97.5808 82.874 96.6371 86.9451 95.9939 88.8101C95.3008 90.6809 95.2666 92.7929 95.8985 94.6927C97.0862 96.4063 98.1591 98.2233 99.1077 100.128C102.755 91.7843 104.028 77.1228 104.028 77.1228Z" fill="#263238" stroke="#263238" stroke-width="0.988167" stroke-linecap="round" stroke-linejoin="round"/>
<path d="M74.0912 53.4608C74.0912 53.4608 71.8822 60.8798 73.4762 64.1416C75.0702 67.4033 78.3855 71.1252 79.983 75.9808C81.5806 80.8365 83.2948 85.6798 83.0509 89.1018C82.807 92.5237 82.8035 96.6646 84.7686 98.6611C86.7337 100.658 92.1307 100.514 96.1811 96.948C100.232 93.3823 100.493 85.9797 100.493 85.9797C100.493 85.9797 103.911 79.8465 104.027 77.1229C104.144 74.3993 104.151 71.8441 104.151 71.8441C104.151 71.8441 107.71 68.8494 107.71 63.4309C107.71 58.0125 105.869 57.8646 105.869 57.8646C104.596 56.1077 103.742 53.9926 103.395 51.7313C102.783 47.8822 101.801 43.7454 98.8567 42.6034C95.9125 41.4614 88.5469 43.7454 83.885 46.8839C79.2231 50.0224 74.0912 53.4608 74.0912 53.4608Z" fill="white" stroke="#263238" stroke-width="0.988167" stroke-linecap="round" stroke-linejoin="round"/>
<path d="M79.1243 55.4577C78.4945 54.7724 77.7076 54.3136 76.8584 54.1364C76.0093 53.9593 75.1342 54.0715 74.3387 54.4595C71.391 55.7453 71.0234 59.882 71.0234 59.882C71.0234 59.882 68.6907 58.8838 68.6907 57.3145V54.747C68.6907 54.747 66.3616 57.027 66.973 59.0235C67.4151 60.2815 68.2477 61.3005 69.3057 61.8785C69.3057 61.8785 64.6439 61.591 63.17 58.5921C61.6962 55.5933 64.5202 52.6027 64.5202 52.6027L62.9226 52.4753C62.9226 52.4753 64.6439 49.6244 67.0967 48.9096C69.5496 48.1948 70.7796 48.4988 70.7796 48.4988L68.5706 47.5005C68.5706 47.5005 70.8997 44.9331 72.8649 44.5058C73.9103 44.2527 74.9793 44.1561 76.0458 44.2183C76.0458 44.2183 83.6518 37.6455 90.4025 37.0868C97.1532 36.5281 102.674 40.5128 104.268 44.6455C105.862 48.7781 105.865 55.6303 105.865 56.7723V57.9102C105.865 57.9102 103.391 57.9102 102.798 59.6232C102.204 61.3363 103.041 63.6162 102.059 64.1872C101.076 64.7582 99.3621 63.4765 98.6235 62.1907C97.8848 60.9049 98.5033 59.196 97.6409 58.4935C96.7785 57.7911 93.7142 58.9043 91.8763 57.4953C90.0384 56.0863 90.5262 51.3621 91.5229 49.6531C92.5196 47.9442 98.2736 45.0892 97.906 44.0909C97.5384 43.0927 91.7703 47.6567 90.7877 49.0821C89.8052 50.5076 86.246 53.5023 83.7932 54.5006C82.2874 55.0919 80.7132 55.4146 79.1243 55.4577Z" fill="#263238" stroke="#263238" stroke-width="0.988167" stroke-linecap="round" stroke-linejoin="round"/>
<path d="M102.069 64.1578C103.052 63.5868 102.193 61.3069 102.808 59.5938C103.423 57.8808 105.876 57.8808 105.876 57.8808V56.7429C105.891 53.8293 105.662 50.9209 105.194 48.0586C103.073 48.0586 101.083 48.4406 99.5388 49.3444C97.4995 50.5275 99.0298 50.2317 100.557 51.1232C102.084 52.0146 97.7539 52.3063 94.7002 54.0809C91.6465 55.8556 91.8975 57.4536 91.8975 57.4536C93.7353 58.8832 96.8032 57.7411 97.662 58.4518C98.5209 59.1625 97.9094 60.8796 98.6446 62.149C99.3798 63.4184 101.09 64.7288 102.069 64.1578Z" fill="white" stroke="#8C8C8C" stroke-width="0.988167" stroke-linecap="round" stroke-linejoin="round"/>
<path d="M102.942 59.1841C102.87 59.1504 102.789 59.1442 102.713 59.1663C102.637 59.1884 102.569 59.2377 102.518 59.3073L97.3617 66.2909C97.3149 66.3558 97.2849 66.4348 97.2752 66.5187C97.2655 66.6026 97.2764 66.688 97.3067 66.765C97.3371 66.842 97.3856 66.9074 97.4466 66.9536C97.5076 66.9998 97.5787 67.025 97.6515 67.0262C97.7067 67.0266 97.7614 67.0129 97.8115 66.9859C97.8616 66.9589 97.9059 66.9194 97.9413 66.8701L102.568 60.6013C102.587 60.0996 102.716 59.6119 102.942 59.1841Z" fill="#263238"/>
<path d="M96.8138 80.8202C94.2196 79.8466 88.614 80.5285 87.4406 81.5021C87.4406 81.5021 84.3268 84.197 82.7576 85.4746C83.0085 86.6645 83.1074 87.8909 83.0509 89.1143C82.8035 92.5403 82.8035 96.6771 84.7686 98.6736C86.7337 100.67 92.1308 100.526 96.1812 96.9605C100.232 93.3948 100.493 85.9799 100.493 85.9799C100.493 85.9799 99.4116 81.7979 96.8138 80.8202Z" fill="#263238" stroke="#263238" stroke-width="0.988167" stroke-linecap="round" stroke-linejoin="round"/>
<path d="M85.5144 85.4953C85.5144 85.4953 86.292 87.5123 89.6002 87.5123C92.9083 87.5123 93.9263 82.7799 93.9263 82.7799C93.9263 82.7799 91.127 81.3011 88.8367 81.8926C86.5464 82.4842 85.5144 85.4953 85.5144 85.4953Z" fill="white" stroke="#263238" stroke-width="0.988167" stroke-linecap="round" stroke-linejoin="round"/>
<path d="M81.054 69.5273C81.2908 70.3119 81.2025 71.0637 80.8526 71.2075C80.5027 71.3513 80.0291 70.8254 79.7923 70.0408C79.5555 69.2562 79.6438 68.5003 79.9937 68.3606C80.3436 68.221 80.8031 68.7386 81.054 69.5273Z" fill="#263238"/>
<path d="M89.5789 67.289C89.8157 68.0736 89.7238 68.8254 89.3774 68.9692C89.0311 69.1129 88.5539 68.5912 88.3171 67.8025C88.0803 67.0138 88.1722 66.2661 88.5221 66.1223C88.872 65.9785 89.3421 66.5044 89.5789 67.289Z" fill="#263238"/>
<path d="M73.6 72.0046L97.6338 66.582C97.6338 66.582 98.3725 71.5774 97.0224 72.7153C95.6722 73.8532 90.2717 74.7159 88.8014 74.5721C87.3311 74.4283 85.6204 70.4641 85.6204 70.4641L84.0193 70.8749C84.022 71.7326 84.0633 72.5896 84.1431 73.4424C84.2166 74.1046 84.2579 74.7712 84.2668 75.4389V75.5826C83.1525 76.3978 81.8998 76.9233 80.5945 77.1231C78.2654 77.5668 75.3177 78.5651 73.6 72.0046Z" stroke="#263238" stroke-width="1.97633" stroke-linecap="round" stroke-linejoin="round"/>
<path d="M84.03 70.863L83.8674 69.9346" stroke="#263238" stroke-width="1.97633" stroke-linecap="round" stroke-linejoin="round"/>
<path d="M85.631 70.4645L85.3483 69.5361" stroke="#263238" stroke-width="1.97633" stroke-linecap="round" stroke-linejoin="round"/>
<path d="M75.6075 67.7568C75.5457 67.7883 75.493 67.8396 75.4555 67.9047L73.2783 71.7827C73.2408 71.8495 73.2195 71.9268 73.2166 72.0065C73.2138 72.0862 73.2294 72.1653 73.262 72.2355C73.2946 72.3057 73.3428 72.3645 73.4017 72.4055C73.4605 72.4465 73.5278 72.4684 73.5964 72.4687C73.6602 72.4687 73.7229 72.4503 73.779 72.4152C73.8352 72.3801 73.8829 72.3293 73.918 72.2674L76.0387 68.4757L75.6075 67.7568Z" fill="#263238"/>
<path d="M84.2527 71.5361C84.2527 71.5361 84.6344 78.0432 85.2706 79.5221C85.9068 81.001 91.1271 79.5221 91.5088 78.4869C91.8905 77.4517 91.1271 76.2685 91.1271 76.2685H89.8547" stroke="#263238" stroke-width="0.988167" stroke-linecap="round" stroke-linejoin="round"/>
<path d="M80.9126 66.2328C80.5798 65.983 80.1983 65.834 79.8032 65.7995C79.4081 65.7651 79.0118 65.8463 78.6506 66.0357C77.4807 66.7176 76.8092 68.1759 76.4734 68.1759C76.1376 68.1759 76.3073 65.6495 77.6468 64.6759C78.9864 63.7023 80.743 64.9676 81.0787 65.4523C81.4145 65.9371 81.2448 66.4424 80.9126 66.2328Z" fill="#263238" stroke="#263238" stroke-width="0.988167" stroke-linecap="round" stroke-linejoin="round"/>
<path d="M90.4201 62.8691C90.1788 62.5042 89.8621 62.2161 89.4994 62.0316C89.1367 61.847 88.7398 61.7719 88.3455 61.8133C87.0448 62.0023 85.9986 63.1196 85.6805 62.9882C85.3624 62.8567 86.246 60.5234 87.8012 60.1372C89.3563 59.7511 90.6287 61.612 90.816 62.1912C91.0033 62.7705 90.6817 63.1813 90.4201 62.8691Z" fill="#263238" stroke="#263238" stroke-width="0.988167" stroke-linecap="round" stroke-linejoin="round"/>
<path d="M79.9054 72.7515C79.9054 72.7515 81.9165 72.0696 83.0863 70.4141" stroke="#263238" stroke-width="0.988167" stroke-linecap="round" stroke-linejoin="round"/>
<path d="M87.4407 69.3467C87.4407 69.3467 88.6954 70.2217 91.2896 69.93" stroke="#263238" stroke-width="0.988167" stroke-linecap="round" stroke-linejoin="round"/>
<path d="M85.2706 79.5221C84.4618 80.639 83.5623 81.6625 82.5844 82.5785C81.4145 83.548 80.075 83.6466 80.1598 84.3285C80.2447 85.0104 83.256 86.3825 85.5144 85.4952C87.7729 84.6079 88.6954 83.2563 88.6954 83.2563C89.3789 83.9105 90.1709 84.394 91.0223 84.6767C91.8736 84.9594 92.7659 85.0352 93.6435 84.8995C96.5735 84.4148 99.4222 80.619 99.7545 79.744C100.087 78.869 99.0865 80.3273 96.5735 79.8385C94.869 79.4897 93.1818 79.0344 91.5194 78.4746C91.5194 78.4746 90.6322 79.2551 88.6247 79.8385C86.6172 80.4218 85.6134 79.5879 85.2706 79.5221Z" fill="#263238" stroke="#263238" stroke-width="0.988167" stroke-linecap="round" stroke-linejoin="round"/>
<path d="M83.2983 58.8509C83.2983 58.8509 85.6841 55.0798 88.6459 57.0762" stroke="#263238" stroke-width="0.988167" stroke-linecap="round" stroke-linejoin="round"/>
<path d="M65.8562 140.76C65.8562 140.76 63.8981 140.903 62.5551 139.765C61.212 138.628 59.8619 139.478 59.7276 140.616C59.5933 141.754 60.8268 143.902 62.2935 144.596C63.7603 145.291 67.4325 145.167 68.302 145.311C69.1714 145.455 70.5039 147.87 73.0699 149.008C75.6358 150.146 79.6792 149.863 79.6792 149.863C79.6792 149.863 79.5555 145.172 78.2089 142.879C76.8623 140.587 72.3382 138.188 70.2565 139.182C68.8277 139.842 67.3564 140.369 65.8562 140.76Z" fill="white" stroke="#263238" stroke-width="0.988167" stroke-linecap="round" stroke-linejoin="round"/>
<path d="M68.3302 137.63C68.3302 137.63 66.7397 137.774 66.0046 138.912C65.2694 140.05 62.8236 146.306 62.8236 148.155C62.8236 150.003 63.6789 152.135 64.2904 151.141C64.9018 150.147 65.0114 146.873 65.5027 145.316C65.994 143.759 68.4398 139.06 68.8073 138.772C69.1749 138.485 68.6836 137.511 68.3302 137.63Z" fill="white" stroke="#263238" stroke-width="0.988167" stroke-linecap="round" stroke-linejoin="round"/>
<path d="M71.8646 136.919C71.8646 136.919 69.9065 135.642 68.931 136.209C67.9555 136.775 66.6054 143.036 66.4817 144.885C66.358 146.733 66.8351 153.557 68.3196 153.413C69.804 153.269 69.0371 149.013 69.0371 146.162C69.0371 143.311 71.4828 139.179 71.4828 139.179L71.8646 136.919Z" fill="white" stroke="#263238" stroke-width="0.988167" stroke-linecap="round" stroke-linejoin="round"/>
<path d="M119.819 140.05C119.819 140.05 119.328 141.615 111.499 142.465C103.671 143.316 86.1754 144.597 85.8078 144.597C85.4402 144.597 77.7352 138.628 75.5333 136.92C73.3314 135.211 71.9989 135.358 71.0058 136.509C70.0126 137.659 67.8248 145.037 67.9485 146.175C68.0722 147.313 68.56 152.431 69.4153 152.859C70.2706 153.286 70.518 152.448 70.518 151.01C70.518 149.572 70.2706 144.753 70.2706 144.753L73.5753 141.34C73.5753 141.34 78.1028 150.866 81.5276 151.721C83.505 152.245 85.5587 152.245 87.5361 151.721C87.5361 151.721 105.028 158.704 115.673 158.832C126.319 158.959 133.533 160.253 135.003 155.545C136.473 150.837 125.336 140.346 123.99 139.762C122.643 139.179 119.819 140.05 119.819 140.05Z" fill="white" stroke="#263238" stroke-width="0.988167" stroke-linecap="round" stroke-linejoin="round"/>
<path d="M77.979 141.898C77.979 141.898 75.1515 139.195 74.3103 139.339C73.4692 139.482 70.776 141.614 69.6591 142.325C68.5422 143.036 66.6019 144.597 65.379 146.589C64.1561 148.582 65.2553 149.576 65.8667 148.865C66.4781 148.154 68.6942 145.878 69.1714 145.451C69.6485 145.024 73.3313 143.036 73.3313 143.036L79.2019 148.154" fill="white"/>
<path d="M77.979 141.898C77.979 141.898 75.1515 139.195 74.3103 139.339C73.4692 139.482 70.776 141.614 69.6591 142.325C68.5422 143.036 66.6019 144.597 65.379 146.589C64.1561 148.582 65.2553 149.576 65.8667 148.865C66.4781 148.154 68.6942 145.878 69.1714 145.451C69.6485 145.024 73.3313 143.036 73.3313 143.036L79.2019 148.154" stroke="#263238" stroke-width="0.988167" stroke-linecap="round" stroke-linejoin="round"/>
<path d="M124.955 102.181C124.955 102.181 120.307 105.086 120.183 110.631C120.06 116.177 121.042 134.803 121.042 134.803C121.042 134.803 119.452 137.646 121.53 139.355C123.608 141.063 135.6 149.308 137.191 146.605C138.781 143.902 140.616 125.704 140.616 112.763C140.616 99.8233 138.534 100.193 137.191 97.9172C135.848 95.6413 133.398 94.9307 133.398 94.9307" fill="#92E3A9"/>
<path d="M124.955 102.181C124.955 102.181 120.307 105.086 120.183 110.631C120.06 116.177 121.042 134.803 121.042 134.803C121.042 134.803 119.452 137.646 121.53 139.355C123.608 141.063 135.6 149.308 137.191 146.605C138.781 143.902 140.616 125.704 140.616 112.763C140.616 99.8233 138.534 100.193 137.191 97.9172C135.848 95.6413 133.398 94.9307 133.398 94.9307" stroke="#263238" stroke-width="0.988167" stroke-linecap="round" stroke-linejoin="round"/>
<path d="M130.829 136.353C130.829 136.353 122.753 133.222 121.53 133.366C120.307 133.51 120.183 135.642 118.702 137.63C117.221 139.619 117.352 141.369 117.84 141.656C118.328 141.944 124.495 143.328 128.531 148.163C132.568 152.998 132.525 158.248 133.996 158.109C135.466 157.969 135.586 155.406 136.823 151.281C138.06 147.157 139.513 144.03 138.534 141.044C137.555 138.057 130.829 136.353 130.829 136.353Z" fill="#92E3A9" stroke="#263238" stroke-width="0.988167" stroke-linecap="round" stroke-linejoin="round"/>
<path d="M118.473 138.485C118.473 138.485 126.545 137.63 131.684 142.326" stroke="#263238" stroke-width="0.988167" stroke-linecap="round" stroke-linejoin="round"/>
<path d="M123.855 137.207C123.855 137.207 131.073 138.485 133.886 142.465" stroke="#263238" stroke-width="0.988167" stroke-linecap="round" stroke-linejoin="round"/>
<path d="M100.726 167.988H104.466C120.12 162.323 142.443 167.167 142.669 167.232C143.097 167.357 143.542 167.38 143.978 167.298C144.414 167.216 144.831 167.031 145.203 166.756C145.575 166.48 145.895 166.119 146.143 165.695C146.391 165.271 146.562 164.792 146.646 164.289C146.729 163.785 146.724 163.267 146.629 162.766C146.534 162.265 146.353 161.792 146.095 161.375C145.838 160.958 145.51 160.607 145.132 160.343C144.753 160.079 144.333 159.907 143.895 159.838C142.874 159.608 118.709 154.333 101.38 161.23C100.798 161.46 100.284 161.878 99.8986 162.434C99.5131 162.991 99.2719 163.664 99.2033 164.374C99.1347 165.084 99.2415 165.802 99.5113 166.445C99.781 167.087 100.203 167.627 100.726 168V167.988Z" fill="white" stroke="#263238" stroke-width="0.988167" stroke-linecap="round" stroke-linejoin="round"/>
<path d="M103.36 167.988H107.095C122.749 162.323 145.072 167.167 145.302 167.232C145.73 167.358 146.176 167.381 146.613 167.299C147.049 167.218 147.466 167.033 147.839 166.758C148.212 166.482 148.532 166.121 148.78 165.696C149.029 165.271 149.2 164.792 149.283 164.288C149.367 163.784 149.361 163.265 149.265 162.763C149.17 162.262 148.988 161.788 148.73 161.372C148.471 160.955 148.143 160.604 147.764 160.34C147.384 160.077 146.963 159.906 146.525 159.838C145.507 159.608 121.339 154.333 104.01 161.23C103.428 161.461 102.914 161.879 102.529 162.435C102.144 162.992 101.903 163.665 101.835 164.375C101.767 165.086 101.874 165.804 102.144 166.446C102.414 167.088 102.836 167.627 103.36 168V167.988Z" fill="#263238" stroke="#263238" stroke-width="0.988167" stroke-linecap="round" stroke-linejoin="round"/>
<path d="M118.116 160.462C118.116 160.462 121.212 159.521 121.007 154.337C120.802 149.152 120.604 145.377 123.834 143.964C127.065 142.551 134.381 141.134 134.582 136.184C134.625 134.554 134.433 132.928 134.013 131.373" stroke="#263238" stroke-width="0.988167" stroke-linecap="round" stroke-linejoin="round"/>
<path d="M123.954 149.773C123.986 146.351 124.513 143.887 126.888 142.79C130.136 141.274 137.435 139.758 137.64 134.45C137.845 129.143 135.406 127.126 137.233 121.818" stroke="#263238" stroke-width="0.988167" stroke-linecap="round" stroke-linejoin="round"/>
<path d="M118.777 160.463C118.777 160.463 124.251 159.452 124.05 153.89C124.029 153.343 124.011 152.814 123.993 152.296" stroke="#263238" stroke-width="0.988167" stroke-linecap="round" stroke-linejoin="round"/>
<path d="M137.707 120.639C138.338 119.843 139.07 119.163 139.877 118.622" stroke="#263238" stroke-width="0.988167" stroke-linecap="round" stroke-linejoin="round"/>
<path d="M116.511 153.122L118.091 154.884C118.054 155.582 118.054 156.281 118.091 156.979C118.165 157.439 118.918 158.622 118.918 158.622C118.918 158.622 119.165 159.711 118.483 160.044C117.801 160.376 116.967 160.836 116.917 160.228C116.868 159.62 116.649 159.288 116.38 158.343C116.112 157.398 115.914 156.921 116.094 156.502L116.278 156.092L114.984 155.089C114.984 155.089 115.394 152.768 116.511 153.122Z" fill="white" stroke="#263238" stroke-width="0.988167" stroke-linecap="round" stroke-linejoin="round"/>
<path d="M114.984 155.089L116.158 155.964C117.108 154.703 118.098 154.867 118.098 154.867L116.511 153.122C115.394 152.768 114.984 155.089 114.984 155.089Z" fill="#8F8F8F" stroke="#263238" stroke-width="0.988167" stroke-linecap="round" stroke-linejoin="round"/>
<path d="M107.417 161.033L108.435 159.702C108.435 159.702 109.962 159.702 110.344 159.111C111.053 158.139 111.917 157.336 112.888 156.744C113.779 156.301 115.051 157.484 115.815 157.632C116.578 157.78 117.582 157.928 117.582 157.928C117.691 158.206 117.747 158.509 117.747 158.815C117.747 159.121 117.691 159.424 117.582 159.702L117.2 160.59L113.924 159.406C113.924 159.406 112.397 159.406 111.634 159.998C110.87 160.59 110.743 161.641 109.866 161.641C109.032 161.555 108.209 161.35 107.417 161.033Z" fill="white" stroke="#263238" stroke-width="0.988167" stroke-linecap="round" stroke-linejoin="round"/>
<path d="M115.815 157.641C115.249 157.53 114.401 156.848 113.634 156.688C113.92 157.347 114.015 158.096 113.906 158.824C113.874 159.029 113.835 159.234 113.793 159.419H113.924L117.236 160.602L117.6 159.695C117.709 159.416 117.765 159.113 117.765 158.807C117.765 158.501 117.709 158.199 117.6 157.92C117.6 157.92 116.578 157.78 115.815 157.641Z" fill="#8F8F8F" stroke="#263238" stroke-width="0.988167" stroke-linecap="round" stroke-linejoin="round"/>
<path d="M116.186 161.218L115.168 159.887C115.168 159.887 113.641 159.887 113.259 159.295C112.55 158.324 111.686 157.52 110.715 156.929C109.82 156.485 108.548 157.668 107.785 157.816C107.021 157.964 106.017 158.112 106.017 158.112C105.908 158.391 105.852 158.693 105.852 158.999C105.852 159.306 105.908 159.608 106.017 159.887L106.399 160.774L109.707 159.591C109.707 159.591 111.238 159.591 112.001 160.183C112.765 160.774 112.892 161.826 113.768 161.826C114.592 161.736 115.404 161.532 116.186 161.218Z" fill="white" stroke="#263238" stroke-width="0.988167" stroke-linecap="round" stroke-linejoin="round"/>
<path d="M107.785 157.817C108.354 157.706 109.198 157.029 109.965 156.864C109.682 157.525 109.587 158.273 109.693 159C109.729 159.21 109.767 159.411 109.81 159.596H109.683L106.374 160.779L105.993 159.892C105.884 159.613 105.827 159.311 105.827 159.005C105.827 158.698 105.884 158.396 105.993 158.117C105.993 158.117 107.021 157.965 107.785 157.817Z" fill="#8F8F8F" stroke="#263238" stroke-width="0.988167" stroke-linecap="round" stroke-linejoin="round"/>
<path d="M117.6 159.694L118.872 157.64C119.466 157.584 120.056 157.485 120.639 157.344C121.021 157.197 121.912 156.161 121.912 156.161C121.912 156.161 122.802 155.718 123.184 156.457C123.566 157.197 124.075 158.1 123.566 158.232C123.057 158.363 122.802 158.675 122.039 159.119C121.275 159.563 120.894 159.858 120.512 159.711L120.13 159.563L119.494 161.206C119.494 161.206 117.458 161.033 117.6 159.694Z" fill="white" stroke="#263238" stroke-width="0.988167" stroke-linecap="round" stroke-linejoin="round"/>
<path d="M119.508 161.181L120.084 159.706C118.872 158.79 118.872 157.652 118.872 157.652L117.6 159.706C117.458 161.033 119.508 161.181 119.508 161.181Z" fill="#8F8F8F" stroke="#263238" stroke-width="0.988167" stroke-linecap="round" stroke-linejoin="round"/>
<path d="M123.134 158.027L125.227 157.283C125.731 157.662 126.255 158.003 126.796 158.306C127.178 158.458 128.425 158.269 128.425 158.269C128.425 158.269 129.366 158.544 129.281 159.403C129.196 160.262 129.136 161.325 128.655 161.083C128.175 160.841 127.818 160.894 126.98 160.705C126.142 160.516 125.683 160.483 125.457 160.097L125.234 159.695L123.877 160.516C123.877 160.516 122.336 158.992 123.134 158.027Z" fill="white" stroke="#263238" stroke-width="0.988167" stroke-linecap="round" stroke-linejoin="round"/>
<path d="M123.873 160.549L125.103 159.789C124.619 158.203 125.227 157.283 125.227 157.283L123.135 158.027C122.336 158.992 123.873 160.549 123.873 160.549Z" fill="#8F8F8F" stroke="#263238" stroke-width="0.988167" stroke-linecap="round" stroke-linejoin="round"/>
<path d="M130.239 159.998H104.445C103.836 159.998 103.342 160.572 103.342 161.28V166.706C103.342 167.414 103.836 167.988 104.445 167.988H130.239C130.848 167.988 131.341 167.414 131.341 166.706V161.28C131.341 160.572 130.848 159.998 130.239 159.998Z" fill="white" stroke="#263238" stroke-width="0.988167" stroke-linecap="round" stroke-linejoin="round"/>
<path d="M125.449 159.974H128.602V162.952C128.602 163.354 128.465 163.74 128.22 164.024C127.976 164.308 127.644 164.468 127.298 164.468H126.754C126.408 164.468 126.076 164.308 125.831 164.024C125.587 163.74 125.449 163.354 125.449 162.952V159.974Z" fill="white" stroke="#263238" stroke-width="0.988167" stroke-linecap="round" stroke-linejoin="round"/>
<path d="M105.459 159.974H108.622V162.952C108.622 163.354 108.485 163.74 108.24 164.024C107.996 164.308 107.664 164.468 107.318 164.468H106.77C106.424 164.468 106.093 164.308 105.848 164.024C105.603 163.74 105.466 163.354 105.466 162.952V159.974H105.459Z" fill="white" stroke="#263238" stroke-width="0.988167" stroke-linecap="round" stroke-linejoin="round"/>
<path d="M37.7968 137.178H47.124C48.368 139.553 49.1138 142.235 49.3012 145.008H39.5604L37.7968 137.178Z" fill="#D6D6D6" stroke="#263238" stroke-width="0.988167" stroke-linecap="round" stroke-linejoin="round"/>
<path d="M41.7764 144.424C41.7764 144.424 39.3024 134.713 35.4145 134.356C29.1516 133.768 18.3894 134.713 18.3894 134.713C18.3894 134.713 27.0769 139.03 27.5435 146.766H42.706L41.7764 144.424Z" fill="#D6D6D6" stroke="#263238" stroke-width="0.988167" stroke-linecap="round" stroke-linejoin="round"/>
<path d="M35.4322 134.356C34.4473 134.053 33.4014 134.18 32.4916 134.713C31.0991 135.613 28.0065 140.649 28.0065 140.649H10.9813C10.9813 140.649 15.0035 136.512 18.4035 134.713C21.8036 132.914 30.8057 133.259 35.4322 134.356Z" fill="white" stroke="#263238" stroke-width="0.988167" stroke-linecap="round" stroke-linejoin="round"/>
<path d="M20.5772 143.524H45.5441C46.3507 143.523 47.1464 143.74 47.8684 144.158C48.5904 144.576 49.2189 145.183 49.7041 145.932C51.7081 149.025 55.6737 154.209 60.6607 155.935C65.2059 157.508 68.3621 157.537 70.0905 157.335C70.2899 157.315 70.4907 157.344 70.6798 157.42C70.8689 157.497 71.0418 157.619 71.1871 157.779C71.3325 157.939 71.4469 158.133 71.5229 158.349C71.5989 158.564 71.6347 158.795 71.6279 159.028C71.5537 161.082 71.2921 164.097 70.4086 165.469C69.5246 166.781 68.2613 167.676 66.853 167.988H19.0327C19.0327 167.988 14.3885 165.827 15.4736 159.533C16.5586 153.24 20.5772 143.524 20.5772 143.524Z" fill="#263238" stroke="#263238" stroke-width="0.988167" stroke-linecap="round" stroke-linejoin="round"/>
<path d="M30.1589 143.524H55.1258C55.9318 143.523 56.727 143.74 57.4483 144.158C58.1697 144.576 58.7976 145.183 59.2823 145.932C61.2863 149.025 65.2519 154.209 70.2389 155.935C74.7841 157.508 77.9368 157.537 79.6651 157.335C79.8645 157.315 80.0654 157.344 80.2544 157.42C80.4435 157.497 80.6164 157.619 80.7618 157.779C80.9071 157.939 81.0216 158.133 81.0976 158.349C81.1735 158.564 81.2093 158.795 81.2026 159.028C81.1319 161.082 80.8703 164.097 79.9867 165.469C79.1017 166.782 77.8371 167.676 76.4276 167.988H28.625C28.625 167.988 23.9844 165.827 25.0659 159.533C26.1474 153.24 30.1589 143.524 30.1589 143.524Z" fill="white" stroke="#263238" stroke-width="0.988167" stroke-linecap="round" stroke-linejoin="round"/>
<path d="M45.5498 155.286C47.1206 153.46 47.1206 150.5 45.5498 148.675C43.9791 146.849 41.4324 146.849 39.8617 148.675C38.2909 150.5 38.2909 153.46 39.8617 155.286C41.4324 157.112 43.9791 157.112 45.5498 155.286Z" fill="white" stroke="#263238" stroke-width="0.988167" stroke-linecap="round" stroke-linejoin="round"/>
<path d="M46.7886 155.284C48.3593 153.459 48.3593 150.499 46.7886 148.673C45.2178 146.847 42.6712 146.847 41.1004 148.673C39.5297 150.499 39.5297 153.459 41.1004 155.284C42.6712 157.11 45.2178 157.11 46.7886 155.284Z" fill="#263238" stroke="#263238" stroke-width="0.988167" stroke-linecap="round" stroke-linejoin="round"/>
</svg>
